<?xml version="1.0" encoding="utf-8" standalone="no"?>
<!DOCTYPE svg PUBLIC "-//W3C//DTD SVG 1.1//EN"
  "http://www.w3.org/Graphics/SVG/1.1/DTD/svg11.dtd">
<svg xmlns:xlink="http://www.w3.org/1999/xlink" width="1274.84375pt" height="506.152836pt" viewBox="0 0 1274.84375 506.152836" xmlns="http://www.w3.org/2000/svg" version="1.1">
 <metadata>
  <rdf:RDF xmlns:dc="http://purl.org/dc/elements/1.1/" xmlns:cc="http://creativecommons.org/ns#" xmlns:rdf="http://www.w3.org/1999/02/22-rdf-syntax-ns#">
   <cc:Work>
    <dc:type rdf:resource="http://purl.org/dc/dcmitype/StillImage"/>
    <dc:date>2025-02-13T11:22:09.155004</dc:date>
    <dc:format>image/svg+xml</dc:format>
    <dc:creator>
     <cc:Agent>
      <dc:title>Matplotlib v3.7.2, https://matplotlib.org/</dc:title>
     </cc:Agent>
    </dc:creator>
   </cc:Work>
  </rdf:RDF>
 </metadata>
 <defs>
  <style type="text/css">*{stroke-linejoin: round; stroke-linecap: butt}</style>
 </defs>
 <g id="figure_1">
  <g id="patch_1">
   <path d="M 0 506.152836 
L 1274.84375 506.152836 
L 1274.84375 0 
L 0 0 
z
" style="fill: #ffffff"/>
  </g>
  <g id="axes_1">
   <g id="patch_2">
    <path d="M 113.615625 396.077996 
L 950.615625 396.077996 
L 950.615625 7.997996 
L 113.615625 7.997996 
z
" style="fill: #ffffff"/>
   </g>
   <g id="PolyCollection_1">
    <defs>
     <path id="m9ab37c7674" d="M 113.615625 -457.979005 
L 113.615625 -432.613403 
L 116.762242 -434.202861 
L 119.908858 -433.709983 
L 123.055475 -435.713397 
L 126.202091 -433.850179 
L 129.348708 -433.454966 
L 132.495324 -434.07525 
L 135.641941 -435.176242 
L 138.788557 -436.492175 
L 141.935174 -436.676274 
L 145.08179 -439.110593 
L 148.228407 -438.773571 
L 151.375023 -438.412755 
L 154.52164 -439.8187 
L 157.668257 -441.371917 
L 160.814873 -439.50919 
L 163.96149 -441.291225 
L 167.108106 -440.314437 
L 170.254723 -440.464853 
L 173.401339 -444.870901 
L 176.547956 -444.071037 
L 179.694572 -444.080681 
L 182.841189 -445.605335 
L 185.987805 -442.903962 
L 189.134422 -444.162823 
L 192.281039 -448.843488 
L 195.427655 -445.859653 
L 198.574272 -443.86642 
L 201.720888 -447.655421 
L 204.867505 -445.019049 
L 208.014121 -448.840354 
L 211.160738 -444.300641 
L 214.307354 -444.914652 
L 217.453971 -443.477143 
L 220.600587 -448.417258 
L 223.747204 -450.345379 
L 226.89382 -447.515829 
L 230.040437 -442.533017 
L 233.187054 -445.654411 
L 236.33367 -448.467927 
L 239.480287 -449.854557 
L 242.626903 -451.609793 
L 245.77352 -447.643211 
L 248.920136 -450.153519 
L 252.066753 -452.216546 
L 255.213369 -451.155865 
L 258.359986 -449.894947 
L 261.506602 -447.641053 
L 264.653219 -444.497978 
L 267.799836 -452.30003 
L 270.946452 -453.376179 
L 274.093069 -453.720025 
L 277.239685 -447.983337 
L 280.386302 -449.873305 
L 283.532918 -439.701573 
L 286.679535 -438.387674 
L 289.826151 -439.038374 
L 292.972768 -435.41886 
L 296.119384 -419.191965 
L 299.266001 -435.161889 
L 302.412617 -435.686994 
L 305.559234 -431.035112 
L 308.705851 -428.554474 
L 311.852467 -428.219965 
L 314.999084 -430.044048 
L 318.1457 -419.296835 
L 321.292317 -417.305111 
L 324.438933 -423.703309 
L 327.58555 -416.56804 
L 330.732166 -421.675729 
L 333.878783 -421.85912 
L 337.025399 -412.052267 
L 340.172016 -415.074307 
L 343.318633 -404.697324 
L 346.465249 -406.762137 
L 349.611866 -412.715238 
L 352.758482 -404.017416 
L 355.905099 -406.317137 
L 359.051715 -400.205843 
L 362.198332 -402.482687 
L 365.344948 -394.522011 
L 368.491565 -399.212143 
L 371.638181 -395.144427 
L 374.784798 -395.942839 
L 377.931414 -392.868062 
L 381.078031 -398.627209 
L 384.224648 -393.049122 
L 387.371264 -389.025733 
L 390.517881 -388.402235 
L 393.664497 -382.522682 
L 396.811114 -382.081612 
L 399.95773 -381.247279 
L 403.104347 -380.633799 
L 406.250963 -370.397374 
L 409.39758 -373.525108 
L 412.544196 -378.612769 
L 415.690813 -373.702901 
L 418.83743 -372.776157 
L 421.984046 -376.826726 
L 425.130663 -378.744959 
L 428.277279 -367.786897 
L 431.423896 -366.557533 
L 434.570512 -372.225947 
L 437.717129 -370.739915 
L 440.863745 -368.737297 
L 444.010362 -366.989067 
L 447.156978 -360.220707 
L 450.303595 -359.619563 
L 453.450211 -364.326734 
L 456.596828 -359.466767 
L 459.743445 -357.087125 
L 462.890061 -364.310095 
L 466.036678 -363.602604 
L 469.183294 -364.61983 
L 472.329911 -340.609872 
L 475.476527 -335.849898 
L 478.623144 -335.18133 
L 481.76976 -345.705749 
L 484.916377 -349.355215 
L 488.062993 -345.503437 
L 491.20961 -350.903732 
L 494.356227 -331.422088 
L 497.502843 -347.278782 
L 500.64946 -337.591895 
L 503.796076 -324.418752 
L 506.942693 -335.279701 
L 510.089309 -311.348792 
L 513.235926 -323.431633 
L 516.382542 -320.776165 
L 519.529159 -317.003789 
L 522.675775 -314.379899 
L 525.822392 -307.92268 
L 528.969008 -308.850628 
L 532.115625 -301.78351 
L 535.262242 -299.353888 
L 538.408858 -296.006276 
L 541.555475 -322.270472 
L 544.702091 -285.534641 
L 547.848708 -269.699268 
L 550.995324 -286.420489 
L 554.141941 -281.890367 
L 557.288557 -267.440243 
L 560.435174 -282.08095 
L 563.58179 -263.219818 
L 566.728407 -252.975338 
L 569.875023 -256.381923 
L 573.02164 -251.491887 
L 576.168257 -245.74162 
L 579.314873 -244.315845 
L 582.46149 -247.233685 
L 585.608106 -231.707917 
L 588.754723 -227.299502 
L 591.901339 -221.506191 
L 595.047956 -228.319857 
L 598.194572 -237.86749 
L 601.341189 -216.958394 
L 604.487805 -200.337673 
L 607.634422 -214.16714 
L 610.781039 -213.532523 
L 613.927655 -188.818671 
L 617.074272 -238.043815 
L 620.220888 -195.232056 
L 623.367505 -223.267648 
L 626.514121 -178.283252 
L 629.660738 -194.1216 
L 632.807354 -177.195734 
L 635.953971 -176.61204 
L 639.100587 -168.052295 
L 642.247204 -167.237308 
L 645.39382 -175.505962 
L 648.540437 -175.591613 
L 651.687054 -162.409244 
L 654.83367 -153.740632 
L 657.980287 -153.478767 
L 661.126903 -153.455888 
L 664.27352 -144.207616 
L 667.420136 -146.020508 
L 670.566753 -152.534358 
L 673.713369 -156.987757 
L 676.859986 -132.452604 
L 680.006602 -135.436783 
L 683.153219 -130.873567 
L 686.299836 -135.973337 
L 689.446452 -166.645364 
L 692.593069 -134.265652 
L 695.739685 -146.262622 
L 698.886302 -136.573477 
L 702.032918 -132.296754 
L 705.179535 -144.32712 
L 708.326151 -127.371191 
L 711.472768 -139.674748 
L 714.619384 -137.170022 
L 717.766001 -141.246338 
L 720.912617 -131.472768 
L 724.059234 -131.421174 
L 727.205851 -132.864205 
L 730.352467 -143.749361 
L 733.499084 -138.206162 
L 736.6457 -138.287001 
L 739.792317 -138.33996 
L 742.938933 -134.314098 
L 746.08555 -138.64364 
L 749.232166 -135.93639 
L 752.378783 -131.660537 
L 755.525399 -131.601715 
L 758.672016 -135.47435 
L 761.818633 -141.266094 
L 764.965249 -136.741805 
L 768.111866 -138.241409 
L 771.258482 -135.053901 
L 774.405099 -150.496219 
L 777.551715 -138.713648 
L 780.698332 -201.325985 
L 783.844948 -157.684577 
L 786.991565 -139.137806 
L 790.138181 -143.39572 
L 793.284798 -155.520698 
L 796.431414 -139.453703 
L 799.578031 -141.8445 
L 802.724648 -144.777863 
L 805.871264 -147.355996 
L 809.017881 -149.169514 
L 812.164497 -149.498766 
L 815.311114 -148.748562 
L 818.45773 -152.321456 
L 821.604347 -148.461494 
L 824.750963 -153.241237 
L 827.89758 -156.616297 
L 831.044196 -159.478442 
L 834.190813 -165.053979 
L 837.33743 -157.252469 
L 840.484046 -160.829152 
L 843.630663 -174.519068 
L 846.777279 -168.109769 
L 849.923896 -164.010835 
L 853.070512 -165.387258 
L 856.217129 -166.709926 
L 859.363745 -167.966474 
L 862.510362 -168.979071 
L 865.656978 -169.996792 
L 868.803595 -171.021328 
L 871.950211 -172.053277 
L 875.096828 -173.092882 
L 878.243445 -174.315099 
L 881.390061 -175.532731 
L 884.536678 -176.74576 
L 887.683294 -177.953564 
L 890.829911 -179.155942 
L 893.976527 -180.353385 
L 897.123144 -181.547153 
L 900.26976 -182.657921 
L 903.416377 -183.742565 
L 906.562993 -184.803322 
L 909.70961 -185.8418 
L 912.856227 -186.859213 
L 916.002843 -187.856428 
L 919.14946 -188.834012 
L 922.296076 -191.572376 
L 925.442693 -194.210565 
L 928.589309 -196.755261 
L 931.735926 -199.21306 
L 934.882542 -201.589955 
L 938.029159 -203.891278 
L 941.175775 -206.121752 
L 944.322392 -205.638506 
L 947.469008 -205.203569 
L 950.615625 -204.816661 
L 950.615625 -354.853836 
L 950.615625 -354.853836 
L 947.469008 -353.969255 
L 944.322392 -353.09116 
L 941.175775 -352.221227 
L 938.029159 -351.714089 
L 934.882542 -351.18422 
L 931.735926 -350.630022 
L 928.589309 -350.049443 
L 925.442693 -349.439853 
L 922.296076 -348.797985 
L 919.14946 -348.120393 
L 916.002843 -347.824452 
L 912.856227 -347.493517 
L 909.70961 -347.127007 
L 906.562993 -346.724046 
L 903.416377 -346.28335 
L 900.26976 -345.803074 
L 897.123144 -345.280108 
L 893.976527 -344.076312 
L 890.829911 -342.862433 
L 887.683294 -341.637221 
L 884.536678 -340.40034 
L 881.390061 -339.152339 
L 878.243445 -337.894396 
L 875.096828 -336.626488 
L 871.950211 -334.966535 
L 868.803595 -333.349291 
L 865.656978 -331.772049 
L 862.510362 -330.232574 
L 859.363745 -328.72898 
L 856.217129 -328.783822 
L 853.070512 -328.481209 
L 849.923896 -327.9154 
L 846.777279 -326.61015 
L 843.630663 -325.486576 
L 840.484046 -323.837587 
L 837.33743 -322.089306 
L 834.190813 -322.034383 
L 831.044196 -319.110889 
L 827.89758 -317.219709 
L 824.750963 -314.757065 
L 821.604347 -311.521047 
L 818.45773 -314.854528 
L 815.311114 -311.321833 
L 812.164497 -311.335774 
L 809.017881 -310.646687 
L 805.871264 -308.74185 
L 802.724648 -305.950945 
L 799.578031 -305.469219 
L 796.431414 -304.57193 
L 793.284798 -305.471554 
L 790.138181 -303.310712 
L 786.991565 -299.97724 
L 783.844948 -301.987065 
L 780.698332 -308.554322 
L 777.551715 -297.626103 
L 774.405099 -299.392007 
L 771.258482 -295.611743 
L 768.111866 -294.995991 
L 764.965249 -293.633437 
L 761.818633 -293.266349 
L 758.672016 -290.3223 
L 755.525399 -289.192809 
L 752.378783 -288.593135 
L 749.232166 -287.26384 
L 746.08555 -287.357316 
L 742.938933 -286.586792 
L 739.792317 -287.364691 
L 736.6457 -286.093664 
L 733.499084 -284.886618 
L 730.352467 -285.836134 
L 727.205851 -281.825603 
L 724.059234 -280.593089 
L 720.912617 -279.377604 
L 717.766001 -282.508012 
L 714.619384 -280.092095 
L 711.472768 -279.54609 
L 708.326151 -275.875401 
L 705.179535 -280.404856 
L 702.032918 -276.270023 
L 698.886302 -276.866152 
L 695.739685 -279.472962 
L 692.593069 -275.308674 
L 689.446452 -283.312852 
L 686.299836 -274.710066 
L 683.153219 -271.890467 
L 680.006602 -272.845102 
L 676.859986 -271.712715 
L 673.713369 -278.533753 
L 670.566753 -277.025156 
L 667.420136 -274.683806 
L 664.27352 -273.677976 
L 661.126903 -276.488729 
L 657.980287 -276.499605 
L 654.83367 -275.664224 
L 651.687054 -280.00227 
L 648.540437 -283.570997 
L 645.39382 -282.8704 
L 642.247204 -280.400306 
L 639.100587 -280.268985 
L 635.953971 -283.838288 
L 632.807354 -283.684525 
L 629.660738 -289.678615 
L 626.514121 -284.17806 
L 623.367505 -297.734593 
L 620.220888 -289.248686 
L 617.074272 -304.548968 
L 613.927655 -287.292951 
L 610.781039 -296.83947 
L 607.634422 -297.693851 
L 604.487805 -290.72688 
L 601.341189 -298.112604 
L 598.194572 -305.950673 
L 595.047956 -301.754586 
L 591.901339 -299.789972 
L 588.754723 -301.934878 
L 585.608106 -302.827048 
L 582.46149 -305.944706 
L 579.314873 -309.14728 
L 576.168257 -310.297836 
L 573.02164 -312.18188 
L 569.875023 -313.808644 
L 566.728407 -312.561735 
L 563.58179 -316.86734 
L 560.435174 -324.226954 
L 557.288557 -320.134643 
L 554.141941 -324.214315 
L 550.995324 -327.715225 
L 547.848708 -320.335925 
L 544.702091 -327.309893 
L 541.555475 -342.179142 
L 538.408858 -331.607604 
L 535.262242 -333.019866 
L 532.115625 -334.276688 
L 528.969008 -336.849439 
L 525.822392 -336.068798 
L 522.675775 -339.843884 
L 519.529159 -341.791612 
L 516.382542 -342.953144 
L 513.235926 -343.726554 
L 510.089309 -338.776753 
L 506.942693 -350.412379 
L 503.796076 -344.401707 
L 500.64946 -351.679478 
L 497.502843 -357.039892 
L 494.356227 -348.039627 
L 491.20961 -359.491746 
L 488.062993 -356.465597 
L 484.916377 -359.093739 
L 481.76976 -357.145133 
L 478.623144 -350.822072 
L 475.476527 -352.360808 
L 472.329911 -353.685909 
L 469.183294 -371.163128 
L 466.036678 -370.033664 
L 462.890061 -370.75955 
L 459.743445 -364.460867 
L 456.596828 -366.803328 
L 453.450211 -369.333012 
L 450.303595 -367.84495 
L 447.156978 -366.970937 
L 444.010362 -372.775961 
L 440.863745 -375.400982 
L 437.717129 -379.076095 
L 434.570512 -380.640491 
L 431.423896 -371.980822 
L 428.277279 -373.882341 
L 425.130663 -391.015796 
L 421.984046 -386.528271 
L 418.83743 -379.663665 
L 415.690813 -381.427055 
L 412.544196 -389.103493 
L 409.39758 -380.078327 
L 406.250963 -376.613579 
L 403.104347 -391.311583 
L 399.95773 -391.376883 
L 396.811114 -392.005518 
L 393.664497 -393.984072 
L 390.517881 -401.572271 
L 387.371264 -403.024242 
L 384.224648 -408.095283 
L 381.078031 -418.033229 
L 377.931414 -408.731688 
L 374.784798 -413.796245 
L 371.638181 -411.901743 
L 368.491565 -414.916636 
L 365.344948 -410.828405 
L 362.198332 -422.376712 
L 359.051715 -415.438171 
L 355.905099 -426.357035 
L 352.758482 -421.340536 
L 349.611866 -433.180837 
L 346.465249 -425.787138 
L 343.318633 -422.609956 
L 340.172016 -433.303116 
L 337.025399 -430.581804 
L 333.878783 -442.47187 
L 330.732166 -441.655442 
L 327.58555 -435.930031 
L 324.438933 -444.700803 
L 321.292317 -437.081359 
L 318.1457 -437.856498 
L 314.999084 -450.868024 
L 311.852467 -448.2924 
L 308.705851 -448.384413 
L 305.559234 -450.932119 
L 302.412617 -457.357293 
L 299.266001 -455.119349 
L 296.119384 -434.396404 
L 292.972768 -452.128885 
L 289.826151 -458.71869 
L 286.679535 -456.504236 
L 283.532918 -459.252857 
L 280.386302 -468.205273 
L 277.239685 -467.481789 
L 274.093069 -472.219592 
L 270.946452 -472.154215 
L 267.799836 -470.516104 
L 264.653219 -461.936795 
L 261.506602 -465.715786 
L 258.359986 -468.615889 
L 255.213369 -469.540918 
L 252.066753 -470.747964 
L 248.920136 -468.922167 
L 245.77352 -465.993616 
L 242.626903 -470.780154 
L 239.480287 -469.715703 
L 236.33367 -468.013391 
L 233.187054 -465.467043 
L 230.040437 -461.745652 
L 226.89382 -467.888988 
L 223.747204 -471.403643 
L 220.600587 -469.673636 
L 217.453971 -464.415957 
L 214.307354 -465.981274 
L 211.160738 -465.292805 
L 208.014121 -471.435038 
L 204.867505 -467.161638 
L 201.720888 -470.169978 
L 198.574272 -466.578336 
L 195.427655 -469.008906 
L 192.281039 -473.298188 
L 189.134422 -467.919215 
L 185.987805 -466.822052 
L 182.841189 -470.259558 
L 179.694572 -469.05666 
L 176.547956 -469.252991 
L 173.401339 -469.93881 
L 170.254723 -465.112347 
L 167.108106 -465.032829 
L 163.96149 -466.380165 
L 160.814873 -464.436833 
L 157.668257 -466.95481 
L 154.52164 -465.298325 
L 151.375023 -463.680071 
L 148.228407 -464.253752 
L 145.08179 -464.770965 
L 141.935174 -461.917191 
L 138.788557 -461.871197 
L 135.641941 -460.203685 
L 132.495324 -458.949374 
L 129.348708 -458.627713 
L 126.202091 -458.772914 
L 123.055475 -461.181927 
L 119.908858 -458.445364 
L 116.762242 -459.547447 
L 113.615625 -457.979005 
z
" style="stroke: #008000; stroke-opacity: 0.3"/>
    </defs>
    <g clip-path="url(#pff21f0fa9c)">
     <use xlink:href="#m9ab37c7674" x="0" y="506.152836" style="fill: #008000; fill-opacity: 0.3; stroke: #008000; stroke-opacity: 0.3"/>
    </g>
   </g>
   <g id="matplotlib.axis_1">
    <g id="xtick_1">
     <g id="line2d_1">
      <defs>
       <path id="mb410a52bd2" d="M 0 0 
L 0 3.5 
" style="stroke: #000000; stroke-width: 0.8"/>
      </defs>
      <g>
       <use xlink:href="#mb410a52bd2" x="113.615625" y="396.077996" style="stroke: #000000; stroke-width: 0.8"/>
      </g>
     </g>
     <g id="text_1">
      <!-- 2022-09-01 -->
      <g transform="translate(28.486598 496.011714) rotate(-45) scale(0.2 -0.2)">
       <defs>
        <path id="DejaVuSans-32" d="M 1228 531 
L 3431 531 
L 3431 0 
L 469 0 
L 469 531 
Q 828 903 1448 1529 
Q 2069 2156 2228 2338 
Q 2531 2678 2651 2914 
Q 2772 3150 2772 3378 
Q 2772 3750 2511 3984 
Q 2250 4219 1831 4219 
Q 1534 4219 1204 4116 
Q 875 4013 500 3803 
L 500 4441 
Q 881 4594 1212 4672 
Q 1544 4750 1819 4750 
Q 2544 4750 2975 4387 
Q 3406 4025 3406 3419 
Q 3406 3131 3298 2873 
Q 3191 2616 2906 2266 
Q 2828 2175 2409 1742 
Q 1991 1309 1228 531 
z
" transform="scale(0.015625)"/>
        <path id="DejaVuSans-30" d="M 2034 4250 
Q 1547 4250 1301 3770 
Q 1056 3291 1056 2328 
Q 1056 1369 1301 889 
Q 1547 409 2034 409 
Q 2525 409 2770 889 
Q 3016 1369 3016 2328 
Q 3016 3291 2770 3770 
Q 2525 4250 2034 4250 
z
M 2034 4750 
Q 2819 4750 3233 4129 
Q 3647 3509 3647 2328 
Q 3647 1150 3233 529 
Q 2819 -91 2034 -91 
Q 1250 -91 836 529 
Q 422 1150 422 2328 
Q 422 3509 836 4129 
Q 1250 4750 2034 4750 
z
" transform="scale(0.015625)"/>
        <path id="DejaVuSans-2d" d="M 313 2009 
L 1997 2009 
L 1997 1497 
L 313 1497 
L 313 2009 
z
" transform="scale(0.015625)"/>
        <path id="DejaVuSans-39" d="M 703 97 
L 703 672 
Q 941 559 1184 500 
Q 1428 441 1663 441 
Q 2288 441 2617 861 
Q 2947 1281 2994 2138 
Q 2813 1869 2534 1725 
Q 2256 1581 1919 1581 
Q 1219 1581 811 2004 
Q 403 2428 403 3163 
Q 403 3881 828 4315 
Q 1253 4750 1959 4750 
Q 2769 4750 3195 4129 
Q 3622 3509 3622 2328 
Q 3622 1225 3098 567 
Q 2575 -91 1691 -91 
Q 1453 -91 1209 -44 
Q 966 3 703 97 
z
M 1959 2075 
Q 2384 2075 2632 2365 
Q 2881 2656 2881 3163 
Q 2881 3666 2632 3958 
Q 2384 4250 1959 4250 
Q 1534 4250 1286 3958 
Q 1038 3666 1038 3163 
Q 1038 2656 1286 2365 
Q 1534 2075 1959 2075 
z
" transform="scale(0.015625)"/>
        <path id="DejaVuSans-31" d="M 794 531 
L 1825 531 
L 1825 4091 
L 703 3866 
L 703 4441 
L 1819 4666 
L 2450 4666 
L 2450 531 
L 3481 531 
L 3481 0 
L 794 0 
L 794 531 
z
" transform="scale(0.015625)"/>
       </defs>
       <use xlink:href="#DejaVuSans-32"/>
       <use xlink:href="#DejaVuSans-30" x="63.623047"/>
       <use xlink:href="#DejaVuSans-32" x="127.246094"/>
       <use xlink:href="#DejaVuSans-32" x="190.869141"/>
       <use xlink:href="#DejaVuSans-2d" x="254.492188"/>
       <use xlink:href="#DejaVuSans-30" x="290.576172"/>
       <use xlink:href="#DejaVuSans-39" x="354.199219"/>
       <use xlink:href="#DejaVuSans-2d" x="417.822266"/>
       <use xlink:href="#DejaVuSans-30" x="453.90625"/>
       <use xlink:href="#DejaVuSans-31" x="517.529297"/>
      </g>
     </g>
    </g>
    <g id="xtick_2">
     <g id="line2d_2">
      <g>
       <use xlink:href="#mb410a52bd2" x="157.668257" y="396.077996" style="stroke: #000000; stroke-width: 0.8"/>
      </g>
     </g>
     <g id="text_2">
      <!-- 2022-09-15 -->
      <g transform="translate(72.539229 496.011714) rotate(-45) scale(0.2 -0.2)">
       <defs>
        <path id="DejaVuSans-35" d="M 691 4666 
L 3169 4666 
L 3169 4134 
L 1269 4134 
L 1269 2991 
Q 1406 3038 1543 3061 
Q 1681 3084 1819 3084 
Q 2600 3084 3056 2656 
Q 3513 2228 3513 1497 
Q 3513 744 3044 326 
Q 2575 -91 1722 -91 
Q 1428 -91 1123 -41 
Q 819 9 494 109 
L 494 744 
Q 775 591 1075 516 
Q 1375 441 1709 441 
Q 2250 441 2565 725 
Q 2881 1009 2881 1497 
Q 2881 1984 2565 2268 
Q 2250 2553 1709 2553 
Q 1456 2553 1204 2497 
Q 953 2441 691 2322 
L 691 4666 
z
" transform="scale(0.015625)"/>
       </defs>
       <use xlink:href="#DejaVuSans-32"/>
       <use xlink:href="#DejaVuSans-30" x="63.623047"/>
       <use xlink:href="#DejaVuSans-32" x="127.246094"/>
       <use xlink:href="#DejaVuSans-32" x="190.869141"/>
       <use xlink:href="#DejaVuSans-2d" x="254.492188"/>
       <use xlink:href="#DejaVuSans-30" x="290.576172"/>
       <use xlink:href="#DejaVuSans-39" x="354.199219"/>
       <use xlink:href="#DejaVuSans-2d" x="417.822266"/>
       <use xlink:href="#DejaVuSans-31" x="453.90625"/>
       <use xlink:href="#DejaVuSans-35" x="517.529297"/>
      </g>
     </g>
    </g>
    <g id="xtick_3">
     <g id="line2d_3">
      <g>
       <use xlink:href="#mb410a52bd2" x="201.720888" y="396.077996" style="stroke: #000000; stroke-width: 0.8"/>
      </g>
     </g>
     <g id="text_3">
      <!-- 2022-09-29 -->
      <g transform="translate(116.591861 496.011714) rotate(-45) scale(0.2 -0.2)">
       <use xlink:href="#DejaVuSans-32"/>
       <use xlink:href="#DejaVuSans-30" x="63.623047"/>
       <use xlink:href="#DejaVuSans-32" x="127.246094"/>
       <use xlink:href="#DejaVuSans-32" x="190.869141"/>
       <use xlink:href="#DejaVuSans-2d" x="254.492188"/>
       <use xlink:href="#DejaVuSans-30" x="290.576172"/>
       <use xlink:href="#DejaVuSans-39" x="354.199219"/>
       <use xlink:href="#DejaVuSans-2d" x="417.822266"/>
       <use xlink:href="#DejaVuSans-32" x="453.90625"/>
       <use xlink:href="#DejaVuSans-39" x="517.529297"/>
      </g>
     </g>
    </g>
    <g id="xtick_4">
     <g id="line2d_4">
      <g>
       <use xlink:href="#mb410a52bd2" x="245.77352" y="396.077996" style="stroke: #000000; stroke-width: 0.8"/>
      </g>
     </g>
     <g id="text_4">
      <!-- 2022-10-13 -->
      <g transform="translate(160.644492 496.011714) rotate(-45) scale(0.2 -0.2)">
       <defs>
        <path id="DejaVuSans-33" d="M 2597 2516 
Q 3050 2419 3304 2112 
Q 3559 1806 3559 1356 
Q 3559 666 3084 287 
Q 2609 -91 1734 -91 
Q 1441 -91 1130 -33 
Q 819 25 488 141 
L 488 750 
Q 750 597 1062 519 
Q 1375 441 1716 441 
Q 2309 441 2620 675 
Q 2931 909 2931 1356 
Q 2931 1769 2642 2001 
Q 2353 2234 1838 2234 
L 1294 2234 
L 1294 2753 
L 1863 2753 
Q 2328 2753 2575 2939 
Q 2822 3125 2822 3475 
Q 2822 3834 2567 4026 
Q 2313 4219 1838 4219 
Q 1578 4219 1281 4162 
Q 984 4106 628 3988 
L 628 4550 
Q 988 4650 1302 4700 
Q 1616 4750 1894 4750 
Q 2613 4750 3031 4423 
Q 3450 4097 3450 3541 
Q 3450 3153 3228 2886 
Q 3006 2619 2597 2516 
z
" transform="scale(0.015625)"/>
       </defs>
       <use xlink:href="#DejaVuSans-32"/>
       <use xlink:href="#DejaVuSans-30" x="63.623047"/>
       <use xlink:href="#DejaVuSans-32" x="127.246094"/>
       <use xlink:href="#DejaVuSans-32" x="190.869141"/>
       <use xlink:href="#DejaVuSans-2d" x="254.492188"/>
       <use xlink:href="#DejaVuSans-31" x="290.576172"/>
       <use xlink:href="#DejaVuSans-30" x="354.199219"/>
       <use xlink:href="#DejaVuSans-2d" x="417.822266"/>
       <use xlink:href="#DejaVuSans-31" x="453.90625"/>
       <use xlink:href="#DejaVuSans-33" x="517.529297"/>
      </g>
     </g>
    </g>
    <g id="xtick_5">
     <g id="line2d_5">
      <g>
       <use xlink:href="#mb410a52bd2" x="289.826151" y="396.077996" style="stroke: #000000; stroke-width: 0.8"/>
      </g>
     </g>
     <g id="text_5">
      <!-- 2022-10-27 -->
      <g transform="translate(204.697124 496.011714) rotate(-45) scale(0.2 -0.2)">
       <defs>
        <path id="DejaVuSans-37" d="M 525 4666 
L 3525 4666 
L 3525 4397 
L 1831 0 
L 1172 0 
L 2766 4134 
L 525 4134 
L 525 4666 
z
" transform="scale(0.015625)"/>
       </defs>
       <use xlink:href="#DejaVuSans-32"/>
       <use xlink:href="#DejaVuSans-30" x="63.623047"/>
       <use xlink:href="#DejaVuSans-32" x="127.246094"/>
       <use xlink:href="#DejaVuSans-32" x="190.869141"/>
       <use xlink:href="#DejaVuSans-2d" x="254.492188"/>
       <use xlink:href="#DejaVuSans-31" x="290.576172"/>
       <use xlink:href="#DejaVuSans-30" x="354.199219"/>
       <use xlink:href="#DejaVuSans-2d" x="417.822266"/>
       <use xlink:href="#DejaVuSans-32" x="453.90625"/>
       <use xlink:href="#DejaVuSans-37" x="517.529297"/>
      </g>
     </g>
    </g>
    <g id="xtick_6">
     <g id="line2d_6">
      <g>
       <use xlink:href="#mb410a52bd2" x="333.878783" y="396.077996" style="stroke: #000000; stroke-width: 0.8"/>
      </g>
     </g>
     <g id="text_6">
      <!-- 2022-11-10 -->
      <g transform="translate(248.749756 496.011714) rotate(-45) scale(0.2 -0.2)">
       <use xlink:href="#DejaVuSans-32"/>
       <use xlink:href="#DejaVuSans-30" x="63.623047"/>
       <use xlink:href="#DejaVuSans-32" x="127.246094"/>
       <use xlink:href="#DejaVuSans-32" x="190.869141"/>
       <use xlink:href="#DejaVuSans-2d" x="254.492188"/>
       <use xlink:href="#DejaVuSans-31" x="290.576172"/>
       <use xlink:href="#DejaVuSans-31" x="354.199219"/>
       <use xlink:href="#DejaVuSans-2d" x="417.822266"/>
       <use xlink:href="#DejaVuSans-31" x="453.90625"/>
       <use xlink:href="#DejaVuSans-30" x="517.529297"/>
      </g>
     </g>
    </g>
    <g id="xtick_7">
     <g id="line2d_7">
      <g>
       <use xlink:href="#mb410a52bd2" x="377.931414" y="396.077996" style="stroke: #000000; stroke-width: 0.8"/>
      </g>
     </g>
     <g id="text_7">
      <!-- 2022-11-24 -->
      <g transform="translate(292.802387 496.011714) rotate(-45) scale(0.2 -0.2)">
       <defs>
        <path id="DejaVuSans-34" d="M 2419 4116 
L 825 1625 
L 2419 1625 
L 2419 4116 
z
M 2253 4666 
L 3047 4666 
L 3047 1625 
L 3713 1625 
L 3713 1100 
L 3047 1100 
L 3047 0 
L 2419 0 
L 2419 1100 
L 313 1100 
L 313 1709 
L 2253 4666 
z
" transform="scale(0.015625)"/>
       </defs>
       <use xlink:href="#DejaVuSans-32"/>
       <use xlink:href="#DejaVuSans-30" x="63.623047"/>
       <use xlink:href="#DejaVuSans-32" x="127.246094"/>
       <use xlink:href="#DejaVuSans-32" x="190.869141"/>
       <use xlink:href="#DejaVuSans-2d" x="254.492188"/>
       <use xlink:href="#DejaVuSans-31" x="290.576172"/>
       <use xlink:href="#DejaVuSans-31" x="354.199219"/>
       <use xlink:href="#DejaVuSans-2d" x="417.822266"/>
       <use xlink:href="#DejaVuSans-32" x="453.90625"/>
       <use xlink:href="#DejaVuSans-34" x="517.529297"/>
      </g>
     </g>
    </g>
    <g id="xtick_8">
     <g id="line2d_8">
      <g>
       <use xlink:href="#mb410a52bd2" x="421.984046" y="396.077996" style="stroke: #000000; stroke-width: 0.8"/>
      </g>
     </g>
     <g id="text_8">
      <!-- 2022-12-08 -->
      <g transform="translate(336.855019 496.011714) rotate(-45) scale(0.2 -0.2)">
       <defs>
        <path id="DejaVuSans-38" d="M 2034 2216 
Q 1584 2216 1326 1975 
Q 1069 1734 1069 1313 
Q 1069 891 1326 650 
Q 1584 409 2034 409 
Q 2484 409 2743 651 
Q 3003 894 3003 1313 
Q 3003 1734 2745 1975 
Q 2488 2216 2034 2216 
z
M 1403 2484 
Q 997 2584 770 2862 
Q 544 3141 544 3541 
Q 544 4100 942 4425 
Q 1341 4750 2034 4750 
Q 2731 4750 3128 4425 
Q 3525 4100 3525 3541 
Q 3525 3141 3298 2862 
Q 3072 2584 2669 2484 
Q 3125 2378 3379 2068 
Q 3634 1759 3634 1313 
Q 3634 634 3220 271 
Q 2806 -91 2034 -91 
Q 1263 -91 848 271 
Q 434 634 434 1313 
Q 434 1759 690 2068 
Q 947 2378 1403 2484 
z
M 1172 3481 
Q 1172 3119 1398 2916 
Q 1625 2713 2034 2713 
Q 2441 2713 2670 2916 
Q 2900 3119 2900 3481 
Q 2900 3844 2670 4047 
Q 2441 4250 2034 4250 
Q 1625 4250 1398 4047 
Q 1172 3844 1172 3481 
z
" transform="scale(0.015625)"/>
       </defs>
       <use xlink:href="#DejaVuSans-32"/>
       <use xlink:href="#DejaVuSans-30" x="63.623047"/>
       <use xlink:href="#DejaVuSans-32" x="127.246094"/>
       <use xlink:href="#DejaVuSans-32" x="190.869141"/>
       <use xlink:href="#DejaVuSans-2d" x="254.492188"/>
       <use xlink:href="#DejaVuSans-31" x="290.576172"/>
       <use xlink:href="#DejaVuSans-32" x="354.199219"/>
       <use xlink:href="#DejaVuSans-2d" x="417.822266"/>
       <use xlink:href="#DejaVuSans-30" x="453.90625"/>
       <use xlink:href="#DejaVuSans-38" x="517.529297"/>
      </g>
     </g>
    </g>
    <g id="xtick_9">
     <g id="line2d_9">
      <g>
       <use xlink:href="#mb410a52bd2" x="466.036678" y="396.077996" style="stroke: #000000; stroke-width: 0.8"/>
      </g>
     </g>
     <g id="text_9">
      <!-- 2022-12-22 -->
      <g transform="translate(380.90765 496.011714) rotate(-45) scale(0.2 -0.2)">
       <use xlink:href="#DejaVuSans-32"/>
       <use xlink:href="#DejaVuSans-30" x="63.623047"/>
       <use xlink:href="#DejaVuSans-32" x="127.246094"/>
       <use xlink:href="#DejaVuSans-32" x="190.869141"/>
       <use xlink:href="#DejaVuSans-2d" x="254.492188"/>
       <use xlink:href="#DejaVuSans-31" x="290.576172"/>
       <use xlink:href="#DejaVuSans-32" x="354.199219"/>
       <use xlink:href="#DejaVuSans-2d" x="417.822266"/>
       <use xlink:href="#DejaVuSans-32" x="453.90625"/>
       <use xlink:href="#DejaVuSans-32" x="517.529297"/>
      </g>
     </g>
    </g>
    <g id="xtick_10">
     <g id="line2d_10">
      <g>
       <use xlink:href="#mb410a52bd2" x="510.089309" y="396.077996" style="stroke: #000000; stroke-width: 0.8"/>
      </g>
     </g>
     <g id="text_10">
      <!-- 2023-01-05 -->
      <g transform="translate(424.960282 496.011714) rotate(-45) scale(0.2 -0.2)">
       <use xlink:href="#DejaVuSans-32"/>
       <use xlink:href="#DejaVuSans-30" x="63.623047"/>
       <use xlink:href="#DejaVuSans-32" x="127.246094"/>
       <use xlink:href="#DejaVuSans-33" x="190.869141"/>
       <use xlink:href="#DejaVuSans-2d" x="254.492188"/>
       <use xlink:href="#DejaVuSans-30" x="290.576172"/>
       <use xlink:href="#DejaVuSans-31" x="354.199219"/>
       <use xlink:href="#DejaVuSans-2d" x="417.822266"/>
       <use xlink:href="#DejaVuSans-30" x="453.90625"/>
       <use xlink:href="#DejaVuSans-35" x="517.529297"/>
      </g>
     </g>
    </g>
    <g id="xtick_11">
     <g id="line2d_11">
      <g>
       <use xlink:href="#mb410a52bd2" x="554.141941" y="396.077996" style="stroke: #000000; stroke-width: 0.8"/>
      </g>
     </g>
     <g id="text_11">
      <!-- 2023-01-19 -->
      <g transform="translate(469.012913 496.011714) rotate(-45) scale(0.2 -0.2)">
       <use xlink:href="#DejaVuSans-32"/>
       <use xlink:href="#DejaVuSans-30" x="63.623047"/>
       <use xlink:href="#DejaVuSans-32" x="127.246094"/>
       <use xlink:href="#DejaVuSans-33" x="190.869141"/>
       <use xlink:href="#DejaVuSans-2d" x="254.492188"/>
       <use xlink:href="#DejaVuSans-30" x="290.576172"/>
       <use xlink:href="#DejaVuSans-31" x="354.199219"/>
       <use xlink:href="#DejaVuSans-2d" x="417.822266"/>
       <use xlink:href="#DejaVuSans-31" x="453.90625"/>
       <use xlink:href="#DejaVuSans-39" x="517.529297"/>
      </g>
     </g>
    </g>
    <g id="xtick_12">
     <g id="line2d_12">
      <g>
       <use xlink:href="#mb410a52bd2" x="598.194572" y="396.077996" style="stroke: #000000; stroke-width: 0.8"/>
      </g>
     </g>
     <g id="text_12">
      <!-- 2023-02-02 -->
      <g transform="translate(513.065545 496.011714) rotate(-45) scale(0.2 -0.2)">
       <use xlink:href="#DejaVuSans-32"/>
       <use xlink:href="#DejaVuSans-30" x="63.623047"/>
       <use xlink:href="#DejaVuSans-32" x="127.246094"/>
       <use xlink:href="#DejaVuSans-33" x="190.869141"/>
       <use xlink:href="#DejaVuSans-2d" x="254.492188"/>
       <use xlink:href="#DejaVuSans-30" x="290.576172"/>
       <use xlink:href="#DejaVuSans-32" x="354.199219"/>
       <use xlink:href="#DejaVuSans-2d" x="417.822266"/>
       <use xlink:href="#DejaVuSans-30" x="453.90625"/>
       <use xlink:href="#DejaVuSans-32" x="517.529297"/>
      </g>
     </g>
    </g>
    <g id="xtick_13">
     <g id="line2d_13">
      <g>
       <use xlink:href="#mb410a52bd2" x="642.247204" y="396.077996" style="stroke: #000000; stroke-width: 0.8"/>
      </g>
     </g>
     <g id="text_13">
      <!-- 2023-02-16 -->
      <g transform="translate(557.118177 496.011714) rotate(-45) scale(0.2 -0.2)">
       <defs>
        <path id="DejaVuSans-36" d="M 2113 2584 
Q 1688 2584 1439 2293 
Q 1191 2003 1191 1497 
Q 1191 994 1439 701 
Q 1688 409 2113 409 
Q 2538 409 2786 701 
Q 3034 994 3034 1497 
Q 3034 2003 2786 2293 
Q 2538 2584 2113 2584 
z
M 3366 4563 
L 3366 3988 
Q 3128 4100 2886 4159 
Q 2644 4219 2406 4219 
Q 1781 4219 1451 3797 
Q 1122 3375 1075 2522 
Q 1259 2794 1537 2939 
Q 1816 3084 2150 3084 
Q 2853 3084 3261 2657 
Q 3669 2231 3669 1497 
Q 3669 778 3244 343 
Q 2819 -91 2113 -91 
Q 1303 -91 875 529 
Q 447 1150 447 2328 
Q 447 3434 972 4092 
Q 1497 4750 2381 4750 
Q 2619 4750 2861 4703 
Q 3103 4656 3366 4563 
z
" transform="scale(0.015625)"/>
       </defs>
       <use xlink:href="#DejaVuSans-32"/>
       <use xlink:href="#DejaVuSans-30" x="63.623047"/>
       <use xlink:href="#DejaVuSans-32" x="127.246094"/>
       <use xlink:href="#DejaVuSans-33" x="190.869141"/>
       <use xlink:href="#DejaVuSans-2d" x="254.492188"/>
       <use xlink:href="#DejaVuSans-30" x="290.576172"/>
       <use xlink:href="#DejaVuSans-32" x="354.199219"/>
       <use xlink:href="#DejaVuSans-2d" x="417.822266"/>
       <use xlink:href="#DejaVuSans-31" x="453.90625"/>
       <use xlink:href="#DejaVuSans-36" x="517.529297"/>
      </g>
     </g>
    </g>
    <g id="xtick_14">
     <g id="line2d_14">
      <g>
       <use xlink:href="#mb410a52bd2" x="686.299836" y="396.077996" style="stroke: #000000; stroke-width: 0.8"/>
      </g>
     </g>
     <g id="text_14">
      <!-- 2023-03-02 -->
      <g transform="translate(601.170808 496.011714) rotate(-45) scale(0.2 -0.2)">
       <use xlink:href="#DejaVuSans-32"/>
       <use xlink:href="#DejaVuSans-30" x="63.623047"/>
       <use xlink:href="#DejaVuSans-32" x="127.246094"/>
       <use xlink:href="#DejaVuSans-33" x="190.869141"/>
       <use xlink:href="#DejaVuSans-2d" x="254.492188"/>
       <use xlink:href="#DejaVuSans-30" x="290.576172"/>
       <use xlink:href="#DejaVuSans-33" x="354.199219"/>
       <use xlink:href="#DejaVuSans-2d" x="417.822266"/>
       <use xlink:href="#DejaVuSans-30" x="453.90625"/>
       <use xlink:href="#DejaVuSans-32" x="517.529297"/>
      </g>
     </g>
    </g>
    <g id="xtick_15">
     <g id="line2d_15">
      <g>
       <use xlink:href="#mb410a52bd2" x="730.352467" y="396.077996" style="stroke: #000000; stroke-width: 0.8"/>
      </g>
     </g>
     <g id="text_15">
      <!-- 2023-03-16 -->
      <g transform="translate(645.22344 496.011714) rotate(-45) scale(0.2 -0.2)">
       <use xlink:href="#DejaVuSans-32"/>
       <use xlink:href="#DejaVuSans-30" x="63.623047"/>
       <use xlink:href="#DejaVuSans-32" x="127.246094"/>
       <use xlink:href="#DejaVuSans-33" x="190.869141"/>
       <use xlink:href="#DejaVuSans-2d" x="254.492188"/>
       <use xlink:href="#DejaVuSans-30" x="290.576172"/>
       <use xlink:href="#DejaVuSans-33" x="354.199219"/>
       <use xlink:href="#DejaVuSans-2d" x="417.822266"/>
       <use xlink:href="#DejaVuSans-31" x="453.90625"/>
       <use xlink:href="#DejaVuSans-36" x="517.529297"/>
      </g>
     </g>
    </g>
    <g id="xtick_16">
     <g id="line2d_16">
      <g>
       <use xlink:href="#mb410a52bd2" x="774.405099" y="396.077996" style="stroke: #000000; stroke-width: 0.8"/>
      </g>
     </g>
     <g id="text_16">
      <!-- 2023-03-30 -->
      <g transform="translate(689.276071 496.011714) rotate(-45) scale(0.2 -0.2)">
       <use xlink:href="#DejaVuSans-32"/>
       <use xlink:href="#DejaVuSans-30" x="63.623047"/>
       <use xlink:href="#DejaVuSans-32" x="127.246094"/>
       <use xlink:href="#DejaVuSans-33" x="190.869141"/>
       <use xlink:href="#DejaVuSans-2d" x="254.492188"/>
       <use xlink:href="#DejaVuSans-30" x="290.576172"/>
       <use xlink:href="#DejaVuSans-33" x="354.199219"/>
       <use xlink:href="#DejaVuSans-2d" x="417.822266"/>
       <use xlink:href="#DejaVuSans-33" x="453.90625"/>
       <use xlink:href="#DejaVuSans-30" x="517.529297"/>
      </g>
     </g>
    </g>
    <g id="xtick_17">
     <g id="line2d_17">
      <g>
       <use xlink:href="#mb410a52bd2" x="818.45773" y="396.077996" style="stroke: #000000; stroke-width: 0.8"/>
      </g>
     </g>
     <g id="text_17">
      <!-- 2023-04-13 -->
      <g transform="translate(733.328703 496.011714) rotate(-45) scale(0.2 -0.2)">
       <use xlink:href="#DejaVuSans-32"/>
       <use xlink:href="#DejaVuSans-30" x="63.623047"/>
       <use xlink:href="#DejaVuSans-32" x="127.246094"/>
       <use xlink:href="#DejaVuSans-33" x="190.869141"/>
       <use xlink:href="#DejaVuSans-2d" x="254.492188"/>
       <use xlink:href="#DejaVuSans-30" x="290.576172"/>
       <use xlink:href="#DejaVuSans-34" x="354.199219"/>
       <use xlink:href="#DejaVuSans-2d" x="417.822266"/>
       <use xlink:href="#DejaVuSans-31" x="453.90625"/>
       <use xlink:href="#DejaVuSans-33" x="517.529297"/>
      </g>
     </g>
    </g>
    <g id="xtick_18">
     <g id="line2d_18">
      <g>
       <use xlink:href="#mb410a52bd2" x="862.510362" y="396.077996" style="stroke: #000000; stroke-width: 0.8"/>
      </g>
     </g>
     <g id="text_18">
      <!-- 2023-04-27 -->
      <g transform="translate(777.381335 496.011714) rotate(-45) scale(0.2 -0.2)">
       <use xlink:href="#DejaVuSans-32"/>
       <use xlink:href="#DejaVuSans-30" x="63.623047"/>
       <use xlink:href="#DejaVuSans-32" x="127.246094"/>
       <use xlink:href="#DejaVuSans-33" x="190.869141"/>
       <use xlink:href="#DejaVuSans-2d" x="254.492188"/>
       <use xlink:href="#DejaVuSans-30" x="290.576172"/>
       <use xlink:href="#DejaVuSans-34" x="354.199219"/>
       <use xlink:href="#DejaVuSans-2d" x="417.822266"/>
       <use xlink:href="#DejaVuSans-32" x="453.90625"/>
       <use xlink:href="#DejaVuSans-37" x="517.529297"/>
      </g>
     </g>
    </g>
    <g id="xtick_19">
     <g id="line2d_19">
      <g>
       <use xlink:href="#mb410a52bd2" x="906.562993" y="396.077996" style="stroke: #000000; stroke-width: 0.8"/>
      </g>
     </g>
     <g id="text_19">
      <!-- 2023-05-11 -->
      <g transform="translate(821.433966 496.011714) rotate(-45) scale(0.2 -0.2)">
       <use xlink:href="#DejaVuSans-32"/>
       <use xlink:href="#DejaVuSans-30" x="63.623047"/>
       <use xlink:href="#DejaVuSans-32" x="127.246094"/>
       <use xlink:href="#DejaVuSans-33" x="190.869141"/>
       <use xlink:href="#DejaVuSans-2d" x="254.492188"/>
       <use xlink:href="#DejaVuSans-30" x="290.576172"/>
       <use xlink:href="#DejaVuSans-35" x="354.199219"/>
       <use xlink:href="#DejaVuSans-2d" x="417.822266"/>
       <use xlink:href="#DejaVuSans-31" x="453.90625"/>
       <use xlink:href="#DejaVuSans-31" x="517.529297"/>
      </g>
     </g>
    </g>
    <g id="xtick_20">
     <g id="line2d_20">
      <g>
       <use xlink:href="#mb410a52bd2" x="950.615625" y="396.077996" style="stroke: #000000; stroke-width: 0.8"/>
      </g>
     </g>
     <g id="text_20">
      <!-- 2023-05-25 -->
      <g transform="translate(865.486598 496.011714) rotate(-45) scale(0.2 -0.2)">
       <use xlink:href="#DejaVuSans-32"/>
       <use xlink:href="#DejaVuSans-30" x="63.623047"/>
       <use xlink:href="#DejaVuSans-32" x="127.246094"/>
       <use xlink:href="#DejaVuSans-33" x="190.869141"/>
       <use xlink:href="#DejaVuSans-2d" x="254.492188"/>
       <use xlink:href="#DejaVuSans-30" x="290.576172"/>
       <use xlink:href="#DejaVuSans-35" x="354.199219"/>
       <use xlink:href="#DejaVuSans-2d" x="417.822266"/>
       <use xlink:href="#DejaVuSans-32" x="453.90625"/>
       <use xlink:href="#DejaVuSans-35" x="517.529297"/>
      </g>
     </g>
    </g>
   </g>
   <g id="matplotlib.axis_2">
    <g id="ytick_1">
     <g id="line2d_21">
      <defs>
       <path id="m00f443b661" d="M 0 0 
L -3.5 0 
" style="stroke: #000000; stroke-width: 0.8"/>
      </defs>
      <g>
       <use xlink:href="#m00f443b661" x="113.615625" y="389.941209" style="stroke: #000000; stroke-width: 0.8"/>
      </g>
     </g>
     <g id="text_21">
      <!-- −0.125 -->
      <g transform="translate(32.6 397.539647) scale(0.2 -0.2)">
       <defs>
        <path id="DejaVuSans-2212" d="M 678 2272 
L 4684 2272 
L 4684 1741 
L 678 1741 
L 678 2272 
z
" transform="scale(0.015625)"/>
        <path id="DejaVuSans-2e" d="M 684 794 
L 1344 794 
L 1344 0 
L 684 0 
L 684 794 
z
" transform="scale(0.015625)"/>
       </defs>
       <use xlink:href="#DejaVuSans-2212"/>
       <use xlink:href="#DejaVuSans-30" x="83.789062"/>
       <use xlink:href="#DejaVuSans-2e" x="147.412109"/>
       <use xlink:href="#DejaVuSans-31" x="179.199219"/>
       <use xlink:href="#DejaVuSans-32" x="242.822266"/>
       <use xlink:href="#DejaVuSans-35" x="306.445312"/>
      </g>
     </g>
    </g>
    <g id="ytick_2">
     <g id="line2d_22">
      <g>
       <use xlink:href="#m00f443b661" x="113.615625" y="343.048363" style="stroke: #000000; stroke-width: 0.8"/>
      </g>
     </g>
     <g id="text_22">
      <!-- −0.100 -->
      <g transform="translate(32.6 350.6468) scale(0.2 -0.2)">
       <use xlink:href="#DejaVuSans-2212"/>
       <use xlink:href="#DejaVuSans-30" x="83.789062"/>
       <use xlink:href="#DejaVuSans-2e" x="147.412109"/>
       <use xlink:href="#DejaVuSans-31" x="179.199219"/>
       <use xlink:href="#DejaVuSans-30" x="242.822266"/>
       <use xlink:href="#DejaVuSans-30" x="306.445312"/>
      </g>
     </g>
    </g>
    <g id="ytick_3">
     <g id="line2d_23">
      <g>
       <use xlink:href="#m00f443b661" x="113.615625" y="296.155516" style="stroke: #000000; stroke-width: 0.8"/>
      </g>
     </g>
     <g id="text_23">
      <!-- −0.075 -->
      <g transform="translate(32.6 303.753954) scale(0.2 -0.2)">
       <use xlink:href="#DejaVuSans-2212"/>
       <use xlink:href="#DejaVuSans-30" x="83.789062"/>
       <use xlink:href="#DejaVuSans-2e" x="147.412109"/>
       <use xlink:href="#DejaVuSans-30" x="179.199219"/>
       <use xlink:href="#DejaVuSans-37" x="242.822266"/>
       <use xlink:href="#DejaVuSans-35" x="306.445312"/>
      </g>
     </g>
    </g>
    <g id="ytick_4">
     <g id="line2d_24">
      <g>
       <use xlink:href="#m00f443b661" x="113.615625" y="249.26267" style="stroke: #000000; stroke-width: 0.8"/>
      </g>
     </g>
     <g id="text_24">
      <!-- −0.050 -->
      <g transform="translate(32.6 256.861107) scale(0.2 -0.2)">
       <use xlink:href="#DejaVuSans-2212"/>
       <use xlink:href="#DejaVuSans-30" x="83.789062"/>
       <use xlink:href="#DejaVuSans-2e" x="147.412109"/>
       <use xlink:href="#DejaVuSans-30" x="179.199219"/>
       <use xlink:href="#DejaVuSans-35" x="242.822266"/>
       <use xlink:href="#DejaVuSans-30" x="306.445312"/>
      </g>
     </g>
    </g>
    <g id="ytick_5">
     <g id="line2d_25">
      <g>
       <use xlink:href="#m00f443b661" x="113.615625" y="202.369823" style="stroke: #000000; stroke-width: 0.8"/>
      </g>
     </g>
     <g id="text_25">
      <!-- −0.025 -->
      <g transform="translate(32.6 209.968261) scale(0.2 -0.2)">
       <use xlink:href="#DejaVuSans-2212"/>
       <use xlink:href="#DejaVuSans-30" x="83.789062"/>
       <use xlink:href="#DejaVuSans-2e" x="147.412109"/>
       <use xlink:href="#DejaVuSans-30" x="179.199219"/>
       <use xlink:href="#DejaVuSans-32" x="242.822266"/>
       <use xlink:href="#DejaVuSans-35" x="306.445312"/>
      </g>
     </g>
    </g>
    <g id="ytick_6">
     <g id="line2d_26">
      <g>
       <use xlink:href="#m00f443b661" x="113.615625" y="155.476977" style="stroke: #000000; stroke-width: 0.8"/>
      </g>
     </g>
     <g id="text_26">
      <!-- 0.000 -->
      <g transform="translate(49.359375 163.075414) scale(0.2 -0.2)">
       <use xlink:href="#DejaVuSans-30"/>
       <use xlink:href="#DejaVuSans-2e" x="63.623047"/>
       <use xlink:href="#DejaVuSans-30" x="95.410156"/>
       <use xlink:href="#DejaVuSans-30" x="159.033203"/>
       <use xlink:href="#DejaVuSans-30" x="222.65625"/>
      </g>
     </g>
    </g>
    <g id="ytick_7">
     <g id="line2d_27">
      <g>
       <use xlink:href="#m00f443b661" x="113.615625" y="108.58413" style="stroke: #000000; stroke-width: 0.8"/>
      </g>
     </g>
     <g id="text_27">
      <!-- 0.025 -->
      <g transform="translate(49.359375 116.182568) scale(0.2 -0.2)">
       <use xlink:href="#DejaVuSans-30"/>
       <use xlink:href="#DejaVuSans-2e" x="63.623047"/>
       <use xlink:href="#DejaVuSans-30" x="95.410156"/>
       <use xlink:href="#DejaVuSans-32" x="159.033203"/>
       <use xlink:href="#DejaVuSans-35" x="222.65625"/>
      </g>
     </g>
    </g>
    <g id="ytick_8">
     <g id="line2d_28">
      <g>
       <use xlink:href="#m00f443b661" x="113.615625" y="61.691284" style="stroke: #000000; stroke-width: 0.8"/>
      </g>
     </g>
     <g id="text_28">
      <!-- 0.050 -->
      <g transform="translate(49.359375 69.289721) scale(0.2 -0.2)">
       <use xlink:href="#DejaVuSans-30"/>
       <use xlink:href="#DejaVuSans-2e" x="63.623047"/>
       <use xlink:href="#DejaVuSans-30" x="95.410156"/>
       <use xlink:href="#DejaVuSans-35" x="159.033203"/>
       <use xlink:href="#DejaVuSans-30" x="222.65625"/>
      </g>
     </g>
    </g>
    <g id="ytick_9">
     <g id="line2d_29">
      <g>
       <use xlink:href="#m00f443b661" x="113.615625" y="14.798437" style="stroke: #000000; stroke-width: 0.8"/>
      </g>
     </g>
     <g id="text_29">
      <!-- 0.075 -->
      <g transform="translate(49.359375 22.396875) scale(0.2 -0.2)">
       <use xlink:href="#DejaVuSans-30"/>
       <use xlink:href="#DejaVuSans-2e" x="63.623047"/>
       <use xlink:href="#DejaVuSans-30" x="95.410156"/>
       <use xlink:href="#DejaVuSans-37" x="159.033203"/>
       <use xlink:href="#DejaVuSans-35" x="222.65625"/>
      </g>
     </g>
    </g>
    <g id="text_30">
     <!-- Relative fitness $\gamma_y$ -->
     <g transform="translate(22.4 292.637996) rotate(-90) scale(0.2 -0.2)">
      <defs>
       <path id="DejaVuSans-52" d="M 2841 2188 
Q 3044 2119 3236 1894 
Q 3428 1669 3622 1275 
L 4263 0 
L 3584 0 
L 2988 1197 
Q 2756 1666 2539 1819 
Q 2322 1972 1947 1972 
L 1259 1972 
L 1259 0 
L 628 0 
L 628 4666 
L 2053 4666 
Q 2853 4666 3247 4331 
Q 3641 3997 3641 3322 
Q 3641 2881 3436 2590 
Q 3231 2300 2841 2188 
z
M 1259 4147 
L 1259 2491 
L 2053 2491 
Q 2509 2491 2742 2702 
Q 2975 2913 2975 3322 
Q 2975 3731 2742 3939 
Q 2509 4147 2053 4147 
L 1259 4147 
z
" transform="scale(0.015625)"/>
       <path id="DejaVuSans-65" d="M 3597 1894 
L 3597 1613 
L 953 1613 
Q 991 1019 1311 708 
Q 1631 397 2203 397 
Q 2534 397 2845 478 
Q 3156 559 3463 722 
L 3463 178 
Q 3153 47 2828 -22 
Q 2503 -91 2169 -91 
Q 1331 -91 842 396 
Q 353 884 353 1716 
Q 353 2575 817 3079 
Q 1281 3584 2069 3584 
Q 2775 3584 3186 3129 
Q 3597 2675 3597 1894 
z
M 3022 2063 
Q 3016 2534 2758 2815 
Q 2500 3097 2075 3097 
Q 1594 3097 1305 2825 
Q 1016 2553 972 2059 
L 3022 2063 
z
" transform="scale(0.015625)"/>
       <path id="DejaVuSans-6c" d="M 603 4863 
L 1178 4863 
L 1178 0 
L 603 0 
L 603 4863 
z
" transform="scale(0.015625)"/>
       <path id="DejaVuSans-61" d="M 2194 1759 
Q 1497 1759 1228 1600 
Q 959 1441 959 1056 
Q 959 750 1161 570 
Q 1363 391 1709 391 
Q 2188 391 2477 730 
Q 2766 1069 2766 1631 
L 2766 1759 
L 2194 1759 
z
M 3341 1997 
L 3341 0 
L 2766 0 
L 2766 531 
Q 2569 213 2275 61 
Q 1981 -91 1556 -91 
Q 1019 -91 701 211 
Q 384 513 384 1019 
Q 384 1609 779 1909 
Q 1175 2209 1959 2209 
L 2766 2209 
L 2766 2266 
Q 2766 2663 2505 2880 
Q 2244 3097 1772 3097 
Q 1472 3097 1187 3025 
Q 903 2953 641 2809 
L 641 3341 
Q 956 3463 1253 3523 
Q 1550 3584 1831 3584 
Q 2591 3584 2966 3190 
Q 3341 2797 3341 1997 
z
" transform="scale(0.015625)"/>
       <path id="DejaVuSans-74" d="M 1172 4494 
L 1172 3500 
L 2356 3500 
L 2356 3053 
L 1172 3053 
L 1172 1153 
Q 1172 725 1289 603 
Q 1406 481 1766 481 
L 2356 481 
L 2356 0 
L 1766 0 
Q 1100 0 847 248 
Q 594 497 594 1153 
L 594 3053 
L 172 3053 
L 172 3500 
L 594 3500 
L 594 4494 
L 1172 4494 
z
" transform="scale(0.015625)"/>
       <path id="DejaVuSans-69" d="M 603 3500 
L 1178 3500 
L 1178 0 
L 603 0 
L 603 3500 
z
M 603 4863 
L 1178 4863 
L 1178 4134 
L 603 4134 
L 603 4863 
z
" transform="scale(0.015625)"/>
       <path id="DejaVuSans-76" d="M 191 3500 
L 800 3500 
L 1894 563 
L 2988 3500 
L 3597 3500 
L 2284 0 
L 1503 0 
L 191 3500 
z
" transform="scale(0.015625)"/>
       <path id="DejaVuSans-20" transform="scale(0.015625)"/>
       <path id="DejaVuSans-66" d="M 2375 4863 
L 2375 4384 
L 1825 4384 
Q 1516 4384 1395 4259 
Q 1275 4134 1275 3809 
L 1275 3500 
L 2222 3500 
L 2222 3053 
L 1275 3053 
L 1275 0 
L 697 0 
L 697 3053 
L 147 3053 
L 147 3500 
L 697 3500 
L 697 3744 
Q 697 4328 969 4595 
Q 1241 4863 1831 4863 
L 2375 4863 
z
" transform="scale(0.015625)"/>
       <path id="DejaVuSans-6e" d="M 3513 2113 
L 3513 0 
L 2938 0 
L 2938 2094 
Q 2938 2591 2744 2837 
Q 2550 3084 2163 3084 
Q 1697 3084 1428 2787 
Q 1159 2491 1159 1978 
L 1159 0 
L 581 0 
L 581 3500 
L 1159 3500 
L 1159 2956 
Q 1366 3272 1645 3428 
Q 1925 3584 2291 3584 
Q 2894 3584 3203 3211 
Q 3513 2838 3513 2113 
z
" transform="scale(0.015625)"/>
       <path id="DejaVuSans-73" d="M 2834 3397 
L 2834 2853 
Q 2591 2978 2328 3040 
Q 2066 3103 1784 3103 
Q 1356 3103 1142 2972 
Q 928 2841 928 2578 
Q 928 2378 1081 2264 
Q 1234 2150 1697 2047 
L 1894 2003 
Q 2506 1872 2764 1633 
Q 3022 1394 3022 966 
Q 3022 478 2636 193 
Q 2250 -91 1575 -91 
Q 1294 -91 989 -36 
Q 684 19 347 128 
L 347 722 
Q 666 556 975 473 
Q 1284 391 1588 391 
Q 1994 391 2212 530 
Q 2431 669 2431 922 
Q 2431 1156 2273 1281 
Q 2116 1406 1581 1522 
L 1381 1569 
Q 847 1681 609 1914 
Q 372 2147 372 2553 
Q 372 3047 722 3315 
Q 1072 3584 1716 3584 
Q 2034 3584 2315 3537 
Q 2597 3491 2834 3397 
z
" transform="scale(0.015625)"/>
       <path id="DejaVuSans-Oblique-3b3" d="M 1491 2950 
L 1838 788 
L 3456 3500 
L 4066 3500 
L 1972 0 
L 1713 -1331 
L 1138 -1331 
L 1397 0 
L 988 2613 
Q 925 3006 628 3006 
L 475 3006 
L 569 3500 
L 788 3500 
Q 1403 3500 1491 2950 
z
" transform="scale(0.015625)"/>
       <path id="DejaVuSans-Oblique-79" d="M 1588 -325 
Q 1188 -997 936 -1164 
Q 684 -1331 294 -1331 
L -159 -1331 
L -63 -850 
L 269 -850 
Q 509 -850 678 -719 
Q 847 -588 1056 -206 
L 1234 128 
L 459 3500 
L 1069 3500 
L 1650 819 
L 3256 3500 
L 3859 3500 
L 1588 -325 
z
" transform="scale(0.015625)"/>
      </defs>
      <use xlink:href="#DejaVuSans-52" transform="translate(0 0.015625)"/>
      <use xlink:href="#DejaVuSans-65" transform="translate(69.482422 0.015625)"/>
      <use xlink:href="#DejaVuSans-6c" transform="translate(131.005859 0.015625)"/>
      <use xlink:href="#DejaVuSans-61" transform="translate(158.789062 0.015625)"/>
      <use xlink:href="#DejaVuSans-74" transform="translate(220.068359 0.015625)"/>
      <use xlink:href="#DejaVuSans-69" transform="translate(259.277344 0.015625)"/>
      <use xlink:href="#DejaVuSans-76" transform="translate(287.060547 0.015625)"/>
      <use xlink:href="#DejaVuSans-65" transform="translate(346.240234 0.015625)"/>
      <use xlink:href="#DejaVuSans-20" transform="translate(407.763672 0.015625)"/>
      <use xlink:href="#DejaVuSans-66" transform="translate(439.550781 0.015625)"/>
      <use xlink:href="#DejaVuSans-69" transform="translate(474.755859 0.015625)"/>
      <use xlink:href="#DejaVuSans-74" transform="translate(502.539062 0.015625)"/>
      <use xlink:href="#DejaVuSans-6e" transform="translate(541.748047 0.015625)"/>
      <use xlink:href="#DejaVuSans-65" transform="translate(605.126953 0.015625)"/>
      <use xlink:href="#DejaVuSans-73" transform="translate(666.650391 0.015625)"/>
      <use xlink:href="#DejaVuSans-73" transform="translate(718.75 0.015625)"/>
      <use xlink:href="#DejaVuSans-20" transform="translate(770.849609 0.015625)"/>
      <use xlink:href="#DejaVuSans-Oblique-3b3" transform="translate(802.636719 0.015625)"/>
      <use xlink:href="#DejaVuSans-Oblique-79" transform="translate(861.816406 -16.390625) scale(0.7)"/>
     </g>
    </g>
   </g>
   <g id="line2d_30">
    <path d="M 113.615625 155.476977 
L 1275.84375 155.476977 
" clip-path="url(#pff21f0fa9c)" style="fill: none; stroke-dasharray: 7.4,3.2; stroke-dashoffset: 0; stroke: #000000; stroke-width: 2"/>
   </g>
   <g id="patch_3">
    <path d="M 113.615625 396.077996 
L 113.615625 7.997996 
" style="fill: none; stroke: #000000; stroke-width: 0.8; stroke-linejoin: miter; stroke-linecap: square"/>
   </g>
   <g id="patch_4">
    <path d="M 950.615625 396.077996 
L 950.615625 7.997996 
" style="fill: none; stroke: #000000; stroke-width: 0.8; stroke-linejoin: miter; stroke-linecap: square"/>
   </g>
   <g id="patch_5">
    <path d="M 113.615625 396.077996 
L 950.615625 396.077996 
" style="fill: none; stroke: #000000; stroke-width: 0.8; stroke-linejoin: miter; stroke-linecap: square"/>
   </g>
   <g id="patch_6">
    <path d="M 113.615625 7.997996 
L 950.615625 7.997996 
" style="fill: none; stroke: #000000; stroke-width: 0.8; stroke-linejoin: miter; stroke-linecap: square"/>
   </g>
   <g id="legend_1">
    <g id="patch_7">
     <path d="M 1122.015625 396.077996 
L 1263.64375 396.077996 
Q 1267.64375 396.077996 1267.64375 392.077996 
L 1267.64375 364.721746 
Q 1267.64375 360.721746 1263.64375 360.721746 
L 1122.015625 360.721746 
Q 1118.015625 360.721746 1118.015625 364.721746 
L 1118.015625 392.077996 
Q 1118.015625 396.077996 1122.015625 396.077996 
z
" style="fill: #ffffff; opacity: 0.8; stroke: #cccccc; stroke-linejoin: miter"/>
    </g>
    <g id="patch_8">
     <path d="M 1126.015625 383.918621 
L 1166.015625 383.918621 
L 1166.015625 369.918621 
L 1126.015625 369.918621 
z
" style="fill: #008000; fill-opacity: 0.3; stroke: #008000; stroke-opacity: 0.3; stroke-linejoin: miter"/>
    </g>
    <g id="text_31">
     <!-- BQ.1.1* -->
     <g transform="translate(1182.015625 383.918621) scale(0.2 -0.2)">
      <defs>
       <path id="DejaVuSans-42" d="M 1259 2228 
L 1259 519 
L 2272 519 
Q 2781 519 3026 730 
Q 3272 941 3272 1375 
Q 3272 1813 3026 2020 
Q 2781 2228 2272 2228 
L 1259 2228 
z
M 1259 4147 
L 1259 2741 
L 2194 2741 
Q 2656 2741 2882 2914 
Q 3109 3088 3109 3444 
Q 3109 3797 2882 3972 
Q 2656 4147 2194 4147 
L 1259 4147 
z
M 628 4666 
L 2241 4666 
Q 2963 4666 3353 4366 
Q 3744 4066 3744 3513 
Q 3744 3084 3544 2831 
Q 3344 2578 2956 2516 
Q 3422 2416 3680 2098 
Q 3938 1781 3938 1306 
Q 3938 681 3513 340 
Q 3088 0 2303 0 
L 628 0 
L 628 4666 
z
" transform="scale(0.015625)"/>
       <path id="DejaVuSans-51" d="M 2522 4238 
Q 1834 4238 1429 3725 
Q 1025 3213 1025 2328 
Q 1025 1447 1429 934 
Q 1834 422 2522 422 
Q 3209 422 3611 934 
Q 4013 1447 4013 2328 
Q 4013 3213 3611 3725 
Q 3209 4238 2522 4238 
z
M 3406 84 
L 4238 -825 
L 3475 -825 
L 2784 -78 
Q 2681 -84 2626 -87 
Q 2572 -91 2522 -91 
Q 1538 -91 948 567 
Q 359 1225 359 2328 
Q 359 3434 948 4092 
Q 1538 4750 2522 4750 
Q 3503 4750 4090 4092 
Q 4678 3434 4678 2328 
Q 4678 1516 4351 937 
Q 4025 359 3406 84 
z
" transform="scale(0.015625)"/>
       <path id="DejaVuSans-2a" d="M 3009 3897 
L 1888 3291 
L 3009 2681 
L 2828 2375 
L 1778 3009 
L 1778 1831 
L 1422 1831 
L 1422 3009 
L 372 2375 
L 191 2681 
L 1313 3291 
L 191 3897 
L 372 4206 
L 1422 3572 
L 1422 4750 
L 1778 4750 
L 1778 3572 
L 2828 4206 
L 3009 3897 
z
" transform="scale(0.015625)"/>
      </defs>
      <use xlink:href="#DejaVuSans-42"/>
      <use xlink:href="#DejaVuSans-51" x="68.603516"/>
      <use xlink:href="#DejaVuSans-2e" x="147.314453"/>
      <use xlink:href="#DejaVuSans-31" x="179.101562"/>
      <use xlink:href="#DejaVuSans-2e" x="242.724609"/>
      <use xlink:href="#DejaVuSans-31" x="274.511719"/>
      <use xlink:href="#DejaVuSans-2a" x="338.134766"/>
     </g>
    </g>
   </g>
  </g>
  <g id="axes_2">
   <g id="matplotlib.axis_3">
    <g id="ytick_10">
     <g id="line2d_31">
      <defs>
       <path id="m77e2a9aa35" d="M 0 0 
L 3.5 0 
" style="stroke: #000000; stroke-width: 0.8"/>
      </defs>
      <g>
       <use xlink:href="#m77e2a9aa35" x="950.615625" y="389.941209" style="stroke: #000000; stroke-width: 0.8"/>
      </g>
     </g>
     <g id="text_32">
      <!-- −0.125 -->
      <g transform="translate(957.615625 397.539647) scale(0.2 -0.2)">
       <use xlink:href="#DejaVuSans-2212"/>
       <use xlink:href="#DejaVuSans-30" x="83.789062"/>
       <use xlink:href="#DejaVuSans-2e" x="147.412109"/>
       <use xlink:href="#DejaVuSans-31" x="179.199219"/>
       <use xlink:href="#DejaVuSans-32" x="242.822266"/>
       <use xlink:href="#DejaVuSans-35" x="306.445312"/>
      </g>
     </g>
    </g>
    <g id="ytick_11">
     <g id="line2d_32">
      <g>
       <use xlink:href="#m77e2a9aa35" x="950.615625" y="343.048363" style="stroke: #000000; stroke-width: 0.8"/>
      </g>
     </g>
     <g id="text_33">
      <!-- −0.100 -->
      <g transform="translate(957.615625 350.6468) scale(0.2 -0.2)">
       <use xlink:href="#DejaVuSans-2212"/>
       <use xlink:href="#DejaVuSans-30" x="83.789062"/>
       <use xlink:href="#DejaVuSans-2e" x="147.412109"/>
       <use xlink:href="#DejaVuSans-31" x="179.199219"/>
       <use xlink:href="#DejaVuSans-30" x="242.822266"/>
       <use xlink:href="#DejaVuSans-30" x="306.445312"/>
      </g>
     </g>
    </g>
    <g id="ytick_12">
     <g id="line2d_33">
      <g>
       <use xlink:href="#m77e2a9aa35" x="950.615625" y="296.155516" style="stroke: #000000; stroke-width: 0.8"/>
      </g>
     </g>
     <g id="text_34">
      <!-- −0.075 -->
      <g transform="translate(957.615625 303.753954) scale(0.2 -0.2)">
       <use xlink:href="#DejaVuSans-2212"/>
       <use xlink:href="#DejaVuSans-30" x="83.789062"/>
       <use xlink:href="#DejaVuSans-2e" x="147.412109"/>
       <use xlink:href="#DejaVuSans-30" x="179.199219"/>
       <use xlink:href="#DejaVuSans-37" x="242.822266"/>
       <use xlink:href="#DejaVuSans-35" x="306.445312"/>
      </g>
     </g>
    </g>
    <g id="ytick_13">
     <g id="line2d_34">
      <g>
       <use xlink:href="#m77e2a9aa35" x="950.615625" y="249.26267" style="stroke: #000000; stroke-width: 0.8"/>
      </g>
     </g>
     <g id="text_35">
      <!-- −0.050 -->
      <g transform="translate(957.615625 256.861107) scale(0.2 -0.2)">
       <use xlink:href="#DejaVuSans-2212"/>
       <use xlink:href="#DejaVuSans-30" x="83.789062"/>
       <use xlink:href="#DejaVuSans-2e" x="147.412109"/>
       <use xlink:href="#DejaVuSans-30" x="179.199219"/>
       <use xlink:href="#DejaVuSans-35" x="242.822266"/>
       <use xlink:href="#DejaVuSans-30" x="306.445312"/>
      </g>
     </g>
    </g>
    <g id="ytick_14">
     <g id="line2d_35">
      <g>
       <use xlink:href="#m77e2a9aa35" x="950.615625" y="202.369823" style="stroke: #000000; stroke-width: 0.8"/>
      </g>
     </g>
     <g id="text_36">
      <!-- −0.025 -->
      <g transform="translate(957.615625 209.968261) scale(0.2 -0.2)">
       <use xlink:href="#DejaVuSans-2212"/>
       <use xlink:href="#DejaVuSans-30" x="83.789062"/>
       <use xlink:href="#DejaVuSans-2e" x="147.412109"/>
       <use xlink:href="#DejaVuSans-30" x="179.199219"/>
       <use xlink:href="#DejaVuSans-32" x="242.822266"/>
       <use xlink:href="#DejaVuSans-35" x="306.445312"/>
      </g>
     </g>
    </g>
    <g id="ytick_15">
     <g id="line2d_36">
      <g>
       <use xlink:href="#m77e2a9aa35" x="950.615625" y="155.476977" style="stroke: #000000; stroke-width: 0.8"/>
      </g>
     </g>
     <g id="text_37">
      <!-- 0.000 -->
      <g transform="translate(957.615625 163.075414) scale(0.2 -0.2)">
       <use xlink:href="#DejaVuSans-30"/>
       <use xlink:href="#DejaVuSans-2e" x="63.623047"/>
       <use xlink:href="#DejaVuSans-30" x="95.410156"/>
       <use xlink:href="#DejaVuSans-30" x="159.033203"/>
       <use xlink:href="#DejaVuSans-30" x="222.65625"/>
      </g>
     </g>
    </g>
    <g id="ytick_16">
     <g id="line2d_37">
      <g>
       <use xlink:href="#m77e2a9aa35" x="950.615625" y="108.58413" style="stroke: #000000; stroke-width: 0.8"/>
      </g>
     </g>
     <g id="text_38">
      <!-- 0.025 -->
      <g transform="translate(957.615625 116.182568) scale(0.2 -0.2)">
       <use xlink:href="#DejaVuSans-30"/>
       <use xlink:href="#DejaVuSans-2e" x="63.623047"/>
       <use xlink:href="#DejaVuSans-30" x="95.410156"/>
       <use xlink:href="#DejaVuSans-32" x="159.033203"/>
       <use xlink:href="#DejaVuSans-35" x="222.65625"/>
      </g>
     </g>
    </g>
    <g id="ytick_17">
     <g id="line2d_38">
      <g>
       <use xlink:href="#m77e2a9aa35" x="950.615625" y="61.691284" style="stroke: #000000; stroke-width: 0.8"/>
      </g>
     </g>
     <g id="text_39">
      <!-- 0.050 -->
      <g transform="translate(957.615625 69.289721) scale(0.2 -0.2)">
       <use xlink:href="#DejaVuSans-30"/>
       <use xlink:href="#DejaVuSans-2e" x="63.623047"/>
       <use xlink:href="#DejaVuSans-30" x="95.410156"/>
       <use xlink:href="#DejaVuSans-35" x="159.033203"/>
       <use xlink:href="#DejaVuSans-30" x="222.65625"/>
      </g>
     </g>
    </g>
    <g id="ytick_18">
     <g id="line2d_39">
      <g>
       <use xlink:href="#m77e2a9aa35" x="950.615625" y="14.798437" style="stroke: #000000; stroke-width: 0.8"/>
      </g>
     </g>
     <g id="text_40">
      <!-- 0.075 -->
      <g transform="translate(957.615625 22.396875) scale(0.2 -0.2)">
       <use xlink:href="#DejaVuSans-30"/>
       <use xlink:href="#DejaVuSans-2e" x="63.623047"/>
       <use xlink:href="#DejaVuSans-30" x="95.410156"/>
       <use xlink:href="#DejaVuSans-37" x="159.033203"/>
       <use xlink:href="#DejaVuSans-35" x="222.65625"/>
      </g>
     </g>
    </g>
    <g id="text_41">
     <!-- Change in proportion $\gamma_{prop}$ -->
     <g transform="translate(1050.83125 333.537996) rotate(-90) scale(0.2 -0.2)">
      <defs>
       <path id="DejaVuSans-43" d="M 4122 4306 
L 4122 3641 
Q 3803 3938 3442 4084 
Q 3081 4231 2675 4231 
Q 1875 4231 1450 3742 
Q 1025 3253 1025 2328 
Q 1025 1406 1450 917 
Q 1875 428 2675 428 
Q 3081 428 3442 575 
Q 3803 722 4122 1019 
L 4122 359 
Q 3791 134 3420 21 
Q 3050 -91 2638 -91 
Q 1578 -91 968 557 
Q 359 1206 359 2328 
Q 359 3453 968 4101 
Q 1578 4750 2638 4750 
Q 3056 4750 3426 4639 
Q 3797 4528 4122 4306 
z
" transform="scale(0.015625)"/>
       <path id="DejaVuSans-68" d="M 3513 2113 
L 3513 0 
L 2938 0 
L 2938 2094 
Q 2938 2591 2744 2837 
Q 2550 3084 2163 3084 
Q 1697 3084 1428 2787 
Q 1159 2491 1159 1978 
L 1159 0 
L 581 0 
L 581 4863 
L 1159 4863 
L 1159 2956 
Q 1366 3272 1645 3428 
Q 1925 3584 2291 3584 
Q 2894 3584 3203 3211 
Q 3513 2838 3513 2113 
z
" transform="scale(0.015625)"/>
       <path id="DejaVuSans-67" d="M 2906 1791 
Q 2906 2416 2648 2759 
Q 2391 3103 1925 3103 
Q 1463 3103 1205 2759 
Q 947 2416 947 1791 
Q 947 1169 1205 825 
Q 1463 481 1925 481 
Q 2391 481 2648 825 
Q 2906 1169 2906 1791 
z
M 3481 434 
Q 3481 -459 3084 -895 
Q 2688 -1331 1869 -1331 
Q 1566 -1331 1297 -1286 
Q 1028 -1241 775 -1147 
L 775 -588 
Q 1028 -725 1275 -790 
Q 1522 -856 1778 -856 
Q 2344 -856 2625 -561 
Q 2906 -266 2906 331 
L 2906 616 
Q 2728 306 2450 153 
Q 2172 0 1784 0 
Q 1141 0 747 490 
Q 353 981 353 1791 
Q 353 2603 747 3093 
Q 1141 3584 1784 3584 
Q 2172 3584 2450 3431 
Q 2728 3278 2906 2969 
L 2906 3500 
L 3481 3500 
L 3481 434 
z
" transform="scale(0.015625)"/>
       <path id="DejaVuSans-70" d="M 1159 525 
L 1159 -1331 
L 581 -1331 
L 581 3500 
L 1159 3500 
L 1159 2969 
Q 1341 3281 1617 3432 
Q 1894 3584 2278 3584 
Q 2916 3584 3314 3078 
Q 3713 2572 3713 1747 
Q 3713 922 3314 415 
Q 2916 -91 2278 -91 
Q 1894 -91 1617 61 
Q 1341 213 1159 525 
z
M 3116 1747 
Q 3116 2381 2855 2742 
Q 2594 3103 2138 3103 
Q 1681 3103 1420 2742 
Q 1159 2381 1159 1747 
Q 1159 1113 1420 752 
Q 1681 391 2138 391 
Q 2594 391 2855 752 
Q 3116 1113 3116 1747 
z
" transform="scale(0.015625)"/>
       <path id="DejaVuSans-72" d="M 2631 2963 
Q 2534 3019 2420 3045 
Q 2306 3072 2169 3072 
Q 1681 3072 1420 2755 
Q 1159 2438 1159 1844 
L 1159 0 
L 581 0 
L 581 3500 
L 1159 3500 
L 1159 2956 
Q 1341 3275 1631 3429 
Q 1922 3584 2338 3584 
Q 2397 3584 2469 3576 
Q 2541 3569 2628 3553 
L 2631 2963 
z
" transform="scale(0.015625)"/>
       <path id="DejaVuSans-6f" d="M 1959 3097 
Q 1497 3097 1228 2736 
Q 959 2375 959 1747 
Q 959 1119 1226 758 
Q 1494 397 1959 397 
Q 2419 397 2687 759 
Q 2956 1122 2956 1747 
Q 2956 2369 2687 2733 
Q 2419 3097 1959 3097 
z
M 1959 3584 
Q 2709 3584 3137 3096 
Q 3566 2609 3566 1747 
Q 3566 888 3137 398 
Q 2709 -91 1959 -91 
Q 1206 -91 779 398 
Q 353 888 353 1747 
Q 353 2609 779 3096 
Q 1206 3584 1959 3584 
z
" transform="scale(0.015625)"/>
       <path id="DejaVuSans-Oblique-70" d="M 3175 2156 
Q 3175 2616 2975 2859 
Q 2775 3103 2400 3103 
Q 2144 3103 1911 2972 
Q 1678 2841 1497 2591 
Q 1319 2344 1212 1994 
Q 1106 1644 1106 1300 
Q 1106 863 1306 627 
Q 1506 391 1875 391 
Q 2147 391 2380 519 
Q 2613 647 2778 891 
Q 2956 1147 3065 1494 
Q 3175 1841 3175 2156 
z
M 1394 2969 
Q 1625 3272 1939 3428 
Q 2253 3584 2638 3584 
Q 3175 3584 3472 3232 
Q 3769 2881 3769 2247 
Q 3769 1728 3584 1258 
Q 3400 788 3053 416 
Q 2822 169 2531 39 
Q 2241 -91 1919 -91 
Q 1547 -91 1294 64 
Q 1041 219 916 525 
L 556 -1331 
L -19 -1331 
L 922 3500 
L 1497 3500 
L 1394 2969 
z
" transform="scale(0.015625)"/>
       <path id="DejaVuSans-Oblique-72" d="M 2853 2969 
Q 2766 3016 2653 3041 
Q 2541 3066 2413 3066 
Q 1953 3066 1609 2717 
Q 1266 2369 1153 1784 
L 800 0 
L 225 0 
L 909 3500 
L 1484 3500 
L 1375 2956 
Q 1603 3259 1920 3421 
Q 2238 3584 2597 3584 
Q 2691 3584 2781 3573 
Q 2872 3563 2963 3538 
L 2853 2969 
z
" transform="scale(0.015625)"/>
       <path id="DejaVuSans-Oblique-6f" d="M 1625 -91 
Q 1009 -91 651 289 
Q 294 669 294 1325 
Q 294 1706 417 2101 
Q 541 2497 738 2766 
Q 1047 3184 1428 3384 
Q 1809 3584 2291 3584 
Q 2888 3584 3255 3212 
Q 3622 2841 3622 2241 
Q 3622 1825 3500 1412 
Q 3378 1000 3181 728 
Q 2875 309 2494 109 
Q 2113 -91 1625 -91 
z
M 891 1344 
Q 891 869 1089 633 
Q 1288 397 1691 397 
Q 2269 397 2648 901 
Q 3028 1406 3028 2181 
Q 3028 2634 2825 2865 
Q 2622 3097 2228 3097 
Q 1903 3097 1650 2945 
Q 1397 2794 1197 2484 
Q 1050 2253 970 1956 
Q 891 1659 891 1344 
z
" transform="scale(0.015625)"/>
      </defs>
      <use xlink:href="#DejaVuSans-43" transform="translate(0 0.015625)"/>
      <use xlink:href="#DejaVuSans-68" transform="translate(69.824219 0.015625)"/>
      <use xlink:href="#DejaVuSans-61" transform="translate(133.203125 0.015625)"/>
      <use xlink:href="#DejaVuSans-6e" transform="translate(194.482422 0.015625)"/>
      <use xlink:href="#DejaVuSans-67" transform="translate(257.861328 0.015625)"/>
      <use xlink:href="#DejaVuSans-65" transform="translate(321.337891 0.015625)"/>
      <use xlink:href="#DejaVuSans-20" transform="translate(382.861328 0.015625)"/>
      <use xlink:href="#DejaVuSans-69" transform="translate(414.648438 0.015625)"/>
      <use xlink:href="#DejaVuSans-6e" transform="translate(442.431641 0.015625)"/>
      <use xlink:href="#DejaVuSans-20" transform="translate(505.810547 0.015625)"/>
      <use xlink:href="#DejaVuSans-70" transform="translate(537.597656 0.015625)"/>
      <use xlink:href="#DejaVuSans-72" transform="translate(601.074219 0.015625)"/>
      <use xlink:href="#DejaVuSans-6f" transform="translate(642.1875 0.015625)"/>
      <use xlink:href="#DejaVuSans-70" transform="translate(703.369141 0.015625)"/>
      <use xlink:href="#DejaVuSans-6f" transform="translate(766.845703 0.015625)"/>
      <use xlink:href="#DejaVuSans-72" transform="translate(828.027344 0.015625)"/>
      <use xlink:href="#DejaVuSans-74" transform="translate(869.140625 0.015625)"/>
      <use xlink:href="#DejaVuSans-69" transform="translate(908.349609 0.015625)"/>
      <use xlink:href="#DejaVuSans-6f" transform="translate(936.132812 0.015625)"/>
      <use xlink:href="#DejaVuSans-6e" transform="translate(997.314453 0.015625)"/>
      <use xlink:href="#DejaVuSans-20" transform="translate(1060.693359 0.015625)"/>
      <use xlink:href="#DejaVuSans-Oblique-3b3" transform="translate(1092.480469 0.015625)"/>
      <use xlink:href="#DejaVuSans-Oblique-70" transform="translate(1151.660156 -16.390625) scale(0.7)"/>
      <use xlink:href="#DejaVuSans-Oblique-72" transform="translate(1196.09375 -16.390625) scale(0.7)"/>
      <use xlink:href="#DejaVuSans-Oblique-6f" transform="translate(1224.873047 -16.390625) scale(0.7)"/>
      <use xlink:href="#DejaVuSans-Oblique-70" transform="translate(1267.700195 -16.390625) scale(0.7)"/>
     </g>
    </g>
   </g>
   <g id="line2d_40">
    <path d="M 308.705851 92.792801 
L 311.852467 64.453536 
L 314.999084 32.699372 
L 318.1457 97.22574 
L 321.292317 54.722235 
L 324.438933 21.245372 
L 327.58555 57.423933 
L 330.732166 52.007465 
L 333.878783 75.967556 
L 337.025399 52.403166 
L 340.172016 135.500149 
L 343.318633 100.243852 
L 346.465249 60.416678 
L 349.611866 64.432281 
L 352.758482 133.477747 
L 355.905099 40.730564 
L 359.051715 98.651959 
L 362.198332 25.560881 
L 365.344948 74.576678 
L 368.491565 91.391767 
L 371.638181 81.033026 
L 374.784798 113.464562 
L 377.931414 119.653094 
L 381.078031 89.951135 
L 384.224648 133.326269 
L 387.371264 71.038907 
L 390.517881 117.981731 
L 393.664497 109.125855 
L 396.811114 126.777874 
L 399.95773 83.000679 
L 403.104347 99.094675 
L 406.250963 110.870688 
L 409.39758 170.304258 
L 412.544196 73.329748 
L 415.690813 115.135353 
L 418.83743 128.767844 
L 421.984046 109.257302 
L 425.130663 83.204438 
L 428.277279 100.828251 
L 431.423896 108.127567 
L 434.570512 125.749258 
L 437.717129 133.69736 
L 440.863745 131.192585 
L 444.010362 102.067356 
L 447.156978 120.865828 
L 450.303595 131.418219 
L 453.450211 123.984627 
L 456.596828 102.702326 
L 459.743445 166.186423 
L 462.890061 130.504108 
L 466.036678 126.614174 
L 469.183294 124.995586 
L 472.329911 162.094455 
L 475.476527 163.390287 
L 478.623144 138.187663 
L 481.76976 161.240581 
L 484.916377 150.805762 
L 488.062993 146.029228 
L 491.20961 152.992852 
L 494.356227 148.554158 
L 500.64946 166.919711 
L 503.796076 182.131254 
L 506.942693 156.612851 
L 510.089309 148.691079 
L 513.235926 175.168403 
L 519.529159 151.727432 
L 522.675775 145.080462 
L 525.822392 142.861539 
L 528.969008 125.720682 
L 532.115625 156.895283 
L 535.262242 145.394159 
L 538.408858 141.919227 
L 541.555475 167.277446 
L 544.702091 166.834781 
L 547.848708 141.589125 
L 550.995324 151.521605 
L 554.141941 149.56221 
L 557.288557 199.890405 
L 560.435174 146.045736 
L 563.58179 166.004669 
L 566.728407 139.895986 
L 569.875023 170.649458 
L 573.02164 169.376466 
L 576.168257 180.133835 
L 579.314873 164.344222 
L 582.46149 182.915537 
L 585.608106 198.237998 
L 588.754723 166.749368 
L 591.901339 166.272613 
L 595.047956 167.259832 
L 598.194572 177.404409 
L 601.341189 181.995025 
L 604.487805 111.455368 
L 607.634422 175.935008 
L 610.781039 185.098409 
L 613.927655 207.031483 
L 617.074272 184.468427 
L 620.220888 192.555293 
L 623.367505 189.411881 
L 626.514121 190.062562 
L 629.660738 174.942946 
L 632.807354 181.015959 
L 635.953971 196.067769 
L 639.100587 193.67821 
L 642.247204 202.023969 
L 645.39382 167.045508 
L 648.540437 204.862078 
L 651.687054 247.309167 
L 654.83367 200.683884 
L 657.980287 202.030705 
L 661.126903 230.075454 
L 664.27352 219.975485 
L 667.420136 220.326924 
L 670.566753 226.174244 
L 673.713369 222.631222 
L 676.859986 248.748221 
L 680.006602 262.99068 
L 683.153219 220.437431 
L 686.299836 197.216927 
L 689.446452 240.299939 
L 692.593069 233.768115 
L 695.739685 206.560836 
L 698.886302 214.083857 
L 702.032918 233.820517 
L 705.179535 240.396466 
L 708.326151 187.108505 
L 711.472768 172.023872 
L 714.619384 210.694562 
L 717.766001 211.220892 
L 720.912617 204.856038 
L 724.059234 199.561145 
L 727.205851 116.566457 
L 730.352467 219.371916 
L 733.499084 252.387834 
L 736.6457 173.436265 
L 739.792317 286.192893 
L 742.938933 228.958926 
L 746.08555 256.893463 
L 749.232166 267.188839 
L 752.378783 213.419455 
L 755.525399 190.698383 
L 755.525399 190.698383 
" clip-path="url(#pff21f0fa9c)" style="fill: none; stroke: #ff0000; stroke-width: 4; stroke-linecap: square"/>
   </g>
   <g id="patch_9">
    <path d="M 113.615625 396.077996 
L 113.615625 7.997996 
" style="fill: none; stroke: #000000; stroke-width: 0.8; stroke-linejoin: miter; stroke-linecap: square"/>
   </g>
   <g id="patch_10">
    <path d="M 950.615625 396.077996 
L 950.615625 7.997996 
" style="fill: none; stroke: #000000; stroke-width: 0.8; stroke-linejoin: miter; stroke-linecap: square"/>
   </g>
   <g id="patch_11">
    <path d="M 113.615625 396.077996 
L 950.615625 396.077996 
" style="fill: none; stroke: #000000; stroke-width: 0.8; stroke-linejoin: miter; stroke-linecap: square"/>
   </g>
   <g id="patch_12">
    <path d="M 113.615625 7.997996 
L 950.615625 7.997996 
" style="fill: none; stroke: #000000; stroke-width: 0.8; stroke-linejoin: miter; stroke-linecap: square"/>
   </g>
   <g id="legend_2">
    <g id="patch_13">
     <path d="M 1122.015625 396.077996 
L 1263.64375 396.077996 
Q 1267.64375 396.077996 1267.64375 392.077996 
L 1267.64375 364.721746 
Q 1267.64375 360.721746 1263.64375 360.721746 
L 1122.015625 360.721746 
Q 1118.015625 360.721746 1118.015625 364.721746 
L 1118.015625 392.077996 
Q 1118.015625 396.077996 1122.015625 396.077996 
z
" style="fill: #ffffff; opacity: 0.8; stroke: #cccccc; stroke-linejoin: miter"/>
    </g>
    <g id="line2d_41">
     <path d="M 1126.015625 376.918621 
L 1146.015625 376.918621 
L 1166.015625 376.918621 
" style="fill: none; stroke: #ff0000; stroke-width: 4; stroke-linecap: square"/>
    </g>
    <g id="text_42">
     <!-- BQ.1.1* -->
     <g transform="translate(1182.015625 383.918621) scale(0.2 -0.2)">
      <use xlink:href="#DejaVuSans-42"/>
      <use xlink:href="#DejaVuSans-51" x="68.603516"/>
      <use xlink:href="#DejaVuSans-2e" x="147.314453"/>
      <use xlink:href="#DejaVuSans-31" x="179.101562"/>
      <use xlink:href="#DejaVuSans-2e" x="242.724609"/>
      <use xlink:href="#DejaVuSans-31" x="274.511719"/>
      <use xlink:href="#DejaVuSans-2a" x="338.134766"/>
     </g>
    </g>
   </g>
  </g>
 </g>
 <defs>
  <clipPath id="pff21f0fa9c">
   <rect x="113.615625" y="7.997996" width="837" height="388.08"/>
  </clipPath>
 </defs>
</svg>
