<?xml version="1.0" encoding="utf-8" standalone="no"?>
<!DOCTYPE svg PUBLIC "-//W3C//DTD SVG 1.1//EN"
  "http://www.w3.org/Graphics/SVG/1.1/DTD/svg11.dtd">
<svg xmlns:xlink="http://www.w3.org/1999/xlink" width="1386.940466pt" height="507.542228pt" viewBox="0 0 1386.940466 507.542228" xmlns="http://www.w3.org/2000/svg" version="1.1">
 <metadata>
  <rdf:RDF xmlns:dc="http://purl.org/dc/elements/1.1/" xmlns:cc="http://creativecommons.org/ns#" xmlns:rdf="http://www.w3.org/1999/02/22-rdf-syntax-ns#">
   <cc:Work>
    <dc:type rdf:resource="http://purl.org/dc/dcmitype/StillImage"/>
    <dc:date>2025-02-13T11:22:08.407304</dc:date>
    <dc:format>image/svg+xml</dc:format>
    <dc:creator>
     <cc:Agent>
      <dc:title>Matplotlib v3.7.2, https://matplotlib.org/</dc:title>
     </cc:Agent>
    </dc:creator>
   </cc:Work>
  </rdf:RDF>
 </metadata>
 <defs>
  <style type="text/css">*{stroke-linejoin: round; stroke-linecap: butt}</style>
 </defs>
 <g id="figure_1">
  <g id="patch_1">
   <path d="M 0 507.542228 
L 1386.940466 507.542228 
L 1386.940466 -0 
L 0 -0 
z
" style="fill: #ffffff"/>
  </g>
  <g id="axes_1">
   <g id="patch_2">
    <path d="M 103.074841 397.467387 
L 940.074841 397.467387 
L 940.074841 9.387387 
L 103.074841 9.387387 
z
" style="fill: #ffffff"/>
   </g>
   <g id="PolyCollection_1">
    <defs>
     <path id="m6ed21da39d" d="M 103.074841 -388.602832 
L 103.074841 -380.567678 
L 105.486944 -381.437919 
L 107.899048 -381.979418 
L 110.311152 -382.285356 
L 112.723256 -383.19264 
L 115.135359 -383.416486 
L 117.547463 -384.140712 
L 119.959567 -384.627013 
L 122.371671 -385.411435 
L 124.783774 -386.045436 
L 127.195878 -386.878348 
L 129.607982 -387.505678 
L 132.020086 -388.291664 
L 134.432189 -389.261046 
L 136.844293 -390.297309 
L 139.256397 -390.833109 
L 141.668501 -391.65543 
L 144.080604 -392.788209 
L 146.492708 -393.489044 
L 148.904812 -394.483194 
L 151.316916 -396.073931 
L 153.729019 -396.622998 
L 156.141123 -397.678615 
L 158.553227 -398.383541 
L 160.965331 -399.307721 
L 163.377434 -400.69353 
L 165.789538 -401.640164 
L 168.201642 -402.751889 
L 170.613746 -404.113941 
L 173.025849 -404.818673 
L 175.437953 -406.198158 
L 177.850057 -407.001836 
L 180.262161 -408.38078 
L 182.674264 -409.809968 
L 185.086368 -410.945818 
L 187.498472 -412.044447 
L 189.910576 -413.680609 
L 192.322679 -414.702233 
L 194.734783 -416.187261 
L 197.146887 -417.433002 
L 199.558991 -418.995058 
L 201.971094 -420.558749 
L 204.383198 -419.479717 
L 206.795302 -423.162853 
L 209.207406 -423.270715 
L 211.619509 -424.976509 
L 214.031613 -426.200366 
L 216.443717 -427.445883 
L 218.855821 -428.713818 
L 221.267924 -429.988829 
L 223.680028 -431.889619 
L 226.092132 -432.339929 
L 228.504236 -433.789808 
L 230.916339 -431.723538 
L 233.328443 -435.909258 
L 235.740547 -436.061661 
L 238.15265 -431.941765 
L 240.564754 -436.135759 
L 242.976858 -434.889463 
L 245.388962 -434.214278 
L 247.801065 -436.387617 
L 250.213169 -435.169825 
L 252.625273 -433.923272 
L 255.037377 -433.089374 
L 257.44948 -433.422452 
L 259.861584 -431.07918 
L 262.273688 -430.303238 
L 264.685792 -429.624738 
L 267.097895 -425.796026 
L 269.509999 -423.339387 
L 271.922103 -416.055927 
L 274.334207 -416.662628 
L 276.74631 -412.211613 
L 279.158414 -409.48394 
L 281.570518 -406.744525 
L 283.982622 -402.656813 
L 286.394725 -400.84301 
L 288.806829 -404.311411 
L 291.218933 -400.366401 
L 293.631037 -394.60142 
L 296.04314 -390.898316 
L 298.455244 -390.049521 
L 300.867348 -383.123344 
L 303.279452 -382.87198 
L 305.691555 -380.138219 
L 308.103659 -379.892413 
L 310.515763 -374.301653 
L 312.927867 -375.676773 
L 315.33997 -375.785694 
L 317.752074 -371.905542 
L 320.164178 -367.732081 
L 322.576282 -369.430195 
L 324.988385 -366.814311 
L 327.400489 -365.660597 
L 329.812593 -365.104599 
L 332.224697 -366.083886 
L 334.6368 -364.808468 
L 337.048904 -364.170682 
L 339.461008 -359.838616 
L 341.873112 -362.287024 
L 344.285215 -357.945764 
L 346.697319 -358.709616 
L 349.109423 -358.827123 
L 351.521527 -357.295903 
L 353.93363 -356.641729 
L 356.345734 -358.448061 
L 358.757838 -356.799063 
L 361.169942 -357.321573 
L 363.582045 -354.748107 
L 365.994149 -355.119307 
L 368.406253 -355.095895 
L 370.818357 -354.079576 
L 373.23046 -354.407587 
L 375.642564 -353.736279 
L 378.054668 -354.181147 
L 380.466772 -352.945392 
L 382.878875 -354.209109 
L 385.290979 -354.237149 
L 387.703083 -351.431011 
L 390.115187 -350.959791 
L 392.52729 -350.910422 
L 394.939394 -351.9973 
L 397.351498 -351.025312 
L 399.763602 -351.409959 
L 402.175705 -350.319049 
L 404.587809 -350.660452 
L 406.999913 -348.846298 
L 409.412016 -349.624326 
L 411.82412 -350.084568 
L 414.236224 -348.766116 
L 416.648328 -348.834987 
L 419.060431 -347.859878 
L 421.472535 -348.209465 
L 423.884639 -348.315995 
L 426.296743 -347.4412 
L 428.708846 -347.667736 
L 431.12095 -347.54095 
L 433.533054 -347.944778 
L 435.945158 -347.97615 
L 438.357261 -347.974584 
L 440.769365 -348.191746 
L 443.181469 -347.134007 
L 445.593573 -346.862264 
L 448.005676 -346.462721 
L 450.41778 -346.655588 
L 452.829884 -345.825041 
L 455.241988 -345.166067 
L 457.654091 -347.345673 
L 460.066195 -345.895789 
L 462.478299 -345.472237 
L 464.890403 -344.477267 
L 467.302506 -345.279926 
L 469.71461 -343.928913 
L 472.126714 -343.598212 
L 474.538818 -344.146422 
L 476.950921 -344.398216 
L 479.363025 -344.468631 
L 481.775129 -343.681523 
L 484.187233 -344.115669 
L 486.599336 -342.970416 
L 489.01144 -342.817472 
L 491.423544 -342.837455 
L 493.835648 -341.755642 
L 496.247751 -342.094966 
L 498.659855 -340.436536 
L 501.071959 -339.809521 
L 503.484063 -340.054719 
L 505.896166 -339.293173 
L 508.30827 -339.311503 
L 510.720374 -337.838916 
L 513.132478 -336.676437 
L 515.544581 -336.445998 
L 517.956685 -336.36636 
L 520.368789 -336.347182 
L 522.780893 -335.510073 
L 525.192996 -336.23602 
L 527.6051 -335.178357 
L 530.017204 -334.189398 
L 532.429308 -334.231432 
L 534.841411 -334.326492 
L 537.253515 -332.410364 
L 539.665619 -332.550978 
L 542.077723 -331.237841 
L 544.489826 -330.455956 
L 546.90193 -332.490773 
L 549.314034 -330.549285 
L 551.726138 -329.713134 
L 554.138241 -329.928943 
L 556.550345 -327.525786 
L 558.962449 -327.269878 
L 561.374553 -329.179488 
L 563.786656 -326.659571 
L 566.19876 -324.268728 
L 568.610864 -325.838259 
L 571.022967 -323.129431 
L 573.435071 -324.33013 
L 575.847175 -321.02383 
L 578.259279 -320.320674 
L 580.671382 -318.30468 
L 583.083486 -320.050301 
L 585.49559 -320.225174 
L 587.907694 -317.655334 
L 590.319797 -313.964642 
L 592.731901 -314.522833 
L 595.144005 -315.144799 
L 597.556109 -314.660518 
L 599.968212 -314.798412 
L 602.380316 -311.761379 
L 604.79242 -312.147044 
L 607.204524 -312.258616 
L 609.616627 -310.74718 
L 612.028731 -309.134208 
L 614.440835 -307.240986 
L 616.852939 -304.947929 
L 619.265042 -308.223278 
L 621.677146 -307.989703 
L 624.08925 -307.53602 
L 626.501354 -304.338855 
L 628.913457 -304.635026 
L 631.325561 -299.534341 
L 633.737665 -298.370519 
L 636.149769 -298.467929 
L 638.561872 -295.954703 
L 640.973976 -287.595846 
L 643.38608 -295.543764 
L 645.798184 -295.593028 
L 648.210287 -292.749511 
L 650.622391 -291.248544 
L 653.034495 -290.650522 
L 655.446599 -291.253254 
L 657.858702 -285.301232 
L 660.270806 -284.087068 
L 662.68291 -287.107039 
L 665.095014 -283.047997 
L 667.507117 -285.202095 
L 669.919221 -284.994248 
L 672.331325 -279.343202 
L 674.743429 -280.399155 
L 677.155532 -274.663008 
L 679.567636 -275.642032 
L 681.97974 -278.48696 
L 684.391844 -273.08446 
L 686.803947 -274.36257 
L 689.216051 -269.830003 
L 691.628155 -271.560437 
L 694.040259 -266.398882 
L 696.452362 -268.184356 
L 698.864466 -265.933995 
L 701.27657 -266.310824 
L 703.688674 -263.817231 
L 706.100777 -267.107787 
L 708.512881 -262.748869 
L 710.924985 -259.950644 
L 713.337089 -259.010899 
L 715.749192 -255.239348 
L 718.161296 -254.028888 
L 720.5734 -253.240809 
L 722.985504 -252.73481 
L 725.397607 -245.128504 
L 727.809711 -246.30697 
L 730.221815 -250.381605 
L 732.633919 -246.276237 
L 735.046022 -244.891182 
L 737.458126 -247.657753 
L 739.87023 -249.331044 
L 742.282333 -241.047411 
L 744.694437 -239.553547 
L 747.106541 -243.231123 
L 749.518645 -242.128667 
L 751.930748 -239.727511 
L 754.342852 -238.461862 
L 756.754956 -234.789525 
L 759.16706 -234.374078 
L 761.579163 -235.921239 
L 763.991267 -233.41329 
L 766.403371 -231.979476 
L 768.815475 -234.69194 
L 771.227578 -234.017268 
L 773.639682 -234.582186 
L 776.051786 -223.793056 
L 778.46389 -221.759892 
L 780.875993 -220.98234 
L 783.288097 -224.944178 
L 785.700201 -226.049677 
L 788.112305 -224.100311 
L 790.524408 -225.994531 
L 792.936512 -217.808032 
L 795.348616 -223.872162 
L 797.76072 -219.97291 
L 800.172823 -214.398901 
L 802.584927 -218.663534 
L 804.997031 -208.801087 
L 807.409135 -213.3046 
L 809.821238 -212.089047 
L 812.233342 -210.463377 
L 814.645446 -209.133958 
L 817.05755 -206.28326 
L 819.469653 -206.284649 
L 821.881757 -203.375068 
L 824.293861 -202.116993 
L 826.705965 -200.613525 
L 829.118068 -211.282819 
L 831.530172 -195.729797 
L 833.942276 -188.676073 
L 836.35438 -195.637302 
L 838.766483 -193.457828 
L 841.178587 -187.042488 
L 843.590691 -193.09225 
L 846.002795 -184.837376 
L 848.414898 -180.285636 
L 850.827002 -181.624049 
L 853.239106 -179.386964 
L 855.65121 -176.805926 
L 858.063313 -176.05964 
L 860.475417 -177.17139 
L 862.887521 -170.375626 
L 865.299625 -168.351224 
L 867.711728 -165.770395 
L 870.123832 -168.595977 
L 872.535936 -172.583664 
L 874.94804 -163.547693 
L 877.360143 -156.339896 
L 879.772247 -162.250902 
L 882.184351 -161.918355 
L 884.596455 -151.268728 
L 887.008558 -172.229011 
L 889.420662 -153.835785 
L 891.832766 -165.757876 
L 894.24487 -146.473736 
L 896.656973 -153.229634 
L 899.069077 -145.995702 
L 901.481181 -145.753281 
L 903.893284 -142.102 
L 906.305388 -141.765307 
L 908.717492 -145.280564 
L 911.129596 -145.383645 
L 913.541699 -139.759018 
L 915.953803 -136.057218 
L 918.365907 -135.989559 
L 920.778011 -135.984882 
L 923.190114 -132.014081 
L 925.602218 -132.798804 
L 928.014322 -135.631215 
L 930.426426 -137.550238 
L 932.838529 -127.084548 
L 935.250633 -128.416385 
L 937.662737 -126.498848 
L 940.074841 -128.772521 
L 940.074841 -307.202391 
L 940.074841 -307.202391 
L 937.662737 -305.087798 
L 935.250633 -304.873822 
L 932.838529 -303.592652 
L 930.426426 -306.230242 
L 928.014322 -304.766127 
L 925.602218 -302.848812 
L 923.190114 -301.607991 
L 920.778011 -302.256021 
L 918.365907 -301.508228 
L 915.953803 -300.285323 
L 913.541699 -301.624698 
L 911.129596 -302.563638 
L 908.717492 -301.340447 
L 906.305388 -299.339085 
L 903.893284 -298.437659 
L 901.481181 -299.331949 
L 899.069077 -298.398934 
L 896.656973 -300.439616 
L 894.24487 -296.901939 
L 891.832766 -302.617809 
L 889.420662 -297.658422 
L 887.008558 -304.217668 
L 884.596455 -295.038258 
L 882.184351 -298.799049 
L 879.772247 -298.339821 
L 877.360143 -294.034536 
L 874.94804 -296.729286 
L 872.535936 -299.610288 
L 870.123832 -296.705613 
L 867.711728 -294.863083 
L 865.299625 -294.987 
L 862.887521 -294.536052 
L 860.475417 -295.150515 
L 858.063313 -295.793298 
L 855.65121 -295.446678 
L 853.239106 -295.420266 
L 850.827002 -295.284773 
L 848.414898 -293.750153 
L 846.002795 -294.882003 
L 843.590691 -297.449246 
L 841.178587 -294.631731 
L 838.766483 -295.670186 
L 836.35438 -296.442337 
L 833.942276 -292.035496 
L 831.530172 -294.455415 
L 829.118068 -300.578795 
L 826.705965 -294.694619 
L 824.293861 -294.473131 
L 821.881757 -294.189165 
L 819.469653 -294.495892 
L 817.05755 -293.198759 
L 814.645446 -294.088408 
L 812.233342 -294.129796 
L 809.821238 -293.796932 
L 807.409135 -293.296633 
L 804.997031 -290.099491 
L 802.584927 -294.031472 
L 800.172823 -291.033951 
L 797.76072 -293.077388 
L 795.348616 -294.8974 
L 792.936512 -290.16968 
L 790.524408 -293.354742 
L 788.112305 -291.800995 
L 785.700201 -291.776957 
L 783.288097 -290.32392 
L 780.875993 -287.17507 
L 778.46389 -286.926452 
L 776.051786 -286.926647 
L 773.639682 -291.661339 
L 771.227578 -290.595933 
L 768.815475 -290.322146 
L 766.403371 -287.711098 
L 763.991267 -287.730623 
L 761.579163 -287.912791 
L 759.16706 -286.678745 
L 756.754956 -285.786015 
L 754.342852 -286.924209 
L 751.930748 -287.032123 
L 749.518645 -287.292302 
L 747.106541 -287.328606 
L 744.694437 -284.301007 
L 742.282333 -283.986011 
L 739.87023 -288.320145 
L 737.458126 -286.869488 
L 735.046022 -284.445694 
L 732.633919 -284.278903 
L 730.221815 -285.891072 
L 727.809711 -283.037621 
L 725.397607 -281.637146 
L 722.985504 -285.130979 
L 720.5734 -284.864775 
L 718.161296 -284.750165 
L 715.749192 -284.436955 
L 713.337089 -286.581418 
L 710.924985 -286.387011 
L 708.512881 -287.757565 
L 706.100777 -289.865036 
L 703.688674 -286.884357 
L 701.27657 -287.885936 
L 698.864466 -287.122937 
L 696.452362 -288.570383 
L 694.040259 -286.134588 
L 691.628155 -289.279947 
L 689.216051 -287.932501 
L 686.803947 -290.358321 
L 684.391844 -289.053275 
L 681.97974 -292.69186 
L 679.567636 -289.770458 
L 677.155532 -288.53975 
L 674.743429 -292.9562 
L 672.331325 -291.376843 
L 669.919221 -295.589155 
L 667.507117 -295.336848 
L 665.095014 -292.875446 
L 662.68291 -295.915157 
L 660.270806 -293.411935 
L 657.858702 -293.955633 
L 655.446599 -299.985703 
L 653.034495 -299.467717 
L 650.622391 -299.972911 
L 648.210287 -301.599467 
L 645.798184 -305.078175 
L 643.38608 -304.560727 
L 640.973976 -296.030601 
L 638.561872 -303.909002 
L 636.149769 -307.543851 
L 633.737665 -307.054139 
L 631.325561 -308.937341 
L 628.913457 -313.069391 
L 626.501354 -313.645206 
L 624.08925 -316.12959 
L 621.677146 -316.789875 
L 619.265042 -316.766407 
L 616.852939 -313.918802 
L 614.440835 -316.143897 
L 612.028731 -318.081074 
L 609.616627 -319.054432 
L 607.204524 -320.257377 
L 604.79242 -320.340692 
L 602.380316 -319.947126 
L 599.968212 -322.735467 
L 597.556109 -323.236995 
L 595.144005 -323.323658 
L 592.731901 -323.167456 
L 590.319797 -322.360814 
L 587.907694 -325.640063 
L 585.49559 -327.90187 
L 583.083486 -328.103826 
L 580.671382 -326.731221 
L 578.259279 -328.068974 
L 575.847175 -328.541164 
L 573.435071 -331.77253 
L 571.022967 -330.775103 
L 568.610864 -332.706896 
L 566.19876 -331.938349 
L 563.786656 -333.587887 
L 561.374553 -335.895228 
L 558.962449 -334.480844 
L 556.550345 -334.666185 
L 554.138241 -336.628983 
L 551.726138 -336.764687 
L 549.314034 -337.411903 
L 546.90193 -338.336408 
L 544.489826 -336.985002 
L 542.077723 -337.548841 
L 539.665619 -338.616054 
L 537.253515 -338.383557 
L 534.841411 -339.853601 
L 532.429308 -339.736999 
L 530.017204 -339.676254 
L 527.6051 -340.437345 
L 525.192996 -341.192693 
L 522.780893 -340.644367 
L 520.368789 -341.119652 
L 517.956685 -341.070234 
L 515.544581 -341.100559 
L 513.132478 -341.331139 
L 510.720374 -342.01621 
L 508.30827 -343.398083 
L 505.896166 -342.934128 
L 503.484063 -343.741924 
L 501.071959 -343.542765 
L 498.659855 -344.076869 
L 496.247751 -344.989844 
L 493.835648 -344.558421 
L 491.423544 -345.253049 
L 489.01144 -345.205745 
L 486.599336 -345.451793 
L 484.187233 -346.301802 
L 481.775129 -345.959175 
L 479.363025 -346.588718 
L 476.950921 -346.299162 
L 474.538818 -345.380293 
L 472.126714 -345.18113 
L 469.71461 -345.340572 
L 467.302506 -346.460774 
L 464.890403 -345.80826 
L 462.478299 -346.637572 
L 460.066195 -347.105429 
L 457.654091 -348.404267 
L 455.241988 -346.496232 
L 452.829884 -347.002082 
L 450.41778 -347.838847 
L 448.005676 -347.565392 
L 445.593573 -348.058307 
L 443.181469 -348.326515 
L 440.769365 -348.972458 
L 438.357261 -348.664897 
L 435.945158 -348.979203 
L 433.533054 -348.983075 
L 431.12095 -348.769518 
L 428.708846 -348.835664 
L 426.296743 -348.692826 
L 423.884639 -349.593574 
L 421.472535 -349.34268 
L 419.060431 -349.120826 
L 416.648328 -349.929383 
L 414.236224 -349.827214 
L 411.82412 -351.092785 
L 409.412016 -350.776361 
L 406.999913 -350.083339 
L 404.587809 -351.934014 
L 402.175705 -351.236925 
L 399.763602 -352.777379 
L 397.351498 -352.132105 
L 394.939394 -353.140767 
L 392.52729 -352.298327 
L 390.115187 -351.941954 
L 387.703083 -352.453513 
L 385.290979 -355.737204 
L 382.878875 -356.002642 
L 380.466772 -354.275321 
L 378.054668 -355.97416 
L 375.642564 -355.190652 
L 373.23046 -355.753464 
L 370.818357 -355.480785 
L 368.406253 -357.140783 
L 365.994149 -356.95825 
L 363.582045 -356.603821 
L 361.169942 -359.396404 
L 358.757838 -358.973111 
L 356.345734 -361.018944 
L 353.93363 -358.270284 
L 351.521527 -359.940155 
L 349.109423 -361.523121 
L 346.697319 -361.510848 
L 344.285215 -360.288074 
L 341.873112 -365.804907 
L 339.461008 -362.959485 
L 337.048904 -368.201162 
L 334.6368 -369.348839 
L 332.224697 -371.034118 
L 329.812593 -369.878059 
L 327.400489 -370.581922 
L 324.988385 -371.787998 
L 322.576282 -375.321358 
L 320.164178 -373.616771 
L 317.752074 -378.576842 
L 315.33997 -384.84008 
L 312.927867 -384.335178 
L 310.515763 -381.972368 
L 308.103659 -390.026571 
L 305.691555 -389.625151 
L 303.279452 -393.871966 
L 300.867348 -393.692489 
L 298.455244 -403.266889 
L 296.04314 -404.927394 
L 293.631037 -409.297313 
L 291.218933 -416.373576 
L 288.806829 -422.513269 
L 286.394725 -417.35275 
L 283.982622 -420.088286 
L 281.570518 -425.108305 
L 279.158414 -427.813335 
L 276.74631 -431.276237 
L 274.334207 -436.991723 
L 271.922103 -435.874433 
L 269.509999 -444.816177 
L 267.097895 -448.079106 
L 264.685792 -451.74874 
L 262.273688 -452.230514 
L 259.861584 -452.390194 
L 257.44948 -454.108225 
L 255.037377 -452.626596 
L 252.625273 -453.137101 
L 250.213169 -454.320862 
L 247.801065 -454.978991 
L 245.388962 -451.364736 
L 242.976858 -451.614816 
L 240.564754 -452.695839 
L 238.15265 -446.528108 
L 235.740547 -451.509127 
L 233.328443 -450.345588 
L 230.916339 -444.894863 
L 228.504236 -446.86677 
L 226.092132 -444.575469 
L 223.680028 -443.71724 
L 221.267924 -441.020883 
L 218.855821 -439.2512 
L 216.443717 -437.396262 
L 214.031613 -435.583791 
L 211.619509 -433.895632 
L 209.207406 -431.501022 
L 206.795302 -431.057175 
L 204.383198 -426.5002 
L 201.971094 -427.415777 
L 199.558991 -425.335901 
L 197.146887 -423.213411 
L 194.734783 -421.612064 
L 192.322679 -419.691531 
L 189.910576 -418.381746 
L 187.498472 -416.302189 
L 185.086368 -414.898873 
L 182.674264 -413.478543 
L 180.262161 -412.192037 
L 177.850057 -410.919345 
L 175.437953 -410.277975 
L 173.025849 -409.24419 
L 170.613746 -408.551681 
L 168.201642 -407.381074 
L 165.789538 -406.474887 
L 163.377434 -405.700278 
L 160.965331 -404.511942 
L 158.553227 -403.748465 
L 156.141123 -403.189589 
L 153.729019 -402.314392 
L 151.316916 -401.947915 
L 148.904812 -400.594432 
L 146.492708 -399.794902 
L 144.080604 -399.175385 
L 141.668501 -398.252591 
L 139.256397 -397.887344 
L 136.844293 -397.150867 
L 134.432189 -396.371371 
L 132.020086 -395.50554 
L 129.607982 -394.968624 
L 127.195878 -394.359218 
L 124.783774 -393.872169 
L 122.371671 -393.112205 
L 119.959567 -392.40681 
L 117.547463 -392.010407 
L 115.135359 -391.359637 
L 112.723256 -391.178715 
L 110.311152 -390.332324 
L 107.899048 -390.014836 
L 105.486944 -389.501937 
L 103.074841 -388.602832 
z
" style="stroke: #008000; stroke-opacity: 0.3"/>
    </defs>
    <g clip-path="url(#p1a5c89d118)">
     <use xlink:href="#m6ed21da39d" x="0" y="507.542228" style="fill: #008000; fill-opacity: 0.3; stroke: #008000; stroke-opacity: 0.3"/>
    </g>
   </g>
   <g id="matplotlib.axis_1">
    <g id="xtick_1">
     <g id="line2d_1">
      <defs>
       <path id="m2df8b7bf4e" d="M 0 0 
L 0 3.5 
" style="stroke: #000000; stroke-width: 0.8"/>
      </defs>
      <g>
       <use xlink:href="#m2df8b7bf4e" x="103.074841" y="397.467387" style="stroke: #000000; stroke-width: 0.8"/>
      </g>
     </g>
     <g id="text_1">
      <!-- 2022-03-20 -->
      <g transform="translate(17.945813 497.401105) rotate(-45) scale(0.2 -0.2)">
       <defs>
        <path id="DejaVuSans-32" d="M 1228 531 
L 3431 531 
L 3431 0 
L 469 0 
L 469 531 
Q 828 903 1448 1529 
Q 2069 2156 2228 2338 
Q 2531 2678 2651 2914 
Q 2772 3150 2772 3378 
Q 2772 3750 2511 3984 
Q 2250 4219 1831 4219 
Q 1534 4219 1204 4116 
Q 875 4013 500 3803 
L 500 4441 
Q 881 4594 1212 4672 
Q 1544 4750 1819 4750 
Q 2544 4750 2975 4387 
Q 3406 4025 3406 3419 
Q 3406 3131 3298 2873 
Q 3191 2616 2906 2266 
Q 2828 2175 2409 1742 
Q 1991 1309 1228 531 
z
" transform="scale(0.015625)"/>
        <path id="DejaVuSans-30" d="M 2034 4250 
Q 1547 4250 1301 3770 
Q 1056 3291 1056 2328 
Q 1056 1369 1301 889 
Q 1547 409 2034 409 
Q 2525 409 2770 889 
Q 3016 1369 3016 2328 
Q 3016 3291 2770 3770 
Q 2525 4250 2034 4250 
z
M 2034 4750 
Q 2819 4750 3233 4129 
Q 3647 3509 3647 2328 
Q 3647 1150 3233 529 
Q 2819 -91 2034 -91 
Q 1250 -91 836 529 
Q 422 1150 422 2328 
Q 422 3509 836 4129 
Q 1250 4750 2034 4750 
z
" transform="scale(0.015625)"/>
        <path id="DejaVuSans-2d" d="M 313 2009 
L 1997 2009 
L 1997 1497 
L 313 1497 
L 313 2009 
z
" transform="scale(0.015625)"/>
        <path id="DejaVuSans-33" d="M 2597 2516 
Q 3050 2419 3304 2112 
Q 3559 1806 3559 1356 
Q 3559 666 3084 287 
Q 2609 -91 1734 -91 
Q 1441 -91 1130 -33 
Q 819 25 488 141 
L 488 750 
Q 750 597 1062 519 
Q 1375 441 1716 441 
Q 2309 441 2620 675 
Q 2931 909 2931 1356 
Q 2931 1769 2642 2001 
Q 2353 2234 1838 2234 
L 1294 2234 
L 1294 2753 
L 1863 2753 
Q 2328 2753 2575 2939 
Q 2822 3125 2822 3475 
Q 2822 3834 2567 4026 
Q 2313 4219 1838 4219 
Q 1578 4219 1281 4162 
Q 984 4106 628 3988 
L 628 4550 
Q 988 4650 1302 4700 
Q 1616 4750 1894 4750 
Q 2613 4750 3031 4423 
Q 3450 4097 3450 3541 
Q 3450 3153 3228 2886 
Q 3006 2619 2597 2516 
z
" transform="scale(0.015625)"/>
       </defs>
       <use xlink:href="#DejaVuSans-32"/>
       <use xlink:href="#DejaVuSans-30" x="63.623047"/>
       <use xlink:href="#DejaVuSans-32" x="127.246094"/>
       <use xlink:href="#DejaVuSans-32" x="190.869141"/>
       <use xlink:href="#DejaVuSans-2d" x="254.492188"/>
       <use xlink:href="#DejaVuSans-30" x="290.576172"/>
       <use xlink:href="#DejaVuSans-33" x="354.199219"/>
       <use xlink:href="#DejaVuSans-2d" x="417.822266"/>
       <use xlink:href="#DejaVuSans-32" x="453.90625"/>
       <use xlink:href="#DejaVuSans-30" x="517.529297"/>
      </g>
     </g>
    </g>
    <g id="xtick_2">
     <g id="line2d_2">
      <g>
       <use xlink:href="#m2df8b7bf4e" x="170.613746" y="397.467387" style="stroke: #000000; stroke-width: 0.8"/>
      </g>
     </g>
     <g id="text_2">
      <!-- 2022-04-17 -->
      <g transform="translate(85.484718 497.401105) rotate(-45) scale(0.2 -0.2)">
       <defs>
        <path id="DejaVuSans-34" d="M 2419 4116 
L 825 1625 
L 2419 1625 
L 2419 4116 
z
M 2253 4666 
L 3047 4666 
L 3047 1625 
L 3713 1625 
L 3713 1100 
L 3047 1100 
L 3047 0 
L 2419 0 
L 2419 1100 
L 313 1100 
L 313 1709 
L 2253 4666 
z
" transform="scale(0.015625)"/>
        <path id="DejaVuSans-31" d="M 794 531 
L 1825 531 
L 1825 4091 
L 703 3866 
L 703 4441 
L 1819 4666 
L 2450 4666 
L 2450 531 
L 3481 531 
L 3481 0 
L 794 0 
L 794 531 
z
" transform="scale(0.015625)"/>
        <path id="DejaVuSans-37" d="M 525 4666 
L 3525 4666 
L 3525 4397 
L 1831 0 
L 1172 0 
L 2766 4134 
L 525 4134 
L 525 4666 
z
" transform="scale(0.015625)"/>
       </defs>
       <use xlink:href="#DejaVuSans-32"/>
       <use xlink:href="#DejaVuSans-30" x="63.623047"/>
       <use xlink:href="#DejaVuSans-32" x="127.246094"/>
       <use xlink:href="#DejaVuSans-32" x="190.869141"/>
       <use xlink:href="#DejaVuSans-2d" x="254.492188"/>
       <use xlink:href="#DejaVuSans-30" x="290.576172"/>
       <use xlink:href="#DejaVuSans-34" x="354.199219"/>
       <use xlink:href="#DejaVuSans-2d" x="417.822266"/>
       <use xlink:href="#DejaVuSans-31" x="453.90625"/>
       <use xlink:href="#DejaVuSans-37" x="517.529297"/>
      </g>
     </g>
    </g>
    <g id="xtick_3">
     <g id="line2d_3">
      <g>
       <use xlink:href="#m2df8b7bf4e" x="238.15265" y="397.467387" style="stroke: #000000; stroke-width: 0.8"/>
      </g>
     </g>
     <g id="text_3">
      <!-- 2022-05-15 -->
      <g transform="translate(153.023623 497.401105) rotate(-45) scale(0.2 -0.2)">
       <defs>
        <path id="DejaVuSans-35" d="M 691 4666 
L 3169 4666 
L 3169 4134 
L 1269 4134 
L 1269 2991 
Q 1406 3038 1543 3061 
Q 1681 3084 1819 3084 
Q 2600 3084 3056 2656 
Q 3513 2228 3513 1497 
Q 3513 744 3044 326 
Q 2575 -91 1722 -91 
Q 1428 -91 1123 -41 
Q 819 9 494 109 
L 494 744 
Q 775 591 1075 516 
Q 1375 441 1709 441 
Q 2250 441 2565 725 
Q 2881 1009 2881 1497 
Q 2881 1984 2565 2268 
Q 2250 2553 1709 2553 
Q 1456 2553 1204 2497 
Q 953 2441 691 2322 
L 691 4666 
z
" transform="scale(0.015625)"/>
       </defs>
       <use xlink:href="#DejaVuSans-32"/>
       <use xlink:href="#DejaVuSans-30" x="63.623047"/>
       <use xlink:href="#DejaVuSans-32" x="127.246094"/>
       <use xlink:href="#DejaVuSans-32" x="190.869141"/>
       <use xlink:href="#DejaVuSans-2d" x="254.492188"/>
       <use xlink:href="#DejaVuSans-30" x="290.576172"/>
       <use xlink:href="#DejaVuSans-35" x="354.199219"/>
       <use xlink:href="#DejaVuSans-2d" x="417.822266"/>
       <use xlink:href="#DejaVuSans-31" x="453.90625"/>
       <use xlink:href="#DejaVuSans-35" x="517.529297"/>
      </g>
     </g>
    </g>
    <g id="xtick_4">
     <g id="line2d_4">
      <g>
       <use xlink:href="#m2df8b7bf4e" x="305.691555" y="397.467387" style="stroke: #000000; stroke-width: 0.8"/>
      </g>
     </g>
     <g id="text_4">
      <!-- 2022-06-12 -->
      <g transform="translate(220.562528 497.401105) rotate(-45) scale(0.2 -0.2)">
       <defs>
        <path id="DejaVuSans-36" d="M 2113 2584 
Q 1688 2584 1439 2293 
Q 1191 2003 1191 1497 
Q 1191 994 1439 701 
Q 1688 409 2113 409 
Q 2538 409 2786 701 
Q 3034 994 3034 1497 
Q 3034 2003 2786 2293 
Q 2538 2584 2113 2584 
z
M 3366 4563 
L 3366 3988 
Q 3128 4100 2886 4159 
Q 2644 4219 2406 4219 
Q 1781 4219 1451 3797 
Q 1122 3375 1075 2522 
Q 1259 2794 1537 2939 
Q 1816 3084 2150 3084 
Q 2853 3084 3261 2657 
Q 3669 2231 3669 1497 
Q 3669 778 3244 343 
Q 2819 -91 2113 -91 
Q 1303 -91 875 529 
Q 447 1150 447 2328 
Q 447 3434 972 4092 
Q 1497 4750 2381 4750 
Q 2619 4750 2861 4703 
Q 3103 4656 3366 4563 
z
" transform="scale(0.015625)"/>
       </defs>
       <use xlink:href="#DejaVuSans-32"/>
       <use xlink:href="#DejaVuSans-30" x="63.623047"/>
       <use xlink:href="#DejaVuSans-32" x="127.246094"/>
       <use xlink:href="#DejaVuSans-32" x="190.869141"/>
       <use xlink:href="#DejaVuSans-2d" x="254.492188"/>
       <use xlink:href="#DejaVuSans-30" x="290.576172"/>
       <use xlink:href="#DejaVuSans-36" x="354.199219"/>
       <use xlink:href="#DejaVuSans-2d" x="417.822266"/>
       <use xlink:href="#DejaVuSans-31" x="453.90625"/>
       <use xlink:href="#DejaVuSans-32" x="517.529297"/>
      </g>
     </g>
    </g>
    <g id="xtick_5">
     <g id="line2d_5">
      <g>
       <use xlink:href="#m2df8b7bf4e" x="373.23046" y="397.467387" style="stroke: #000000; stroke-width: 0.8"/>
      </g>
     </g>
     <g id="text_5">
      <!-- 2022-07-10 -->
      <g transform="translate(288.101433 497.401105) rotate(-45) scale(0.2 -0.2)">
       <use xlink:href="#DejaVuSans-32"/>
       <use xlink:href="#DejaVuSans-30" x="63.623047"/>
       <use xlink:href="#DejaVuSans-32" x="127.246094"/>
       <use xlink:href="#DejaVuSans-32" x="190.869141"/>
       <use xlink:href="#DejaVuSans-2d" x="254.492188"/>
       <use xlink:href="#DejaVuSans-30" x="290.576172"/>
       <use xlink:href="#DejaVuSans-37" x="354.199219"/>
       <use xlink:href="#DejaVuSans-2d" x="417.822266"/>
       <use xlink:href="#DejaVuSans-31" x="453.90625"/>
       <use xlink:href="#DejaVuSans-30" x="517.529297"/>
      </g>
     </g>
    </g>
    <g id="xtick_6">
     <g id="line2d_6">
      <g>
       <use xlink:href="#m2df8b7bf4e" x="440.769365" y="397.467387" style="stroke: #000000; stroke-width: 0.8"/>
      </g>
     </g>
     <g id="text_6">
      <!-- 2022-08-07 -->
      <g transform="translate(355.640338 497.401105) rotate(-45) scale(0.2 -0.2)">
       <defs>
        <path id="DejaVuSans-38" d="M 2034 2216 
Q 1584 2216 1326 1975 
Q 1069 1734 1069 1313 
Q 1069 891 1326 650 
Q 1584 409 2034 409 
Q 2484 409 2743 651 
Q 3003 894 3003 1313 
Q 3003 1734 2745 1975 
Q 2488 2216 2034 2216 
z
M 1403 2484 
Q 997 2584 770 2862 
Q 544 3141 544 3541 
Q 544 4100 942 4425 
Q 1341 4750 2034 4750 
Q 2731 4750 3128 4425 
Q 3525 4100 3525 3541 
Q 3525 3141 3298 2862 
Q 3072 2584 2669 2484 
Q 3125 2378 3379 2068 
Q 3634 1759 3634 1313 
Q 3634 634 3220 271 
Q 2806 -91 2034 -91 
Q 1263 -91 848 271 
Q 434 634 434 1313 
Q 434 1759 690 2068 
Q 947 2378 1403 2484 
z
M 1172 3481 
Q 1172 3119 1398 2916 
Q 1625 2713 2034 2713 
Q 2441 2713 2670 2916 
Q 2900 3119 2900 3481 
Q 2900 3844 2670 4047 
Q 2441 4250 2034 4250 
Q 1625 4250 1398 4047 
Q 1172 3844 1172 3481 
z
" transform="scale(0.015625)"/>
       </defs>
       <use xlink:href="#DejaVuSans-32"/>
       <use xlink:href="#DejaVuSans-30" x="63.623047"/>
       <use xlink:href="#DejaVuSans-32" x="127.246094"/>
       <use xlink:href="#DejaVuSans-32" x="190.869141"/>
       <use xlink:href="#DejaVuSans-2d" x="254.492188"/>
       <use xlink:href="#DejaVuSans-30" x="290.576172"/>
       <use xlink:href="#DejaVuSans-38" x="354.199219"/>
       <use xlink:href="#DejaVuSans-2d" x="417.822266"/>
       <use xlink:href="#DejaVuSans-30" x="453.90625"/>
       <use xlink:href="#DejaVuSans-37" x="517.529297"/>
      </g>
     </g>
    </g>
    <g id="xtick_7">
     <g id="line2d_7">
      <g>
       <use xlink:href="#m2df8b7bf4e" x="508.30827" y="397.467387" style="stroke: #000000; stroke-width: 0.8"/>
      </g>
     </g>
     <g id="text_7">
      <!-- 2022-09-04 -->
      <g transform="translate(423.179243 497.401105) rotate(-45) scale(0.2 -0.2)">
       <defs>
        <path id="DejaVuSans-39" d="M 703 97 
L 703 672 
Q 941 559 1184 500 
Q 1428 441 1663 441 
Q 2288 441 2617 861 
Q 2947 1281 2994 2138 
Q 2813 1869 2534 1725 
Q 2256 1581 1919 1581 
Q 1219 1581 811 2004 
Q 403 2428 403 3163 
Q 403 3881 828 4315 
Q 1253 4750 1959 4750 
Q 2769 4750 3195 4129 
Q 3622 3509 3622 2328 
Q 3622 1225 3098 567 
Q 2575 -91 1691 -91 
Q 1453 -91 1209 -44 
Q 966 3 703 97 
z
M 1959 2075 
Q 2384 2075 2632 2365 
Q 2881 2656 2881 3163 
Q 2881 3666 2632 3958 
Q 2384 4250 1959 4250 
Q 1534 4250 1286 3958 
Q 1038 3666 1038 3163 
Q 1038 2656 1286 2365 
Q 1534 2075 1959 2075 
z
" transform="scale(0.015625)"/>
       </defs>
       <use xlink:href="#DejaVuSans-32"/>
       <use xlink:href="#DejaVuSans-30" x="63.623047"/>
       <use xlink:href="#DejaVuSans-32" x="127.246094"/>
       <use xlink:href="#DejaVuSans-32" x="190.869141"/>
       <use xlink:href="#DejaVuSans-2d" x="254.492188"/>
       <use xlink:href="#DejaVuSans-30" x="290.576172"/>
       <use xlink:href="#DejaVuSans-39" x="354.199219"/>
       <use xlink:href="#DejaVuSans-2d" x="417.822266"/>
       <use xlink:href="#DejaVuSans-30" x="453.90625"/>
       <use xlink:href="#DejaVuSans-34" x="517.529297"/>
      </g>
     </g>
    </g>
    <g id="xtick_8">
     <g id="line2d_8">
      <g>
       <use xlink:href="#m2df8b7bf4e" x="575.847175" y="397.467387" style="stroke: #000000; stroke-width: 0.8"/>
      </g>
     </g>
     <g id="text_8">
      <!-- 2022-10-02 -->
      <g transform="translate(490.718148 497.401105) rotate(-45) scale(0.2 -0.2)">
       <use xlink:href="#DejaVuSans-32"/>
       <use xlink:href="#DejaVuSans-30" x="63.623047"/>
       <use xlink:href="#DejaVuSans-32" x="127.246094"/>
       <use xlink:href="#DejaVuSans-32" x="190.869141"/>
       <use xlink:href="#DejaVuSans-2d" x="254.492188"/>
       <use xlink:href="#DejaVuSans-31" x="290.576172"/>
       <use xlink:href="#DejaVuSans-30" x="354.199219"/>
       <use xlink:href="#DejaVuSans-2d" x="417.822266"/>
       <use xlink:href="#DejaVuSans-30" x="453.90625"/>
       <use xlink:href="#DejaVuSans-32" x="517.529297"/>
      </g>
     </g>
    </g>
    <g id="xtick_9">
     <g id="line2d_9">
      <g>
       <use xlink:href="#m2df8b7bf4e" x="643.38608" y="397.467387" style="stroke: #000000; stroke-width: 0.8"/>
      </g>
     </g>
     <g id="text_9">
      <!-- 2022-10-30 -->
      <g transform="translate(558.257053 497.401105) rotate(-45) scale(0.2 -0.2)">
       <use xlink:href="#DejaVuSans-32"/>
       <use xlink:href="#DejaVuSans-30" x="63.623047"/>
       <use xlink:href="#DejaVuSans-32" x="127.246094"/>
       <use xlink:href="#DejaVuSans-32" x="190.869141"/>
       <use xlink:href="#DejaVuSans-2d" x="254.492188"/>
       <use xlink:href="#DejaVuSans-31" x="290.576172"/>
       <use xlink:href="#DejaVuSans-30" x="354.199219"/>
       <use xlink:href="#DejaVuSans-2d" x="417.822266"/>
       <use xlink:href="#DejaVuSans-33" x="453.90625"/>
       <use xlink:href="#DejaVuSans-30" x="517.529297"/>
      </g>
     </g>
    </g>
    <g id="xtick_10">
     <g id="line2d_10">
      <g>
       <use xlink:href="#m2df8b7bf4e" x="710.924985" y="397.467387" style="stroke: #000000; stroke-width: 0.8"/>
      </g>
     </g>
     <g id="text_10">
      <!-- 2022-11-27 -->
      <g transform="translate(625.795957 497.401105) rotate(-45) scale(0.2 -0.2)">
       <use xlink:href="#DejaVuSans-32"/>
       <use xlink:href="#DejaVuSans-30" x="63.623047"/>
       <use xlink:href="#DejaVuSans-32" x="127.246094"/>
       <use xlink:href="#DejaVuSans-32" x="190.869141"/>
       <use xlink:href="#DejaVuSans-2d" x="254.492188"/>
       <use xlink:href="#DejaVuSans-31" x="290.576172"/>
       <use xlink:href="#DejaVuSans-31" x="354.199219"/>
       <use xlink:href="#DejaVuSans-2d" x="417.822266"/>
       <use xlink:href="#DejaVuSans-32" x="453.90625"/>
       <use xlink:href="#DejaVuSans-37" x="517.529297"/>
      </g>
     </g>
    </g>
    <g id="xtick_11">
     <g id="line2d_11">
      <g>
       <use xlink:href="#m2df8b7bf4e" x="778.46389" y="397.467387" style="stroke: #000000; stroke-width: 0.8"/>
      </g>
     </g>
     <g id="text_11">
      <!-- 2022-12-25 -->
      <g transform="translate(693.334862 497.401105) rotate(-45) scale(0.2 -0.2)">
       <use xlink:href="#DejaVuSans-32"/>
       <use xlink:href="#DejaVuSans-30" x="63.623047"/>
       <use xlink:href="#DejaVuSans-32" x="127.246094"/>
       <use xlink:href="#DejaVuSans-32" x="190.869141"/>
       <use xlink:href="#DejaVuSans-2d" x="254.492188"/>
       <use xlink:href="#DejaVuSans-31" x="290.576172"/>
       <use xlink:href="#DejaVuSans-32" x="354.199219"/>
       <use xlink:href="#DejaVuSans-2d" x="417.822266"/>
       <use xlink:href="#DejaVuSans-32" x="453.90625"/>
       <use xlink:href="#DejaVuSans-35" x="517.529297"/>
      </g>
     </g>
    </g>
    <g id="xtick_12">
     <g id="line2d_12">
      <g>
       <use xlink:href="#m2df8b7bf4e" x="846.002795" y="397.467387" style="stroke: #000000; stroke-width: 0.8"/>
      </g>
     </g>
     <g id="text_12">
      <!-- 2023-01-22 -->
      <g transform="translate(760.873767 497.401105) rotate(-45) scale(0.2 -0.2)">
       <use xlink:href="#DejaVuSans-32"/>
       <use xlink:href="#DejaVuSans-30" x="63.623047"/>
       <use xlink:href="#DejaVuSans-32" x="127.246094"/>
       <use xlink:href="#DejaVuSans-33" x="190.869141"/>
       <use xlink:href="#DejaVuSans-2d" x="254.492188"/>
       <use xlink:href="#DejaVuSans-30" x="290.576172"/>
       <use xlink:href="#DejaVuSans-31" x="354.199219"/>
       <use xlink:href="#DejaVuSans-2d" x="417.822266"/>
       <use xlink:href="#DejaVuSans-32" x="453.90625"/>
       <use xlink:href="#DejaVuSans-32" x="517.529297"/>
      </g>
     </g>
    </g>
    <g id="xtick_13">
     <g id="line2d_13">
      <g>
       <use xlink:href="#m2df8b7bf4e" x="913.541699" y="397.467387" style="stroke: #000000; stroke-width: 0.8"/>
      </g>
     </g>
     <g id="text_13">
      <!-- 2023-02-19 -->
      <g transform="translate(828.412672 497.401105) rotate(-45) scale(0.2 -0.2)">
       <use xlink:href="#DejaVuSans-32"/>
       <use xlink:href="#DejaVuSans-30" x="63.623047"/>
       <use xlink:href="#DejaVuSans-32" x="127.246094"/>
       <use xlink:href="#DejaVuSans-33" x="190.869141"/>
       <use xlink:href="#DejaVuSans-2d" x="254.492188"/>
       <use xlink:href="#DejaVuSans-30" x="290.576172"/>
       <use xlink:href="#DejaVuSans-32" x="354.199219"/>
       <use xlink:href="#DejaVuSans-2d" x="417.822266"/>
       <use xlink:href="#DejaVuSans-31" x="453.90625"/>
       <use xlink:href="#DejaVuSans-39" x="517.529297"/>
      </g>
     </g>
    </g>
    <g id="xtick_14">
     <g id="line2d_14">
      <g>
       <use xlink:href="#m2df8b7bf4e" x="940.074841" y="397.467387" style="stroke: #000000; stroke-width: 0.8"/>
      </g>
     </g>
     <g id="text_14">
      <!-- 2023-03-02 -->
      <g transform="translate(854.945813 497.401105) rotate(-45) scale(0.2 -0.2)">
       <use xlink:href="#DejaVuSans-32"/>
       <use xlink:href="#DejaVuSans-30" x="63.623047"/>
       <use xlink:href="#DejaVuSans-32" x="127.246094"/>
       <use xlink:href="#DejaVuSans-33" x="190.869141"/>
       <use xlink:href="#DejaVuSans-2d" x="254.492188"/>
       <use xlink:href="#DejaVuSans-30" x="290.576172"/>
       <use xlink:href="#DejaVuSans-33" x="354.199219"/>
       <use xlink:href="#DejaVuSans-2d" x="417.822266"/>
       <use xlink:href="#DejaVuSans-30" x="453.90625"/>
       <use xlink:href="#DejaVuSans-32" x="517.529297"/>
      </g>
     </g>
    </g>
   </g>
   <g id="matplotlib.axis_2">
    <g id="ytick_1">
     <g id="line2d_15">
      <defs>
       <path id="m1edff2b071" d="M 0 0 
L -3.5 0 
" style="stroke: #000000; stroke-width: 0.8"/>
      </defs>
      <g>
       <use xlink:href="#m1edff2b071" x="103.074841" y="388.78619" style="stroke: #000000; stroke-width: 0.8"/>
      </g>
     </g>
     <g id="text_15">
      <!-- −0.25 -->
      <g transform="translate(34.784216 396.384627) scale(0.2 -0.2)">
       <defs>
        <path id="DejaVuSans-2212" d="M 678 2272 
L 4684 2272 
L 4684 1741 
L 678 1741 
L 678 2272 
z
" transform="scale(0.015625)"/>
        <path id="DejaVuSans-2e" d="M 684 794 
L 1344 794 
L 1344 0 
L 684 0 
L 684 794 
z
" transform="scale(0.015625)"/>
       </defs>
       <use xlink:href="#DejaVuSans-2212"/>
       <use xlink:href="#DejaVuSans-30" x="83.789062"/>
       <use xlink:href="#DejaVuSans-2e" x="147.412109"/>
       <use xlink:href="#DejaVuSans-32" x="179.199219"/>
       <use xlink:href="#DejaVuSans-35" x="242.822266"/>
      </g>
     </g>
    </g>
    <g id="ytick_2">
     <g id="line2d_16">
      <g>
       <use xlink:href="#m1edff2b071" x="103.074841" y="342.037721" style="stroke: #000000; stroke-width: 0.8"/>
      </g>
     </g>
     <g id="text_16">
      <!-- −0.20 -->
      <g transform="translate(34.784216 349.636158) scale(0.2 -0.2)">
       <use xlink:href="#DejaVuSans-2212"/>
       <use xlink:href="#DejaVuSans-30" x="83.789062"/>
       <use xlink:href="#DejaVuSans-2e" x="147.412109"/>
       <use xlink:href="#DejaVuSans-32" x="179.199219"/>
       <use xlink:href="#DejaVuSans-30" x="242.822266"/>
      </g>
     </g>
    </g>
    <g id="ytick_3">
     <g id="line2d_17">
      <g>
       <use xlink:href="#m1edff2b071" x="103.074841" y="295.289252" style="stroke: #000000; stroke-width: 0.8"/>
      </g>
     </g>
     <g id="text_17">
      <!-- −0.15 -->
      <g transform="translate(34.784216 302.887689) scale(0.2 -0.2)">
       <use xlink:href="#DejaVuSans-2212"/>
       <use xlink:href="#DejaVuSans-30" x="83.789062"/>
       <use xlink:href="#DejaVuSans-2e" x="147.412109"/>
       <use xlink:href="#DejaVuSans-31" x="179.199219"/>
       <use xlink:href="#DejaVuSans-35" x="242.822266"/>
      </g>
     </g>
    </g>
    <g id="ytick_4">
     <g id="line2d_18">
      <g>
       <use xlink:href="#m1edff2b071" x="103.074841" y="248.540783" style="stroke: #000000; stroke-width: 0.8"/>
      </g>
     </g>
     <g id="text_18">
      <!-- −0.10 -->
      <g transform="translate(34.784216 256.13922) scale(0.2 -0.2)">
       <use xlink:href="#DejaVuSans-2212"/>
       <use xlink:href="#DejaVuSans-30" x="83.789062"/>
       <use xlink:href="#DejaVuSans-2e" x="147.412109"/>
       <use xlink:href="#DejaVuSans-31" x="179.199219"/>
       <use xlink:href="#DejaVuSans-30" x="242.822266"/>
      </g>
     </g>
    </g>
    <g id="ytick_5">
     <g id="line2d_19">
      <g>
       <use xlink:href="#m1edff2b071" x="103.074841" y="201.792314" style="stroke: #000000; stroke-width: 0.8"/>
      </g>
     </g>
     <g id="text_19">
      <!-- −0.05 -->
      <g transform="translate(34.784216 209.390751) scale(0.2 -0.2)">
       <use xlink:href="#DejaVuSans-2212"/>
       <use xlink:href="#DejaVuSans-30" x="83.789062"/>
       <use xlink:href="#DejaVuSans-2e" x="147.412109"/>
       <use xlink:href="#DejaVuSans-30" x="179.199219"/>
       <use xlink:href="#DejaVuSans-35" x="242.822266"/>
      </g>
     </g>
    </g>
    <g id="ytick_6">
     <g id="line2d_20">
      <g>
       <use xlink:href="#m1edff2b071" x="103.074841" y="155.043845" style="stroke: #000000; stroke-width: 0.8"/>
      </g>
     </g>
     <g id="text_20">
      <!-- 0.00 -->
      <g transform="translate(51.543591 162.642282) scale(0.2 -0.2)">
       <use xlink:href="#DejaVuSans-30"/>
       <use xlink:href="#DejaVuSans-2e" x="63.623047"/>
       <use xlink:href="#DejaVuSans-30" x="95.410156"/>
       <use xlink:href="#DejaVuSans-30" x="159.033203"/>
      </g>
     </g>
    </g>
    <g id="ytick_7">
     <g id="line2d_21">
      <g>
       <use xlink:href="#m1edff2b071" x="103.074841" y="108.295376" style="stroke: #000000; stroke-width: 0.8"/>
      </g>
     </g>
     <g id="text_21">
      <!-- 0.05 -->
      <g transform="translate(51.543591 115.893813) scale(0.2 -0.2)">
       <use xlink:href="#DejaVuSans-30"/>
       <use xlink:href="#DejaVuSans-2e" x="63.623047"/>
       <use xlink:href="#DejaVuSans-30" x="95.410156"/>
       <use xlink:href="#DejaVuSans-35" x="159.033203"/>
      </g>
     </g>
    </g>
    <g id="ytick_8">
     <g id="line2d_22">
      <g>
       <use xlink:href="#m1edff2b071" x="103.074841" y="61.546907" style="stroke: #000000; stroke-width: 0.8"/>
      </g>
     </g>
     <g id="text_22">
      <!-- 0.10 -->
      <g transform="translate(51.543591 69.145344) scale(0.2 -0.2)">
       <use xlink:href="#DejaVuSans-30"/>
       <use xlink:href="#DejaVuSans-2e" x="63.623047"/>
       <use xlink:href="#DejaVuSans-31" x="95.410156"/>
       <use xlink:href="#DejaVuSans-30" x="159.033203"/>
      </g>
     </g>
    </g>
    <g id="ytick_9">
     <g id="line2d_23">
      <g>
       <use xlink:href="#m1edff2b071" x="103.074841" y="14.798437" style="stroke: #000000; stroke-width: 0.8"/>
      </g>
     </g>
     <g id="text_23">
      <!-- 0.15 -->
      <g transform="translate(51.543591 22.396875) scale(0.2 -0.2)">
       <use xlink:href="#DejaVuSans-30"/>
       <use xlink:href="#DejaVuSans-2e" x="63.623047"/>
       <use xlink:href="#DejaVuSans-31" x="95.410156"/>
       <use xlink:href="#DejaVuSans-35" x="159.033203"/>
      </g>
     </g>
    </g>
    <g id="text_24">
     <!-- Relative fitness $\gamma_y$ -->
     <g transform="translate(24.584216 294.027387) rotate(-90) scale(0.2 -0.2)">
      <defs>
       <path id="DejaVuSans-52" d="M 2841 2188 
Q 3044 2119 3236 1894 
Q 3428 1669 3622 1275 
L 4263 0 
L 3584 0 
L 2988 1197 
Q 2756 1666 2539 1819 
Q 2322 1972 1947 1972 
L 1259 1972 
L 1259 0 
L 628 0 
L 628 4666 
L 2053 4666 
Q 2853 4666 3247 4331 
Q 3641 3997 3641 3322 
Q 3641 2881 3436 2590 
Q 3231 2300 2841 2188 
z
M 1259 4147 
L 1259 2491 
L 2053 2491 
Q 2509 2491 2742 2702 
Q 2975 2913 2975 3322 
Q 2975 3731 2742 3939 
Q 2509 4147 2053 4147 
L 1259 4147 
z
" transform="scale(0.015625)"/>
       <path id="DejaVuSans-65" d="M 3597 1894 
L 3597 1613 
L 953 1613 
Q 991 1019 1311 708 
Q 1631 397 2203 397 
Q 2534 397 2845 478 
Q 3156 559 3463 722 
L 3463 178 
Q 3153 47 2828 -22 
Q 2503 -91 2169 -91 
Q 1331 -91 842 396 
Q 353 884 353 1716 
Q 353 2575 817 3079 
Q 1281 3584 2069 3584 
Q 2775 3584 3186 3129 
Q 3597 2675 3597 1894 
z
M 3022 2063 
Q 3016 2534 2758 2815 
Q 2500 3097 2075 3097 
Q 1594 3097 1305 2825 
Q 1016 2553 972 2059 
L 3022 2063 
z
" transform="scale(0.015625)"/>
       <path id="DejaVuSans-6c" d="M 603 4863 
L 1178 4863 
L 1178 0 
L 603 0 
L 603 4863 
z
" transform="scale(0.015625)"/>
       <path id="DejaVuSans-61" d="M 2194 1759 
Q 1497 1759 1228 1600 
Q 959 1441 959 1056 
Q 959 750 1161 570 
Q 1363 391 1709 391 
Q 2188 391 2477 730 
Q 2766 1069 2766 1631 
L 2766 1759 
L 2194 1759 
z
M 3341 1997 
L 3341 0 
L 2766 0 
L 2766 531 
Q 2569 213 2275 61 
Q 1981 -91 1556 -91 
Q 1019 -91 701 211 
Q 384 513 384 1019 
Q 384 1609 779 1909 
Q 1175 2209 1959 2209 
L 2766 2209 
L 2766 2266 
Q 2766 2663 2505 2880 
Q 2244 3097 1772 3097 
Q 1472 3097 1187 3025 
Q 903 2953 641 2809 
L 641 3341 
Q 956 3463 1253 3523 
Q 1550 3584 1831 3584 
Q 2591 3584 2966 3190 
Q 3341 2797 3341 1997 
z
" transform="scale(0.015625)"/>
       <path id="DejaVuSans-74" d="M 1172 4494 
L 1172 3500 
L 2356 3500 
L 2356 3053 
L 1172 3053 
L 1172 1153 
Q 1172 725 1289 603 
Q 1406 481 1766 481 
L 2356 481 
L 2356 0 
L 1766 0 
Q 1100 0 847 248 
Q 594 497 594 1153 
L 594 3053 
L 172 3053 
L 172 3500 
L 594 3500 
L 594 4494 
L 1172 4494 
z
" transform="scale(0.015625)"/>
       <path id="DejaVuSans-69" d="M 603 3500 
L 1178 3500 
L 1178 0 
L 603 0 
L 603 3500 
z
M 603 4863 
L 1178 4863 
L 1178 4134 
L 603 4134 
L 603 4863 
z
" transform="scale(0.015625)"/>
       <path id="DejaVuSans-76" d="M 191 3500 
L 800 3500 
L 1894 563 
L 2988 3500 
L 3597 3500 
L 2284 0 
L 1503 0 
L 191 3500 
z
" transform="scale(0.015625)"/>
       <path id="DejaVuSans-20" transform="scale(0.015625)"/>
       <path id="DejaVuSans-66" d="M 2375 4863 
L 2375 4384 
L 1825 4384 
Q 1516 4384 1395 4259 
Q 1275 4134 1275 3809 
L 1275 3500 
L 2222 3500 
L 2222 3053 
L 1275 3053 
L 1275 0 
L 697 0 
L 697 3053 
L 147 3053 
L 147 3500 
L 697 3500 
L 697 3744 
Q 697 4328 969 4595 
Q 1241 4863 1831 4863 
L 2375 4863 
z
" transform="scale(0.015625)"/>
       <path id="DejaVuSans-6e" d="M 3513 2113 
L 3513 0 
L 2938 0 
L 2938 2094 
Q 2938 2591 2744 2837 
Q 2550 3084 2163 3084 
Q 1697 3084 1428 2787 
Q 1159 2491 1159 1978 
L 1159 0 
L 581 0 
L 581 3500 
L 1159 3500 
L 1159 2956 
Q 1366 3272 1645 3428 
Q 1925 3584 2291 3584 
Q 2894 3584 3203 3211 
Q 3513 2838 3513 2113 
z
" transform="scale(0.015625)"/>
       <path id="DejaVuSans-73" d="M 2834 3397 
L 2834 2853 
Q 2591 2978 2328 3040 
Q 2066 3103 1784 3103 
Q 1356 3103 1142 2972 
Q 928 2841 928 2578 
Q 928 2378 1081 2264 
Q 1234 2150 1697 2047 
L 1894 2003 
Q 2506 1872 2764 1633 
Q 3022 1394 3022 966 
Q 3022 478 2636 193 
Q 2250 -91 1575 -91 
Q 1294 -91 989 -36 
Q 684 19 347 128 
L 347 722 
Q 666 556 975 473 
Q 1284 391 1588 391 
Q 1994 391 2212 530 
Q 2431 669 2431 922 
Q 2431 1156 2273 1281 
Q 2116 1406 1581 1522 
L 1381 1569 
Q 847 1681 609 1914 
Q 372 2147 372 2553 
Q 372 3047 722 3315 
Q 1072 3584 1716 3584 
Q 2034 3584 2315 3537 
Q 2597 3491 2834 3397 
z
" transform="scale(0.015625)"/>
       <path id="DejaVuSans-Oblique-3b3" d="M 1491 2950 
L 1838 788 
L 3456 3500 
L 4066 3500 
L 1972 0 
L 1713 -1331 
L 1138 -1331 
L 1397 0 
L 988 2613 
Q 925 3006 628 3006 
L 475 3006 
L 569 3500 
L 788 3500 
Q 1403 3500 1491 2950 
z
" transform="scale(0.015625)"/>
       <path id="DejaVuSans-Oblique-79" d="M 1588 -325 
Q 1188 -997 936 -1164 
Q 684 -1331 294 -1331 
L -159 -1331 
L -63 -850 
L 269 -850 
Q 509 -850 678 -719 
Q 847 -588 1056 -206 
L 1234 128 
L 459 3500 
L 1069 3500 
L 1650 819 
L 3256 3500 
L 3859 3500 
L 1588 -325 
z
" transform="scale(0.015625)"/>
      </defs>
      <use xlink:href="#DejaVuSans-52" transform="translate(0 0.015625)"/>
      <use xlink:href="#DejaVuSans-65" transform="translate(69.482422 0.015625)"/>
      <use xlink:href="#DejaVuSans-6c" transform="translate(131.005859 0.015625)"/>
      <use xlink:href="#DejaVuSans-61" transform="translate(158.789062 0.015625)"/>
      <use xlink:href="#DejaVuSans-74" transform="translate(220.068359 0.015625)"/>
      <use xlink:href="#DejaVuSans-69" transform="translate(259.277344 0.015625)"/>
      <use xlink:href="#DejaVuSans-76" transform="translate(287.060547 0.015625)"/>
      <use xlink:href="#DejaVuSans-65" transform="translate(346.240234 0.015625)"/>
      <use xlink:href="#DejaVuSans-20" transform="translate(407.763672 0.015625)"/>
      <use xlink:href="#DejaVuSans-66" transform="translate(439.550781 0.015625)"/>
      <use xlink:href="#DejaVuSans-69" transform="translate(474.755859 0.015625)"/>
      <use xlink:href="#DejaVuSans-74" transform="translate(502.539062 0.015625)"/>
      <use xlink:href="#DejaVuSans-6e" transform="translate(541.748047 0.015625)"/>
      <use xlink:href="#DejaVuSans-65" transform="translate(605.126953 0.015625)"/>
      <use xlink:href="#DejaVuSans-73" transform="translate(666.650391 0.015625)"/>
      <use xlink:href="#DejaVuSans-73" transform="translate(718.75 0.015625)"/>
      <use xlink:href="#DejaVuSans-20" transform="translate(770.849609 0.015625)"/>
      <use xlink:href="#DejaVuSans-Oblique-3b3" transform="translate(802.636719 0.015625)"/>
      <use xlink:href="#DejaVuSans-Oblique-79" transform="translate(861.816406 -16.390625) scale(0.7)"/>
     </g>
    </g>
   </g>
   <g id="line2d_24">
    <path d="M 103.074841 155.043845 
L 1387.940466 155.043845 
" clip-path="url(#p1a5c89d118)" style="fill: none; stroke-dasharray: 7.4,3.2; stroke-dashoffset: 0; stroke: #000000; stroke-width: 2"/>
   </g>
   <g id="patch_3">
    <path d="M 103.074841 397.467387 
L 103.074841 9.387387 
" style="fill: none; stroke: #000000; stroke-width: 0.8; stroke-linejoin: miter; stroke-linecap: square"/>
   </g>
   <g id="patch_4">
    <path d="M 940.074841 397.467387 
L 940.074841 9.387387 
" style="fill: none; stroke: #000000; stroke-width: 0.8; stroke-linejoin: miter; stroke-linecap: square"/>
   </g>
   <g id="patch_5">
    <path d="M 103.074841 397.467387 
L 940.074841 397.467387 
" style="fill: none; stroke: #000000; stroke-width: 0.8; stroke-linejoin: miter; stroke-linecap: square"/>
   </g>
   <g id="patch_6">
    <path d="M 103.074841 9.387387 
L 940.074841 9.387387 
" style="fill: none; stroke: #000000; stroke-width: 0.8; stroke-linejoin: miter; stroke-linecap: square"/>
   </g>
   <g id="legend_1">
    <g id="patch_7">
     <path d="M 1111.474841 397.467387 
L 1375.740466 397.467387 
Q 1379.740466 397.467387 1379.740466 393.467387 
L 1379.740466 366.111137 
Q 1379.740466 362.111137 1375.740466 362.111137 
L 1111.474841 362.111137 
Q 1107.474841 362.111137 1107.474841 366.111137 
L 1107.474841 393.467387 
Q 1107.474841 397.467387 1111.474841 397.467387 
z
" style="fill: #ffffff; opacity: 0.8; stroke: #cccccc; stroke-linejoin: miter"/>
    </g>
    <g id="patch_8">
     <path d="M 1115.474841 385.308012 
L 1155.474841 385.308012 
L 1155.474841 371.308012 
L 1115.474841 371.308012 
z
" style="fill: #008000; fill-opacity: 0.3; stroke: #008000; stroke-opacity: 0.3; stroke-linejoin: miter"/>
    </g>
    <g id="text_25">
     <!-- BA.4*/BE.1.1*/BA.5* -->
     <g transform="translate(1171.474841 385.308012) scale(0.2 -0.2)">
      <defs>
       <path id="DejaVuSans-42" d="M 1259 2228 
L 1259 519 
L 2272 519 
Q 2781 519 3026 730 
Q 3272 941 3272 1375 
Q 3272 1813 3026 2020 
Q 2781 2228 2272 2228 
L 1259 2228 
z
M 1259 4147 
L 1259 2741 
L 2194 2741 
Q 2656 2741 2882 2914 
Q 3109 3088 3109 3444 
Q 3109 3797 2882 3972 
Q 2656 4147 2194 4147 
L 1259 4147 
z
M 628 4666 
L 2241 4666 
Q 2963 4666 3353 4366 
Q 3744 4066 3744 3513 
Q 3744 3084 3544 2831 
Q 3344 2578 2956 2516 
Q 3422 2416 3680 2098 
Q 3938 1781 3938 1306 
Q 3938 681 3513 340 
Q 3088 0 2303 0 
L 628 0 
L 628 4666 
z
" transform="scale(0.015625)"/>
       <path id="DejaVuSans-41" d="M 2188 4044 
L 1331 1722 
L 3047 1722 
L 2188 4044 
z
M 1831 4666 
L 2547 4666 
L 4325 0 
L 3669 0 
L 3244 1197 
L 1141 1197 
L 716 0 
L 50 0 
L 1831 4666 
z
" transform="scale(0.015625)"/>
       <path id="DejaVuSans-2a" d="M 3009 3897 
L 1888 3291 
L 3009 2681 
L 2828 2375 
L 1778 3009 
L 1778 1831 
L 1422 1831 
L 1422 3009 
L 372 2375 
L 191 2681 
L 1313 3291 
L 191 3897 
L 372 4206 
L 1422 3572 
L 1422 4750 
L 1778 4750 
L 1778 3572 
L 2828 4206 
L 3009 3897 
z
" transform="scale(0.015625)"/>
       <path id="DejaVuSans-2f" d="M 1625 4666 
L 2156 4666 
L 531 -594 
L 0 -594 
L 1625 4666 
z
" transform="scale(0.015625)"/>
       <path id="DejaVuSans-45" d="M 628 4666 
L 3578 4666 
L 3578 4134 
L 1259 4134 
L 1259 2753 
L 3481 2753 
L 3481 2222 
L 1259 2222 
L 1259 531 
L 3634 531 
L 3634 0 
L 628 0 
L 628 4666 
z
" transform="scale(0.015625)"/>
      </defs>
      <use xlink:href="#DejaVuSans-42"/>
      <use xlink:href="#DejaVuSans-41" x="68.603516"/>
      <use xlink:href="#DejaVuSans-2e" x="135.261719"/>
      <use xlink:href="#DejaVuSans-34" x="167.048828"/>
      <use xlink:href="#DejaVuSans-2a" x="230.671875"/>
      <use xlink:href="#DejaVuSans-2f" x="280.671875"/>
      <use xlink:href="#DejaVuSans-42" x="314.363281"/>
      <use xlink:href="#DejaVuSans-45" x="382.966797"/>
      <use xlink:href="#DejaVuSans-2e" x="446.150391"/>
      <use xlink:href="#DejaVuSans-31" x="477.9375"/>
      <use xlink:href="#DejaVuSans-2e" x="541.560547"/>
      <use xlink:href="#DejaVuSans-31" x="573.347656"/>
      <use xlink:href="#DejaVuSans-2a" x="636.970703"/>
      <use xlink:href="#DejaVuSans-2f" x="686.970703"/>
      <use xlink:href="#DejaVuSans-42" x="720.662109"/>
      <use xlink:href="#DejaVuSans-41" x="789.265625"/>
      <use xlink:href="#DejaVuSans-2e" x="855.923828"/>
      <use xlink:href="#DejaVuSans-35" x="887.710938"/>
      <use xlink:href="#DejaVuSans-2a" x="951.333984"/>
     </g>
    </g>
   </g>
  </g>
  <g id="axes_2">
   <g id="matplotlib.axis_3">
    <g id="ytick_10">
     <g id="line2d_25">
      <defs>
       <path id="m95a43653f8" d="M 0 0 
L 3.5 0 
" style="stroke: #000000; stroke-width: 0.8"/>
      </defs>
      <g>
       <use xlink:href="#m95a43653f8" x="940.074841" y="388.78619" style="stroke: #000000; stroke-width: 0.8"/>
      </g>
     </g>
     <g id="text_26">
      <!-- −0.25 -->
      <g transform="translate(947.074841 396.384627) scale(0.2 -0.2)">
       <use xlink:href="#DejaVuSans-2212"/>
       <use xlink:href="#DejaVuSans-30" x="83.789062"/>
       <use xlink:href="#DejaVuSans-2e" x="147.412109"/>
       <use xlink:href="#DejaVuSans-32" x="179.199219"/>
       <use xlink:href="#DejaVuSans-35" x="242.822266"/>
      </g>
     </g>
    </g>
    <g id="ytick_11">
     <g id="line2d_26">
      <g>
       <use xlink:href="#m95a43653f8" x="940.074841" y="342.037721" style="stroke: #000000; stroke-width: 0.8"/>
      </g>
     </g>
     <g id="text_27">
      <!-- −0.20 -->
      <g transform="translate(947.074841 349.636158) scale(0.2 -0.2)">
       <use xlink:href="#DejaVuSans-2212"/>
       <use xlink:href="#DejaVuSans-30" x="83.789062"/>
       <use xlink:href="#DejaVuSans-2e" x="147.412109"/>
       <use xlink:href="#DejaVuSans-32" x="179.199219"/>
       <use xlink:href="#DejaVuSans-30" x="242.822266"/>
      </g>
     </g>
    </g>
    <g id="ytick_12">
     <g id="line2d_27">
      <g>
       <use xlink:href="#m95a43653f8" x="940.074841" y="295.289252" style="stroke: #000000; stroke-width: 0.8"/>
      </g>
     </g>
     <g id="text_28">
      <!-- −0.15 -->
      <g transform="translate(947.074841 302.887689) scale(0.2 -0.2)">
       <use xlink:href="#DejaVuSans-2212"/>
       <use xlink:href="#DejaVuSans-30" x="83.789062"/>
       <use xlink:href="#DejaVuSans-2e" x="147.412109"/>
       <use xlink:href="#DejaVuSans-31" x="179.199219"/>
       <use xlink:href="#DejaVuSans-35" x="242.822266"/>
      </g>
     </g>
    </g>
    <g id="ytick_13">
     <g id="line2d_28">
      <g>
       <use xlink:href="#m95a43653f8" x="940.074841" y="248.540783" style="stroke: #000000; stroke-width: 0.8"/>
      </g>
     </g>
     <g id="text_29">
      <!-- −0.10 -->
      <g transform="translate(947.074841 256.13922) scale(0.2 -0.2)">
       <use xlink:href="#DejaVuSans-2212"/>
       <use xlink:href="#DejaVuSans-30" x="83.789062"/>
       <use xlink:href="#DejaVuSans-2e" x="147.412109"/>
       <use xlink:href="#DejaVuSans-31" x="179.199219"/>
       <use xlink:href="#DejaVuSans-30" x="242.822266"/>
      </g>
     </g>
    </g>
    <g id="ytick_14">
     <g id="line2d_29">
      <g>
       <use xlink:href="#m95a43653f8" x="940.074841" y="201.792314" style="stroke: #000000; stroke-width: 0.8"/>
      </g>
     </g>
     <g id="text_30">
      <!-- −0.05 -->
      <g transform="translate(947.074841 209.390751) scale(0.2 -0.2)">
       <use xlink:href="#DejaVuSans-2212"/>
       <use xlink:href="#DejaVuSans-30" x="83.789062"/>
       <use xlink:href="#DejaVuSans-2e" x="147.412109"/>
       <use xlink:href="#DejaVuSans-30" x="179.199219"/>
       <use xlink:href="#DejaVuSans-35" x="242.822266"/>
      </g>
     </g>
    </g>
    <g id="ytick_15">
     <g id="line2d_30">
      <g>
       <use xlink:href="#m95a43653f8" x="940.074841" y="155.043845" style="stroke: #000000; stroke-width: 0.8"/>
      </g>
     </g>
     <g id="text_31">
      <!-- 0.00 -->
      <g transform="translate(947.074841 162.642282) scale(0.2 -0.2)">
       <use xlink:href="#DejaVuSans-30"/>
       <use xlink:href="#DejaVuSans-2e" x="63.623047"/>
       <use xlink:href="#DejaVuSans-30" x="95.410156"/>
       <use xlink:href="#DejaVuSans-30" x="159.033203"/>
      </g>
     </g>
    </g>
    <g id="ytick_16">
     <g id="line2d_31">
      <g>
       <use xlink:href="#m95a43653f8" x="940.074841" y="108.295376" style="stroke: #000000; stroke-width: 0.8"/>
      </g>
     </g>
     <g id="text_32">
      <!-- 0.05 -->
      <g transform="translate(947.074841 115.893813) scale(0.2 -0.2)">
       <use xlink:href="#DejaVuSans-30"/>
       <use xlink:href="#DejaVuSans-2e" x="63.623047"/>
       <use xlink:href="#DejaVuSans-30" x="95.410156"/>
       <use xlink:href="#DejaVuSans-35" x="159.033203"/>
      </g>
     </g>
    </g>
    <g id="ytick_17">
     <g id="line2d_32">
      <g>
       <use xlink:href="#m95a43653f8" x="940.074841" y="61.546907" style="stroke: #000000; stroke-width: 0.8"/>
      </g>
     </g>
     <g id="text_33">
      <!-- 0.10 -->
      <g transform="translate(947.074841 69.145344) scale(0.2 -0.2)">
       <use xlink:href="#DejaVuSans-30"/>
       <use xlink:href="#DejaVuSans-2e" x="63.623047"/>
       <use xlink:href="#DejaVuSans-31" x="95.410156"/>
       <use xlink:href="#DejaVuSans-30" x="159.033203"/>
      </g>
     </g>
    </g>
    <g id="ytick_18">
     <g id="line2d_33">
      <g>
       <use xlink:href="#m95a43653f8" x="940.074841" y="14.798437" style="stroke: #000000; stroke-width: 0.8"/>
      </g>
     </g>
     <g id="text_34">
      <!-- 0.15 -->
      <g transform="translate(947.074841 22.396875) scale(0.2 -0.2)">
       <use xlink:href="#DejaVuSans-30"/>
       <use xlink:href="#DejaVuSans-2e" x="63.623047"/>
       <use xlink:href="#DejaVuSans-31" x="95.410156"/>
       <use xlink:href="#DejaVuSans-35" x="159.033203"/>
      </g>
     </g>
    </g>
    <g id="text_35">
     <!-- Change in proportion $\gamma_{prop}$ -->
     <g transform="translate(1027.565466 334.927387) rotate(-90) scale(0.2 -0.2)">
      <defs>
       <path id="DejaVuSans-43" d="M 4122 4306 
L 4122 3641 
Q 3803 3938 3442 4084 
Q 3081 4231 2675 4231 
Q 1875 4231 1450 3742 
Q 1025 3253 1025 2328 
Q 1025 1406 1450 917 
Q 1875 428 2675 428 
Q 3081 428 3442 575 
Q 3803 722 4122 1019 
L 4122 359 
Q 3791 134 3420 21 
Q 3050 -91 2638 -91 
Q 1578 -91 968 557 
Q 359 1206 359 2328 
Q 359 3453 968 4101 
Q 1578 4750 2638 4750 
Q 3056 4750 3426 4639 
Q 3797 4528 4122 4306 
z
" transform="scale(0.015625)"/>
       <path id="DejaVuSans-68" d="M 3513 2113 
L 3513 0 
L 2938 0 
L 2938 2094 
Q 2938 2591 2744 2837 
Q 2550 3084 2163 3084 
Q 1697 3084 1428 2787 
Q 1159 2491 1159 1978 
L 1159 0 
L 581 0 
L 581 4863 
L 1159 4863 
L 1159 2956 
Q 1366 3272 1645 3428 
Q 1925 3584 2291 3584 
Q 2894 3584 3203 3211 
Q 3513 2838 3513 2113 
z
" transform="scale(0.015625)"/>
       <path id="DejaVuSans-67" d="M 2906 1791 
Q 2906 2416 2648 2759 
Q 2391 3103 1925 3103 
Q 1463 3103 1205 2759 
Q 947 2416 947 1791 
Q 947 1169 1205 825 
Q 1463 481 1925 481 
Q 2391 481 2648 825 
Q 2906 1169 2906 1791 
z
M 3481 434 
Q 3481 -459 3084 -895 
Q 2688 -1331 1869 -1331 
Q 1566 -1331 1297 -1286 
Q 1028 -1241 775 -1147 
L 775 -588 
Q 1028 -725 1275 -790 
Q 1522 -856 1778 -856 
Q 2344 -856 2625 -561 
Q 2906 -266 2906 331 
L 2906 616 
Q 2728 306 2450 153 
Q 2172 0 1784 0 
Q 1141 0 747 490 
Q 353 981 353 1791 
Q 353 2603 747 3093 
Q 1141 3584 1784 3584 
Q 2172 3584 2450 3431 
Q 2728 3278 2906 2969 
L 2906 3500 
L 3481 3500 
L 3481 434 
z
" transform="scale(0.015625)"/>
       <path id="DejaVuSans-70" d="M 1159 525 
L 1159 -1331 
L 581 -1331 
L 581 3500 
L 1159 3500 
L 1159 2969 
Q 1341 3281 1617 3432 
Q 1894 3584 2278 3584 
Q 2916 3584 3314 3078 
Q 3713 2572 3713 1747 
Q 3713 922 3314 415 
Q 2916 -91 2278 -91 
Q 1894 -91 1617 61 
Q 1341 213 1159 525 
z
M 3116 1747 
Q 3116 2381 2855 2742 
Q 2594 3103 2138 3103 
Q 1681 3103 1420 2742 
Q 1159 2381 1159 1747 
Q 1159 1113 1420 752 
Q 1681 391 2138 391 
Q 2594 391 2855 752 
Q 3116 1113 3116 1747 
z
" transform="scale(0.015625)"/>
       <path id="DejaVuSans-72" d="M 2631 2963 
Q 2534 3019 2420 3045 
Q 2306 3072 2169 3072 
Q 1681 3072 1420 2755 
Q 1159 2438 1159 1844 
L 1159 0 
L 581 0 
L 581 3500 
L 1159 3500 
L 1159 2956 
Q 1341 3275 1631 3429 
Q 1922 3584 2338 3584 
Q 2397 3584 2469 3576 
Q 2541 3569 2628 3553 
L 2631 2963 
z
" transform="scale(0.015625)"/>
       <path id="DejaVuSans-6f" d="M 1959 3097 
Q 1497 3097 1228 2736 
Q 959 2375 959 1747 
Q 959 1119 1226 758 
Q 1494 397 1959 397 
Q 2419 397 2687 759 
Q 2956 1122 2956 1747 
Q 2956 2369 2687 2733 
Q 2419 3097 1959 3097 
z
M 1959 3584 
Q 2709 3584 3137 3096 
Q 3566 2609 3566 1747 
Q 3566 888 3137 398 
Q 2709 -91 1959 -91 
Q 1206 -91 779 398 
Q 353 888 353 1747 
Q 353 2609 779 3096 
Q 1206 3584 1959 3584 
z
" transform="scale(0.015625)"/>
       <path id="DejaVuSans-Oblique-70" d="M 3175 2156 
Q 3175 2616 2975 2859 
Q 2775 3103 2400 3103 
Q 2144 3103 1911 2972 
Q 1678 2841 1497 2591 
Q 1319 2344 1212 1994 
Q 1106 1644 1106 1300 
Q 1106 863 1306 627 
Q 1506 391 1875 391 
Q 2147 391 2380 519 
Q 2613 647 2778 891 
Q 2956 1147 3065 1494 
Q 3175 1841 3175 2156 
z
M 1394 2969 
Q 1625 3272 1939 3428 
Q 2253 3584 2638 3584 
Q 3175 3584 3472 3232 
Q 3769 2881 3769 2247 
Q 3769 1728 3584 1258 
Q 3400 788 3053 416 
Q 2822 169 2531 39 
Q 2241 -91 1919 -91 
Q 1547 -91 1294 64 
Q 1041 219 916 525 
L 556 -1331 
L -19 -1331 
L 922 3500 
L 1497 3500 
L 1394 2969 
z
" transform="scale(0.015625)"/>
       <path id="DejaVuSans-Oblique-72" d="M 2853 2969 
Q 2766 3016 2653 3041 
Q 2541 3066 2413 3066 
Q 1953 3066 1609 2717 
Q 1266 2369 1153 1784 
L 800 0 
L 225 0 
L 909 3500 
L 1484 3500 
L 1375 2956 
Q 1603 3259 1920 3421 
Q 2238 3584 2597 3584 
Q 2691 3584 2781 3573 
Q 2872 3563 2963 3538 
L 2853 2969 
z
" transform="scale(0.015625)"/>
       <path id="DejaVuSans-Oblique-6f" d="M 1625 -91 
Q 1009 -91 651 289 
Q 294 669 294 1325 
Q 294 1706 417 2101 
Q 541 2497 738 2766 
Q 1047 3184 1428 3384 
Q 1809 3584 2291 3584 
Q 2888 3584 3255 3212 
Q 3622 2841 3622 2241 
Q 3622 1825 3500 1412 
Q 3378 1000 3181 728 
Q 2875 309 2494 109 
Q 2113 -91 1625 -91 
z
M 891 1344 
Q 891 869 1089 633 
Q 1288 397 1691 397 
Q 2269 397 2648 901 
Q 3028 1406 3028 2181 
Q 3028 2634 2825 2865 
Q 2622 3097 2228 3097 
Q 1903 3097 1650 2945 
Q 1397 2794 1197 2484 
Q 1050 2253 970 1956 
Q 891 1659 891 1344 
z
" transform="scale(0.015625)"/>
      </defs>
      <use xlink:href="#DejaVuSans-43" transform="translate(0 0.015625)"/>
      <use xlink:href="#DejaVuSans-68" transform="translate(69.824219 0.015625)"/>
      <use xlink:href="#DejaVuSans-61" transform="translate(133.203125 0.015625)"/>
      <use xlink:href="#DejaVuSans-6e" transform="translate(194.482422 0.015625)"/>
      <use xlink:href="#DejaVuSans-67" transform="translate(257.861328 0.015625)"/>
      <use xlink:href="#DejaVuSans-65" transform="translate(321.337891 0.015625)"/>
      <use xlink:href="#DejaVuSans-20" transform="translate(382.861328 0.015625)"/>
      <use xlink:href="#DejaVuSans-69" transform="translate(414.648438 0.015625)"/>
      <use xlink:href="#DejaVuSans-6e" transform="translate(442.431641 0.015625)"/>
      <use xlink:href="#DejaVuSans-20" transform="translate(505.810547 0.015625)"/>
      <use xlink:href="#DejaVuSans-70" transform="translate(537.597656 0.015625)"/>
      <use xlink:href="#DejaVuSans-72" transform="translate(601.074219 0.015625)"/>
      <use xlink:href="#DejaVuSans-6f" transform="translate(642.1875 0.015625)"/>
      <use xlink:href="#DejaVuSans-70" transform="translate(703.369141 0.015625)"/>
      <use xlink:href="#DejaVuSans-6f" transform="translate(766.845703 0.015625)"/>
      <use xlink:href="#DejaVuSans-72" transform="translate(828.027344 0.015625)"/>
      <use xlink:href="#DejaVuSans-74" transform="translate(869.140625 0.015625)"/>
      <use xlink:href="#DejaVuSans-69" transform="translate(908.349609 0.015625)"/>
      <use xlink:href="#DejaVuSans-6f" transform="translate(936.132812 0.015625)"/>
      <use xlink:href="#DejaVuSans-6e" transform="translate(997.314453 0.015625)"/>
      <use xlink:href="#DejaVuSans-20" transform="translate(1060.693359 0.015625)"/>
      <use xlink:href="#DejaVuSans-Oblique-3b3" transform="translate(1092.480469 0.015625)"/>
      <use xlink:href="#DejaVuSans-Oblique-70" transform="translate(1151.660156 -16.390625) scale(0.7)"/>
      <use xlink:href="#DejaVuSans-Oblique-72" transform="translate(1196.09375 -16.390625) scale(0.7)"/>
      <use xlink:href="#DejaVuSans-Oblique-6f" transform="translate(1224.873047 -16.390625) scale(0.7)"/>
      <use xlink:href="#DejaVuSans-Oblique-70" transform="translate(1267.700195 -16.390625) scale(0.7)"/>
     </g>
    </g>
   </g>
   <g id="line2d_34">
    <path d="M 252.625273 52.998652 
L 255.037377 70.827204 
L 257.44948 51.427662 
L 259.861584 57.786066 
L 262.273688 61.814517 
L 264.685792 68.274081 
L 267.097895 38.293211 
L 269.509999 18.635966 
L 271.922103 65.252329 
L 274.334207 33.180941 
L 276.74631 47.643787 
L 279.158414 53.492804 
L 281.570518 43.12332 
L 283.982622 55.392542 
L 286.394725 78.838307 
L 288.806829 77.120532 
L 291.218933 70.622 
L 293.631037 76.365302 
L 296.04314 83.59405 
L 298.455244 77.912207 
L 300.867348 89.916894 
L 303.279452 91.866929 
L 305.691555 106.766415 
L 308.103659 102.032541 
L 310.515763 111.051252 
L 312.927867 117.172683 
L 315.33997 120.401876 
L 317.752074 125.180422 
L 320.164178 128.641772 
L 322.576282 123.668925 
L 324.988385 122.827529 
L 327.400489 128.025432 
L 329.812593 135.118883 
L 332.224697 134.417435 
L 334.6368 141.921456 
L 337.048904 141.215296 
L 339.461008 143.683337 
L 341.873112 139.707886 
L 344.285215 142.526543 
L 346.697319 146.7272 
L 349.109423 145.008757 
L 351.521527 143.084759 
L 353.93363 146.665057 
L 356.345734 146.813149 
L 358.757838 146.61417 
L 361.169942 155.290918 
L 363.582045 152.319348 
L 365.994149 151.269518 
L 368.406253 152.116694 
L 370.818357 150.324096 
L 373.23046 150.652844 
L 375.642564 154.01061 
L 378.054668 158.477985 
L 380.466772 159.04688 
L 382.878875 155.64831 
L 385.290979 155.021613 
L 387.703083 158.545593 
L 390.115187 157.769647 
L 392.52729 154.868084 
L 394.939394 158.280707 
L 397.351498 155.292321 
L 399.763602 158.173616 
L 402.175705 157.646187 
L 404.587809 157.951431 
L 406.999913 160.446347 
L 409.412016 158.880769 
L 411.82412 158.041849 
L 414.236224 158.478458 
L 416.648328 158.441906 
L 419.060431 155.614002 
L 421.472535 158.638066 
L 423.884639 158.711613 
L 426.296743 158.589716 
L 428.708846 162.889993 
L 431.12095 157.769994 
L 433.533054 159.584316 
L 435.945158 160.173158 
L 438.357261 157.532744 
L 440.769365 160.993063 
L 443.181469 160.389706 
L 445.593573 162.003588 
L 448.005676 159.582581 
L 450.41778 161.273339 
L 452.829884 164.25225 
L 455.241988 164.202714 
L 457.654091 162.283905 
L 460.066195 161.771894 
L 462.478299 164.411172 
L 464.890403 160.64304 
L 467.302506 166.871623 
L 469.71461 164.016001 
L 472.126714 162.686464 
L 474.538818 166.671618 
L 476.950921 162.167636 
L 479.363025 161.782525 
L 481.775129 160.260987 
L 484.187233 165.163337 
L 486.599336 160.981775 
L 489.01144 155.57063 
L 491.423544 162.962279 
L 493.835648 162.905533 
L 496.247751 163.546412 
L 498.659855 162.378535 
L 501.071959 161.831378 
L 503.484063 160.741633 
L 505.896166 162.537987 
L 508.30827 164.090367 
L 510.720374 165.938343 
L 513.132478 166.837369 
L 515.544581 165.647041 
L 517.956685 167.035323 
L 520.368789 166.240621 
L 522.780893 162.765267 
L 525.192996 166.158214 
L 527.6051 163.162097 
L 530.017204 162.396899 
L 532.429308 161.201946 
L 534.841411 161.679071 
L 537.253515 165.726805 
L 539.665619 166.155738 
L 542.077723 164.285984 
L 544.489826 156.303299 
L 546.90193 159.6934 
L 549.314034 160.292295 
L 551.726138 160.682453 
L 554.138241 164.416415 
L 556.550345 162.392704 
L 558.962449 161.214943 
L 561.374553 160.623707 
L 563.786656 168.551689 
L 566.19876 161.210942 
L 568.610864 169.470262 
L 571.022967 158.74225 
L 573.435071 162.288043 
L 575.847175 162.635219 
L 578.259279 167.564149 
L 580.671382 172.223295 
L 583.083486 162.15339 
L 585.49559 166.993865 
L 587.907694 172.536424 
L 590.319797 169.340146 
L 592.731901 162.961016 
L 595.144005 173.216412 
L 597.556109 168.527533 
L 599.968212 164.804676 
L 602.380316 170.891397 
L 604.79242 162.593979 
L 607.204524 171.773206 
L 609.616627 171.301846 
L 612.028731 170.691768 
L 614.440835 168.838855 
L 616.852939 167.507004 
L 619.265042 167.732119 
L 621.677146 158.788772 
L 624.08925 162.0709 
L 626.501354 157.702709 
L 628.913457 176.310999 
L 631.325561 172.366755 
L 633.737665 177.956629 
L 636.149769 167.677997 
L 638.561872 188.774679 
L 640.973976 176.475386 
L 643.38608 179.542916 
L 645.798184 177.212167 
L 648.210287 170.545507 
L 650.622391 167.111891 
L 653.034495 173.248696 
L 655.446599 194.086575 
L 657.858702 195.504998 
L 660.270806 179.125753 
L 662.68291 189.542832 
L 665.095014 166.978276 
L 667.507117 166.769067 
L 669.919221 179.12324 
L 672.331325 174.11812 
L 674.743429 172.315504 
L 677.155532 184.686189 
L 679.567636 165.688148 
L 681.97974 176.055777 
L 684.391844 178.096223 
L 686.803947 182.602314 
L 689.216051 189.974706 
L 691.628155 179.630584 
L 694.040259 170.572468 
L 696.452362 192.597118 
L 698.864466 179.53128 
L 701.27657 191.156336 
L 703.688674 188.138214 
L 706.100777 165.647052 
L 708.512881 203.052512 
L 710.924985 160.920143 
L 713.337089 179.276273 
L 715.749192 202.657172 
L 718.161296 183.439172 
L 720.5734 189.474105 
L 722.985504 200.886471 
L 725.397607 186.468691 
L 727.809711 158.174439 
L 730.221815 188.856855 
L 732.633919 168.340573 
L 735.046022 177.450142 
L 737.458126 173.198386 
L 739.87023 200.137412 
L 742.282333 201.559303 
L 744.694437 164.860681 
L 747.106541 184.687105 
L 749.518645 174.58564 
L 751.930748 191.703176 
L 754.342852 180.533391 
L 756.754956 177.205223 
L 759.16706 173.021451 
L 761.579163 178.042891 
L 763.991267 190.297732 
L 766.403371 177.203115 
L 768.815475 168.113221 
L 771.227578 187.020199 
L 773.639682 203.607539 
L 776.051786 156.730773 
L 778.46389 180.650448 
L 780.875993 187.339806 
L 783.288097 191.990294 
L 785.700201 185.72107 
L 788.112305 155.834303 
L 790.524408 180.003762 
L 790.524408 180.003762 
" clip-path="url(#p1a5c89d118)" style="fill: none; stroke: #146c00; stroke-width: 4; stroke-linecap: square"/>
   </g>
   <g id="patch_9">
    <path d="M 103.074841 397.467387 
L 103.074841 9.387387 
" style="fill: none; stroke: #000000; stroke-width: 0.8; stroke-linejoin: miter; stroke-linecap: square"/>
   </g>
   <g id="patch_10">
    <path d="M 940.074841 397.467387 
L 940.074841 9.387387 
" style="fill: none; stroke: #000000; stroke-width: 0.8; stroke-linejoin: miter; stroke-linecap: square"/>
   </g>
   <g id="patch_11">
    <path d="M 103.074841 397.467387 
L 940.074841 397.467387 
" style="fill: none; stroke: #000000; stroke-width: 0.8; stroke-linejoin: miter; stroke-linecap: square"/>
   </g>
   <g id="patch_12">
    <path d="M 103.074841 9.387387 
L 940.074841 9.387387 
" style="fill: none; stroke: #000000; stroke-width: 0.8; stroke-linejoin: miter; stroke-linecap: square"/>
   </g>
   <g id="legend_2">
    <g id="patch_13">
     <path d="M 1111.474841 397.467387 
L 1375.740466 397.467387 
Q 1379.740466 397.467387 1379.740466 393.467387 
L 1379.740466 366.111137 
Q 1379.740466 362.111137 1375.740466 362.111137 
L 1111.474841 362.111137 
Q 1107.474841 362.111137 1107.474841 366.111137 
L 1107.474841 393.467387 
Q 1107.474841 397.467387 1111.474841 397.467387 
z
" style="fill: #ffffff; opacity: 0.8; stroke: #cccccc; stroke-linejoin: miter"/>
    </g>
    <g id="line2d_35">
     <path d="M 1115.474841 378.308012 
L 1135.474841 378.308012 
L 1155.474841 378.308012 
" style="fill: none; stroke: #146c00; stroke-width: 4; stroke-linecap: square"/>
    </g>
    <g id="text_36">
     <!-- BA.4*/BE.1.1*/BA.5* -->
     <g transform="translate(1171.474841 385.308012) scale(0.2 -0.2)">
      <use xlink:href="#DejaVuSans-42"/>
      <use xlink:href="#DejaVuSans-41" x="68.603516"/>
      <use xlink:href="#DejaVuSans-2e" x="135.261719"/>
      <use xlink:href="#DejaVuSans-34" x="167.048828"/>
      <use xlink:href="#DejaVuSans-2a" x="230.671875"/>
      <use xlink:href="#DejaVuSans-2f" x="280.671875"/>
      <use xlink:href="#DejaVuSans-42" x="314.363281"/>
      <use xlink:href="#DejaVuSans-45" x="382.966797"/>
      <use xlink:href="#DejaVuSans-2e" x="446.150391"/>
      <use xlink:href="#DejaVuSans-31" x="477.9375"/>
      <use xlink:href="#DejaVuSans-2e" x="541.560547"/>
      <use xlink:href="#DejaVuSans-31" x="573.347656"/>
      <use xlink:href="#DejaVuSans-2a" x="636.970703"/>
      <use xlink:href="#DejaVuSans-2f" x="686.970703"/>
      <use xlink:href="#DejaVuSans-42" x="720.662109"/>
      <use xlink:href="#DejaVuSans-41" x="789.265625"/>
      <use xlink:href="#DejaVuSans-2e" x="855.923828"/>
      <use xlink:href="#DejaVuSans-35" x="887.710938"/>
      <use xlink:href="#DejaVuSans-2a" x="951.333984"/>
     </g>
    </g>
   </g>
  </g>
 </g>
 <defs>
  <clipPath id="p1a5c89d118">
   <rect x="103.074841" y="9.387387" width="837" height="388.08"/>
  </clipPath>
 </defs>
</svg>
