<?xml version="1.0" encoding="utf-8" standalone="no"?>
<!DOCTYPE svg PUBLIC "-//W3C//DTD SVG 1.1//EN"
  "http://www.w3.org/Graphics/SVG/1.1/DTD/svg11.dtd">
<svg xmlns:xlink="http://www.w3.org/1999/xlink" width="1316.135pt" height="790.56pt" viewBox="0 0 1316.135 790.56" xmlns="http://www.w3.org/2000/svg" version="1.1">
 <metadata>
  <rdf:RDF xmlns:dc="http://purl.org/dc/elements/1.1/" xmlns:cc="http://creativecommons.org/ns#" xmlns:rdf="http://www.w3.org/1999/02/22-rdf-syntax-ns#">
   <cc:Work>
    <dc:type rdf:resource="http://purl.org/dc/dcmitype/StillImage"/>
    <dc:date>2024-07-25T20:24:31.050347</dc:date>
    <dc:format>image/svg+xml</dc:format>
    <dc:creator>
     <cc:Agent>
      <dc:title>Matplotlib v3.7.2, https://matplotlib.org/</dc:title>
     </cc:Agent>
    </dc:creator>
   </cc:Work>
  </rdf:RDF>
 </metadata>
 <defs>
  <style type="text/css">*{stroke-linejoin: round; stroke-linecap: butt}</style>
 </defs>
 <g id="figure_1">
  <g id="patch_1">
   <path d="M 0 790.56 
L 1316.135 790.56 
L 1316.135 0 
L 0 0 
z
" style="fill: #ffffff"/>
  </g>
  <g id="axes_1">
   <g id="patch_2">
    <path d="M 245.24 395.28 
L 1082.24 395.28 
L 1082.24 7.2 
L 245.24 7.2 
z
" style="fill: #ffffff"/>
   </g>
   <g id="PolyCollection_1">
    <defs>
     <path id="m53c6dbc901" d="M 245.24 -747.346934 
L 245.24 -746.93316 
L 247.611105 -746.853404 
L 249.98221 -746.768725 
L 252.353314 -746.684613 
L 254.724419 -746.602407 
L 257.095524 -746.516758 
L 259.466629 -746.429807 
L 261.837734 -746.344756 
L 264.208839 -746.259054 
L 266.579943 -746.171916 
L 268.951048 -746.083096 
L 271.322153 -745.998562 
L 273.693258 -745.913679 
L 276.064363 -745.827237 
L 278.435467 -745.743061 
L 280.806572 -745.657623 
L 283.177677 -745.578999 
L 285.548782 -745.498065 
L 287.919887 -745.416843 
L 290.290992 -745.337308 
L 292.662096 -745.26002 
L 295.033201 -745.186716 
L 297.404306 -745.117615 
L 299.775411 -745.042686 
L 302.146516 -744.974253 
L 304.51762 -744.906469 
L 306.888725 -744.841784 
L 309.25983 -744.770864 
L 311.630935 -744.710553 
L 314.00204 -744.647711 
L 316.373144 -744.582641 
L 318.744249 -744.520237 
L 321.115354 -744.459205 
L 323.486459 -744.397281 
L 325.857564 -744.33578 
L 328.228669 -744.276869 
L 330.599773 -744.217725 
L 332.970878 -744.158404 
L 335.341983 -744.103637 
L 337.713088 -744.042744 
L 340.084193 -743.989243 
L 342.455297 -743.93485 
L 344.826402 -743.877324 
L 347.197507 -743.821399 
L 349.568612 -743.769725 
L 351.939717 -743.71657 
L 354.310822 -743.661612 
L 356.681926 -743.616056 
L 359.053031 -743.574967 
L 361.424136 -743.521993 
L 363.795241 -743.475184 
L 366.166346 -743.436064 
L 368.53745 -743.396496 
L 370.908555 -743.351817 
L 373.27966 -743.308999 
L 375.650765 -743.273586 
L 378.02187 -743.235972 
L 380.392975 -743.195245 
L 382.764079 -743.159559 
L 385.135184 -743.122724 
L 387.506289 -743.092784 
L 389.877394 -743.058193 
L 392.248499 -743.026492 
L 394.619603 -742.995062 
L 396.990708 -742.966597 
L 399.361813 -742.932839 
L 401.732918 -742.909192 
L 404.104023 -742.873214 
L 406.475127 -742.84976 
L 408.846232 -742.827459 
L 411.217337 -742.792167 
L 413.588442 -742.763185 
L 415.959547 -742.737786 
L 418.330652 -742.715901 
L 420.701756 -742.687989 
L 423.072861 -742.660383 
L 425.443966 -742.638222 
L 427.815071 -742.6195 
L 430.186176 -742.594585 
L 432.55728 -742.568179 
L 434.928385 -742.551773 
L 437.29949 -742.529957 
L 439.670595 -742.519915 
L 442.0417 -742.516905 
L 444.412805 -742.489391 
L 446.783909 -742.45798 
L 449.155014 -742.464368 
L 451.526119 -742.461943 
L 453.897224 -742.432403 
L 456.268329 -742.415841 
L 458.639433 -742.415712 
L 461.010538 -742.383099 
L 463.381643 -742.372187 
L 465.752748 -742.367313 
L 468.123853 -742.378321 
L 470.494958 -742.381844 
L 472.866062 -742.380222 
L 475.237167 -742.355072 
L 477.608272 -742.332918 
L 479.979377 -742.339 
L 482.350482 -742.362426 
L 484.721586 -742.327769 
L 487.092691 -742.318824 
L 489.463796 -742.325038 
L 491.834901 -742.407361 
L 494.206006 -742.367158 
L 496.57711 -742.29132 
L 498.948215 -742.324033 
L 501.31932 -742.32643 
L 503.690425 -742.332109 
L 506.06153 -742.373506 
L 508.432635 -742.409281 
L 510.803739 -742.474007 
L 513.174844 -742.391626 
L 515.545949 -742.364545 
L 517.917054 -742.447544 
L 520.288159 -742.445738 
L 522.659263 -742.528112 
L 525.030368 -742.550398 
L 527.401473 -742.628611 
L 529.772578 -742.656738 
L 532.143683 -742.647988 
L 534.514788 -742.70279 
L 536.885892 -742.577685 
L 539.256997 -742.734195 
L 541.628102 -742.828713 
L 543.999207 -742.843249 
L 546.370312 -742.943506 
L 548.741416 -743.038247 
L 551.112521 -742.988916 
L 553.483626 -743.01541 
L 555.854731 -743.077916 
L 558.225836 -743.108488 
L 560.596941 -743.156475 
L 562.968045 -743.191233 
L 565.33915 -743.238275 
L 567.710255 -743.171687 
L 570.08136 -743.120721 
L 572.452465 -743.191057 
L 574.823569 -743.279126 
L 577.194674 -743.284553 
L 579.565779 -743.261269 
L 581.936884 -743.250384 
L 584.307989 -743.246383 
L 586.679093 -743.226557 
L 589.050198 -743.182567 
L 591.421303 -743.17508 
L 593.792408 -743.178878 
L 596.163513 -743.146684 
L 598.534618 -743.127987 
L 600.905722 -743.023107 
L 603.276827 -742.97465 
L 605.647932 -742.90486 
L 608.019037 -742.899964 
L 610.390142 -742.877243 
L 612.761246 -742.822643 
L 615.132351 -742.779552 
L 617.503456 -742.707804 
L 619.874561 -742.630994 
L 622.245666 -742.586188 
L 624.616771 -742.50995 
L 626.987875 -742.437138 
L 629.35898 -742.358627 
L 631.730085 -742.277944 
L 634.10119 -742.189316 
L 636.472295 -742.095453 
L 638.843399 -741.998448 
L 641.214504 -741.925319 
L 643.585609 -741.820411 
L 645.956714 -741.714031 
L 648.327819 -741.629829 
L 650.698924 -741.520586 
L 653.070028 -741.400409 
L 655.441133 -741.280841 
L 657.812238 -741.153519 
L 660.183343 -741.044925 
L 662.554448 -740.911853 
L 664.925552 -740.767643 
L 667.296657 -740.620394 
L 669.667762 -740.473753 
L 672.038867 -740.324627 
L 674.409972 -740.164075 
L 676.781076 -740.001172 
L 679.152181 -739.832313 
L 681.523286 -739.663609 
L 683.894391 -739.500663 
L 686.265496 -739.323779 
L 688.636601 -739.143279 
L 691.007705 -738.973748 
L 693.37881 -738.797199 
L 695.749915 -738.630311 
L 698.12102 -738.461419 
L 700.492125 -738.289063 
L 702.863229 -738.138024 
L 705.234334 -737.980932 
L 707.605439 -737.831911 
L 709.976544 -737.682383 
L 712.347649 -737.548098 
L 714.718754 -737.407201 
L 717.089858 -737.266125 
L 719.460963 -737.156967 
L 721.832068 -737.037014 
L 724.203173 -736.918281 
L 726.574278 -736.799261 
L 728.945382 -736.683849 
L 731.316487 -736.570249 
L 733.687592 -736.456352 
L 736.058697 -736.341683 
L 738.429802 -736.227321 
L 740.800907 -736.114855 
L 743.172011 -735.997001 
L 745.543116 -735.878878 
L 747.914221 -735.763377 
L 750.285326 -735.641874 
L 752.656431 -735.520067 
L 755.027535 -735.396261 
L 757.39864 -735.26861 
L 759.769745 -735.141364 
L 762.14085 -735.007095 
L 764.511955 -734.870976 
L 766.883059 -734.733145 
L 769.254164 -734.592411 
L 771.625269 -734.445788 
L 773.996374 -734.295813 
L 776.367479 -734.140486 
L 778.738584 -733.979532 
L 781.109688 -733.812984 
L 783.480793 -733.639376 
L 785.851898 -733.459801 
L 788.223003 -733.271447 
L 790.594108 -733.076347 
L 792.965212 -732.86963 
L 795.336317 -732.645203 
L 797.707422 -732.443042 
L 800.078527 -732.210907 
L 802.449632 -731.973231 
L 804.820737 -731.728401 
L 807.191841 -731.479369 
L 809.562946 -731.22645 
L 811.934051 -730.971737 
L 814.305156 -730.717119 
L 816.676261 -730.465175 
L 819.047365 -730.214983 
L 821.41847 -729.967136 
L 823.789575 -729.724297 
L 826.16068 -729.484958 
L 828.531785 -729.249465 
L 830.90289 -729.018035 
L 833.273994 -728.787011 
L 835.645099 -728.557163 
L 838.016204 -728.325658 
L 840.387309 -728.092291 
L 842.758414 -727.855977 
L 845.129518 -727.613367 
L 847.500623 -727.366455 
L 849.871728 -727.111784 
L 852.242833 -726.849001 
L 854.613938 -726.578535 
L 856.985042 -726.29832 
L 859.356147 -726.008413 
L 861.727252 -725.708089 
L 864.098357 -725.398789 
L 866.469462 -725.0761 
L 868.840567 -724.735141 
L 871.211671 -724.380536 
L 873.582776 -724.009535 
L 875.953881 -723.617693 
L 878.324986 -723.205319 
L 880.696091 -722.765545 
L 883.067195 -722.302358 
L 885.4383 -721.813954 
L 887.809405 -721.29115 
L 890.18051 -720.741329 
L 892.551615 -720.162228 
L 894.92272 -719.557903 
L 897.293824 -718.928163 
L 899.664929 -718.28253 
L 902.036034 -717.603892 
L 904.407139 -716.916218 
L 906.778244 -716.223923 
L 909.149348 -715.511483 
L 911.520453 -714.80269 
L 913.891558 -714.091956 
L 916.262663 -713.390413 
L 918.633768 -712.682722 
L 921.004873 -711.988224 
L 923.375977 -711.30065 
L 925.747082 -710.621676 
L 928.118187 -709.949699 
L 930.489292 -709.286499 
L 932.860397 -708.632409 
L 935.231501 -707.97291 
L 937.602606 -707.319778 
L 939.973711 -706.672145 
L 942.344816 -706.029551 
L 944.715921 -705.37813 
L 947.087025 -704.738493 
L 949.45813 -704.09054 
L 951.829235 -703.436773 
L 954.20034 -702.788589 
L 956.571445 -702.138801 
L 958.94255 -701.48838 
L 961.313654 -700.836463 
L 963.684759 -700.183144 
L 966.055864 -699.527551 
L 968.426969 -698.864919 
L 970.798074 -698.202896 
L 973.169178 -697.525924 
L 975.540283 -696.852802 
L 977.911388 -696.160043 
L 980.282493 -695.450503 
L 982.653598 -694.742447 
L 985.024703 -694.009624 
L 987.395807 -693.25476 
L 989.766912 -692.497039 
L 992.138017 -691.717259 
L 994.509122 -690.945949 
L 996.880227 -690.154214 
L 999.251331 -689.326288 
L 1001.622436 -688.582011 
L 1003.993541 -687.782497 
L 1006.364646 -687.291111 
L 1008.735751 -685.854192 
L 1011.106856 -685.032652 
L 1013.47796 -684.202748 
L 1015.849065 -683.418138 
L 1018.22017 -682.801981 
L 1020.591275 -682.148629 
L 1022.96238 -681.934524 
L 1025.333484 -680.980231 
L 1027.704589 -681.768005 
L 1030.075694 -682.275585 
L 1032.446799 -682.786515 
L 1034.817904 -685.210304 
L 1037.189008 -691.301767 
L 1039.560113 -690.274704 
L 1041.931218 -697.568809 
L 1044.302323 -702.545964 
L 1046.673428 -708.549745 
L 1049.044533 -714.086747 
L 1051.415637 -711.03661 
L 1053.786742 -714.602209 
L 1056.157847 -720.652999 
L 1058.528952 -722.149244 
L 1060.900057 -722.629907 
L 1063.271161 -724.130153 
L 1065.642266 -725.340427 
L 1068.013371 -723.629926 
L 1070.384476 -726.829611 
L 1072.755581 -725.382522 
L 1075.126686 -726.375321 
L 1077.49779 -725.479388 
L 1079.868895 -726.096598 
L 1082.24 -724.89843 
L 1082.24 -727.563081 
L 1082.24 -727.563081 
L 1079.868895 -728.739939 
L 1077.49779 -728.412331 
L 1075.126686 -729.309005 
L 1072.755581 -728.621182 
L 1070.384476 -729.959709 
L 1068.013371 -727.368968 
L 1065.642266 -728.905591 
L 1063.271161 -727.954649 
L 1060.900057 -726.719406 
L 1058.528952 -726.350502 
L 1056.157847 -725.092523 
L 1053.786742 -719.860067 
L 1051.415637 -716.753834 
L 1049.044533 -719.41533 
L 1046.673428 -714.554483 
L 1044.302323 -709.247375 
L 1041.931218 -704.821596 
L 1039.560113 -698.331212 
L 1037.189008 -699.195379 
L 1034.817904 -693.742463 
L 1032.446799 -691.545941 
L 1030.075694 -691.050762 
L 1027.704589 -690.564113 
L 1025.333484 -689.83048 
L 1022.96238 -690.65527 
L 1020.591275 -690.824092 
L 1018.22017 -691.385137 
L 1015.849065 -691.916428 
L 1013.47796 -692.599338 
L 1011.106856 -693.327903 
L 1008.735751 -694.042397 
L 1006.364646 -695.313261 
L 1003.993541 -695.733487 
L 1001.622436 -696.432808 
L 999.251331 -697.06816 
L 996.880227 -697.780951 
L 994.509122 -698.462776 
L 992.138017 -699.121522 
L 989.766912 -699.792652 
L 987.395807 -700.442971 
L 985.024703 -701.089181 
L 982.653598 -701.71982 
L 980.282493 -702.321414 
L 977.911388 -702.927525 
L 975.540283 -703.516999 
L 973.169178 -704.091858 
L 970.798074 -704.673008 
L 968.426969 -705.235864 
L 966.055864 -705.804067 
L 963.684759 -706.36432 
L 961.313654 -706.921485 
L 958.94255 -707.480577 
L 956.571445 -708.041702 
L 954.20034 -708.603589 
L 951.829235 -709.164347 
L 949.45813 -709.731451 
L 947.087025 -710.295476 
L 944.715921 -710.853445 
L 942.344816 -711.420602 
L 939.973711 -711.984849 
L 937.602606 -712.552313 
L 935.231501 -713.12983 
L 932.860397 -713.711435 
L 930.489292 -714.292294 
L 928.118187 -714.8781 
L 925.747082 -715.479735 
L 923.375977 -716.086068 
L 921.004873 -716.706374 
L 918.633768 -717.333932 
L 916.262663 -717.975557 
L 913.891558 -718.615828 
L 911.520453 -719.26844 
L 909.149348 -719.916473 
L 906.778244 -720.571427 
L 904.407139 -721.211835 
L 902.036034 -721.847307 
L 899.664929 -722.486994 
L 897.293824 -723.077847 
L 894.92272 -723.661046 
L 892.551615 -724.219505 
L 890.18051 -724.758989 
L 887.809405 -725.273109 
L 885.4383 -725.754628 
L 883.067195 -726.207264 
L 880.696091 -726.633319 
L 878.324986 -727.039584 
L 875.953881 -727.413634 
L 873.582776 -727.774315 
L 871.211671 -728.112308 
L 868.840567 -728.435472 
L 866.469462 -728.759011 
L 864.098357 -729.039597 
L 861.727252 -729.322101 
L 859.356147 -729.597723 
L 856.985042 -729.8585 
L 854.613938 -730.115688 
L 852.242833 -730.378985 
L 849.871728 -730.605356 
L 847.500623 -730.833611 
L 845.129518 -731.061291 
L 842.758414 -731.28239 
L 840.387309 -731.501516 
L 838.016204 -731.718817 
L 835.645099 -731.930772 
L 833.273994 -732.145904 
L 830.90289 -732.360586 
L 828.531785 -732.579476 
L 826.16068 -732.799472 
L 823.789575 -733.025355 
L 821.41847 -733.25713 
L 819.047365 -733.496635 
L 816.676261 -733.735003 
L 814.305156 -733.982266 
L 811.934051 -734.232472 
L 809.562946 -734.477857 
L 807.191841 -734.725298 
L 804.820737 -734.972003 
L 802.449632 -735.21493 
L 800.078527 -735.455982 
L 797.707422 -735.684576 
L 795.336317 -736.140721 
L 792.965212 -736.116824 
L 790.594108 -736.32401 
L 788.223003 -736.521975 
L 785.851898 -736.712479 
L 783.480793 -736.897224 
L 781.109688 -737.076966 
L 778.738584 -737.249011 
L 776.367479 -737.411701 
L 773.996374 -737.571742 
L 771.625269 -737.727563 
L 769.254164 -737.879421 
L 766.883059 -738.026508 
L 764.511955 -738.171644 
L 762.14085 -738.31276 
L 759.769745 -738.45062 
L 757.39864 -738.587855 
L 755.027535 -738.721574 
L 752.656431 -738.852606 
L 750.285326 -738.983147 
L 747.914221 -739.11139 
L 745.543116 -739.237384 
L 743.172011 -739.362014 
L 740.800907 -739.485707 
L 738.429802 -739.608982 
L 736.058697 -739.730642 
L 733.687592 -739.853468 
L 731.316487 -739.975678 
L 728.945382 -740.097753 
L 726.574278 -740.220949 
L 724.203173 -740.346017 
L 721.832068 -740.474544 
L 719.460963 -740.603576 
L 717.089858 -740.739156 
L 714.718754 -740.874214 
L 712.347649 -741.014022 
L 709.976544 -741.160031 
L 707.605439 -741.311243 
L 705.234334 -741.469036 
L 702.863229 -741.630341 
L 700.492125 -741.796143 
L 698.12102 -741.967948 
L 695.749915 -742.143019 
L 693.37881 -742.321401 
L 691.007705 -742.501897 
L 688.636601 -742.681634 
L 686.265496 -742.86562 
L 683.894391 -743.047821 
L 681.523286 -743.223899 
L 679.152181 -743.399834 
L 676.781076 -743.574036 
L 674.409972 -743.744013 
L 672.038867 -743.90975 
L 669.667762 -744.067332 
L 667.296657 -744.219646 
L 664.925552 -744.371598 
L 662.554448 -744.519187 
L 660.183343 -744.656632 
L 657.812238 -744.778151 
L 655.441133 -744.907408 
L 653.070028 -745.031026 
L 650.698924 -745.152212 
L 648.327819 -745.26369 
L 645.956714 -745.355109 
L 643.585609 -745.4591 
L 641.214504 -745.564656 
L 638.843399 -745.639678 
L 636.472295 -745.739464 
L 634.10119 -745.834631 
L 631.730085 -745.919207 
L 629.35898 -745.996457 
L 626.987875 -746.073874 
L 624.616771 -746.147513 
L 622.245666 -746.22215 
L 619.874561 -746.26448 
L 617.503456 -746.338856 
L 615.132351 -746.405714 
L 612.761246 -746.44643 
L 610.390142 -746.497387 
L 608.019037 -746.513495 
L 605.647932 -746.4962 
L 603.276827 -746.558165 
L 600.905722 -746.596432 
L 598.534618 -746.710545 
L 596.163513 -746.714166 
L 593.792408 -746.735128 
L 591.421303 -746.709135 
L 589.050198 -746.699498 
L 586.679093 -746.735677 
L 584.307989 -746.743861 
L 581.936884 -746.723783 
L 579.565779 -746.715464 
L 577.194674 -746.727127 
L 574.823569 -746.699348 
L 572.452465 -746.548532 
L 570.08136 -746.423796 
L 567.710255 -746.471494 
L 565.33915 -746.547387 
L 562.968045 -746.452677 
L 560.596941 -746.381418 
L 558.225836 -746.276955 
L 555.854731 -746.205527 
L 553.483626 -746.094732 
L 551.112521 -746.027536 
L 548.741416 -746.080402 
L 546.370312 -745.91119 
L 543.999207 -745.719252 
L 541.628102 -745.667894 
L 539.256997 -745.486842 
L 536.885892 -745.20042 
L 534.514788 -745.379449 
L 532.143683 -745.256763 
L 529.772578 -745.247157 
L 527.401473 -745.167574 
L 525.030368 -744.993449 
L 522.659263 -744.930537 
L 520.288159 -744.751576 
L 517.917054 -744.719686 
L 515.545949 -744.54448 
L 513.174844 -744.559144 
L 510.803739 -744.66766 
L 508.432635 -744.512552 
L 506.06153 -744.415866 
L 503.690425 -744.301126 
L 501.31932 -744.27517 
L 498.948215 -744.216072 
L 496.57711 -744.133336 
L 494.206006 -744.235445 
L 491.834901 -744.255231 
L 489.463796 -744.081377 
L 487.092691 -744.04404 
L 484.721586 -744.021479 
L 482.350482 -744.047709 
L 479.979377 -743.980752 
L 477.608272 -743.932111 
L 475.237167 -743.943042 
L 472.866062 -743.94335 
L 470.494958 -743.920865 
L 468.123853 -743.877158 
L 465.752748 -743.830272 
L 463.381643 -743.807814 
L 461.010538 -743.795964 
L 458.639433 -743.819827 
L 456.268329 -743.789751 
L 453.897224 -743.788105 
L 451.526119 -743.813125 
L 449.155014 -743.787722 
L 446.783909 -743.745668 
L 444.412805 -743.766904 
L 442.0417 -743.778946 
L 439.670595 -743.758199 
L 437.29949 -743.746921 
L 434.928385 -743.752249 
L 432.55728 -743.751257 
L 430.186176 -743.763198 
L 427.815071 -743.773641 
L 425.443966 -743.777261 
L 423.072861 -743.780642 
L 420.701756 -743.796444 
L 418.330652 -743.811901 
L 415.959547 -743.81833 
L 413.588442 -743.828343 
L 411.217337 -743.843041 
L 408.846232 -743.871228 
L 406.475127 -743.878418 
L 404.104023 -743.888044 
L 401.732918 -743.912849 
L 399.361813 -743.921926 
L 396.990708 -743.945579 
L 394.619603 -743.961419 
L 392.248499 -743.981974 
L 389.877394 -744.003206 
L 387.506289 -744.026717 
L 385.135184 -744.044374 
L 382.764079 -744.071533 
L 380.392975 -744.097165 
L 378.02187 -744.130736 
L 375.650765 -744.156167 
L 373.27966 -744.179648 
L 370.908555 -744.213317 
L 368.53745 -744.248235 
L 366.166346 -744.276469 
L 363.795241 -744.30469 
L 361.424136 -744.341915 
L 359.053031 -744.386727 
L 356.681926 -744.41688 
L 354.310822 -744.451418 
L 351.939717 -744.498043 
L 349.568612 -744.542708 
L 347.197507 -744.584845 
L 344.826402 -744.63131 
L 342.455297 -744.680451 
L 340.084193 -744.726041 
L 337.713088 -744.769993 
L 335.341983 -744.822609 
L 332.970878 -744.868218 
L 330.599773 -744.918976 
L 328.228669 -744.969333 
L 325.857564 -745.019682 
L 323.486459 -745.073155 
L 321.115354 -745.12646 
L 318.744249 -745.177944 
L 316.373144 -745.232629 
L 314.00204 -745.28938 
L 311.630935 -745.343005 
L 309.25983 -745.394938 
L 306.888725 -745.458404 
L 304.51762 -745.51444 
L 302.146516 -745.57041 
L 299.775411 -745.629386 
L 297.404306 -745.697572 
L 295.033201 -745.758732 
L 292.662096 -745.824575 
L 290.290992 -745.895885 
L 287.919887 -745.966595 
L 285.548782 -746.037693 
L 283.177677 -746.109855 
L 280.806572 -746.178085 
L 278.435467 -746.2565 
L 276.064363 -746.33131 
L 273.693258 -746.410607 
L 271.322153 -746.486741 
L 268.951048 -746.560428 
L 266.579943 -746.646167 
L 264.208839 -746.724853 
L 261.837734 -746.801514 
L 259.466629 -746.881353 
L 257.095524 -746.960641 
L 254.724419 -747.040064 
L 252.353314 -747.113498 
L 249.98221 -747.19361 
L 247.611105 -747.273607 
L 245.24 -747.346934 
z
" style="stroke: #008000; stroke-opacity: 0.3"/>
    </defs>
    <g clip-path="url(#pea35754b96)">
     <use xlink:href="#m53c6dbc901" x="0" y="790.56" style="fill: #008000; fill-opacity: 0.3; stroke: #008000; stroke-opacity: 0.3"/>
    </g>
   </g>
   <g id="matplotlib.axis_1">
    <g id="xtick_1">
     <g id="line2d_1">
      <defs>
       <path id="m2287aa950d" d="M 0 0 
L 0 3.5 
" style="stroke: #000000; stroke-width: 0.8"/>
      </defs>
      <g>
       <use xlink:href="#m2287aa950d" x="245.24" y="395.28" style="stroke: #000000; stroke-width: 0.8"/>
      </g>
     </g>
     <g id="text_1">
      <!-- 2021-01-10 -->
      <g transform="translate(74.981945 588.147437) rotate(-45) scale(0.4 -0.4)">
       <defs>
        <path id="DejaVuSans-32" d="M 1228 531 
L 3431 531 
L 3431 0 
L 469 0 
L 469 531 
Q 828 903 1448 1529 
Q 2069 2156 2228 2338 
Q 2531 2678 2651 2914 
Q 2772 3150 2772 3378 
Q 2772 3750 2511 3984 
Q 2250 4219 1831 4219 
Q 1534 4219 1204 4116 
Q 875 4013 500 3803 
L 500 4441 
Q 881 4594 1212 4672 
Q 1544 4750 1819 4750 
Q 2544 4750 2975 4387 
Q 3406 4025 3406 3419 
Q 3406 3131 3298 2873 
Q 3191 2616 2906 2266 
Q 2828 2175 2409 1742 
Q 1991 1309 1228 531 
z
" transform="scale(0.015625)"/>
        <path id="DejaVuSans-30" d="M 2034 4250 
Q 1547 4250 1301 3770 
Q 1056 3291 1056 2328 
Q 1056 1369 1301 889 
Q 1547 409 2034 409 
Q 2525 409 2770 889 
Q 3016 1369 3016 2328 
Q 3016 3291 2770 3770 
Q 2525 4250 2034 4250 
z
M 2034 4750 
Q 2819 4750 3233 4129 
Q 3647 3509 3647 2328 
Q 3647 1150 3233 529 
Q 2819 -91 2034 -91 
Q 1250 -91 836 529 
Q 422 1150 422 2328 
Q 422 3509 836 4129 
Q 1250 4750 2034 4750 
z
" transform="scale(0.015625)"/>
        <path id="DejaVuSans-31" d="M 794 531 
L 1825 531 
L 1825 4091 
L 703 3866 
L 703 4441 
L 1819 4666 
L 2450 4666 
L 2450 531 
L 3481 531 
L 3481 0 
L 794 0 
L 794 531 
z
" transform="scale(0.015625)"/>
        <path id="DejaVuSans-2d" d="M 313 2009 
L 1997 2009 
L 1997 1497 
L 313 1497 
L 313 2009 
z
" transform="scale(0.015625)"/>
       </defs>
       <use xlink:href="#DejaVuSans-32"/>
       <use xlink:href="#DejaVuSans-30" x="63.623047"/>
       <use xlink:href="#DejaVuSans-32" x="127.246094"/>
       <use xlink:href="#DejaVuSans-31" x="190.869141"/>
       <use xlink:href="#DejaVuSans-2d" x="254.492188"/>
       <use xlink:href="#DejaVuSans-30" x="290.576172"/>
       <use xlink:href="#DejaVuSans-31" x="354.199219"/>
       <use xlink:href="#DejaVuSans-2d" x="417.822266"/>
       <use xlink:href="#DejaVuSans-31" x="453.90625"/>
       <use xlink:href="#DejaVuSans-30" x="517.529297"/>
      </g>
     </g>
    </g>
    <g id="xtick_2">
     <g id="line2d_2">
      <g>
       <use xlink:href="#m2287aa950d" x="311.630935" y="395.28" style="stroke: #000000; stroke-width: 0.8"/>
      </g>
     </g>
     <g id="text_2">
      <!-- 2021-02-07 -->
      <g transform="translate(141.37288 588.147437) rotate(-45) scale(0.4 -0.4)">
       <defs>
        <path id="DejaVuSans-37" d="M 525 4666 
L 3525 4666 
L 3525 4397 
L 1831 0 
L 1172 0 
L 2766 4134 
L 525 4134 
L 525 4666 
z
" transform="scale(0.015625)"/>
       </defs>
       <use xlink:href="#DejaVuSans-32"/>
       <use xlink:href="#DejaVuSans-30" x="63.623047"/>
       <use xlink:href="#DejaVuSans-32" x="127.246094"/>
       <use xlink:href="#DejaVuSans-31" x="190.869141"/>
       <use xlink:href="#DejaVuSans-2d" x="254.492188"/>
       <use xlink:href="#DejaVuSans-30" x="290.576172"/>
       <use xlink:href="#DejaVuSans-32" x="354.199219"/>
       <use xlink:href="#DejaVuSans-2d" x="417.822266"/>
       <use xlink:href="#DejaVuSans-30" x="453.90625"/>
       <use xlink:href="#DejaVuSans-37" x="517.529297"/>
      </g>
     </g>
    </g>
    <g id="xtick_3">
     <g id="line2d_3">
      <g>
       <use xlink:href="#m2287aa950d" x="378.02187" y="395.28" style="stroke: #000000; stroke-width: 0.8"/>
      </g>
     </g>
     <g id="text_3">
      <!-- 2021-03-07 -->
      <g transform="translate(207.763815 588.147437) rotate(-45) scale(0.4 -0.4)">
       <defs>
        <path id="DejaVuSans-33" d="M 2597 2516 
Q 3050 2419 3304 2112 
Q 3559 1806 3559 1356 
Q 3559 666 3084 287 
Q 2609 -91 1734 -91 
Q 1441 -91 1130 -33 
Q 819 25 488 141 
L 488 750 
Q 750 597 1062 519 
Q 1375 441 1716 441 
Q 2309 441 2620 675 
Q 2931 909 2931 1356 
Q 2931 1769 2642 2001 
Q 2353 2234 1838 2234 
L 1294 2234 
L 1294 2753 
L 1863 2753 
Q 2328 2753 2575 2939 
Q 2822 3125 2822 3475 
Q 2822 3834 2567 4026 
Q 2313 4219 1838 4219 
Q 1578 4219 1281 4162 
Q 984 4106 628 3988 
L 628 4550 
Q 988 4650 1302 4700 
Q 1616 4750 1894 4750 
Q 2613 4750 3031 4423 
Q 3450 4097 3450 3541 
Q 3450 3153 3228 2886 
Q 3006 2619 2597 2516 
z
" transform="scale(0.015625)"/>
       </defs>
       <use xlink:href="#DejaVuSans-32"/>
       <use xlink:href="#DejaVuSans-30" x="63.623047"/>
       <use xlink:href="#DejaVuSans-32" x="127.246094"/>
       <use xlink:href="#DejaVuSans-31" x="190.869141"/>
       <use xlink:href="#DejaVuSans-2d" x="254.492188"/>
       <use xlink:href="#DejaVuSans-30" x="290.576172"/>
       <use xlink:href="#DejaVuSans-33" x="354.199219"/>
       <use xlink:href="#DejaVuSans-2d" x="417.822266"/>
       <use xlink:href="#DejaVuSans-30" x="453.90625"/>
       <use xlink:href="#DejaVuSans-37" x="517.529297"/>
      </g>
     </g>
    </g>
    <g id="xtick_4">
     <g id="line2d_4">
      <g>
       <use xlink:href="#m2287aa950d" x="444.412805" y="395.28" style="stroke: #000000; stroke-width: 0.8"/>
      </g>
     </g>
     <g id="text_4">
      <!-- 2021-04-04 -->
      <g transform="translate(274.15475 588.147437) rotate(-45) scale(0.4 -0.4)">
       <defs>
        <path id="DejaVuSans-34" d="M 2419 4116 
L 825 1625 
L 2419 1625 
L 2419 4116 
z
M 2253 4666 
L 3047 4666 
L 3047 1625 
L 3713 1625 
L 3713 1100 
L 3047 1100 
L 3047 0 
L 2419 0 
L 2419 1100 
L 313 1100 
L 313 1709 
L 2253 4666 
z
" transform="scale(0.015625)"/>
       </defs>
       <use xlink:href="#DejaVuSans-32"/>
       <use xlink:href="#DejaVuSans-30" x="63.623047"/>
       <use xlink:href="#DejaVuSans-32" x="127.246094"/>
       <use xlink:href="#DejaVuSans-31" x="190.869141"/>
       <use xlink:href="#DejaVuSans-2d" x="254.492188"/>
       <use xlink:href="#DejaVuSans-30" x="290.576172"/>
       <use xlink:href="#DejaVuSans-34" x="354.199219"/>
       <use xlink:href="#DejaVuSans-2d" x="417.822266"/>
       <use xlink:href="#DejaVuSans-30" x="453.90625"/>
       <use xlink:href="#DejaVuSans-34" x="517.529297"/>
      </g>
     </g>
    </g>
    <g id="xtick_5">
     <g id="line2d_5">
      <g>
       <use xlink:href="#m2287aa950d" x="510.803739" y="395.28" style="stroke: #000000; stroke-width: 0.8"/>
      </g>
     </g>
     <g id="text_5">
      <!-- 2021-05-02 -->
      <g transform="translate(340.545685 588.147437) rotate(-45) scale(0.4 -0.4)">
       <defs>
        <path id="DejaVuSans-35" d="M 691 4666 
L 3169 4666 
L 3169 4134 
L 1269 4134 
L 1269 2991 
Q 1406 3038 1543 3061 
Q 1681 3084 1819 3084 
Q 2600 3084 3056 2656 
Q 3513 2228 3513 1497 
Q 3513 744 3044 326 
Q 2575 -91 1722 -91 
Q 1428 -91 1123 -41 
Q 819 9 494 109 
L 494 744 
Q 775 591 1075 516 
Q 1375 441 1709 441 
Q 2250 441 2565 725 
Q 2881 1009 2881 1497 
Q 2881 1984 2565 2268 
Q 2250 2553 1709 2553 
Q 1456 2553 1204 2497 
Q 953 2441 691 2322 
L 691 4666 
z
" transform="scale(0.015625)"/>
       </defs>
       <use xlink:href="#DejaVuSans-32"/>
       <use xlink:href="#DejaVuSans-30" x="63.623047"/>
       <use xlink:href="#DejaVuSans-32" x="127.246094"/>
       <use xlink:href="#DejaVuSans-31" x="190.869141"/>
       <use xlink:href="#DejaVuSans-2d" x="254.492188"/>
       <use xlink:href="#DejaVuSans-30" x="290.576172"/>
       <use xlink:href="#DejaVuSans-35" x="354.199219"/>
       <use xlink:href="#DejaVuSans-2d" x="417.822266"/>
       <use xlink:href="#DejaVuSans-30" x="453.90625"/>
       <use xlink:href="#DejaVuSans-32" x="517.529297"/>
      </g>
     </g>
    </g>
    <g id="xtick_6">
     <g id="line2d_6">
      <g>
       <use xlink:href="#m2287aa950d" x="577.194674" y="395.28" style="stroke: #000000; stroke-width: 0.8"/>
      </g>
     </g>
     <g id="text_6">
      <!-- 2021-05-30 -->
      <g transform="translate(406.93662 588.147437) rotate(-45) scale(0.4 -0.4)">
       <use xlink:href="#DejaVuSans-32"/>
       <use xlink:href="#DejaVuSans-30" x="63.623047"/>
       <use xlink:href="#DejaVuSans-32" x="127.246094"/>
       <use xlink:href="#DejaVuSans-31" x="190.869141"/>
       <use xlink:href="#DejaVuSans-2d" x="254.492188"/>
       <use xlink:href="#DejaVuSans-30" x="290.576172"/>
       <use xlink:href="#DejaVuSans-35" x="354.199219"/>
       <use xlink:href="#DejaVuSans-2d" x="417.822266"/>
       <use xlink:href="#DejaVuSans-33" x="453.90625"/>
       <use xlink:href="#DejaVuSans-30" x="517.529297"/>
      </g>
     </g>
    </g>
    <g id="xtick_7">
     <g id="line2d_7">
      <g>
       <use xlink:href="#m2287aa950d" x="643.585609" y="395.28" style="stroke: #000000; stroke-width: 0.8"/>
      </g>
     </g>
     <g id="text_7">
      <!-- 2021-06-27 -->
      <g transform="translate(473.327554 588.147437) rotate(-45) scale(0.4 -0.4)">
       <defs>
        <path id="DejaVuSans-36" d="M 2113 2584 
Q 1688 2584 1439 2293 
Q 1191 2003 1191 1497 
Q 1191 994 1439 701 
Q 1688 409 2113 409 
Q 2538 409 2786 701 
Q 3034 994 3034 1497 
Q 3034 2003 2786 2293 
Q 2538 2584 2113 2584 
z
M 3366 4563 
L 3366 3988 
Q 3128 4100 2886 4159 
Q 2644 4219 2406 4219 
Q 1781 4219 1451 3797 
Q 1122 3375 1075 2522 
Q 1259 2794 1537 2939 
Q 1816 3084 2150 3084 
Q 2853 3084 3261 2657 
Q 3669 2231 3669 1497 
Q 3669 778 3244 343 
Q 2819 -91 2113 -91 
Q 1303 -91 875 529 
Q 447 1150 447 2328 
Q 447 3434 972 4092 
Q 1497 4750 2381 4750 
Q 2619 4750 2861 4703 
Q 3103 4656 3366 4563 
z
" transform="scale(0.015625)"/>
       </defs>
       <use xlink:href="#DejaVuSans-32"/>
       <use xlink:href="#DejaVuSans-30" x="63.623047"/>
       <use xlink:href="#DejaVuSans-32" x="127.246094"/>
       <use xlink:href="#DejaVuSans-31" x="190.869141"/>
       <use xlink:href="#DejaVuSans-2d" x="254.492188"/>
       <use xlink:href="#DejaVuSans-30" x="290.576172"/>
       <use xlink:href="#DejaVuSans-36" x="354.199219"/>
       <use xlink:href="#DejaVuSans-2d" x="417.822266"/>
       <use xlink:href="#DejaVuSans-32" x="453.90625"/>
       <use xlink:href="#DejaVuSans-37" x="517.529297"/>
      </g>
     </g>
    </g>
    <g id="xtick_8">
     <g id="line2d_8">
      <g>
       <use xlink:href="#m2287aa950d" x="709.976544" y="395.28" style="stroke: #000000; stroke-width: 0.8"/>
      </g>
     </g>
     <g id="text_8">
      <!-- 2021-07-25 -->
      <g transform="translate(539.718489 588.147437) rotate(-45) scale(0.4 -0.4)">
       <use xlink:href="#DejaVuSans-32"/>
       <use xlink:href="#DejaVuSans-30" x="63.623047"/>
       <use xlink:href="#DejaVuSans-32" x="127.246094"/>
       <use xlink:href="#DejaVuSans-31" x="190.869141"/>
       <use xlink:href="#DejaVuSans-2d" x="254.492188"/>
       <use xlink:href="#DejaVuSans-30" x="290.576172"/>
       <use xlink:href="#DejaVuSans-37" x="354.199219"/>
       <use xlink:href="#DejaVuSans-2d" x="417.822266"/>
       <use xlink:href="#DejaVuSans-32" x="453.90625"/>
       <use xlink:href="#DejaVuSans-35" x="517.529297"/>
      </g>
     </g>
    </g>
    <g id="xtick_9">
     <g id="line2d_9">
      <g>
       <use xlink:href="#m2287aa950d" x="776.367479" y="395.28" style="stroke: #000000; stroke-width: 0.8"/>
      </g>
     </g>
     <g id="text_9">
      <!-- 2021-08-22 -->
      <g transform="translate(606.109424 588.147437) rotate(-45) scale(0.4 -0.4)">
       <defs>
        <path id="DejaVuSans-38" d="M 2034 2216 
Q 1584 2216 1326 1975 
Q 1069 1734 1069 1313 
Q 1069 891 1326 650 
Q 1584 409 2034 409 
Q 2484 409 2743 651 
Q 3003 894 3003 1313 
Q 3003 1734 2745 1975 
Q 2488 2216 2034 2216 
z
M 1403 2484 
Q 997 2584 770 2862 
Q 544 3141 544 3541 
Q 544 4100 942 4425 
Q 1341 4750 2034 4750 
Q 2731 4750 3128 4425 
Q 3525 4100 3525 3541 
Q 3525 3141 3298 2862 
Q 3072 2584 2669 2484 
Q 3125 2378 3379 2068 
Q 3634 1759 3634 1313 
Q 3634 634 3220 271 
Q 2806 -91 2034 -91 
Q 1263 -91 848 271 
Q 434 634 434 1313 
Q 434 1759 690 2068 
Q 947 2378 1403 2484 
z
M 1172 3481 
Q 1172 3119 1398 2916 
Q 1625 2713 2034 2713 
Q 2441 2713 2670 2916 
Q 2900 3119 2900 3481 
Q 2900 3844 2670 4047 
Q 2441 4250 2034 4250 
Q 1625 4250 1398 4047 
Q 1172 3844 1172 3481 
z
" transform="scale(0.015625)"/>
       </defs>
       <use xlink:href="#DejaVuSans-32"/>
       <use xlink:href="#DejaVuSans-30" x="63.623047"/>
       <use xlink:href="#DejaVuSans-32" x="127.246094"/>
       <use xlink:href="#DejaVuSans-31" x="190.869141"/>
       <use xlink:href="#DejaVuSans-2d" x="254.492188"/>
       <use xlink:href="#DejaVuSans-30" x="290.576172"/>
       <use xlink:href="#DejaVuSans-38" x="354.199219"/>
       <use xlink:href="#DejaVuSans-2d" x="417.822266"/>
       <use xlink:href="#DejaVuSans-32" x="453.90625"/>
       <use xlink:href="#DejaVuSans-32" x="517.529297"/>
      </g>
     </g>
    </g>
    <g id="xtick_10">
     <g id="line2d_10">
      <g>
       <use xlink:href="#m2287aa950d" x="842.758414" y="395.28" style="stroke: #000000; stroke-width: 0.8"/>
      </g>
     </g>
     <g id="text_10">
      <!-- 2021-09-19 -->
      <g transform="translate(672.500359 588.147437) rotate(-45) scale(0.4 -0.4)">
       <defs>
        <path id="DejaVuSans-39" d="M 703 97 
L 703 672 
Q 941 559 1184 500 
Q 1428 441 1663 441 
Q 2288 441 2617 861 
Q 2947 1281 2994 2138 
Q 2813 1869 2534 1725 
Q 2256 1581 1919 1581 
Q 1219 1581 811 2004 
Q 403 2428 403 3163 
Q 403 3881 828 4315 
Q 1253 4750 1959 4750 
Q 2769 4750 3195 4129 
Q 3622 3509 3622 2328 
Q 3622 1225 3098 567 
Q 2575 -91 1691 -91 
Q 1453 -91 1209 -44 
Q 966 3 703 97 
z
M 1959 2075 
Q 2384 2075 2632 2365 
Q 2881 2656 2881 3163 
Q 2881 3666 2632 3958 
Q 2384 4250 1959 4250 
Q 1534 4250 1286 3958 
Q 1038 3666 1038 3163 
Q 1038 2656 1286 2365 
Q 1534 2075 1959 2075 
z
" transform="scale(0.015625)"/>
       </defs>
       <use xlink:href="#DejaVuSans-32"/>
       <use xlink:href="#DejaVuSans-30" x="63.623047"/>
       <use xlink:href="#DejaVuSans-32" x="127.246094"/>
       <use xlink:href="#DejaVuSans-31" x="190.869141"/>
       <use xlink:href="#DejaVuSans-2d" x="254.492188"/>
       <use xlink:href="#DejaVuSans-30" x="290.576172"/>
       <use xlink:href="#DejaVuSans-39" x="354.199219"/>
       <use xlink:href="#DejaVuSans-2d" x="417.822266"/>
       <use xlink:href="#DejaVuSans-31" x="453.90625"/>
       <use xlink:href="#DejaVuSans-39" x="517.529297"/>
      </g>
     </g>
    </g>
    <g id="xtick_11">
     <g id="line2d_11">
      <g>
       <use xlink:href="#m2287aa950d" x="909.149348" y="395.28" style="stroke: #000000; stroke-width: 0.8"/>
      </g>
     </g>
     <g id="text_11">
      <!-- 2021-10-17 -->
      <g transform="translate(738.891294 588.147437) rotate(-45) scale(0.4 -0.4)">
       <use xlink:href="#DejaVuSans-32"/>
       <use xlink:href="#DejaVuSans-30" x="63.623047"/>
       <use xlink:href="#DejaVuSans-32" x="127.246094"/>
       <use xlink:href="#DejaVuSans-31" x="190.869141"/>
       <use xlink:href="#DejaVuSans-2d" x="254.492188"/>
       <use xlink:href="#DejaVuSans-31" x="290.576172"/>
       <use xlink:href="#DejaVuSans-30" x="354.199219"/>
       <use xlink:href="#DejaVuSans-2d" x="417.822266"/>
       <use xlink:href="#DejaVuSans-31" x="453.90625"/>
       <use xlink:href="#DejaVuSans-37" x="517.529297"/>
      </g>
     </g>
    </g>
    <g id="xtick_12">
     <g id="line2d_12">
      <g>
       <use xlink:href="#m2287aa950d" x="975.540283" y="395.28" style="stroke: #000000; stroke-width: 0.8"/>
      </g>
     </g>
     <g id="text_12">
      <!-- 2021-11-14 -->
      <g transform="translate(805.282229 588.147437) rotate(-45) scale(0.4 -0.4)">
       <use xlink:href="#DejaVuSans-32"/>
       <use xlink:href="#DejaVuSans-30" x="63.623047"/>
       <use xlink:href="#DejaVuSans-32" x="127.246094"/>
       <use xlink:href="#DejaVuSans-31" x="190.869141"/>
       <use xlink:href="#DejaVuSans-2d" x="254.492188"/>
       <use xlink:href="#DejaVuSans-31" x="290.576172"/>
       <use xlink:href="#DejaVuSans-31" x="354.199219"/>
       <use xlink:href="#DejaVuSans-2d" x="417.822266"/>
       <use xlink:href="#DejaVuSans-31" x="453.90625"/>
       <use xlink:href="#DejaVuSans-34" x="517.529297"/>
      </g>
     </g>
    </g>
    <g id="xtick_13">
     <g id="line2d_13">
      <g>
       <use xlink:href="#m2287aa950d" x="1041.931218" y="395.28" style="stroke: #000000; stroke-width: 0.8"/>
      </g>
     </g>
     <g id="text_13">
      <!-- 2021-12-12 -->
      <g transform="translate(871.673163 588.147437) rotate(-45) scale(0.4 -0.4)">
       <use xlink:href="#DejaVuSans-32"/>
       <use xlink:href="#DejaVuSans-30" x="63.623047"/>
       <use xlink:href="#DejaVuSans-32" x="127.246094"/>
       <use xlink:href="#DejaVuSans-31" x="190.869141"/>
       <use xlink:href="#DejaVuSans-2d" x="254.492188"/>
       <use xlink:href="#DejaVuSans-31" x="290.576172"/>
       <use xlink:href="#DejaVuSans-32" x="354.199219"/>
       <use xlink:href="#DejaVuSans-2d" x="417.822266"/>
       <use xlink:href="#DejaVuSans-31" x="453.90625"/>
       <use xlink:href="#DejaVuSans-32" x="517.529297"/>
      </g>
     </g>
    </g>
    <g id="xtick_14">
     <g id="line2d_14">
      <g>
       <use xlink:href="#m2287aa950d" x="1082.24" y="395.28" style="stroke: #000000; stroke-width: 0.8"/>
      </g>
     </g>
     <g id="text_14">
      <!-- 2021-12-29 -->
      <g transform="translate(911.981945 588.147437) rotate(-45) scale(0.4 -0.4)">
       <use xlink:href="#DejaVuSans-32"/>
       <use xlink:href="#DejaVuSans-30" x="63.623047"/>
       <use xlink:href="#DejaVuSans-32" x="127.246094"/>
       <use xlink:href="#DejaVuSans-31" x="190.869141"/>
       <use xlink:href="#DejaVuSans-2d" x="254.492188"/>
       <use xlink:href="#DejaVuSans-31" x="290.576172"/>
       <use xlink:href="#DejaVuSans-32" x="354.199219"/>
       <use xlink:href="#DejaVuSans-2d" x="417.822266"/>
       <use xlink:href="#DejaVuSans-32" x="453.90625"/>
       <use xlink:href="#DejaVuSans-39" x="517.529297"/>
      </g>
     </g>
    </g>
    <g id="text_15">
     <!-- dates -->
     <g transform="translate(619.325 622.344681) scale(0.32 -0.32)">
      <defs>
       <path id="DejaVuSans-64" d="M 2906 2969 
L 2906 4863 
L 3481 4863 
L 3481 0 
L 2906 0 
L 2906 525 
Q 2725 213 2448 61 
Q 2172 -91 1784 -91 
Q 1150 -91 751 415 
Q 353 922 353 1747 
Q 353 2572 751 3078 
Q 1150 3584 1784 3584 
Q 2172 3584 2448 3432 
Q 2725 3281 2906 2969 
z
M 947 1747 
Q 947 1113 1208 752 
Q 1469 391 1925 391 
Q 2381 391 2643 752 
Q 2906 1113 2906 1747 
Q 2906 2381 2643 2742 
Q 2381 3103 1925 3103 
Q 1469 3103 1208 2742 
Q 947 2381 947 1747 
z
" transform="scale(0.015625)"/>
       <path id="DejaVuSans-61" d="M 2194 1759 
Q 1497 1759 1228 1600 
Q 959 1441 959 1056 
Q 959 750 1161 570 
Q 1363 391 1709 391 
Q 2188 391 2477 730 
Q 2766 1069 2766 1631 
L 2766 1759 
L 2194 1759 
z
M 3341 1997 
L 3341 0 
L 2766 0 
L 2766 531 
Q 2569 213 2275 61 
Q 1981 -91 1556 -91 
Q 1019 -91 701 211 
Q 384 513 384 1019 
Q 384 1609 779 1909 
Q 1175 2209 1959 2209 
L 2766 2209 
L 2766 2266 
Q 2766 2663 2505 2880 
Q 2244 3097 1772 3097 
Q 1472 3097 1187 3025 
Q 903 2953 641 2809 
L 641 3341 
Q 956 3463 1253 3523 
Q 1550 3584 1831 3584 
Q 2591 3584 2966 3190 
Q 3341 2797 3341 1997 
z
" transform="scale(0.015625)"/>
       <path id="DejaVuSans-74" d="M 1172 4494 
L 1172 3500 
L 2356 3500 
L 2356 3053 
L 1172 3053 
L 1172 1153 
Q 1172 725 1289 603 
Q 1406 481 1766 481 
L 2356 481 
L 2356 0 
L 1766 0 
Q 1100 0 847 248 
Q 594 497 594 1153 
L 594 3053 
L 172 3053 
L 172 3500 
L 594 3500 
L 594 4494 
L 1172 4494 
z
" transform="scale(0.015625)"/>
       <path id="DejaVuSans-65" d="M 3597 1894 
L 3597 1613 
L 953 1613 
Q 991 1019 1311 708 
Q 1631 397 2203 397 
Q 2534 397 2845 478 
Q 3156 559 3463 722 
L 3463 178 
Q 3153 47 2828 -22 
Q 2503 -91 2169 -91 
Q 1331 -91 842 396 
Q 353 884 353 1716 
Q 353 2575 817 3079 
Q 1281 3584 2069 3584 
Q 2775 3584 3186 3129 
Q 3597 2675 3597 1894 
z
M 3022 2063 
Q 3016 2534 2758 2815 
Q 2500 3097 2075 3097 
Q 1594 3097 1305 2825 
Q 1016 2553 972 2059 
L 3022 2063 
z
" transform="scale(0.015625)"/>
       <path id="DejaVuSans-73" d="M 2834 3397 
L 2834 2853 
Q 2591 2978 2328 3040 
Q 2066 3103 1784 3103 
Q 1356 3103 1142 2972 
Q 928 2841 928 2578 
Q 928 2378 1081 2264 
Q 1234 2150 1697 2047 
L 1894 2003 
Q 2506 1872 2764 1633 
Q 3022 1394 3022 966 
Q 3022 478 2636 193 
Q 2250 -91 1575 -91 
Q 1294 -91 989 -36 
Q 684 19 347 128 
L 347 722 
Q 666 556 975 473 
Q 1284 391 1588 391 
Q 1994 391 2212 530 
Q 2431 669 2431 922 
Q 2431 1156 2273 1281 
Q 2116 1406 1581 1522 
L 1381 1569 
Q 847 1681 609 1914 
Q 372 2147 372 2553 
Q 372 3047 722 3315 
Q 1072 3584 1716 3584 
Q 2034 3584 2315 3537 
Q 2597 3491 2834 3397 
z
" transform="scale(0.015625)"/>
      </defs>
      <use xlink:href="#DejaVuSans-64"/>
      <use xlink:href="#DejaVuSans-61" x="63.476562"/>
      <use xlink:href="#DejaVuSans-74" x="124.755859"/>
      <use xlink:href="#DejaVuSans-65" x="163.964844"/>
      <use xlink:href="#DejaVuSans-73" x="225.488281"/>
     </g>
    </g>
   </g>
   <g id="matplotlib.axis_2">
    <g id="ytick_1">
     <g id="line2d_15">
      <defs>
       <path id="m3119761103" d="M 0 0 
L -3.5 0 
" style="stroke: #000000; stroke-width: 0.8"/>
      </defs>
      <g>
       <use xlink:href="#m3119761103" x="245.24" y="395.28" style="stroke: #000000; stroke-width: 0.8"/>
      </g>
     </g>
     <g id="text_16">
      <!-- 40 -->
      <g transform="translate(187.34 410.476875) scale(0.4 -0.4)">
       <use xlink:href="#DejaVuSans-34"/>
       <use xlink:href="#DejaVuSans-30" x="63.623047"/>
      </g>
     </g>
    </g>
    <g id="ytick_2">
     <g id="line2d_16">
      <g>
       <use xlink:href="#m3119761103" x="245.24" y="346.77" style="stroke: #000000; stroke-width: 0.8"/>
      </g>
     </g>
     <g id="text_17">
      <!-- 50 -->
      <g transform="translate(187.34 361.966875) scale(0.4 -0.4)">
       <use xlink:href="#DejaVuSans-35"/>
       <use xlink:href="#DejaVuSans-30" x="63.623047"/>
      </g>
     </g>
    </g>
    <g id="ytick_3">
     <g id="line2d_17">
      <g>
       <use xlink:href="#m3119761103" x="245.24" y="298.26" style="stroke: #000000; stroke-width: 0.8"/>
      </g>
     </g>
     <g id="text_18">
      <!-- 60 -->
      <g transform="translate(187.34 313.456875) scale(0.4 -0.4)">
       <use xlink:href="#DejaVuSans-36"/>
       <use xlink:href="#DejaVuSans-30" x="63.623047"/>
      </g>
     </g>
    </g>
    <g id="ytick_4">
     <g id="line2d_18">
      <g>
       <use xlink:href="#m3119761103" x="245.24" y="249.75" style="stroke: #000000; stroke-width: 0.8"/>
      </g>
     </g>
     <g id="text_19">
      <!-- 70 -->
      <g transform="translate(187.34 264.946875) scale(0.4 -0.4)">
       <use xlink:href="#DejaVuSans-37"/>
       <use xlink:href="#DejaVuSans-30" x="63.623047"/>
      </g>
     </g>
    </g>
    <g id="ytick_5">
     <g id="line2d_19">
      <g>
       <use xlink:href="#m3119761103" x="245.24" y="201.24" style="stroke: #000000; stroke-width: 0.8"/>
      </g>
     </g>
     <g id="text_20">
      <!-- 80 -->
      <g transform="translate(187.34 216.436875) scale(0.4 -0.4)">
       <use xlink:href="#DejaVuSans-38"/>
       <use xlink:href="#DejaVuSans-30" x="63.623047"/>
      </g>
     </g>
    </g>
    <g id="ytick_6">
     <g id="line2d_20">
      <g>
       <use xlink:href="#m3119761103" x="245.24" y="152.73" style="stroke: #000000; stroke-width: 0.8"/>
      </g>
     </g>
     <g id="text_21">
      <!-- 90 -->
      <g transform="translate(187.34 167.926875) scale(0.4 -0.4)">
       <use xlink:href="#DejaVuSans-39"/>
       <use xlink:href="#DejaVuSans-30" x="63.623047"/>
      </g>
     </g>
    </g>
    <g id="ytick_7">
     <g id="line2d_21">
      <g>
       <use xlink:href="#m3119761103" x="245.24" y="104.22" style="stroke: #000000; stroke-width: 0.8"/>
      </g>
     </g>
     <g id="text_22">
      <!-- 100 -->
      <g transform="translate(161.89 119.416875) scale(0.4 -0.4)">
       <use xlink:href="#DejaVuSans-31"/>
       <use xlink:href="#DejaVuSans-30" x="63.623047"/>
       <use xlink:href="#DejaVuSans-30" x="127.246094"/>
      </g>
     </g>
    </g>
    <g id="ytick_8">
     <g id="line2d_22">
      <g>
       <use xlink:href="#m3119761103" x="245.24" y="55.71" style="stroke: #000000; stroke-width: 0.8"/>
      </g>
     </g>
     <g id="text_23">
      <!-- 110 -->
      <g transform="translate(161.89 70.906875) scale(0.4 -0.4)">
       <use xlink:href="#DejaVuSans-31"/>
       <use xlink:href="#DejaVuSans-31" x="63.623047"/>
       <use xlink:href="#DejaVuSans-30" x="127.246094"/>
      </g>
     </g>
    </g>
    <g id="ytick_9">
     <g id="line2d_23">
      <g>
       <use xlink:href="#m3119761103" x="245.24" y="46.008" style="stroke: #000000; stroke-width: 0.8"/>
      </g>
     </g>
     <g id="text_24">
      <!-- 112 x $ 10^{6}$ -->
      <g transform="translate(42.24 61.204875) scale(0.4 -0.4)">
       <defs>
        <path id="DejaVuSans-20" transform="scale(0.015625)"/>
        <path id="DejaVuSans-78" d="M 3513 3500 
L 2247 1797 
L 3578 0 
L 2900 0 
L 1881 1375 
L 863 0 
L 184 0 
L 1544 1831 
L 300 3500 
L 978 3500 
L 1906 2253 
L 2834 3500 
L 3513 3500 
z
" transform="scale(0.015625)"/>
       </defs>
       <use xlink:href="#DejaVuSans-31" transform="translate(0 0.765625)"/>
       <use xlink:href="#DejaVuSans-31" transform="translate(63.623047 0.765625)"/>
       <use xlink:href="#DejaVuSans-32" transform="translate(127.246094 0.765625)"/>
       <use xlink:href="#DejaVuSans-20" transform="translate(190.869141 0.765625)"/>
       <use xlink:href="#DejaVuSans-78" transform="translate(222.65625 0.765625)"/>
       <use xlink:href="#DejaVuSans-20" transform="translate(281.835938 0.765625)"/>
       <use xlink:href="#DejaVuSans-31" transform="translate(313.623047 0.765625)"/>
       <use xlink:href="#DejaVuSans-30" transform="translate(377.246094 0.765625)"/>
       <use xlink:href="#DejaVuSans-36" transform="translate(441.826172 39.046875) scale(0.7)"/>
      </g>
     </g>
    </g>
    <g id="text_25">
     <!-- Mean $\mathbb{E}$[Susceptible] -->
     <g transform="translate(31.52 365.24) rotate(-90) scale(0.32 -0.32)">
      <defs>
       <path id="DejaVuSans-4d" d="M 628 4666 
L 1569 4666 
L 2759 1491 
L 3956 4666 
L 4897 4666 
L 4897 0 
L 4281 0 
L 4281 4097 
L 3078 897 
L 2444 897 
L 1241 4097 
L 1241 0 
L 628 0 
L 628 4666 
z
" transform="scale(0.015625)"/>
       <path id="DejaVuSans-6e" d="M 3513 2113 
L 3513 0 
L 2938 0 
L 2938 2094 
Q 2938 2591 2744 2837 
Q 2550 3084 2163 3084 
Q 1697 3084 1428 2787 
Q 1159 2491 1159 1978 
L 1159 0 
L 581 0 
L 581 3500 
L 1159 3500 
L 1159 2956 
Q 1366 3272 1645 3428 
Q 1925 3584 2291 3584 
Q 2894 3584 3203 3211 
Q 3513 2838 3513 2113 
z
" transform="scale(0.015625)"/>
       <path id="STIXNonUnicode-Italic-e156" d="M 4250 4179 
L 4192 3942 
L 2150 3942 
L 1709 2266 
L 3514 2266 
L 3443 2029 
L 1645 2029 
L 1165 237 
L 3443 237 
L 3392 0 
L 109 0 
L 1229 4179 
L 4250 4179 
z
M 1914 3942 
L 1414 3942 
L 416 237 
L 928 237 
L 1914 3942 
z
" transform="scale(0.015625)"/>
       <path id="DejaVuSans-5b" d="M 550 4863 
L 1875 4863 
L 1875 4416 
L 1125 4416 
L 1125 -397 
L 1875 -397 
L 1875 -844 
L 550 -844 
L 550 4863 
z
" transform="scale(0.015625)"/>
       <path id="DejaVuSans-53" d="M 3425 4513 
L 3425 3897 
Q 3066 4069 2747 4153 
Q 2428 4238 2131 4238 
Q 1616 4238 1336 4038 
Q 1056 3838 1056 3469 
Q 1056 3159 1242 3001 
Q 1428 2844 1947 2747 
L 2328 2669 
Q 3034 2534 3370 2195 
Q 3706 1856 3706 1288 
Q 3706 609 3251 259 
Q 2797 -91 1919 -91 
Q 1588 -91 1214 -16 
Q 841 59 441 206 
L 441 856 
Q 825 641 1194 531 
Q 1563 422 1919 422 
Q 2459 422 2753 634 
Q 3047 847 3047 1241 
Q 3047 1584 2836 1778 
Q 2625 1972 2144 2069 
L 1759 2144 
Q 1053 2284 737 2584 
Q 422 2884 422 3419 
Q 422 4038 858 4394 
Q 1294 4750 2059 4750 
Q 2388 4750 2728 4690 
Q 3069 4631 3425 4513 
z
" transform="scale(0.015625)"/>
       <path id="DejaVuSans-75" d="M 544 1381 
L 544 3500 
L 1119 3500 
L 1119 1403 
Q 1119 906 1312 657 
Q 1506 409 1894 409 
Q 2359 409 2629 706 
Q 2900 1003 2900 1516 
L 2900 3500 
L 3475 3500 
L 3475 0 
L 2900 0 
L 2900 538 
Q 2691 219 2414 64 
Q 2138 -91 1772 -91 
Q 1169 -91 856 284 
Q 544 659 544 1381 
z
M 1991 3584 
L 1991 3584 
z
" transform="scale(0.015625)"/>
       <path id="DejaVuSans-63" d="M 3122 3366 
L 3122 2828 
Q 2878 2963 2633 3030 
Q 2388 3097 2138 3097 
Q 1578 3097 1268 2742 
Q 959 2388 959 1747 
Q 959 1106 1268 751 
Q 1578 397 2138 397 
Q 2388 397 2633 464 
Q 2878 531 3122 666 
L 3122 134 
Q 2881 22 2623 -34 
Q 2366 -91 2075 -91 
Q 1284 -91 818 406 
Q 353 903 353 1747 
Q 353 2603 823 3093 
Q 1294 3584 2113 3584 
Q 2378 3584 2631 3529 
Q 2884 3475 3122 3366 
z
" transform="scale(0.015625)"/>
       <path id="DejaVuSans-70" d="M 1159 525 
L 1159 -1331 
L 581 -1331 
L 581 3500 
L 1159 3500 
L 1159 2969 
Q 1341 3281 1617 3432 
Q 1894 3584 2278 3584 
Q 2916 3584 3314 3078 
Q 3713 2572 3713 1747 
Q 3713 922 3314 415 
Q 2916 -91 2278 -91 
Q 1894 -91 1617 61 
Q 1341 213 1159 525 
z
M 3116 1747 
Q 3116 2381 2855 2742 
Q 2594 3103 2138 3103 
Q 1681 3103 1420 2742 
Q 1159 2381 1159 1747 
Q 1159 1113 1420 752 
Q 1681 391 2138 391 
Q 2594 391 2855 752 
Q 3116 1113 3116 1747 
z
" transform="scale(0.015625)"/>
       <path id="DejaVuSans-69" d="M 603 3500 
L 1178 3500 
L 1178 0 
L 603 0 
L 603 3500 
z
M 603 4863 
L 1178 4863 
L 1178 4134 
L 603 4134 
L 603 4863 
z
" transform="scale(0.015625)"/>
       <path id="DejaVuSans-62" d="M 3116 1747 
Q 3116 2381 2855 2742 
Q 2594 3103 2138 3103 
Q 1681 3103 1420 2742 
Q 1159 2381 1159 1747 
Q 1159 1113 1420 752 
Q 1681 391 2138 391 
Q 2594 391 2855 752 
Q 3116 1113 3116 1747 
z
M 1159 2969 
Q 1341 3281 1617 3432 
Q 1894 3584 2278 3584 
Q 2916 3584 3314 3078 
Q 3713 2572 3713 1747 
Q 3713 922 3314 415 
Q 2916 -91 2278 -91 
Q 1894 -91 1617 61 
Q 1341 213 1159 525 
L 1159 0 
L 581 0 
L 581 4863 
L 1159 4863 
L 1159 2969 
z
" transform="scale(0.015625)"/>
       <path id="DejaVuSans-6c" d="M 603 4863 
L 1178 4863 
L 1178 0 
L 603 0 
L 603 4863 
z
" transform="scale(0.015625)"/>
       <path id="DejaVuSans-5d" d="M 1947 4863 
L 1947 -844 
L 622 -844 
L 622 -397 
L 1369 -397 
L 1369 4416 
L 622 4416 
L 622 4863 
L 1947 4863 
z
" transform="scale(0.015625)"/>
      </defs>
      <use xlink:href="#DejaVuSans-4d" transform="translate(0 0.015625)"/>
      <use xlink:href="#DejaVuSans-65" transform="translate(86.279297 0.015625)"/>
      <use xlink:href="#DejaVuSans-61" transform="translate(147.802734 0.015625)"/>
      <use xlink:href="#DejaVuSans-6e" transform="translate(209.082031 0.015625)"/>
      <use xlink:href="#DejaVuSans-20" transform="translate(272.460938 0.015625)"/>
      <use xlink:href="#STIXNonUnicode-Italic-e156" transform="translate(304.248047 0.015625)"/>
      <use xlink:href="#DejaVuSans-5b" transform="translate(368.148041 0.015625)"/>
      <use xlink:href="#DejaVuSans-53" transform="translate(407.161713 0.015625)"/>
      <use xlink:href="#DejaVuSans-75" transform="translate(470.638275 0.015625)"/>
      <use xlink:href="#DejaVuSans-73" transform="translate(534.017181 0.015625)"/>
      <use xlink:href="#DejaVuSans-63" transform="translate(586.116791 0.015625)"/>
      <use xlink:href="#DejaVuSans-65" transform="translate(641.09726 0.015625)"/>
      <use xlink:href="#DejaVuSans-70" transform="translate(702.620697 0.015625)"/>
      <use xlink:href="#DejaVuSans-74" transform="translate(766.09726 0.015625)"/>
      <use xlink:href="#DejaVuSans-69" transform="translate(805.306244 0.015625)"/>
      <use xlink:href="#DejaVuSans-62" transform="translate(833.089447 0.015625)"/>
      <use xlink:href="#DejaVuSans-6c" transform="translate(896.56601 0.015625)"/>
      <use xlink:href="#DejaVuSans-65" transform="translate(924.349213 0.015625)"/>
      <use xlink:href="#DejaVuSans-5d" transform="translate(985.87265 0.015625)"/>
     </g>
    </g>
   </g>
   <g id="line2d_24">
    <path d="M 245.24 43.692618 
L 254.724419 44.199034 
L 297.404306 45.925022 
L 325.857564 46.897695 
L 335.341983 47.296891 
L 349.568612 48.085444 
L 366.166346 49.562735 
L 370.908555 50.229909 
L 380.392975 51.159461 
L 389.877394 52.8111 
L 394.619603 53.286638 
L 396.990708 53.694486 
L 401.732918 54.817257 
L 404.104023 55.436581 
L 406.475127 55.927862 
L 411.217337 56.681275 
L 413.588442 57.372527 
L 418.330652 59.420905 
L 423.072861 61.843391 
L 427.815071 63.525291 
L 430.186176 64.707987 
L 432.55728 66.336377 
L 434.928385 68.248729 
L 437.29949 69.64325 
L 439.670595 70.658157 
L 444.412805 71.58766 
L 446.783909 72.393931 
L 449.155014 73.889111 
L 451.526119 75.727786 
L 456.268329 79.927408 
L 463.381643 83.700066 
L 465.752748 85.208172 
L 468.123853 86.949759 
L 472.866062 91.266232 
L 475.237167 92.787093 
L 477.608272 94.147653 
L 482.350482 97.403505 
L 487.092691 101.537531 
L 489.463796 103.843624 
L 491.834901 105.115199 
L 494.206006 106.793551 
L 498.948215 110.493721 
L 501.31932 112.754107 
L 503.690425 114.639495 
L 506.06153 116.370555 
L 508.432635 117.394579 
L 510.803739 117.99281 
L 513.174844 119.314503 
L 517.917054 122.692673 
L 520.288159 124.746965 
L 522.659263 126.532324 
L 527.401473 128.579685 
L 529.772578 129.96518 
L 534.514788 133.534801 
L 536.885892 135.679358 
L 539.256997 136.985353 
L 541.628102 137.858741 
L 548.741416 141.338964 
L 555.854731 146.846212 
L 560.596941 149.691559 
L 565.33915 152.78611 
L 570.08136 156.809793 
L 572.452465 158.413866 
L 577.194674 160.616022 
L 581.936884 163.395005 
L 586.679093 166.473303 
L 589.050198 168.323577 
L 596.163513 172.585632 
L 598.534618 173.957597 
L 600.905722 175.541503 
L 605.647932 178.483028 
L 612.761246 181.613211 
L 617.503456 183.663895 
L 622.245666 185.579173 
L 624.616771 186.377719 
L 626.987875 186.894995 
L 638.843399 190.781881 
L 643.585609 192.060798 
L 645.956714 192.761618 
L 648.327819 193.338814 
L 657.812238 196.275607 
L 660.183343 196.781474 
L 667.296657 198.824867 
L 674.409972 200.933913 
L 681.523286 202.851347 
L 686.265496 204.343166 
L 688.636601 205.203446 
L 709.976544 211.193013 
L 714.718754 212.328988 
L 717.089858 213.018701 
L 719.460963 213.512939 
L 721.832068 214.154719 
L 728.945382 215.613187 
L 736.058697 217.151214 
L 738.429802 217.75607 
L 747.914221 219.628858 
L 757.39864 221.784907 
L 762.14085 222.675052 
L 776.367479 225.543094 
L 790.594108 227.858721 
L 792.965212 228.097481 
L 795.336317 228.794427 
L 797.707422 228.64352 
L 802.449632 229.249704 
L 807.191841 229.823163 
L 819.047365 230.837635 
L 823.789575 231.1375 
L 830.90289 231.327223 
L 840.387309 231.395323 
L 849.871728 231.170579 
L 852.242833 231.301416 
L 854.613938 231.046585 
L 864.098357 230.685659 
L 866.469462 232.261431 
L 871.211671 234.105147 
L 883.067195 237.630543 
L 885.4383 238.415666 
L 887.809405 239.427121 
L 894.92272 241.847708 
L 899.664929 244.660714 
L 902.036034 245.882567 
L 904.407139 247.311262 
L 909.149348 249.579725 
L 913.891558 252.06251 
L 918.633768 255.741139 
L 921.004873 257.514867 
L 939.973711 268.952308 
L 942.344816 270.194734 
L 947.087025 273.044784 
L 951.829235 276.174855 
L 954.20034 277.904738 
L 961.313654 282.316248 
L 966.055864 286.146066 
L 968.426969 287.9676 
L 970.798074 289.968171 
L 977.911388 294.752648 
L 985.024703 300.155581 
L 987.395807 302.219776 
L 996.880227 309.148831 
L 999.251331 311.087232 
L 1001.622436 312.715795 
L 1003.993541 314.559992 
L 1006.364646 315.08476 
L 1008.735751 318.641543 
L 1015.849065 323.283831 
L 1018.22017 324.194917 
L 1020.591275 325.347641 
L 1022.96238 324.841073 
L 1025.333484 326.719124 
L 1027.704589 323.102125 
L 1030.075694 320.548719 
L 1032.446799 318.266425 
L 1034.817904 310.059663 
L 1037.189008 290.591538 
L 1039.560113 293.591307 
L 1041.931218 270.437676 
L 1044.302323 254.891632 
L 1046.673428 236.137013 
L 1049.044533 218.779612 
L 1051.415637 229.104587 
L 1053.786742 217.998566 
L 1056.157847 198.282174 
L 1058.528952 193.502783 
L 1060.900057 192.017444 
L 1063.271161 186.792929 
L 1065.642266 182.049902 
L 1068.013371 187.223523 
L 1070.384476 174.178105 
L 1072.755581 177.634212 
L 1075.126686 171.816451 
L 1077.49779 172.89055 
L 1079.868895 168.004092 
L 1082.24 169.773446 
L 1082.24 169.773446 
" clip-path="url(#pea35754b96)" style="fill: none; stroke: #ff0000; stroke-opacity: 0.4; stroke-width: 5; stroke-linecap: square"/>
   </g>
   <g id="line2d_25">
    <path d="M 245.24 43.27954 
L 254.724419 43.764708 
L 285.548782 44.926567 
L 344.826402 47.035718 
L 354.310822 47.738935 
L 363.795241 48.442097 
L 373.27966 49.5988 
L 378.02187 49.950122 
L 382.764079 50.659997 
L 387.506289 51.509879 
L 389.877394 51.836283 
L 394.619603 52.298094 
L 396.990708 52.675758 
L 408.846232 55.140494 
L 411.217337 55.54292 
L 413.588442 56.170632 
L 418.330652 57.819229 
L 425.443966 60.844987 
L 427.815071 61.698762 
L 430.186176 62.743235 
L 432.55728 64.080802 
L 434.928385 65.654863 
L 437.29949 67.06708 
L 439.670595 68.226301 
L 446.783909 70.546189 
L 449.155014 71.693006 
L 451.526119 73.158126 
L 456.268329 76.794166 
L 461.010538 79.611047 
L 465.752748 82.394328 
L 468.123853 83.950728 
L 475.237167 89.510055 
L 482.350482 94.154546 
L 487.092691 98.028949 
L 489.463796 100.085286 
L 491.834901 101.529682 
L 503.690425 110.777611 
L 506.06153 112.34285 
L 508.432635 113.261484 
L 510.803739 113.703865 
L 513.174844 114.938216 
L 517.917054 117.811167 
L 520.288159 119.644124 
L 522.659263 121.156339 
L 525.030368 122.056529 
L 527.401473 122.809062 
L 529.772578 123.941475 
L 532.143683 125.498285 
L 534.514788 126.918482 
L 536.885892 128.92206 
L 539.256997 129.831474 
L 541.628102 130.421367 
L 543.999207 131.27375 
L 546.370312 131.960158 
L 548.741416 132.781436 
L 551.112521 134.352493 
L 553.483626 135.720325 
L 555.854731 137.221885 
L 562.968045 140.323507 
L 565.33915 141.491387 
L 570.08136 144.797727 
L 572.452465 145.880705 
L 577.194674 146.779309 
L 581.936884 148.513496 
L 586.679093 150.536925 
L 589.050198 151.951793 
L 596.163513 154.158305 
L 598.534618 154.857037 
L 600.905722 155.860242 
L 603.276827 156.638747 
L 605.647932 157.548478 
L 612.761246 158.286377 
L 615.132351 158.443172 
L 619.874561 159.028391 
L 622.245666 159.089924 
L 624.616771 159.006439 
L 626.987875 158.564816 
L 634.10119 158.615427 
L 638.843399 158.523759 
L 643.585609 158.057864 
L 645.956714 157.945532 
L 648.327819 157.648893 
L 655.441133 157.470141 
L 657.812238 157.256665 
L 660.183343 156.795259 
L 664.925552 156.409793 
L 674.409972 155.718946 
L 679.152181 155.140719 
L 683.894391 154.743812 
L 688.636601 154.715576 
L 698.12102 153.636472 
L 700.492125 153.551048 
L 702.863229 153.291008 
L 705.234334 153.168398 
L 714.718754 151.843052 
L 717.089858 151.667728 
L 719.460963 151.276972 
L 721.832068 151.078378 
L 733.687592 149.1254 
L 736.058697 148.805853 
L 738.429802 148.625061 
L 745.543116 147.432511 
L 747.914221 147.090732 
L 755.027535 146.398663 
L 766.883059 144.790467 
L 769.254164 144.513389 
L 771.625269 144.354446 
L 781.109688 143.001356 
L 788.223003 142.04775 
L 792.965212 141.067564 
L 795.336317 140.879941 
L 797.707422 140.257913 
L 800.078527 139.987168 
L 802.449632 139.553441 
L 804.820737 139.255702 
L 826.16068 135.29834 
L 840.387309 132.13303 
L 849.871728 129.861702 
L 852.242833 129.539479 
L 854.613938 128.782149 
L 864.098357 126.598109 
L 866.469462 128.524853 
L 871.211671 129.718755 
L 878.324986 130.461289 
L 883.067195 131.259303 
L 885.4383 131.734829 
L 887.809405 132.479567 
L 892.551615 133.282813 
L 894.92272 133.806839 
L 897.293824 135.178951 
L 899.664929 136.349689 
L 902.036034 137.296744 
L 904.407139 138.509994 
L 909.149348 140.065825 
L 913.891558 142.064122 
L 916.262663 144.059757 
L 921.004873 147.260419 
L 928.118187 150.563911 
L 935.231501 154.221022 
L 937.602606 155.681671 
L 942.344816 157.642453 
L 944.715921 158.813467 
L 951.829235 162.964024 
L 954.20034 164.612003 
L 958.94255 166.981186 
L 961.313654 168.340843 
L 963.684759 170.322086 
L 970.798074 175.595655 
L 977.911388 179.619242 
L 985.024703 184.538141 
L 987.395807 186.478782 
L 992.138017 189.328477 
L 996.880227 192.523744 
L 999.251331 194.300628 
L 1001.622436 195.855969 
L 1003.993541 197.728123 
L 1006.364646 198.564837 
L 1008.735751 201.209385 
L 1015.849065 206.014896 
L 1018.22017 207.214483 
L 1020.591275 208.664059 
L 1022.96238 208.832991 
L 1025.333484 210.438796 
L 1027.704589 208.726881 
L 1030.075694 207.693014 
L 1032.446799 206.882722 
L 1034.817904 202.297881 
L 1037.189008 190.749198 
L 1039.560113 193.056793 
L 1041.931218 178.992321 
L 1044.302323 169.809393 
L 1046.673428 158.658761 
L 1049.044533 148.461 
L 1051.415637 155.863777 
L 1053.786742 149.683902 
L 1056.157847 137.885939 
L 1058.528952 135.644613 
L 1060.900057 135.566784 
L 1063.271161 133.002905 
L 1065.642266 130.608517 
L 1068.013371 134.250739 
L 1070.384476 126.017661 
L 1072.755581 128.20768 
L 1075.126686 124.617914 
L 1077.49779 125.430828 
L 1079.868895 122.612843 
L 1082.24 124.009399 
L 1082.24 124.009399 
" clip-path="url(#pea35754b96)" style="fill: none; stroke: #ff0000; stroke-opacity: 0.4; stroke-width: 5; stroke-linecap: square"/>
   </g>
   <g id="patch_3">
    <path d="M 245.24 395.28 
L 245.24 7.2 
" style="fill: none; stroke: #000000; stroke-width: 0.8; stroke-linejoin: miter; stroke-linecap: square"/>
   </g>
   <g id="patch_4">
    <path d="M 1082.24 395.28 
L 1082.24 7.2 
" style="fill: none; stroke: #000000; stroke-width: 0.8; stroke-linejoin: miter; stroke-linecap: square"/>
   </g>
   <g id="patch_5">
    <path d="M 245.24 395.28 
L 1082.24 395.28 
" style="fill: none; stroke: #000000; stroke-width: 0.8; stroke-linejoin: miter; stroke-linecap: square"/>
   </g>
   <g id="patch_6">
    <path d="M 245.24 7.2 
L 1082.24 7.2 
" style="fill: none; stroke: #000000; stroke-width: 0.8; stroke-linejoin: miter; stroke-linecap: square"/>
   </g>
   <g id="legend_1">
    <g id="patch_7">
     <path d="M 460.89 783.36 
L 1302.535 783.36 
Q 1308.935 783.36 1308.935 776.96 
L 1308.935 733.19 
Q 1308.935 726.79 1302.535 726.79 
L 460.89 726.79 
Q 454.49 726.79 454.49 733.19 
L 454.49 776.96 
Q 454.49 783.36 460.89 783.36 
z
" style="fill: #ffffff; opacity: 0.8; stroke: #cccccc; stroke-linejoin: miter"/>
    </g>
    <g id="line2d_26">
     <path d="M 467.29 752.705 
L 499.29 752.705 
L 531.29 752.705 
" style="fill: none; stroke: #ff0000; stroke-opacity: 0.4; stroke-width: 5; stroke-linecap: square"/>
    </g>
    <g id="text_26">
     <!-- With vaccination -->
     <g transform="translate(556.89 763.905) scale(0.32 -0.32)">
      <defs>
       <path id="DejaVuSans-57" d="M 213 4666 
L 850 4666 
L 1831 722 
L 2809 4666 
L 3519 4666 
L 4500 722 
L 5478 4666 
L 6119 4666 
L 4947 0 
L 4153 0 
L 3169 4050 
L 2175 0 
L 1381 0 
L 213 4666 
z
" transform="scale(0.015625)"/>
       <path id="DejaVuSans-68" d="M 3513 2113 
L 3513 0 
L 2938 0 
L 2938 2094 
Q 2938 2591 2744 2837 
Q 2550 3084 2163 3084 
Q 1697 3084 1428 2787 
Q 1159 2491 1159 1978 
L 1159 0 
L 581 0 
L 581 4863 
L 1159 4863 
L 1159 2956 
Q 1366 3272 1645 3428 
Q 1925 3584 2291 3584 
Q 2894 3584 3203 3211 
Q 3513 2838 3513 2113 
z
" transform="scale(0.015625)"/>
       <path id="DejaVuSans-76" d="M 191 3500 
L 800 3500 
L 1894 563 
L 2988 3500 
L 3597 3500 
L 2284 0 
L 1503 0 
L 191 3500 
z
" transform="scale(0.015625)"/>
       <path id="DejaVuSans-6f" d="M 1959 3097 
Q 1497 3097 1228 2736 
Q 959 2375 959 1747 
Q 959 1119 1226 758 
Q 1494 397 1959 397 
Q 2419 397 2687 759 
Q 2956 1122 2956 1747 
Q 2956 2369 2687 2733 
Q 2419 3097 1959 3097 
z
M 1959 3584 
Q 2709 3584 3137 3096 
Q 3566 2609 3566 1747 
Q 3566 888 3137 398 
Q 2709 -91 1959 -91 
Q 1206 -91 779 398 
Q 353 888 353 1747 
Q 353 2609 779 3096 
Q 1206 3584 1959 3584 
z
" transform="scale(0.015625)"/>
      </defs>
      <use xlink:href="#DejaVuSans-57"/>
      <use xlink:href="#DejaVuSans-69" x="96.626953"/>
      <use xlink:href="#DejaVuSans-74" x="124.410156"/>
      <use xlink:href="#DejaVuSans-68" x="163.619141"/>
      <use xlink:href="#DejaVuSans-20" x="226.998047"/>
      <use xlink:href="#DejaVuSans-76" x="258.785156"/>
      <use xlink:href="#DejaVuSans-61" x="317.964844"/>
      <use xlink:href="#DejaVuSans-63" x="379.244141"/>
      <use xlink:href="#DejaVuSans-63" x="434.224609"/>
      <use xlink:href="#DejaVuSans-69" x="489.205078"/>
      <use xlink:href="#DejaVuSans-6e" x="516.988281"/>
      <use xlink:href="#DejaVuSans-61" x="580.367188"/>
      <use xlink:href="#DejaVuSans-74" x="641.646484"/>
      <use xlink:href="#DejaVuSans-69" x="680.855469"/>
      <use xlink:href="#DejaVuSans-6f" x="708.638672"/>
      <use xlink:href="#DejaVuSans-6e" x="769.820312"/>
     </g>
    </g>
    <g id="patch_8">
     <path d="M 887.51 763.905 
L 951.51 763.905 
L 951.51 741.505 
L 887.51 741.505 
z
" style="fill: #008000; fill-opacity: 0.3; stroke: #008000; stroke-opacity: 0.3; stroke-linejoin: miter"/>
    </g>
    <g id="text_27">
     <!-- Without vaccination -->
     <g transform="translate(977.11 763.905) scale(0.32 -0.32)">
      <use xlink:href="#DejaVuSans-57"/>
      <use xlink:href="#DejaVuSans-69" x="96.626953"/>
      <use xlink:href="#DejaVuSans-74" x="124.410156"/>
      <use xlink:href="#DejaVuSans-68" x="163.619141"/>
      <use xlink:href="#DejaVuSans-6f" x="226.998047"/>
      <use xlink:href="#DejaVuSans-75" x="288.179688"/>
      <use xlink:href="#DejaVuSans-74" x="351.558594"/>
      <use xlink:href="#DejaVuSans-20" x="390.767578"/>
      <use xlink:href="#DejaVuSans-76" x="422.554688"/>
      <use xlink:href="#DejaVuSans-61" x="481.734375"/>
      <use xlink:href="#DejaVuSans-63" x="543.013672"/>
      <use xlink:href="#DejaVuSans-63" x="597.994141"/>
      <use xlink:href="#DejaVuSans-69" x="652.974609"/>
      <use xlink:href="#DejaVuSans-6e" x="680.757812"/>
      <use xlink:href="#DejaVuSans-61" x="744.136719"/>
      <use xlink:href="#DejaVuSans-74" x="805.416016"/>
      <use xlink:href="#DejaVuSans-69" x="844.625"/>
      <use xlink:href="#DejaVuSans-6f" x="872.408203"/>
      <use xlink:href="#DejaVuSans-6e" x="933.589844"/>
     </g>
    </g>
   </g>
  </g>
 </g>
 <defs>
  <clipPath id="pea35754b96">
   <rect x="245.24" y="7.2" width="837" height="388.08"/>
  </clipPath>
 </defs>
</svg>
