<?xml version="1.0" encoding="utf-8" standalone="no"?>
<!DOCTYPE svg PUBLIC "-//W3C//DTD SVG 1.1//EN"
  "http://www.w3.org/Graphics/SVG/1.1/DTD/svg11.dtd">
<svg xmlns:xlink="http://www.w3.org/1999/xlink" width="656.958125pt" height="540.100875pt" viewBox="0 0 656.958125 540.100875" xmlns="http://www.w3.org/2000/svg" version="1.1">
 <metadata>
  <rdf:RDF xmlns:dc="http://purl.org/dc/elements/1.1/" xmlns:cc="http://creativecommons.org/ns#" xmlns:rdf="http://www.w3.org/1999/02/22-rdf-syntax-ns#">
   <cc:Work>
    <dc:type rdf:resource="http://purl.org/dc/dcmitype/StillImage"/>
    <dc:date>2024-04-19T17:19:17.112809</dc:date>
    <dc:format>image/svg+xml</dc:format>
    <dc:creator>
     <cc:Agent>
      <dc:title>Matplotlib v3.8.4, https://matplotlib.org/</dc:title>
     </cc:Agent>
    </dc:creator>
   </cc:Work>
  </rdf:RDF>
 </metadata>
 <defs>
  <style type="text/css">*{stroke-linejoin: round; stroke-linecap: butt}</style>
 </defs>
 <g id="figure_1">
  <g id="patch_1">
   <path d="M 0 540.100875 
L 656.958125 540.100875 
L 656.958125 0 
L 0 0 
z
" style="fill: #ffffff"/>
  </g>
  <g id="axes_1">
   <g id="patch_2">
    <path d="M 91.758125 416.476875 
L 649.758125 416.476875 
L 649.758125 28.396875 
L 91.758125 28.396875 
z
" style="fill: #ffffff"/>
   </g>
   <g id="PolyCollection_1">
    <defs>
     <path id="m71fc0d8d64" d="M 117.121761 -461.707647 
L 117.121761 -392.097076 
L 117.897408 -447.524475 
L 118.673054 -465.302939 
L 119.4487 -472.267908 
L 120.224347 -475.411722 
L 120.999993 -476.99035 
L 121.77564 -477.85206 
L 122.551286 -478.355165 
L 123.326932 -478.66561 
L 124.102579 -478.866226 
L 124.878225 -479.00102 
L 125.653871 -479.094633 
L 126.429518 -479.161505 
L 127.205164 -479.210436 
L 127.980811 -479.246971 
L 128.756457 -479.274718 
L 129.532103 -479.296083 
L 130.30775 -479.31271 
L 131.083396 -479.325747 
L 131.859042 -479.333368 
L 132.634689 -479.322222 
L 133.410335 -479.309181 
L 134.185982 -479.294081 
L 134.961628 -479.276731 
L 135.737274 -479.256907 
L 136.512921 -479.234357 
L 137.288567 -479.208799 
L 138.064213 -479.179921 
L 138.83986 -479.147375 
L 139.615506 -479.110785 
L 140.391153 -479.069736 
L 141.166799 -479.023779 
L 141.942445 -478.972427 
L 142.718092 -478.915155 
L 143.493738 -478.851396 
L 144.269384 -478.780541 
L 145.045031 -478.701939 
L 145.820677 -478.614894 
L 146.596323 -478.518666 
L 147.37197 -478.412466 
L 148.147616 -478.29546 
L 148.923263 -478.166766 
L 149.698909 -478.025454 
L 150.474555 -477.870544 
L 151.250202 -477.701011 
L 152.025848 -477.515781 
L 152.801494 -477.313733 
L 153.577141 -477.093701 
L 154.352787 -476.854473 
L 155.128434 -476.594796 
L 155.90408 -476.313374 
L 156.679726 -476.008875 
L 157.455373 -475.67993 
L 158.231019 -475.325136 
L 159.006665 -474.943064 
L 159.782312 -474.532255 
L 160.557958 -474.091232 
L 161.333605 -473.618499 
L 162.109251 -473.112549 
L 162.884897 -472.571865 
L 163.660544 -471.994931 
L 164.43619 -471.380232 
L 165.211836 -470.726263 
L 165.987483 -470.031533 
L 166.763129 -469.294573 
L 167.538776 -468.513939 
L 168.314422 -467.688223 
L 169.090068 -466.816056 
L 169.865715 -465.896112 
L 170.641361 -464.927121 
L 171.417007 -463.907869 
L 172.192654 -462.837206 
L 172.9683 -461.714053 
L 173.743947 -460.537406 
L 174.519593 -459.306343 
L 175.295239 -458.020028 
L 176.070886 -456.677714 
L 176.846532 -455.278753 
L 177.622178 -453.822595 
L 178.397825 -452.308791 
L 179.173471 -450.737002 
L 179.949117 -449.106997 
L 180.724764 -447.418655 
L 181.50041 -445.67197 
L 182.276057 -443.867051 
L 183.051703 -442.00412 
L 183.827349 -440.083518 
L 184.602996 -438.105698 
L 185.378642 -436.071232 
L 186.154288 -433.980802 
L 186.929935 -431.835203 
L 187.705581 -429.635342 
L 188.481228 -427.382229 
L 189.256874 -425.076981 
L 190.03252 -422.720816 
L 190.808167 -420.315047 
L 191.583813 -417.861081 
L 192.359459 -415.360412 
L 193.135106 -412.81462 
L 193.910752 -410.225361 
L 194.686399 -407.594363 
L 195.462045 -404.923426 
L 196.237691 -402.214406 
L 197.013338 -399.469221 
L 197.788984 -396.689835 
L 198.56463 -393.878259 
L 199.340277 -391.036541 
L 200.115923 -388.166761 
L 200.89157 -385.271028 
L 201.667216 -382.351469 
L 202.442862 -379.410227 
L 203.218509 -376.449455 
L 203.994155 -373.471307 
L 204.769801 -370.477938 
L 205.545448 -367.471495 
L 206.321094 -364.454112 
L 207.096741 -361.427908 
L 207.872387 -358.394979 
L 208.648033 -355.357396 
L 209.42368 -352.3172 
L 210.199326 -349.276396 
L 210.974972 -346.236955 
L 211.750619 -343.200804 
L 212.526265 -340.169829 
L 213.301911 -337.145866 
L 214.077558 -334.130703 
L 214.853204 -331.126076 
L 215.628851 -328.133668 
L 216.404497 -325.155104 
L 217.180143 -322.191955 
L 217.95579 -319.24573 
L 218.731436 -316.31788 
L 219.507082 -313.409796 
L 220.282729 -310.522806 
L 221.058375 -307.658177 
L 221.834022 -304.817115 
L 222.609668 -302.000762 
L 223.385314 -299.2102 
L 224.160961 -296.446448 
L 224.936607 -293.710463 
L 225.712253 -291.003145 
L 226.4879 -288.325329 
L 227.263546 -285.677796 
L 228.039193 -283.061264 
L 228.814839 -280.476398 
L 229.590485 -277.923804 
L 230.366132 -275.404036 
L 231.141778 -272.917593 
L 231.917424 -270.464922 
L 232.693071 -268.046419 
L 233.468717 -265.662433 
L 234.244364 -263.313265 
L 235.02001 -260.999168 
L 235.795656 -258.720352 
L 236.571303 -256.476985 
L 237.346949 -254.269193 
L 238.122595 -252.097062 
L 238.898242 -249.960643 
L 239.673888 -247.859946 
L 240.449535 -245.794952 
L 241.225181 -243.765603 
L 242.000827 -241.771816 
L 242.776474 -239.813473 
L 243.55212 -237.890431 
L 244.327766 -236.002518 
L 245.103413 -234.149539 
L 245.879059 -232.331274 
L 246.654705 -230.547481 
L 247.430352 -228.797896 
L 248.205998 -227.082238 
L 248.981645 -225.400205 
L 249.757291 -223.75148 
L 250.532937 -222.13573 
L 251.308584 -220.552606 
L 252.08423 -219.001747 
L 252.859876 -217.48278 
L 253.635523 -215.995321 
L 254.411169 -214.538974 
L 255.186816 -213.113337 
L 255.962462 -211.717996 
L 256.738108 -210.352534 
L 257.513755 -209.016525 
L 258.289401 -207.709537 
L 259.065047 -206.431136 
L 259.840694 -205.180881 
L 260.61634 -203.958329 
L 261.391987 -202.763036 
L 262.167633 -201.594554 
L 262.943279 -200.452435 
L 263.718926 -199.336229 
L 264.494572 -198.245486 
L 265.270218 -197.179758 
L 266.045865 -196.138597 
L 266.821511 -195.121555 
L 267.597158 -194.128188 
L 268.372804 -193.158052 
L 269.14845 -192.210707 
L 269.924097 -191.285715 
L 270.699743 -190.382641 
L 271.475389 -189.501055 
L 272.251036 -188.640529 
L 273.026682 -187.80064 
L 273.802329 -186.980968 
L 274.577975 -186.1811 
L 275.353621 -185.400625 
L 276.129268 -184.639137 
L 276.904914 -183.896238 
L 277.68056 -183.171531 
L 278.456207 -182.464627 
L 279.231853 -181.775142 
L 280.007499 -181.102696 
L 280.783146 -180.446916 
L 281.558792 -179.807434 
L 282.334439 -179.183889 
L 283.110085 -178.575924 
L 283.885731 -177.983187 
L 284.661378 -177.405336 
L 285.437024 -176.84203 
L 286.21267 -176.292937 
L 286.988317 -175.757729 
L 287.763963 -175.236085 
L 288.53961 -174.727689 
L 289.315256 -174.232232 
L 290.090902 -173.74941 
L 290.866549 -173.278925 
L 291.642195 -172.820485 
L 292.417841 -172.373802 
L 293.193488 -171.938595 
L 293.969134 -171.51459 
L 294.744781 -171.101517 
L 295.520427 -170.699111 
L 296.296073 -170.307113 
L 297.07172 -169.92527 
L 297.847366 -169.553333 
L 298.623012 -169.191061 
L 299.398659 -168.838214 
L 300.174305 -168.494561 
L 300.949952 -168.159874 
L 301.725598 -167.83393 
L 302.501244 -167.516513 
L 303.276891 -167.207408 
L 304.052537 -166.906409 
L 304.828183 -166.613311 
L 305.60383 -166.327917 
L 306.379476 -166.050031 
L 307.155122 -165.779464 
L 307.930769 -165.516031 
L 308.706415 -165.259551 
L 309.482062 -165.009846 
L 310.257708 -164.766745 
L 311.033354 -164.530078 
L 311.809001 -164.299681 
L 312.584647 -164.075393 
L 313.360293 -163.857057 
L 314.13594 -163.64452 
L 314.911586 -163.437632 
L 315.687233 -163.236248 
L 316.462879 -163.040226 
L 317.238525 -162.849426 
L 318.014172 -162.663712 
L 318.789818 -162.482954 
L 319.565464 -162.307021 
L 320.341111 -162.135789 
L 321.116757 -161.969134 
L 321.892404 -161.806937 
L 322.66805 -161.649081 
L 323.443696 -161.495452 
L 324.219343 -161.345941 
L 324.994989 -161.200438 
L 325.770635 -161.058839 
L 326.546282 -160.92104 
L 327.321928 -160.786941 
L 328.097575 -160.656445 
L 328.873221 -160.529458 
L 329.648867 -160.405885 
L 330.424514 -160.285637 
L 331.20016 -160.168626 
L 331.975806 -160.054766 
L 332.751453 -159.943973 
L 333.527099 -159.836166 
L 334.302746 -159.731266 
L 335.078392 -159.629196 
L 335.854038 -159.529879 
L 336.629685 -159.433244 
L 337.405331 -159.339218 
L 338.180977 -159.247731 
L 338.956624 -159.158717 
L 339.73227 -159.072109 
L 340.507916 -158.987842 
L 341.283563 -158.905855 
L 342.059209 -158.826086 
L 342.834856 -158.748475 
L 343.610502 -158.672966 
L 344.386148 -158.599501 
L 345.161795 -158.528026 
L 345.937441 -158.458487 
L 346.713087 -158.390833 
L 347.488734 -158.325013 
L 348.26438 -158.260977 
L 349.040027 -158.198677 
L 349.815673 -158.138068 
L 350.591319 -158.079103 
L 351.366966 -158.021738 
L 352.142612 -157.96593 
L 352.918258 -157.911638 
L 353.693905 -157.858819 
L 354.469551 -157.807435 
L 355.245198 -157.757447 
L 356.020844 -157.708817 
L 356.79649 -157.661508 
L 357.572137 -157.615485 
L 358.347783 -157.570713 
L 359.123429 -157.527159 
L 359.899076 -157.484788 
L 360.674722 -157.44357 
L 361.450369 -157.403473 
L 362.226015 -157.364467 
L 363.001661 -157.326522 
L 363.777308 -157.28961 
L 364.552954 -157.253702 
L 365.3286 -157.218772 
L 366.104247 -157.184792 
L 366.879893 -157.151738 
L 367.65554 -157.119584 
L 368.431186 -157.088305 
L 369.206832 -157.057878 
L 369.982479 -157.02828 
L 370.758125 -156.999488 
L 371.533771 -156.971481 
L 372.309418 -156.944236 
L 373.085064 -156.917734 
L 373.86071 -156.891955 
L 374.636357 -156.866877 
L 375.412003 -156.842484 
L 376.18765 -156.818755 
L 376.963296 -156.795673 
L 377.738942 -156.773221 
L 378.514589 -156.751381 
L 379.290235 -156.730136 
L 380.065881 -156.709471 
L 380.841528 -156.689369 
L 381.617174 -156.669815 
L 382.392821 -156.650795 
L 383.168467 -156.632294 
L 383.944113 -156.614297 
L 384.71976 -156.596792 
L 385.495406 -156.579764 
L 386.271052 -156.5632 
L 387.046699 -156.547089 
L 387.822345 -156.531417 
L 388.597992 -156.516173 
L 389.373638 -156.501345 
L 390.149284 -156.486921 
L 390.924931 -156.472892 
L 391.700577 -156.459245 
L 392.476223 -156.445971 
L 393.25187 -156.433059 
L 394.027516 -156.4205 
L 394.803163 -156.408283 
L 395.578809 -156.3964 
L 396.354455 -156.384842 
L 397.130102 -156.373599 
L 397.905748 -156.362663 
L 398.681394 -156.352026 
L 399.457041 -156.341679 
L 400.232687 -156.331614 
L 401.008334 -156.321825 
L 401.78398 -156.312303 
L 402.559626 -156.303041 
L 403.335273 -156.294032 
L 404.110919 -156.285269 
L 404.886565 -156.276745 
L 405.662212 -156.268455 
L 406.437858 -156.26039 
L 407.213504 -156.252546 
L 407.989151 -156.244917 
L 408.764797 -156.237495 
L 409.540444 -156.230277 
L 410.31609 -156.223255 
L 411.091736 -156.216426 
L 411.867383 -156.209783 
L 412.643029 -156.203322 
L 413.418675 -156.197037 
L 414.194322 -156.190924 
L 414.969968 -156.184977 
L 415.745615 -156.179194 
L 416.521261 -156.173568 
L 417.296907 -156.168096 
L 418.072554 -156.162774 
L 418.8482 -156.157597 
L 419.623846 -156.152561 
L 420.399493 -156.147664 
L 421.175139 -156.1429 
L 421.950786 -156.138266 
L 422.726432 -156.133759 
L 423.502078 -156.129375 
L 424.277725 -156.12511 
L 425.053371 -156.120963 
L 425.829017 -156.116928 
L 426.604664 -156.113004 
L 427.38031 -156.109188 
L 428.155957 -156.105475 
L 428.931603 -156.101864 
L 429.707249 -156.098352 
L 430.482896 -156.094935 
L 431.258542 -156.091613 
L 432.034188 -156.08838 
L 432.809835 -156.085237 
L 433.585481 -156.082179 
L 434.361128 -156.079205 
L 435.136774 -156.076312 
L 435.91242 -156.073498 
L 436.688067 -156.070761 
L 437.463713 -156.068099 
L 438.239359 -156.065509 
L 439.015006 -156.062991 
L 439.790652 -156.060541 
L 440.566298 -156.058158 
L 441.341945 -156.055841 
L 442.117591 -156.053587 
L 442.893238 -156.051394 
L 443.668884 -156.049261 
L 444.44453 -156.047187 
L 445.220177 -156.045169 
L 445.995823 -156.043207 
L 446.771469 -156.041298 
L 447.547116 -156.039441 
L 448.322762 -156.037635 
L 449.098409 -156.035879 
L 449.874055 -156.03417 
L 450.649701 -156.032508 
L 451.425348 -156.030892 
L 452.200994 -156.02932 
L 452.97664 -156.02779 
L 453.752287 -156.026303 
L 454.527933 -156.024856 
L 455.30358 -156.023449 
L 456.079226 -156.02208 
L 456.854872 -156.020749 
L 457.630519 -156.019454 
L 458.406165 -156.018195 
L 459.181811 -156.01697 
L 459.957458 -156.015778 
L 460.733104 -156.014619 
L 461.508751 -156.013492 
L 462.284397 -156.012395 
L 463.060043 -156.011329 
L 463.83569 -156.010291 
L 464.611336 -156.009282 
L 465.386982 -156.008301 
L 466.162629 -156.007346 
L 466.938275 -156.006418 
L 467.713921 -156.005515 
L 468.489568 -156.004637 
L 469.265214 -156.003782 
L 470.040861 -156.002951 
L 470.816507 -156.002143 
L 471.592153 -156.001357 
L 472.3678 -156.000592 
L 473.143446 -155.999848 
L 473.919092 -155.999125 
L 474.694739 -155.998421 
L 475.470385 -155.997737 
L 476.246032 -155.997071 
L 477.021678 -155.996424 
L 477.797324 -155.995794 
L 478.572971 -155.995181 
L 479.348617 -155.994585 
L 480.124263 -155.994006 
L 480.89991 -155.993442 
L 481.675556 -155.992894 
L 482.451203 -155.992361 
L 483.226849 -155.991842 
L 484.002495 -155.991337 
L 484.778142 -155.990847 
L 485.553788 -155.990369 
L 486.329434 -155.989905 
L 487.105081 -155.989453 
L 487.880727 -155.989014 
L 488.656374 -155.988587 
L 489.43202 -155.988172 
L 490.207666 -155.987767 
L 490.983313 -155.987374 
L 491.758959 -155.986992 
L 492.534605 -155.98662 
L 493.310252 -155.986258 
L 494.085898 -155.985906 
L 494.861545 -155.985564 
L 495.637191 -155.985231 
L 496.412837 -155.984908 
L 497.188484 -155.984593 
L 497.96413 -155.984286 
L 498.739776 -155.983988 
L 499.515423 -155.983699 
L 500.291069 -155.983417 
L 501.066715 -155.983143 
L 501.842362 -155.982876 
L 502.618008 -155.982617 
L 503.393655 -155.982364 
L 504.169301 -155.982119 
L 504.944947 -155.98188 
L 505.720594 -155.981648 
L 506.49624 -155.981422 
L 507.271886 -155.981203 
L 508.047533 -155.980989 
L 508.823179 -155.980781 
L 509.598826 -155.980579 
L 510.374472 -155.980383 
L 511.150118 -155.980192 
L 511.925765 -155.980006 
L 512.701411 -155.979825 
L 513.477057 -155.979649 
L 514.252704 -155.979478 
L 515.02835 -155.979311 
L 515.803997 -155.979149 
L 516.579643 -155.978992 
L 517.355289 -155.978839 
L 518.130936 -155.97869 
L 518.906582 -155.978545 
L 519.682228 -155.978404 
L 520.457875 -155.978267 
L 521.233521 -155.978134 
L 522.009168 -155.978004 
L 522.784814 -155.977878 
L 523.56046 -155.977755 
L 524.336107 -155.977636 
L 525.111753 -155.97752 
L 525.887399 -155.977407 
L 526.663046 -155.977297 
L 527.438692 -155.97719 
L 528.214339 -155.977086 
L 528.989985 -155.976985 
L 529.765631 -155.976887 
L 530.541278 -155.976791 
L 531.316924 -155.976698 
L 532.09257 -155.976608 
L 532.868217 -155.97652 
L 533.643863 -155.976434 
L 534.419509 -155.976351 
L 535.195156 -155.97627 
L 535.970802 -155.976191 
L 536.746449 -155.976115 
L 537.522095 -155.97604 
L 538.297741 -155.975968 
L 539.073388 -155.975897 
L 539.849034 -155.975829 
L 540.62468 -155.975762 
L 541.400327 -155.975697 
L 542.175973 -155.975634 
L 542.95162 -155.975573 
L 543.727266 -155.975513 
L 544.502912 -155.975455 
L 545.278559 -155.975399 
L 546.054205 -155.975344 
L 546.829851 -155.975291 
L 547.605498 -155.975239 
L 548.381144 -155.975188 
L 549.156791 -155.975139 
L 549.932437 -155.975091 
L 550.708083 -155.975045 
L 551.48373 -155.974999 
L 552.259376 -155.974955 
L 553.035022 -155.974913 
L 553.810669 -155.974871 
L 554.586315 -155.974831 
L 555.361962 -155.974791 
L 556.137608 -155.974753 
L 556.913254 -155.974716 
L 557.688901 -155.974679 
L 558.464547 -155.974644 
L 559.240193 -155.97461 
L 560.01584 -155.974577 
L 560.791486 -155.974544 
L 561.567133 -155.974513 
L 562.342779 -155.974482 
L 563.118425 -155.974452 
L 563.894072 -155.974423 
L 564.669718 -155.974395 
L 565.445364 -155.974367 
L 566.221011 -155.974341 
L 566.996657 -155.974315 
L 567.772303 -155.97429 
L 568.54795 -155.974265 
L 569.323596 -155.974241 
L 570.099243 -155.974218 
L 570.874889 -155.974195 
L 571.650535 -155.974173 
L 572.426182 -155.974152 
L 573.201828 -155.974131 
L 573.977474 -155.974111 
L 574.753121 -155.974091 
L 575.528767 -155.974072 
L 576.304414 -155.974053 
L 577.08006 -155.974035 
L 577.855706 -155.974018 
L 578.631353 -155.974001 
L 579.406999 -155.973984 
L 580.182645 -155.973968 
L 580.958292 -155.973952 
L 581.733938 -155.973937 
L 582.509585 -155.973922 
L 583.285231 -155.973907 
L 584.060877 -155.973893 
L 584.836524 -155.973879 
L 585.61217 -155.973866 
L 586.387816 -155.973853 
L 587.163463 -155.97384 
L 587.939109 -155.973828 
L 588.714756 -155.973816 
L 589.490402 -155.973804 
L 590.266048 -155.973793 
L 591.041695 -155.973782 
L 591.817341 -155.973771 
L 592.592987 -155.973761 
L 593.368634 -155.973751 
L 594.14428 -155.973741 
L 594.919927 -155.973732 
L 595.695573 -155.973722 
L 596.471219 -155.973713 
L 597.246866 -155.973704 
L 598.022512 -155.973696 
L 598.798158 -155.973687 
L 599.573805 -155.973679 
L 600.349451 -155.973671 
L 601.125097 -155.973664 
L 601.900744 -155.973656 
L 602.67639 -155.973649 
L 603.452037 -155.973642 
L 604.227683 -155.973635 
L 605.003329 -155.973628 
L 605.778976 -155.973622 
L 606.554622 -155.973616 
L 607.330268 -155.97361 
L 608.105915 -155.973604 
L 608.881561 -155.973598 
L 609.657208 -155.973592 
L 610.432854 -155.973587 
L 611.2085 -155.973581 
L 611.984147 -155.973576 
L 612.759793 -155.973571 
L 613.535439 -155.973566 
L 614.311086 -155.973561 
L 615.086732 -155.973557 
L 615.862379 -155.973552 
L 616.638025 -155.973548 
L 617.413671 -155.973543 
L 618.189318 -155.973539 
L 618.964964 -155.973535 
L 619.74061 -155.973531 
L 620.516257 -155.973527 
L 621.291903 -155.973524 
L 622.06755 -155.97352 
L 622.843196 -155.973517 
L 623.618842 -155.973513 
L 624.394489 -155.97351 
L 624.394489 -166.239778 
L 624.394489 -166.239778 
L 623.618842 -166.341448 
L 622.843196 -166.444106 
L 622.06755 -166.54776 
L 621.291903 -166.652419 
L 620.516257 -166.758092 
L 619.74061 -166.86479 
L 618.964964 -166.972521 
L 618.189318 -167.081296 
L 617.413671 -167.191123 
L 616.638025 -167.302013 
L 615.862379 -167.413975 
L 615.086732 -167.527019 
L 614.311086 -167.641156 
L 613.535439 -167.756394 
L 612.759793 -167.872746 
L 611.984147 -167.990219 
L 611.2085 -168.108826 
L 610.432854 -168.228576 
L 609.657208 -168.349479 
L 608.881561 -168.471547 
L 608.105915 -168.59479 
L 607.330268 -168.719219 
L 606.554622 -168.844844 
L 605.778976 -168.971676 
L 605.003329 -169.099727 
L 604.227683 -169.229008 
L 603.452037 -169.359529 
L 602.67639 -169.491302 
L 601.900744 -169.624338 
L 601.125097 -169.758649 
L 600.349451 -169.894246 
L 599.573805 -170.03114 
L 598.798158 -170.169345 
L 598.022512 -170.30887 
L 597.246866 -170.449729 
L 596.471219 -170.591933 
L 595.695573 -170.735494 
L 594.919927 -170.880425 
L 594.14428 -171.026737 
L 593.368634 -171.174443 
L 592.592987 -171.323555 
L 591.817341 -171.474087 
L 591.041695 -171.62605 
L 590.266048 -171.779457 
L 589.490402 -171.934322 
L 588.714756 -172.090656 
L 587.939109 -172.248474 
L 587.163463 -172.407788 
L 586.387816 -172.568611 
L 585.61217 -172.730957 
L 584.836524 -172.894838 
L 584.060877 -173.06027 
L 583.285231 -173.227264 
L 582.509585 -173.395836 
L 581.733938 -173.565998 
L 580.958292 -173.737764 
L 580.182645 -173.91115 
L 579.406999 -174.086167 
L 578.631353 -174.262832 
L 577.855706 -174.441157 
L 577.08006 -174.621158 
L 576.304414 -174.802849 
L 575.528767 -174.986244 
L 574.753121 -175.171359 
L 573.977474 -175.358208 
L 573.201828 -175.546805 
L 572.426182 -175.737166 
L 571.650535 -175.929306 
L 570.874889 -176.123241 
L 570.099243 -176.318985 
L 569.323596 -176.516553 
L 568.54795 -176.715962 
L 567.772303 -176.917226 
L 566.996657 -177.120363 
L 566.221011 -177.325386 
L 565.445364 -177.532313 
L 564.669718 -177.741159 
L 563.894072 -177.95194 
L 563.118425 -178.164673 
L 562.342779 -178.379374 
L 561.567133 -178.596059 
L 560.791486 -178.814744 
L 560.01584 -179.035447 
L 559.240193 -179.258184 
L 558.464547 -179.482972 
L 557.688901 -179.709827 
L 556.913254 -179.938767 
L 556.137608 -180.169809 
L 555.361962 -180.40297 
L 554.586315 -180.638267 
L 553.810669 -180.875717 
L 553.035022 -181.115339 
L 552.259376 -181.357149 
L 551.48373 -181.601166 
L 550.708083 -181.847407 
L 549.932437 -182.095891 
L 549.156791 -182.346634 
L 548.381144 -182.599655 
L 547.605498 -182.854972 
L 546.829851 -183.112604 
L 546.054205 -183.372569 
L 545.278559 -183.634885 
L 544.502912 -183.899571 
L 543.727266 -184.166645 
L 542.95162 -184.436127 
L 542.175973 -184.708034 
L 541.400327 -184.982386 
L 540.62468 -185.259202 
L 539.849034 -185.538501 
L 539.073388 -185.820302 
L 538.297741 -186.104624 
L 537.522095 -186.391487 
L 536.746449 -186.68091 
L 535.970802 -186.972912 
L 535.195156 -187.267514 
L 534.419509 -187.564734 
L 533.643863 -187.864593 
L 532.868217 -188.167109 
L 532.09257 -188.472304 
L 531.316924 -188.780198 
L 530.541278 -189.090809 
L 529.765631 -189.404158 
L 528.989985 -189.720266 
L 528.214339 -190.039153 
L 527.438692 -190.360838 
L 526.663046 -190.685343 
L 525.887399 -191.012688 
L 525.111753 -191.342893 
L 524.336107 -191.675978 
L 523.56046 -192.011966 
L 522.784814 -192.350875 
L 522.009168 -192.692728 
L 521.233521 -193.037544 
L 520.457875 -193.385345 
L 519.682228 -193.736151 
L 518.906582 -194.089983 
L 518.130936 -194.446863 
L 517.355289 -194.806812 
L 516.579643 -195.16985 
L 515.803997 -195.535999 
L 515.02835 -195.905279 
L 514.252704 -196.277712 
L 513.477057 -196.65332 
L 512.701411 -197.032123 
L 511.925765 -197.414143 
L 511.150118 -197.7994 
L 510.374472 -198.187917 
L 509.598826 -198.579715 
L 508.823179 -198.974815 
L 508.047533 -199.373238 
L 507.271886 -199.775006 
L 506.49624 -200.180139 
L 505.720594 -200.588661 
L 504.944947 -201.000591 
L 504.169301 -201.415952 
L 503.393655 -201.834764 
L 502.618008 -202.257049 
L 501.842362 -202.682828 
L 501.066715 -203.112123 
L 500.291069 -203.544955 
L 499.515423 -203.981345 
L 498.739776 -204.421315 
L 497.96413 -204.864885 
L 497.188484 -205.312077 
L 496.412837 -205.762912 
L 495.637191 -206.217411 
L 494.861545 -206.675596 
L 494.085898 -207.137486 
L 493.310252 -207.603104 
L 492.534605 -208.07247 
L 491.758959 -208.545604 
L 490.983313 -209.022528 
L 490.207666 -209.503262 
L 489.43202 -209.987826 
L 488.656374 -210.476242 
L 487.880727 -210.96853 
L 487.105081 -211.464709 
L 486.329434 -211.9648 
L 485.553788 -212.468824 
L 484.778142 -212.9768 
L 484.002495 -213.488748 
L 483.226849 -214.004687 
L 482.451203 -214.524638 
L 481.675556 -215.04862 
L 480.89991 -215.576652 
L 480.124263 -216.108754 
L 479.348617 -216.644944 
L 478.572971 -217.185241 
L 477.797324 -217.729664 
L 477.021678 -218.278232 
L 476.246032 -218.830963 
L 475.470385 -219.387875 
L 474.694739 -219.948987 
L 473.919092 -220.514315 
L 473.143446 -221.083878 
L 472.3678 -221.657693 
L 471.592153 -222.235776 
L 470.816507 -222.818146 
L 470.040861 -223.404819 
L 469.265214 -223.995811 
L 468.489568 -224.591139 
L 467.713921 -225.190818 
L 466.938275 -225.794864 
L 466.162629 -226.403293 
L 465.386982 -227.01612 
L 464.611336 -227.63336 
L 463.83569 -228.255027 
L 463.060043 -228.881135 
L 462.284397 -229.5117 
L 461.508751 -230.146733 
L 460.733104 -230.78625 
L 459.957458 -231.430262 
L 459.181811 -232.078783 
L 458.406165 -232.731824 
L 457.630519 -233.389398 
L 456.854872 -234.051517 
L 456.079226 -234.718191 
L 455.30358 -235.389432 
L 454.527933 -236.065249 
L 453.752287 -236.745654 
L 452.97664 -237.430656 
L 452.200994 -238.120263 
L 451.425348 -238.814485 
L 450.649701 -239.513331 
L 449.874055 -240.216807 
L 449.098409 -240.924922 
L 448.322762 -241.637683 
L 447.547116 -242.355095 
L 446.771469 -243.077166 
L 445.995823 -243.803901 
L 445.220177 -244.535304 
L 444.44453 -245.271381 
L 443.668884 -246.012134 
L 442.893238 -246.757569 
L 442.117591 -247.507687 
L 441.341945 -248.262492 
L 440.566298 -249.021984 
L 439.790652 -249.786166 
L 439.015006 -250.555037 
L 438.239359 -251.328599 
L 437.463713 -252.106849 
L 436.688067 -252.889788 
L 435.91242 -253.677414 
L 435.136774 -254.469723 
L 434.361128 -255.266714 
L 433.585481 -256.068382 
L 432.809835 -256.874722 
L 432.034188 -257.685731 
L 431.258542 -258.501402 
L 430.482896 -259.321728 
L 429.707249 -260.146704 
L 428.931603 -260.97632 
L 428.155957 -261.810568 
L 427.38031 -262.649439 
L 426.604664 -263.492923 
L 425.829017 -264.34101 
L 425.053371 -265.193686 
L 424.277725 -266.050941 
L 423.502078 -266.912761 
L 422.726432 -267.779132 
L 421.950786 -268.650039 
L 421.175139 -269.525467 
L 420.399493 -270.405399 
L 419.623846 -271.289819 
L 418.8482 -272.178707 
L 418.072554 -273.072046 
L 417.296907 -273.969815 
L 416.521261 -274.871994 
L 415.745615 -275.778562 
L 414.969968 -276.689495 
L 414.194322 -277.604771 
L 413.418675 -278.524365 
L 412.643029 -279.448252 
L 411.867383 -280.376406 
L 411.091736 -281.308801 
L 410.31609 -282.245407 
L 409.540444 -283.186197 
L 408.764797 -284.13114 
L 407.989151 -285.080206 
L 407.213504 -286.033362 
L 406.437858 -286.990577 
L 405.662212 -287.951815 
L 404.886565 -288.917044 
L 404.110919 -289.886226 
L 403.335273 -290.859325 
L 402.559626 -291.836303 
L 401.78398 -292.817122 
L 401.008334 -293.801742 
L 400.232687 -294.790121 
L 399.457041 -295.782218 
L 398.681394 -296.777991 
L 397.905748 -297.777394 
L 397.130102 -298.780384 
L 396.354455 -299.786914 
L 395.578809 -300.796936 
L 394.803163 -301.810404 
L 394.027516 -302.827267 
L 393.25187 -303.847476 
L 392.476223 -304.870978 
L 391.700577 -305.897722 
L 390.924931 -306.927654 
L 390.149284 -307.96072 
L 389.373638 -308.996863 
L 388.597992 -310.036028 
L 387.822345 -311.078156 
L 387.046699 -312.123189 
L 386.271052 -313.171066 
L 385.495406 -314.221728 
L 384.71976 -315.275111 
L 383.944113 -316.331152 
L 383.168467 -317.389789 
L 382.392821 -318.450954 
L 381.617174 -319.514583 
L 380.841528 -320.580607 
L 380.065881 -321.648959 
L 379.290235 -322.719568 
L 378.514589 -323.792365 
L 377.738942 -324.867279 
L 376.963296 -325.944236 
L 376.18765 -327.023163 
L 375.412003 -328.103986 
L 374.636357 -329.186628 
L 373.86071 -330.271015 
L 373.085064 -331.357068 
L 372.309418 -332.444708 
L 371.533771 -333.533858 
L 370.758125 -334.624435 
L 369.982479 -335.716359 
L 369.206832 -336.809547 
L 368.431186 -337.903918 
L 367.65554 -338.999385 
L 366.879893 -340.095866 
L 366.104247 -341.193273 
L 365.3286 -342.291521 
L 364.552954 -343.390521 
L 363.777308 -344.490186 
L 363.001661 -345.590427 
L 362.226015 -346.691153 
L 361.450369 -347.792274 
L 360.674722 -348.893699 
L 359.899076 -349.995335 
L 359.123429 -351.09709 
L 358.347783 -352.198871 
L 357.572137 -353.300582 
L 356.79649 -354.402129 
L 356.020844 -355.503417 
L 355.245198 -356.60435 
L 354.469551 -357.70483 
L 353.693905 -358.804762 
L 352.918258 -359.904046 
L 352.142612 -361.002585 
L 351.366966 -362.10028 
L 350.591319 -363.197032 
L 349.815673 -364.29274 
L 349.040027 -365.387306 
L 348.26438 -366.480629 
L 347.488734 -367.572608 
L 346.713087 -368.663142 
L 345.937441 -369.752129 
L 345.161795 -370.839468 
L 344.386148 -371.925058 
L 343.610502 -373.008795 
L 342.834856 -374.090579 
L 342.059209 -375.170305 
L 341.283563 -376.247873 
L 340.507916 -377.32318 
L 339.73227 -378.396123 
L 338.956624 -379.466599 
L 338.180977 -380.534506 
L 337.405331 -381.599742 
L 336.629685 -382.662204 
L 335.854038 -383.721789 
L 335.078392 -384.778397 
L 334.302746 -385.831925 
L 333.527099 -386.882271 
L 332.751453 -387.929334 
L 331.975806 -388.973013 
L 331.20016 -390.013208 
L 330.424514 -391.049818 
L 329.648867 -392.082743 
L 328.873221 -393.111883 
L 328.097575 -394.137141 
L 327.321928 -395.158417 
L 326.546282 -396.175614 
L 325.770635 -397.188634 
L 324.994989 -398.197381 
L 324.219343 -399.201759 
L 323.443696 -400.201673 
L 322.66805 -401.197028 
L 321.892404 -402.187732 
L 321.116757 -403.17369 
L 320.341111 -404.154811 
L 319.565464 -405.131004 
L 318.789818 -406.102179 
L 318.014172 -407.068247 
L 317.238525 -408.02912 
L 316.462879 -408.98471 
L 315.687233 -409.934932 
L 314.911586 -410.879702 
L 314.13594 -411.818934 
L 313.360293 -412.752547 
L 312.584647 -413.680459 
L 311.809001 -414.602591 
L 311.033354 -415.518864 
L 310.257708 -416.4292 
L 309.482062 -417.333523 
L 308.706415 -418.231759 
L 307.930769 -419.123834 
L 307.155122 -420.009676 
L 306.379476 -420.889216 
L 305.60383 -421.762385 
L 304.828183 -422.629114 
L 304.052537 -423.48934 
L 303.276891 -424.342996 
L 302.501244 -425.190022 
L 301.725598 -426.030356 
L 300.949952 -426.863939 
L 300.174305 -427.690714 
L 299.398659 -428.510624 
L 298.623012 -429.323616 
L 297.847366 -430.129639 
L 297.07172 -430.92864 
L 296.296073 -431.720572 
L 295.520427 -432.505388 
L 294.744781 -433.283043 
L 293.969134 -434.053493 
L 293.193488 -434.816699 
L 292.417841 -435.572619 
L 291.642195 -436.321218 
L 290.866549 -437.062459 
L 290.090902 -437.79631 
L 289.315256 -438.522737 
L 288.53961 -439.241713 
L 287.763963 -439.953208 
L 286.988317 -440.657198 
L 286.21267 -441.353658 
L 285.437024 -442.042568 
L 284.661378 -442.723907 
L 283.885731 -443.397657 
L 283.110085 -444.063802 
L 282.334439 -444.72233 
L 281.558792 -445.373228 
L 280.783146 -446.016486 
L 280.007499 -446.652097 
L 279.231853 -447.280055 
L 278.456207 -447.900356 
L 277.68056 -448.512998 
L 276.904914 -449.117981 
L 276.129268 -449.715308 
L 275.353621 -450.304982 
L 274.577975 -450.88701 
L 273.802329 -451.4614 
L 273.026682 -452.028161 
L 272.251036 -452.587304 
L 271.475389 -453.138845 
L 270.699743 -453.682798 
L 269.924097 -454.21918 
L 269.14845 -454.748012 
L 268.372804 -455.269313 
L 267.597158 -455.783108 
L 266.821511 -456.289419 
L 266.045865 -456.788275 
L 265.270218 -457.279702 
L 264.494572 -457.763731 
L 263.718926 -458.240394 
L 262.943279 -458.709723 
L 262.167633 -459.171753 
L 261.391987 -459.626521 
L 260.61634 -460.074065 
L 259.840694 -460.514424 
L 259.065047 -460.947639 
L 258.289401 -461.373754 
L 257.513755 -461.792811 
L 256.738108 -462.204856 
L 255.962462 -462.609936 
L 255.186816 -463.0081 
L 254.411169 -463.399397 
L 253.635523 -463.783877 
L 252.859876 -464.161593 
L 252.08423 -464.532597 
L 251.308584 -464.896945 
L 250.532937 -465.254692 
L 249.757291 -465.605895 
L 248.981645 -465.95061 
L 248.205998 -466.288899 
L 247.430352 -466.620819 
L 246.654705 -466.946431 
L 245.879059 -467.265799 
L 245.103413 -467.578983 
L 244.327766 -467.886047 
L 243.55212 -468.187057 
L 242.776474 -468.482075 
L 242.000827 -468.771169 
L 241.225181 -469.054405 
L 240.449535 -469.331849 
L 239.673888 -469.603569 
L 238.898242 -469.869633 
L 238.122595 -470.130111 
L 237.346949 -470.385071 
L 236.571303 -470.634583 
L 235.795656 -470.878717 
L 235.02001 -471.117543 
L 234.244364 -471.351132 
L 233.468717 -471.579556 
L 232.693071 -471.802885 
L 231.917424 -472.021192 
L 231.141778 -472.234547 
L 230.366132 -472.443023 
L 229.590485 -472.646692 
L 228.814839 -472.845625 
L 228.039193 -473.039895 
L 227.263546 -473.229574 
L 226.4879 -473.414734 
L 225.712253 -473.595447 
L 224.936607 -473.771786 
L 224.160961 -473.94382 
L 223.385314 -474.111624 
L 222.609668 -474.275267 
L 221.834022 -474.434821 
L 221.058375 -474.590357 
L 220.282729 -474.741947 
L 219.507082 -474.889659 
L 218.731436 -475.033564 
L 217.95579 -475.173732 
L 217.180143 -475.310233 
L 216.404497 -475.443134 
L 215.628851 -475.572505 
L 214.853204 -475.698414 
L 214.077558 -475.820927 
L 213.301911 -475.940113 
L 212.526265 -476.056037 
L 211.750619 -476.168765 
L 210.974972 -476.278363 
L 210.199326 -476.384895 
L 209.42368 -476.488426 
L 208.648033 -476.589018 
L 207.872387 -476.686735 
L 207.096741 -476.78164 
L 206.321094 -476.873793 
L 205.545448 -476.963255 
L 204.769801 -477.050086 
L 203.994155 -477.134346 
L 203.218509 -477.216094 
L 202.442862 -477.295387 
L 201.667216 -477.372282 
L 200.89157 -477.446836 
L 200.115923 -477.519104 
L 199.340277 -477.589142 
L 198.56463 -477.657003 
L 197.788984 -477.72274 
L 197.013338 -477.786407 
L 196.237691 -477.848054 
L 195.462045 -477.907732 
L 194.686399 -477.965492 
L 193.910752 -478.021382 
L 193.135106 -478.075451 
L 192.359459 -478.127747 
L 191.583813 -478.178315 
L 190.808167 -478.227203 
L 190.03252 -478.274455 
L 189.256874 -478.320114 
L 188.481228 -478.364226 
L 187.705581 -478.406831 
L 186.929935 -478.447973 
L 186.154288 -478.487691 
L 185.378642 -478.526026 
L 184.602996 -478.563017 
L 183.827349 -478.598702 
L 183.051703 -478.63312 
L 182.276057 -478.666307 
L 181.50041 -478.698299 
L 180.724764 -478.729131 
L 179.949117 -478.758838 
L 179.173471 -478.787453 
L 178.397825 -478.81501 
L 177.622178 -478.84154 
L 176.846532 -478.867075 
L 176.070886 -478.891646 
L 175.295239 -478.915282 
L 174.519593 -478.938012 
L 173.743947 -478.959866 
L 172.9683 -478.98087 
L 172.192654 -479.001052 
L 171.417007 -479.020437 
L 170.641361 -479.039052 
L 169.865715 -479.056921 
L 169.090068 -479.074069 
L 168.314422 -479.090519 
L 167.538776 -479.106294 
L 166.763129 -479.121415 
L 165.987483 -479.135906 
L 165.211836 -479.149785 
L 164.43619 -479.163075 
L 163.660544 -479.175794 
L 162.884897 -479.187961 
L 162.109251 -479.199596 
L 161.333605 -479.210714 
L 160.557958 -479.221335 
L 159.782312 -479.231473 
L 159.006665 -479.241146 
L 158.231019 -479.250369 
L 157.455373 -479.259155 
L 156.679726 -479.26752 
L 155.90408 -479.275477 
L 155.128434 -479.283039 
L 154.352787 -479.290217 
L 153.577141 -479.297024 
L 152.801494 -479.30347 
L 152.025848 -479.309566 
L 151.250202 -479.31532 
L 150.474555 -479.320742 
L 149.698909 -479.325839 
L 148.923263 -479.330618 
L 148.147616 -479.335086 
L 147.37197 -479.339247 
L 146.596323 -479.343105 
L 145.820677 -479.346662 
L 145.045031 -479.34992 
L 144.269384 -479.352878 
L 143.493738 -479.355533 
L 142.718092 -479.357881 
L 141.942445 -479.359915 
L 141.166799 -479.361623 
L 140.391153 -479.362993 
L 139.615506 -479.364005 
L 138.83986 -479.364635 
L 138.064213 -479.364854 
L 137.288567 -479.364621 
L 136.512921 -479.364269 
L 135.737274 -479.364786 
L 134.961628 -479.364784 
L 134.185982 -479.364196 
L 133.410335 -479.364525 
L 132.634689 -479.364854 
L 131.859042 -479.364492 
L 131.083396 -479.363933 
L 130.30775 -479.364746 
L 129.532103 -479.364739 
L 128.756457 -479.363747 
L 127.980811 -479.364291 
L 127.205164 -479.364854 
L 126.429518 -479.364191 
L 125.653871 -479.361929 
L 124.878225 -479.357488 
L 124.102579 -479.349936 
L 123.326932 -479.337697 
L 122.551286 -479.317939 
L 121.77564 -479.285197 
L 120.999993 -479.227907 
L 120.224347 -479.118548 
L 119.4487 -478.880587 
L 118.673054 -478.249714 
L 117.897408 -475.965843 
L 117.121761 -461.707647 
z
" style="stroke: #ffa500; stroke-opacity: 0.3"/>
    </defs>
    <g clip-path="url(#pa1550c1a22)">
     <use xlink:href="#m71fc0d8d64" x="0" y="540.100875" style="fill: #ffa500; fill-opacity: 0.3; stroke: #ffa500; stroke-opacity: 0.3"/>
    </g>
   </g>
   <g id="matplotlib.axis_1">
    <g id="xtick_1">
     <g id="line2d_1">
      <defs>
       <path id="mbd5b517825" d="M 0 0 
L 0 3.5 
" style="stroke: #000000; stroke-width: 0.8"/>
      </defs>
      <g>
       <use xlink:href="#mbd5b517825" x="116.346115" y="416.476875" style="stroke: #000000; stroke-width: 0.8"/>
      </g>
     </g>
     <g id="text_1">
      <!-- 0 -->
      <g transform="translate(109.983615 438.67375) scale(0.2 -0.2)">
       <defs>
        <path id="DejaVuSans-30" d="M 2034 4250 
Q 1547 4250 1301 3770 
Q 1056 3291 1056 2328 
Q 1056 1369 1301 889 
Q 1547 409 2034 409 
Q 2525 409 2770 889 
Q 3016 1369 3016 2328 
Q 3016 3291 2770 3770 
Q 2525 4250 2034 4250 
z
M 2034 4750 
Q 2819 4750 3233 4129 
Q 3647 3509 3647 2328 
Q 3647 1150 3233 529 
Q 2819 -91 2034 -91 
Q 1250 -91 836 529 
Q 422 1150 422 2328 
Q 422 3509 836 4129 
Q 1250 4750 2034 4750 
z
" transform="scale(0.015625)"/>
       </defs>
       <use xlink:href="#DejaVuSans-30"/>
      </g>
     </g>
    </g>
    <g id="xtick_2">
     <g id="line2d_2">
      <g>
       <use xlink:href="#mbd5b517825" x="193.910752" y="416.476875" style="stroke: #000000; stroke-width: 0.8"/>
      </g>
     </g>
     <g id="text_2">
      <!-- 100 -->
      <g transform="translate(174.823252 438.67375) scale(0.2 -0.2)">
       <defs>
        <path id="DejaVuSans-31" d="M 794 531 
L 1825 531 
L 1825 4091 
L 703 3866 
L 703 4441 
L 1819 4666 
L 2450 4666 
L 2450 531 
L 3481 531 
L 3481 0 
L 794 0 
L 794 531 
z
" transform="scale(0.015625)"/>
       </defs>
       <use xlink:href="#DejaVuSans-31"/>
       <use xlink:href="#DejaVuSans-30" x="63.623047"/>
       <use xlink:href="#DejaVuSans-30" x="127.246094"/>
      </g>
     </g>
    </g>
    <g id="xtick_3">
     <g id="line2d_3">
      <g>
       <use xlink:href="#mbd5b517825" x="271.475389" y="416.476875" style="stroke: #000000; stroke-width: 0.8"/>
      </g>
     </g>
     <g id="text_3">
      <!-- 200 -->
      <g transform="translate(252.387889 438.67375) scale(0.2 -0.2)">
       <defs>
        <path id="DejaVuSans-32" d="M 1228 531 
L 3431 531 
L 3431 0 
L 469 0 
L 469 531 
Q 828 903 1448 1529 
Q 2069 2156 2228 2338 
Q 2531 2678 2651 2914 
Q 2772 3150 2772 3378 
Q 2772 3750 2511 3984 
Q 2250 4219 1831 4219 
Q 1534 4219 1204 4116 
Q 875 4013 500 3803 
L 500 4441 
Q 881 4594 1212 4672 
Q 1544 4750 1819 4750 
Q 2544 4750 2975 4387 
Q 3406 4025 3406 3419 
Q 3406 3131 3298 2873 
Q 3191 2616 2906 2266 
Q 2828 2175 2409 1742 
Q 1991 1309 1228 531 
z
" transform="scale(0.015625)"/>
       </defs>
       <use xlink:href="#DejaVuSans-32"/>
       <use xlink:href="#DejaVuSans-30" x="63.623047"/>
       <use xlink:href="#DejaVuSans-30" x="127.246094"/>
      </g>
     </g>
    </g>
    <g id="xtick_4">
     <g id="line2d_4">
      <g>
       <use xlink:href="#mbd5b517825" x="349.040027" y="416.476875" style="stroke: #000000; stroke-width: 0.8"/>
      </g>
     </g>
     <g id="text_4">
      <!-- 300 -->
      <g transform="translate(329.952527 438.67375) scale(0.2 -0.2)">
       <defs>
        <path id="DejaVuSans-33" d="M 2597 2516 
Q 3050 2419 3304 2112 
Q 3559 1806 3559 1356 
Q 3559 666 3084 287 
Q 2609 -91 1734 -91 
Q 1441 -91 1130 -33 
Q 819 25 488 141 
L 488 750 
Q 750 597 1062 519 
Q 1375 441 1716 441 
Q 2309 441 2620 675 
Q 2931 909 2931 1356 
Q 2931 1769 2642 2001 
Q 2353 2234 1838 2234 
L 1294 2234 
L 1294 2753 
L 1863 2753 
Q 2328 2753 2575 2939 
Q 2822 3125 2822 3475 
Q 2822 3834 2567 4026 
Q 2313 4219 1838 4219 
Q 1578 4219 1281 4162 
Q 984 4106 628 3988 
L 628 4550 
Q 988 4650 1302 4700 
Q 1616 4750 1894 4750 
Q 2613 4750 3031 4423 
Q 3450 4097 3450 3541 
Q 3450 3153 3228 2886 
Q 3006 2619 2597 2516 
z
" transform="scale(0.015625)"/>
       </defs>
       <use xlink:href="#DejaVuSans-33"/>
       <use xlink:href="#DejaVuSans-30" x="63.623047"/>
       <use xlink:href="#DejaVuSans-30" x="127.246094"/>
      </g>
     </g>
    </g>
    <g id="xtick_5">
     <g id="line2d_5">
      <g>
       <use xlink:href="#mbd5b517825" x="426.604664" y="416.476875" style="stroke: #000000; stroke-width: 0.8"/>
      </g>
     </g>
     <g id="text_5">
      <!-- 400 -->
      <g transform="translate(407.517164 438.67375) scale(0.2 -0.2)">
       <defs>
        <path id="DejaVuSans-34" d="M 2419 4116 
L 825 1625 
L 2419 1625 
L 2419 4116 
z
M 2253 4666 
L 3047 4666 
L 3047 1625 
L 3713 1625 
L 3713 1100 
L 3047 1100 
L 3047 0 
L 2419 0 
L 2419 1100 
L 313 1100 
L 313 1709 
L 2253 4666 
z
" transform="scale(0.015625)"/>
       </defs>
       <use xlink:href="#DejaVuSans-34"/>
       <use xlink:href="#DejaVuSans-30" x="63.623047"/>
       <use xlink:href="#DejaVuSans-30" x="127.246094"/>
      </g>
     </g>
    </g>
    <g id="xtick_6">
     <g id="line2d_6">
      <g>
       <use xlink:href="#mbd5b517825" x="504.169301" y="416.476875" style="stroke: #000000; stroke-width: 0.8"/>
      </g>
     </g>
     <g id="text_6">
      <!-- 500 -->
      <g transform="translate(485.081801 438.67375) scale(0.2 -0.2)">
       <defs>
        <path id="DejaVuSans-35" d="M 691 4666 
L 3169 4666 
L 3169 4134 
L 1269 4134 
L 1269 2991 
Q 1406 3038 1543 3061 
Q 1681 3084 1819 3084 
Q 2600 3084 3056 2656 
Q 3513 2228 3513 1497 
Q 3513 744 3044 326 
Q 2575 -91 1722 -91 
Q 1428 -91 1123 -41 
Q 819 9 494 109 
L 494 744 
Q 775 591 1075 516 
Q 1375 441 1709 441 
Q 2250 441 2565 725 
Q 2881 1009 2881 1497 
Q 2881 1984 2565 2268 
Q 2250 2553 1709 2553 
Q 1456 2553 1204 2497 
Q 953 2441 691 2322 
L 691 4666 
z
" transform="scale(0.015625)"/>
       </defs>
       <use xlink:href="#DejaVuSans-35"/>
       <use xlink:href="#DejaVuSans-30" x="63.623047"/>
       <use xlink:href="#DejaVuSans-30" x="127.246094"/>
      </g>
     </g>
    </g>
    <g id="xtick_7">
     <g id="line2d_7">
      <g>
       <use xlink:href="#mbd5b517825" x="581.733938" y="416.476875" style="stroke: #000000; stroke-width: 0.8"/>
      </g>
     </g>
     <g id="text_7">
      <!-- 600 -->
      <g transform="translate(562.646438 438.67375) scale(0.2 -0.2)">
       <defs>
        <path id="DejaVuSans-36" d="M 2113 2584 
Q 1688 2584 1439 2293 
Q 1191 2003 1191 1497 
Q 1191 994 1439 701 
Q 1688 409 2113 409 
Q 2538 409 2786 701 
Q 3034 994 3034 1497 
Q 3034 2003 2786 2293 
Q 2538 2584 2113 2584 
z
M 3366 4563 
L 3366 3988 
Q 3128 4100 2886 4159 
Q 2644 4219 2406 4219 
Q 1781 4219 1451 3797 
Q 1122 3375 1075 2522 
Q 1259 2794 1537 2939 
Q 1816 3084 2150 3084 
Q 2853 3084 3261 2657 
Q 3669 2231 3669 1497 
Q 3669 778 3244 343 
Q 2819 -91 2113 -91 
Q 1303 -91 875 529 
Q 447 1150 447 2328 
Q 447 3434 972 4092 
Q 1497 4750 2381 4750 
Q 2619 4750 2861 4703 
Q 3103 4656 3366 4563 
z
" transform="scale(0.015625)"/>
       </defs>
       <use xlink:href="#DejaVuSans-36"/>
       <use xlink:href="#DejaVuSans-30" x="63.623047"/>
       <use xlink:href="#DejaVuSans-30" x="127.246094"/>
      </g>
     </g>
    </g>
    <g id="text_8">
     <!-- Days since antigen exposure -->
     <g transform="translate(226.337813 462.03) scale(0.2 -0.2)">
      <defs>
       <path id="DejaVuSans-44" d="M 1259 4147 
L 1259 519 
L 2022 519 
Q 2988 519 3436 956 
Q 3884 1394 3884 2338 
Q 3884 3275 3436 3711 
Q 2988 4147 2022 4147 
L 1259 4147 
z
M 628 4666 
L 1925 4666 
Q 3281 4666 3915 4102 
Q 4550 3538 4550 2338 
Q 4550 1131 3912 565 
Q 3275 0 1925 0 
L 628 0 
L 628 4666 
z
" transform="scale(0.015625)"/>
       <path id="DejaVuSans-61" d="M 2194 1759 
Q 1497 1759 1228 1600 
Q 959 1441 959 1056 
Q 959 750 1161 570 
Q 1363 391 1709 391 
Q 2188 391 2477 730 
Q 2766 1069 2766 1631 
L 2766 1759 
L 2194 1759 
z
M 3341 1997 
L 3341 0 
L 2766 0 
L 2766 531 
Q 2569 213 2275 61 
Q 1981 -91 1556 -91 
Q 1019 -91 701 211 
Q 384 513 384 1019 
Q 384 1609 779 1909 
Q 1175 2209 1959 2209 
L 2766 2209 
L 2766 2266 
Q 2766 2663 2505 2880 
Q 2244 3097 1772 3097 
Q 1472 3097 1187 3025 
Q 903 2953 641 2809 
L 641 3341 
Q 956 3463 1253 3523 
Q 1550 3584 1831 3584 
Q 2591 3584 2966 3190 
Q 3341 2797 3341 1997 
z
" transform="scale(0.015625)"/>
       <path id="DejaVuSans-79" d="M 2059 -325 
Q 1816 -950 1584 -1140 
Q 1353 -1331 966 -1331 
L 506 -1331 
L 506 -850 
L 844 -850 
Q 1081 -850 1212 -737 
Q 1344 -625 1503 -206 
L 1606 56 
L 191 3500 
L 800 3500 
L 1894 763 
L 2988 3500 
L 3597 3500 
L 2059 -325 
z
" transform="scale(0.015625)"/>
       <path id="DejaVuSans-73" d="M 2834 3397 
L 2834 2853 
Q 2591 2978 2328 3040 
Q 2066 3103 1784 3103 
Q 1356 3103 1142 2972 
Q 928 2841 928 2578 
Q 928 2378 1081 2264 
Q 1234 2150 1697 2047 
L 1894 2003 
Q 2506 1872 2764 1633 
Q 3022 1394 3022 966 
Q 3022 478 2636 193 
Q 2250 -91 1575 -91 
Q 1294 -91 989 -36 
Q 684 19 347 128 
L 347 722 
Q 666 556 975 473 
Q 1284 391 1588 391 
Q 1994 391 2212 530 
Q 2431 669 2431 922 
Q 2431 1156 2273 1281 
Q 2116 1406 1581 1522 
L 1381 1569 
Q 847 1681 609 1914 
Q 372 2147 372 2553 
Q 372 3047 722 3315 
Q 1072 3584 1716 3584 
Q 2034 3584 2315 3537 
Q 2597 3491 2834 3397 
z
" transform="scale(0.015625)"/>
       <path id="DejaVuSans-20" transform="scale(0.015625)"/>
       <path id="DejaVuSans-69" d="M 603 3500 
L 1178 3500 
L 1178 0 
L 603 0 
L 603 3500 
z
M 603 4863 
L 1178 4863 
L 1178 4134 
L 603 4134 
L 603 4863 
z
" transform="scale(0.015625)"/>
       <path id="DejaVuSans-6e" d="M 3513 2113 
L 3513 0 
L 2938 0 
L 2938 2094 
Q 2938 2591 2744 2837 
Q 2550 3084 2163 3084 
Q 1697 3084 1428 2787 
Q 1159 2491 1159 1978 
L 1159 0 
L 581 0 
L 581 3500 
L 1159 3500 
L 1159 2956 
Q 1366 3272 1645 3428 
Q 1925 3584 2291 3584 
Q 2894 3584 3203 3211 
Q 3513 2838 3513 2113 
z
" transform="scale(0.015625)"/>
       <path id="DejaVuSans-63" d="M 3122 3366 
L 3122 2828 
Q 2878 2963 2633 3030 
Q 2388 3097 2138 3097 
Q 1578 3097 1268 2742 
Q 959 2388 959 1747 
Q 959 1106 1268 751 
Q 1578 397 2138 397 
Q 2388 397 2633 464 
Q 2878 531 3122 666 
L 3122 134 
Q 2881 22 2623 -34 
Q 2366 -91 2075 -91 
Q 1284 -91 818 406 
Q 353 903 353 1747 
Q 353 2603 823 3093 
Q 1294 3584 2113 3584 
Q 2378 3584 2631 3529 
Q 2884 3475 3122 3366 
z
" transform="scale(0.015625)"/>
       <path id="DejaVuSans-65" d="M 3597 1894 
L 3597 1613 
L 953 1613 
Q 991 1019 1311 708 
Q 1631 397 2203 397 
Q 2534 397 2845 478 
Q 3156 559 3463 722 
L 3463 178 
Q 3153 47 2828 -22 
Q 2503 -91 2169 -91 
Q 1331 -91 842 396 
Q 353 884 353 1716 
Q 353 2575 817 3079 
Q 1281 3584 2069 3584 
Q 2775 3584 3186 3129 
Q 3597 2675 3597 1894 
z
M 3022 2063 
Q 3016 2534 2758 2815 
Q 2500 3097 2075 3097 
Q 1594 3097 1305 2825 
Q 1016 2553 972 2059 
L 3022 2063 
z
" transform="scale(0.015625)"/>
       <path id="DejaVuSans-74" d="M 1172 4494 
L 1172 3500 
L 2356 3500 
L 2356 3053 
L 1172 3053 
L 1172 1153 
Q 1172 725 1289 603 
Q 1406 481 1766 481 
L 2356 481 
L 2356 0 
L 1766 0 
Q 1100 0 847 248 
Q 594 497 594 1153 
L 594 3053 
L 172 3053 
L 172 3500 
L 594 3500 
L 594 4494 
L 1172 4494 
z
" transform="scale(0.015625)"/>
       <path id="DejaVuSans-67" d="M 2906 1791 
Q 2906 2416 2648 2759 
Q 2391 3103 1925 3103 
Q 1463 3103 1205 2759 
Q 947 2416 947 1791 
Q 947 1169 1205 825 
Q 1463 481 1925 481 
Q 2391 481 2648 825 
Q 2906 1169 2906 1791 
z
M 3481 434 
Q 3481 -459 3084 -895 
Q 2688 -1331 1869 -1331 
Q 1566 -1331 1297 -1286 
Q 1028 -1241 775 -1147 
L 775 -588 
Q 1028 -725 1275 -790 
Q 1522 -856 1778 -856 
Q 2344 -856 2625 -561 
Q 2906 -266 2906 331 
L 2906 616 
Q 2728 306 2450 153 
Q 2172 0 1784 0 
Q 1141 0 747 490 
Q 353 981 353 1791 
Q 353 2603 747 3093 
Q 1141 3584 1784 3584 
Q 2172 3584 2450 3431 
Q 2728 3278 2906 2969 
L 2906 3500 
L 3481 3500 
L 3481 434 
z
" transform="scale(0.015625)"/>
       <path id="DejaVuSans-78" d="M 3513 3500 
L 2247 1797 
L 3578 0 
L 2900 0 
L 1881 1375 
L 863 0 
L 184 0 
L 1544 1831 
L 300 3500 
L 978 3500 
L 1906 2253 
L 2834 3500 
L 3513 3500 
z
" transform="scale(0.015625)"/>
       <path id="DejaVuSans-70" d="M 1159 525 
L 1159 -1331 
L 581 -1331 
L 581 3500 
L 1159 3500 
L 1159 2969 
Q 1341 3281 1617 3432 
Q 1894 3584 2278 3584 
Q 2916 3584 3314 3078 
Q 3713 2572 3713 1747 
Q 3713 922 3314 415 
Q 2916 -91 2278 -91 
Q 1894 -91 1617 61 
Q 1341 213 1159 525 
z
M 3116 1747 
Q 3116 2381 2855 2742 
Q 2594 3103 2138 3103 
Q 1681 3103 1420 2742 
Q 1159 2381 1159 1747 
Q 1159 1113 1420 752 
Q 1681 391 2138 391 
Q 2594 391 2855 752 
Q 3116 1113 3116 1747 
z
" transform="scale(0.015625)"/>
       <path id="DejaVuSans-6f" d="M 1959 3097 
Q 1497 3097 1228 2736 
Q 959 2375 959 1747 
Q 959 1119 1226 758 
Q 1494 397 1959 397 
Q 2419 397 2687 759 
Q 2956 1122 2956 1747 
Q 2956 2369 2687 2733 
Q 2419 3097 1959 3097 
z
M 1959 3584 
Q 2709 3584 3137 3096 
Q 3566 2609 3566 1747 
Q 3566 888 3137 398 
Q 2709 -91 1959 -91 
Q 1206 -91 779 398 
Q 353 888 353 1747 
Q 353 2609 779 3096 
Q 1206 3584 1959 3584 
z
" transform="scale(0.015625)"/>
       <path id="DejaVuSans-75" d="M 544 1381 
L 544 3500 
L 1119 3500 
L 1119 1403 
Q 1119 906 1312 657 
Q 1506 409 1894 409 
Q 2359 409 2629 706 
Q 2900 1003 2900 1516 
L 2900 3500 
L 3475 3500 
L 3475 0 
L 2900 0 
L 2900 538 
Q 2691 219 2414 64 
Q 2138 -91 1772 -91 
Q 1169 -91 856 284 
Q 544 659 544 1381 
z
M 1991 3584 
L 1991 3584 
z
" transform="scale(0.015625)"/>
       <path id="DejaVuSans-72" d="M 2631 2963 
Q 2534 3019 2420 3045 
Q 2306 3072 2169 3072 
Q 1681 3072 1420 2755 
Q 1159 2438 1159 1844 
L 1159 0 
L 581 0 
L 581 3500 
L 1159 3500 
L 1159 2956 
Q 1341 3275 1631 3429 
Q 1922 3584 2338 3584 
Q 2397 3584 2469 3576 
Q 2541 3569 2628 3553 
L 2631 2963 
z
" transform="scale(0.015625)"/>
      </defs>
      <use xlink:href="#DejaVuSans-44"/>
      <use xlink:href="#DejaVuSans-61" x="77.001953"/>
      <use xlink:href="#DejaVuSans-79" x="138.28125"/>
      <use xlink:href="#DejaVuSans-73" x="197.460938"/>
      <use xlink:href="#DejaVuSans-20" x="249.560547"/>
      <use xlink:href="#DejaVuSans-73" x="281.347656"/>
      <use xlink:href="#DejaVuSans-69" x="333.447266"/>
      <use xlink:href="#DejaVuSans-6e" x="361.230469"/>
      <use xlink:href="#DejaVuSans-63" x="424.609375"/>
      <use xlink:href="#DejaVuSans-65" x="479.589844"/>
      <use xlink:href="#DejaVuSans-20" x="541.113281"/>
      <use xlink:href="#DejaVuSans-61" x="572.900391"/>
      <use xlink:href="#DejaVuSans-6e" x="634.179688"/>
      <use xlink:href="#DejaVuSans-74" x="697.558594"/>
      <use xlink:href="#DejaVuSans-69" x="736.767578"/>
      <use xlink:href="#DejaVuSans-67" x="764.550781"/>
      <use xlink:href="#DejaVuSans-65" x="828.027344"/>
      <use xlink:href="#DejaVuSans-6e" x="889.550781"/>
      <use xlink:href="#DejaVuSans-20" x="952.929688"/>
      <use xlink:href="#DejaVuSans-65" x="984.716797"/>
      <use xlink:href="#DejaVuSans-78" x="1044.490234"/>
      <use xlink:href="#DejaVuSans-70" x="1103.669922"/>
      <use xlink:href="#DejaVuSans-6f" x="1167.146484"/>
      <use xlink:href="#DejaVuSans-73" x="1228.328125"/>
      <use xlink:href="#DejaVuSans-75" x="1280.427734"/>
      <use xlink:href="#DejaVuSans-72" x="1343.806641"/>
      <use xlink:href="#DejaVuSans-65" x="1382.669922"/>
     </g>
    </g>
   </g>
   <g id="matplotlib.axis_2">
    <g id="ytick_1">
     <g id="line2d_8">
      <defs>
       <path id="m8e78328827" d="M 0 0 
L -3.5 0 
" style="stroke: #000000; stroke-width: 0.8"/>
      </defs>
      <g>
       <use xlink:href="#m8e78328827" x="91.758125" y="384.127484" style="stroke: #000000; stroke-width: 0.8"/>
      </g>
     </g>
     <g id="text_9">
      <!-- 0.0 -->
      <g transform="translate(52.951875 391.725921) scale(0.2 -0.2)">
       <defs>
        <path id="DejaVuSans-2e" d="M 684 794 
L 1344 794 
L 1344 0 
L 684 0 
L 684 794 
z
" transform="scale(0.015625)"/>
       </defs>
       <use xlink:href="#DejaVuSans-30"/>
       <use xlink:href="#DejaVuSans-2e" x="63.623047"/>
       <use xlink:href="#DejaVuSans-30" x="95.410156"/>
      </g>
     </g>
    </g>
    <g id="ytick_2">
     <g id="line2d_9">
      <g>
       <use xlink:href="#m8e78328827" x="91.758125" y="319.428702" style="stroke: #000000; stroke-width: 0.8"/>
      </g>
     </g>
     <g id="text_10">
      <!-- 0.2 -->
      <g transform="translate(52.951875 327.027139) scale(0.2 -0.2)">
       <use xlink:href="#DejaVuSans-30"/>
       <use xlink:href="#DejaVuSans-2e" x="63.623047"/>
       <use xlink:href="#DejaVuSans-32" x="95.410156"/>
      </g>
     </g>
    </g>
    <g id="ytick_3">
     <g id="line2d_10">
      <g>
       <use xlink:href="#m8e78328827" x="91.758125" y="254.72992" style="stroke: #000000; stroke-width: 0.8"/>
      </g>
     </g>
     <g id="text_11">
      <!-- 0.4 -->
      <g transform="translate(52.951875 262.328357) scale(0.2 -0.2)">
       <use xlink:href="#DejaVuSans-30"/>
       <use xlink:href="#DejaVuSans-2e" x="63.623047"/>
       <use xlink:href="#DejaVuSans-34" x="95.410156"/>
      </g>
     </g>
    </g>
    <g id="ytick_4">
     <g id="line2d_11">
      <g>
       <use xlink:href="#m8e78328827" x="91.758125" y="190.031138" style="stroke: #000000; stroke-width: 0.8"/>
      </g>
     </g>
     <g id="text_12">
      <!-- 0.6 -->
      <g transform="translate(52.951875 197.629575) scale(0.2 -0.2)">
       <use xlink:href="#DejaVuSans-30"/>
       <use xlink:href="#DejaVuSans-2e" x="63.623047"/>
       <use xlink:href="#DejaVuSans-36" x="95.410156"/>
      </g>
     </g>
    </g>
    <g id="ytick_5">
     <g id="line2d_12">
      <g>
       <use xlink:href="#m8e78328827" x="91.758125" y="125.332356" style="stroke: #000000; stroke-width: 0.8"/>
      </g>
     </g>
     <g id="text_13">
      <!-- 0.8 -->
      <g transform="translate(52.951875 132.930793) scale(0.2 -0.2)">
       <defs>
        <path id="DejaVuSans-38" d="M 2034 2216 
Q 1584 2216 1326 1975 
Q 1069 1734 1069 1313 
Q 1069 891 1326 650 
Q 1584 409 2034 409 
Q 2484 409 2743 651 
Q 3003 894 3003 1313 
Q 3003 1734 2745 1975 
Q 2488 2216 2034 2216 
z
M 1403 2484 
Q 997 2584 770 2862 
Q 544 3141 544 3541 
Q 544 4100 942 4425 
Q 1341 4750 2034 4750 
Q 2731 4750 3128 4425 
Q 3525 4100 3525 3541 
Q 3525 3141 3298 2862 
Q 3072 2584 2669 2484 
Q 3125 2378 3379 2068 
Q 3634 1759 3634 1313 
Q 3634 634 3220 271 
Q 2806 -91 2034 -91 
Q 1263 -91 848 271 
Q 434 634 434 1313 
Q 434 1759 690 2068 
Q 947 2378 1403 2484 
z
M 1172 3481 
Q 1172 3119 1398 2916 
Q 1625 2713 2034 2713 
Q 2441 2713 2670 2916 
Q 2900 3119 2900 3481 
Q 2900 3844 2670 4047 
Q 2441 4250 2034 4250 
Q 1625 4250 1398 4047 
Q 1172 3844 1172 3481 
z
" transform="scale(0.015625)"/>
       </defs>
       <use xlink:href="#DejaVuSans-30"/>
       <use xlink:href="#DejaVuSans-2e" x="63.623047"/>
       <use xlink:href="#DejaVuSans-38" x="95.410156"/>
      </g>
     </g>
    </g>
    <g id="ytick_6">
     <g id="line2d_13">
      <g>
       <use xlink:href="#m8e78328827" x="91.758125" y="60.633574" style="stroke: #000000; stroke-width: 0.8"/>
      </g>
     </g>
     <g id="text_14">
      <!-- 1.0 -->
      <g transform="translate(52.951875 68.232011) scale(0.2 -0.2)">
       <use xlink:href="#DejaVuSans-31"/>
       <use xlink:href="#DejaVuSans-2e" x="63.623047"/>
       <use xlink:href="#DejaVuSans-30" x="95.410156"/>
      </g>
     </g>
    </g>
    <g id="text_15">
     <!-- Virus neutralization -->
     <g transform="translate(22.396875 319.741562) rotate(-90) scale(0.2 -0.2)">
      <defs>
       <path id="DejaVuSans-56" d="M 1831 0 
L 50 4666 
L 709 4666 
L 2188 738 
L 3669 4666 
L 4325 4666 
L 2547 0 
L 1831 0 
z
" transform="scale(0.015625)"/>
       <path id="DejaVuSans-6c" d="M 603 4863 
L 1178 4863 
L 1178 0 
L 603 0 
L 603 4863 
z
" transform="scale(0.015625)"/>
       <path id="DejaVuSans-7a" d="M 353 3500 
L 3084 3500 
L 3084 2975 
L 922 459 
L 3084 459 
L 3084 0 
L 275 0 
L 275 525 
L 2438 3041 
L 353 3041 
L 353 3500 
z
" transform="scale(0.015625)"/>
      </defs>
      <use xlink:href="#DejaVuSans-56"/>
      <use xlink:href="#DejaVuSans-69" x="66.158203"/>
      <use xlink:href="#DejaVuSans-72" x="93.941406"/>
      <use xlink:href="#DejaVuSans-75" x="135.054688"/>
      <use xlink:href="#DejaVuSans-73" x="198.433594"/>
      <use xlink:href="#DejaVuSans-20" x="250.533203"/>
      <use xlink:href="#DejaVuSans-6e" x="282.320312"/>
      <use xlink:href="#DejaVuSans-65" x="345.699219"/>
      <use xlink:href="#DejaVuSans-75" x="407.222656"/>
      <use xlink:href="#DejaVuSans-74" x="470.601562"/>
      <use xlink:href="#DejaVuSans-72" x="509.810547"/>
      <use xlink:href="#DejaVuSans-61" x="550.923828"/>
      <use xlink:href="#DejaVuSans-6c" x="612.203125"/>
      <use xlink:href="#DejaVuSans-69" x="639.986328"/>
      <use xlink:href="#DejaVuSans-7a" x="667.769531"/>
      <use xlink:href="#DejaVuSans-61" x="720.259766"/>
      <use xlink:href="#DejaVuSans-74" x="781.539062"/>
      <use xlink:href="#DejaVuSans-69" x="820.748047"/>
      <use xlink:href="#DejaVuSans-6f" x="848.53125"/>
      <use xlink:href="#DejaVuSans-6e" x="909.712891"/>
     </g>
     <!--  probability -->
     <g transform="translate(44.7925 278.966562) rotate(-90) scale(0.2 -0.2)">
      <defs>
       <path id="DejaVuSans-62" d="M 3116 1747 
Q 3116 2381 2855 2742 
Q 2594 3103 2138 3103 
Q 1681 3103 1420 2742 
Q 1159 2381 1159 1747 
Q 1159 1113 1420 752 
Q 1681 391 2138 391 
Q 2594 391 2855 752 
Q 3116 1113 3116 1747 
z
M 1159 2969 
Q 1341 3281 1617 3432 
Q 1894 3584 2278 3584 
Q 2916 3584 3314 3078 
Q 3713 2572 3713 1747 
Q 3713 922 3314 415 
Q 2916 -91 2278 -91 
Q 1894 -91 1617 61 
Q 1341 213 1159 525 
L 1159 0 
L 581 0 
L 581 4863 
L 1159 4863 
L 1159 2969 
z
" transform="scale(0.015625)"/>
      </defs>
      <use xlink:href="#DejaVuSans-20"/>
      <use xlink:href="#DejaVuSans-70" x="31.787109"/>
      <use xlink:href="#DejaVuSans-72" x="95.263672"/>
      <use xlink:href="#DejaVuSans-6f" x="134.126953"/>
      <use xlink:href="#DejaVuSans-62" x="195.308594"/>
      <use xlink:href="#DejaVuSans-61" x="258.785156"/>
      <use xlink:href="#DejaVuSans-62" x="320.064453"/>
      <use xlink:href="#DejaVuSans-69" x="383.541016"/>
      <use xlink:href="#DejaVuSans-6c" x="411.324219"/>
      <use xlink:href="#DejaVuSans-69" x="439.107422"/>
      <use xlink:href="#DejaVuSans-74" x="466.890625"/>
      <use xlink:href="#DejaVuSans-79" x="506.099609"/>
     </g>
    </g>
   </g>
   <g id="patch_3">
    <path d="M 91.758125 416.476875 
L 91.758125 28.396875 
" style="fill: none; stroke: #000000; stroke-width: 0.8; stroke-linejoin: miter; stroke-linecap: square"/>
   </g>
   <g id="patch_4">
    <path d="M 649.758125 416.476875 
L 649.758125 28.396875 
" style="fill: none; stroke: #000000; stroke-width: 0.8; stroke-linejoin: miter; stroke-linecap: square"/>
   </g>
   <g id="patch_5">
    <path d="M 91.758125 416.476875 
L 649.758125 416.476875 
" style="fill: none; stroke: #000000; stroke-width: 0.8; stroke-linejoin: miter; stroke-linecap: square"/>
   </g>
   <g id="patch_6">
    <path d="M 91.758125 28.396875 
L 649.758125 28.396875 
" style="fill: none; stroke: #000000; stroke-width: 0.8; stroke-linejoin: miter; stroke-linecap: square"/>
   </g>
   <g id="text_16">
    <!-- BA.2 antigen -->
    <g transform="translate(306.509687 22.396875) scale(0.2 -0.2)">
     <defs>
      <path id="DejaVuSans-42" d="M 1259 2228 
L 1259 519 
L 2272 519 
Q 2781 519 3026 730 
Q 3272 941 3272 1375 
Q 3272 1813 3026 2020 
Q 2781 2228 2272 2228 
L 1259 2228 
z
M 1259 4147 
L 1259 2741 
L 2194 2741 
Q 2656 2741 2882 2914 
Q 3109 3088 3109 3444 
Q 3109 3797 2882 3972 
Q 2656 4147 2194 4147 
L 1259 4147 
z
M 628 4666 
L 2241 4666 
Q 2963 4666 3353 4366 
Q 3744 4066 3744 3513 
Q 3744 3084 3544 2831 
Q 3344 2578 2956 2516 
Q 3422 2416 3680 2098 
Q 3938 1781 3938 1306 
Q 3938 681 3513 340 
Q 3088 0 2303 0 
L 628 0 
L 628 4666 
z
" transform="scale(0.015625)"/>
      <path id="DejaVuSans-41" d="M 2188 4044 
L 1331 1722 
L 3047 1722 
L 2188 4044 
z
M 1831 4666 
L 2547 4666 
L 4325 0 
L 3669 0 
L 3244 1197 
L 1141 1197 
L 716 0 
L 50 0 
L 1831 4666 
z
" transform="scale(0.015625)"/>
     </defs>
     <use xlink:href="#DejaVuSans-42"/>
     <use xlink:href="#DejaVuSans-41" x="68.603516"/>
     <use xlink:href="#DejaVuSans-2e" x="135.261719"/>
     <use xlink:href="#DejaVuSans-32" x="167.048828"/>
     <use xlink:href="#DejaVuSans-20" x="230.671875"/>
     <use xlink:href="#DejaVuSans-61" x="262.458984"/>
     <use xlink:href="#DejaVuSans-6e" x="323.738281"/>
     <use xlink:href="#DejaVuSans-74" x="387.117188"/>
     <use xlink:href="#DejaVuSans-69" x="426.326172"/>
     <use xlink:href="#DejaVuSans-67" x="454.109375"/>
     <use xlink:href="#DejaVuSans-65" x="517.585938"/>
     <use xlink:href="#DejaVuSans-6e" x="579.109375"/>
    </g>
   </g>
   <g id="legend_1">
    <g id="patch_7">
     <path d="M 235.258125 532.900875 
L 345.3925 532.900875 
Q 349.3925 532.900875 349.3925 528.900875 
L 349.3925 501.544625 
Q 349.3925 497.544625 345.3925 497.544625 
L 235.258125 497.544625 
Q 231.258125 497.544625 231.258125 501.544625 
L 231.258125 528.900875 
Q 231.258125 532.900875 235.258125 532.900875 
z
" style="fill: #ffffff; opacity: 0.8; stroke: #cccccc; stroke-linejoin: miter"/>
    </g>
    <g id="patch_8">
     <path d="M 239.258125 520.7415 
L 279.258125 520.7415 
L 279.258125 506.7415 
L 239.258125 506.7415 
z
" style="fill: #ffa500; fill-opacity: 0.3; stroke: #ffa500; stroke-opacity: 0.3; stroke-linejoin: miter"/>
    </g>
    <g id="text_17">
     <!-- BA.1 -->
     <g transform="translate(295.258125 520.7415) scale(0.2 -0.2)">
      <use xlink:href="#DejaVuSans-42"/>
      <use xlink:href="#DejaVuSans-41" x="68.603516"/>
      <use xlink:href="#DejaVuSans-2e" x="135.261719"/>
      <use xlink:href="#DejaVuSans-31" x="167.048828"/>
     </g>
    </g>
   </g>
  </g>
 </g>
 <defs>
  <clipPath id="pa1550c1a22">
   <rect x="91.758125" y="28.396875" width="558" height="388.08"/>
  </clipPath>
 </defs>
</svg>
