<?xml version="1.0" encoding="utf-8" standalone="no"?>
<!DOCTYPE svg PUBLIC "-//W3C//DTD SVG 1.1//EN"
  "http://www.w3.org/Graphics/SVG/1.1/DTD/svg11.dtd">
<svg xmlns:xlink="http://www.w3.org/1999/xlink" width="656.958125pt" height="540.100875pt" viewBox="0 0 656.958125 540.100875" xmlns="http://www.w3.org/2000/svg" version="1.1">
 <metadata>
  <rdf:RDF xmlns:dc="http://purl.org/dc/elements/1.1/" xmlns:cc="http://creativecommons.org/ns#" xmlns:rdf="http://www.w3.org/1999/02/22-rdf-syntax-ns#">
   <cc:Work>
    <dc:type rdf:resource="http://purl.org/dc/dcmitype/StillImage"/>
    <dc:date>2024-04-22T19:41:06.125648</dc:date>
    <dc:format>image/svg+xml</dc:format>
    <dc:creator>
     <cc:Agent>
      <dc:title>Matplotlib v3.8.4, https://matplotlib.org/</dc:title>
     </cc:Agent>
    </dc:creator>
   </cc:Work>
  </rdf:RDF>
 </metadata>
 <defs>
  <style type="text/css">*{stroke-linejoin: round; stroke-linecap: butt}</style>
 </defs>
 <g id="figure_1">
  <g id="patch_1">
   <path d="M 0 540.100875 
L 656.958125 540.100875 
L 656.958125 0 
L 0 0 
z
" style="fill: #ffffff"/>
  </g>
  <g id="axes_1">
   <g id="patch_2">
    <path d="M 91.758125 416.476875 
L 649.758125 416.476875 
L 649.758125 28.396875 
L 91.758125 28.396875 
z
" style="fill: #ffffff"/>
   </g>
   <g id="PolyCollection_1">
    <defs>
     <path id="m1be7c65f8b" d="M 117.121761 -464.06096 
L 117.121761 -397.116121 
L 117.897408 -450.864899 
L 118.673054 -467.331633 
L 119.4487 -473.524795 
L 120.224347 -476.220388 
L 120.999993 -477.530684 
L 121.77564 -478.225437 
L 122.551286 -478.620647 
L 123.326932 -478.858897 
L 124.102579 -479.009679 
L 124.878225 -479.109112 
L 125.653871 -479.177024 
L 126.429518 -479.224817 
L 127.205164 -479.259326 
L 127.980811 -479.28479 
L 128.756457 -479.303928 
L 129.532103 -479.318529 
L 130.30775 -479.3298 
L 131.083396 -479.338576 
L 131.859042 -479.343679 
L 132.634689 -479.336209 
L 133.410335 -479.327415 
L 134.185982 -479.317166 
L 134.961628 -479.305309 
L 135.737274 -479.291664 
L 136.512921 -479.27603 
L 137.288567 -479.258179 
L 138.064213 -479.237855 
L 138.83986 -479.214775 
L 139.615506 -479.188628 
L 140.391153 -479.159068 
L 141.166799 -479.125719 
L 141.942445 -479.08817 
L 142.718092 -479.045971 
L 143.493738 -478.998637 
L 144.269384 -478.945641 
L 145.045031 -478.886414 
L 145.820677 -478.820343 
L 146.596323 -478.746773 
L 147.37197 -478.665 
L 148.147616 -478.574273 
L 148.923263 -478.473791 
L 149.698909 -478.362706 
L 150.474555 -478.240117 
L 151.250202 -478.105074 
L 152.025848 -477.956576 
L 152.801494 -477.793568 
L 153.577141 -477.614949 
L 154.352787 -477.419565 
L 155.128434 -477.206213 
L 155.90408 -476.973645 
L 156.679726 -476.720566 
L 157.455373 -476.445636 
L 158.231019 -476.147477 
L 159.006665 -475.824669 
L 159.782312 -475.475761 
L 160.557958 -475.099269 
L 161.333605 -474.69368 
L 162.109251 -474.257462 
L 162.884897 -473.789062 
L 163.660544 -473.286915 
L 164.43619 -472.749448 
L 165.211836 -472.175088 
L 165.987483 -471.562262 
L 166.763129 -470.90941 
L 167.538776 -470.214989 
L 168.314422 -469.477476 
L 169.090068 -468.695379 
L 169.865715 -467.867243 
L 170.641361 -466.991655 
L 171.417007 -466.06725 
L 172.192654 -465.09272 
L 172.9683 -464.066822 
L 173.743947 -462.988377 
L 174.519593 -461.856284 
L 175.295239 -460.669522 
L 176.070886 -459.427157 
L 176.846532 -458.128346 
L 177.622178 -456.772343 
L 178.397825 -455.358503 
L 179.173471 -453.886286 
L 179.949117 -452.35526 
L 180.724764 -450.765108 
L 181.50041 -449.115625 
L 182.276057 -447.406723 
L 183.051703 -445.638434 
L 183.827349 -443.810909 
L 184.602996 -441.924419 
L 185.378642 -439.979355 
L 186.154288 -437.976229 
L 186.929935 -435.915669 
L 187.705581 -433.798423 
L 188.481228 -431.625352 
L 189.256874 -429.397431 
L 190.03252 -427.115743 
L 190.808167 -424.781478 
L 191.583813 -422.395928 
L 192.359459 -419.960482 
L 193.135106 -417.476624 
L 193.910752 -414.945926 
L 194.686399 -412.370042 
L 195.462045 -409.750705 
L 196.237691 -407.08972 
L 197.013338 -404.388957 
L 197.788984 -401.65035 
L 198.56463 -398.875882 
L 199.340277 -396.067589 
L 200.115923 -393.227546 
L 200.89157 -390.357864 
L 201.667216 -387.460686 
L 202.442862 -384.538174 
L 203.218509 -381.592512 
L 203.994155 -378.625893 
L 204.769801 -375.640515 
L 205.545448 -372.638578 
L 206.321094 -369.622276 
L 207.096741 -366.593791 
L 207.872387 -363.55529 
L 208.648033 -360.50892 
L 209.42368 -357.456803 
L 210.199326 -354.40103 
L 210.974972 -351.343659 
L 211.750619 -348.286712 
L 212.526265 -345.232168 
L 213.301911 -342.181962 
L 214.077558 -339.137983 
L 214.853204 -336.10207 
L 215.628851 -333.076008 
L 216.404497 -330.061528 
L 217.180143 -327.060305 
L 217.95579 -324.073955 
L 218.731436 -321.104036 
L 219.507082 -318.152043 
L 220.282729 -315.21941 
L 221.058375 -312.307508 
L 221.834022 -309.417647 
L 222.609668 -306.551071 
L 223.385314 -303.708963 
L 224.160961 -300.892441 
L 224.936607 -298.102559 
L 225.712253 -295.340312 
L 226.4879 -292.60663 
L 227.263546 -289.902381 
L 228.039193 -287.228375 
L 228.814839 -284.585362 
L 229.590485 -281.974031 
L 230.366132 -279.395017 
L 231.141778 -276.848897 
L 231.917424 -274.336193 
L 232.693071 -271.857376 
L 233.468717 -269.412863 
L 234.244364 -267.00302 
L 235.02001 -264.628168 
L 235.795656 -262.288578 
L 236.571303 -259.984475 
L 237.346949 -257.716042 
L 238.122595 -255.483419 
L 238.898242 -253.286705 
L 239.673888 -251.125962 
L 240.449535 -249.001212 
L 241.225181 -246.912443 
L 242.000827 -244.85961 
L 242.776474 -242.842635 
L 243.55212 -240.86141 
L 244.327766 -238.915795 
L 245.103413 -237.005627 
L 245.879059 -235.130714 
L 246.654705 -233.290841 
L 247.430352 -231.485769 
L 248.205998 -229.715239 
L 248.981645 -227.97897 
L 249.757291 -226.276664 
L 250.532937 -224.608004 
L 251.308584 -222.972658 
L 252.08423 -221.370279 
L 252.859876 -219.800504 
L 253.635523 -218.262961 
L 254.411169 -216.757265 
L 255.186816 -215.283019 
L 255.962462 -213.839818 
L 256.738108 -212.427249 
L 257.513755 -211.04489 
L 258.289401 -209.692315 
L 259.065047 -208.369088 
L 259.840694 -207.074773 
L 260.61634 -205.808925 
L 261.391987 -204.5711 
L 262.167633 -203.360849 
L 262.943279 -202.17772 
L 263.718926 -201.021262 
L 264.494572 -199.891021 
L 265.270218 -198.786544 
L 266.045865 -197.707378 
L 266.821511 -196.653071 
L 267.597158 -195.623172 
L 268.372804 -194.61723 
L 269.14845 -193.634799 
L 269.924097 -192.675434 
L 270.699743 -191.738693 
L 271.475389 -190.824136 
L 272.251036 -189.931328 
L 273.026682 -189.059838 
L 273.802329 -188.209237 
L 274.577975 -187.379103 
L 275.353621 -186.569015 
L 276.129268 -185.778559 
L 276.904914 -185.007327 
L 277.68056 -184.254912 
L 278.456207 -183.520916 
L 279.231853 -182.804944 
L 280.007499 -182.106608 
L 280.783146 -181.425524 
L 281.558792 -180.761315 
L 282.334439 -180.113608 
L 283.110085 -179.482038 
L 283.885731 -178.866243 
L 284.661378 -178.265869 
L 285.437024 -177.680567 
L 286.21267 -177.109995 
L 286.988317 -176.553815 
L 287.763963 -176.011696 
L 288.53961 -175.483313 
L 289.315256 -174.968346 
L 290.090902 -174.466482 
L 290.866549 -173.977414 
L 291.642195 -173.50084 
L 292.417841 -173.036463 
L 293.193488 -172.583995 
L 293.969134 -172.143149 
L 294.744781 -171.713648 
L 295.520427 -171.295218 
L 296.296073 -170.887592 
L 297.07172 -170.490507 
L 297.847366 -170.103707 
L 298.623012 -169.726941 
L 299.398659 -169.359963 
L 300.174305 -169.002532 
L 300.949952 -168.654413 
L 301.725598 -168.315375 
L 302.501244 -167.985193 
L 303.276891 -167.663647 
L 304.052537 -167.350521 
L 304.828183 -167.045605 
L 305.60383 -166.748692 
L 306.379476 -166.459582 
L 307.155122 -166.178077 
L 307.930769 -165.903987 
L 308.706415 -165.637122 
L 309.482062 -165.377299 
L 310.257708 -165.12434 
L 311.033354 -164.87807 
L 311.809001 -164.638318 
L 312.584647 -164.404916 
L 313.360293 -164.177703 
L 314.13594 -163.956518 
L 314.911586 -163.741208 
L 315.687233 -163.531621 
L 316.462879 -163.327609 
L 317.238525 -163.129028 
L 318.014172 -162.935737 
L 318.789818 -162.747599 
L 319.565464 -162.56448 
L 320.341111 -162.386249 
L 321.116757 -162.21278 
L 321.892404 -162.043948 
L 322.66805 -161.879632 
L 323.443696 -161.719713 
L 324.219343 -161.564078 
L 324.994989 -161.412612 
L 325.770635 -161.265207 
L 326.546282 -161.121757 
L 327.321928 -160.982156 
L 328.097575 -160.846304 
L 328.873221 -160.714102 
L 329.648867 -160.585454 
L 330.424514 -160.460265 
L 331.20016 -160.338444 
L 331.975806 -160.219902 
L 332.751453 -160.104553 
L 333.527099 -159.99231 
L 334.302746 -159.883093 
L 335.078392 -159.776821 
L 335.854038 -159.673414 
L 336.629685 -159.572798 
L 337.405331 -159.474898 
L 338.180977 -159.379641 
L 338.956624 -159.286957 
L 339.73227 -159.196778 
L 340.507916 -159.109036 
L 341.283563 -159.023666 
L 342.059209 -158.940605 
L 342.834856 -158.859792 
L 343.610502 -158.781165 
L 344.386148 -158.704667 
L 345.161795 -158.63024 
L 345.937441 -158.557829 
L 346.713087 -158.487379 
L 347.488734 -158.418839 
L 348.26438 -158.352156 
L 349.040027 -158.287282 
L 349.815673 -158.224166 
L 350.591319 -158.162763 
L 351.366966 -158.103026 
L 352.142612 -158.044909 
L 352.918258 -157.98837 
L 353.693905 -157.933366 
L 354.469551 -157.879856 
L 355.245198 -157.827798 
L 356.020844 -157.777155 
L 356.79649 -157.727888 
L 357.572137 -157.679959 
L 358.347783 -157.633333 
L 359.123429 -157.587975 
L 359.899076 -157.543849 
L 360.674722 -157.500924 
L 361.450369 -157.459165 
L 362.226015 -157.418543 
L 363.001661 -157.379025 
L 363.777308 -157.340583 
L 364.552954 -157.303187 
L 365.3286 -157.266809 
L 366.104247 -157.23142 
L 366.879893 -157.196995 
L 367.65554 -157.163508 
L 368.431186 -157.130932 
L 369.206832 -157.099243 
L 369.982479 -157.068417 
L 370.758125 -157.038431 
L 371.533771 -157.009262 
L 372.309418 -156.980887 
L 373.085064 -156.953286 
L 373.86071 -156.926436 
L 374.636357 -156.900319 
L 375.412003 -156.874913 
L 376.18765 -156.850199 
L 376.963296 -156.826159 
L 377.738942 -156.802775 
L 378.514589 -156.780028 
L 379.290235 -156.757901 
L 380.065881 -156.736378 
L 380.841528 -156.715442 
L 381.617174 -156.695076 
L 382.392821 -156.675267 
L 383.168467 -156.655997 
L 383.944113 -156.637253 
L 384.71976 -156.61902 
L 385.495406 -156.601285 
L 386.271052 -156.584034 
L 387.046699 -156.567253 
L 387.822345 -156.550931 
L 388.597992 -156.535053 
L 389.373638 -156.519609 
L 390.149284 -156.504587 
L 390.924931 -156.489974 
L 391.700577 -156.47576 
L 392.476223 -156.461935 
L 393.25187 -156.448486 
L 394.027516 -156.435405 
L 394.803163 -156.422681 
L 395.578809 -156.410304 
L 396.354455 -156.398266 
L 397.130102 -156.386556 
L 397.905748 -156.375165 
L 398.681394 -156.364086 
L 399.457041 -156.353309 
L 400.232687 -156.342827 
L 401.008334 -156.33263 
L 401.78398 -156.322712 
L 402.559626 -156.313066 
L 403.335273 -156.303682 
L 404.110919 -156.294555 
L 404.886565 -156.285677 
L 405.662212 -156.277042 
L 406.437858 -156.268642 
L 407.213504 -156.260472 
L 407.989151 -156.252525 
L 408.764797 -156.244795 
L 409.540444 -156.237277 
L 410.31609 -156.229963 
L 411.091736 -156.22285 
L 411.867383 -156.215931 
L 412.643029 -156.209201 
L 413.418675 -156.202655 
L 414.194322 -156.196287 
L 414.969968 -156.190094 
L 415.745615 -156.18407 
L 416.521261 -156.17821 
L 417.296907 -156.172511 
L 418.072554 -156.166967 
L 418.8482 -156.161575 
L 419.623846 -156.15633 
L 420.399493 -156.151229 
L 421.175139 -156.146266 
L 421.950786 -156.14144 
L 422.726432 -156.136745 
L 423.502078 -156.132179 
L 424.277725 -156.127738 
L 425.053371 -156.123417 
L 425.829017 -156.119215 
L 426.604664 -156.115128 
L 427.38031 -156.111153 
L 428.155957 -156.107286 
L 428.931603 -156.103525 
L 429.707249 -156.099866 
L 430.482896 -156.096308 
L 431.258542 -156.092847 
L 432.034188 -156.08948 
L 432.809835 -156.086206 
L 433.585481 -156.083021 
L 434.361128 -156.079923 
L 435.136774 -156.07691 
L 435.91242 -156.073979 
L 436.688067 -156.071128 
L 437.463713 -156.068355 
L 438.239359 -156.065658 
L 439.015006 -156.063035 
L 439.790652 -156.060483 
L 440.566298 -156.058001 
L 441.341945 -156.055587 
L 442.117591 -156.053239 
L 442.893238 -156.050955 
L 443.668884 -156.048734 
L 444.44453 -156.046573 
L 445.220177 -156.044472 
L 445.995823 -156.042427 
L 446.771469 -156.040439 
L 447.547116 -156.038505 
L 448.322762 -156.036624 
L 449.098409 -156.034795 
L 449.874055 -156.033015 
L 450.649701 -156.031284 
L 451.425348 -156.0296 
L 452.200994 -156.027963 
L 452.97664 -156.02637 
L 453.752287 -156.024821 
L 454.527933 -156.023314 
L 455.30358 -156.021848 
L 456.079226 -156.020422 
L 456.854872 -156.019036 
L 457.630519 -156.017687 
L 458.406165 -156.016375 
L 459.181811 -156.015099 
L 459.957458 -156.013858 
L 460.733104 -156.012651 
L 461.508751 -156.011477 
L 462.284397 -156.010335 
L 463.060043 -156.009224 
L 463.83569 -156.008143 
L 464.611336 -156.007092 
L 465.386982 -156.00607 
L 466.162629 -156.005076 
L 466.938275 -156.004109 
L 467.713921 -156.003168 
L 468.489568 -156.002253 
L 469.265214 -156.001363 
L 470.040861 -156.000498 
L 470.816507 -155.999656 
L 471.592153 -155.998837 
L 472.3678 -155.99804 
L 473.143446 -155.997266 
L 473.919092 -155.996512 
L 474.694739 -155.995779 
L 475.470385 -155.995066 
L 476.246032 -155.994373 
L 477.021678 -155.993698 
L 477.797324 -155.993042 
L 478.572971 -155.992404 
L 479.348617 -155.991784 
L 480.124263 -155.99118 
L 480.89991 -155.990593 
L 481.675556 -155.990022 
L 482.451203 -155.989466 
L 483.226849 -155.988926 
L 484.002495 -155.988401 
L 484.778142 -155.987889 
L 485.553788 -155.987392 
L 486.329434 -155.986909 
L 487.105081 -155.986438 
L 487.880727 -155.985981 
L 488.656374 -155.985536 
L 489.43202 -155.985103 
L 490.207666 -155.984682 
L 490.983313 -155.984273 
L 491.758959 -155.983874 
L 492.534605 -155.983487 
L 493.310252 -155.98311 
L 494.085898 -155.982744 
L 494.861545 -155.982387 
L 495.637191 -155.982041 
L 496.412837 -155.981703 
L 497.188484 -155.981375 
L 497.96413 -155.981056 
L 498.739776 -155.980746 
L 499.515423 -155.980444 
L 500.291069 -155.980151 
L 501.066715 -155.979865 
L 501.842362 -155.979587 
L 502.618008 -155.979317 
L 503.393655 -155.979054 
L 504.169301 -155.978799 
L 504.944947 -155.97855 
L 505.720594 -155.978308 
L 506.49624 -155.978073 
L 507.271886 -155.977844 
L 508.047533 -155.977622 
L 508.823179 -155.977406 
L 509.598826 -155.977195 
L 510.374472 -155.97699 
L 511.150118 -155.976791 
L 511.925765 -155.976597 
L 512.701411 -155.976409 
L 513.477057 -155.976226 
L 514.252704 -155.976048 
L 515.02835 -155.975874 
L 515.803997 -155.975706 
L 516.579643 -155.975542 
L 517.355289 -155.975382 
L 518.130936 -155.975227 
L 518.906582 -155.975076 
L 519.682228 -155.974929 
L 520.457875 -155.974786 
L 521.233521 -155.974648 
L 522.009168 -155.974512 
L 522.784814 -155.974381 
L 523.56046 -155.974253 
L 524.336107 -155.974129 
L 525.111753 -155.974008 
L 525.887399 -155.97389 
L 526.663046 -155.973776 
L 527.438692 -155.973665 
L 528.214339 -155.973557 
L 528.989985 -155.973451 
L 529.765631 -155.973349 
L 530.541278 -155.973249 
L 531.316924 -155.973153 
L 532.09257 -155.973058 
L 532.868217 -155.972967 
L 533.643863 -155.972878 
L 534.419509 -155.972791 
L 535.195156 -155.972707 
L 535.970802 -155.972625 
L 536.746449 -155.972545 
L 537.522095 -155.972467 
L 538.297741 -155.972392 
L 539.073388 -155.972318 
L 539.849034 -155.972247 
L 540.62468 -155.972178 
L 541.400327 -155.97211 
L 542.175973 -155.972044 
L 542.95162 -155.971981 
L 543.727266 -155.971918 
L 544.502912 -155.971858 
L 545.278559 -155.971799 
L 546.054205 -155.971742 
L 546.829851 -155.971686 
L 547.605498 -155.971632 
L 548.381144 -155.97158 
L 549.156791 -155.971528 
L 549.932437 -155.971479 
L 550.708083 -155.97143 
L 551.48373 -155.971383 
L 552.259376 -155.971337 
L 553.035022 -155.971293 
L 553.810669 -155.971249 
L 554.586315 -155.971207 
L 555.361962 -155.971166 
L 556.137608 -155.971126 
L 556.913254 -155.971088 
L 557.688901 -155.97105 
L 558.464547 -155.971013 
L 559.240193 -155.970977 
L 560.01584 -155.970943 
L 560.791486 -155.970909 
L 561.567133 -155.970876 
L 562.342779 -155.970844 
L 563.118425 -155.970813 
L 563.894072 -155.970783 
L 564.669718 -155.970753 
L 565.445364 -155.970725 
L 566.221011 -155.970697 
L 566.996657 -155.97067 
L 567.772303 -155.970644 
L 568.54795 -155.970618 
L 569.323596 -155.970593 
L 570.099243 -155.970569 
L 570.874889 -155.970545 
L 571.650535 -155.970523 
L 572.426182 -155.9705 
L 573.201828 -155.970479 
L 573.977474 -155.970457 
L 574.753121 -155.970437 
L 575.528767 -155.970417 
L 576.304414 -155.970398 
L 577.08006 -155.970379 
L 577.855706 -155.97036 
L 578.631353 -155.970343 
L 579.406999 -155.970325 
L 580.182645 -155.970308 
L 580.958292 -155.970292 
L 581.733938 -155.970276 
L 582.509585 -155.97026 
L 583.285231 -155.970245 
L 584.060877 -155.970231 
L 584.836524 -155.970216 
L 585.61217 -155.970202 
L 586.387816 -155.970189 
L 587.163463 -155.970176 
L 587.939109 -155.970163 
L 588.714756 -155.97015 
L 589.490402 -155.970138 
L 590.266048 -155.970127 
L 591.041695 -155.970115 
L 591.817341 -155.970104 
L 592.592987 -155.970093 
L 593.368634 -155.970083 
L 594.14428 -155.970072 
L 594.919927 -155.970062 
L 595.695573 -155.970053 
L 596.471219 -155.970043 
L 597.246866 -155.970034 
L 598.022512 -155.970025 
L 598.798158 -155.970016 
L 599.573805 -155.970008 
L 600.349451 -155.97 
L 601.125097 -155.969992 
L 601.900744 -155.969984 
L 602.67639 -155.969977 
L 603.452037 -155.969969 
L 604.227683 -155.969962 
L 605.003329 -155.969955 
L 605.778976 -155.969948 
L 606.554622 -155.969942 
L 607.330268 -155.969935 
L 608.105915 -155.969929 
L 608.881561 -155.969923 
L 609.657208 -155.969917 
L 610.432854 -155.969911 
L 611.2085 -155.969906 
L 611.984147 -155.9699 
L 612.759793 -155.969895 
L 613.535439 -155.96989 
L 614.311086 -155.969885 
L 615.086732 -155.96988 
L 615.862379 -155.969875 
L 616.638025 -155.969871 
L 617.413671 -155.969866 
L 618.189318 -155.969862 
L 618.964964 -155.969858 
L 619.74061 -155.969854 
L 620.516257 -155.96985 
L 621.291903 -155.969846 
L 622.06755 -155.969842 
L 622.843196 -155.969838 
L 623.618842 -155.969835 
L 624.394489 -155.969831 
L 624.394489 -166.656994 
L 624.394489 -166.656994 
L 623.618842 -166.76277 
L 622.843196 -166.869572 
L 622.06755 -166.977409 
L 621.291903 -167.08629 
L 620.516257 -167.196225 
L 619.74061 -167.307225 
L 618.964964 -167.419298 
L 618.189318 -167.532455 
L 617.413671 -167.646706 
L 616.638025 -167.762061 
L 615.862379 -167.87853 
L 615.086732 -167.996123 
L 614.311086 -168.11485 
L 613.535439 -168.234723 
L 612.759793 -168.35575 
L 611.984147 -168.477944 
L 611.2085 -168.601315 
L 610.432854 -168.725873 
L 609.657208 -168.85163 
L 608.881561 -168.978596 
L 608.105915 -169.106782 
L 607.330268 -169.236199 
L 606.554622 -169.366859 
L 605.778976 -169.498773 
L 605.003329 -169.631952 
L 604.227683 -169.766408 
L 603.452037 -169.902152 
L 602.67639 -170.039195 
L 601.900744 -170.177551 
L 601.125097 -170.31723 
L 600.349451 -170.458244 
L 599.573805 -170.600606 
L 598.798158 -170.744327 
L 598.022512 -170.889419 
L 597.246866 -171.035896 
L 596.471219 -171.183769 
L 595.695573 -171.333051 
L 594.919927 -171.483754 
L 594.14428 -171.635891 
L 593.368634 -171.789475 
L 592.592987 -171.944519 
L 591.817341 -172.101036 
L 591.041695 -172.259038 
L 590.266048 -172.418538 
L 589.490402 -172.579551 
L 588.714756 -172.74209 
L 587.939109 -172.906167 
L 587.163463 -173.071797 
L 586.387816 -173.238992 
L 585.61217 -173.407768 
L 584.836524 -173.578137 
L 584.060877 -173.750113 
L 583.285231 -173.923711 
L 582.509585 -174.098945 
L 581.733938 -174.275829 
L 580.958292 -174.454377 
L 580.182645 -174.634603 
L 579.406999 -174.816523 
L 578.631353 -175.000151 
L 577.855706 -175.185501 
L 577.08006 -175.372589 
L 576.304414 -175.56143 
L 575.528767 -175.752037 
L 574.753121 -175.944427 
L 573.977474 -176.138615 
L 573.201828 -176.334616 
L 572.426182 -176.532446 
L 571.650535 -176.73212 
L 570.874889 -176.933654 
L 570.099243 -177.137063 
L 569.323596 -177.342363 
L 568.54795 -177.549571 
L 567.772303 -177.758702 
L 566.996657 -177.969773 
L 566.221011 -178.1828 
L 565.445364 -178.397799 
L 564.669718 -178.614786 
L 563.894072 -178.833779 
L 563.118425 -179.054793 
L 562.342779 -179.277847 
L 561.567133 -179.502955 
L 560.791486 -179.730137 
L 560.01584 -179.959407 
L 559.240193 -180.190785 
L 558.464547 -180.424286 
L 557.688901 -180.659929 
L 556.913254 -180.89773 
L 556.137608 -181.137708 
L 555.361962 -181.37988 
L 554.586315 -181.624264 
L 553.810669 -181.870878 
L 553.035022 -182.119739 
L 552.259376 -182.370865 
L 551.48373 -182.624276 
L 550.708083 -182.879989 
L 549.932437 -183.138022 
L 549.156791 -183.398394 
L 548.381144 -183.661124 
L 547.605498 -183.926229 
L 546.829851 -184.193729 
L 546.054205 -184.463643 
L 545.278559 -184.735989 
L 544.502912 -185.010787 
L 543.727266 -185.288055 
L 542.95162 -185.567813 
L 542.175973 -185.85008 
L 541.400327 -186.134875 
L 540.62468 -186.422218 
L 539.849034 -186.712129 
L 539.073388 -187.004626 
L 538.297741 -187.299729 
L 537.522095 -187.597459 
L 536.746449 -187.897835 
L 535.970802 -188.200877 
L 535.195156 -188.506606 
L 534.419509 -188.81504 
L 533.643863 -189.126201 
L 532.868217 -189.440108 
L 532.09257 -189.756782 
L 531.316924 -190.076243 
L 530.541278 -190.398512 
L 529.765631 -190.723609 
L 528.989985 -191.051555 
L 528.214339 -191.38237 
L 527.438692 -191.716075 
L 526.663046 -192.052692 
L 525.887399 -192.39224 
L 525.111753 -192.73474 
L 524.336107 -193.080214 
L 523.56046 -193.428682 
L 522.784814 -193.780166 
L 522.009168 -194.134687 
L 521.233521 -194.492265 
L 520.457875 -194.852923 
L 519.682228 -195.21668 
L 518.906582 -195.583559 
L 518.130936 -195.953581 
L 517.355289 -196.326767 
L 516.579643 -196.703138 
L 515.803997 -197.082717 
L 515.02835 -197.465524 
L 514.252704 -197.85158 
L 513.477057 -198.240908 
L 512.701411 -198.633529 
L 511.925765 -199.029464 
L 511.150118 -199.428735 
L 510.374472 -199.831363 
L 509.598826 -200.23737 
L 508.823179 -200.646778 
L 508.047533 -201.059608 
L 507.271886 -201.475882 
L 506.49624 -201.895621 
L 505.720594 -202.318847 
L 504.944947 -202.745581 
L 504.169301 -203.175845 
L 503.393655 -203.60966 
L 502.618008 -204.047048 
L 501.842362 -204.488031 
L 501.066715 -204.932629 
L 500.291069 -205.380864 
L 499.515423 -205.832758 
L 498.739776 -206.288332 
L 497.96413 -206.747606 
L 497.188484 -207.210603 
L 496.412837 -207.677343 
L 495.637191 -208.147848 
L 494.861545 -208.622138 
L 494.085898 -209.100234 
L 493.310252 -209.582158 
L 492.534605 -210.067931 
L 491.758959 -210.557572 
L 490.983313 -211.051102 
L 490.207666 -211.548543 
L 489.43202 -212.049914 
L 488.656374 -212.555236 
L 487.880727 -213.064528 
L 487.105081 -213.577813 
L 486.329434 -214.095108 
L 485.553788 -214.616434 
L 484.778142 -215.141811 
L 484.002495 -215.671258 
L 483.226849 -216.204795 
L 482.451203 -216.742442 
L 481.675556 -217.284216 
L 480.89991 -217.830138 
L 480.124263 -218.380225 
L 479.348617 -218.934498 
L 478.572971 -219.492973 
L 477.797324 -220.05567 
L 477.021678 -220.622606 
L 476.246032 -221.193799 
L 475.470385 -221.769268 
L 474.694739 -222.349029 
L 473.919092 -222.9331 
L 473.143446 -223.521497 
L 472.3678 -224.114238 
L 471.592153 -224.711338 
L 470.816507 -225.312815 
L 470.040861 -225.918684 
L 469.265214 -226.528961 
L 468.489568 -227.143662 
L 467.713921 -227.762801 
L 466.938275 -228.386393 
L 466.162629 -229.014454 
L 465.386982 -229.646997 
L 464.611336 -230.284036 
L 463.83569 -230.925586 
L 463.060043 -231.571659 
L 462.284397 -232.222268 
L 461.508751 -232.877426 
L 460.733104 -233.537145 
L 459.957458 -234.201438 
L 459.181811 -234.870315 
L 458.406165 -235.543788 
L 457.630519 -236.221867 
L 456.854872 -236.904564 
L 456.079226 -237.591887 
L 455.30358 -238.283847 
L 454.527933 -238.980453 
L 453.752287 -239.681713 
L 452.97664 -240.387635 
L 452.200994 -241.098227 
L 451.425348 -241.813497 
L 450.649701 -242.533451 
L 449.874055 -243.258096 
L 449.098409 -243.987438 
L 448.322762 -244.721481 
L 447.547116 -245.460231 
L 446.771469 -246.203692 
L 445.995823 -246.951868 
L 445.220177 -247.704762 
L 444.44453 -248.462376 
L 443.668884 -249.224713 
L 442.893238 -249.991774 
L 442.117591 -250.76356 
L 441.341945 -251.540072 
L 440.566298 -252.321309 
L 439.790652 -253.10727 
L 439.015006 -253.897954 
L 438.239359 -254.693358 
L 437.463713 -255.49348 
L 436.688067 -256.298317 
L 435.91242 -257.107864 
L 435.136774 -257.922116 
L 434.361128 -258.741068 
L 433.585481 -259.564714 
L 432.809835 -260.393046 
L 432.034188 -261.226057 
L 431.258542 -262.06374 
L 430.482896 -262.906084 
L 429.707249 -263.753079 
L 428.931603 -264.604716 
L 428.155957 -265.460982 
L 427.38031 -266.321866 
L 426.604664 -267.187355 
L 425.829017 -268.057434 
L 425.053371 -268.93209 
L 424.277725 -269.811306 
L 423.502078 -270.695067 
L 422.726432 -271.583355 
L 421.950786 -272.476152 
L 421.175139 -273.37344 
L 420.399493 -274.275199 
L 419.623846 -275.181409 
L 418.8482 -276.092047 
L 418.072554 -277.007092 
L 417.296907 -277.92652 
L 416.521261 -278.850307 
L 415.745615 -279.778427 
L 414.969968 -280.710856 
L 414.194322 -281.647565 
L 413.418675 -282.588527 
L 412.643029 -283.533714 
L 411.867383 -284.483094 
L 411.091736 -285.436637 
L 410.31609 -286.394311 
L 409.540444 -287.356084 
L 408.764797 -288.321921 
L 407.989151 -289.291788 
L 407.213504 -290.265649 
L 406.437858 -291.243466 
L 405.662212 -292.225203 
L 404.886565 -293.210819 
L 404.110919 -294.200275 
L 403.335273 -295.19353 
L 402.559626 -296.190542 
L 401.78398 -297.191268 
L 401.008334 -298.195662 
L 400.232687 -299.203681 
L 399.457041 -300.215277 
L 398.681394 -301.230404 
L 397.905748 -302.249012 
L 397.130102 -303.271052 
L 396.354455 -304.296474 
L 395.578809 -305.325225 
L 394.803163 -306.357253 
L 394.027516 -307.392504 
L 393.25187 -308.430922 
L 392.476223 -309.472453 
L 391.700577 -310.517037 
L 390.924931 -311.564618 
L 390.149284 -312.615135 
L 389.373638 -313.668529 
L 388.597992 -314.724737 
L 387.822345 -315.783696 
L 387.046699 -316.845344 
L 386.271052 -317.909616 
L 385.495406 -318.976444 
L 384.71976 -320.045763 
L 383.944113 -321.117504 
L 383.168467 -322.191597 
L 382.392821 -323.267974 
L 381.617174 -324.346562 
L 380.841528 -325.427289 
L 380.065881 -326.510082 
L 379.290235 -327.594866 
L 378.514589 -328.681566 
L 377.738942 -329.770105 
L 376.963296 -330.860407 
L 376.18765 -331.952391 
L 375.412003 -333.045979 
L 374.636357 -334.141091 
L 373.86071 -335.237644 
L 373.085064 -336.335557 
L 372.309418 -337.434745 
L 371.533771 -338.535126 
L 370.758125 -339.636612 
L 369.982479 -340.739119 
L 369.206832 -341.842559 
L 368.431186 -342.946845 
L 367.65554 -344.051886 
L 366.879893 -345.157595 
L 366.104247 -346.263879 
L 365.3286 -347.370649 
L 364.552954 -348.477811 
L 363.777308 -349.585273 
L 363.001661 -350.692942 
L 362.226015 -351.800722 
L 361.450369 -352.908519 
L 360.674722 -354.016237 
L 359.899076 -355.123779 
L 359.123429 -356.231049 
L 358.347783 -357.337948 
L 357.572137 -358.444378 
L 356.79649 -359.550241 
L 356.020844 -360.655436 
L 355.245198 -361.759863 
L 354.469551 -362.863423 
L 353.693905 -363.966014 
L 352.918258 -365.067534 
L 352.142612 -366.167882 
L 351.366966 -367.266955 
L 350.591319 -368.364651 
L 349.815673 -369.460866 
L 349.040027 -370.555498 
L 348.26438 -371.648443 
L 347.488734 -372.739596 
L 346.713087 -373.828854 
L 345.937441 -374.916113 
L 345.161795 -376.001268 
L 344.386148 -377.084215 
L 343.610502 -378.164848 
L 342.834856 -379.243065 
L 342.059209 -380.318759 
L 341.283563 -381.391826 
L 340.507916 -382.462162 
L 339.73227 -383.529662 
L 338.956624 -384.594222 
L 338.180977 -385.655738 
L 337.405331 -386.714105 
L 336.629685 -387.76922 
L 335.854038 -388.820979 
L 335.078392 -389.86928 
L 334.302746 -390.914019 
L 333.527099 -391.955093 
L 332.751453 -392.992402 
L 331.975806 -394.025843 
L 331.20016 -395.055316 
L 330.424514 -396.080719 
L 329.648867 -397.101953 
L 328.873221 -398.118919 
L 328.097575 -399.131517 
L 327.321928 -400.139651 
L 326.546282 -401.143222 
L 325.770635 -402.142134 
L 324.994989 -403.136292 
L 324.219343 -404.125601 
L 323.443696 -405.109966 
L 322.66805 -406.089296 
L 321.892404 -407.063497 
L 321.116757 -408.032479 
L 320.341111 -408.996151 
L 319.565464 -409.954426 
L 318.789818 -410.907215 
L 318.014172 -411.854431 
L 317.238525 -412.795989 
L 316.462879 -413.731805 
L 315.687233 -414.661796 
L 314.911586 -415.585879 
L 314.13594 -416.503976 
L 313.360293 -417.416006 
L 312.584647 -418.321893 
L 311.809001 -419.221559 
L 311.033354 -420.114931 
L 310.257708 -421.001936 
L 309.482062 -421.882501 
L 308.706415 -422.756556 
L 307.930769 -423.624033 
L 307.155122 -424.484866 
L 306.379476 -425.338988 
L 305.60383 -426.186337 
L 304.828183 -427.02685 
L 304.052537 -427.860468 
L 303.276891 -428.687132 
L 302.501244 -429.506785 
L 301.725598 -430.319373 
L 300.949952 -431.124843 
L 300.174305 -431.923144 
L 299.398659 -432.714226 
L 298.623012 -433.498043 
L 297.847366 -434.274549 
L 297.07172 -435.0437 
L 296.296073 -435.805455 
L 295.520427 -436.559775 
L 294.744781 -437.306621 
L 293.969134 -438.045959 
L 293.193488 -438.777755 
L 292.417841 -439.501978 
L 291.642195 -440.218597 
L 290.866549 -440.927585 
L 290.090902 -441.628917 
L 289.315256 -442.322571 
L 288.53961 -443.008523 
L 287.763963 -443.686756 
L 286.988317 -444.357251 
L 286.21267 -445.019995 
L 285.437024 -445.674973 
L 284.661378 -446.322175 
L 283.885731 -446.961593 
L 283.110085 -447.593219 
L 282.334439 -448.217048 
L 281.558792 -448.833079 
L 280.783146 -449.44131 
L 280.007499 -450.041742 
L 279.231853 -450.63438 
L 278.456207 -451.219229 
L 277.68056 -451.796297 
L 276.904914 -452.365592 
L 276.129268 -452.927126 
L 275.353621 -453.480914 
L 274.577975 -454.02697 
L 273.802329 -454.565311 
L 273.026682 -455.095958 
L 272.251036 -455.618931 
L 271.475389 -456.134254 
L 270.699743 -456.641952 
L 269.924097 -457.14205 
L 269.14845 -457.634579 
L 268.372804 -458.119569 
L 267.597158 -458.597051 
L 266.821511 -459.06706 
L 266.045865 -459.529631 
L 265.270218 -459.984803 
L 264.494572 -460.432613 
L 263.718926 -460.873102 
L 262.943279 -461.306314 
L 262.167633 -461.732291 
L 261.391987 -462.151079 
L 260.61634 -462.562725 
L 259.840694 -462.967277 
L 259.065047 -463.364785 
L 258.289401 -463.7553 
L 257.513755 -464.138874 
L 256.738108 -464.515562 
L 255.962462 -464.885419 
L 255.186816 -465.248501 
L 254.411169 -465.604864 
L 253.635523 -465.954569 
L 252.859876 -466.297675 
L 252.08423 -466.634243 
L 251.308584 -466.964335 
L 250.532937 -467.288014 
L 249.757291 -467.605344 
L 248.981645 -467.91639 
L 248.205998 -468.221217 
L 247.430352 -468.519892 
L 246.654705 -468.812483 
L 245.879059 -469.099058 
L 245.103413 -469.379686 
L 244.327766 -469.654436 
L 243.55212 -469.923378 
L 242.776474 -470.186584 
L 242.000827 -470.444124 
L 241.225181 -470.696071 
L 240.449535 -470.942497 
L 239.673888 -471.183474 
L 238.898242 -471.419077 
L 238.122595 -471.649377 
L 237.346949 -471.87445 
L 236.571303 -472.094369 
L 235.795656 -472.309208 
L 235.02001 -472.519042 
L 234.244364 -472.723945 
L 233.468717 -472.923993 
L 232.693071 -473.11926 
L 231.917424 -473.309821 
L 231.141778 -473.495751 
L 230.366132 -473.677124 
L 229.590485 -473.854015 
L 228.814839 -474.0265 
L 228.039193 -474.194651 
L 227.263546 -474.358545 
L 226.4879 -474.518254 
L 225.712253 -474.673852 
L 224.936607 -474.825413 
L 224.160961 -474.973011 
L 223.385314 -475.116718 
L 222.609668 -475.256607 
L 221.834022 -475.392749 
L 221.058375 -475.525217 
L 220.282729 -475.654082 
L 219.507082 -475.779415 
L 218.731436 -475.901285 
L 217.95579 -476.019763 
L 217.180143 -476.134918 
L 216.404497 -476.246818 
L 215.628851 -476.355531 
L 214.853204 -476.461125 
L 214.077558 -476.563667 
L 213.301911 -476.663222 
L 212.526265 -476.759856 
L 211.750619 -476.853634 
L 210.974972 -476.94462 
L 210.199326 -477.032877 
L 209.42368 -477.118467 
L 208.648033 -477.201452 
L 207.872387 -477.281894 
L 207.096741 -477.359852 
L 206.321094 -477.435386 
L 205.545448 -477.508555 
L 204.769801 -477.579416 
L 203.994155 -477.648026 
L 203.218509 -477.714441 
L 202.442862 -477.778717 
L 201.667216 -477.840908 
L 200.89157 -477.901067 
L 200.115923 -477.959248 
L 199.340277 -478.015501 
L 198.56463 -478.069879 
L 197.788984 -478.122431 
L 197.013338 -478.173206 
L 196.237691 -478.222253 
L 195.462045 -478.269619 
L 194.686399 -478.315351 
L 193.910752 -478.359494 
L 193.135106 -478.402094 
L 192.359459 -478.443193 
L 191.583813 -478.482836 
L 190.808167 -478.521064 
L 190.03252 -478.557919 
L 189.256874 -478.593442 
L 188.481228 -478.627671 
L 187.705581 -478.660646 
L 186.929935 -478.692404 
L 186.154288 -478.722983 
L 185.378642 -478.752419 
L 184.602996 -478.780747 
L 183.827349 -478.808001 
L 183.051703 -478.834217 
L 182.276057 -478.859426 
L 181.50041 -478.88366 
L 180.724764 -478.906952 
L 179.949117 -478.929331 
L 179.173471 -478.950828 
L 178.397825 -478.971471 
L 177.622178 -478.99129 
L 176.846532 -479.01031 
L 176.070886 -479.02856 
L 175.295239 -479.046065 
L 174.519593 -479.062851 
L 173.743947 -479.078942 
L 172.9683 -479.094362 
L 172.192654 -479.109136 
L 171.417007 -479.123284 
L 170.641361 -479.13683 
L 169.865715 -479.149795 
L 169.090068 -479.162199 
L 168.314422 -479.174062 
L 167.538776 -479.185405 
L 166.763129 -479.196245 
L 165.987483 -479.206601 
L 165.211836 -479.21649 
L 164.43619 -479.225931 
L 163.660544 -479.234938 
L 162.884897 -479.243529 
L 162.109251 -479.251718 
L 161.333605 -479.259521 
L 160.557958 -479.266951 
L 159.782312 -479.274023 
L 159.006665 -479.28075 
L 158.231019 -479.287143 
L 157.455373 -479.293217 
L 156.679726 -479.298982 
L 155.90408 -479.304449 
L 155.128434 -479.309629 
L 154.352787 -479.314533 
L 153.577141 -479.319169 
L 152.801494 -479.323547 
L 152.025848 -479.327675 
L 151.250202 -479.331562 
L 150.474555 -479.335214 
L 149.698909 -479.338638 
L 148.923263 -479.34184 
L 148.147616 -479.344827 
L 147.37197 -479.347601 
L 146.596323 -479.350167 
L 145.820677 -479.352529 
L 145.045031 -479.354687 
L 144.269384 -479.356642 
L 143.493738 -479.358394 
L 142.718092 -479.359941 
L 141.942445 -479.361278 
L 141.166799 -479.362401 
L 140.391153 -479.363299 
L 139.615506 -479.363963 
L 138.83986 -479.364376 
L 138.064213 -479.364519 
L 137.288567 -479.364366 
L 136.512921 -479.364136 
L 135.737274 -479.364475 
L 134.961628 -479.364473 
L 134.185982 -479.364088 
L 133.410335 -479.364304 
L 132.634689 -479.364519 
L 131.859042 -479.364282 
L 131.083396 -479.363916 
L 130.30775 -479.364448 
L 129.532103 -479.364444 
L 128.756457 -479.363794 
L 127.980811 -479.364151 
L 127.205164 -479.364519 
L 126.429518 -479.364085 
L 125.653871 -479.362601 
L 124.878225 -479.359682 
L 124.102579 -479.354697 
L 123.326932 -479.346568 
L 122.551286 -479.333327 
L 121.77564 -479.311105 
L 120.999993 -479.271538 
L 120.224347 -479.194192 
L 119.4487 -479.020353 
L 118.673054 -478.538634 
L 117.897408 -476.684687 
L 117.121761 -464.06096 
z
" style="stroke: #ffa500; stroke-opacity: 0.3"/>
    </defs>
    <g clip-path="url(#p3734278230)">
     <use xlink:href="#m1be7c65f8b" x="0" y="540.100875" style="fill: #ffa500; fill-opacity: 0.3; stroke: #ffa500; stroke-opacity: 0.3"/>
    </g>
   </g>
   <g id="PolyCollection_2">
    <defs>
     <path id="mfb7d5c0b33" d="M 117.121761 -288.079654 
L 117.121761 -217.839821 
L 117.897408 -263.21509 
L 118.673054 -297.274541 
L 119.4487 -323.356553 
L 120.224347 -343.678809 
L 120.999993 -359.753803 
L 121.77564 -372.637299 
L 122.551286 -383.081621 
L 123.326932 -391.63286 
L 124.102579 -398.694058 
L 124.878225 -404.567189 
L 125.653871 -409.481615 
L 126.429518 -413.613732 
L 127.205164 -417.100756 
L 127.980811 -420.050543 
L 128.756457 -422.54869 
L 129.532103 -424.66373 
L 130.30775 -426.450979 
L 131.083396 -427.955422 
L 131.859042 -428.883198 
L 132.634689 -427.538838 
L 133.410335 -426.060034 
L 134.185982 -424.457428 
L 134.961628 -422.740177 
L 135.737274 -420.916289 
L 136.512921 -418.992869 
L 137.288567 -416.976312 
L 138.064213 -414.872446 
L 138.83986 -412.686646 
L 139.615506 -410.423916 
L 140.391153 -408.088962 
L 141.166799 -405.686238 
L 141.942445 -403.21999 
L 142.718092 -400.694285 
L 143.493738 -398.113036 
L 144.269384 -395.480024 
L 145.045031 -392.798905 
L 145.820677 -390.073233 
L 146.596323 -387.306456 
L 147.37197 -384.501934 
L 148.147616 -381.662937 
L 148.923263 -378.792649 
L 149.698909 -375.894176 
L 150.474555 -372.970544 
L 151.250202 -370.024699 
L 152.025848 -367.059514 
L 152.801494 -364.077783 
L 153.577141 -361.082224 
L 154.352787 -358.075481 
L 155.128434 -355.060122 
L 155.90408 -352.038636 
L 156.679726 -349.013441 
L 157.455373 -345.986874 
L 158.231019 -342.9612 
L 159.006665 -339.938603 
L 159.782312 -336.921193 
L 160.557958 -333.911002 
L 161.333605 -330.909987 
L 162.109251 -327.920027 
L 162.884897 -324.942924 
L 163.660544 -321.980405 
L 164.43619 -319.03412 
L 165.211836 -316.105644 
L 165.987483 -313.196478 
L 166.763129 -310.308049 
L 167.538776 -307.441709 
L 168.314422 -304.598738 
L 169.090068 -301.780346 
L 169.865715 -298.98767 
L 170.641361 -296.22178 
L 171.417007 -293.483676 
L 172.192654 -290.774293 
L 172.9683 -288.094498 
L 173.743947 -285.445097 
L 174.519593 -282.826831 
L 175.295239 -280.24038 
L 176.070886 -277.686367 
L 176.846532 -275.165354 
L 177.622178 -272.67785 
L 178.397825 -270.224307 
L 179.173471 -267.805127 
L 179.949117 -265.420658 
L 180.724764 -263.071201 
L 181.50041 -260.757009 
L 182.276057 -258.478291 
L 183.051703 -256.235209 
L 183.827349 -254.027886 
L 184.602996 -251.856404 
L 185.378642 -249.720805 
L 186.154288 -247.621097 
L 186.929935 -245.557251 
L 187.705581 -243.529205 
L 188.481228 -241.536867 
L 189.256874 -239.580113 
L 190.03252 -237.658791 
L 190.808167 -235.772724 
L 191.583813 -233.921708 
L 192.359459 -232.105516 
L 193.135106 -230.323899 
L 193.910752 -228.576586 
L 194.686399 -226.863288 
L 195.462045 -225.183698 
L 196.237691 -223.53749 
L 197.013338 -221.924325 
L 197.788984 -220.343849 
L 198.56463 -218.795695 
L 199.340277 -217.279482 
L 200.115923 -215.794822 
L 200.89157 -214.341313 
L 201.667216 -212.918547 
L 202.442862 -211.526107 
L 203.218509 -210.163569 
L 203.994155 -208.830503 
L 204.769801 -207.526473 
L 205.545448 -206.251041 
L 206.321094 -205.003761 
L 207.096741 -203.784189 
L 207.872387 -202.591875 
L 208.648033 -201.426367 
L 209.42368 -200.287216 
L 210.199326 -199.173968 
L 210.974972 -198.086171 
L 211.750619 -197.023373 
L 212.526265 -195.985125 
L 213.301911 -194.970977 
L 214.077558 -193.980481 
L 214.853204 -193.013192 
L 215.628851 -192.068669 
L 216.404497 -191.146472 
L 217.180143 -190.246164 
L 217.95579 -189.367314 
L 218.731436 -188.509493 
L 219.507082 -187.672276 
L 220.282729 -186.855244 
L 221.058375 -186.05798 
L 221.834022 -185.280074 
L 222.609668 -184.52112 
L 223.385314 -183.780718 
L 224.160961 -183.058471 
L 224.936607 -182.35399 
L 225.712253 -181.666889 
L 226.4879 -180.996789 
L 227.263546 -180.343317 
L 228.039193 -179.706104 
L 228.814839 -179.084789 
L 229.590485 -178.479016 
L 230.366132 -177.888432 
L 231.141778 -177.312694 
L 231.917424 -176.751464 
L 232.693071 -176.204407 
L 233.468717 -175.671197 
L 234.244364 -175.151513 
L 235.02001 -174.645039 
L 235.795656 -174.151466 
L 236.571303 -173.670491 
L 237.346949 -173.201815 
L 238.122595 -172.745147 
L 238.898242 -172.300201 
L 239.673888 -171.866695 
L 240.449535 -171.444355 
L 241.225181 -171.032911 
L 242.000827 -170.6321 
L 242.776474 -170.241662 
L 243.55212 -169.861346 
L 244.327766 -169.490903 
L 245.103413 -169.130091 
L 245.879059 -168.778672 
L 246.654705 -168.436416 
L 247.430352 -168.103094 
L 248.205998 -167.778484 
L 248.981645 -167.46237 
L 249.757291 -167.15454 
L 250.532937 -166.854785 
L 251.308584 -166.562903 
L 252.08423 -166.278696 
L 252.859876 -166.00197 
L 253.635523 -165.732536 
L 254.411169 -165.470209 
L 255.186816 -165.214809 
L 255.962462 -164.966158 
L 256.738108 -164.724086 
L 257.513755 -164.488423 
L 258.289401 -164.259005 
L 259.065047 -164.035673 
L 259.840694 -163.81827 
L 260.61634 -163.606644 
L 261.391987 -163.400644 
L 262.167633 -163.200126 
L 262.943279 -163.004948 
L 263.718926 -162.814972 
L 264.494572 -162.630062 
L 265.270218 -162.450087 
L 266.045865 -162.274919 
L 266.821511 -162.104431 
L 267.597158 -161.938502 
L 268.372804 -161.777013 
L 269.14845 -161.619848 
L 269.924097 -161.466892 
L 270.699743 -161.318036 
L 271.475389 -161.173173 
L 272.251036 -161.032196 
L 273.026682 -160.895004 
L 273.802329 -160.761497 
L 274.577975 -160.631578 
L 275.353621 -160.505152 
L 276.129268 -160.382126 
L 276.904914 -160.262411 
L 277.68056 -160.14592 
L 278.456207 -160.032565 
L 279.231853 -159.922266 
L 280.007499 -159.814939 
L 280.783146 -159.710507 
L 281.558792 -159.608892 
L 282.334439 -159.510019 
L 283.110085 -159.413816 
L 283.885731 -159.320211 
L 284.661378 -159.229134 
L 285.437024 -159.140519 
L 286.21267 -159.054299 
L 286.988317 -158.970411 
L 287.763963 -158.888793 
L 288.53961 -158.809382 
L 289.315256 -158.732121 
L 290.090902 -158.656952 
L 290.866549 -158.583818 
L 291.642195 -158.512666 
L 292.417841 -158.443441 
L 293.193488 -158.376093 
L 293.969134 -158.31057 
L 294.744781 -158.246824 
L 295.520427 -158.184807 
L 296.296073 -158.124472 
L 297.07172 -158.065774 
L 297.847366 -158.00867 
L 298.623012 -157.953115 
L 299.398659 -157.899069 
L 300.174305 -157.84649 
L 300.949952 -157.79534 
L 301.725598 -157.745579 
L 302.501244 -157.69717 
L 303.276891 -157.650077 
L 304.052537 -157.604263 
L 304.828183 -157.559695 
L 305.60383 -157.516339 
L 306.379476 -157.474162 
L 307.155122 -157.433132 
L 307.930769 -157.393218 
L 308.706415 -157.35439 
L 309.482062 -157.316619 
L 310.257708 -157.279875 
L 311.033354 -157.244131 
L 311.809001 -157.20936 
L 312.584647 -157.175536 
L 313.360293 -157.142633 
L 314.13594 -157.110626 
L 314.911586 -157.07949 
L 315.687233 -157.049203 
L 316.462879 -157.01974 
L 317.238525 -156.99108 
L 318.014172 -156.963201 
L 318.789818 -156.936082 
L 319.565464 -156.909701 
L 320.341111 -156.88404 
L 321.116757 -156.859078 
L 321.892404 -156.834796 
L 322.66805 -156.811176 
L 323.443696 -156.7882 
L 324.219343 -156.765851 
L 324.994989 -156.744111 
L 325.770635 -156.722964 
L 326.546282 -156.702393 
L 327.321928 -156.682384 
L 328.097575 -156.66292 
L 328.873221 -156.643988 
L 329.648867 -156.625571 
L 330.424514 -156.607657 
L 331.20016 -156.590232 
L 331.975806 -156.573283 
L 332.751453 -156.556795 
L 333.527099 -156.540758 
L 334.302746 -156.525159 
L 335.078392 -156.509985 
L 335.854038 -156.495225 
L 336.629685 -156.480868 
L 337.405331 -156.466903 
L 338.180977 -156.453319 
L 338.956624 -156.440106 
L 339.73227 -156.427253 
L 340.507916 -156.414752 
L 341.283563 -156.402592 
L 342.059209 -156.390763 
L 342.834856 -156.379258 
L 343.610502 -156.368067 
L 344.386148 -156.357182 
L 345.161795 -156.346593 
L 345.937441 -156.336294 
L 346.713087 -156.326276 
L 347.488734 -156.316532 
L 348.26438 -156.307054 
L 349.040027 -156.297835 
L 349.815673 -156.288867 
L 350.591319 -156.280145 
L 351.366966 -156.271661 
L 352.142612 -156.263408 
L 352.918258 -156.255381 
L 353.693905 -156.247573 
L 354.469551 -156.239979 
L 355.245198 -156.232592 
L 356.020844 -156.225406 
L 356.79649 -156.218417 
L 357.572137 -156.211619 
L 358.347783 -156.205007 
L 359.123429 -156.198576 
L 359.899076 -156.19232 
L 360.674722 -156.186235 
L 361.450369 -156.180316 
L 362.226015 -156.174559 
L 363.001661 -156.168959 
L 363.777308 -156.163513 
L 364.552954 -156.158215 
L 365.3286 -156.153062 
L 366.104247 -156.14805 
L 366.879893 -156.143175 
L 367.65554 -156.138433 
L 368.431186 -156.13382 
L 369.206832 -156.129334 
L 369.982479 -156.12497 
L 370.758125 -156.120726 
L 371.533771 -156.116597 
L 372.309418 -156.112581 
L 373.085064 -156.108675 
L 373.86071 -156.104876 
L 374.636357 -156.101181 
L 375.412003 -156.097587 
L 376.18765 -156.094091 
L 376.963296 -156.09069 
L 377.738942 -156.087383 
L 378.514589 -156.084165 
L 379.290235 -156.081036 
L 380.065881 -156.077993 
L 380.841528 -156.075032 
L 381.617174 -156.072152 
L 382.392821 -156.069352 
L 383.168467 -156.066627 
L 383.944113 -156.063978 
L 384.71976 -156.0614 
L 385.495406 -156.058893 
L 386.271052 -156.056455 
L 387.046699 -156.054083 
L 387.822345 -156.051776 
L 388.597992 -156.049532 
L 389.373638 -156.04735 
L 390.149284 -156.045227 
L 390.924931 -156.043162 
L 391.700577 -156.041154 
L 392.476223 -156.0392 
L 393.25187 -156.0373 
L 394.027516 -156.035452 
L 394.803163 -156.033655 
L 395.578809 -156.031906 
L 396.354455 -156.030206 
L 397.130102 -156.028551 
L 397.905748 -156.026943 
L 398.681394 -156.025378 
L 399.457041 -156.023855 
L 400.232687 -156.022375 
L 401.008334 -156.020935 
L 401.78398 -156.019534 
L 402.559626 -156.018172 
L 403.335273 -156.016847 
L 404.110919 -156.015558 
L 404.886565 -156.014304 
L 405.662212 -156.013085 
L 406.437858 -156.011899 
L 407.213504 -156.010745 
L 407.989151 -156.009623 
L 408.764797 -156.008532 
L 409.540444 -156.00747 
L 410.31609 -156.006437 
L 411.091736 -156.005433 
L 411.867383 -156.004456 
L 412.643029 -156.003506 
L 413.418675 -156.002582 
L 414.194322 -156.001683 
L 414.969968 -156.000809 
L 415.745615 -155.999958 
L 416.521261 -155.999131 
L 417.296907 -155.998327 
L 418.072554 -155.997544 
L 418.8482 -155.996783 
L 419.623846 -155.996043 
L 420.399493 -155.995322 
L 421.175139 -155.994622 
L 421.950786 -155.993941 
L 422.726432 -155.993278 
L 423.502078 -155.992634 
L 424.277725 -155.992007 
L 425.053371 -155.991397 
L 425.829017 -155.990804 
L 426.604664 -155.990227 
L 427.38031 -155.989666 
L 428.155957 -155.98912 
L 428.931603 -155.988589 
L 429.707249 -155.988073 
L 430.482896 -155.987571 
L 431.258542 -155.987083 
L 432.034188 -155.986607 
L 432.809835 -155.986145 
L 433.585481 -155.985696 
L 434.361128 -155.985259 
L 435.136774 -155.984833 
L 435.91242 -155.98442 
L 436.688067 -155.984018 
L 437.463713 -155.983626 
L 438.239359 -155.983246 
L 439.015006 -155.982875 
L 439.790652 -155.982515 
L 440.566298 -155.982165 
L 441.341945 -155.981825 
L 442.117591 -155.981493 
L 442.893238 -155.981171 
L 443.668884 -155.980857 
L 444.44453 -155.980553 
L 445.220177 -155.980256 
L 445.995823 -155.979968 
L 446.771469 -155.979687 
L 447.547116 -155.979414 
L 448.322762 -155.979149 
L 449.098409 -155.978891 
L 449.874055 -155.97864 
L 450.649701 -155.978395 
L 451.425348 -155.978158 
L 452.200994 -155.977927 
L 452.97664 -155.977702 
L 453.752287 -155.977483 
L 454.527933 -155.977271 
L 455.30358 -155.977064 
L 456.079226 -155.976863 
L 456.854872 -155.976667 
L 457.630519 -155.976477 
L 458.406165 -155.976292 
L 459.181811 -155.976112 
L 459.957458 -155.975937 
L 460.733104 -155.975766 
L 461.508751 -155.975601 
L 462.284397 -155.975439 
L 463.060043 -155.975283 
L 463.83569 -155.97513 
L 464.611336 -155.974982 
L 465.386982 -155.974838 
L 466.162629 -155.974697 
L 466.938275 -155.974561 
L 467.713921 -155.974428 
L 468.489568 -155.974299 
L 469.265214 -155.974174 
L 470.040861 -155.974052 
L 470.816507 -155.973933 
L 471.592153 -155.973817 
L 472.3678 -155.973705 
L 473.143446 -155.973596 
L 473.919092 -155.973489 
L 474.694739 -155.973386 
L 475.470385 -155.973285 
L 476.246032 -155.973187 
L 477.021678 -155.973092 
L 477.797324 -155.973 
L 478.572971 -155.97291 
L 479.348617 -155.972822 
L 480.124263 -155.972737 
L 480.89991 -155.972654 
L 481.675556 -155.972574 
L 482.451203 -155.972495 
L 483.226849 -155.972419 
L 484.002495 -155.972345 
L 484.778142 -155.972273 
L 485.553788 -155.972203 
L 486.329434 -155.972134 
L 487.105081 -155.972068 
L 487.880727 -155.972003 
L 488.656374 -155.971941 
L 489.43202 -155.97188 
L 490.207666 -155.97182 
L 490.983313 -155.971762 
L 491.758959 -155.971706 
L 492.534605 -155.971652 
L 493.310252 -155.971598 
L 494.085898 -155.971547 
L 494.861545 -155.971497 
L 495.637191 -155.971448 
L 496.412837 -155.9714 
L 497.188484 -155.971354 
L 497.96413 -155.971309 
L 498.739776 -155.971265 
L 499.515423 -155.971222 
L 500.291069 -155.971181 
L 501.066715 -155.971141 
L 501.842362 -155.971101 
L 502.618008 -155.971063 
L 503.393655 -155.971026 
L 504.169301 -155.97099 
L 504.944947 -155.970955 
L 505.720594 -155.970921 
L 506.49624 -155.970888 
L 507.271886 -155.970856 
L 508.047533 -155.970824 
L 508.823179 -155.970794 
L 509.598826 -155.970764 
L 510.374472 -155.970735 
L 511.150118 -155.970707 
L 511.925765 -155.97068 
L 512.701411 -155.970653 
L 513.477057 -155.970627 
L 514.252704 -155.970602 
L 515.02835 -155.970578 
L 515.803997 -155.970554 
L 516.579643 -155.970531 
L 517.355289 -155.970508 
L 518.130936 -155.970486 
L 518.906582 -155.970465 
L 519.682228 -155.970444 
L 520.457875 -155.970424 
L 521.233521 -155.970405 
L 522.009168 -155.970386 
L 522.784814 -155.970367 
L 523.56046 -155.970349 
L 524.336107 -155.970331 
L 525.111753 -155.970314 
L 525.887399 -155.970298 
L 526.663046 -155.970282 
L 527.438692 -155.970266 
L 528.214339 -155.970251 
L 528.989985 -155.970236 
L 529.765631 -155.970221 
L 530.541278 -155.970207 
L 531.316924 -155.970194 
L 532.09257 -155.97018 
L 532.868217 -155.970168 
L 533.643863 -155.970155 
L 534.419509 -155.970143 
L 535.195156 -155.970131 
L 535.970802 -155.970119 
L 536.746449 -155.970108 
L 537.522095 -155.970097 
L 538.297741 -155.970086 
L 539.073388 -155.970076 
L 539.849034 -155.970066 
L 540.62468 -155.970056 
L 541.400327 -155.970047 
L 542.175973 -155.970037 
L 542.95162 -155.970028 
L 543.727266 -155.97002 
L 544.502912 -155.970011 
L 545.278559 -155.970003 
L 546.054205 -155.969995 
L 546.829851 -155.969987 
L 547.605498 -155.969979 
L 548.381144 -155.969972 
L 549.156791 -155.969965 
L 549.932437 -155.969958 
L 550.708083 -155.969951 
L 551.48373 -155.969944 
L 552.259376 -155.969938 
L 553.035022 -155.969931 
L 553.810669 -155.969925 
L 554.586315 -155.969919 
L 555.361962 -155.969913 
L 556.137608 -155.969908 
L 556.913254 -155.969902 
L 557.688901 -155.969897 
L 558.464547 -155.969892 
L 559.240193 -155.969887 
L 560.01584 -155.969882 
L 560.791486 -155.969877 
L 561.567133 -155.969873 
L 562.342779 -155.969868 
L 563.118425 -155.969864 
L 563.894072 -155.969859 
L 564.669718 -155.969855 
L 565.445364 -155.969851 
L 566.221011 -155.969847 
L 566.996657 -155.969843 
L 567.772303 -155.96984 
L 568.54795 -155.969836 
L 569.323596 -155.969833 
L 570.099243 -155.969829 
L 570.874889 -155.969826 
L 571.650535 -155.969823 
L 572.426182 -155.96982 
L 573.201828 -155.969816 
L 573.977474 -155.969814 
L 574.753121 -155.969811 
L 575.528767 -155.969808 
L 576.304414 -155.969805 
L 577.08006 -155.969802 
L 577.855706 -155.9698 
L 578.631353 -155.969797 
L 579.406999 -155.969795 
L 580.182645 -155.969792 
L 580.958292 -155.96979 
L 581.733938 -155.969788 
L 582.509585 -155.969786 
L 583.285231 -155.969784 
L 584.060877 -155.969781 
L 584.836524 -155.969779 
L 585.61217 -155.969778 
L 586.387816 -155.969776 
L 587.163463 -155.969774 
L 587.939109 -155.969772 
L 588.714756 -155.96977 
L 589.490402 -155.969768 
L 590.266048 -155.969767 
L 591.041695 -155.969765 
L 591.817341 -155.969764 
L 592.592987 -155.969762 
L 593.368634 -155.969761 
L 594.14428 -155.969759 
L 594.919927 -155.969758 
L 595.695573 -155.969756 
L 596.471219 -155.969755 
L 597.246866 -155.969754 
L 598.022512 -155.969753 
L 598.798158 -155.969751 
L 599.573805 -155.96975 
L 600.349451 -155.969749 
L 601.125097 -155.969748 
L 601.900744 -155.969747 
L 602.67639 -155.969746 
L 603.452037 -155.969745 
L 604.227683 -155.969744 
L 605.003329 -155.969743 
L 605.778976 -155.969742 
L 606.554622 -155.969741 
L 607.330268 -155.96974 
L 608.105915 -155.969739 
L 608.881561 -155.969738 
L 609.657208 -155.969737 
L 610.432854 -155.969736 
L 611.2085 -155.969736 
L 611.984147 -155.969735 
L 612.759793 -155.969734 
L 613.535439 -155.969733 
L 614.311086 -155.969733 
L 615.086732 -155.969732 
L 615.862379 -155.969731 
L 616.638025 -155.969731 
L 617.413671 -155.96973 
L 618.189318 -155.96973 
L 618.964964 -155.969729 
L 619.74061 -155.969728 
L 620.516257 -155.969728 
L 621.291903 -155.969727 
L 622.06755 -155.969727 
L 622.843196 -155.969726 
L 623.618842 -155.969726 
L 624.394489 -155.969725 
L 624.394489 -157.502958 
L 624.394489 -157.502958 
L 623.618842 -157.518394 
L 622.843196 -157.533986 
L 622.06755 -157.549734 
L 621.291903 -157.56564 
L 620.516257 -157.581705 
L 619.74061 -157.597932 
L 618.964964 -157.614322 
L 618.189318 -157.630876 
L 617.413671 -157.647597 
L 616.638025 -157.664485 
L 615.862379 -157.681543 
L 615.086732 -157.698772 
L 614.311086 -157.716173 
L 613.535439 -157.733749 
L 612.759793 -157.751502 
L 611.984147 -157.769433 
L 611.2085 -157.787543 
L 610.432854 -157.805835 
L 609.657208 -157.824311 
L 608.881561 -157.842971 
L 608.105915 -157.861819 
L 607.330268 -157.880856 
L 606.554622 -157.900084 
L 605.778976 -157.919504 
L 605.003329 -157.93912 
L 604.227683 -157.958931 
L 603.452037 -157.978942 
L 602.67639 -157.999153 
L 601.900744 -158.019566 
L 601.125097 -158.040184 
L 600.349451 -158.061009 
L 599.573805 -158.082042 
L 598.798158 -158.103286 
L 598.022512 -158.124742 
L 597.246866 -158.146414 
L 596.471219 -158.168303 
L 595.695573 -158.190411 
L 594.919927 -158.21274 
L 594.14428 -158.235293 
L 593.368634 -158.258072 
L 592.592987 -158.281079 
L 591.817341 -158.304316 
L 591.041695 -158.327785 
L 590.266048 -158.35149 
L 589.490402 -158.375432 
L 588.714756 -158.399613 
L 587.939109 -158.424037 
L 587.163463 -158.448705 
L 586.387816 -158.473619 
L 585.61217 -158.498783 
L 584.836524 -158.524199 
L 584.060877 -158.549869 
L 583.285231 -158.575795 
L 582.509585 -158.601981 
L 581.733938 -158.628428 
L 580.958292 -158.65514 
L 580.182645 -158.682119 
L 579.406999 -158.709368 
L 578.631353 -158.736889 
L 577.855706 -158.764685 
L 577.08006 -158.792759 
L 576.304414 -158.821114 
L 575.528767 -158.849751 
L 574.753121 -158.878675 
L 573.977474 -158.907888 
L 573.201828 -158.937392 
L 572.426182 -158.967192 
L 571.650535 -158.997288 
L 570.874889 -159.027685 
L 570.099243 -159.058386 
L 569.323596 -159.089393 
L 568.54795 -159.12071 
L 567.772303 -159.152339 
L 566.996657 -159.184284 
L 566.221011 -159.216547 
L 565.445364 -159.249132 
L 564.669718 -159.282043 
L 563.894072 -159.315281 
L 563.118425 -159.348851 
L 562.342779 -159.382756 
L 561.567133 -159.416999 
L 560.791486 -159.451583 
L 560.01584 -159.486512 
L 559.240193 -159.521789 
L 558.464547 -159.557418 
L 557.688901 -159.593401 
L 556.913254 -159.629743 
L 556.137608 -159.666447 
L 555.361962 -159.703517 
L 554.586315 -159.740955 
L 553.810669 -159.778767 
L 553.035022 -159.816955 
L 552.259376 -159.855523 
L 551.48373 -159.894475 
L 550.708083 -159.933814 
L 549.932437 -159.973545 
L 549.156791 -160.013671 
L 548.381144 -160.054197 
L 547.605498 -160.095125 
L 546.829851 -160.13646 
L 546.054205 -160.178206 
L 545.278559 -160.220368 
L 544.502912 -160.262948 
L 543.727266 -160.305951 
L 542.95162 -160.349382 
L 542.175973 -160.393244 
L 541.400327 -160.437542 
L 540.62468 -160.482279 
L 539.849034 -160.527461 
L 539.073388 -160.573092 
L 538.297741 -160.619175 
L 537.522095 -160.665716 
L 536.746449 -160.712718 
L 535.970802 -160.760187 
L 535.195156 -160.808126 
L 534.419509 -160.856541 
L 533.643863 -160.905437 
L 532.868217 -160.954816 
L 532.09257 -161.004685 
L 531.316924 -161.055049 
L 530.541278 -161.105911 
L 529.765631 -161.157278 
L 528.989985 -161.209152 
L 528.214339 -161.261541 
L 527.438692 -161.314448 
L 526.663046 -161.367879 
L 525.887399 -161.421839 
L 525.111753 -161.476333 
L 524.336107 -161.531365 
L 523.56046 -161.586942 
L 522.784814 -161.643069 
L 522.009168 -161.69975 
L 521.233521 -161.756992 
L 520.457875 -161.814799 
L 519.682228 -161.873177 
L 518.906582 -161.932132 
L 518.130936 -161.99167 
L 517.355289 -162.051795 
L 516.579643 -162.112513 
L 515.803997 -162.173831 
L 515.02835 -162.235753 
L 514.252704 -162.298287 
L 513.477057 -162.361437 
L 512.701411 -162.425209 
L 511.925765 -162.48961 
L 511.150118 -162.554646 
L 510.374472 -162.620323 
L 509.598826 -162.686646 
L 508.823179 -162.753623 
L 508.047533 -162.821259 
L 507.271886 -162.88956 
L 506.49624 -162.958534 
L 505.720594 -163.028186 
L 504.944947 -163.098523 
L 504.169301 -163.169552 
L 503.393655 -163.241278 
L 502.618008 -163.31371 
L 501.842362 -163.386853 
L 501.066715 -163.460714 
L 500.291069 -163.5353 
L 499.515423 -163.610619 
L 498.739776 -163.686677 
L 497.96413 -163.76348 
L 497.188484 -163.841037 
L 496.412837 -163.919354 
L 495.637191 -163.998439 
L 494.861545 -164.078299 
L 494.085898 -164.15894 
L 493.310252 -164.240372 
L 492.534605 -164.3226 
L 491.758959 -164.405634 
L 490.983313 -164.489479 
L 490.207666 -164.574144 
L 489.43202 -164.659637 
L 488.656374 -164.745966 
L 487.880727 -164.833138 
L 487.105081 -164.921161 
L 486.329434 -165.010044 
L 485.553788 -165.099794 
L 484.778142 -165.19042 
L 484.002495 -165.28193 
L 483.226849 -165.374332 
L 482.451203 -165.467634 
L 481.675556 -165.561846 
L 480.89991 -165.656975 
L 480.124263 -165.75303 
L 479.348617 -165.850019 
L 478.572971 -165.947953 
L 477.797324 -166.046838 
L 477.021678 -166.146685 
L 476.246032 -166.247502 
L 475.470385 -166.349299 
L 474.694739 -166.452084 
L 473.919092 -166.555866 
L 473.143446 -166.660655 
L 472.3678 -166.76646 
L 471.592153 -166.873291 
L 470.816507 -166.981157 
L 470.040861 -167.090068 
L 469.265214 -167.200033 
L 468.489568 -167.311062 
L 467.713921 -167.423165 
L 466.938275 -167.536353 
L 466.162629 -167.650634 
L 465.386982 -167.766019 
L 464.611336 -167.882518 
L 463.83569 -168.000141 
L 463.060043 -168.118899 
L 462.284397 -168.238802 
L 461.508751 -168.359861 
L 460.733104 -168.482086 
L 459.957458 -168.605488 
L 459.181811 -168.730077 
L 458.406165 -168.855865 
L 457.630519 -168.982862 
L 456.854872 -169.111079 
L 456.079226 -169.240528 
L 455.30358 -169.37122 
L 454.527933 -169.503166 
L 453.752287 -169.636377 
L 452.97664 -169.770864 
L 452.200994 -169.90664 
L 451.425348 -170.043716 
L 450.649701 -170.182104 
L 449.874055 -170.321815 
L 449.098409 -170.462861 
L 448.322762 -170.605255 
L 447.547116 -170.749009 
L 446.771469 -170.894134 
L 445.995823 -171.040643 
L 445.220177 -171.188548 
L 444.44453 -171.337863 
L 443.668884 -171.488599 
L 442.893238 -171.640768 
L 442.117591 -171.794385 
L 441.341945 -171.949462 
L 440.566298 -172.106011 
L 439.790652 -172.264045 
L 439.015006 -172.423579 
L 438.239359 -172.584624 
L 437.463713 -172.747195 
L 436.688067 -172.911305 
L 435.91242 -173.076967 
L 435.136774 -173.244195 
L 434.361128 -173.413003 
L 433.585481 -173.583405 
L 432.809835 -173.755414 
L 432.034188 -173.929044 
L 431.258542 -174.10431 
L 430.482896 -174.281226 
L 429.707249 -174.459806 
L 428.931603 -174.640065 
L 428.155957 -174.822017 
L 427.38031 -175.005676 
L 426.604664 -175.191058 
L 425.829017 -175.378178 
L 425.053371 -175.567049 
L 424.277725 -175.757688 
L 423.502078 -175.950109 
L 422.726432 -176.144328 
L 421.950786 -176.34036 
L 421.175139 -176.53822 
L 420.399493 -176.737925 
L 419.623846 -176.939488 
L 418.8482 -177.142927 
L 418.072554 -177.348258 
L 417.296907 -177.555495 
L 416.521261 -177.764655 
L 415.745615 -177.975755 
L 414.969968 -178.188811 
L 414.194322 -178.403838 
L 413.418675 -178.620853 
L 412.643029 -178.839874 
L 411.867383 -179.060915 
L 411.091736 -179.283996 
L 410.31609 -179.509131 
L 409.540444 -179.736338 
L 408.764797 -179.965635 
L 407.989151 -180.197038 
L 407.213504 -180.430564 
L 406.437858 -180.666232 
L 405.662212 -180.904057 
L 404.886565 -181.144059 
L 404.110919 -181.386254 
L 403.335273 -181.630661 
L 402.559626 -181.877296 
L 401.78398 -182.126179 
L 401.008334 -182.377327 
L 400.232687 -182.630758 
L 399.457041 -182.886491 
L 398.681394 -183.144543 
L 397.905748 -183.404934 
L 397.130102 -183.667682 
L 396.354455 -183.932804 
L 395.578809 -184.200321 
L 394.803163 -184.470251 
L 394.027516 -184.742612 
L 393.25187 -185.017424 
L 392.476223 -185.294706 
L 391.700577 -185.574477 
L 390.924931 -185.856756 
L 390.149284 -186.141562 
L 389.373638 -186.428915 
L 388.597992 -186.718835 
L 387.822345 -187.01134 
L 387.046699 -187.306452 
L 386.271052 -187.604188 
L 385.495406 -187.904569 
L 384.71976 -188.207616 
L 383.944113 -188.513348 
L 383.168467 -188.821784 
L 382.392821 -189.132946 
L 381.617174 -189.446853 
L 380.841528 -189.763526 
L 380.065881 -190.082985 
L 379.290235 -190.40525 
L 378.514589 -190.730342 
L 377.738942 -191.058282 
L 376.963296 -191.38909 
L 376.18765 -191.722786 
L 375.412003 -192.059392 
L 374.636357 -192.398928 
L 373.86071 -192.741415 
L 373.085064 -193.086874 
L 372.309418 -193.435327 
L 371.533771 -193.786793 
L 370.758125 -194.141294 
L 369.982479 -194.498851 
L 369.206832 -194.859486 
L 368.431186 -195.223219 
L 367.65554 -195.590071 
L 366.879893 -195.960065 
L 366.104247 -196.333221 
L 365.3286 -196.709561 
L 364.552954 -197.089105 
L 363.777308 -197.471876 
L 363.001661 -197.857895 
L 362.226015 -198.247183 
L 361.450369 -198.639762 
L 360.674722 -199.035653 
L 359.899076 -199.434878 
L 359.123429 -199.837458 
L 358.347783 -200.243414 
L 357.572137 -200.652769 
L 356.79649 -201.065544 
L 356.020844 -201.481759 
L 355.245198 -201.901438 
L 354.469551 -202.324601 
L 353.693905 -202.751269 
L 352.918258 -203.181465 
L 352.142612 -203.61521 
L 351.366966 -204.052524 
L 350.591319 -204.49343 
L 349.815673 -204.937949 
L 349.040027 -205.386102 
L 348.26438 -205.837911 
L 347.488734 -206.293397 
L 346.713087 -206.75258 
L 345.937441 -207.215482 
L 345.161795 -207.682125 
L 344.386148 -208.152529 
L 343.610502 -208.626715 
L 342.834856 -209.104704 
L 342.059209 -209.586517 
L 341.283563 -210.072175 
L 340.507916 -210.561698 
L 339.73227 -211.055107 
L 338.956624 -211.552423 
L 338.180977 -212.053665 
L 337.405331 -212.558854 
L 336.629685 -213.068011 
L 335.854038 -213.581154 
L 335.078392 -214.098305 
L 334.302746 -214.619482 
L 333.527099 -215.144707 
L 332.751453 -215.673997 
L 331.975806 -216.207373 
L 331.20016 -216.744853 
L 330.424514 -217.286458 
L 329.648867 -217.832205 
L 328.873221 -218.382113 
L 328.097575 -218.936202 
L 327.321928 -219.494489 
L 326.546282 -220.056992 
L 325.770635 -220.62373 
L 324.994989 -221.194721 
L 324.219343 -221.769981 
L 323.443696 -222.349529 
L 322.66805 -222.933381 
L 321.892404 -223.521555 
L 321.116757 -224.114066 
L 320.341111 -224.710933 
L 319.565464 -225.31217 
L 318.789818 -225.917793 
L 318.014172 -226.527819 
L 317.238525 -227.142263 
L 316.462879 -227.76114 
L 315.687233 -228.384464 
L 314.911586 -229.01225 
L 314.13594 -229.644513 
L 313.360293 -230.281265 
L 312.584647 -230.922522 
L 311.809001 -231.568296 
L 311.033354 -232.218599 
L 310.257708 -232.873445 
L 309.482062 -233.532846 
L 308.706415 -234.196813 
L 307.930769 -234.865359 
L 307.155122 -235.538493 
L 306.379476 -236.216227 
L 305.60383 -236.898571 
L 304.828183 -237.585535 
L 304.052537 -238.277129 
L 303.276891 -238.973361 
L 302.501244 -239.674239 
L 301.725598 -240.379773 
L 300.949952 -241.08997 
L 300.174305 -241.804836 
L 299.398659 -242.52438 
L 298.623012 -243.248606 
L 297.847366 -243.977521 
L 297.07172 -244.71113 
L 296.296073 -245.449438 
L 295.520427 -246.192448 
L 294.744781 -246.940165 
L 293.969134 -247.692593 
L 293.193488 -248.449732 
L 292.417841 -249.211586 
L 291.642195 -249.978155 
L 290.866549 -250.749441 
L 290.090902 -251.525444 
L 289.315256 -252.306164 
L 288.53961 -253.091599 
L 287.763963 -253.881748 
L 286.988317 -254.676609 
L 286.21267 -255.476179 
L 285.437024 -256.280454 
L 284.661378 -257.08943 
L 283.885731 -257.903102 
L 283.110085 -258.721466 
L 282.334439 -259.544513 
L 281.558792 -260.372238 
L 280.783146 -261.204633 
L 280.007499 -262.041689 
L 279.231853 -262.883397 
L 278.456207 -263.729747 
L 277.68056 -264.580729 
L 276.904914 -265.436331 
L 276.129268 -266.296541 
L 275.353621 -267.161345 
L 274.577975 -268.030731 
L 273.802329 -268.904682 
L 273.026682 -269.783185 
L 272.251036 -270.666222 
L 271.475389 -271.553776 
L 270.699743 -272.44583 
L 269.924097 -273.342365 
L 269.14845 -274.24336 
L 268.372804 -275.148796 
L 267.597158 -276.05865 
L 266.821511 -276.9729 
L 266.045865 -277.891524 
L 265.270218 -278.814496 
L 264.494572 -279.741792 
L 263.718926 -280.673385 
L 262.943279 -281.609249 
L 262.167633 -282.549355 
L 261.391987 -283.493675 
L 260.61634 -284.442179 
L 259.840694 -285.394835 
L 259.065047 -286.351612 
L 258.289401 -287.312477 
L 257.513755 -288.277397 
L 256.738108 -289.246335 
L 255.962462 -290.219257 
L 255.186816 -291.196125 
L 254.411169 -292.176902 
L 253.635523 -293.161549 
L 252.859876 -294.150024 
L 252.08423 -295.142289 
L 251.308584 -296.138299 
L 250.532937 -297.138013 
L 249.757291 -298.141386 
L 248.981645 -299.148372 
L 248.205998 -300.158926 
L 247.430352 -301.172999 
L 246.654705 -302.190544 
L 245.879059 -303.21151 
L 245.103413 -304.235848 
L 244.327766 -305.263504 
L 243.55212 -306.294427 
L 242.776474 -307.328561 
L 242.000827 -308.365853 
L 241.225181 -309.406247 
L 240.449535 -310.449683 
L 239.673888 -311.496105 
L 238.898242 -312.545453 
L 238.122595 -313.597667 
L 237.346949 -314.652683 
L 236.571303 -315.710441 
L 235.795656 -316.770875 
L 235.02001 -317.833921 
L 234.244364 -318.899513 
L 233.468717 -319.967583 
L 232.693071 -321.038063 
L 231.917424 -322.110884 
L 231.141778 -323.185975 
L 230.366132 -324.263265 
L 229.590485 -325.342681 
L 228.814839 -326.424149 
L 228.039193 -327.507594 
L 227.263546 -328.59294 
L 226.4879 -329.68011 
L 225.712253 -330.769027 
L 224.936607 -331.859611 
L 224.160961 -332.951781 
L 223.385314 -334.045457 
L 222.609668 -335.140556 
L 221.834022 -336.236995 
L 221.058375 -337.334689 
L 220.282729 -338.433552 
L 219.507082 -339.5335 
L 218.731436 -340.634443 
L 217.95579 -341.736293 
L 217.180143 -342.838961 
L 216.404497 -343.942356 
L 215.628851 -345.046387 
L 214.853204 -346.15096 
L 214.077558 -347.255983 
L 213.301911 -348.361361 
L 212.526265 -349.466998 
L 211.750619 -350.572798 
L 210.974972 -351.678662 
L 210.199326 -352.784494 
L 209.42368 -353.890192 
L 208.648033 -354.995657 
L 207.872387 -356.100787 
L 207.096741 -357.20548 
L 206.321094 -358.309632 
L 205.545448 -359.413138 
L 204.769801 -360.515894 
L 203.994155 -361.617793 
L 203.218509 -362.718728 
L 202.442862 -363.818589 
L 201.667216 -364.917268 
L 200.89157 -366.014654 
L 200.115923 -367.110634 
L 199.340277 -368.205098 
L 198.56463 -369.29793 
L 197.788984 -370.389015 
L 197.013338 -371.478239 
L 196.237691 -372.565482 
L 195.462045 -373.650626 
L 194.686399 -374.733552 
L 193.910752 -375.814139 
L 193.135106 -376.892262 
L 192.359459 -377.9678 
L 191.583813 -379.040625 
L 190.808167 -380.110611 
L 190.03252 -381.177629 
L 189.256874 -382.241548 
L 188.481228 -383.302236 
L 187.705581 -384.359558 
L 186.929935 -385.413378 
L 186.154288 -386.463558 
L 185.378642 -387.509955 
L 184.602996 -388.552428 
L 183.827349 -389.590831 
L 183.051703 -390.625013 
L 182.276057 -391.654824 
L 181.50041 -392.680109 
L 180.724764 -393.70071 
L 179.949117 -394.716465 
L 179.173471 -395.727208 
L 178.397825 -396.732769 
L 177.622178 -397.732975 
L 176.846532 -398.727646 
L 176.070886 -399.716598 
L 175.295239 -400.699643 
L 174.519593 -401.676584 
L 173.743947 -402.64722 
L 172.9683 -403.611343 
L 172.192654 -404.568737 
L 171.417007 -405.519179 
L 170.641361 -406.462437 
L 169.865715 -407.398271 
L 169.090068 -408.326429 
L 168.314422 -409.24665 
L 167.538776 -410.158662 
L 166.763129 -411.062181 
L 165.987483 -411.956909 
L 165.211836 -412.842532 
L 164.43619 -413.718725 
L 163.660544 -414.585142 
L 162.884897 -415.441421 
L 162.109251 -416.28718 
L 161.333605 -417.122016 
L 160.557958 -417.945502 
L 159.782312 -418.757188 
L 159.006665 -419.556593 
L 158.231019 -420.34321 
L 157.455373 -421.116497 
L 156.679726 -421.875876 
L 155.90408 -422.620732 
L 155.128434 -423.350406 
L 154.352787 -424.064191 
L 153.577141 -424.761329 
L 152.801494 -425.441004 
L 152.025848 -426.102337 
L 151.250202 -426.744379 
L 150.474555 -427.3661 
L 149.698909 -427.966385 
L 148.923263 -428.544022 
L 148.147616 -429.097686 
L 147.37197 -429.62593 
L 146.596323 -430.127171 
L 145.820677 -430.599663 
L 145.045031 -431.041485 
L 144.269384 -431.450512 
L 143.493738 -431.824384 
L 142.718092 -432.160475 
L 141.942445 -432.455852 
L 141.166799 -432.707221 
L 140.391153 -432.91088 
L 139.615506 -433.06264 
L 138.83986 -433.157746 
L 138.064213 -433.19078 
L 137.288567 -433.155532 
L 136.512921 -433.102376 
L 135.737274 -433.180584 
L 134.961628 -433.180181 
L 134.185982 -433.091448 
L 133.410335 -433.14113 
L 132.634689 -433.19078 
L 131.859042 -433.136156 
L 131.083396 -433.051807 
L 130.30775 -433.17442 
L 129.532103 -433.173393 
L 128.756457 -433.023906 
L 127.980811 -433.105811 
L 127.205164 -433.19078 
L 126.429518 -433.090689 
L 125.653871 -432.752503 
L 124.878225 -432.103828 
L 124.102579 -431.043699 
L 123.326932 -429.427644 
L 122.551286 -427.042583 
L 121.77564 -423.562776 
L 120.999993 -418.468677 
L 120.224347 -410.888561 
L 119.4487 -399.267489 
L 118.673054 -380.614784 
L 117.897408 -348.6041 
L 117.121761 -288.079654 
z
" style="stroke: #1f77b4; stroke-opacity: 0.3"/>
    </defs>
    <g clip-path="url(#p3734278230)">
     <use xlink:href="#mfb7d5c0b33" x="0" y="540.100875" style="fill: #1f77b4; fill-opacity: 0.3; stroke: #1f77b4; stroke-opacity: 0.3"/>
    </g>
   </g>
   <g id="matplotlib.axis_1">
    <g id="xtick_1">
     <g id="line2d_1">
      <defs>
       <path id="m956a2c23eb" d="M 0 0 
L 0 3.5 
" style="stroke: #000000; stroke-width: 0.8"/>
      </defs>
      <g>
       <use xlink:href="#m956a2c23eb" x="116.346115" y="416.476875" style="stroke: #000000; stroke-width: 0.8"/>
      </g>
     </g>
     <g id="text_1">
      <!-- 0 -->
      <g transform="translate(109.983615 438.67375) scale(0.2 -0.2)">
       <defs>
        <path id="DejaVuSans-30" d="M 2034 4250 
Q 1547 4250 1301 3770 
Q 1056 3291 1056 2328 
Q 1056 1369 1301 889 
Q 1547 409 2034 409 
Q 2525 409 2770 889 
Q 3016 1369 3016 2328 
Q 3016 3291 2770 3770 
Q 2525 4250 2034 4250 
z
M 2034 4750 
Q 2819 4750 3233 4129 
Q 3647 3509 3647 2328 
Q 3647 1150 3233 529 
Q 2819 -91 2034 -91 
Q 1250 -91 836 529 
Q 422 1150 422 2328 
Q 422 3509 836 4129 
Q 1250 4750 2034 4750 
z
" transform="scale(0.015625)"/>
       </defs>
       <use xlink:href="#DejaVuSans-30"/>
      </g>
     </g>
    </g>
    <g id="xtick_2">
     <g id="line2d_2">
      <g>
       <use xlink:href="#m956a2c23eb" x="193.910752" y="416.476875" style="stroke: #000000; stroke-width: 0.8"/>
      </g>
     </g>
     <g id="text_2">
      <!-- 100 -->
      <g transform="translate(174.823252 438.67375) scale(0.2 -0.2)">
       <defs>
        <path id="DejaVuSans-31" d="M 794 531 
L 1825 531 
L 1825 4091 
L 703 3866 
L 703 4441 
L 1819 4666 
L 2450 4666 
L 2450 531 
L 3481 531 
L 3481 0 
L 794 0 
L 794 531 
z
" transform="scale(0.015625)"/>
       </defs>
       <use xlink:href="#DejaVuSans-31"/>
       <use xlink:href="#DejaVuSans-30" x="63.623047"/>
       <use xlink:href="#DejaVuSans-30" x="127.246094"/>
      </g>
     </g>
    </g>
    <g id="xtick_3">
     <g id="line2d_3">
      <g>
       <use xlink:href="#m956a2c23eb" x="271.475389" y="416.476875" style="stroke: #000000; stroke-width: 0.8"/>
      </g>
     </g>
     <g id="text_3">
      <!-- 200 -->
      <g transform="translate(252.387889 438.67375) scale(0.2 -0.2)">
       <defs>
        <path id="DejaVuSans-32" d="M 1228 531 
L 3431 531 
L 3431 0 
L 469 0 
L 469 531 
Q 828 903 1448 1529 
Q 2069 2156 2228 2338 
Q 2531 2678 2651 2914 
Q 2772 3150 2772 3378 
Q 2772 3750 2511 3984 
Q 2250 4219 1831 4219 
Q 1534 4219 1204 4116 
Q 875 4013 500 3803 
L 500 4441 
Q 881 4594 1212 4672 
Q 1544 4750 1819 4750 
Q 2544 4750 2975 4387 
Q 3406 4025 3406 3419 
Q 3406 3131 3298 2873 
Q 3191 2616 2906 2266 
Q 2828 2175 2409 1742 
Q 1991 1309 1228 531 
z
" transform="scale(0.015625)"/>
       </defs>
       <use xlink:href="#DejaVuSans-32"/>
       <use xlink:href="#DejaVuSans-30" x="63.623047"/>
       <use xlink:href="#DejaVuSans-30" x="127.246094"/>
      </g>
     </g>
    </g>
    <g id="xtick_4">
     <g id="line2d_4">
      <g>
       <use xlink:href="#m956a2c23eb" x="349.040027" y="416.476875" style="stroke: #000000; stroke-width: 0.8"/>
      </g>
     </g>
     <g id="text_4">
      <!-- 300 -->
      <g transform="translate(329.952527 438.67375) scale(0.2 -0.2)">
       <defs>
        <path id="DejaVuSans-33" d="M 2597 2516 
Q 3050 2419 3304 2112 
Q 3559 1806 3559 1356 
Q 3559 666 3084 287 
Q 2609 -91 1734 -91 
Q 1441 -91 1130 -33 
Q 819 25 488 141 
L 488 750 
Q 750 597 1062 519 
Q 1375 441 1716 441 
Q 2309 441 2620 675 
Q 2931 909 2931 1356 
Q 2931 1769 2642 2001 
Q 2353 2234 1838 2234 
L 1294 2234 
L 1294 2753 
L 1863 2753 
Q 2328 2753 2575 2939 
Q 2822 3125 2822 3475 
Q 2822 3834 2567 4026 
Q 2313 4219 1838 4219 
Q 1578 4219 1281 4162 
Q 984 4106 628 3988 
L 628 4550 
Q 988 4650 1302 4700 
Q 1616 4750 1894 4750 
Q 2613 4750 3031 4423 
Q 3450 4097 3450 3541 
Q 3450 3153 3228 2886 
Q 3006 2619 2597 2516 
z
" transform="scale(0.015625)"/>
       </defs>
       <use xlink:href="#DejaVuSans-33"/>
       <use xlink:href="#DejaVuSans-30" x="63.623047"/>
       <use xlink:href="#DejaVuSans-30" x="127.246094"/>
      </g>
     </g>
    </g>
    <g id="xtick_5">
     <g id="line2d_5">
      <g>
       <use xlink:href="#m956a2c23eb" x="426.604664" y="416.476875" style="stroke: #000000; stroke-width: 0.8"/>
      </g>
     </g>
     <g id="text_5">
      <!-- 400 -->
      <g transform="translate(407.517164 438.67375) scale(0.2 -0.2)">
       <defs>
        <path id="DejaVuSans-34" d="M 2419 4116 
L 825 1625 
L 2419 1625 
L 2419 4116 
z
M 2253 4666 
L 3047 4666 
L 3047 1625 
L 3713 1625 
L 3713 1100 
L 3047 1100 
L 3047 0 
L 2419 0 
L 2419 1100 
L 313 1100 
L 313 1709 
L 2253 4666 
z
" transform="scale(0.015625)"/>
       </defs>
       <use xlink:href="#DejaVuSans-34"/>
       <use xlink:href="#DejaVuSans-30" x="63.623047"/>
       <use xlink:href="#DejaVuSans-30" x="127.246094"/>
      </g>
     </g>
    </g>
    <g id="xtick_6">
     <g id="line2d_6">
      <g>
       <use xlink:href="#m956a2c23eb" x="504.169301" y="416.476875" style="stroke: #000000; stroke-width: 0.8"/>
      </g>
     </g>
     <g id="text_6">
      <!-- 500 -->
      <g transform="translate(485.081801 438.67375) scale(0.2 -0.2)">
       <defs>
        <path id="DejaVuSans-35" d="M 691 4666 
L 3169 4666 
L 3169 4134 
L 1269 4134 
L 1269 2991 
Q 1406 3038 1543 3061 
Q 1681 3084 1819 3084 
Q 2600 3084 3056 2656 
Q 3513 2228 3513 1497 
Q 3513 744 3044 326 
Q 2575 -91 1722 -91 
Q 1428 -91 1123 -41 
Q 819 9 494 109 
L 494 744 
Q 775 591 1075 516 
Q 1375 441 1709 441 
Q 2250 441 2565 725 
Q 2881 1009 2881 1497 
Q 2881 1984 2565 2268 
Q 2250 2553 1709 2553 
Q 1456 2553 1204 2497 
Q 953 2441 691 2322 
L 691 4666 
z
" transform="scale(0.015625)"/>
       </defs>
       <use xlink:href="#DejaVuSans-35"/>
       <use xlink:href="#DejaVuSans-30" x="63.623047"/>
       <use xlink:href="#DejaVuSans-30" x="127.246094"/>
      </g>
     </g>
    </g>
    <g id="xtick_7">
     <g id="line2d_7">
      <g>
       <use xlink:href="#m956a2c23eb" x="581.733938" y="416.476875" style="stroke: #000000; stroke-width: 0.8"/>
      </g>
     </g>
     <g id="text_7">
      <!-- 600 -->
      <g transform="translate(562.646438 438.67375) scale(0.2 -0.2)">
       <defs>
        <path id="DejaVuSans-36" d="M 2113 2584 
Q 1688 2584 1439 2293 
Q 1191 2003 1191 1497 
Q 1191 994 1439 701 
Q 1688 409 2113 409 
Q 2538 409 2786 701 
Q 3034 994 3034 1497 
Q 3034 2003 2786 2293 
Q 2538 2584 2113 2584 
z
M 3366 4563 
L 3366 3988 
Q 3128 4100 2886 4159 
Q 2644 4219 2406 4219 
Q 1781 4219 1451 3797 
Q 1122 3375 1075 2522 
Q 1259 2794 1537 2939 
Q 1816 3084 2150 3084 
Q 2853 3084 3261 2657 
Q 3669 2231 3669 1497 
Q 3669 778 3244 343 
Q 2819 -91 2113 -91 
Q 1303 -91 875 529 
Q 447 1150 447 2328 
Q 447 3434 972 4092 
Q 1497 4750 2381 4750 
Q 2619 4750 2861 4703 
Q 3103 4656 3366 4563 
z
" transform="scale(0.015625)"/>
       </defs>
       <use xlink:href="#DejaVuSans-36"/>
       <use xlink:href="#DejaVuSans-30" x="63.623047"/>
       <use xlink:href="#DejaVuSans-30" x="127.246094"/>
      </g>
     </g>
    </g>
    <g id="text_8">
     <!-- Days since antigen exposure -->
     <g transform="translate(226.337813 462.03) scale(0.2 -0.2)">
      <defs>
       <path id="DejaVuSans-44" d="M 1259 4147 
L 1259 519 
L 2022 519 
Q 2988 519 3436 956 
Q 3884 1394 3884 2338 
Q 3884 3275 3436 3711 
Q 2988 4147 2022 4147 
L 1259 4147 
z
M 628 4666 
L 1925 4666 
Q 3281 4666 3915 4102 
Q 4550 3538 4550 2338 
Q 4550 1131 3912 565 
Q 3275 0 1925 0 
L 628 0 
L 628 4666 
z
" transform="scale(0.015625)"/>
       <path id="DejaVuSans-61" d="M 2194 1759 
Q 1497 1759 1228 1600 
Q 959 1441 959 1056 
Q 959 750 1161 570 
Q 1363 391 1709 391 
Q 2188 391 2477 730 
Q 2766 1069 2766 1631 
L 2766 1759 
L 2194 1759 
z
M 3341 1997 
L 3341 0 
L 2766 0 
L 2766 531 
Q 2569 213 2275 61 
Q 1981 -91 1556 -91 
Q 1019 -91 701 211 
Q 384 513 384 1019 
Q 384 1609 779 1909 
Q 1175 2209 1959 2209 
L 2766 2209 
L 2766 2266 
Q 2766 2663 2505 2880 
Q 2244 3097 1772 3097 
Q 1472 3097 1187 3025 
Q 903 2953 641 2809 
L 641 3341 
Q 956 3463 1253 3523 
Q 1550 3584 1831 3584 
Q 2591 3584 2966 3190 
Q 3341 2797 3341 1997 
z
" transform="scale(0.015625)"/>
       <path id="DejaVuSans-79" d="M 2059 -325 
Q 1816 -950 1584 -1140 
Q 1353 -1331 966 -1331 
L 506 -1331 
L 506 -850 
L 844 -850 
Q 1081 -850 1212 -737 
Q 1344 -625 1503 -206 
L 1606 56 
L 191 3500 
L 800 3500 
L 1894 763 
L 2988 3500 
L 3597 3500 
L 2059 -325 
z
" transform="scale(0.015625)"/>
       <path id="DejaVuSans-73" d="M 2834 3397 
L 2834 2853 
Q 2591 2978 2328 3040 
Q 2066 3103 1784 3103 
Q 1356 3103 1142 2972 
Q 928 2841 928 2578 
Q 928 2378 1081 2264 
Q 1234 2150 1697 2047 
L 1894 2003 
Q 2506 1872 2764 1633 
Q 3022 1394 3022 966 
Q 3022 478 2636 193 
Q 2250 -91 1575 -91 
Q 1294 -91 989 -36 
Q 684 19 347 128 
L 347 722 
Q 666 556 975 473 
Q 1284 391 1588 391 
Q 1994 391 2212 530 
Q 2431 669 2431 922 
Q 2431 1156 2273 1281 
Q 2116 1406 1581 1522 
L 1381 1569 
Q 847 1681 609 1914 
Q 372 2147 372 2553 
Q 372 3047 722 3315 
Q 1072 3584 1716 3584 
Q 2034 3584 2315 3537 
Q 2597 3491 2834 3397 
z
" transform="scale(0.015625)"/>
       <path id="DejaVuSans-20" transform="scale(0.015625)"/>
       <path id="DejaVuSans-69" d="M 603 3500 
L 1178 3500 
L 1178 0 
L 603 0 
L 603 3500 
z
M 603 4863 
L 1178 4863 
L 1178 4134 
L 603 4134 
L 603 4863 
z
" transform="scale(0.015625)"/>
       <path id="DejaVuSans-6e" d="M 3513 2113 
L 3513 0 
L 2938 0 
L 2938 2094 
Q 2938 2591 2744 2837 
Q 2550 3084 2163 3084 
Q 1697 3084 1428 2787 
Q 1159 2491 1159 1978 
L 1159 0 
L 581 0 
L 581 3500 
L 1159 3500 
L 1159 2956 
Q 1366 3272 1645 3428 
Q 1925 3584 2291 3584 
Q 2894 3584 3203 3211 
Q 3513 2838 3513 2113 
z
" transform="scale(0.015625)"/>
       <path id="DejaVuSans-63" d="M 3122 3366 
L 3122 2828 
Q 2878 2963 2633 3030 
Q 2388 3097 2138 3097 
Q 1578 3097 1268 2742 
Q 959 2388 959 1747 
Q 959 1106 1268 751 
Q 1578 397 2138 397 
Q 2388 397 2633 464 
Q 2878 531 3122 666 
L 3122 134 
Q 2881 22 2623 -34 
Q 2366 -91 2075 -91 
Q 1284 -91 818 406 
Q 353 903 353 1747 
Q 353 2603 823 3093 
Q 1294 3584 2113 3584 
Q 2378 3584 2631 3529 
Q 2884 3475 3122 3366 
z
" transform="scale(0.015625)"/>
       <path id="DejaVuSans-65" d="M 3597 1894 
L 3597 1613 
L 953 1613 
Q 991 1019 1311 708 
Q 1631 397 2203 397 
Q 2534 397 2845 478 
Q 3156 559 3463 722 
L 3463 178 
Q 3153 47 2828 -22 
Q 2503 -91 2169 -91 
Q 1331 -91 842 396 
Q 353 884 353 1716 
Q 353 2575 817 3079 
Q 1281 3584 2069 3584 
Q 2775 3584 3186 3129 
Q 3597 2675 3597 1894 
z
M 3022 2063 
Q 3016 2534 2758 2815 
Q 2500 3097 2075 3097 
Q 1594 3097 1305 2825 
Q 1016 2553 972 2059 
L 3022 2063 
z
" transform="scale(0.015625)"/>
       <path id="DejaVuSans-74" d="M 1172 4494 
L 1172 3500 
L 2356 3500 
L 2356 3053 
L 1172 3053 
L 1172 1153 
Q 1172 725 1289 603 
Q 1406 481 1766 481 
L 2356 481 
L 2356 0 
L 1766 0 
Q 1100 0 847 248 
Q 594 497 594 1153 
L 594 3053 
L 172 3053 
L 172 3500 
L 594 3500 
L 594 4494 
L 1172 4494 
z
" transform="scale(0.015625)"/>
       <path id="DejaVuSans-67" d="M 2906 1791 
Q 2906 2416 2648 2759 
Q 2391 3103 1925 3103 
Q 1463 3103 1205 2759 
Q 947 2416 947 1791 
Q 947 1169 1205 825 
Q 1463 481 1925 481 
Q 2391 481 2648 825 
Q 2906 1169 2906 1791 
z
M 3481 434 
Q 3481 -459 3084 -895 
Q 2688 -1331 1869 -1331 
Q 1566 -1331 1297 -1286 
Q 1028 -1241 775 -1147 
L 775 -588 
Q 1028 -725 1275 -790 
Q 1522 -856 1778 -856 
Q 2344 -856 2625 -561 
Q 2906 -266 2906 331 
L 2906 616 
Q 2728 306 2450 153 
Q 2172 0 1784 0 
Q 1141 0 747 490 
Q 353 981 353 1791 
Q 353 2603 747 3093 
Q 1141 3584 1784 3584 
Q 2172 3584 2450 3431 
Q 2728 3278 2906 2969 
L 2906 3500 
L 3481 3500 
L 3481 434 
z
" transform="scale(0.015625)"/>
       <path id="DejaVuSans-78" d="M 3513 3500 
L 2247 1797 
L 3578 0 
L 2900 0 
L 1881 1375 
L 863 0 
L 184 0 
L 1544 1831 
L 300 3500 
L 978 3500 
L 1906 2253 
L 2834 3500 
L 3513 3500 
z
" transform="scale(0.015625)"/>
       <path id="DejaVuSans-70" d="M 1159 525 
L 1159 -1331 
L 581 -1331 
L 581 3500 
L 1159 3500 
L 1159 2969 
Q 1341 3281 1617 3432 
Q 1894 3584 2278 3584 
Q 2916 3584 3314 3078 
Q 3713 2572 3713 1747 
Q 3713 922 3314 415 
Q 2916 -91 2278 -91 
Q 1894 -91 1617 61 
Q 1341 213 1159 525 
z
M 3116 1747 
Q 3116 2381 2855 2742 
Q 2594 3103 2138 3103 
Q 1681 3103 1420 2742 
Q 1159 2381 1159 1747 
Q 1159 1113 1420 752 
Q 1681 391 2138 391 
Q 2594 391 2855 752 
Q 3116 1113 3116 1747 
z
" transform="scale(0.015625)"/>
       <path id="DejaVuSans-6f" d="M 1959 3097 
Q 1497 3097 1228 2736 
Q 959 2375 959 1747 
Q 959 1119 1226 758 
Q 1494 397 1959 397 
Q 2419 397 2687 759 
Q 2956 1122 2956 1747 
Q 2956 2369 2687 2733 
Q 2419 3097 1959 3097 
z
M 1959 3584 
Q 2709 3584 3137 3096 
Q 3566 2609 3566 1747 
Q 3566 888 3137 398 
Q 2709 -91 1959 -91 
Q 1206 -91 779 398 
Q 353 888 353 1747 
Q 353 2609 779 3096 
Q 1206 3584 1959 3584 
z
" transform="scale(0.015625)"/>
       <path id="DejaVuSans-75" d="M 544 1381 
L 544 3500 
L 1119 3500 
L 1119 1403 
Q 1119 906 1312 657 
Q 1506 409 1894 409 
Q 2359 409 2629 706 
Q 2900 1003 2900 1516 
L 2900 3500 
L 3475 3500 
L 3475 0 
L 2900 0 
L 2900 538 
Q 2691 219 2414 64 
Q 2138 -91 1772 -91 
Q 1169 -91 856 284 
Q 544 659 544 1381 
z
M 1991 3584 
L 1991 3584 
z
" transform="scale(0.015625)"/>
       <path id="DejaVuSans-72" d="M 2631 2963 
Q 2534 3019 2420 3045 
Q 2306 3072 2169 3072 
Q 1681 3072 1420 2755 
Q 1159 2438 1159 1844 
L 1159 0 
L 581 0 
L 581 3500 
L 1159 3500 
L 1159 2956 
Q 1341 3275 1631 3429 
Q 1922 3584 2338 3584 
Q 2397 3584 2469 3576 
Q 2541 3569 2628 3553 
L 2631 2963 
z
" transform="scale(0.015625)"/>
      </defs>
      <use xlink:href="#DejaVuSans-44"/>
      <use xlink:href="#DejaVuSans-61" x="77.001953"/>
      <use xlink:href="#DejaVuSans-79" x="138.28125"/>
      <use xlink:href="#DejaVuSans-73" x="197.460938"/>
      <use xlink:href="#DejaVuSans-20" x="249.560547"/>
      <use xlink:href="#DejaVuSans-73" x="281.347656"/>
      <use xlink:href="#DejaVuSans-69" x="333.447266"/>
      <use xlink:href="#DejaVuSans-6e" x="361.230469"/>
      <use xlink:href="#DejaVuSans-63" x="424.609375"/>
      <use xlink:href="#DejaVuSans-65" x="479.589844"/>
      <use xlink:href="#DejaVuSans-20" x="541.113281"/>
      <use xlink:href="#DejaVuSans-61" x="572.900391"/>
      <use xlink:href="#DejaVuSans-6e" x="634.179688"/>
      <use xlink:href="#DejaVuSans-74" x="697.558594"/>
      <use xlink:href="#DejaVuSans-69" x="736.767578"/>
      <use xlink:href="#DejaVuSans-67" x="764.550781"/>
      <use xlink:href="#DejaVuSans-65" x="828.027344"/>
      <use xlink:href="#DejaVuSans-6e" x="889.550781"/>
      <use xlink:href="#DejaVuSans-20" x="952.929688"/>
      <use xlink:href="#DejaVuSans-65" x="984.716797"/>
      <use xlink:href="#DejaVuSans-78" x="1044.490234"/>
      <use xlink:href="#DejaVuSans-70" x="1103.669922"/>
      <use xlink:href="#DejaVuSans-6f" x="1167.146484"/>
      <use xlink:href="#DejaVuSans-73" x="1228.328125"/>
      <use xlink:href="#DejaVuSans-75" x="1280.427734"/>
      <use xlink:href="#DejaVuSans-72" x="1343.806641"/>
      <use xlink:href="#DejaVuSans-65" x="1382.669922"/>
     </g>
    </g>
   </g>
   <g id="matplotlib.axis_2">
    <g id="ytick_1">
     <g id="line2d_8">
      <defs>
       <path id="m32523239aa" d="M 0 0 
L -3.5 0 
" style="stroke: #000000; stroke-width: 0.8"/>
      </defs>
      <g>
       <use xlink:href="#m32523239aa" x="91.758125" y="384.131167" style="stroke: #000000; stroke-width: 0.8"/>
      </g>
     </g>
     <g id="text_9">
      <!-- 0.0 -->
      <g transform="translate(52.951875 391.729605) scale(0.2 -0.2)">
       <defs>
        <path id="DejaVuSans-2e" d="M 684 794 
L 1344 794 
L 1344 0 
L 684 0 
L 684 794 
z
" transform="scale(0.015625)"/>
       </defs>
       <use xlink:href="#DejaVuSans-30"/>
       <use xlink:href="#DejaVuSans-2e" x="63.623047"/>
       <use xlink:href="#DejaVuSans-30" x="95.410156"/>
      </g>
     </g>
    </g>
    <g id="ytick_2">
     <g id="line2d_9">
      <g>
       <use xlink:href="#m32523239aa" x="91.758125" y="319.439752" style="stroke: #000000; stroke-width: 0.8"/>
      </g>
     </g>
     <g id="text_10">
      <!-- 0.2 -->
      <g transform="translate(52.951875 327.038189) scale(0.2 -0.2)">
       <use xlink:href="#DejaVuSans-30"/>
       <use xlink:href="#DejaVuSans-2e" x="63.623047"/>
       <use xlink:href="#DejaVuSans-32" x="95.410156"/>
      </g>
     </g>
    </g>
    <g id="ytick_3">
     <g id="line2d_10">
      <g>
       <use xlink:href="#m32523239aa" x="91.758125" y="254.748336" style="stroke: #000000; stroke-width: 0.8"/>
      </g>
     </g>
     <g id="text_11">
      <!-- 0.4 -->
      <g transform="translate(52.951875 262.346774) scale(0.2 -0.2)">
       <use xlink:href="#DejaVuSans-30"/>
       <use xlink:href="#DejaVuSans-2e" x="63.623047"/>
       <use xlink:href="#DejaVuSans-34" x="95.410156"/>
      </g>
     </g>
    </g>
    <g id="ytick_4">
     <g id="line2d_11">
      <g>
       <use xlink:href="#m32523239aa" x="91.758125" y="190.056921" style="stroke: #000000; stroke-width: 0.8"/>
      </g>
     </g>
     <g id="text_12">
      <!-- 0.6 -->
      <g transform="translate(52.951875 197.655358) scale(0.2 -0.2)">
       <use xlink:href="#DejaVuSans-30"/>
       <use xlink:href="#DejaVuSans-2e" x="63.623047"/>
       <use xlink:href="#DejaVuSans-36" x="95.410156"/>
      </g>
     </g>
    </g>
    <g id="ytick_5">
     <g id="line2d_12">
      <g>
       <use xlink:href="#m32523239aa" x="91.758125" y="125.365505" style="stroke: #000000; stroke-width: 0.8"/>
      </g>
     </g>
     <g id="text_13">
      <!-- 0.8 -->
      <g transform="translate(52.951875 132.963943) scale(0.2 -0.2)">
       <defs>
        <path id="DejaVuSans-38" d="M 2034 2216 
Q 1584 2216 1326 1975 
Q 1069 1734 1069 1313 
Q 1069 891 1326 650 
Q 1584 409 2034 409 
Q 2484 409 2743 651 
Q 3003 894 3003 1313 
Q 3003 1734 2745 1975 
Q 2488 2216 2034 2216 
z
M 1403 2484 
Q 997 2584 770 2862 
Q 544 3141 544 3541 
Q 544 4100 942 4425 
Q 1341 4750 2034 4750 
Q 2731 4750 3128 4425 
Q 3525 4100 3525 3541 
Q 3525 3141 3298 2862 
Q 3072 2584 2669 2484 
Q 3125 2378 3379 2068 
Q 3634 1759 3634 1313 
Q 3634 634 3220 271 
Q 2806 -91 2034 -91 
Q 1263 -91 848 271 
Q 434 634 434 1313 
Q 434 1759 690 2068 
Q 947 2378 1403 2484 
z
M 1172 3481 
Q 1172 3119 1398 2916 
Q 1625 2713 2034 2713 
Q 2441 2713 2670 2916 
Q 2900 3119 2900 3481 
Q 2900 3844 2670 4047 
Q 2441 4250 2034 4250 
Q 1625 4250 1398 4047 
Q 1172 3844 1172 3481 
z
" transform="scale(0.015625)"/>
       </defs>
       <use xlink:href="#DejaVuSans-30"/>
       <use xlink:href="#DejaVuSans-2e" x="63.623047"/>
       <use xlink:href="#DejaVuSans-38" x="95.410156"/>
      </g>
     </g>
    </g>
    <g id="ytick_6">
     <g id="line2d_13">
      <g>
       <use xlink:href="#m32523239aa" x="91.758125" y="60.67409" style="stroke: #000000; stroke-width: 0.8"/>
      </g>
     </g>
     <g id="text_14">
      <!-- 1.0 -->
      <g transform="translate(52.951875 68.272527) scale(0.2 -0.2)">
       <use xlink:href="#DejaVuSans-31"/>
       <use xlink:href="#DejaVuSans-2e" x="63.623047"/>
       <use xlink:href="#DejaVuSans-30" x="95.410156"/>
      </g>
     </g>
    </g>
    <g id="text_15">
     <!-- Virus neutralization -->
     <g transform="translate(22.396875 319.741562) rotate(-90) scale(0.2 -0.2)">
      <defs>
       <path id="DejaVuSans-56" d="M 1831 0 
L 50 4666 
L 709 4666 
L 2188 738 
L 3669 4666 
L 4325 4666 
L 2547 0 
L 1831 0 
z
" transform="scale(0.015625)"/>
       <path id="DejaVuSans-6c" d="M 603 4863 
L 1178 4863 
L 1178 0 
L 603 0 
L 603 4863 
z
" transform="scale(0.015625)"/>
       <path id="DejaVuSans-7a" d="M 353 3500 
L 3084 3500 
L 3084 2975 
L 922 459 
L 3084 459 
L 3084 0 
L 275 0 
L 275 525 
L 2438 3041 
L 353 3041 
L 353 3500 
z
" transform="scale(0.015625)"/>
      </defs>
      <use xlink:href="#DejaVuSans-56"/>
      <use xlink:href="#DejaVuSans-69" x="66.158203"/>
      <use xlink:href="#DejaVuSans-72" x="93.941406"/>
      <use xlink:href="#DejaVuSans-75" x="135.054688"/>
      <use xlink:href="#DejaVuSans-73" x="198.433594"/>
      <use xlink:href="#DejaVuSans-20" x="250.533203"/>
      <use xlink:href="#DejaVuSans-6e" x="282.320312"/>
      <use xlink:href="#DejaVuSans-65" x="345.699219"/>
      <use xlink:href="#DejaVuSans-75" x="407.222656"/>
      <use xlink:href="#DejaVuSans-74" x="470.601562"/>
      <use xlink:href="#DejaVuSans-72" x="509.810547"/>
      <use xlink:href="#DejaVuSans-61" x="550.923828"/>
      <use xlink:href="#DejaVuSans-6c" x="612.203125"/>
      <use xlink:href="#DejaVuSans-69" x="639.986328"/>
      <use xlink:href="#DejaVuSans-7a" x="667.769531"/>
      <use xlink:href="#DejaVuSans-61" x="720.259766"/>
      <use xlink:href="#DejaVuSans-74" x="781.539062"/>
      <use xlink:href="#DejaVuSans-69" x="820.748047"/>
      <use xlink:href="#DejaVuSans-6f" x="848.53125"/>
      <use xlink:href="#DejaVuSans-6e" x="909.712891"/>
     </g>
     <!--  probability -->
     <g transform="translate(44.7925 278.966562) rotate(-90) scale(0.2 -0.2)">
      <defs>
       <path id="DejaVuSans-62" d="M 3116 1747 
Q 3116 2381 2855 2742 
Q 2594 3103 2138 3103 
Q 1681 3103 1420 2742 
Q 1159 2381 1159 1747 
Q 1159 1113 1420 752 
Q 1681 391 2138 391 
Q 2594 391 2855 752 
Q 3116 1113 3116 1747 
z
M 1159 2969 
Q 1341 3281 1617 3432 
Q 1894 3584 2278 3584 
Q 2916 3584 3314 3078 
Q 3713 2572 3713 1747 
Q 3713 922 3314 415 
Q 2916 -91 2278 -91 
Q 1894 -91 1617 61 
Q 1341 213 1159 525 
L 1159 0 
L 581 0 
L 581 4863 
L 1159 4863 
L 1159 2969 
z
" transform="scale(0.015625)"/>
      </defs>
      <use xlink:href="#DejaVuSans-20"/>
      <use xlink:href="#DejaVuSans-70" x="31.787109"/>
      <use xlink:href="#DejaVuSans-72" x="95.263672"/>
      <use xlink:href="#DejaVuSans-6f" x="134.126953"/>
      <use xlink:href="#DejaVuSans-62" x="195.308594"/>
      <use xlink:href="#DejaVuSans-61" x="258.785156"/>
      <use xlink:href="#DejaVuSans-62" x="320.064453"/>
      <use xlink:href="#DejaVuSans-69" x="383.541016"/>
      <use xlink:href="#DejaVuSans-6c" x="411.324219"/>
      <use xlink:href="#DejaVuSans-69" x="439.107422"/>
      <use xlink:href="#DejaVuSans-74" x="466.890625"/>
      <use xlink:href="#DejaVuSans-79" x="506.099609"/>
     </g>
    </g>
   </g>
   <g id="patch_3">
    <path d="M 91.758125 416.476875 
L 91.758125 28.396875 
" style="fill: none; stroke: #000000; stroke-width: 0.8; stroke-linejoin: miter; stroke-linecap: square"/>
   </g>
   <g id="patch_4">
    <path d="M 649.758125 416.476875 
L 649.758125 28.396875 
" style="fill: none; stroke: #000000; stroke-width: 0.8; stroke-linejoin: miter; stroke-linecap: square"/>
   </g>
   <g id="patch_5">
    <path d="M 91.758125 416.476875 
L 649.758125 416.476875 
" style="fill: none; stroke: #000000; stroke-width: 0.8; stroke-linejoin: miter; stroke-linecap: square"/>
   </g>
   <g id="patch_6">
    <path d="M 91.758125 28.396875 
L 649.758125 28.396875 
" style="fill: none; stroke: #000000; stroke-width: 0.8; stroke-linejoin: miter; stroke-linecap: square"/>
   </g>
   <g id="text_16">
    <!-- Lineage 1 antigen -->
    <g transform="translate(280.565938 22.396875) scale(0.2 -0.2)">
     <defs>
      <path id="DejaVuSans-4c" d="M 628 4666 
L 1259 4666 
L 1259 531 
L 3531 531 
L 3531 0 
L 628 0 
L 628 4666 
z
" transform="scale(0.015625)"/>
     </defs>
     <use xlink:href="#DejaVuSans-4c"/>
     <use xlink:href="#DejaVuSans-69" x="55.712891"/>
     <use xlink:href="#DejaVuSans-6e" x="83.496094"/>
     <use xlink:href="#DejaVuSans-65" x="146.875"/>
     <use xlink:href="#DejaVuSans-61" x="208.398438"/>
     <use xlink:href="#DejaVuSans-67" x="269.677734"/>
     <use xlink:href="#DejaVuSans-65" x="333.154297"/>
     <use xlink:href="#DejaVuSans-20" x="394.677734"/>
     <use xlink:href="#DejaVuSans-31" x="426.464844"/>
     <use xlink:href="#DejaVuSans-20" x="490.087891"/>
     <use xlink:href="#DejaVuSans-61" x="521.875"/>
     <use xlink:href="#DejaVuSans-6e" x="583.154297"/>
     <use xlink:href="#DejaVuSans-74" x="646.533203"/>
     <use xlink:href="#DejaVuSans-69" x="685.742188"/>
     <use xlink:href="#DejaVuSans-67" x="713.525391"/>
     <use xlink:href="#DejaVuSans-65" x="777.001953"/>
     <use xlink:href="#DejaVuSans-6e" x="838.525391"/>
    </g>
   </g>
   <g id="legend_1">
    <g id="patch_7">
     <path d="M 235.258125 532.900875 
L 591.301875 532.900875 
Q 595.301875 532.900875 595.301875 528.900875 
L 595.301875 501.544625 
Q 595.301875 497.544625 591.301875 497.544625 
L 235.258125 497.544625 
Q 231.258125 497.544625 231.258125 501.544625 
L 231.258125 528.900875 
Q 231.258125 532.900875 235.258125 532.900875 
z
" style="fill: #ffffff; opacity: 0.8; stroke: #cccccc; stroke-linejoin: miter"/>
    </g>
    <g id="patch_8">
     <path d="M 239.258125 520.7415 
L 279.258125 520.7415 
L 279.258125 506.7415 
L 239.258125 506.7415 
z
" style="fill: #ffa500; fill-opacity: 0.3; stroke: #ffa500; stroke-opacity: 0.3; stroke-linejoin: miter"/>
    </g>
    <g id="text_17">
     <!-- Lineage 1 -->
     <g transform="translate(295.258125 520.7415) scale(0.2 -0.2)">
      <use xlink:href="#DejaVuSans-4c"/>
      <use xlink:href="#DejaVuSans-69" x="55.712891"/>
      <use xlink:href="#DejaVuSans-6e" x="83.496094"/>
      <use xlink:href="#DejaVuSans-65" x="146.875"/>
      <use xlink:href="#DejaVuSans-61" x="208.398438"/>
      <use xlink:href="#DejaVuSans-67" x="269.677734"/>
      <use xlink:href="#DejaVuSans-65" x="333.154297"/>
      <use xlink:href="#DejaVuSans-20" x="394.677734"/>
      <use xlink:href="#DejaVuSans-31" x="426.464844"/>
     </g>
    </g>
    <g id="patch_9">
     <path d="M 433.28 520.7415 
L 473.28 520.7415 
L 473.28 506.7415 
L 433.28 506.7415 
z
" style="fill: #1f77b4; fill-opacity: 0.3; stroke: #1f77b4; stroke-opacity: 0.3; stroke-linejoin: miter"/>
    </g>
    <g id="text_18">
     <!-- Lineage 2 -->
     <g transform="translate(489.28 520.7415) scale(0.2 -0.2)">
      <use xlink:href="#DejaVuSans-4c"/>
      <use xlink:href="#DejaVuSans-69" x="55.712891"/>
      <use xlink:href="#DejaVuSans-6e" x="83.496094"/>
      <use xlink:href="#DejaVuSans-65" x="146.875"/>
      <use xlink:href="#DejaVuSans-61" x="208.398438"/>
      <use xlink:href="#DejaVuSans-67" x="269.677734"/>
      <use xlink:href="#DejaVuSans-65" x="333.154297"/>
      <use xlink:href="#DejaVuSans-20" x="394.677734"/>
      <use xlink:href="#DejaVuSans-32" x="426.464844"/>
     </g>
    </g>
   </g>
  </g>
 </g>
 <defs>
  <clipPath id="p3734278230">
   <rect x="91.758125" y="28.396875" width="558" height="388.08"/>
  </clipPath>
 </defs>
</svg>
