<?xml version="1.0" encoding="utf-8" standalone="no"?>
<!DOCTYPE svg PUBLIC "-//W3C//DTD SVG 1.1//EN"
  "http://www.w3.org/Graphics/SVG/1.1/DTD/svg11.dtd">
<svg xmlns:xlink="http://www.w3.org/1999/xlink" width="656.958125pt" height="540.100875pt" viewBox="0 0 656.958125 540.100875" xmlns="http://www.w3.org/2000/svg" version="1.1">
 <metadata>
  <rdf:RDF xmlns:dc="http://purl.org/dc/elements/1.1/" xmlns:cc="http://creativecommons.org/ns#" xmlns:rdf="http://www.w3.org/1999/02/22-rdf-syntax-ns#">
   <cc:Work>
    <dc:type rdf:resource="http://purl.org/dc/dcmitype/StillImage"/>
    <dc:date>2024-04-22T20:55:19.376236</dc:date>
    <dc:format>image/svg+xml</dc:format>
    <dc:creator>
     <cc:Agent>
      <dc:title>Matplotlib v3.8.4, https://matplotlib.org/</dc:title>
     </cc:Agent>
    </dc:creator>
   </cc:Work>
  </rdf:RDF>
 </metadata>
 <defs>
  <style type="text/css">*{stroke-linejoin: round; stroke-linecap: butt}</style>
 </defs>
 <g id="figure_1">
  <g id="patch_1">
   <path d="M 0 540.100875 
L 656.958125 540.100875 
L 656.958125 0 
L 0 0 
z
" style="fill: #ffffff"/>
  </g>
  <g id="axes_1">
   <g id="patch_2">
    <path d="M 91.758125 416.476875 
L 649.758125 416.476875 
L 649.758125 28.396875 
L 91.758125 28.396875 
z
" style="fill: #ffffff"/>
   </g>
   <g id="PolyCollection_1">
    <defs>
     <path id="m7c1b48252b" d="M 117.121761 -418.481505 
L 117.121761 -319.963103 
L 117.897408 -391.45491 
L 118.673054 -426.73295 
L 119.4487 -445.814804 
L 120.224347 -456.904185 
L 120.999993 -463.732725 
L 121.77564 -468.14294 
L 122.551286 -471.107279 
L 123.326932 -473.168242 
L 124.102579 -474.643027 
L 124.878225 -475.724728 
L 125.653871 -476.535089 
L 126.429518 -477.153258 
L 127.205164 -477.632109 
L 127.980811 -478.007824 
L 128.756457 -478.305702 
L 129.532103 -478.543774 
L 130.30775 -478.735113 
L 131.083396 -478.889345 
L 131.859042 -478.981401 
L 132.634689 -478.847256 
L 133.410335 -478.694018 
L 134.185982 -478.521112 
L 134.961628 -478.327784 
L 135.737274 -478.113133 
L 136.512921 -477.876137 
L 137.288567 -477.615675 
L 138.064213 -477.330535 
L 138.83986 -477.019434 
L 139.615506 -476.681027 
L 140.391153 -476.313913 
L 141.166799 -475.91665 
L 141.942445 -475.487756 
L 142.718092 -475.025725 
L 143.493738 -474.529027 
L 144.269384 -473.99612 
L 145.045031 -473.425457 
L 145.820677 -472.815489 
L 146.596323 -472.164679 
L 147.37197 -471.471502 
L 148.147616 -470.734459 
L 148.923263 -469.952077 
L 149.698909 -469.122923 
L 150.474555 -468.245605 
L 151.250202 -467.318783 
L 152.025848 -466.341174 
L 152.801494 -465.311558 
L 153.577141 -464.228784 
L 154.352787 -463.091779 
L 155.128434 -461.899551 
L 155.90408 -460.651194 
L 156.679726 -459.345895 
L 157.455373 -457.98294 
L 158.231019 -456.561714 
L 159.006665 -455.081708 
L 159.782312 -453.542523 
L 160.557958 -451.94387 
L 161.333605 -450.285577 
L 162.109251 -448.567586 
L 162.884897 -446.789957 
L 163.660544 -444.952871 
L 164.43619 -443.056626 
L 165.211836 -441.101641 
L 165.987483 -439.088452 
L 166.763129 -437.017713 
L 167.538776 -434.890194 
L 168.314422 -432.706779 
L 169.090068 -430.468462 
L 169.865715 -428.176347 
L 170.641361 -425.831641 
L 171.417007 -423.435651 
L 172.192654 -420.989783 
L 172.9683 -418.495532 
L 173.743947 -415.954484 
L 174.519593 -413.368302 
L 175.295239 -410.738729 
L 176.070886 -408.067578 
L 176.846532 -405.356727 
L 177.622178 -402.608113 
L 178.397825 -399.823727 
L 179.173471 -397.005606 
L 179.949117 -394.155829 
L 180.724764 -391.276509 
L 181.50041 -388.369787 
L 182.276057 -385.43783 
L 183.051703 -382.482819 
L 183.827349 -379.506945 
L 184.602996 -376.512408 
L 185.378642 -373.501403 
L 186.154288 -370.476122 
L 186.929935 -367.438747 
L 187.705581 -364.39144 
L 188.481228 -361.336346 
L 189.256874 -358.275583 
L 190.03252 -355.211239 
L 190.808167 -352.14537 
L 191.583813 -349.079994 
L 192.359459 -346.017086 
L 193.135106 -342.958579 
L 193.910752 -339.906359 
L 194.686399 -336.862262 
L 195.462045 -333.82807 
L 196.237691 -330.805512 
L 197.013338 -327.79626 
L 197.788984 -324.80193 
L 198.56463 -321.824075 
L 199.340277 -318.86419 
L 200.115923 -315.923707 
L 200.89157 -313.003997 
L 201.667216 -310.106368 
L 202.442862 -307.232064 
L 203.218509 -304.382266 
L 203.994155 -301.558092 
L 204.769801 -298.760597 
L 205.545448 -295.990775 
L 206.321094 -293.249557 
L 207.096741 -290.537811 
L 207.872387 -287.856348 
L 208.648033 -285.205918 
L 209.42368 -282.587212 
L 210.199326 -280.000864 
L 210.974972 -277.447453 
L 211.750619 -274.927504 
L 212.526265 -272.441487 
L 213.301911 -269.989821 
L 214.077558 -267.572875 
L 214.853204 -265.190969 
L 215.628851 -262.844376 
L 216.404497 -260.533324 
L 217.180143 -258.257996 
L 217.95579 -256.018535 
L 218.731436 -253.81504 
L 219.507082 -251.647576 
L 220.282729 -249.516165 
L 221.058375 -247.420799 
L 221.834022 -245.361432 
L 222.609668 -243.337989 
L 223.385314 -241.350361 
L 224.160961 -239.398413 
L 224.936607 -237.481981 
L 225.712253 -235.600874 
L 226.4879 -233.75488 
L 227.263546 -231.943759 
L 228.039193 -230.167254 
L 228.814839 -228.425085 
L 229.590485 -226.716954 
L 230.366132 -225.042547 
L 231.141778 -223.401531 
L 231.917424 -221.793559 
L 232.693071 -220.218271 
L 233.468717 -218.675294 
L 234.244364 -217.164242 
L 235.02001 -215.684721 
L 235.795656 -214.236326 
L 236.571303 -212.818642 
L 237.346949 -211.43125 
L 238.122595 -210.073722 
L 238.898242 -208.745623 
L 239.673888 -207.446516 
L 240.449535 -206.175958 
L 241.225181 -204.933503 
L 242.000827 -203.718701 
L 242.776474 -202.531102 
L 243.55212 -201.370252 
L 244.327766 -200.2357 
L 245.103413 -199.12699 
L 245.879059 -198.043669 
L 246.654705 -196.985285 
L 247.430352 -195.951385 
L 248.205998 -194.94152 
L 248.981645 -193.955242 
L 249.757291 -192.992104 
L 250.532937 -192.051664 
L 251.308584 -191.133483 
L 252.08423 -190.237124 
L 252.859876 -189.362154 
L 253.635523 -188.508145 
L 254.411169 -187.674672 
L 255.186816 -186.861315 
L 255.962462 -186.06766 
L 256.738108 -185.293294 
L 257.513755 -184.537814 
L 258.289401 -183.800818 
L 259.065047 -183.081911 
L 259.840694 -182.380704 
L 260.61634 -181.696812 
L 261.391987 -181.029856 
L 262.167633 -180.379464 
L 262.943279 -179.745268 
L 263.718926 -179.126906 
L 264.494572 -178.524024 
L 265.270218 -177.93627 
L 266.045865 -177.363302 
L 266.821511 -176.804781 
L 267.597158 -176.260375 
L 268.372804 -175.729758 
L 269.14845 -175.21261 
L 269.924097 -174.708615 
L 270.699743 -174.217466 
L 271.475389 -173.73886 
L 272.251036 -173.2725 
L 273.026682 -172.818095 
L 273.802329 -172.375359 
L 274.577975 -171.944013 
L 275.353621 -171.523783 
L 276.129268 -171.1144 
L 276.904914 -170.715601 
L 277.68056 -170.327129 
L 278.456207 -169.948731 
L 279.231853 -169.580161 
L 280.007499 -169.221177 
L 280.783146 -168.871543 
L 281.558792 -168.531028 
L 282.334439 -168.199406 
L 283.110085 -167.876455 
L 283.885731 -167.561959 
L 284.661378 -167.255707 
L 285.437024 -166.957492 
L 286.21267 -166.667112 
L 286.988317 -166.38437 
L 287.763963 -166.109073 
L 288.53961 -165.841033 
L 289.315256 -165.580064 
L 290.090902 -165.325988 
L 290.866549 -165.07863 
L 291.642195 -164.837816 
L 292.417841 -164.603381 
L 293.193488 -164.37516 
L 293.969134 -164.152995 
L 294.744781 -163.936729 
L 295.520427 -163.72621 
L 296.296073 -163.52129 
L 297.07172 -163.321825 
L 297.847366 -163.127672 
L 298.623012 -162.938695 
L 299.398659 -162.754759 
L 300.174305 -162.575733 
L 300.949952 -162.401488 
L 301.725598 -162.231901 
L 302.501244 -162.066849 
L 303.276891 -161.906215 
L 304.052537 -161.749881 
L 304.828183 -161.597736 
L 305.60383 -161.44967 
L 306.379476 -161.305576 
L 307.155122 -161.165348 
L 307.930769 -161.028885 
L 308.706415 -160.896089 
L 309.482062 -160.766861 
L 310.257708 -160.641109 
L 311.033354 -160.518739 
L 311.809001 -160.399663 
L 312.584647 -160.283794 
L 313.360293 -160.171045 
L 314.13594 -160.061335 
L 314.911586 -159.954583 
L 315.687233 -159.850709 
L 316.462879 -159.749639 
L 317.238525 -159.651296 
L 318.014172 -159.555608 
L 318.789818 -159.462505 
L 319.565464 -159.371917 
L 320.341111 -159.283778 
L 321.116757 -159.198022 
L 321.892404 -159.114584 
L 322.66805 -159.033404 
L 323.443696 -158.954421 
L 324.219343 -158.877576 
L 324.994989 -158.802811 
L 325.770635 -158.730072 
L 326.546282 -158.659303 
L 327.321928 -158.590451 
L 328.097575 -158.523466 
L 328.873221 -158.458296 
L 329.648867 -158.394894 
L 330.424514 -158.333212 
L 331.20016 -158.273203 
L 331.975806 -158.214822 
L 332.751453 -158.158026 
L 333.527099 -158.102772 
L 334.302746 -158.049018 
L 335.078392 -157.996723 
L 335.854038 -157.94585 
L 336.629685 -157.896358 
L 337.405331 -157.848211 
L 338.180977 -157.801373 
L 338.956624 -157.755807 
L 339.73227 -157.711481 
L 340.507916 -157.668359 
L 341.283563 -157.626411 
L 342.059209 -157.585603 
L 342.834856 -157.545906 
L 343.610502 -157.507288 
L 344.386148 -157.469721 
L 345.161795 -157.433177 
L 345.937441 -157.397627 
L 346.713087 -157.363045 
L 347.488734 -157.329405 
L 348.26438 -157.29668 
L 349.040027 -157.264846 
L 349.815673 -157.23388 
L 350.591319 -157.203757 
L 351.366966 -157.174454 
L 352.142612 -157.14595 
L 352.918258 -157.118222 
L 353.693905 -157.09125 
L 354.469551 -157.065013 
L 355.245198 -157.039491 
L 356.020844 -157.014665 
L 356.79649 -156.990515 
L 357.572137 -156.967024 
L 358.347783 -156.944173 
L 359.123429 -156.921945 
L 359.899076 -156.900324 
L 360.674722 -156.879292 
L 361.450369 -156.858833 
L 362.226015 -156.838932 
L 363.001661 -156.819575 
L 363.777308 -156.800745 
L 364.552954 -156.782429 
L 365.3286 -156.764613 
L 366.104247 -156.747282 
L 366.879893 -156.730425 
L 367.65554 -156.714028 
L 368.431186 -156.698078 
L 369.206832 -156.682563 
L 369.982479 -156.667472 
L 370.758125 -156.652792 
L 371.533771 -156.638514 
L 372.309418 -156.624625 
L 373.085064 -156.611115 
L 373.86071 -156.597974 
L 374.636357 -156.585191 
L 375.412003 -156.572758 
L 376.18765 -156.560664 
L 376.963296 -156.5489 
L 377.738942 -156.537458 
L 378.514589 -156.526328 
L 379.290235 -156.515501 
L 380.065881 -156.504971 
L 380.841528 -156.494728 
L 381.617174 -156.484765 
L 382.392821 -156.475074 
L 383.168467 -156.465647 
L 383.944113 -156.456478 
L 384.71976 -156.44756 
L 385.495406 -156.438885 
L 386.271052 -156.430447 
L 387.046699 -156.422239 
L 387.822345 -156.414256 
L 388.597992 -156.406491 
L 389.373638 -156.398938 
L 390.149284 -156.391591 
L 390.924931 -156.384445 
L 391.700577 -156.377494 
L 392.476223 -156.370733 
L 393.25187 -156.364157 
L 394.027516 -156.35776 
L 394.803163 -156.351539 
L 395.578809 -156.345487 
L 396.354455 -156.3396 
L 397.130102 -156.333875 
L 397.905748 -156.328306 
L 398.681394 -156.322889 
L 399.457041 -156.31762 
L 400.232687 -156.312495 
L 401.008334 -156.30751 
L 401.78398 -156.302662 
L 402.559626 -156.297945 
L 403.335273 -156.293358 
L 404.110919 -156.288896 
L 404.886565 -156.284556 
L 405.662212 -156.280335 
L 406.437858 -156.276229 
L 407.213504 -156.272235 
L 407.989151 -156.268351 
L 408.764797 -156.264572 
L 409.540444 -156.260897 
L 410.31609 -156.257323 
L 411.091736 -156.253846 
L 411.867383 -156.250464 
L 412.643029 -156.247174 
L 413.418675 -156.243975 
L 414.194322 -156.240862 
L 414.969968 -156.237835 
L 415.745615 -156.234891 
L 416.521261 -156.232027 
L 417.296907 -156.229242 
L 418.072554 -156.226532 
L 418.8482 -156.223897 
L 419.623846 -156.221334 
L 420.399493 -156.21884 
L 421.175139 -156.216415 
L 421.950786 -156.214056 
L 422.726432 -156.211762 
L 423.502078 -156.209531 
L 424.277725 -156.20736 
L 425.053371 -156.205249 
L 425.829017 -156.203195 
L 426.604664 -156.201198 
L 427.38031 -156.199255 
L 428.155957 -156.197365 
L 428.931603 -156.195527 
L 429.707249 -156.19374 
L 430.482896 -156.192001 
L 431.258542 -156.190309 
L 432.034188 -156.188664 
L 432.809835 -156.187064 
L 433.585481 -156.185508 
L 434.361128 -156.183994 
L 435.136774 -156.182521 
L 435.91242 -156.181089 
L 436.688067 -156.179696 
L 437.463713 -156.178341 
L 438.239359 -156.177023 
L 439.015006 -156.175742 
L 439.790652 -156.174495 
L 440.566298 -156.173282 
L 441.341945 -156.172102 
L 442.117591 -156.170955 
L 442.893238 -156.169839 
L 443.668884 -156.168754 
L 444.44453 -156.167698 
L 445.220177 -156.166671 
L 445.995823 -156.165672 
L 446.771469 -156.164701 
L 447.547116 -156.163756 
L 448.322762 -156.162837 
L 449.098409 -156.161943 
L 449.874055 -156.161073 
L 450.649701 -156.160227 
L 451.425348 -156.159405 
L 452.200994 -156.158604 
L 452.97664 -156.157826 
L 453.752287 -156.157069 
L 454.527933 -156.156333 
L 455.30358 -156.155617 
L 456.079226 -156.15492 
L 456.854872 -156.154243 
L 457.630519 -156.153584 
L 458.406165 -156.152943 
L 459.181811 -156.152319 
L 459.957458 -156.151713 
L 460.733104 -156.151123 
L 461.508751 -156.150549 
L 462.284397 -156.149991 
L 463.060043 -156.149448 
L 463.83569 -156.148921 
L 464.611336 -156.148407 
L 465.386982 -156.147908 
L 466.162629 -156.147422 
L 466.938275 -156.146949 
L 467.713921 -156.14649 
L 468.489568 -156.146043 
L 469.265214 -156.145608 
L 470.040861 -156.145185 
L 470.816507 -156.144774 
L 471.592153 -156.144374 
L 472.3678 -156.143984 
L 473.143446 -156.143606 
L 473.919092 -156.143238 
L 474.694739 -156.14288 
L 475.470385 -156.142531 
L 476.246032 -156.142193 
L 477.021678 -156.141863 
L 477.797324 -156.141543 
L 478.572971 -156.141231 
L 479.348617 -156.140928 
L 480.124263 -156.140633 
L 480.89991 -156.140346 
L 481.675556 -156.140067 
L 482.451203 -156.139795 
L 483.226849 -156.139531 
L 484.002495 -156.139275 
L 484.778142 -156.139025 
L 485.553788 -156.138782 
L 486.329434 -156.138546 
L 487.105081 -156.138316 
L 487.880727 -156.138092 
L 488.656374 -156.137875 
L 489.43202 -156.137664 
L 490.207666 -156.137458 
L 490.983313 -156.137258 
L 491.758959 -156.137063 
L 492.534605 -156.136874 
L 493.310252 -156.13669 
L 494.085898 -156.136511 
L 494.861545 -156.136337 
L 495.637191 -156.136167 
L 496.412837 -156.136003 
L 497.188484 -156.135842 
L 497.96413 -156.135686 
L 498.739776 -156.135535 
L 499.515423 -156.135387 
L 500.291069 -156.135244 
L 501.066715 -156.135104 
L 501.842362 -156.134969 
L 502.618008 -156.134837 
L 503.393655 -156.134708 
L 504.169301 -156.134583 
L 504.944947 -156.134462 
L 505.720594 -156.134344 
L 506.49624 -156.134229 
L 507.271886 -156.134117 
L 508.047533 -156.134009 
L 508.823179 -156.133903 
L 509.598826 -156.1338 
L 510.374472 -156.1337 
L 511.150118 -156.133603 
L 511.925765 -156.133508 
L 512.701411 -156.133416 
L 513.477057 -156.133326 
L 514.252704 -156.133239 
L 515.02835 -156.133155 
L 515.803997 -156.133072 
L 516.579643 -156.132992 
L 517.355289 -156.132914 
L 518.130936 -156.132838 
L 518.906582 -156.132765 
L 519.682228 -156.132693 
L 520.457875 -156.132623 
L 521.233521 -156.132555 
L 522.009168 -156.132489 
L 522.784814 -156.132425 
L 523.56046 -156.132363 
L 524.336107 -156.132302 
L 525.111753 -156.132243 
L 525.887399 -156.132185 
L 526.663046 -156.13213 
L 527.438692 -156.132075 
L 528.214339 -156.132022 
L 528.989985 -156.131971 
L 529.765631 -156.131921 
L 530.541278 -156.131872 
L 531.316924 -156.131825 
L 532.09257 -156.131779 
L 532.868217 -156.131734 
L 533.643863 -156.131691 
L 534.419509 -156.131648 
L 535.195156 -156.131607 
L 535.970802 -156.131567 
L 536.746449 -156.131528 
L 537.522095 -156.13149 
L 538.297741 -156.131453 
L 539.073388 -156.131417 
L 539.849034 -156.131383 
L 540.62468 -156.131349 
L 541.400327 -156.131316 
L 542.175973 -156.131284 
L 542.95162 -156.131252 
L 543.727266 -156.131222 
L 544.502912 -156.131192 
L 545.278559 -156.131164 
L 546.054205 -156.131136 
L 546.829851 -156.131109 
L 547.605498 -156.131082 
L 548.381144 -156.131056 
L 549.156791 -156.131031 
L 549.932437 -156.131007 
L 550.708083 -156.130983 
L 551.48373 -156.13096 
L 552.259376 -156.130938 
L 553.035022 -156.130916 
L 553.810669 -156.130895 
L 554.586315 -156.130875 
L 555.361962 -156.130854 
L 556.137608 -156.130835 
L 556.913254 -156.130816 
L 557.688901 -156.130798 
L 558.464547 -156.13078 
L 559.240193 -156.130762 
L 560.01584 -156.130745 
L 560.791486 -156.130729 
L 561.567133 -156.130713 
L 562.342779 -156.130697 
L 563.118425 -156.130682 
L 563.894072 -156.130667 
L 564.669718 -156.130653 
L 565.445364 -156.130639 
L 566.221011 -156.130625 
L 566.996657 -156.130612 
L 567.772303 -156.130599 
L 568.54795 -156.130587 
L 569.323596 -156.130575 
L 570.099243 -156.130563 
L 570.874889 -156.130551 
L 571.650535 -156.13054 
L 572.426182 -156.130529 
L 573.201828 -156.130519 
L 573.977474 -156.130508 
L 574.753121 -156.130498 
L 575.528767 -156.130488 
L 576.304414 -156.130479 
L 577.08006 -156.13047 
L 577.855706 -156.130461 
L 578.631353 -156.130452 
L 579.406999 -156.130444 
L 580.182645 -156.130435 
L 580.958292 -156.130427 
L 581.733938 -156.13042 
L 582.509585 -156.130412 
L 583.285231 -156.130405 
L 584.060877 -156.130397 
L 584.836524 -156.13039 
L 585.61217 -156.130384 
L 586.387816 -156.130377 
L 587.163463 -156.130371 
L 587.939109 -156.130364 
L 588.714756 -156.130358 
L 589.490402 -156.130352 
L 590.266048 -156.130347 
L 591.041695 -156.130341 
L 591.817341 -156.130336 
L 592.592987 -156.13033 
L 593.368634 -156.130325 
L 594.14428 -156.13032 
L 594.919927 -156.130315 
L 595.695573 -156.13031 
L 596.471219 -156.130306 
L 597.246866 -156.130301 
L 598.022512 -156.130297 
L 598.798158 -156.130293 
L 599.573805 -156.130289 
L 600.349451 -156.130285 
L 601.125097 -156.130281 
L 601.900744 -156.130277 
L 602.67639 -156.130273 
L 603.452037 -156.13027 
L 604.227683 -156.130266 
L 605.003329 -156.130263 
L 605.778976 -156.130259 
L 606.554622 -156.130256 
L 607.330268 -156.130253 
L 608.105915 -156.13025 
L 608.881561 -156.130247 
L 609.657208 -156.130244 
L 610.432854 -156.130241 
L 611.2085 -156.130239 
L 611.984147 -156.130236 
L 612.759793 -156.130234 
L 613.535439 -156.130231 
L 614.311086 -156.130229 
L 615.086732 -156.130226 
L 615.862379 -156.130224 
L 616.638025 -156.130222 
L 617.413671 -156.130219 
L 618.189318 -156.130217 
L 618.964964 -156.130215 
L 619.74061 -156.130213 
L 620.516257 -156.130211 
L 621.291903 -156.130209 
L 622.06755 -156.130208 
L 622.843196 -156.130206 
L 623.618842 -156.130204 
L 624.394489 -156.130202 
L 624.394489 -161.403959 
L 624.394489 -161.403959 
L 623.618842 -161.456689 
L 622.843196 -161.509941 
L 622.06755 -161.563721 
L 621.291903 -161.618032 
L 620.516257 -161.672881 
L 619.74061 -161.728272 
L 618.964964 -161.784211 
L 618.189318 -161.840704 
L 617.413671 -161.897754 
L 616.638025 -161.955369 
L 615.862379 -162.013552 
L 615.086732 -162.072311 
L 614.311086 -162.13165 
L 613.535439 -162.191575 
L 612.759793 -162.252091 
L 611.984147 -162.313205 
L 611.2085 -162.374921 
L 610.432854 -162.437247 
L 609.657208 -162.500187 
L 608.881561 -162.563748 
L 608.105915 -162.627935 
L 607.330268 -162.692755 
L 606.554622 -162.758214 
L 605.778976 -162.824318 
L 605.003329 -162.891072 
L 604.227683 -162.958484 
L 603.452037 -163.026559 
L 602.67639 -163.095305 
L 601.900744 -163.164726 
L 601.125097 -163.234831 
L 600.349451 -163.305625 
L 599.573805 -163.377115 
L 598.798158 -163.449307 
L 598.022512 -163.522209 
L 597.246866 -163.595826 
L 596.471219 -163.670167 
L 595.695573 -163.745237 
L 594.919927 -163.821044 
L 594.14428 -163.897595 
L 593.368634 -163.974897 
L 592.592987 -164.052957 
L 591.817341 -164.131781 
L 591.041695 -164.211379 
L 590.266048 -164.291756 
L 589.490402 -164.37292 
L 588.714756 -164.454879 
L 587.939109 -164.53764 
L 587.163463 -164.621211 
L 586.387816 -164.705599 
L 585.61217 -164.790813 
L 584.836524 -164.876859 
L 584.060877 -164.963746 
L 583.285231 -165.051482 
L 582.509585 -165.140075 
L 581.733938 -165.229532 
L 580.958292 -165.319863 
L 580.182645 -165.411075 
L 579.406999 -165.503176 
L 578.631353 -165.596174 
L 577.855706 -165.69008 
L 577.08006 -165.784899 
L 576.304414 -165.880643 
L 575.528767 -165.977318 
L 574.753121 -166.074934 
L 573.977474 -166.173499 
L 573.201828 -166.273023 
L 572.426182 -166.373513 
L 571.650535 -166.474981 
L 570.874889 -166.577433 
L 570.099243 -166.680881 
L 569.323596 -166.785332 
L 568.54795 -166.890796 
L 567.772303 -166.997283 
L 566.996657 -167.104801 
L 566.221011 -167.213362 
L 565.445364 -167.322974 
L 564.669718 -167.433646 
L 563.894072 -167.54539 
L 563.118425 -167.658214 
L 562.342779 -167.772129 
L 561.567133 -167.887144 
L 560.791486 -168.003271 
L 560.01584 -168.120518 
L 559.240193 -168.238897 
L 558.464547 -168.358418 
L 557.688901 -168.479091 
L 556.913254 -168.600926 
L 556.137608 -168.723936 
L 555.361962 -168.848129 
L 554.586315 -168.973517 
L 553.810669 -169.100111 
L 553.035022 -169.227922 
L 552.259376 -169.356961 
L 551.48373 -169.487239 
L 550.708083 -169.618768 
L 549.932437 -169.751558 
L 549.156791 -169.885621 
L 548.381144 -170.020969 
L 547.605498 -170.157613 
L 546.829851 -170.295566 
L 546.054205 -170.434838 
L 545.278559 -170.575442 
L 544.502912 -170.717389 
L 543.727266 -170.860692 
L 542.95162 -171.005363 
L 542.175973 -171.151414 
L 541.400327 -171.298858 
L 540.62468 -171.447707 
L 539.849034 -171.597973 
L 539.073388 -171.749669 
L 538.297741 -171.902808 
L 537.522095 -172.057403 
L 536.746449 -172.213467 
L 535.970802 -172.371012 
L 535.195156 -172.530052 
L 534.419509 -172.6906 
L 533.643863 -172.852669 
L 532.868217 -173.016273 
L 532.09257 -173.181425 
L 531.316924 -173.348139 
L 530.541278 -173.516429 
L 529.765631 -173.686307 
L 528.989985 -173.857789 
L 528.214339 -174.030889 
L 527.438692 -174.205619 
L 526.663046 -174.381996 
L 525.887399 -174.560032 
L 525.111753 -174.739742 
L 524.336107 -174.921141 
L 523.56046 -175.104244 
L 522.784814 -175.289064 
L 522.009168 -175.475618 
L 521.233521 -175.663919 
L 520.457875 -175.853983 
L 519.682228 -176.045825 
L 518.906582 -176.239459 
L 518.130936 -176.434903 
L 517.355289 -176.63217 
L 516.579643 -176.831277 
L 515.803997 -177.032238 
L 515.02835 -177.23507 
L 514.252704 -177.439789 
L 513.477057 -177.64641 
L 512.701411 -177.85495 
L 511.925765 -178.065424 
L 511.150118 -178.277849 
L 510.374472 -178.492242 
L 509.598826 -178.708617 
L 508.823179 -178.926993 
L 508.047533 -179.147386 
L 507.271886 -179.369812 
L 506.49624 -179.594289 
L 505.720594 -179.820833 
L 504.944947 -180.049461 
L 504.169301 -180.28019 
L 503.393655 -180.513038 
L 502.618008 -180.748023 
L 501.842362 -180.985161 
L 501.066715 -181.224469 
L 500.291069 -181.465967 
L 499.515423 -181.709671 
L 498.739776 -181.955599 
L 497.96413 -182.203769 
L 497.188484 -182.454199 
L 496.412837 -182.706908 
L 495.637191 -182.961913 
L 494.861545 -183.219233 
L 494.085898 -183.478886 
L 493.310252 -183.740892 
L 492.534605 -184.005267 
L 491.758959 -184.272031 
L 490.983313 -184.541204 
L 490.207666 -184.812803 
L 489.43202 -185.086848 
L 488.656374 -185.363357 
L 487.880727 -185.642351 
L 487.105081 -185.923847 
L 486.329434 -186.207866 
L 485.553788 -186.494427 
L 484.778142 -186.783549 
L 484.002495 -187.075252 
L 483.226849 -187.369556 
L 482.451203 -187.66648 
L 481.675556 -187.966045 
L 480.89991 -188.268269 
L 480.124263 -188.573174 
L 479.348617 -188.880778 
L 478.572971 -189.191103 
L 477.797324 -189.504168 
L 477.021678 -189.819994 
L 476.246032 -190.138602 
L 475.470385 -190.460011 
L 474.694739 -190.784241 
L 473.919092 -191.111315 
L 473.143446 -191.441252 
L 472.3678 -191.774072 
L 471.592153 -192.109798 
L 470.816507 -192.448449 
L 470.040861 -192.790046 
L 469.265214 -193.134611 
L 468.489568 -193.482164 
L 467.713921 -193.832726 
L 466.938275 -194.186319 
L 466.162629 -194.542963 
L 465.386982 -194.90268 
L 464.611336 -195.265492 
L 463.83569 -195.631418 
L 463.060043 -196.000481 
L 462.284397 -196.372702 
L 461.508751 -196.748103 
L 460.733104 -197.126704 
L 459.957458 -197.508527 
L 459.181811 -197.893594 
L 458.406165 -198.281926 
L 457.630519 -198.673545 
L 456.854872 -199.068472 
L 456.079226 -199.466729 
L 455.30358 -199.868337 
L 454.527933 -200.273318 
L 453.752287 -200.681694 
L 452.97664 -201.093485 
L 452.200994 -201.508715 
L 451.425348 -201.927403 
L 450.649701 -202.349573 
L 449.874055 -202.775245 
L 449.098409 -203.20444 
L 448.322762 -203.637182 
L 447.547116 -204.07349 
L 446.771469 -204.513387 
L 445.995823 -204.956894 
L 445.220177 -205.404032 
L 444.44453 -205.854823 
L 443.668884 -206.309288 
L 442.893238 -206.767448 
L 442.117591 -207.229325 
L 441.341945 -207.69494 
L 440.566298 -208.164314 
L 439.790652 -208.637469 
L 439.015006 -209.114424 
L 438.239359 -209.595201 
L 437.463713 -210.079822 
L 436.688067 -210.568306 
L 435.91242 -211.060674 
L 435.136774 -211.556948 
L 434.361128 -212.057147 
L 433.585481 -212.561292 
L 432.809835 -213.069404 
L 432.034188 -213.581502 
L 431.258542 -214.097606 
L 430.482896 -214.617737 
L 429.707249 -215.141914 
L 428.931603 -215.670157 
L 428.155957 -216.202486 
L 427.38031 -216.73892 
L 426.604664 -217.279478 
L 425.829017 -217.824179 
L 425.053371 -218.373043 
L 424.277725 -218.926087 
L 423.502078 -219.483331 
L 422.726432 -220.044793 
L 421.950786 -220.610491 
L 421.175139 -221.180443 
L 420.399493 -221.754667 
L 419.623846 -222.333181 
L 418.8482 -222.916001 
L 418.072554 -223.503146 
L 417.296907 -224.094631 
L 416.521261 -224.690474 
L 415.745615 -225.290692 
L 414.969968 -225.895299 
L 414.194322 -226.504312 
L 413.418675 -227.117748 
L 412.643029 -227.73562 
L 411.867383 -228.357945 
L 411.091736 -228.984736 
L 410.31609 -229.616009 
L 409.540444 -230.251778 
L 408.764797 -230.892056 
L 407.989151 -231.536858 
L 407.213504 -232.186195 
L 406.437858 -232.840082 
L 405.662212 -233.49853 
L 404.886565 -234.161552 
L 404.110919 -234.829159 
L 403.335273 -235.501363 
L 402.559626 -236.178176 
L 401.78398 -236.859606 
L 401.008334 -237.545666 
L 400.232687 -238.236364 
L 399.457041 -238.93171 
L 398.681394 -239.631712 
L 397.905748 -240.33638 
L 397.130102 -241.045722 
L 396.354455 -241.759744 
L 395.578809 -242.478455 
L 394.803163 -243.201861 
L 394.027516 -243.929967 
L 393.25187 -244.66278 
L 392.476223 -245.400304 
L 391.700577 -246.142545 
L 390.924931 -246.889507 
L 390.149284 -247.641192 
L 389.373638 -248.397604 
L 388.597992 -249.158746 
L 387.822345 -249.924619 
L 387.046699 -250.695225 
L 386.271052 -251.470564 
L 385.495406 -252.250637 
L 384.71976 -253.035443 
L 383.944113 -253.82498 
L 383.168467 -254.619248 
L 382.392821 -255.418243 
L 381.617174 -256.221963 
L 380.841528 -257.030404 
L 380.065881 -257.843562 
L 379.290235 -258.661431 
L 378.514589 -259.484006 
L 377.738942 -260.311281 
L 376.963296 -261.143248 
L 376.18765 -261.979899 
L 375.412003 -262.821225 
L 374.636357 -263.667218 
L 373.86071 -264.517868 
L 373.085064 -265.373162 
L 372.309418 -266.233091 
L 371.533771 -267.09764 
L 370.758125 -267.966798 
L 369.982479 -268.840549 
L 369.206832 -269.71888 
L 368.431186 -270.601774 
L 367.65554 -271.489214 
L 366.879893 -272.381184 
L 366.104247 -273.277666 
L 365.3286 -274.17864 
L 364.552954 -275.084085 
L 363.777308 -275.993983 
L 363.001661 -276.908309 
L 362.226015 -277.827043 
L 361.450369 -278.75016 
L 360.674722 -279.677636 
L 359.899076 -280.609446 
L 359.123429 -281.545563 
L 358.347783 -282.485959 
L 357.572137 -283.430608 
L 356.79649 -284.379478 
L 356.020844 -285.332541 
L 355.245198 -286.289765 
L 354.469551 -287.251118 
L 353.693905 -288.216567 
L 352.918258 -289.186078 
L 352.142612 -290.159615 
L 351.366966 -291.137142 
L 350.591319 -292.118623 
L 349.815673 -293.104018 
L 349.040027 -294.093289 
L 348.26438 -295.086396 
L 347.488734 -296.083297 
L 346.713087 -297.08395 
L 345.937441 -298.088311 
L 345.161795 -299.096336 
L 344.386148 -300.107979 
L 343.610502 -301.123193 
L 342.834856 -302.141932 
L 342.059209 -303.164146 
L 341.283563 -304.189785 
L 340.507916 -305.218799 
L 339.73227 -306.251135 
L 338.956624 -307.286741 
L 338.180977 -308.325562 
L 337.405331 -309.367542 
L 336.629685 -310.412626 
L 335.854038 -311.460757 
L 335.078392 -312.511875 
L 334.302746 -313.56592 
L 333.527099 -314.622833 
L 332.751453 -315.682552 
L 331.975806 -316.745013 
L 331.20016 -317.810152 
L 330.424514 -318.877906 
L 329.648867 -319.948206 
L 328.873221 -321.020987 
L 328.097575 -322.09618 
L 327.321928 -323.173716 
L 326.546282 -324.253523 
L 325.770635 -325.335532 
L 324.994989 -326.419669 
L 324.219343 -327.505861 
L 323.443696 -328.594034 
L 322.66805 -329.684111 
L 321.892404 -330.776016 
L 321.116757 -331.869671 
L 320.341111 -332.964999 
L 319.565464 -334.061918 
L 318.789818 -335.16035 
L 318.014172 -336.260211 
L 317.238525 -337.361421 
L 316.462879 -338.463894 
L 315.687233 -339.567548 
L 314.911586 -340.672296 
L 314.13594 -341.778052 
L 313.360293 -342.884729 
L 312.584647 -343.99224 
L 311.809001 -345.100495 
L 311.033354 -346.209405 
L 310.257708 -347.318879 
L 309.482062 -348.428827 
L 308.706415 -349.539155 
L 307.930769 -350.649771 
L 307.155122 -351.760582 
L 306.379476 -352.871492 
L 305.60383 -353.982408 
L 304.828183 -355.093233 
L 304.052537 -356.203871 
L 303.276891 -357.314225 
L 302.501244 -358.424197 
L 301.725598 -359.533689 
L 300.949952 -360.642602 
L 300.174305 -361.750836 
L 299.398659 -362.858293 
L 298.623012 -363.96487 
L 297.847366 -365.070468 
L 297.07172 -366.174985 
L 296.296073 -367.27832 
L 295.520427 -368.38037 
L 294.744781 -369.481032 
L 293.969134 -370.580204 
L 293.193488 -371.677783 
L 292.417841 -372.773666 
L 291.642195 -373.867748 
L 290.866549 -374.959926 
L 290.090902 -376.050096 
L 289.315256 -377.138154 
L 288.53961 -378.223995 
L 287.763963 -379.307515 
L 286.988317 -380.38861 
L 286.21267 -381.467176 
L 285.437024 -382.543108 
L 284.661378 -383.616301 
L 283.885731 -384.686652 
L 283.110085 -385.754056 
L 282.334439 -386.81841 
L 281.558792 -387.879609 
L 280.783146 -388.937551 
L 280.007499 -389.992132 
L 279.231853 -391.04325 
L 278.456207 -392.090801 
L 277.68056 -393.134684 
L 276.904914 -394.174797 
L 276.129268 -395.211039 
L 275.353621 -396.243308 
L 274.577975 -397.271506 
L 273.802329 -398.295532 
L 273.026682 -399.315287 
L 272.251036 -400.330673 
L 271.475389 -401.341592 
L 270.699743 -402.347947 
L 269.924097 -403.349643 
L 269.14845 -404.346583 
L 268.372804 -405.338674 
L 267.597158 -406.325822 
L 266.821511 -407.307934 
L 266.045865 -408.284918 
L 265.270218 -409.256685 
L 264.494572 -410.223143 
L 263.718926 -411.184205 
L 262.943279 -412.139782 
L 262.167633 -413.08979 
L 261.391987 -414.034142 
L 260.61634 -414.972754 
L 259.840694 -415.905545 
L 259.065047 -416.832432 
L 258.289401 -417.753335 
L 257.513755 -418.668177 
L 256.738108 -419.576879 
L 255.962462 -420.479365 
L 255.186816 -421.375562 
L 254.411169 -422.265396 
L 253.635523 -423.148796 
L 252.859876 -424.025692 
L 252.08423 -424.896015 
L 251.308584 -425.7597 
L 250.532937 -426.616681 
L 249.757291 -427.466895 
L 248.981645 -428.31028 
L 248.205998 -429.146776 
L 247.430352 -429.976325 
L 246.654705 -430.798871 
L 245.879059 -431.614359 
L 245.103413 -432.422736 
L 244.327766 -433.223951 
L 243.55212 -434.017955 
L 242.776474 -434.804702 
L 242.000827 -435.584145 
L 241.225181 -436.356241 
L 240.449535 -437.120949 
L 239.673888 -437.87823 
L 238.898242 -438.628045 
L 238.122595 -439.370359 
L 237.346949 -440.105139 
L 236.571303 -440.832353 
L 235.795656 -441.551972 
L 235.02001 -442.263967 
L 234.244364 -442.968314 
L 233.468717 -443.664989 
L 232.693071 -444.35397 
L 231.917424 -445.035239 
L 231.141778 -445.708777 
L 230.366132 -446.37457 
L 229.590485 -447.032604 
L 228.814839 -447.682868 
L 228.039193 -448.325353 
L 227.263546 -448.960051 
L 226.4879 -449.586959 
L 225.712253 -450.206072 
L 224.936607 -450.81739 
L 224.160961 -451.420914 
L 223.385314 -452.016646 
L 222.609668 -452.604593 
L 221.834022 -453.18476 
L 221.058375 -453.757157 
L 220.282729 -454.321794 
L 219.507082 -454.878686 
L 218.731436 -455.427845 
L 217.95579 -455.96929 
L 217.180143 -456.503039 
L 216.404497 -457.029113 
L 215.628851 -457.547532 
L 214.853204 -458.058323 
L 214.077558 -458.561511 
L 213.301911 -459.057123 
L 212.526265 -459.545189 
L 211.750619 -460.025741 
L 210.974972 -460.49881 
L 210.199326 -460.964433 
L 209.42368 -461.422645 
L 208.648033 -461.873483 
L 207.872387 -462.316988 
L 207.096741 -462.7532 
L 206.321094 -463.182162 
L 205.545448 -463.603918 
L 204.769801 -464.018513 
L 203.994155 -464.425993 
L 203.218509 -464.826408 
L 202.442862 -465.219806 
L 201.667216 -465.606239 
L 200.89157 -465.985757 
L 200.115923 -466.358416 
L 199.340277 -466.724268 
L 198.56463 -467.083369 
L 197.788984 -467.435777 
L 197.013338 -467.781549 
L 196.237691 -468.120742 
L 195.462045 -468.453418 
L 194.686399 -468.779636 
L 193.910752 -469.099458 
L 193.135106 -469.412947 
L 192.359459 -469.720164 
L 191.583813 -470.021174 
L 190.808167 -470.316042 
L 190.03252 -470.604832 
L 189.256874 -470.88761 
L 188.481228 -471.164442 
L 187.705581 -471.435395 
L 186.929935 -471.700536 
L 186.154288 -471.959933 
L 185.378642 -472.213653 
L 184.602996 -472.461765 
L 183.827349 -472.704337 
L 183.051703 -472.941439 
L 182.276057 -473.173138 
L 181.50041 -473.399505 
L 180.724764 -473.620607 
L 179.949117 -473.836515 
L 179.173471 -474.047297 
L 178.397825 -474.253022 
L 177.622178 -474.453759 
L 176.846532 -474.649577 
L 176.070886 -474.840545 
L 175.295239 -475.02673 
L 174.519593 -475.2082 
L 173.743947 -475.385024 
L 172.9683 -475.557267 
L 172.192654 -475.724997 
L 171.417007 -475.888279 
L 170.641361 -476.04718 
L 169.865715 -476.201763 
L 169.090068 -476.352093 
L 168.314422 -476.498234 
L 167.538776 -476.640247 
L 166.763129 -476.778194 
L 165.987483 -476.912135 
L 165.211836 -477.042131 
L 164.43619 -477.168238 
L 163.660544 -477.290515 
L 162.884897 -477.409017 
L 162.109251 -477.523799 
L 161.333605 -477.634912 
L 160.557958 -477.742407 
L 159.782312 -477.846335 
L 159.006665 -477.946742 
L 158.231019 -478.043673 
L 157.455373 -478.13717 
L 156.679726 -478.227274 
L 155.90408 -478.314023 
L 155.128434 -478.397449 
L 154.352787 -478.477583 
L 153.577141 -478.554453 
L 152.801494 -478.628081 
L 152.025848 -478.698485 
L 151.250202 -478.765678 
L 150.474555 -478.829665 
L 149.698909 -478.890447 
L 148.923263 -478.948016 
L 148.147616 -479.002355 
L 147.37197 -479.053438 
L 146.596323 -479.101226 
L 145.820677 -479.145668 
L 145.045031 -479.186698 
L 144.269384 -479.224229 
L 143.493738 -479.258156 
L 142.718092 -479.288348 
L 141.942445 -479.314643 
L 141.166799 -479.336845 
L 140.391153 -479.354716 
L 139.615506 -479.367963 
L 138.83986 -479.376236 
L 138.064213 -479.379104 
L 137.288567 -479.376043 
L 136.512921 -479.371422 
L 135.737274 -479.378219 
L 134.961628 -479.378184 
L 134.185982 -479.370472 
L 133.410335 -479.374792 
L 132.634689 -479.379104 
L 131.859042 -479.37436 
L 131.083396 -479.36702 
L 130.30775 -479.377684 
L 129.532103 -479.377595 
L 128.756457 -479.364588 
L 127.980811 -479.371721 
L 127.205164 -479.379104 
L 126.429518 -479.370405 
L 125.653871 -479.340828 
L 124.878225 -479.28328 
L 124.102579 -479.186902 
L 123.326932 -479.03435 
L 122.551286 -478.7965 
L 121.77564 -478.421443 
L 120.999993 -477.809624 
L 120.224347 -476.751896 
L 119.4487 -474.754279 
L 118.673054 -470.453148 
L 117.897408 -459.16493 
L 117.121761 -418.481505 
z
" style="stroke: #ffa500; stroke-opacity: 0.3"/>
    </defs>
    <g clip-path="url(#p169b8a3a42)">
     <use xlink:href="#m7c1b48252b" x="0" y="540.100875" style="fill: #ffa500; fill-opacity: 0.3; stroke: #ffa500; stroke-opacity: 0.3"/>
    </g>
   </g>
   <g id="matplotlib.axis_1">
    <g id="xtick_1">
     <g id="line2d_1">
      <defs>
       <path id="m33bccdba75" d="M 0 0 
L 0 3.5 
" style="stroke: #000000; stroke-width: 0.8"/>
      </defs>
      <g>
       <use xlink:href="#m33bccdba75" x="116.346115" y="416.476875" style="stroke: #000000; stroke-width: 0.8"/>
      </g>
     </g>
     <g id="text_1">
      <!-- 0 -->
      <g transform="translate(109.983615 438.67375) scale(0.2 -0.2)">
       <defs>
        <path id="DejaVuSans-30" d="M 2034 4250 
Q 1547 4250 1301 3770 
Q 1056 3291 1056 2328 
Q 1056 1369 1301 889 
Q 1547 409 2034 409 
Q 2525 409 2770 889 
Q 3016 1369 3016 2328 
Q 3016 3291 2770 3770 
Q 2525 4250 2034 4250 
z
M 2034 4750 
Q 2819 4750 3233 4129 
Q 3647 3509 3647 2328 
Q 3647 1150 3233 529 
Q 2819 -91 2034 -91 
Q 1250 -91 836 529 
Q 422 1150 422 2328 
Q 422 3509 836 4129 
Q 1250 4750 2034 4750 
z
" transform="scale(0.015625)"/>
       </defs>
       <use xlink:href="#DejaVuSans-30"/>
      </g>
     </g>
    </g>
    <g id="xtick_2">
     <g id="line2d_2">
      <g>
       <use xlink:href="#m33bccdba75" x="193.910752" y="416.476875" style="stroke: #000000; stroke-width: 0.8"/>
      </g>
     </g>
     <g id="text_2">
      <!-- 100 -->
      <g transform="translate(174.823252 438.67375) scale(0.2 -0.2)">
       <defs>
        <path id="DejaVuSans-31" d="M 794 531 
L 1825 531 
L 1825 4091 
L 703 3866 
L 703 4441 
L 1819 4666 
L 2450 4666 
L 2450 531 
L 3481 531 
L 3481 0 
L 794 0 
L 794 531 
z
" transform="scale(0.015625)"/>
       </defs>
       <use xlink:href="#DejaVuSans-31"/>
       <use xlink:href="#DejaVuSans-30" x="63.623047"/>
       <use xlink:href="#DejaVuSans-30" x="127.246094"/>
      </g>
     </g>
    </g>
    <g id="xtick_3">
     <g id="line2d_3">
      <g>
       <use xlink:href="#m33bccdba75" x="271.475389" y="416.476875" style="stroke: #000000; stroke-width: 0.8"/>
      </g>
     </g>
     <g id="text_3">
      <!-- 200 -->
      <g transform="translate(252.387889 438.67375) scale(0.2 -0.2)">
       <defs>
        <path id="DejaVuSans-32" d="M 1228 531 
L 3431 531 
L 3431 0 
L 469 0 
L 469 531 
Q 828 903 1448 1529 
Q 2069 2156 2228 2338 
Q 2531 2678 2651 2914 
Q 2772 3150 2772 3378 
Q 2772 3750 2511 3984 
Q 2250 4219 1831 4219 
Q 1534 4219 1204 4116 
Q 875 4013 500 3803 
L 500 4441 
Q 881 4594 1212 4672 
Q 1544 4750 1819 4750 
Q 2544 4750 2975 4387 
Q 3406 4025 3406 3419 
Q 3406 3131 3298 2873 
Q 3191 2616 2906 2266 
Q 2828 2175 2409 1742 
Q 1991 1309 1228 531 
z
" transform="scale(0.015625)"/>
       </defs>
       <use xlink:href="#DejaVuSans-32"/>
       <use xlink:href="#DejaVuSans-30" x="63.623047"/>
       <use xlink:href="#DejaVuSans-30" x="127.246094"/>
      </g>
     </g>
    </g>
    <g id="xtick_4">
     <g id="line2d_4">
      <g>
       <use xlink:href="#m33bccdba75" x="349.040027" y="416.476875" style="stroke: #000000; stroke-width: 0.8"/>
      </g>
     </g>
     <g id="text_4">
      <!-- 300 -->
      <g transform="translate(329.952527 438.67375) scale(0.2 -0.2)">
       <defs>
        <path id="DejaVuSans-33" d="M 2597 2516 
Q 3050 2419 3304 2112 
Q 3559 1806 3559 1356 
Q 3559 666 3084 287 
Q 2609 -91 1734 -91 
Q 1441 -91 1130 -33 
Q 819 25 488 141 
L 488 750 
Q 750 597 1062 519 
Q 1375 441 1716 441 
Q 2309 441 2620 675 
Q 2931 909 2931 1356 
Q 2931 1769 2642 2001 
Q 2353 2234 1838 2234 
L 1294 2234 
L 1294 2753 
L 1863 2753 
Q 2328 2753 2575 2939 
Q 2822 3125 2822 3475 
Q 2822 3834 2567 4026 
Q 2313 4219 1838 4219 
Q 1578 4219 1281 4162 
Q 984 4106 628 3988 
L 628 4550 
Q 988 4650 1302 4700 
Q 1616 4750 1894 4750 
Q 2613 4750 3031 4423 
Q 3450 4097 3450 3541 
Q 3450 3153 3228 2886 
Q 3006 2619 2597 2516 
z
" transform="scale(0.015625)"/>
       </defs>
       <use xlink:href="#DejaVuSans-33"/>
       <use xlink:href="#DejaVuSans-30" x="63.623047"/>
       <use xlink:href="#DejaVuSans-30" x="127.246094"/>
      </g>
     </g>
    </g>
    <g id="xtick_5">
     <g id="line2d_5">
      <g>
       <use xlink:href="#m33bccdba75" x="426.604664" y="416.476875" style="stroke: #000000; stroke-width: 0.8"/>
      </g>
     </g>
     <g id="text_5">
      <!-- 400 -->
      <g transform="translate(407.517164 438.67375) scale(0.2 -0.2)">
       <defs>
        <path id="DejaVuSans-34" d="M 2419 4116 
L 825 1625 
L 2419 1625 
L 2419 4116 
z
M 2253 4666 
L 3047 4666 
L 3047 1625 
L 3713 1625 
L 3713 1100 
L 3047 1100 
L 3047 0 
L 2419 0 
L 2419 1100 
L 313 1100 
L 313 1709 
L 2253 4666 
z
" transform="scale(0.015625)"/>
       </defs>
       <use xlink:href="#DejaVuSans-34"/>
       <use xlink:href="#DejaVuSans-30" x="63.623047"/>
       <use xlink:href="#DejaVuSans-30" x="127.246094"/>
      </g>
     </g>
    </g>
    <g id="xtick_6">
     <g id="line2d_6">
      <g>
       <use xlink:href="#m33bccdba75" x="504.169301" y="416.476875" style="stroke: #000000; stroke-width: 0.8"/>
      </g>
     </g>
     <g id="text_6">
      <!-- 500 -->
      <g transform="translate(485.081801 438.67375) scale(0.2 -0.2)">
       <defs>
        <path id="DejaVuSans-35" d="M 691 4666 
L 3169 4666 
L 3169 4134 
L 1269 4134 
L 1269 2991 
Q 1406 3038 1543 3061 
Q 1681 3084 1819 3084 
Q 2600 3084 3056 2656 
Q 3513 2228 3513 1497 
Q 3513 744 3044 326 
Q 2575 -91 1722 -91 
Q 1428 -91 1123 -41 
Q 819 9 494 109 
L 494 744 
Q 775 591 1075 516 
Q 1375 441 1709 441 
Q 2250 441 2565 725 
Q 2881 1009 2881 1497 
Q 2881 1984 2565 2268 
Q 2250 2553 1709 2553 
Q 1456 2553 1204 2497 
Q 953 2441 691 2322 
L 691 4666 
z
" transform="scale(0.015625)"/>
       </defs>
       <use xlink:href="#DejaVuSans-35"/>
       <use xlink:href="#DejaVuSans-30" x="63.623047"/>
       <use xlink:href="#DejaVuSans-30" x="127.246094"/>
      </g>
     </g>
    </g>
    <g id="xtick_7">
     <g id="line2d_7">
      <g>
       <use xlink:href="#m33bccdba75" x="581.733938" y="416.476875" style="stroke: #000000; stroke-width: 0.8"/>
      </g>
     </g>
     <g id="text_7">
      <!-- 600 -->
      <g transform="translate(562.646438 438.67375) scale(0.2 -0.2)">
       <defs>
        <path id="DejaVuSans-36" d="M 2113 2584 
Q 1688 2584 1439 2293 
Q 1191 2003 1191 1497 
Q 1191 994 1439 701 
Q 1688 409 2113 409 
Q 2538 409 2786 701 
Q 3034 994 3034 1497 
Q 3034 2003 2786 2293 
Q 2538 2584 2113 2584 
z
M 3366 4563 
L 3366 3988 
Q 3128 4100 2886 4159 
Q 2644 4219 2406 4219 
Q 1781 4219 1451 3797 
Q 1122 3375 1075 2522 
Q 1259 2794 1537 2939 
Q 1816 3084 2150 3084 
Q 2853 3084 3261 2657 
Q 3669 2231 3669 1497 
Q 3669 778 3244 343 
Q 2819 -91 2113 -91 
Q 1303 -91 875 529 
Q 447 1150 447 2328 
Q 447 3434 972 4092 
Q 1497 4750 2381 4750 
Q 2619 4750 2861 4703 
Q 3103 4656 3366 4563 
z
" transform="scale(0.015625)"/>
       </defs>
       <use xlink:href="#DejaVuSans-36"/>
       <use xlink:href="#DejaVuSans-30" x="63.623047"/>
       <use xlink:href="#DejaVuSans-30" x="127.246094"/>
      </g>
     </g>
    </g>
    <g id="text_8">
     <!-- Days since antigen exposure -->
     <g transform="translate(226.337813 462.03) scale(0.2 -0.2)">
      <defs>
       <path id="DejaVuSans-44" d="M 1259 4147 
L 1259 519 
L 2022 519 
Q 2988 519 3436 956 
Q 3884 1394 3884 2338 
Q 3884 3275 3436 3711 
Q 2988 4147 2022 4147 
L 1259 4147 
z
M 628 4666 
L 1925 4666 
Q 3281 4666 3915 4102 
Q 4550 3538 4550 2338 
Q 4550 1131 3912 565 
Q 3275 0 1925 0 
L 628 0 
L 628 4666 
z
" transform="scale(0.015625)"/>
       <path id="DejaVuSans-61" d="M 2194 1759 
Q 1497 1759 1228 1600 
Q 959 1441 959 1056 
Q 959 750 1161 570 
Q 1363 391 1709 391 
Q 2188 391 2477 730 
Q 2766 1069 2766 1631 
L 2766 1759 
L 2194 1759 
z
M 3341 1997 
L 3341 0 
L 2766 0 
L 2766 531 
Q 2569 213 2275 61 
Q 1981 -91 1556 -91 
Q 1019 -91 701 211 
Q 384 513 384 1019 
Q 384 1609 779 1909 
Q 1175 2209 1959 2209 
L 2766 2209 
L 2766 2266 
Q 2766 2663 2505 2880 
Q 2244 3097 1772 3097 
Q 1472 3097 1187 3025 
Q 903 2953 641 2809 
L 641 3341 
Q 956 3463 1253 3523 
Q 1550 3584 1831 3584 
Q 2591 3584 2966 3190 
Q 3341 2797 3341 1997 
z
" transform="scale(0.015625)"/>
       <path id="DejaVuSans-79" d="M 2059 -325 
Q 1816 -950 1584 -1140 
Q 1353 -1331 966 -1331 
L 506 -1331 
L 506 -850 
L 844 -850 
Q 1081 -850 1212 -737 
Q 1344 -625 1503 -206 
L 1606 56 
L 191 3500 
L 800 3500 
L 1894 763 
L 2988 3500 
L 3597 3500 
L 2059 -325 
z
" transform="scale(0.015625)"/>
       <path id="DejaVuSans-73" d="M 2834 3397 
L 2834 2853 
Q 2591 2978 2328 3040 
Q 2066 3103 1784 3103 
Q 1356 3103 1142 2972 
Q 928 2841 928 2578 
Q 928 2378 1081 2264 
Q 1234 2150 1697 2047 
L 1894 2003 
Q 2506 1872 2764 1633 
Q 3022 1394 3022 966 
Q 3022 478 2636 193 
Q 2250 -91 1575 -91 
Q 1294 -91 989 -36 
Q 684 19 347 128 
L 347 722 
Q 666 556 975 473 
Q 1284 391 1588 391 
Q 1994 391 2212 530 
Q 2431 669 2431 922 
Q 2431 1156 2273 1281 
Q 2116 1406 1581 1522 
L 1381 1569 
Q 847 1681 609 1914 
Q 372 2147 372 2553 
Q 372 3047 722 3315 
Q 1072 3584 1716 3584 
Q 2034 3584 2315 3537 
Q 2597 3491 2834 3397 
z
" transform="scale(0.015625)"/>
       <path id="DejaVuSans-20" transform="scale(0.015625)"/>
       <path id="DejaVuSans-69" d="M 603 3500 
L 1178 3500 
L 1178 0 
L 603 0 
L 603 3500 
z
M 603 4863 
L 1178 4863 
L 1178 4134 
L 603 4134 
L 603 4863 
z
" transform="scale(0.015625)"/>
       <path id="DejaVuSans-6e" d="M 3513 2113 
L 3513 0 
L 2938 0 
L 2938 2094 
Q 2938 2591 2744 2837 
Q 2550 3084 2163 3084 
Q 1697 3084 1428 2787 
Q 1159 2491 1159 1978 
L 1159 0 
L 581 0 
L 581 3500 
L 1159 3500 
L 1159 2956 
Q 1366 3272 1645 3428 
Q 1925 3584 2291 3584 
Q 2894 3584 3203 3211 
Q 3513 2838 3513 2113 
z
" transform="scale(0.015625)"/>
       <path id="DejaVuSans-63" d="M 3122 3366 
L 3122 2828 
Q 2878 2963 2633 3030 
Q 2388 3097 2138 3097 
Q 1578 3097 1268 2742 
Q 959 2388 959 1747 
Q 959 1106 1268 751 
Q 1578 397 2138 397 
Q 2388 397 2633 464 
Q 2878 531 3122 666 
L 3122 134 
Q 2881 22 2623 -34 
Q 2366 -91 2075 -91 
Q 1284 -91 818 406 
Q 353 903 353 1747 
Q 353 2603 823 3093 
Q 1294 3584 2113 3584 
Q 2378 3584 2631 3529 
Q 2884 3475 3122 3366 
z
" transform="scale(0.015625)"/>
       <path id="DejaVuSans-65" d="M 3597 1894 
L 3597 1613 
L 953 1613 
Q 991 1019 1311 708 
Q 1631 397 2203 397 
Q 2534 397 2845 478 
Q 3156 559 3463 722 
L 3463 178 
Q 3153 47 2828 -22 
Q 2503 -91 2169 -91 
Q 1331 -91 842 396 
Q 353 884 353 1716 
Q 353 2575 817 3079 
Q 1281 3584 2069 3584 
Q 2775 3584 3186 3129 
Q 3597 2675 3597 1894 
z
M 3022 2063 
Q 3016 2534 2758 2815 
Q 2500 3097 2075 3097 
Q 1594 3097 1305 2825 
Q 1016 2553 972 2059 
L 3022 2063 
z
" transform="scale(0.015625)"/>
       <path id="DejaVuSans-74" d="M 1172 4494 
L 1172 3500 
L 2356 3500 
L 2356 3053 
L 1172 3053 
L 1172 1153 
Q 1172 725 1289 603 
Q 1406 481 1766 481 
L 2356 481 
L 2356 0 
L 1766 0 
Q 1100 0 847 248 
Q 594 497 594 1153 
L 594 3053 
L 172 3053 
L 172 3500 
L 594 3500 
L 594 4494 
L 1172 4494 
z
" transform="scale(0.015625)"/>
       <path id="DejaVuSans-67" d="M 2906 1791 
Q 2906 2416 2648 2759 
Q 2391 3103 1925 3103 
Q 1463 3103 1205 2759 
Q 947 2416 947 1791 
Q 947 1169 1205 825 
Q 1463 481 1925 481 
Q 2391 481 2648 825 
Q 2906 1169 2906 1791 
z
M 3481 434 
Q 3481 -459 3084 -895 
Q 2688 -1331 1869 -1331 
Q 1566 -1331 1297 -1286 
Q 1028 -1241 775 -1147 
L 775 -588 
Q 1028 -725 1275 -790 
Q 1522 -856 1778 -856 
Q 2344 -856 2625 -561 
Q 2906 -266 2906 331 
L 2906 616 
Q 2728 306 2450 153 
Q 2172 0 1784 0 
Q 1141 0 747 490 
Q 353 981 353 1791 
Q 353 2603 747 3093 
Q 1141 3584 1784 3584 
Q 2172 3584 2450 3431 
Q 2728 3278 2906 2969 
L 2906 3500 
L 3481 3500 
L 3481 434 
z
" transform="scale(0.015625)"/>
       <path id="DejaVuSans-78" d="M 3513 3500 
L 2247 1797 
L 3578 0 
L 2900 0 
L 1881 1375 
L 863 0 
L 184 0 
L 1544 1831 
L 300 3500 
L 978 3500 
L 1906 2253 
L 2834 3500 
L 3513 3500 
z
" transform="scale(0.015625)"/>
       <path id="DejaVuSans-70" d="M 1159 525 
L 1159 -1331 
L 581 -1331 
L 581 3500 
L 1159 3500 
L 1159 2969 
Q 1341 3281 1617 3432 
Q 1894 3584 2278 3584 
Q 2916 3584 3314 3078 
Q 3713 2572 3713 1747 
Q 3713 922 3314 415 
Q 2916 -91 2278 -91 
Q 1894 -91 1617 61 
Q 1341 213 1159 525 
z
M 3116 1747 
Q 3116 2381 2855 2742 
Q 2594 3103 2138 3103 
Q 1681 3103 1420 2742 
Q 1159 2381 1159 1747 
Q 1159 1113 1420 752 
Q 1681 391 2138 391 
Q 2594 391 2855 752 
Q 3116 1113 3116 1747 
z
" transform="scale(0.015625)"/>
       <path id="DejaVuSans-6f" d="M 1959 3097 
Q 1497 3097 1228 2736 
Q 959 2375 959 1747 
Q 959 1119 1226 758 
Q 1494 397 1959 397 
Q 2419 397 2687 759 
Q 2956 1122 2956 1747 
Q 2956 2369 2687 2733 
Q 2419 3097 1959 3097 
z
M 1959 3584 
Q 2709 3584 3137 3096 
Q 3566 2609 3566 1747 
Q 3566 888 3137 398 
Q 2709 -91 1959 -91 
Q 1206 -91 779 398 
Q 353 888 353 1747 
Q 353 2609 779 3096 
Q 1206 3584 1959 3584 
z
" transform="scale(0.015625)"/>
       <path id="DejaVuSans-75" d="M 544 1381 
L 544 3500 
L 1119 3500 
L 1119 1403 
Q 1119 906 1312 657 
Q 1506 409 1894 409 
Q 2359 409 2629 706 
Q 2900 1003 2900 1516 
L 2900 3500 
L 3475 3500 
L 3475 0 
L 2900 0 
L 2900 538 
Q 2691 219 2414 64 
Q 2138 -91 1772 -91 
Q 1169 -91 856 284 
Q 544 659 544 1381 
z
M 1991 3584 
L 1991 3584 
z
" transform="scale(0.015625)"/>
       <path id="DejaVuSans-72" d="M 2631 2963 
Q 2534 3019 2420 3045 
Q 2306 3072 2169 3072 
Q 1681 3072 1420 2755 
Q 1159 2438 1159 1844 
L 1159 0 
L 581 0 
L 581 3500 
L 1159 3500 
L 1159 2956 
Q 1341 3275 1631 3429 
Q 1922 3584 2338 3584 
Q 2397 3584 2469 3576 
Q 2541 3569 2628 3553 
L 2631 2963 
z
" transform="scale(0.015625)"/>
      </defs>
      <use xlink:href="#DejaVuSans-44"/>
      <use xlink:href="#DejaVuSans-61" x="77.001953"/>
      <use xlink:href="#DejaVuSans-79" x="138.28125"/>
      <use xlink:href="#DejaVuSans-73" x="197.460938"/>
      <use xlink:href="#DejaVuSans-20" x="249.560547"/>
      <use xlink:href="#DejaVuSans-73" x="281.347656"/>
      <use xlink:href="#DejaVuSans-69" x="333.447266"/>
      <use xlink:href="#DejaVuSans-6e" x="361.230469"/>
      <use xlink:href="#DejaVuSans-63" x="424.609375"/>
      <use xlink:href="#DejaVuSans-65" x="479.589844"/>
      <use xlink:href="#DejaVuSans-20" x="541.113281"/>
      <use xlink:href="#DejaVuSans-61" x="572.900391"/>
      <use xlink:href="#DejaVuSans-6e" x="634.179688"/>
      <use xlink:href="#DejaVuSans-74" x="697.558594"/>
      <use xlink:href="#DejaVuSans-69" x="736.767578"/>
      <use xlink:href="#DejaVuSans-67" x="764.550781"/>
      <use xlink:href="#DejaVuSans-65" x="828.027344"/>
      <use xlink:href="#DejaVuSans-6e" x="889.550781"/>
      <use xlink:href="#DejaVuSans-20" x="952.929688"/>
      <use xlink:href="#DejaVuSans-65" x="984.716797"/>
      <use xlink:href="#DejaVuSans-78" x="1044.490234"/>
      <use xlink:href="#DejaVuSans-70" x="1103.669922"/>
      <use xlink:href="#DejaVuSans-6f" x="1167.146484"/>
      <use xlink:href="#DejaVuSans-73" x="1228.328125"/>
      <use xlink:href="#DejaVuSans-75" x="1280.427734"/>
      <use xlink:href="#DejaVuSans-72" x="1343.806641"/>
      <use xlink:href="#DejaVuSans-65" x="1382.669922"/>
     </g>
    </g>
   </g>
   <g id="matplotlib.axis_2">
    <g id="ytick_1">
     <g id="line2d_8">
      <defs>
       <path id="mff7a70ebd7" d="M 0 0 
L -3.5 0 
" style="stroke: #000000; stroke-width: 0.8"/>
      </defs>
      <g>
       <use xlink:href="#mff7a70ebd7" x="91.758125" y="383.970733" style="stroke: #000000; stroke-width: 0.8"/>
      </g>
     </g>
     <g id="text_9">
      <!-- 0.0 -->
      <g transform="translate(52.951875 391.569171) scale(0.2 -0.2)">
       <defs>
        <path id="DejaVuSans-2e" d="M 684 794 
L 1344 794 
L 1344 0 
L 684 0 
L 684 794 
z
" transform="scale(0.015625)"/>
       </defs>
       <use xlink:href="#DejaVuSans-30"/>
       <use xlink:href="#DejaVuSans-2e" x="63.623047"/>
       <use xlink:href="#DejaVuSans-30" x="95.410156"/>
      </g>
     </g>
    </g>
    <g id="ytick_2">
     <g id="line2d_9">
      <g>
       <use xlink:href="#mff7a70ebd7" x="91.758125" y="318.958449" style="stroke: #000000; stroke-width: 0.8"/>
      </g>
     </g>
     <g id="text_10">
      <!-- 0.2 -->
      <g transform="translate(52.951875 326.556887) scale(0.2 -0.2)">
       <use xlink:href="#DejaVuSans-30"/>
       <use xlink:href="#DejaVuSans-2e" x="63.623047"/>
       <use xlink:href="#DejaVuSans-32" x="95.410156"/>
      </g>
     </g>
    </g>
    <g id="ytick_3">
     <g id="line2d_10">
      <g>
       <use xlink:href="#mff7a70ebd7" x="91.758125" y="253.946165" style="stroke: #000000; stroke-width: 0.8"/>
      </g>
     </g>
     <g id="text_11">
      <!-- 0.4 -->
      <g transform="translate(52.951875 261.544603) scale(0.2 -0.2)">
       <use xlink:href="#DejaVuSans-30"/>
       <use xlink:href="#DejaVuSans-2e" x="63.623047"/>
       <use xlink:href="#DejaVuSans-34" x="95.410156"/>
      </g>
     </g>
    </g>
    <g id="ytick_4">
     <g id="line2d_11">
      <g>
       <use xlink:href="#mff7a70ebd7" x="91.758125" y="188.933881" style="stroke: #000000; stroke-width: 0.8"/>
      </g>
     </g>
     <g id="text_12">
      <!-- 0.6 -->
      <g transform="translate(52.951875 196.532319) scale(0.2 -0.2)">
       <use xlink:href="#DejaVuSans-30"/>
       <use xlink:href="#DejaVuSans-2e" x="63.623047"/>
       <use xlink:href="#DejaVuSans-36" x="95.410156"/>
      </g>
     </g>
    </g>
    <g id="ytick_5">
     <g id="line2d_12">
      <g>
       <use xlink:href="#mff7a70ebd7" x="91.758125" y="123.921598" style="stroke: #000000; stroke-width: 0.8"/>
      </g>
     </g>
     <g id="text_13">
      <!-- 0.8 -->
      <g transform="translate(52.951875 131.520035) scale(0.2 -0.2)">
       <defs>
        <path id="DejaVuSans-38" d="M 2034 2216 
Q 1584 2216 1326 1975 
Q 1069 1734 1069 1313 
Q 1069 891 1326 650 
Q 1584 409 2034 409 
Q 2484 409 2743 651 
Q 3003 894 3003 1313 
Q 3003 1734 2745 1975 
Q 2488 2216 2034 2216 
z
M 1403 2484 
Q 997 2584 770 2862 
Q 544 3141 544 3541 
Q 544 4100 942 4425 
Q 1341 4750 2034 4750 
Q 2731 4750 3128 4425 
Q 3525 4100 3525 3541 
Q 3525 3141 3298 2862 
Q 3072 2584 2669 2484 
Q 3125 2378 3379 2068 
Q 3634 1759 3634 1313 
Q 3634 634 3220 271 
Q 2806 -91 2034 -91 
Q 1263 -91 848 271 
Q 434 634 434 1313 
Q 434 1759 690 2068 
Q 947 2378 1403 2484 
z
M 1172 3481 
Q 1172 3119 1398 2916 
Q 1625 2713 2034 2713 
Q 2441 2713 2670 2916 
Q 2900 3119 2900 3481 
Q 2900 3844 2670 4047 
Q 2441 4250 2034 4250 
Q 1625 4250 1398 4047 
Q 1172 3844 1172 3481 
z
" transform="scale(0.015625)"/>
       </defs>
       <use xlink:href="#DejaVuSans-30"/>
       <use xlink:href="#DejaVuSans-2e" x="63.623047"/>
       <use xlink:href="#DejaVuSans-38" x="95.410156"/>
      </g>
     </g>
    </g>
    <g id="ytick_6">
     <g id="line2d_13">
      <g>
       <use xlink:href="#mff7a70ebd7" x="91.758125" y="58.909314" style="stroke: #000000; stroke-width: 0.8"/>
      </g>
     </g>
     <g id="text_14">
      <!-- 1.0 -->
      <g transform="translate(52.951875 66.507751) scale(0.2 -0.2)">
       <use xlink:href="#DejaVuSans-31"/>
       <use xlink:href="#DejaVuSans-2e" x="63.623047"/>
       <use xlink:href="#DejaVuSans-30" x="95.410156"/>
      </g>
     </g>
    </g>
    <g id="text_15">
     <!-- Virus neutralization -->
     <g transform="translate(22.396875 319.741562) rotate(-90) scale(0.2 -0.2)">
      <defs>
       <path id="DejaVuSans-56" d="M 1831 0 
L 50 4666 
L 709 4666 
L 2188 738 
L 3669 4666 
L 4325 4666 
L 2547 0 
L 1831 0 
z
" transform="scale(0.015625)"/>
       <path id="DejaVuSans-6c" d="M 603 4863 
L 1178 4863 
L 1178 0 
L 603 0 
L 603 4863 
z
" transform="scale(0.015625)"/>
       <path id="DejaVuSans-7a" d="M 353 3500 
L 3084 3500 
L 3084 2975 
L 922 459 
L 3084 459 
L 3084 0 
L 275 0 
L 275 525 
L 2438 3041 
L 353 3041 
L 353 3500 
z
" transform="scale(0.015625)"/>
      </defs>
      <use xlink:href="#DejaVuSans-56"/>
      <use xlink:href="#DejaVuSans-69" x="66.158203"/>
      <use xlink:href="#DejaVuSans-72" x="93.941406"/>
      <use xlink:href="#DejaVuSans-75" x="135.054688"/>
      <use xlink:href="#DejaVuSans-73" x="198.433594"/>
      <use xlink:href="#DejaVuSans-20" x="250.533203"/>
      <use xlink:href="#DejaVuSans-6e" x="282.320312"/>
      <use xlink:href="#DejaVuSans-65" x="345.699219"/>
      <use xlink:href="#DejaVuSans-75" x="407.222656"/>
      <use xlink:href="#DejaVuSans-74" x="470.601562"/>
      <use xlink:href="#DejaVuSans-72" x="509.810547"/>
      <use xlink:href="#DejaVuSans-61" x="550.923828"/>
      <use xlink:href="#DejaVuSans-6c" x="612.203125"/>
      <use xlink:href="#DejaVuSans-69" x="639.986328"/>
      <use xlink:href="#DejaVuSans-7a" x="667.769531"/>
      <use xlink:href="#DejaVuSans-61" x="720.259766"/>
      <use xlink:href="#DejaVuSans-74" x="781.539062"/>
      <use xlink:href="#DejaVuSans-69" x="820.748047"/>
      <use xlink:href="#DejaVuSans-6f" x="848.53125"/>
      <use xlink:href="#DejaVuSans-6e" x="909.712891"/>
     </g>
     <!--  probability -->
     <g transform="translate(44.7925 278.966562) rotate(-90) scale(0.2 -0.2)">
      <defs>
       <path id="DejaVuSans-62" d="M 3116 1747 
Q 3116 2381 2855 2742 
Q 2594 3103 2138 3103 
Q 1681 3103 1420 2742 
Q 1159 2381 1159 1747 
Q 1159 1113 1420 752 
Q 1681 391 2138 391 
Q 2594 391 2855 752 
Q 3116 1113 3116 1747 
z
M 1159 2969 
Q 1341 3281 1617 3432 
Q 1894 3584 2278 3584 
Q 2916 3584 3314 3078 
Q 3713 2572 3713 1747 
Q 3713 922 3314 415 
Q 2916 -91 2278 -91 
Q 1894 -91 1617 61 
Q 1341 213 1159 525 
L 1159 0 
L 581 0 
L 581 4863 
L 1159 4863 
L 1159 2969 
z
" transform="scale(0.015625)"/>
      </defs>
      <use xlink:href="#DejaVuSans-20"/>
      <use xlink:href="#DejaVuSans-70" x="31.787109"/>
      <use xlink:href="#DejaVuSans-72" x="95.263672"/>
      <use xlink:href="#DejaVuSans-6f" x="134.126953"/>
      <use xlink:href="#DejaVuSans-62" x="195.308594"/>
      <use xlink:href="#DejaVuSans-61" x="258.785156"/>
      <use xlink:href="#DejaVuSans-62" x="320.064453"/>
      <use xlink:href="#DejaVuSans-69" x="383.541016"/>
      <use xlink:href="#DejaVuSans-6c" x="411.324219"/>
      <use xlink:href="#DejaVuSans-69" x="439.107422"/>
      <use xlink:href="#DejaVuSans-74" x="466.890625"/>
      <use xlink:href="#DejaVuSans-79" x="506.099609"/>
     </g>
    </g>
   </g>
   <g id="patch_3">
    <path d="M 91.758125 416.476875 
L 91.758125 28.396875 
" style="fill: none; stroke: #000000; stroke-width: 0.8; stroke-linejoin: miter; stroke-linecap: square"/>
   </g>
   <g id="patch_4">
    <path d="M 649.758125 416.476875 
L 649.758125 28.396875 
" style="fill: none; stroke: #000000; stroke-width: 0.8; stroke-linejoin: miter; stroke-linecap: square"/>
   </g>
   <g id="patch_5">
    <path d="M 91.758125 416.476875 
L 649.758125 416.476875 
" style="fill: none; stroke: #000000; stroke-width: 0.8; stroke-linejoin: miter; stroke-linecap: square"/>
   </g>
   <g id="patch_6">
    <path d="M 91.758125 28.396875 
L 649.758125 28.396875 
" style="fill: none; stroke: #000000; stroke-width: 0.8; stroke-linejoin: miter; stroke-linecap: square"/>
   </g>
   <g id="text_16">
    <!-- B303000 antigen -->
    <g transform="translate(284.540937 22.396875) scale(0.2 -0.2)">
     <defs>
      <path id="DejaVuSans-42" d="M 1259 2228 
L 1259 519 
L 2272 519 
Q 2781 519 3026 730 
Q 3272 941 3272 1375 
Q 3272 1813 3026 2020 
Q 2781 2228 2272 2228 
L 1259 2228 
z
M 1259 4147 
L 1259 2741 
L 2194 2741 
Q 2656 2741 2882 2914 
Q 3109 3088 3109 3444 
Q 3109 3797 2882 3972 
Q 2656 4147 2194 4147 
L 1259 4147 
z
M 628 4666 
L 2241 4666 
Q 2963 4666 3353 4366 
Q 3744 4066 3744 3513 
Q 3744 3084 3544 2831 
Q 3344 2578 2956 2516 
Q 3422 2416 3680 2098 
Q 3938 1781 3938 1306 
Q 3938 681 3513 340 
Q 3088 0 2303 0 
L 628 0 
L 628 4666 
z
" transform="scale(0.015625)"/>
     </defs>
     <use xlink:href="#DejaVuSans-42"/>
     <use xlink:href="#DejaVuSans-33" x="68.603516"/>
     <use xlink:href="#DejaVuSans-30" x="132.226562"/>
     <use xlink:href="#DejaVuSans-33" x="195.849609"/>
     <use xlink:href="#DejaVuSans-30" x="259.472656"/>
     <use xlink:href="#DejaVuSans-30" x="323.095703"/>
     <use xlink:href="#DejaVuSans-30" x="386.71875"/>
     <use xlink:href="#DejaVuSans-20" x="450.341797"/>
     <use xlink:href="#DejaVuSans-61" x="482.128906"/>
     <use xlink:href="#DejaVuSans-6e" x="543.408203"/>
     <use xlink:href="#DejaVuSans-74" x="606.787109"/>
     <use xlink:href="#DejaVuSans-69" x="645.996094"/>
     <use xlink:href="#DejaVuSans-67" x="673.779297"/>
     <use xlink:href="#DejaVuSans-65" x="737.255859"/>
     <use xlink:href="#DejaVuSans-6e" x="798.779297"/>
    </g>
   </g>
   <g id="legend_1">
    <g id="patch_7">
     <path d="M 235.258125 532.900875 
L 345.3925 532.900875 
Q 349.3925 532.900875 349.3925 528.900875 
L 349.3925 501.544625 
Q 349.3925 497.544625 345.3925 497.544625 
L 235.258125 497.544625 
Q 231.258125 497.544625 231.258125 501.544625 
L 231.258125 528.900875 
Q 231.258125 532.900875 235.258125 532.900875 
z
" style="fill: #ffffff; opacity: 0.8; stroke: #cccccc; stroke-linejoin: miter"/>
    </g>
    <g id="patch_8">
     <path d="M 239.258125 520.7415 
L 279.258125 520.7415 
L 279.258125 506.7415 
L 239.258125 506.7415 
z
" style="fill: #ffa500; fill-opacity: 0.3; stroke: #ffa500; stroke-opacity: 0.3; stroke-linejoin: miter"/>
    </g>
    <g id="text_17">
     <!-- BA.2 -->
     <g transform="translate(295.258125 520.7415) scale(0.2 -0.2)">
      <defs>
       <path id="DejaVuSans-41" d="M 2188 4044 
L 1331 1722 
L 3047 1722 
L 2188 4044 
z
M 1831 4666 
L 2547 4666 
L 4325 0 
L 3669 0 
L 3244 1197 
L 1141 1197 
L 716 0 
L 50 0 
L 1831 4666 
z
" transform="scale(0.015625)"/>
      </defs>
      <use xlink:href="#DejaVuSans-42"/>
      <use xlink:href="#DejaVuSans-41" x="68.603516"/>
      <use xlink:href="#DejaVuSans-2e" x="135.261719"/>
      <use xlink:href="#DejaVuSans-32" x="167.048828"/>
     </g>
    </g>
   </g>
  </g>
 </g>
 <defs>
  <clipPath id="p169b8a3a42">
   <rect x="91.758125" y="28.396875" width="558" height="388.08"/>
  </clipPath>
 </defs>
</svg>
