<?xml version="1.0" encoding="utf-8" standalone="no"?>
<!DOCTYPE svg PUBLIC "-//W3C//DTD SVG 1.1//EN"
  "http://www.w3.org/Graphics/SVG/1.1/DTD/svg11.dtd">
<svg xmlns:xlink="http://www.w3.org/1999/xlink" width="686.4425pt" height="540.100875pt" viewBox="0 0 686.4425 540.100875" xmlns="http://www.w3.org/2000/svg" version="1.1">
 <metadata>
  <rdf:RDF xmlns:dc="http://purl.org/dc/elements/1.1/" xmlns:cc="http://creativecommons.org/ns#" xmlns:rdf="http://www.w3.org/1999/02/22-rdf-syntax-ns#">
   <cc:Work>
    <dc:type rdf:resource="http://purl.org/dc/dcmitype/StillImage"/>
    <dc:date>2024-04-23T19:29:26.194383</dc:date>
    <dc:format>image/svg+xml</dc:format>
    <dc:creator>
     <cc:Agent>
      <dc:title>Matplotlib v3.8.4, https://matplotlib.org/</dc:title>
     </cc:Agent>
    </dc:creator>
   </cc:Work>
  </rdf:RDF>
 </metadata>
 <defs>
  <style type="text/css">*{stroke-linejoin: round; stroke-linecap: butt}</style>
 </defs>
 <g id="figure_1">
  <g id="patch_1">
   <path d="M 0 540.100875 
L 686.4425 540.100875 
L 686.4425 0 
L 0 0 
z
" style="fill: #ffffff"/>
  </g>
  <g id="axes_1">
   <g id="patch_2">
    <path d="M 121.2425 416.476875 
L 679.2425 416.476875 
L 679.2425 28.396875 
L 121.2425 28.396875 
z
" style="fill: #ffffff"/>
   </g>
   <g id="PolyCollection_1">
    <defs>
     <path id="m700236b7ac" d="M 146.606136 -291.575248 
L 146.606136 -245.835184 
L 147.381783 -273.81747 
L 148.157429 -298.689661 
L 148.933075 -320.843643 
L 149.708722 -340.609419 
L 150.484368 -358.266687 
L 151.260015 -374.053945 
L 152.035661 -388.175713 
L 152.811307 -400.808303 
L 153.586954 -412.104479 
L 154.3626 -422.197218 
L 155.138246 -431.202802 
L 155.913893 -439.223338 
L 156.689539 -446.348859 
L 157.465186 -452.659051 
L 158.240832 -458.224709 
L 159.016478 -463.108953 
L 159.792125 -467.368247 
L 160.567771 -471.053275 
L 161.343417 -473.373536 
L 162.119064 -470.023446 
L 162.89471 -466.425816 
L 163.670357 -462.625256 
L 164.446003 -458.660223 
L 165.221649 -454.563925 
L 165.997296 -450.365077 
L 166.772942 -446.08853 
L 167.548588 -441.755805 
L 168.324235 -437.385541 
L 169.099881 -432.993878 
L 169.875528 -428.594784 
L 170.651174 -424.200336 
L 171.42682 -419.820963 
L 172.202467 -415.465654 
L 172.978113 -411.142137 
L 173.753759 -406.85704 
L 174.529406 -402.616024 
L 175.305052 -398.423906 
L 176.080698 -394.284759 
L 176.856345 -390.202007 
L 177.631991 -386.1785 
L 178.407638 -382.216589 
L 179.183284 -378.318184 
L 179.95893 -374.484809 
L 180.734577 -370.71765 
L 181.510223 -367.017594 
L 182.285869 -363.385267 
L 183.061516 -359.821069 
L 183.837162 -356.325197 
L 184.612809 -352.897674 
L 185.388455 -349.538371 
L 186.164101 -346.247024 
L 186.939748 -343.023251 
L 187.715394 -339.866574 
L 188.49104 -336.77642 
L 189.266687 -333.752146 
L 190.042333 -330.793041 
L 190.81798 -327.898336 
L 191.593626 -325.067217 
L 192.369272 -322.298827 
L 193.144919 -319.592277 
L 193.920565 -316.946646 
L 194.696211 -314.360991 
L 195.471858 -311.834351 
L 196.247504 -309.365749 
L 197.023151 -306.954194 
L 197.798797 -304.598692 
L 198.574443 -302.298237 
L 199.35009 -300.051825 
L 200.125736 -297.858447 
L 200.901382 -295.717098 
L 201.677029 -293.626774 
L 202.452675 -291.586476 
L 203.228322 -289.595209 
L 204.003968 -287.651988 
L 204.779614 -285.755832 
L 205.555261 -283.905771 
L 206.330907 -282.100844 
L 207.106553 -280.340102 
L 207.8822 -278.622603 
L 208.657846 -276.947422 
L 209.433492 -275.313641 
L 210.209139 -273.720357 
L 210.984785 -272.166679 
L 211.760432 -270.651731 
L 212.536078 -269.174646 
L 213.311724 -267.734575 
L 214.087371 -266.330681 
L 214.863017 -264.962141 
L 215.638663 -263.628144 
L 216.41431 -262.327896 
L 217.189956 -261.060616 
L 217.965603 -259.825537 
L 218.741249 -258.621905 
L 219.516895 -257.448982 
L 220.292542 -256.306042 
L 221.068188 -255.192374 
L 221.843834 -254.107281 
L 222.619481 -253.05008 
L 223.395127 -252.020101 
L 224.170774 -251.016686 
L 224.94642 -250.039194 
L 225.722066 -249.086995 
L 226.497713 -248.159472 
L 227.273359 -247.256021 
L 228.049005 -246.376052 
L 228.824652 -245.518988 
L 229.600298 -244.684261 
L 230.375945 -243.871319 
L 231.151591 -243.079621 
L 231.927237 -242.308638 
L 232.702884 -241.557853 
L 233.47853 -240.826759 
L 234.254176 -240.114862 
L 235.029823 -239.421679 
L 235.805469 -238.746739 
L 236.581116 -238.089579 
L 237.356762 -237.449749 
L 238.132408 -236.82681 
L 238.908055 -236.22033 
L 239.683701 -235.629891 
L 240.459347 -235.055083 
L 241.234994 -234.495505 
L 242.01064 -233.950766 
L 242.786286 -233.420486 
L 243.561933 -232.904292 
L 244.337579 -232.401821 
L 245.113226 -231.912718 
L 245.888872 -231.436638 
L 246.664518 -230.973243 
L 247.440165 -230.522204 
L 248.215811 -230.0832 
L 248.991457 -229.655918 
L 249.767104 -229.240051 
L 250.54275 -228.835303 
L 251.318397 -228.441383 
L 252.094043 -228.058007 
L 252.869689 -227.684899 
L 253.645336 -227.32179 
L 254.420982 -226.968417 
L 255.196628 -226.624524 
L 255.972275 -226.289862 
L 256.747921 -225.964188 
L 257.523568 -225.647264 
L 258.299214 -225.33886 
L 259.07486 -225.03875 
L 259.850507 -224.746716 
L 260.626153 -224.462542 
L 261.401799 -224.186021 
L 262.177446 -223.916951 
L 262.953092 -223.655132 
L 263.728739 -223.400373 
L 264.504385 -223.152486 
L 265.280031 -222.911288 
L 266.055678 -222.6766 
L 266.831324 -222.44825 
L 267.60697 -222.226069 
L 268.382617 -222.009891 
L 269.158263 -221.799556 
L 269.93391 -221.594908 
L 270.709556 -221.395796 
L 271.485202 -221.202071 
L 272.260849 -221.013589 
L 273.036495 -220.830209 
L 273.812141 -220.651795 
L 274.587788 -220.478213 
L 275.363434 -220.309334 
L 276.13908 -220.145032 
L 276.914727 -219.985183 
L 277.690373 -219.829668 
L 278.46602 -219.678371 
L 279.241666 -219.531178 
L 280.017312 -219.387978 
L 280.792959 -219.248664 
L 281.568605 -219.113132 
L 282.344251 -218.981279 
L 283.119898 -218.853007 
L 283.895544 -218.728218 
L 284.671191 -218.606819 
L 285.446837 -218.488718 
L 286.222483 -218.373827 
L 286.99813 -218.262058 
L 287.773776 -218.153327 
L 288.549422 -218.047553 
L 289.325069 -217.944654 
L 290.100715 -217.844555 
L 290.876362 -217.747177 
L 291.652008 -217.652449 
L 292.427654 -217.560298 
L 293.203301 -217.470655 
L 293.978947 -217.383452 
L 294.754593 -217.298622 
L 295.53024 -217.216101 
L 296.305886 -217.135827 
L 297.081533 -217.057739 
L 297.857179 -216.981777 
L 298.632825 -216.907884 
L 299.408472 -216.836004 
L 300.184118 -216.766081 
L 300.959764 -216.698064 
L 301.735411 -216.6319 
L 302.511057 -216.567539 
L 303.286704 -216.504932 
L 304.06235 -216.444031 
L 304.837996 -216.38479 
L 305.613643 -216.327165 
L 306.389289 -216.27111 
L 307.164935 -216.216583 
L 307.940582 -216.163543 
L 308.716228 -216.111949 
L 309.491874 -216.061763 
L 310.267521 -216.012945 
L 311.043167 -215.965458 
L 311.818814 -215.919267 
L 312.59446 -215.874336 
L 313.370106 -215.830631 
L 314.145753 -215.788117 
L 314.921399 -215.746764 
L 315.697045 -215.706539 
L 316.472692 -215.667412 
L 317.248338 -215.629353 
L 318.023985 -215.592332 
L 318.799631 -215.556321 
L 319.575277 -215.521294 
L 320.350924 -215.487222 
L 321.12657 -215.454081 
L 321.902216 -215.421844 
L 322.677863 -215.390487 
L 323.453509 -215.359986 
L 324.229156 -215.330318 
L 325.004802 -215.30146 
L 325.780448 -215.273389 
L 326.556095 -215.246085 
L 327.331741 -215.219527 
L 328.107387 -215.193694 
L 328.883034 -215.168567 
L 329.65868 -215.144125 
L 330.434327 -215.120351 
L 331.209973 -215.097227 
L 331.985619 -215.074734 
L 332.761266 -215.052855 
L 333.536912 -215.031574 
L 334.312558 -215.010874 
L 335.088205 -214.99074 
L 335.863851 -214.971155 
L 336.639497 -214.952106 
L 337.415144 -214.933577 
L 338.19079 -214.915554 
L 338.966437 -214.898023 
L 339.742083 -214.880972 
L 340.517729 -214.864386 
L 341.293376 -214.848253 
L 342.069022 -214.832562 
L 342.844668 -214.817299 
L 343.620315 -214.802453 
L 344.395961 -214.788012 
L 345.171608 -214.773966 
L 345.947254 -214.760304 
L 346.7229 -214.747016 
L 347.498547 -214.73409 
L 348.274193 -214.721518 
L 349.049839 -214.709289 
L 349.825486 -214.697394 
L 350.601132 -214.685825 
L 351.376779 -214.674571 
L 352.152425 -214.663625 
L 352.928071 -214.652979 
L 353.703718 -214.642623 
L 354.479364 -214.63255 
L 355.25501 -214.622753 
L 356.030657 -214.613223 
L 356.806303 -214.603954 
L 357.58195 -214.594938 
L 358.357596 -214.586169 
L 359.133242 -214.577639 
L 359.908889 -214.569342 
L 360.684535 -214.561273 
L 361.460181 -214.553423 
L 362.235828 -214.545789 
L 363.011474 -214.538363 
L 363.787121 -214.53114 
L 364.562767 -214.524114 
L 365.338413 -214.51728 
L 366.11406 -214.510634 
L 366.889706 -214.504169 
L 367.665352 -214.49788 
L 368.440999 -214.491764 
L 369.216645 -214.485815 
L 369.992291 -214.480028 
L 370.767938 -214.4744 
L 371.543584 -214.468925 
L 372.319231 -214.4636 
L 373.094877 -214.458421 
L 373.870523 -214.453383 
L 374.64617 -214.448483 
L 375.421816 -214.443717 
L 376.197462 -214.439081 
L 376.973109 -214.434572 
L 377.748755 -214.430186 
L 378.524402 -214.425921 
L 379.300048 -214.421771 
L 380.075694 -214.417736 
L 380.851341 -214.41381 
L 381.626987 -214.409992 
L 382.402633 -214.406278 
L 383.17828 -214.402666 
L 383.953926 -214.399153 
L 384.729573 -214.395735 
L 385.505219 -214.392411 
L 386.280865 -214.389178 
L 387.056512 -214.386033 
L 387.832158 -214.382975 
L 388.607804 -214.38 
L 389.383451 -214.377106 
L 390.159097 -214.374291 
L 390.934744 -214.371553 
L 391.71039 -214.368891 
L 392.486036 -214.366301 
L 393.261683 -214.363781 
L 394.037329 -214.361331 
L 394.812975 -214.358948 
L 395.588622 -214.35663 
L 396.364268 -214.354375 
L 397.139915 -214.352182 
L 397.915561 -214.350048 
L 398.691207 -214.347974 
L 399.466854 -214.345955 
L 400.2425 -214.343993 
L 401.018146 -214.342083 
L 401.793793 -214.340226 
L 402.569439 -214.33842 
L 403.345085 -214.336663 
L 404.120732 -214.334954 
L 404.896378 -214.333292 
L 405.672025 -214.331675 
L 406.447671 -214.330103 
L 407.223317 -214.328573 
L 407.998964 -214.327086 
L 408.77461 -214.325639 
L 409.550256 -214.324231 
L 410.325903 -214.322862 
L 411.101549 -214.321531 
L 411.877196 -214.320236 
L 412.652842 -214.318976 
L 413.428488 -214.317751 
L 414.204135 -214.316559 
L 414.979781 -214.3154 
L 415.755427 -214.314272 
L 416.531074 -214.313176 
L 417.30672 -214.312109 
L 418.082367 -214.311072 
L 418.858013 -214.310062 
L 419.633659 -214.309081 
L 420.409306 -214.308126 
L 421.184952 -214.307198 
L 421.960598 -214.306295 
L 422.736245 -214.305416 
L 423.511891 -214.304562 
L 424.287538 -214.30373 
L 425.063184 -214.302922 
L 425.83883 -214.302136 
L 426.614477 -214.301371 
L 427.390123 -214.300627 
L 428.165769 -214.299904 
L 428.941416 -214.2992 
L 429.717062 -214.298515 
L 430.492709 -214.29785 
L 431.268355 -214.297202 
L 432.044001 -214.296572 
L 432.819648 -214.29596 
L 433.595294 -214.295364 
L 434.37094 -214.294784 
L 435.146587 -214.29422 
L 435.922233 -214.293672 
L 436.697879 -214.293139 
L 437.473526 -214.29262 
L 438.249172 -214.292115 
L 439.024819 -214.291625 
L 439.800465 -214.291147 
L 440.576111 -214.290683 
L 441.351758 -214.290231 
L 442.127404 -214.289792 
L 442.90305 -214.289365 
L 443.678697 -214.288949 
L 444.454343 -214.288545 
L 445.22999 -214.288152 
L 446.005636 -214.287769 
L 446.781282 -214.287398 
L 447.556929 -214.287036 
L 448.332575 -214.286684 
L 449.108221 -214.286342 
L 449.883868 -214.286009 
L 450.659514 -214.285685 
L 451.435161 -214.28537 
L 452.210807 -214.285064 
L 452.986453 -214.284766 
L 453.7621 -214.284476 
L 454.537746 -214.284194 
L 455.313392 -214.28392 
L 456.089039 -214.283653 
L 456.864685 -214.283394 
L 457.640332 -214.283142 
L 458.415978 -214.282896 
L 459.191624 -214.282657 
L 459.967271 -214.282425 
L 460.742917 -214.282199 
L 461.518563 -214.28198 
L 462.29421 -214.281766 
L 463.069856 -214.281558 
L 463.845503 -214.281356 
L 464.621149 -214.28116 
L 465.396795 -214.280969 
L 466.172442 -214.280783 
L 466.948088 -214.280602 
L 467.723734 -214.280426 
L 468.499381 -214.280255 
L 469.275027 -214.280088 
L 470.050673 -214.279926 
L 470.82632 -214.279769 
L 471.601966 -214.279616 
L 472.377613 -214.279467 
L 473.153259 -214.279322 
L 473.928905 -214.279181 
L 474.704552 -214.279044 
L 475.480198 -214.27891 
L 476.255844 -214.278781 
L 477.031491 -214.278655 
L 477.807137 -214.278532 
L 478.582784 -214.278413 
L 479.35843 -214.278296 
L 480.134076 -214.278184 
L 480.909723 -214.278074 
L 481.685369 -214.277967 
L 482.461015 -214.277863 
L 483.236662 -214.277762 
L 484.012308 -214.277664 
L 484.787955 -214.277568 
L 485.563601 -214.277475 
L 486.339247 -214.277385 
L 487.114894 -214.277297 
L 487.89054 -214.277211 
L 488.666186 -214.277128 
L 489.441833 -214.277047 
L 490.217479 -214.276968 
L 490.993126 -214.276892 
L 491.768772 -214.276817 
L 492.544418 -214.276745 
L 493.320065 -214.276674 
L 494.095711 -214.276606 
L 494.871357 -214.276539 
L 495.647004 -214.276474 
L 496.42265 -214.276411 
L 497.198296 -214.27635 
L 497.973943 -214.27629 
L 498.749589 -214.276232 
L 499.525236 -214.276176 
L 500.300882 -214.276121 
L 501.076528 -214.276067 
L 501.852175 -214.276015 
L 502.627821 -214.275965 
L 503.403467 -214.275916 
L 504.179114 -214.275868 
L 504.95476 -214.275821 
L 505.730407 -214.275776 
L 506.506053 -214.275732 
L 507.281699 -214.275689 
L 508.057346 -214.275648 
L 508.832992 -214.275607 
L 509.608638 -214.275568 
L 510.384285 -214.27553 
L 511.159931 -214.275492 
L 511.935578 -214.275456 
L 512.711224 -214.275421 
L 513.48687 -214.275387 
L 514.262517 -214.275353 
L 515.038163 -214.275321 
L 515.813809 -214.275289 
L 516.589456 -214.275259 
L 517.365102 -214.275229 
L 518.140749 -214.2752 
L 518.916395 -214.275172 
L 519.692041 -214.275144 
L 520.467688 -214.275117 
L 521.243334 -214.275091 
L 522.01898 -214.275066 
L 522.794627 -214.275042 
L 523.570273 -214.275018 
L 524.34592 -214.274994 
L 525.121566 -214.274972 
L 525.897212 -214.27495 
L 526.672859 -214.274928 
L 527.448505 -214.274908 
L 528.224151 -214.274887 
L 528.999798 -214.274868 
L 529.775444 -214.274849 
L 530.55109 -214.27483 
L 531.326737 -214.274812 
L 532.102383 -214.274794 
L 532.87803 -214.274777 
L 533.653676 -214.27476 
L 534.429322 -214.274744 
L 535.204969 -214.274728 
L 535.980615 -214.274713 
L 536.756261 -214.274698 
L 537.531908 -214.274684 
L 538.307554 -214.27467 
L 539.083201 -214.274656 
L 539.858847 -214.274643 
L 540.634493 -214.27463 
L 541.41014 -214.274617 
L 542.185786 -214.274605 
L 542.961432 -214.274593 
L 543.737079 -214.274581 
L 544.512725 -214.27457 
L 545.288372 -214.274559 
L 546.064018 -214.274548 
L 546.839664 -214.274538 
L 547.615311 -214.274528 
L 548.390957 -214.274518 
L 549.166603 -214.274508 
L 549.94225 -214.274499 
L 550.717896 -214.27449 
L 551.493543 -214.274481 
L 552.269189 -214.274472 
L 553.044835 -214.274464 
L 553.820482 -214.274456 
L 554.596128 -214.274448 
L 555.371774 -214.27444 
L 556.147421 -214.274433 
L 556.923067 -214.274426 
L 557.698714 -214.274419 
L 558.47436 -214.274412 
L 559.250006 -214.274405 
L 560.025653 -214.274399 
L 560.801299 -214.274392 
L 561.576945 -214.274386 
L 562.352592 -214.27438 
L 563.128238 -214.274374 
L 563.903884 -214.274369 
L 564.679531 -214.274363 
L 565.455177 -214.274358 
L 566.230824 -214.274353 
L 567.00647 -214.274348 
L 567.782116 -214.274343 
L 568.557763 -214.274338 
L 569.333409 -214.274333 
L 570.109055 -214.274329 
L 570.884702 -214.274324 
L 571.660348 -214.27432 
L 572.435995 -214.274316 
L 573.211641 -214.274312 
L 573.987287 -214.274308 
L 574.762934 -214.274304 
L 575.53858 -214.2743 
L 576.314226 -214.274297 
L 577.089873 -214.274293 
L 577.865519 -214.27429 
L 578.641166 -214.274286 
L 579.416812 -214.274283 
L 580.192458 -214.27428 
L 580.968105 -214.274277 
L 581.743751 -214.274274 
L 582.519397 -214.274271 
L 583.295044 -214.274268 
L 584.07069 -214.274265 
L 584.846337 -214.274263 
L 585.621983 -214.27426 
L 586.397629 -214.274258 
L 587.173276 -214.274255 
L 587.948922 -214.274253 
L 588.724568 -214.27425 
L 589.500215 -214.274248 
L 590.275861 -214.274246 
L 591.051508 -214.274244 
L 591.827154 -214.274242 
L 592.6028 -214.27424 
L 593.378447 -214.274238 
L 594.154093 -214.274236 
L 594.929739 -214.274234 
L 595.705386 -214.274232 
L 596.481032 -214.27423 
L 597.256678 -214.274229 
L 598.032325 -214.274227 
L 598.807971 -214.274225 
L 599.583618 -214.274224 
L 600.359264 -214.274222 
L 601.13491 -214.274221 
L 601.910557 -214.274219 
L 602.686203 -214.274218 
L 603.461849 -214.274216 
L 604.237496 -214.274215 
L 605.013142 -214.274214 
L 605.788789 -214.274213 
L 606.564435 -214.274211 
L 607.340081 -214.27421 
L 608.115728 -214.274209 
L 608.891374 -214.274208 
L 609.66702 -214.274207 
L 610.442667 -214.274206 
L 611.218313 -214.274205 
L 611.99396 -214.274204 
L 612.769606 -214.274203 
L 613.545252 -214.274202 
L 614.320899 -214.274201 
L 615.096545 -214.2742 
L 615.872191 -214.274199 
L 616.647838 -214.274198 
L 617.423484 -214.274197 
L 618.199131 -214.274196 
L 618.974777 -214.274196 
L 619.750423 -214.274195 
L 620.52607 -214.274194 
L 621.301716 -214.274193 
L 622.077362 -214.274193 
L 622.853009 -214.274192 
L 623.628655 -214.274191 
L 624.404302 -214.274191 
L 625.179948 -214.27419 
L 625.955594 -214.274189 
L 626.731241 -214.274189 
L 627.506887 -214.274188 
L 628.282533 -214.274188 
L 629.05818 -214.274187 
L 629.833826 -214.274187 
L 630.609472 -214.274186 
L 631.385119 -214.274186 
L 632.160765 -214.274185 
L 632.936412 -214.274185 
L 633.712058 -214.274184 
L 634.487704 -214.274184 
L 635.263351 -214.274183 
L 636.038997 -214.274183 
L 636.814643 -214.274182 
L 637.59029 -214.274182 
L 638.365936 -214.274182 
L 639.141583 -214.274181 
L 639.917229 -214.274181 
L 640.692875 -214.274181 
L 641.468522 -214.27418 
L 642.244168 -214.27418 
L 643.019814 -214.274179 
L 643.795461 -214.274179 
L 644.571107 -214.274179 
L 645.346754 -214.274179 
L 646.1224 -214.274178 
L 646.898046 -214.274178 
L 647.673693 -214.274178 
L 648.449339 -214.274177 
L 649.224985 -214.274177 
L 650.000632 -214.274177 
L 650.776278 -214.274177 
L 651.551925 -214.274176 
L 652.327571 -214.274176 
L 653.103217 -214.274176 
L 653.878864 -214.274176 
L 653.878864 -214.984526 
L 653.878864 -214.984526 
L 653.103217 -214.991694 
L 652.327571 -214.998934 
L 651.551925 -215.006248 
L 650.776278 -215.013635 
L 650.000632 -215.021096 
L 649.224985 -215.028633 
L 648.449339 -215.036246 
L 647.673693 -215.043936 
L 646.898046 -215.051703 
L 646.1224 -215.059549 
L 645.346754 -215.067473 
L 644.571107 -215.075478 
L 643.795461 -215.083563 
L 643.019814 -215.09173 
L 642.244168 -215.099979 
L 641.468522 -215.108311 
L 640.692875 -215.116728 
L 639.917229 -215.125229 
L 639.141583 -215.133816 
L 638.365936 -215.14249 
L 637.59029 -215.151251 
L 636.814643 -215.1601 
L 636.038997 -215.169038 
L 635.263351 -215.178067 
L 634.487704 -215.187187 
L 633.712058 -215.196399 
L 632.936412 -215.205703 
L 632.160765 -215.215101 
L 631.385119 -215.224595 
L 630.609472 -215.234183 
L 629.833826 -215.243869 
L 629.05818 -215.253652 
L 628.282533 -215.263534 
L 627.506887 -215.273515 
L 626.731241 -215.283597 
L 625.955594 -215.293781 
L 625.179948 -215.304067 
L 624.404302 -215.314457 
L 623.628655 -215.324952 
L 622.853009 -215.335552 
L 622.077362 -215.346259 
L 621.301716 -215.357075 
L 620.52607 -215.367999 
L 619.750423 -215.379033 
L 618.974777 -215.390179 
L 618.199131 -215.401437 
L 617.423484 -215.412808 
L 616.647838 -215.424294 
L 615.872191 -215.435896 
L 615.096545 -215.447615 
L 614.320899 -215.459452 
L 613.545252 -215.471408 
L 612.769606 -215.483485 
L 611.99396 -215.495683 
L 611.218313 -215.508004 
L 610.442667 -215.52045 
L 609.66702 -215.53302 
L 608.891374 -215.545718 
L 608.115728 -215.558543 
L 607.340081 -215.571498 
L 606.564435 -215.584583 
L 605.788789 -215.5978 
L 605.013142 -215.611151 
L 604.237496 -215.624636 
L 603.461849 -215.638256 
L 602.686203 -215.652014 
L 601.910557 -215.665911 
L 601.13491 -215.679947 
L 600.359264 -215.694125 
L 599.583618 -215.708446 
L 598.807971 -215.722911 
L 598.032325 -215.737522 
L 597.256678 -215.752279 
L 596.481032 -215.767186 
L 595.705386 -215.782243 
L 594.929739 -215.797451 
L 594.154093 -215.812813 
L 593.378447 -215.828329 
L 592.6028 -215.844002 
L 591.827154 -215.859832 
L 591.051508 -215.875822 
L 590.275861 -215.891973 
L 589.500215 -215.908287 
L 588.724568 -215.924765 
L 587.948922 -215.941409 
L 587.173276 -215.95822 
L 586.397629 -215.975201 
L 585.621983 -215.992353 
L 584.846337 -216.009678 
L 584.07069 -216.027177 
L 583.295044 -216.044852 
L 582.519397 -216.062705 
L 581.743751 -216.080738 
L 580.968105 -216.098953 
L 580.192458 -216.117351 
L 579.416812 -216.135934 
L 578.641166 -216.154704 
L 577.865519 -216.173663 
L 577.089873 -216.192813 
L 576.314226 -216.212156 
L 575.53858 -216.231694 
L 574.762934 -216.251428 
L 573.987287 -216.271361 
L 573.211641 -216.291494 
L 572.435995 -216.31183 
L 571.660348 -216.332371 
L 570.884702 -216.353119 
L 570.109055 -216.374075 
L 569.333409 -216.395243 
L 568.557763 -216.416623 
L 567.782116 -216.438219 
L 567.00647 -216.460031 
L 566.230824 -216.482064 
L 565.455177 -216.504318 
L 564.679531 -216.526796 
L 563.903884 -216.5495 
L 563.128238 -216.572432 
L 562.352592 -216.595596 
L 561.576945 -216.618992 
L 560.801299 -216.642624 
L 560.025653 -216.666493 
L 559.250006 -216.690603 
L 558.47436 -216.714955 
L 557.698714 -216.739552 
L 556.923067 -216.764396 
L 556.147421 -216.789491 
L 555.371774 -216.814837 
L 554.596128 -216.840439 
L 553.820482 -216.866298 
L 553.044835 -216.892417 
L 552.269189 -216.918799 
L 551.493543 -216.945446 
L 550.717896 -216.972362 
L 549.94225 -216.999547 
L 549.166603 -217.027006 
L 548.390957 -217.054741 
L 547.615311 -217.082755 
L 546.839664 -217.111051 
L 546.064018 -217.139631 
L 545.288372 -217.168499 
L 544.512725 -217.197656 
L 543.737079 -217.227107 
L 542.961432 -217.256853 
L 542.185786 -217.286899 
L 541.41014 -217.317247 
L 540.634493 -217.347899 
L 539.858847 -217.37886 
L 539.083201 -217.410132 
L 538.307554 -217.441717 
L 537.531908 -217.473621 
L 536.756261 -217.505845 
L 535.980615 -217.538392 
L 535.204969 -217.571267 
L 534.429322 -217.604472 
L 533.653676 -217.63801 
L 532.87803 -217.671885 
L 532.102383 -217.706101 
L 531.326737 -217.74066 
L 530.55109 -217.775567 
L 529.775444 -217.810823 
L 528.999798 -217.846434 
L 528.224151 -217.882403 
L 527.448505 -217.918732 
L 526.672859 -217.955427 
L 525.897212 -217.99249 
L 525.121566 -218.029925 
L 524.34592 -218.067735 
L 523.570273 -218.105926 
L 522.794627 -218.144499 
L 522.01898 -218.18346 
L 521.243334 -218.222812 
L 520.467688 -218.262559 
L 519.692041 -218.302704 
L 518.916395 -218.343253 
L 518.140749 -218.384208 
L 517.365102 -218.425574 
L 516.589456 -218.467356 
L 515.813809 -218.509556 
L 515.038163 -218.55218 
L 514.262517 -218.595231 
L 513.48687 -218.638714 
L 512.711224 -218.682634 
L 511.935578 -218.726993 
L 511.159931 -218.771798 
L 510.384285 -218.817052 
L 509.608638 -218.862759 
L 508.832992 -218.908925 
L 508.057346 -218.955554 
L 507.281699 -219.00265 
L 506.506053 -219.050218 
L 505.730407 -219.098263 
L 504.95476 -219.14679 
L 504.179114 -219.195803 
L 503.403467 -219.245307 
L 502.627821 -219.295307 
L 501.852175 -219.345808 
L 501.076528 -219.396815 
L 500.300882 -219.448333 
L 499.525236 -219.500367 
L 498.749589 -219.552922 
L 497.973943 -219.606004 
L 497.198296 -219.659617 
L 496.42265 -219.713767 
L 495.647004 -219.768459 
L 494.871357 -219.823699 
L 494.095711 -219.879492 
L 493.320065 -219.935844 
L 492.544418 -219.992759 
L 491.768772 -220.050244 
L 490.993126 -220.108305 
L 490.217479 -220.166946 
L 489.441833 -220.226174 
L 488.666186 -220.285995 
L 487.89054 -220.346414 
L 487.114894 -220.407438 
L 486.339247 -220.469072 
L 485.563601 -220.531323 
L 484.787955 -220.594196 
L 484.012308 -220.657698 
L 483.236662 -220.721834 
L 482.461015 -220.786612 
L 481.685369 -220.852038 
L 480.909723 -220.918117 
L 480.134076 -220.984857 
L 479.35843 -221.052264 
L 478.582784 -221.120344 
L 477.807137 -221.189105 
L 477.031491 -221.258552 
L 476.255844 -221.328694 
L 475.480198 -221.399536 
L 474.704552 -221.471085 
L 473.928905 -221.543349 
L 473.153259 -221.616335 
L 472.377613 -221.690049 
L 471.601966 -221.764499 
L 470.82632 -221.839692 
L 470.050673 -221.915636 
L 469.275027 -221.992337 
L 468.499381 -222.069804 
L 467.723734 -222.148044 
L 466.948088 -222.227064 
L 466.172442 -222.306873 
L 465.396795 -222.387477 
L 464.621149 -222.468885 
L 463.845503 -222.551105 
L 463.069856 -222.634145 
L 462.29421 -222.718012 
L 461.518563 -222.802716 
L 460.742917 -222.888263 
L 459.967271 -222.974663 
L 459.191624 -223.061924 
L 458.415978 -223.150054 
L 457.640332 -223.239061 
L 456.864685 -223.328956 
L 456.089039 -223.419745 
L 455.313392 -223.511438 
L 454.537746 -223.604044 
L 453.7621 -223.697572 
L 452.986453 -223.792031 
L 452.210807 -223.887429 
L 451.435161 -223.983777 
L 450.659514 -224.081083 
L 449.883868 -224.179357 
L 449.108221 -224.278608 
L 448.332575 -224.378846 
L 447.556929 -224.480081 
L 446.781282 -224.582321 
L 446.005636 -224.685578 
L 445.22999 -224.789861 
L 444.454343 -224.895181 
L 443.678697 -225.001546 
L 442.90305 -225.108968 
L 442.127404 -225.217456 
L 441.351758 -225.327022 
L 440.576111 -225.437675 
L 439.800465 -225.549426 
L 439.024819 -225.662287 
L 438.249172 -225.776267 
L 437.473526 -225.891378 
L 436.697879 -226.007631 
L 435.922233 -226.125036 
L 435.146587 -226.243606 
L 434.37094 -226.363351 
L 433.595294 -226.484283 
L 432.819648 -226.606413 
L 432.044001 -226.729753 
L 431.268355 -226.854315 
L 430.492709 -226.98011 
L 429.717062 -227.107151 
L 428.941416 -227.23545 
L 428.165769 -227.365018 
L 427.390123 -227.495869 
L 426.614477 -227.628014 
L 425.83883 -227.761467 
L 425.063184 -227.896239 
L 424.287538 -228.032344 
L 423.511891 -228.169794 
L 422.736245 -228.308603 
L 421.960598 -228.448783 
L 421.184952 -228.590348 
L 420.409306 -228.733312 
L 419.633659 -228.877687 
L 418.858013 -229.023487 
L 418.082367 -229.170727 
L 417.30672 -229.319419 
L 416.531074 -229.469579 
L 415.755427 -229.621219 
L 414.979781 -229.774355 
L 414.204135 -229.929 
L 413.428488 -230.08517 
L 412.652842 -230.242879 
L 411.877196 -230.402141 
L 411.101549 -230.562972 
L 410.325903 -230.725386 
L 409.550256 -230.8894 
L 408.77461 -231.055027 
L 407.998964 -231.222284 
L 407.223317 -231.391186 
L 406.447671 -231.561749 
L 405.672025 -231.733989 
L 404.896378 -231.907922 
L 404.120732 -232.083564 
L 403.345085 -232.260931 
L 402.569439 -232.44004 
L 401.793793 -232.620907 
L 401.018146 -232.80355 
L 400.2425 -232.987985 
L 399.466854 -233.174228 
L 398.691207 -233.362298 
L 397.915561 -233.552212 
L 397.139915 -233.743987 
L 396.364268 -233.937641 
L 395.588622 -234.133192 
L 394.812975 -234.330658 
L 394.037329 -234.530056 
L 393.261683 -234.731406 
L 392.486036 -234.934725 
L 391.71039 -235.140032 
L 390.934744 -235.347347 
L 390.159097 -235.556687 
L 389.383451 -235.768073 
L 388.607804 -235.981523 
L 387.832158 -236.197057 
L 387.056512 -236.414695 
L 386.280865 -236.634456 
L 385.505219 -236.85636 
L 384.729573 -237.080428 
L 383.953926 -237.306679 
L 383.17828 -237.535135 
L 382.402633 -237.765815 
L 381.626987 -237.998742 
L 380.851341 -238.233935 
L 380.075694 -238.471416 
L 379.300048 -238.711206 
L 378.524402 -238.953328 
L 377.748755 -239.197802 
L 376.973109 -239.44465 
L 376.197462 -239.693896 
L 375.421816 -239.94556 
L 374.64617 -240.199667 
L 373.870523 -240.456237 
L 373.094877 -240.715294 
L 372.319231 -240.976862 
L 371.543584 -241.240963 
L 370.767938 -241.507621 
L 369.992291 -241.77686 
L 369.216645 -242.048703 
L 368.440999 -242.323174 
L 367.665352 -242.600299 
L 366.889706 -242.8801 
L 366.11406 -243.162603 
L 365.338413 -243.447833 
L 364.562767 -243.735815 
L 363.787121 -244.026573 
L 363.011474 -244.320134 
L 362.235828 -244.616524 
L 361.460181 -244.915767 
L 360.684535 -245.21789 
L 359.908889 -245.52292 
L 359.133242 -245.830882 
L 358.357596 -246.141805 
L 357.58195 -246.455713 
L 356.806303 -246.772636 
L 356.030657 -247.0926 
L 355.25501 -247.415632 
L 354.479364 -247.741761 
L 353.703718 -248.071014 
L 352.928071 -248.403421 
L 352.152425 -248.739008 
L 351.376779 -249.077806 
L 350.601132 -249.419842 
L 349.825486 -249.765146 
L 349.049839 -250.113748 
L 348.274193 -250.465677 
L 347.498547 -250.820963 
L 346.7229 -251.179635 
L 345.947254 -251.541725 
L 345.171608 -251.907262 
L 344.395961 -252.276278 
L 343.620315 -252.648803 
L 342.844668 -253.024868 
L 342.069022 -253.404506 
L 341.293376 -253.787748 
L 340.517729 -254.174625 
L 339.742083 -254.56517 
L 338.966437 -254.959415 
L 338.19079 -255.357393 
L 337.415144 -255.759136 
L 336.639497 -256.164679 
L 335.863851 -256.574053 
L 335.088205 -256.987294 
L 334.312558 -257.404434 
L 333.536912 -257.825507 
L 332.761266 -258.250549 
L 331.985619 -258.679593 
L 331.209973 -259.112675 
L 330.434327 -259.549829 
L 329.65868 -259.991091 
L 328.883034 -260.436496 
L 328.107387 -260.88608 
L 327.331741 -261.339879 
L 326.556095 -261.79793 
L 325.780448 -262.260268 
L 325.004802 -262.726932 
L 324.229156 -263.197957 
L 323.453509 -263.673381 
L 322.677863 -264.153242 
L 321.902216 -264.637577 
L 321.12657 -265.126425 
L 320.350924 -265.619824 
L 319.575277 -266.117811 
L 318.799631 -266.620427 
L 318.023985 -267.12771 
L 317.248338 -267.6397 
L 316.472692 -268.156435 
L 315.697045 -268.677956 
L 314.921399 -269.204303 
L 314.145753 -269.735516 
L 313.370106 -270.271636 
L 312.59446 -270.812703 
L 311.818814 -271.358758 
L 311.043167 -271.909844 
L 310.267521 -272.466 
L 309.491874 -273.02727 
L 308.716228 -273.593695 
L 307.940582 -274.165317 
L 307.164935 -274.742179 
L 306.389289 -275.324324 
L 305.613643 -275.911795 
L 304.837996 -276.504635 
L 304.06235 -277.102887 
L 303.286704 -277.706596 
L 302.511057 -278.315804 
L 301.735411 -278.930558 
L 300.959764 -279.5509 
L 300.184118 -280.176876 
L 299.408472 -280.808531 
L 298.632825 -281.44591 
L 297.857179 -282.089057 
L 297.081533 -282.73802 
L 296.305886 -283.392844 
L 295.53024 -284.053575 
L 294.754593 -284.720258 
L 293.978947 -285.392942 
L 293.203301 -286.071672 
L 292.427654 -286.756497 
L 291.652008 -287.447461 
L 290.876362 -288.144615 
L 290.100715 -288.848004 
L 289.325069 -289.557677 
L 288.549422 -290.273683 
L 287.773776 -290.996068 
L 286.99813 -291.724883 
L 286.222483 -292.460175 
L 285.446837 -293.201993 
L 284.671191 -293.950387 
L 283.895544 -294.705406 
L 283.119898 -295.4671 
L 282.344251 -296.235517 
L 281.568605 -297.010709 
L 280.792959 -297.792724 
L 280.017312 -298.581614 
L 279.241666 -299.377428 
L 278.46602 -300.180218 
L 277.690373 -300.990033 
L 276.914727 -301.806926 
L 276.13908 -302.630946 
L 275.363434 -303.462145 
L 274.587788 -304.300575 
L 273.812141 -305.146287 
L 273.036495 -305.999332 
L 272.260849 -306.859763 
L 271.485202 -307.727631 
L 270.709556 -308.602988 
L 269.93391 -309.485886 
L 269.158263 -310.376378 
L 268.382617 -311.274516 
L 267.60697 -312.180352 
L 266.831324 -313.093939 
L 266.055678 -314.015329 
L 265.280031 -314.944575 
L 264.504385 -315.88173 
L 263.728739 -316.826847 
L 262.953092 -317.779977 
L 262.177446 -318.741175 
L 261.401799 -319.710492 
L 260.626153 -320.687983 
L 259.850507 -321.673699 
L 259.07486 -322.667693 
L 258.299214 -323.670019 
L 257.523568 -324.68073 
L 256.747921 -325.699877 
L 255.972275 -326.727514 
L 255.196628 -327.763693 
L 254.420982 -328.808467 
L 253.645336 -329.861889 
L 252.869689 -330.92401 
L 252.094043 -331.994883 
L 251.318397 -333.07456 
L 250.54275 -334.163093 
L 249.767104 -335.260533 
L 248.991457 -336.366932 
L 248.215811 -337.482341 
L 247.440165 -338.606811 
L 246.664518 -339.740393 
L 245.888872 -340.883136 
L 245.113226 -342.035091 
L 244.337579 -343.196307 
L 243.561933 -344.366834 
L 242.786286 -345.546719 
L 242.01064 -346.736012 
L 241.234994 -347.93476 
L 240.459347 -349.143009 
L 239.683701 -350.360807 
L 238.908055 -351.588198 
L 238.132408 -352.825228 
L 237.356762 -354.071942 
L 236.581116 -355.328381 
L 235.805469 -356.594589 
L 235.029823 -357.870607 
L 234.254176 -359.156475 
L 233.47853 -360.452232 
L 232.702884 -361.757917 
L 231.927237 -363.073564 
L 231.151591 -364.39921 
L 230.375945 -365.734887 
L 229.600298 -367.080628 
L 228.824652 -368.436462 
L 228.049005 -369.802416 
L 227.273359 -371.178517 
L 226.497713 -372.564788 
L 225.722066 -373.961249 
L 224.94642 -375.367919 
L 224.170774 -376.784813 
L 223.395127 -378.211943 
L 222.619481 -379.649317 
L 221.843834 -381.09694 
L 221.068188 -382.554814 
L 220.292542 -384.022935 
L 219.516895 -385.501296 
L 218.741249 -386.989882 
L 217.965603 -388.488677 
L 217.189956 -389.997655 
L 216.41431 -391.516786 
L 215.638663 -393.046034 
L 214.863017 -394.585353 
L 214.087371 -396.134691 
L 213.311724 -397.693986 
L 212.536078 -399.263167 
L 211.760432 -400.842155 
L 210.984785 -402.430856 
L 210.209139 -404.029169 
L 209.433492 -405.636975 
L 208.657846 -407.254145 
L 207.8822 -408.880533 
L 207.106553 -410.515978 
L 206.330907 -412.160299 
L 205.555261 -413.8133 
L 204.779614 -415.474759 
L 204.003968 -417.144436 
L 203.228322 -418.822063 
L 202.452675 -420.507349 
L 201.677029 -422.199971 
L 200.901382 -423.899577 
L 200.125736 -425.605781 
L 199.35009 -427.31816 
L 198.574443 -429.036251 
L 197.798797 -430.759549 
L 197.023151 -432.4875 
L 196.247504 -434.219502 
L 195.471858 -435.954896 
L 194.696211 -437.692963 
L 193.920565 -439.43292 
L 193.144919 -441.173914 
L 192.369272 -442.915013 
L 191.593626 -444.655203 
L 190.81798 -446.39338 
L 190.042333 -448.12834 
L 189.266687 -449.858773 
L 188.49104 -451.583252 
L 187.715394 -453.300223 
L 186.939748 -455.007994 
L 186.164101 -456.704725 
L 185.388455 -458.388408 
L 184.612809 -460.05686 
L 183.837162 -461.707704 
L 183.061516 -463.338347 
L 182.285869 -464.94597 
L 181.510223 -466.527498 
L 180.734577 -468.079581 
L 179.95893 -469.598567 
L 179.183284 -471.080476 
L 178.407638 -472.520964 
L 177.631991 -473.915295 
L 176.856345 -475.258295 
L 176.080698 -476.544317 
L 175.305052 -477.76719 
L 174.529406 -478.920167 
L 173.753759 -479.995868 
L 172.978113 -480.986212 
L 172.202467 -481.882349 
L 171.42682 -482.674573 
L 170.651174 -483.352233 
L 169.875528 -483.90363 
L 169.099881 -484.315896 
L 168.324235 -484.574866 
L 167.548588 -484.664924 
L 166.772942 -484.568831 
L 165.997296 -484.424038 
L 165.221649 -484.637122 
L 164.446003 -484.636022 
L 163.670357 -484.39429 
L 162.89471 -484.529588 
L 162.119064 -484.664924 
L 161.343417 -484.516034 
L 160.567771 -484.286428 
L 159.792125 -484.620315 
L 159.016478 -484.617515 
L 158.240832 -484.210561 
L 157.465186 -484.433391 
L 156.689539 -484.664924 
L 155.913893 -484.392224 
L 155.138246 -483.474646 
L 154.3626 -481.730914 
L 153.586954 -478.925967 
L 152.811307 -474.752707 
L 152.035661 -468.806162 
L 151.260015 -460.546075 
L 150.484368 -449.241352 
L 149.708722 -433.885101 
L 148.933075 -413.060361 
L 148.157429 -384.719672 
L 147.381783 -345.807037 
L 146.606136 -291.575248 
z
" style="stroke: #ffa500; stroke-opacity: 0.3"/>
    </defs>
    <g clip-path="url(#p26a1b0377a)">
     <use xlink:href="#m700236b7ac" x="0" y="540.100875" style="fill: #ffa500; fill-opacity: 0.3; stroke: #ffa500; stroke-opacity: 0.3"/>
    </g>
   </g>
   <g id="matplotlib.axis_1">
    <g id="xtick_1">
     <g id="line2d_1">
      <defs>
       <path id="m7b2339ec84" d="M 0 0 
L 0 3.5 
" style="stroke: #000000; stroke-width: 0.8"/>
      </defs>
      <g>
       <use xlink:href="#m7b2339ec84" x="145.83049" y="416.476875" style="stroke: #000000; stroke-width: 0.8"/>
      </g>
     </g>
     <g id="text_1">
      <!-- 0 -->
      <g transform="translate(139.46799 438.67375) scale(0.2 -0.2)">
       <defs>
        <path id="DejaVuSans-30" d="M 2034 4250 
Q 1547 4250 1301 3770 
Q 1056 3291 1056 2328 
Q 1056 1369 1301 889 
Q 1547 409 2034 409 
Q 2525 409 2770 889 
Q 3016 1369 3016 2328 
Q 3016 3291 2770 3770 
Q 2525 4250 2034 4250 
z
M 2034 4750 
Q 2819 4750 3233 4129 
Q 3647 3509 3647 2328 
Q 3647 1150 3233 529 
Q 2819 -91 2034 -91 
Q 1250 -91 836 529 
Q 422 1150 422 2328 
Q 422 3509 836 4129 
Q 1250 4750 2034 4750 
z
" transform="scale(0.015625)"/>
       </defs>
       <use xlink:href="#DejaVuSans-30"/>
      </g>
     </g>
    </g>
    <g id="xtick_2">
     <g id="line2d_2">
      <g>
       <use xlink:href="#m7b2339ec84" x="223.395127" y="416.476875" style="stroke: #000000; stroke-width: 0.8"/>
      </g>
     </g>
     <g id="text_2">
      <!-- 100 -->
      <g transform="translate(204.307627 438.67375) scale(0.2 -0.2)">
       <defs>
        <path id="DejaVuSans-31" d="M 794 531 
L 1825 531 
L 1825 4091 
L 703 3866 
L 703 4441 
L 1819 4666 
L 2450 4666 
L 2450 531 
L 3481 531 
L 3481 0 
L 794 0 
L 794 531 
z
" transform="scale(0.015625)"/>
       </defs>
       <use xlink:href="#DejaVuSans-31"/>
       <use xlink:href="#DejaVuSans-30" x="63.623047"/>
       <use xlink:href="#DejaVuSans-30" x="127.246094"/>
      </g>
     </g>
    </g>
    <g id="xtick_3">
     <g id="line2d_3">
      <g>
       <use xlink:href="#m7b2339ec84" x="300.959764" y="416.476875" style="stroke: #000000; stroke-width: 0.8"/>
      </g>
     </g>
     <g id="text_3">
      <!-- 200 -->
      <g transform="translate(281.872264 438.67375) scale(0.2 -0.2)">
       <defs>
        <path id="DejaVuSans-32" d="M 1228 531 
L 3431 531 
L 3431 0 
L 469 0 
L 469 531 
Q 828 903 1448 1529 
Q 2069 2156 2228 2338 
Q 2531 2678 2651 2914 
Q 2772 3150 2772 3378 
Q 2772 3750 2511 3984 
Q 2250 4219 1831 4219 
Q 1534 4219 1204 4116 
Q 875 4013 500 3803 
L 500 4441 
Q 881 4594 1212 4672 
Q 1544 4750 1819 4750 
Q 2544 4750 2975 4387 
Q 3406 4025 3406 3419 
Q 3406 3131 3298 2873 
Q 3191 2616 2906 2266 
Q 2828 2175 2409 1742 
Q 1991 1309 1228 531 
z
" transform="scale(0.015625)"/>
       </defs>
       <use xlink:href="#DejaVuSans-32"/>
       <use xlink:href="#DejaVuSans-30" x="63.623047"/>
       <use xlink:href="#DejaVuSans-30" x="127.246094"/>
      </g>
     </g>
    </g>
    <g id="xtick_4">
     <g id="line2d_4">
      <g>
       <use xlink:href="#m7b2339ec84" x="378.524402" y="416.476875" style="stroke: #000000; stroke-width: 0.8"/>
      </g>
     </g>
     <g id="text_4">
      <!-- 300 -->
      <g transform="translate(359.436902 438.67375) scale(0.2 -0.2)">
       <defs>
        <path id="DejaVuSans-33" d="M 2597 2516 
Q 3050 2419 3304 2112 
Q 3559 1806 3559 1356 
Q 3559 666 3084 287 
Q 2609 -91 1734 -91 
Q 1441 -91 1130 -33 
Q 819 25 488 141 
L 488 750 
Q 750 597 1062 519 
Q 1375 441 1716 441 
Q 2309 441 2620 675 
Q 2931 909 2931 1356 
Q 2931 1769 2642 2001 
Q 2353 2234 1838 2234 
L 1294 2234 
L 1294 2753 
L 1863 2753 
Q 2328 2753 2575 2939 
Q 2822 3125 2822 3475 
Q 2822 3834 2567 4026 
Q 2313 4219 1838 4219 
Q 1578 4219 1281 4162 
Q 984 4106 628 3988 
L 628 4550 
Q 988 4650 1302 4700 
Q 1616 4750 1894 4750 
Q 2613 4750 3031 4423 
Q 3450 4097 3450 3541 
Q 3450 3153 3228 2886 
Q 3006 2619 2597 2516 
z
" transform="scale(0.015625)"/>
       </defs>
       <use xlink:href="#DejaVuSans-33"/>
       <use xlink:href="#DejaVuSans-30" x="63.623047"/>
       <use xlink:href="#DejaVuSans-30" x="127.246094"/>
      </g>
     </g>
    </g>
    <g id="xtick_5">
     <g id="line2d_5">
      <g>
       <use xlink:href="#m7b2339ec84" x="456.089039" y="416.476875" style="stroke: #000000; stroke-width: 0.8"/>
      </g>
     </g>
     <g id="text_5">
      <!-- 400 -->
      <g transform="translate(437.001539 438.67375) scale(0.2 -0.2)">
       <defs>
        <path id="DejaVuSans-34" d="M 2419 4116 
L 825 1625 
L 2419 1625 
L 2419 4116 
z
M 2253 4666 
L 3047 4666 
L 3047 1625 
L 3713 1625 
L 3713 1100 
L 3047 1100 
L 3047 0 
L 2419 0 
L 2419 1100 
L 313 1100 
L 313 1709 
L 2253 4666 
z
" transform="scale(0.015625)"/>
       </defs>
       <use xlink:href="#DejaVuSans-34"/>
       <use xlink:href="#DejaVuSans-30" x="63.623047"/>
       <use xlink:href="#DejaVuSans-30" x="127.246094"/>
      </g>
     </g>
    </g>
    <g id="xtick_6">
     <g id="line2d_6">
      <g>
       <use xlink:href="#m7b2339ec84" x="533.653676" y="416.476875" style="stroke: #000000; stroke-width: 0.8"/>
      </g>
     </g>
     <g id="text_6">
      <!-- 500 -->
      <g transform="translate(514.566176 438.67375) scale(0.2 -0.2)">
       <defs>
        <path id="DejaVuSans-35" d="M 691 4666 
L 3169 4666 
L 3169 4134 
L 1269 4134 
L 1269 2991 
Q 1406 3038 1543 3061 
Q 1681 3084 1819 3084 
Q 2600 3084 3056 2656 
Q 3513 2228 3513 1497 
Q 3513 744 3044 326 
Q 2575 -91 1722 -91 
Q 1428 -91 1123 -41 
Q 819 9 494 109 
L 494 744 
Q 775 591 1075 516 
Q 1375 441 1709 441 
Q 2250 441 2565 725 
Q 2881 1009 2881 1497 
Q 2881 1984 2565 2268 
Q 2250 2553 1709 2553 
Q 1456 2553 1204 2497 
Q 953 2441 691 2322 
L 691 4666 
z
" transform="scale(0.015625)"/>
       </defs>
       <use xlink:href="#DejaVuSans-35"/>
       <use xlink:href="#DejaVuSans-30" x="63.623047"/>
       <use xlink:href="#DejaVuSans-30" x="127.246094"/>
      </g>
     </g>
    </g>
    <g id="xtick_7">
     <g id="line2d_7">
      <g>
       <use xlink:href="#m7b2339ec84" x="611.218313" y="416.476875" style="stroke: #000000; stroke-width: 0.8"/>
      </g>
     </g>
     <g id="text_7">
      <!-- 600 -->
      <g transform="translate(592.130813 438.67375) scale(0.2 -0.2)">
       <defs>
        <path id="DejaVuSans-36" d="M 2113 2584 
Q 1688 2584 1439 2293 
Q 1191 2003 1191 1497 
Q 1191 994 1439 701 
Q 1688 409 2113 409 
Q 2538 409 2786 701 
Q 3034 994 3034 1497 
Q 3034 2003 2786 2293 
Q 2538 2584 2113 2584 
z
M 3366 4563 
L 3366 3988 
Q 3128 4100 2886 4159 
Q 2644 4219 2406 4219 
Q 1781 4219 1451 3797 
Q 1122 3375 1075 2522 
Q 1259 2794 1537 2939 
Q 1816 3084 2150 3084 
Q 2853 3084 3261 2657 
Q 3669 2231 3669 1497 
Q 3669 778 3244 343 
Q 2819 -91 2113 -91 
Q 1303 -91 875 529 
Q 447 1150 447 2328 
Q 447 3434 972 4092 
Q 1497 4750 2381 4750 
Q 2619 4750 2861 4703 
Q 3103 4656 3366 4563 
z
" transform="scale(0.015625)"/>
       </defs>
       <use xlink:href="#DejaVuSans-36"/>
       <use xlink:href="#DejaVuSans-30" x="63.623047"/>
       <use xlink:href="#DejaVuSans-30" x="127.246094"/>
      </g>
     </g>
    </g>
    <g id="text_8">
     <!-- Days since antigen exposure -->
     <g transform="translate(255.822188 462.03) scale(0.2 -0.2)">
      <defs>
       <path id="DejaVuSans-44" d="M 1259 4147 
L 1259 519 
L 2022 519 
Q 2988 519 3436 956 
Q 3884 1394 3884 2338 
Q 3884 3275 3436 3711 
Q 2988 4147 2022 4147 
L 1259 4147 
z
M 628 4666 
L 1925 4666 
Q 3281 4666 3915 4102 
Q 4550 3538 4550 2338 
Q 4550 1131 3912 565 
Q 3275 0 1925 0 
L 628 0 
L 628 4666 
z
" transform="scale(0.015625)"/>
       <path id="DejaVuSans-61" d="M 2194 1759 
Q 1497 1759 1228 1600 
Q 959 1441 959 1056 
Q 959 750 1161 570 
Q 1363 391 1709 391 
Q 2188 391 2477 730 
Q 2766 1069 2766 1631 
L 2766 1759 
L 2194 1759 
z
M 3341 1997 
L 3341 0 
L 2766 0 
L 2766 531 
Q 2569 213 2275 61 
Q 1981 -91 1556 -91 
Q 1019 -91 701 211 
Q 384 513 384 1019 
Q 384 1609 779 1909 
Q 1175 2209 1959 2209 
L 2766 2209 
L 2766 2266 
Q 2766 2663 2505 2880 
Q 2244 3097 1772 3097 
Q 1472 3097 1187 3025 
Q 903 2953 641 2809 
L 641 3341 
Q 956 3463 1253 3523 
Q 1550 3584 1831 3584 
Q 2591 3584 2966 3190 
Q 3341 2797 3341 1997 
z
" transform="scale(0.015625)"/>
       <path id="DejaVuSans-79" d="M 2059 -325 
Q 1816 -950 1584 -1140 
Q 1353 -1331 966 -1331 
L 506 -1331 
L 506 -850 
L 844 -850 
Q 1081 -850 1212 -737 
Q 1344 -625 1503 -206 
L 1606 56 
L 191 3500 
L 800 3500 
L 1894 763 
L 2988 3500 
L 3597 3500 
L 2059 -325 
z
" transform="scale(0.015625)"/>
       <path id="DejaVuSans-73" d="M 2834 3397 
L 2834 2853 
Q 2591 2978 2328 3040 
Q 2066 3103 1784 3103 
Q 1356 3103 1142 2972 
Q 928 2841 928 2578 
Q 928 2378 1081 2264 
Q 1234 2150 1697 2047 
L 1894 2003 
Q 2506 1872 2764 1633 
Q 3022 1394 3022 966 
Q 3022 478 2636 193 
Q 2250 -91 1575 -91 
Q 1294 -91 989 -36 
Q 684 19 347 128 
L 347 722 
Q 666 556 975 473 
Q 1284 391 1588 391 
Q 1994 391 2212 530 
Q 2431 669 2431 922 
Q 2431 1156 2273 1281 
Q 2116 1406 1581 1522 
L 1381 1569 
Q 847 1681 609 1914 
Q 372 2147 372 2553 
Q 372 3047 722 3315 
Q 1072 3584 1716 3584 
Q 2034 3584 2315 3537 
Q 2597 3491 2834 3397 
z
" transform="scale(0.015625)"/>
       <path id="DejaVuSans-20" transform="scale(0.015625)"/>
       <path id="DejaVuSans-69" d="M 603 3500 
L 1178 3500 
L 1178 0 
L 603 0 
L 603 3500 
z
M 603 4863 
L 1178 4863 
L 1178 4134 
L 603 4134 
L 603 4863 
z
" transform="scale(0.015625)"/>
       <path id="DejaVuSans-6e" d="M 3513 2113 
L 3513 0 
L 2938 0 
L 2938 2094 
Q 2938 2591 2744 2837 
Q 2550 3084 2163 3084 
Q 1697 3084 1428 2787 
Q 1159 2491 1159 1978 
L 1159 0 
L 581 0 
L 581 3500 
L 1159 3500 
L 1159 2956 
Q 1366 3272 1645 3428 
Q 1925 3584 2291 3584 
Q 2894 3584 3203 3211 
Q 3513 2838 3513 2113 
z
" transform="scale(0.015625)"/>
       <path id="DejaVuSans-63" d="M 3122 3366 
L 3122 2828 
Q 2878 2963 2633 3030 
Q 2388 3097 2138 3097 
Q 1578 3097 1268 2742 
Q 959 2388 959 1747 
Q 959 1106 1268 751 
Q 1578 397 2138 397 
Q 2388 397 2633 464 
Q 2878 531 3122 666 
L 3122 134 
Q 2881 22 2623 -34 
Q 2366 -91 2075 -91 
Q 1284 -91 818 406 
Q 353 903 353 1747 
Q 353 2603 823 3093 
Q 1294 3584 2113 3584 
Q 2378 3584 2631 3529 
Q 2884 3475 3122 3366 
z
" transform="scale(0.015625)"/>
       <path id="DejaVuSans-65" d="M 3597 1894 
L 3597 1613 
L 953 1613 
Q 991 1019 1311 708 
Q 1631 397 2203 397 
Q 2534 397 2845 478 
Q 3156 559 3463 722 
L 3463 178 
Q 3153 47 2828 -22 
Q 2503 -91 2169 -91 
Q 1331 -91 842 396 
Q 353 884 353 1716 
Q 353 2575 817 3079 
Q 1281 3584 2069 3584 
Q 2775 3584 3186 3129 
Q 3597 2675 3597 1894 
z
M 3022 2063 
Q 3016 2534 2758 2815 
Q 2500 3097 2075 3097 
Q 1594 3097 1305 2825 
Q 1016 2553 972 2059 
L 3022 2063 
z
" transform="scale(0.015625)"/>
       <path id="DejaVuSans-74" d="M 1172 4494 
L 1172 3500 
L 2356 3500 
L 2356 3053 
L 1172 3053 
L 1172 1153 
Q 1172 725 1289 603 
Q 1406 481 1766 481 
L 2356 481 
L 2356 0 
L 1766 0 
Q 1100 0 847 248 
Q 594 497 594 1153 
L 594 3053 
L 172 3053 
L 172 3500 
L 594 3500 
L 594 4494 
L 1172 4494 
z
" transform="scale(0.015625)"/>
       <path id="DejaVuSans-67" d="M 2906 1791 
Q 2906 2416 2648 2759 
Q 2391 3103 1925 3103 
Q 1463 3103 1205 2759 
Q 947 2416 947 1791 
Q 947 1169 1205 825 
Q 1463 481 1925 481 
Q 2391 481 2648 825 
Q 2906 1169 2906 1791 
z
M 3481 434 
Q 3481 -459 3084 -895 
Q 2688 -1331 1869 -1331 
Q 1566 -1331 1297 -1286 
Q 1028 -1241 775 -1147 
L 775 -588 
Q 1028 -725 1275 -790 
Q 1522 -856 1778 -856 
Q 2344 -856 2625 -561 
Q 2906 -266 2906 331 
L 2906 616 
Q 2728 306 2450 153 
Q 2172 0 1784 0 
Q 1141 0 747 490 
Q 353 981 353 1791 
Q 353 2603 747 3093 
Q 1141 3584 1784 3584 
Q 2172 3584 2450 3431 
Q 2728 3278 2906 2969 
L 2906 3500 
L 3481 3500 
L 3481 434 
z
" transform="scale(0.015625)"/>
       <path id="DejaVuSans-78" d="M 3513 3500 
L 2247 1797 
L 3578 0 
L 2900 0 
L 1881 1375 
L 863 0 
L 184 0 
L 1544 1831 
L 300 3500 
L 978 3500 
L 1906 2253 
L 2834 3500 
L 3513 3500 
z
" transform="scale(0.015625)"/>
       <path id="DejaVuSans-70" d="M 1159 525 
L 1159 -1331 
L 581 -1331 
L 581 3500 
L 1159 3500 
L 1159 2969 
Q 1341 3281 1617 3432 
Q 1894 3584 2278 3584 
Q 2916 3584 3314 3078 
Q 3713 2572 3713 1747 
Q 3713 922 3314 415 
Q 2916 -91 2278 -91 
Q 1894 -91 1617 61 
Q 1341 213 1159 525 
z
M 3116 1747 
Q 3116 2381 2855 2742 
Q 2594 3103 2138 3103 
Q 1681 3103 1420 2742 
Q 1159 2381 1159 1747 
Q 1159 1113 1420 752 
Q 1681 391 2138 391 
Q 2594 391 2855 752 
Q 3116 1113 3116 1747 
z
" transform="scale(0.015625)"/>
       <path id="DejaVuSans-6f" d="M 1959 3097 
Q 1497 3097 1228 2736 
Q 959 2375 959 1747 
Q 959 1119 1226 758 
Q 1494 397 1959 397 
Q 2419 397 2687 759 
Q 2956 1122 2956 1747 
Q 2956 2369 2687 2733 
Q 2419 3097 1959 3097 
z
M 1959 3584 
Q 2709 3584 3137 3096 
Q 3566 2609 3566 1747 
Q 3566 888 3137 398 
Q 2709 -91 1959 -91 
Q 1206 -91 779 398 
Q 353 888 353 1747 
Q 353 2609 779 3096 
Q 1206 3584 1959 3584 
z
" transform="scale(0.015625)"/>
       <path id="DejaVuSans-75" d="M 544 1381 
L 544 3500 
L 1119 3500 
L 1119 1403 
Q 1119 906 1312 657 
Q 1506 409 1894 409 
Q 2359 409 2629 706 
Q 2900 1003 2900 1516 
L 2900 3500 
L 3475 3500 
L 3475 0 
L 2900 0 
L 2900 538 
Q 2691 219 2414 64 
Q 2138 -91 1772 -91 
Q 1169 -91 856 284 
Q 544 659 544 1381 
z
M 1991 3584 
L 1991 3584 
z
" transform="scale(0.015625)"/>
       <path id="DejaVuSans-72" d="M 2631 2963 
Q 2534 3019 2420 3045 
Q 2306 3072 2169 3072 
Q 1681 3072 1420 2755 
Q 1159 2438 1159 1844 
L 1159 0 
L 581 0 
L 581 3500 
L 1159 3500 
L 1159 2956 
Q 1341 3275 1631 3429 
Q 1922 3584 2338 3584 
Q 2397 3584 2469 3576 
Q 2541 3569 2628 3553 
L 2631 2963 
z
" transform="scale(0.015625)"/>
      </defs>
      <use xlink:href="#DejaVuSans-44"/>
      <use xlink:href="#DejaVuSans-61" x="77.001953"/>
      <use xlink:href="#DejaVuSans-79" x="138.28125"/>
      <use xlink:href="#DejaVuSans-73" x="197.460938"/>
      <use xlink:href="#DejaVuSans-20" x="249.560547"/>
      <use xlink:href="#DejaVuSans-73" x="281.347656"/>
      <use xlink:href="#DejaVuSans-69" x="333.447266"/>
      <use xlink:href="#DejaVuSans-6e" x="361.230469"/>
      <use xlink:href="#DejaVuSans-63" x="424.609375"/>
      <use xlink:href="#DejaVuSans-65" x="479.589844"/>
      <use xlink:href="#DejaVuSans-20" x="541.113281"/>
      <use xlink:href="#DejaVuSans-61" x="572.900391"/>
      <use xlink:href="#DejaVuSans-6e" x="634.179688"/>
      <use xlink:href="#DejaVuSans-74" x="697.558594"/>
      <use xlink:href="#DejaVuSans-69" x="736.767578"/>
      <use xlink:href="#DejaVuSans-67" x="764.550781"/>
      <use xlink:href="#DejaVuSans-65" x="828.027344"/>
      <use xlink:href="#DejaVuSans-6e" x="889.550781"/>
      <use xlink:href="#DejaVuSans-20" x="952.929688"/>
      <use xlink:href="#DejaVuSans-65" x="984.716797"/>
      <use xlink:href="#DejaVuSans-78" x="1044.490234"/>
      <use xlink:href="#DejaVuSans-70" x="1103.669922"/>
      <use xlink:href="#DejaVuSans-6f" x="1167.146484"/>
      <use xlink:href="#DejaVuSans-73" x="1228.328125"/>
      <use xlink:href="#DejaVuSans-75" x="1280.427734"/>
      <use xlink:href="#DejaVuSans-72" x="1343.806641"/>
      <use xlink:href="#DejaVuSans-65" x="1382.669922"/>
     </g>
    </g>
   </g>
   <g id="matplotlib.axis_2">
    <g id="ytick_1">
     <g id="line2d_8">
      <defs>
       <path id="mb46d458122" d="M 0 0 
L -3.5 0 
" style="stroke: #000000; stroke-width: 0.8"/>
      </defs>
      <g>
       <use xlink:href="#mb46d458122" x="121.2425" y="416.476875" style="stroke: #000000; stroke-width: 0.8"/>
      </g>
     </g>
     <g id="text_9">
      <!-- 0.10 -->
      <g transform="translate(52.951875 424.075312) scale(0.2 -0.2)">
       <defs>
        <path id="DejaVuSans-2212" d="M 678 2272 
L 4684 2272 
L 4684 1741 
L 678 1741 
L 678 2272 
z
" transform="scale(0.015625)"/>
        <path id="DejaVuSans-2e" d="M 684 794 
L 1344 794 
L 1344 0 
L 684 0 
L 684 794 
z
" transform="scale(0.015625)"/>
       </defs>
       <use xlink:href="#DejaVuSans-2212"/>
       <use xlink:href="#DejaVuSans-30" x="83.789062"/>
       <use xlink:href="#DejaVuSans-2e" x="147.412109"/>
       <use xlink:href="#DejaVuSans-31" x="179.199219"/>
       <use xlink:href="#DejaVuSans-30" x="242.822266"/>
      </g>
     </g>
    </g>
    <g id="ytick_2">
     <g id="line2d_9">
      <g>
       <use xlink:href="#mb46d458122" x="121.2425" y="371.151791" style="stroke: #000000; stroke-width: 0.8"/>
      </g>
     </g>
     <g id="text_10">
      <!-- 0.05 -->
      <g transform="translate(52.951875 378.750229) scale(0.2 -0.2)">
       <use xlink:href="#DejaVuSans-2212"/>
       <use xlink:href="#DejaVuSans-30" x="83.789062"/>
       <use xlink:href="#DejaVuSans-2e" x="147.412109"/>
       <use xlink:href="#DejaVuSans-30" x="179.199219"/>
       <use xlink:href="#DejaVuSans-35" x="242.822266"/>
      </g>
     </g>
    </g>
    <g id="ytick_3">
     <g id="line2d_10">
      <g>
       <use xlink:href="#mb46d458122" x="121.2425" y="325.826707" style="stroke: #000000; stroke-width: 0.8"/>
      </g>
     </g>
     <g id="text_11">
      <!-- 0.00 -->
      <g transform="translate(69.71125 333.425145) scale(0.2 -0.2)">
       <use xlink:href="#DejaVuSans-30"/>
       <use xlink:href="#DejaVuSans-2e" x="63.623047"/>
       <use xlink:href="#DejaVuSans-30" x="95.410156"/>
       <use xlink:href="#DejaVuSans-30" x="159.033203"/>
      </g>
     </g>
    </g>
    <g id="ytick_4">
     <g id="line2d_11">
      <g>
       <use xlink:href="#mb46d458122" x="121.2425" y="280.501624" style="stroke: #000000; stroke-width: 0.8"/>
      </g>
     </g>
     <g id="text_12">
      <!-- 0.05 -->
      <g transform="translate(69.71125 288.100061) scale(0.2 -0.2)">
       <use xlink:href="#DejaVuSans-30"/>
       <use xlink:href="#DejaVuSans-2e" x="63.623047"/>
       <use xlink:href="#DejaVuSans-30" x="95.410156"/>
       <use xlink:href="#DejaVuSans-35" x="159.033203"/>
      </g>
     </g>
    </g>
    <g id="ytick_5">
     <g id="line2d_12">
      <g>
       <use xlink:href="#mb46d458122" x="121.2425" y="235.17654" style="stroke: #000000; stroke-width: 0.8"/>
      </g>
     </g>
     <g id="text_13">
      <!-- 0.10 -->
      <g transform="translate(69.71125 242.774977) scale(0.2 -0.2)">
       <use xlink:href="#DejaVuSans-30"/>
       <use xlink:href="#DejaVuSans-2e" x="63.623047"/>
       <use xlink:href="#DejaVuSans-31" x="95.410156"/>
       <use xlink:href="#DejaVuSans-30" x="159.033203"/>
      </g>
     </g>
    </g>
    <g id="ytick_6">
     <g id="line2d_13">
      <g>
       <use xlink:href="#mb46d458122" x="121.2425" y="189.851456" style="stroke: #000000; stroke-width: 0.8"/>
      </g>
     </g>
     <g id="text_14">
      <!-- 0.15 -->
      <g transform="translate(69.71125 197.449894) scale(0.2 -0.2)">
       <use xlink:href="#DejaVuSans-30"/>
       <use xlink:href="#DejaVuSans-2e" x="63.623047"/>
       <use xlink:href="#DejaVuSans-31" x="95.410156"/>
       <use xlink:href="#DejaVuSans-35" x="159.033203"/>
      </g>
     </g>
    </g>
    <g id="ytick_7">
     <g id="line2d_14">
      <g>
       <use xlink:href="#mb46d458122" x="121.2425" y="144.526372" style="stroke: #000000; stroke-width: 0.8"/>
      </g>
     </g>
     <g id="text_15">
      <!-- 0.20 -->
      <g transform="translate(69.71125 152.12481) scale(0.2 -0.2)">
       <use xlink:href="#DejaVuSans-30"/>
       <use xlink:href="#DejaVuSans-2e" x="63.623047"/>
       <use xlink:href="#DejaVuSans-32" x="95.410156"/>
       <use xlink:href="#DejaVuSans-30" x="159.033203"/>
      </g>
     </g>
    </g>
    <g id="ytick_8">
     <g id="line2d_15">
      <g>
       <use xlink:href="#mb46d458122" x="121.2425" y="99.201288" style="stroke: #000000; stroke-width: 0.8"/>
      </g>
     </g>
     <g id="text_16">
      <!-- 0.25 -->
      <g transform="translate(69.71125 106.799726) scale(0.2 -0.2)">
       <use xlink:href="#DejaVuSans-30"/>
       <use xlink:href="#DejaVuSans-2e" x="63.623047"/>
       <use xlink:href="#DejaVuSans-32" x="95.410156"/>
       <use xlink:href="#DejaVuSans-35" x="159.033203"/>
      </g>
     </g>
    </g>
    <g id="ytick_9">
     <g id="line2d_16">
      <g>
       <use xlink:href="#mb46d458122" x="121.2425" y="53.876205" style="stroke: #000000; stroke-width: 0.8"/>
      </g>
     </g>
     <g id="text_17">
      <!-- 0.30 -->
      <g transform="translate(69.71125 61.474642) scale(0.2 -0.2)">
       <use xlink:href="#DejaVuSans-30"/>
       <use xlink:href="#DejaVuSans-2e" x="63.623047"/>
       <use xlink:href="#DejaVuSans-33" x="95.410156"/>
       <use xlink:href="#DejaVuSans-30" x="159.033203"/>
      </g>
     </g>
    </g>
    <g id="text_18">
     <!-- Virus neutralization -->
     <g transform="translate(22.396875 319.741562) rotate(-90) scale(0.2 -0.2)">
      <defs>
       <path id="DejaVuSans-56" d="M 1831 0 
L 50 4666 
L 709 4666 
L 2188 738 
L 3669 4666 
L 4325 4666 
L 2547 0 
L 1831 0 
z
" transform="scale(0.015625)"/>
       <path id="DejaVuSans-6c" d="M 603 4863 
L 1178 4863 
L 1178 0 
L 603 0 
L 603 4863 
z
" transform="scale(0.015625)"/>
       <path id="DejaVuSans-7a" d="M 353 3500 
L 3084 3500 
L 3084 2975 
L 922 459 
L 3084 459 
L 3084 0 
L 275 0 
L 275 525 
L 2438 3041 
L 353 3041 
L 353 3500 
z
" transform="scale(0.015625)"/>
      </defs>
      <use xlink:href="#DejaVuSans-56"/>
      <use xlink:href="#DejaVuSans-69" x="66.158203"/>
      <use xlink:href="#DejaVuSans-72" x="93.941406"/>
      <use xlink:href="#DejaVuSans-75" x="135.054688"/>
      <use xlink:href="#DejaVuSans-73" x="198.433594"/>
      <use xlink:href="#DejaVuSans-20" x="250.533203"/>
      <use xlink:href="#DejaVuSans-6e" x="282.320312"/>
      <use xlink:href="#DejaVuSans-65" x="345.699219"/>
      <use xlink:href="#DejaVuSans-75" x="407.222656"/>
      <use xlink:href="#DejaVuSans-74" x="470.601562"/>
      <use xlink:href="#DejaVuSans-72" x="509.810547"/>
      <use xlink:href="#DejaVuSans-61" x="550.923828"/>
      <use xlink:href="#DejaVuSans-6c" x="612.203125"/>
      <use xlink:href="#DejaVuSans-69" x="639.986328"/>
      <use xlink:href="#DejaVuSans-7a" x="667.769531"/>
      <use xlink:href="#DejaVuSans-61" x="720.259766"/>
      <use xlink:href="#DejaVuSans-74" x="781.539062"/>
      <use xlink:href="#DejaVuSans-69" x="820.748047"/>
      <use xlink:href="#DejaVuSans-6f" x="848.53125"/>
      <use xlink:href="#DejaVuSans-6e" x="909.712891"/>
     </g>
     <!--  probability -->
     <g transform="translate(44.7925 278.966562) rotate(-90) scale(0.2 -0.2)">
      <defs>
       <path id="DejaVuSans-62" d="M 3116 1747 
Q 3116 2381 2855 2742 
Q 2594 3103 2138 3103 
Q 1681 3103 1420 2742 
Q 1159 2381 1159 1747 
Q 1159 1113 1420 752 
Q 1681 391 2138 391 
Q 2594 391 2855 752 
Q 3116 1113 3116 1747 
z
M 1159 2969 
Q 1341 3281 1617 3432 
Q 1894 3584 2278 3584 
Q 2916 3584 3314 3078 
Q 3713 2572 3713 1747 
Q 3713 922 3314 415 
Q 2916 -91 2278 -91 
Q 1894 -91 1617 61 
Q 1341 213 1159 525 
L 1159 0 
L 581 0 
L 581 4863 
L 1159 4863 
L 1159 2969 
z
" transform="scale(0.015625)"/>
      </defs>
      <use xlink:href="#DejaVuSans-20"/>
      <use xlink:href="#DejaVuSans-70" x="31.787109"/>
      <use xlink:href="#DejaVuSans-72" x="95.263672"/>
      <use xlink:href="#DejaVuSans-6f" x="134.126953"/>
      <use xlink:href="#DejaVuSans-62" x="195.308594"/>
      <use xlink:href="#DejaVuSans-61" x="258.785156"/>
      <use xlink:href="#DejaVuSans-62" x="320.064453"/>
      <use xlink:href="#DejaVuSans-69" x="383.541016"/>
      <use xlink:href="#DejaVuSans-6c" x="411.324219"/>
      <use xlink:href="#DejaVuSans-69" x="439.107422"/>
      <use xlink:href="#DejaVuSans-74" x="466.890625"/>
      <use xlink:href="#DejaVuSans-79" x="506.099609"/>
     </g>
    </g>
   </g>
   <g id="patch_3">
    <path d="M 121.2425 416.476875 
L 121.2425 28.396875 
" style="fill: none; stroke: #000000; stroke-width: 0.8; stroke-linejoin: miter; stroke-linecap: square"/>
   </g>
   <g id="patch_4">
    <path d="M 679.2425 416.476875 
L 679.2425 28.396875 
" style="fill: none; stroke: #000000; stroke-width: 0.8; stroke-linejoin: miter; stroke-linecap: square"/>
   </g>
   <g id="patch_5">
    <path d="M 121.2425 416.476875 
L 679.2425 416.476875 
" style="fill: none; stroke: #000000; stroke-width: 0.8; stroke-linejoin: miter; stroke-linecap: square"/>
   </g>
   <g id="patch_6">
    <path d="M 121.2425 28.396875 
L 679.2425 28.396875 
" style="fill: none; stroke: #000000; stroke-width: 0.8; stroke-linejoin: miter; stroke-linecap: square"/>
   </g>
   <g id="text_19">
    <!-- Lineage 2 antigen -->
    <g transform="translate(310.050313 22.396875) scale(0.2 -0.2)">
     <defs>
      <path id="DejaVuSans-4c" d="M 628 4666 
L 1259 4666 
L 1259 531 
L 3531 531 
L 3531 0 
L 628 0 
L 628 4666 
z
" transform="scale(0.015625)"/>
     </defs>
     <use xlink:href="#DejaVuSans-4c"/>
     <use xlink:href="#DejaVuSans-69" x="55.712891"/>
     <use xlink:href="#DejaVuSans-6e" x="83.496094"/>
     <use xlink:href="#DejaVuSans-65" x="146.875"/>
     <use xlink:href="#DejaVuSans-61" x="208.398438"/>
     <use xlink:href="#DejaVuSans-67" x="269.677734"/>
     <use xlink:href="#DejaVuSans-65" x="333.154297"/>
     <use xlink:href="#DejaVuSans-20" x="394.677734"/>
     <use xlink:href="#DejaVuSans-32" x="426.464844"/>
     <use xlink:href="#DejaVuSans-20" x="490.087891"/>
     <use xlink:href="#DejaVuSans-61" x="521.875"/>
     <use xlink:href="#DejaVuSans-6e" x="583.154297"/>
     <use xlink:href="#DejaVuSans-74" x="646.533203"/>
     <use xlink:href="#DejaVuSans-69" x="685.742188"/>
     <use xlink:href="#DejaVuSans-67" x="713.525391"/>
     <use xlink:href="#DejaVuSans-65" x="777.001953"/>
     <use xlink:href="#DejaVuSans-6e" x="838.525391"/>
    </g>
   </g>
   <g id="legend_1">
    <g id="patch_7">
     <path d="M 264.7425 532.900875 
L 426.764375 532.900875 
Q 430.764375 532.900875 430.764375 528.900875 
L 430.764375 501.544625 
Q 430.764375 497.544625 426.764375 497.544625 
L 264.7425 497.544625 
Q 260.7425 497.544625 260.7425 501.544625 
L 260.7425 528.900875 
Q 260.7425 532.900875 264.7425 532.900875 
z
" style="fill: #ffffff; opacity: 0.8; stroke: #cccccc; stroke-linejoin: miter"/>
    </g>
    <g id="patch_8">
     <path d="M 268.7425 520.7415 
L 308.7425 520.7415 
L 308.7425 506.7415 
L 268.7425 506.7415 
z
" style="fill: #ffa500; fill-opacity: 0.3; stroke: #ffa500; stroke-opacity: 0.3; stroke-linejoin: miter"/>
    </g>
    <g id="text_20">
     <!-- Lineage 1 -->
     <g transform="translate(324.7425 520.7415) scale(0.2 -0.2)">
      <use xlink:href="#DejaVuSans-4c"/>
      <use xlink:href="#DejaVuSans-69" x="55.712891"/>
      <use xlink:href="#DejaVuSans-6e" x="83.496094"/>
      <use xlink:href="#DejaVuSans-65" x="146.875"/>
      <use xlink:href="#DejaVuSans-61" x="208.398438"/>
      <use xlink:href="#DejaVuSans-67" x="269.677734"/>
      <use xlink:href="#DejaVuSans-65" x="333.154297"/>
      <use xlink:href="#DejaVuSans-20" x="394.677734"/>
      <use xlink:href="#DejaVuSans-31" x="426.464844"/>
     </g>
    </g>
   </g>
  </g>
 </g>
 <defs>
  <clipPath id="p26a1b0377a">
   <rect x="121.2425" y="28.396875" width="558" height="388.08"/>
  </clipPath>
 </defs>
</svg>
