<?xml version="1.0" encoding="utf-8" standalone="no"?>
<!DOCTYPE svg PUBLIC "-//W3C//DTD SVG 1.1//EN"
  "http://www.w3.org/Graphics/SVG/1.1/DTD/svg11.dtd">
<svg xmlns:xlink="http://www.w3.org/1999/xlink" width="673.7175pt" height="540.100875pt" viewBox="0 0 673.7175 540.100875" xmlns="http://www.w3.org/2000/svg" version="1.1">
 <metadata>
  <rdf:RDF xmlns:dc="http://purl.org/dc/elements/1.1/" xmlns:cc="http://creativecommons.org/ns#" xmlns:rdf="http://www.w3.org/1999/02/22-rdf-syntax-ns#">
   <cc:Work>
    <dc:type rdf:resource="http://purl.org/dc/dcmitype/StillImage"/>
    <dc:date>2024-04-22T11:58:42.127930</dc:date>
    <dc:format>image/svg+xml</dc:format>
    <dc:creator>
     <cc:Agent>
      <dc:title>Matplotlib v3.8.4, https://matplotlib.org/</dc:title>
     </cc:Agent>
    </dc:creator>
   </cc:Work>
  </rdf:RDF>
 </metadata>
 <defs>
  <style type="text/css">*{stroke-linejoin: round; stroke-linecap: butt}</style>
 </defs>
 <g id="figure_1">
  <g id="patch_1">
   <path d="M 0 540.100875 
L 673.7175 540.100875 
L 673.7175 0 
L 0 0 
z
" style="fill: #ffffff"/>
  </g>
  <g id="axes_1">
   <g id="patch_2">
    <path d="M 108.5175 416.476875 
L 666.5175 416.476875 
L 666.5175 28.396875 
L 108.5175 28.396875 
z
" style="fill: #ffffff"/>
   </g>
   <g id="PolyCollection_1">
    <defs>
     <path id="m3301dd6fe3" d="M 133.881136 -289.628272 
L 133.881136 -221.053939 
L 134.656783 -264.287319 
L 135.432429 -299.345771 
L 136.208075 -328.078779 
L 136.983722 -351.849515 
L 137.759368 -371.677904 
L 138.535015 -388.337585 
L 139.310661 -402.422795 
L 140.086307 -414.395275 
L 140.861954 -424.617647 
L 141.6376 -433.377512 
L 142.413246 -440.905054 
L 143.188893 -447.386078 
L 143.964539 -452.971745 
L 144.740186 -457.785949 
L 145.515832 -461.930929 
L 146.291478 -465.491605 
L 147.067125 -468.53894 
L 147.842771 -471.132572 
L 148.618417 -472.745465 
L 149.394064 -470.411721 
L 150.16971 -467.869268 
L 150.945357 -465.142155 
L 151.721003 -462.251322 
L 152.496649 -459.215176 
L 153.272296 -456.050037 
L 154.047942 -452.770483 
L 154.823588 -449.389624 
L 155.599235 -445.919326 
L 156.374881 -442.370375 
L 157.150528 -438.752631 
L 157.926174 -435.075133 
L 158.70182 -431.346202 
L 159.477467 -427.573516 
L 160.253113 -423.764177 
L 161.028759 -419.924769 
L 161.804406 -416.061406 
L 162.580052 -412.17977 
L 163.355698 -408.285152 
L 164.131345 -404.382478 
L 164.906991 -400.476343 
L 165.682638 -396.571027 
L 166.458284 -392.670527 
L 167.23393 -388.778565 
L 168.009577 -384.898617 
L 168.785223 -381.033921 
L 169.560869 -377.187495 
L 170.336516 -373.362148 
L 171.112162 -369.560494 
L 171.887809 -365.784962 
L 172.663455 -362.03781 
L 173.439101 -358.321126 
L 174.214748 -354.636845 
L 174.990394 -350.986755 
L 175.76604 -347.372501 
L 176.541687 -343.795598 
L 177.317333 -340.257432 
L 178.09298 -336.759272 
L 178.868626 -333.30227 
L 179.644272 -329.887471 
L 180.419919 -326.515817 
L 181.195565 -323.188153 
L 181.971211 -319.905228 
L 182.746858 -316.667705 
L 183.522504 -313.476161 
L 184.298151 -310.331096 
L 185.073797 -307.232929 
L 185.849443 -304.182012 
L 186.62509 -301.178625 
L 187.400736 -298.222985 
L 188.176382 -295.315245 
L 188.952029 -292.455504 
L 189.727675 -289.643801 
L 190.503322 -286.880127 
L 191.278968 -284.164421 
L 192.054614 -281.496577 
L 192.830261 -278.876446 
L 193.605907 -276.303836 
L 194.381553 -273.778519 
L 195.1572 -271.300229 
L 195.932846 -268.868666 
L 196.708492 -266.483501 
L 197.484139 -264.144374 
L 198.259785 -261.850897 
L 199.035432 -259.602658 
L 199.811078 -257.399222 
L 200.586724 -255.24013 
L 201.362371 -253.124907 
L 202.138017 -251.053057 
L 202.913663 -249.024068 
L 203.68931 -247.037414 
L 204.464956 -245.092555 
L 205.240603 -243.188939 
L 206.016249 -241.326003 
L 206.791895 -239.503176 
L 207.567542 -237.719876 
L 208.343188 -235.975517 
L 209.118834 -234.269504 
L 209.894481 -232.601239 
L 210.670127 -230.970121 
L 211.445774 -229.375543 
L 212.22142 -227.816898 
L 212.997066 -226.293577 
L 213.772713 -224.804971 
L 214.548359 -223.35047 
L 215.324005 -221.929466 
L 216.099652 -220.541351 
L 216.875298 -219.185522 
L 217.650945 -217.861375 
L 218.426591 -216.568313 
L 219.202237 -215.305739 
L 219.977884 -214.073064 
L 220.75353 -212.869699 
L 221.529176 -211.695064 
L 222.304823 -210.548583 
L 223.080469 -209.429685 
L 223.856116 -208.337805 
L 224.631762 -207.272385 
L 225.407408 -206.232874 
L 226.183055 -205.218726 
L 226.958701 -204.229402 
L 227.734347 -203.264372 
L 228.509994 -202.323112 
L 229.28564 -201.405105 
L 230.061286 -200.509842 
L 230.836933 -199.636822 
L 231.612579 -198.785552 
L 232.388226 -197.955545 
L 233.163872 -197.146323 
L 233.939518 -196.357416 
L 234.715165 -195.588363 
L 235.490811 -194.838708 
L 236.266457 -194.108007 
L 237.042104 -193.395819 
L 237.81775 -192.701715 
L 238.593397 -192.025273 
L 239.369043 -191.366077 
L 240.144689 -190.723721 
L 240.920336 -190.097807 
L 241.695982 -189.487943 
L 242.471628 -188.893746 
L 243.247275 -188.31484 
L 244.022921 -187.750856 
L 244.798568 -187.201434 
L 245.574214 -186.666222 
L 246.34986 -186.144872 
L 247.125507 -185.637047 
L 247.901153 -185.142414 
L 248.676799 -184.66065 
L 249.452446 -184.191437 
L 250.228092 -183.734465 
L 251.003739 -183.289429 
L 251.779385 -182.856034 
L 252.555031 -182.433988 
L 253.330678 -182.023007 
L 254.106324 -181.622814 
L 254.88197 -181.233138 
L 255.657617 -180.853714 
L 256.433263 -180.484282 
L 257.20891 -180.12459 
L 257.984556 -179.774391 
L 258.760202 -179.433442 
L 259.535849 -179.101509 
L 260.311495 -178.778361 
L 261.087141 -178.463773 
L 261.862788 -178.157526 
L 262.638434 -177.859406 
L 263.41408 -177.569203 
L 264.189727 -177.286714 
L 264.965373 -177.011739 
L 265.74102 -176.744084 
L 266.516666 -176.483559 
L 267.292312 -176.229981 
L 268.067959 -175.983167 
L 268.843605 -175.742942 
L 269.619251 -175.509135 
L 270.394898 -175.281578 
L 271.170544 -175.060107 
L 271.946191 -174.844565 
L 272.721837 -174.634794 
L 273.497483 -174.430644 
L 274.27313 -174.231968 
L 275.048776 -174.038622 
L 275.824422 -173.850464 
L 276.600069 -173.667359 
L 277.375715 -173.489174 
L 278.151362 -173.315778 
L 278.927008 -173.147046 
L 279.702654 -172.982853 
L 280.478301 -172.823079 
L 281.253947 -172.667608 
L 282.029593 -172.516326 
L 282.80524 -172.36912 
L 283.580886 -172.225884 
L 284.356533 -172.086511 
L 285.132179 -171.950898 
L 285.907825 -171.818946 
L 286.683472 -171.690557 
L 287.459118 -171.565636 
L 288.234764 -171.44409 
L 289.010411 -171.32583 
L 289.786057 -171.210767 
L 290.561704 -171.098816 
L 291.33735 -170.989894 
L 292.112996 -170.883919 
L 292.888643 -170.780814 
L 293.664289 -170.6805 
L 294.439935 -170.582903 
L 295.215582 -170.48795 
L 295.991228 -170.39557 
L 296.766874 -170.305694 
L 297.542521 -170.218255 
L 298.318167 -170.133188 
L 299.093814 -170.050427 
L 299.86946 -169.969912 
L 300.645106 -169.891582 
L 301.420753 -169.815378 
L 302.196399 -169.741243 
L 302.972045 -169.669121 
L 303.747692 -169.598957 
L 304.523338 -169.5307 
L 305.298985 -169.464296 
L 306.074631 -169.399698 
L 306.850277 -169.336854 
L 307.625924 -169.27572 
L 308.40157 -169.216247 
L 309.177216 -169.158391 
L 309.952863 -169.102109 
L 310.728509 -169.047357 
L 311.504156 -168.994095 
L 312.279802 -168.942283 
L 313.055448 -168.89188 
L 313.831095 -168.842848 
L 314.606741 -168.795152 
L 315.382387 -168.748753 
L 316.158034 -168.703618 
L 316.93368 -168.659712 
L 317.709327 -168.617002 
L 318.484973 -168.575454 
L 319.260619 -168.535039 
L 320.036266 -168.495724 
L 320.811912 -168.457481 
L 321.587558 -168.420279 
L 322.363205 -168.384091 
L 323.138851 -168.348889 
L 323.914497 -168.314647 
L 324.690144 -168.281338 
L 325.46579 -168.248937 
L 326.241437 -168.217419 
L 327.017083 -168.186761 
L 327.792729 -168.156938 
L 328.568376 -168.127929 
L 329.344022 -168.099711 
L 330.119668 -168.072262 
L 330.895315 -168.045562 
L 331.670961 -168.019591 
L 332.446608 -167.994327 
L 333.222254 -167.969753 
L 333.9979 -167.94585 
L 334.773547 -167.922598 
L 335.549193 -167.899981 
L 336.324839 -167.877981 
L 337.100486 -167.856582 
L 337.876132 -167.835766 
L 338.651779 -167.815519 
L 339.427425 -167.795824 
L 340.203071 -167.776667 
L 340.978718 -167.758032 
L 341.754364 -167.739906 
L 342.53001 -167.722275 
L 343.305657 -167.705126 
L 344.081303 -167.688444 
L 344.85695 -167.672218 
L 345.632596 -167.656436 
L 346.408242 -167.641084 
L 347.183889 -167.626151 
L 347.959535 -167.611626 
L 348.735181 -167.597497 
L 349.510828 -167.583755 
L 350.286474 -167.570387 
L 351.062121 -167.557385 
L 351.837767 -167.544738 
L 352.613413 -167.532436 
L 353.38906 -167.520471 
L 354.164706 -167.508832 
L 354.940352 -167.497511 
L 355.715999 -167.486499 
L 356.491645 -167.475788 
L 357.267291 -167.46537 
L 358.042938 -167.455237 
L 358.818584 -167.44538 
L 359.594231 -167.435792 
L 360.369877 -167.426467 
L 361.145523 -167.417396 
L 361.92117 -167.408573 
L 362.696816 -167.399991 
L 363.472462 -167.391643 
L 364.248109 -167.383524 
L 365.023755 -167.375626 
L 365.799402 -167.367945 
L 366.575048 -167.360473 
L 367.350694 -167.353205 
L 368.126341 -167.346136 
L 368.901987 -167.33926 
L 369.677633 -167.332572 
L 370.45328 -167.326067 
L 371.228926 -167.31974 
L 372.004573 -167.313585 
L 372.780219 -167.307599 
L 373.555865 -167.301776 
L 374.331512 -167.296113 
L 375.107158 -167.290604 
L 375.882804 -167.285246 
L 376.658451 -167.280034 
L 377.434097 -167.274965 
L 378.209744 -167.270034 
L 378.98539 -167.265238 
L 379.761036 -167.260573 
L 380.536683 -167.256036 
L 381.312329 -167.251622 
L 382.087975 -167.247329 
L 382.863622 -167.243154 
L 383.639268 -167.239093 
L 384.414915 -167.235143 
L 385.190561 -167.2313 
L 385.966207 -167.227563 
L 386.741854 -167.223928 
L 387.5175 -167.220392 
L 388.293146 -167.216953 
L 389.068793 -167.213608 
L 389.844439 -167.210354 
L 390.620085 -167.20719 
L 391.395732 -167.204112 
L 392.171378 -167.201118 
L 392.947025 -167.198205 
L 393.722671 -167.195373 
L 394.498317 -167.192618 
L 395.273964 -167.189938 
L 396.04961 -167.187331 
L 396.825256 -167.184796 
L 397.600903 -167.18233 
L 398.376549 -167.179932 
L 399.152196 -167.177599 
L 399.927842 -167.175329 
L 400.703488 -167.173122 
L 401.479135 -167.170975 
L 402.254781 -167.168887 
L 403.030427 -167.166856 
L 403.806074 -167.164881 
L 404.58172 -167.162959 
L 405.357367 -167.16109 
L 406.133013 -167.159272 
L 406.908659 -167.157504 
L 407.684306 -167.155784 
L 408.459952 -167.154112 
L 409.235598 -167.152485 
L 410.011245 -167.150902 
L 410.786891 -167.149363 
L 411.562538 -167.147865 
L 412.338184 -167.146409 
L 413.11383 -167.144993 
L 413.889477 -167.143615 
L 414.665123 -167.142275 
L 415.440769 -167.140971 
L 416.216416 -167.139704 
L 416.992062 -167.13847 
L 417.767709 -167.137271 
L 418.543355 -167.136104 
L 419.319001 -167.13497 
L 420.094648 -167.133866 
L 420.870294 -167.132792 
L 421.64594 -167.131748 
L 422.421587 -167.130733 
L 423.197233 -167.129745 
L 423.972879 -167.128784 
L 424.748526 -167.127849 
L 425.524172 -167.12694 
L 426.299819 -167.126056 
L 427.075465 -167.125196 
L 427.851111 -167.12436 
L 428.626758 -167.123546 
L 429.402404 -167.122755 
L 430.17805 -167.121985 
L 430.953697 -167.121237 
L 431.729343 -167.120508 
L 432.50499 -167.1198 
L 433.280636 -167.119111 
L 434.056282 -167.118441 
L 434.831929 -167.117789 
L 435.607575 -167.117155 
L 436.383221 -167.116539 
L 437.158868 -167.115939 
L 437.934514 -167.115356 
L 438.710161 -167.114788 
L 439.485807 -167.114236 
L 440.261453 -167.1137 
L 441.0371 -167.113177 
L 441.812746 -167.11267 
L 442.588392 -167.112176 
L 443.364039 -167.111695 
L 444.139685 -167.111228 
L 444.915332 -167.110773 
L 445.690978 -167.110331 
L 446.466624 -167.109901 
L 447.242271 -167.109483 
L 448.017917 -167.109076 
L 448.793563 -167.108681 
L 449.56921 -167.108296 
L 450.344856 -167.107921 
L 451.120503 -167.107557 
L 451.896149 -167.107203 
L 452.671795 -167.106859 
L 453.447442 -167.106524 
L 454.223088 -167.106198 
L 454.998734 -167.105881 
L 455.774381 -167.105572 
L 456.550027 -167.105272 
L 457.325673 -167.104981 
L 458.10132 -167.104697 
L 458.876966 -167.104421 
L 459.652613 -167.104153 
L 460.428259 -167.103892 
L 461.203905 -167.103638 
L 461.979552 -167.103391 
L 462.755198 -167.103151 
L 463.530844 -167.102917 
L 464.306491 -167.10269 
L 465.082137 -167.102469 
L 465.857784 -167.102254 
L 466.63343 -167.102044 
L 467.409076 -167.101841 
L 468.184723 -167.101643 
L 468.960369 -167.101451 
L 469.736015 -167.101264 
L 470.511662 -167.101082 
L 471.287308 -167.100904 
L 472.062955 -167.100732 
L 472.838601 -167.100565 
L 473.614247 -167.100402 
L 474.389894 -167.100243 
L 475.16554 -167.100089 
L 475.941186 -167.099939 
L 476.716833 -167.099793 
L 477.492479 -167.099651 
L 478.268126 -167.099513 
L 479.043772 -167.099379 
L 479.819418 -167.099249 
L 480.595065 -167.099122 
L 481.370711 -167.098998 
L 482.146357 -167.098878 
L 482.922004 -167.098761 
L 483.69765 -167.098648 
L 484.473296 -167.098537 
L 485.248943 -167.09843 
L 486.024589 -167.098325 
L 486.800236 -167.098223 
L 487.575882 -167.098124 
L 488.351528 -167.098028 
L 489.127175 -167.097935 
L 489.902821 -167.097844 
L 490.678467 -167.097755 
L 491.454114 -167.097669 
L 492.22976 -167.097585 
L 493.005407 -167.097504 
L 493.781053 -167.097424 
L 494.556699 -167.097347 
L 495.332346 -167.097272 
L 496.107992 -167.097199 
L 496.883638 -167.097129 
L 497.659285 -167.09706 
L 498.434931 -167.096992 
L 499.210578 -167.096927 
L 499.986224 -167.096864 
L 500.76187 -167.096802 
L 501.537517 -167.096742 
L 502.313163 -167.096684 
L 503.088809 -167.096627 
L 503.864456 -167.096571 
L 504.640102 -167.096518 
L 505.415749 -167.096465 
L 506.191395 -167.096415 
L 506.967041 -167.096365 
L 507.742688 -167.096317 
L 508.518334 -167.09627 
L 509.29398 -167.096225 
L 510.069627 -167.09618 
L 510.845273 -167.096137 
L 511.62092 -167.096095 
L 512.396566 -167.096055 
L 513.172212 -167.096015 
L 513.947859 -167.095977 
L 514.723505 -167.095939 
L 515.499151 -167.095903 
L 516.274798 -167.095867 
L 517.050444 -167.095833 
L 517.82609 -167.095799 
L 518.601737 -167.095766 
L 519.377383 -167.095735 
L 520.15303 -167.095704 
L 520.928676 -167.095674 
L 521.704322 -167.095645 
L 522.479969 -167.095616 
L 523.255615 -167.095589 
L 524.031261 -167.095562 
L 524.806908 -167.095536 
L 525.582554 -167.09551 
L 526.358201 -167.095485 
L 527.133847 -167.095461 
L 527.909493 -167.095438 
L 528.68514 -167.095415 
L 529.460786 -167.095393 
L 530.236432 -167.095372 
L 531.012079 -167.095351 
L 531.787725 -167.09533 
L 532.563372 -167.09531 
L 533.339018 -167.095291 
L 534.114664 -167.095272 
L 534.890311 -167.095254 
L 535.665957 -167.095236 
L 536.441603 -167.095219 
L 537.21725 -167.095202 
L 537.992896 -167.095186 
L 538.768543 -167.09517 
L 539.544189 -167.095155 
L 540.319835 -167.09514 
L 541.095482 -167.095125 
L 541.871128 -167.095111 
L 542.646774 -167.095097 
L 543.422421 -167.095084 
L 544.198067 -167.095071 
L 544.973714 -167.095058 
L 545.74936 -167.095046 
L 546.525006 -167.095034 
L 547.300653 -167.095022 
L 548.076299 -167.09501 
L 548.851945 -167.094999 
L 549.627592 -167.094989 
L 550.403238 -167.094978 
L 551.178884 -167.094968 
L 551.954531 -167.094958 
L 552.730177 -167.094948 
L 553.505824 -167.094939 
L 554.28147 -167.09493 
L 555.057116 -167.094921 
L 555.832763 -167.094912 
L 556.608409 -167.094904 
L 557.384055 -167.094896 
L 558.159702 -167.094888 
L 558.935348 -167.09488 
L 559.710995 -167.094873 
L 560.486641 -167.094865 
L 561.262287 -167.094858 
L 562.037934 -167.094851 
L 562.81358 -167.094845 
L 563.589226 -167.094838 
L 564.364873 -167.094832 
L 565.140519 -167.094826 
L 565.916166 -167.09482 
L 566.691812 -167.094814 
L 567.467458 -167.094808 
L 568.243105 -167.094803 
L 569.018751 -167.094797 
L 569.794397 -167.094792 
L 570.570044 -167.094787 
L 571.34569 -167.094782 
L 572.121337 -167.094777 
L 572.896983 -167.094772 
L 573.672629 -167.094768 
L 574.448276 -167.094763 
L 575.223922 -167.094759 
L 575.999568 -167.094755 
L 576.775215 -167.094751 
L 577.550861 -167.094747 
L 578.326508 -167.094743 
L 579.102154 -167.094739 
L 579.8778 -167.094736 
L 580.653447 -167.094732 
L 581.429093 -167.094729 
L 582.204739 -167.094725 
L 582.980386 -167.094722 
L 583.756032 -167.094719 
L 584.531678 -167.094716 
L 585.307325 -167.094713 
L 586.082971 -167.09471 
L 586.858618 -167.094707 
L 587.634264 -167.094704 
L 588.40991 -167.094701 
L 589.185557 -167.094699 
L 589.961203 -167.094696 
L 590.736849 -167.094694 
L 591.512496 -167.094691 
L 592.288142 -167.094689 
L 593.063789 -167.094687 
L 593.839435 -167.094685 
L 594.615081 -167.094682 
L 595.390728 -167.09468 
L 596.166374 -167.094678 
L 596.94202 -167.094676 
L 597.717667 -167.094674 
L 598.493313 -167.094672 
L 599.26896 -167.094671 
L 600.044606 -167.094669 
L 600.820252 -167.094667 
L 601.595899 -167.094665 
L 602.371545 -167.094664 
L 603.147191 -167.094662 
L 603.922838 -167.094661 
L 604.698484 -167.094659 
L 605.474131 -167.094658 
L 606.249777 -167.094656 
L 607.025423 -167.094655 
L 607.80107 -167.094654 
L 608.576716 -167.094652 
L 609.352362 -167.094651 
L 610.128009 -167.09465 
L 610.903655 -167.094649 
L 611.679302 -167.094647 
L 612.454948 -167.094646 
L 613.230594 -167.094645 
L 614.006241 -167.094644 
L 614.781887 -167.094643 
L 615.557533 -167.094642 
L 616.33318 -167.094641 
L 617.108826 -167.09464 
L 617.884472 -167.094639 
L 618.660119 -167.094638 
L 619.435765 -167.094637 
L 620.211412 -167.094636 
L 620.987058 -167.094636 
L 621.762704 -167.094635 
L 622.538351 -167.094634 
L 623.313997 -167.094633 
L 624.089643 -167.094632 
L 624.86529 -167.094632 
L 625.640936 -167.094631 
L 626.416583 -167.09463 
L 627.192229 -167.09463 
L 627.967875 -167.094629 
L 628.743522 -167.094628 
L 629.519168 -167.094628 
L 630.294814 -167.094627 
L 631.070461 -167.094627 
L 631.846107 -167.094626 
L 632.621754 -167.094625 
L 633.3974 -167.094625 
L 634.173046 -167.094624 
L 634.948693 -167.094624 
L 635.724339 -167.094623 
L 636.499985 -167.094623 
L 637.275632 -167.094622 
L 638.051278 -167.094622 
L 638.826925 -167.094621 
L 639.602571 -167.094621 
L 640.378217 -167.094621 
L 641.153864 -167.09462 
L 641.153864 -168.372922 
L 641.153864 -168.372922 
L 640.378217 -168.385806 
L 639.602571 -168.398819 
L 638.826925 -168.411964 
L 638.051278 -168.42524 
L 637.275632 -168.438651 
L 636.499985 -168.452196 
L 635.724339 -168.465877 
L 634.948693 -168.479696 
L 634.173046 -168.493654 
L 633.3974 -168.507752 
L 632.621754 -168.521992 
L 631.846107 -168.536376 
L 631.070461 -168.550904 
L 630.294814 -168.565578 
L 629.519168 -168.5804 
L 628.743522 -168.59537 
L 627.967875 -168.610492 
L 627.192229 -168.625765 
L 626.416583 -168.641192 
L 625.640936 -168.656774 
L 624.86529 -168.672512 
L 624.089643 -168.688409 
L 623.313997 -168.704466 
L 622.538351 -168.720684 
L 621.762704 -168.737065 
L 620.987058 -168.753611 
L 620.211412 -168.770323 
L 619.435765 -168.787203 
L 618.660119 -168.804253 
L 617.884472 -168.821474 
L 617.108826 -168.838868 
L 616.33318 -168.856436 
L 615.557533 -168.874182 
L 614.781887 -168.892105 
L 614.006241 -168.910209 
L 613.230594 -168.928495 
L 612.454948 -168.946964 
L 611.679302 -168.965619 
L 610.903655 -168.984461 
L 610.128009 -169.003493 
L 609.352362 -169.022716 
L 608.576716 -169.042131 
L 607.80107 -169.061742 
L 607.025423 -169.08155 
L 606.249777 -169.101557 
L 605.474131 -169.121764 
L 604.698484 -169.142175 
L 603.922838 -169.16279 
L 603.147191 -169.183612 
L 602.371545 -169.204644 
L 601.595899 -169.225886 
L 600.820252 -169.247342 
L 600.044606 -169.269013 
L 599.26896 -169.290902 
L 598.493313 -169.31301 
L 597.717667 -169.33534 
L 596.94202 -169.357894 
L 596.166374 -169.380675 
L 595.390728 -169.403684 
L 594.615081 -169.426924 
L 593.839435 -169.450397 
L 593.063789 -169.474106 
L 592.288142 -169.498052 
L 591.512496 -169.522239 
L 590.736849 -169.546668 
L 589.961203 -169.571342 
L 589.185557 -169.596264 
L 588.40991 -169.621436 
L 587.634264 -169.64686 
L 586.858618 -169.672539 
L 586.082971 -169.698475 
L 585.307325 -169.724672 
L 584.531678 -169.751131 
L 583.756032 -169.777855 
L 582.980386 -169.804847 
L 582.204739 -169.83211 
L 581.429093 -169.859646 
L 580.653447 -169.887458 
L 579.8778 -169.915548 
L 579.102154 -169.94392 
L 578.326508 -169.972576 
L 577.550861 -170.001519 
L 576.775215 -170.030753 
L 575.999568 -170.060279 
L 575.223922 -170.0901 
L 574.448276 -170.120221 
L 573.672629 -170.150642 
L 572.896983 -170.181369 
L 572.121337 -170.212403 
L 571.34569 -170.243748 
L 570.570044 -170.275407 
L 569.794397 -170.307382 
L 569.018751 -170.339678 
L 568.243105 -170.372297 
L 567.467458 -170.405242 
L 566.691812 -170.438517 
L 565.916166 -170.472124 
L 565.140519 -170.506068 
L 564.364873 -170.540352 
L 563.589226 -170.574978 
L 562.81358 -170.609951 
L 562.037934 -170.645273 
L 561.262287 -170.680949 
L 560.486641 -170.716981 
L 559.710995 -170.753374 
L 558.935348 -170.79013 
L 558.159702 -170.827254 
L 557.384055 -170.864749 
L 556.608409 -170.902618 
L 555.832763 -170.940866 
L 555.057116 -170.979496 
L 554.28147 -171.018512 
L 553.505824 -171.057918 
L 552.730177 -171.097717 
L 551.954531 -171.137914 
L 551.178884 -171.178512 
L 550.403238 -171.219516 
L 549.627592 -171.260929 
L 548.851945 -171.302755 
L 548.076299 -171.344999 
L 547.300653 -171.387664 
L 546.525006 -171.430755 
L 545.74936 -171.474276 
L 544.973714 -171.518231 
L 544.198067 -171.562625 
L 543.422421 -171.607462 
L 542.646774 -171.652745 
L 541.871128 -171.698481 
L 541.095482 -171.744672 
L 540.319835 -171.791323 
L 539.544189 -171.83844 
L 538.768543 -171.886027 
L 537.992896 -171.934087 
L 537.21725 -171.982626 
L 536.441603 -172.031649 
L 535.665957 -172.081161 
L 534.890311 -172.131165 
L 534.114664 -172.181668 
L 533.339018 -172.232673 
L 532.563372 -172.284186 
L 531.787725 -172.336212 
L 531.012079 -172.388756 
L 530.236432 -172.441822 
L 529.460786 -172.495417 
L 528.68514 -172.549545 
L 527.909493 -172.604211 
L 527.133847 -172.659421 
L 526.358201 -172.71518 
L 525.582554 -172.771493 
L 524.806908 -172.828366 
L 524.031261 -172.885804 
L 523.255615 -172.943813 
L 522.479969 -173.002399 
L 521.704322 -173.061567 
L 520.928676 -173.121322 
L 520.15303 -173.181671 
L 519.377383 -173.242619 
L 518.601737 -173.304172 
L 517.82609 -173.366336 
L 517.050444 -173.429117 
L 516.274798 -173.492521 
L 515.499151 -173.556554 
L 514.723505 -173.621222 
L 513.947859 -173.686532 
L 513.172212 -173.752489 
L 512.396566 -173.8191 
L 511.62092 -173.886371 
L 510.845273 -173.954309 
L 510.069627 -174.02292 
L 509.29398 -174.092211 
L 508.518334 -174.162188 
L 507.742688 -174.232859 
L 506.967041 -174.304228 
L 506.191395 -174.376305 
L 505.415749 -174.449094 
L 504.640102 -174.522604 
L 503.864456 -174.596841 
L 503.088809 -174.671812 
L 502.313163 -174.747525 
L 501.537517 -174.823986 
L 500.76187 -174.901203 
L 499.986224 -174.979183 
L 499.210578 -175.057934 
L 498.434931 -175.137462 
L 497.659285 -175.217776 
L 496.883638 -175.298883 
L 496.107992 -175.38079 
L 495.332346 -175.463506 
L 494.556699 -175.547038 
L 493.781053 -175.631394 
L 493.005407 -175.716582 
L 492.22976 -175.80261 
L 491.454114 -175.889485 
L 490.678467 -175.977217 
L 489.902821 -176.065814 
L 489.127175 -176.155283 
L 488.351528 -176.245633 
L 487.575882 -176.336872 
L 486.800236 -176.42901 
L 486.024589 -176.522054 
L 485.248943 -176.616014 
L 484.473296 -176.710897 
L 483.69765 -176.806714 
L 482.922004 -176.903472 
L 482.146357 -177.001182 
L 481.370711 -177.099851 
L 480.595065 -177.199489 
L 479.819418 -177.300106 
L 479.043772 -177.40171 
L 478.268126 -177.504311 
L 477.492479 -177.607919 
L 476.716833 -177.712543 
L 475.941186 -177.818192 
L 475.16554 -177.924878 
L 474.389894 -178.032608 
L 473.614247 -178.141394 
L 472.838601 -178.251245 
L 472.062955 -178.362172 
L 471.287308 -178.474184 
L 470.511662 -178.587292 
L 469.736015 -178.701506 
L 468.960369 -178.816837 
L 468.184723 -178.933295 
L 467.409076 -179.050891 
L 466.63343 -179.169636 
L 465.857784 -179.28954 
L 465.082137 -179.410614 
L 464.306491 -179.53287 
L 463.530844 -179.656318 
L 462.755198 -179.78097 
L 461.979552 -179.906836 
L 461.203905 -180.03393 
L 460.428259 -180.162261 
L 459.652613 -180.291841 
L 458.876966 -180.422683 
L 458.10132 -180.554797 
L 457.325673 -180.688197 
L 456.550027 -180.822893 
L 455.774381 -180.958898 
L 454.998734 -181.096225 
L 454.223088 -181.234885 
L 453.447442 -181.374891 
L 452.671795 -181.516255 
L 451.896149 -181.65899 
L 451.120503 -181.803109 
L 450.344856 -181.948625 
L 449.56921 -182.09555 
L 448.793563 -182.243898 
L 448.017917 -182.393681 
L 447.242271 -182.544914 
L 446.466624 -182.697608 
L 445.690978 -182.851779 
L 444.915332 -183.007439 
L 444.139685 -183.164602 
L 443.364039 -183.323283 
L 442.588392 -183.483494 
L 441.812746 -183.64525 
L 441.0371 -183.808566 
L 440.261453 -183.973454 
L 439.485807 -184.139931 
L 438.710161 -184.30801 
L 437.934514 -184.477706 
L 437.158868 -184.649033 
L 436.383221 -184.822007 
L 435.607575 -184.996643 
L 434.831929 -185.172956 
L 434.056282 -185.35096 
L 433.280636 -185.530671 
L 432.50499 -185.712105 
L 431.729343 -185.895278 
L 430.953697 -186.080204 
L 430.17805 -186.2669 
L 429.402404 -186.455382 
L 428.626758 -186.645666 
L 427.851111 -186.837768 
L 427.075465 -187.031704 
L 426.299819 -187.227491 
L 425.524172 -187.425146 
L 424.748526 -187.624684 
L 423.972879 -187.826124 
L 423.197233 -188.029481 
L 422.421587 -188.234774 
L 421.64594 -188.442018 
L 420.870294 -188.651232 
L 420.094648 -188.862434 
L 419.319001 -189.075639 
L 418.543355 -189.290868 
L 417.767709 -189.508136 
L 416.992062 -189.727463 
L 416.216416 -189.948866 
L 415.440769 -190.172364 
L 414.665123 -190.397974 
L 413.889477 -190.625717 
L 413.11383 -190.855609 
L 412.338184 -191.087671 
L 411.562538 -191.321921 
L 410.786891 -191.558377 
L 410.011245 -191.79706 
L 409.235598 -192.037989 
L 408.459952 -192.281182 
L 407.684306 -192.52666 
L 406.908659 -192.774443 
L 406.133013 -193.02455 
L 405.357367 -193.277001 
L 404.58172 -193.531816 
L 403.806074 -193.789016 
L 403.030427 -194.048622 
L 402.254781 -194.310653 
L 401.479135 -194.57513 
L 400.703488 -194.842075 
L 399.927842 -195.111507 
L 399.152196 -195.38345 
L 398.376549 -195.657922 
L 397.600903 -195.934947 
L 396.825256 -196.214545 
L 396.04961 -196.496738 
L 395.273964 -196.781548 
L 394.498317 -197.068997 
L 393.722671 -197.359107 
L 392.947025 -197.6519 
L 392.171378 -197.947398 
L 391.395732 -198.245624 
L 390.620085 -198.546601 
L 389.844439 -198.850351 
L 389.068793 -199.156898 
L 388.293146 -199.466263 
L 387.5175 -199.778471 
L 386.741854 -200.093545 
L 385.966207 -200.411507 
L 385.190561 -200.732382 
L 384.414915 -201.056194 
L 383.639268 -201.382965 
L 382.863622 -201.712721 
L 382.087975 -202.045485 
L 381.312329 -202.381281 
L 380.536683 -202.720134 
L 379.761036 -203.062069 
L 378.98539 -203.407109 
L 378.209744 -203.755279 
L 377.434097 -204.106606 
L 376.658451 -204.461112 
L 375.882804 -204.818824 
L 375.107158 -205.179767 
L 374.331512 -205.543966 
L 373.555865 -205.911447 
L 372.780219 -206.282234 
L 372.004573 -206.656355 
L 371.228926 -207.033835 
L 370.45328 -207.414699 
L 369.677633 -207.798974 
L 368.901987 -208.186686 
L 368.126341 -208.577862 
L 367.350694 -208.972527 
L 366.575048 -209.370709 
L 365.799402 -209.772434 
L 365.023755 -210.177728 
L 364.248109 -210.586619 
L 363.472462 -210.999133 
L 362.696816 -211.415298 
L 361.92117 -211.835141 
L 361.145523 -212.258689 
L 360.369877 -212.685969 
L 359.594231 -213.117009 
L 358.818584 -213.551837 
L 358.042938 -213.990479 
L 357.267291 -214.432964 
L 356.491645 -214.87932 
L 355.715999 -215.329574 
L 354.940352 -215.783755 
L 354.164706 -216.24189 
L 353.38906 -216.704008 
L 352.613413 -217.170137 
L 351.837767 -217.640305 
L 351.062121 -218.114541 
L 350.286474 -218.592873 
L 349.510828 -219.075329 
L 348.735181 -219.561938 
L 347.959535 -220.052728 
L 347.183889 -220.547729 
L 346.408242 -221.046969 
L 345.632596 -221.550476 
L 344.85695 -222.05828 
L 344.081303 -222.570409 
L 343.305657 -223.086893 
L 342.53001 -223.607759 
L 341.754364 -224.133038 
L 340.978718 -224.662757 
L 340.203071 -225.196947 
L 339.427425 -225.735636 
L 338.651779 -226.278852 
L 337.876132 -226.826626 
L 337.100486 -227.378986 
L 336.324839 -227.93596 
L 335.549193 -228.497579 
L 334.773547 -229.063871 
L 333.9979 -229.634865 
L 333.222254 -230.210591 
L 332.446608 -230.791076 
L 331.670961 -231.37635 
L 330.895315 -231.966443 
L 330.119668 -232.561382 
L 329.344022 -233.161196 
L 328.568376 -233.765915 
L 327.792729 -234.375568 
L 327.017083 -234.990181 
L 326.241437 -235.609786 
L 325.46579 -236.234409 
L 324.690144 -236.864079 
L 323.914497 -237.498825 
L 323.138851 -238.138675 
L 322.363205 -238.783657 
L 321.587558 -239.4338 
L 320.811912 -240.08913 
L 320.036266 -240.749677 
L 319.260619 -241.415467 
L 318.484973 -242.086528 
L 317.709327 -242.762888 
L 316.93368 -243.444574 
L 316.158034 -244.131614 
L 315.382387 -244.824033 
L 314.606741 -245.52186 
L 313.831095 -246.22512 
L 313.055448 -246.933841 
L 312.279802 -247.648048 
L 311.504156 -248.367767 
L 310.728509 -249.093026 
L 309.952863 -249.823848 
L 309.177216 -250.560259 
L 308.40157 -251.302286 
L 307.625924 -252.049952 
L 306.850277 -252.803283 
L 306.074631 -253.562303 
L 305.298985 -254.327036 
L 304.523338 -255.097506 
L 303.747692 -255.873736 
L 302.972045 -256.655751 
L 302.196399 -257.443573 
L 301.420753 -258.237225 
L 300.645106 -259.036729 
L 299.86946 -259.842108 
L 299.093814 -260.653382 
L 298.318167 -261.470574 
L 297.542521 -262.293705 
L 296.766874 -263.122794 
L 295.991228 -263.957863 
L 295.215582 -264.798931 
L 294.439935 -265.646018 
L 293.664289 -266.499142 
L 292.888643 -267.358323 
L 292.112996 -268.223578 
L 291.33735 -269.094925 
L 290.561704 -269.972381 
L 289.786057 -270.855964 
L 289.010411 -271.745689 
L 288.234764 -272.641572 
L 287.459118 -273.543628 
L 286.683472 -274.451873 
L 285.907825 -275.36632 
L 285.132179 -276.286983 
L 284.356533 -277.213875 
L 283.580886 -278.147009 
L 282.80524 -279.086396 
L 282.029593 -280.032048 
L 281.253947 -280.983976 
L 280.478301 -281.942189 
L 279.702654 -282.906698 
L 278.927008 -283.877511 
L 278.151362 -284.854635 
L 277.375715 -285.83808 
L 276.600069 -286.82785 
L 275.824422 -287.823953 
L 275.048776 -288.826394 
L 274.27313 -289.835177 
L 273.497483 -290.850306 
L 272.721837 -291.871785 
L 271.946191 -292.899615 
L 271.170544 -293.933799 
L 270.394898 -294.974336 
L 269.619251 -296.021227 
L 268.843605 -297.074471 
L 268.067959 -298.134067 
L 267.292312 -299.20001 
L 266.516666 -300.272299 
L 265.74102 -301.350928 
L 264.965373 -302.435893 
L 264.189727 -303.527187 
L 263.41408 -304.624802 
L 262.638434 -305.728731 
L 261.862788 -306.838965 
L 261.087141 -307.955494 
L 260.311495 -309.078306 
L 259.535849 -310.20739 
L 258.760202 -311.342732 
L 257.984556 -312.484319 
L 257.20891 -313.632134 
L 256.433263 -314.786163 
L 255.657617 -315.946387 
L 254.88197 -317.112787 
L 254.106324 -318.285345 
L 253.330678 -319.46404 
L 252.555031 -320.64885 
L 251.779385 -321.839751 
L 251.003739 -323.03672 
L 250.228092 -324.239731 
L 249.452446 -325.448757 
L 248.676799 -326.663771 
L 247.901153 -327.884743 
L 247.125507 -329.111643 
L 246.34986 -330.344439 
L 245.574214 -331.583099 
L 244.798568 -332.827588 
L 244.022921 -334.07787 
L 243.247275 -335.333908 
L 242.471628 -336.595665 
L 241.695982 -337.8631 
L 240.920336 -339.136171 
L 240.144689 -340.414838 
L 239.369043 -341.699054 
L 238.593397 -342.988776 
L 237.81775 -344.283956 
L 237.042104 -345.584545 
L 236.266457 -346.890493 
L 235.490811 -348.20175 
L 234.715165 -349.518261 
L 233.939518 -350.839972 
L 233.163872 -352.166826 
L 232.388226 -353.498766 
L 231.612579 -354.835731 
L 230.836933 -356.177661 
L 230.061286 -357.524493 
L 229.28564 -358.87616 
L 228.509994 -360.232597 
L 227.734347 -361.593735 
L 226.958701 -362.959504 
L 226.183055 -364.329831 
L 225.407408 -365.704643 
L 224.631762 -367.083862 
L 223.856116 -368.467411 
L 223.080469 -369.855209 
L 222.304823 -371.247174 
L 221.529176 -372.643222 
L 220.75353 -374.043265 
L 219.977884 -375.447215 
L 219.202237 -376.854979 
L 218.426591 -378.266465 
L 217.650945 -379.681575 
L 216.875298 -381.100211 
L 216.099652 -382.522271 
L 215.324005 -383.94765 
L 214.548359 -385.376242 
L 213.772713 -386.807936 
L 212.997066 -388.242619 
L 212.22142 -389.680174 
L 211.445774 -391.120482 
L 210.670127 -392.56342 
L 209.894481 -394.00886 
L 209.118834 -395.456673 
L 208.343188 -396.906723 
L 207.567542 -398.358873 
L 206.791895 -399.812978 
L 206.016249 -401.268892 
L 205.240603 -402.726463 
L 204.464956 -404.185532 
L 203.68931 -405.645937 
L 202.913663 -407.107511 
L 202.138017 -408.570079 
L 201.362371 -410.03346 
L 200.586724 -411.497469 
L 199.811078 -412.96191 
L 199.035432 -414.426582 
L 198.259785 -415.891276 
L 197.484139 -417.355774 
L 196.708492 -418.819851 
L 195.932846 -420.283268 
L 195.1572 -421.745782 
L 194.381553 -423.207133 
L 193.605907 -424.667055 
L 192.830261 -426.125265 
L 192.054614 -427.581471 
L 191.278968 -429.035363 
L 190.503322 -430.48662 
L 189.727675 -431.934902 
L 188.952029 -433.379853 
L 188.176382 -434.821099 
L 187.400736 -436.258244 
L 186.62509 -437.690873 
L 185.849443 -439.118547 
L 185.073797 -440.540804 
L 184.298151 -441.957155 
L 183.522504 -443.36708 
L 182.746858 -444.770033 
L 181.971211 -446.165432 
L 181.195565 -447.552661 
L 180.419919 -448.931065 
L 179.644272 -450.299948 
L 178.868626 -451.658571 
L 178.09298 -453.006144 
L 177.317333 -454.341827 
L 176.541687 -455.664723 
L 175.76604 -456.973875 
L 174.990394 -458.268257 
L 174.214748 -459.546773 
L 173.439101 -460.808249 
L 172.663455 -462.051424 
L 171.887809 -463.274944 
L 171.112162 -464.477355 
L 170.336516 -465.65709 
L 169.560869 -466.812462 
L 168.785223 -467.941647 
L 168.009577 -469.042677 
L 167.23393 -470.113422 
L 166.458284 -471.15157 
L 165.682638 -472.154615 
L 164.906991 -473.119829 
L 164.131345 -474.044242 
L 163.355698 -474.924609 
L 162.580052 -475.757385 
L 161.804406 -476.538681 
L 161.028759 -477.26423 
L 160.253113 -477.929328 
L 159.477467 -478.528788 
L 158.70182 -479.056866 
L 157.926174 -479.507189 
L 157.150528 -479.872663 
L 156.374881 -480.145368 
L 155.599235 -480.31643 
L 154.823588 -480.375873 
L 154.047942 -480.312445 
L 153.272296 -480.216823 
L 152.496649 -480.357525 
L 151.721003 -480.356799 
L 150.945357 -480.19717 
L 150.16971 -480.286534 
L 149.394064 -480.375873 
L 148.618417 -480.277585 
L 147.842771 -480.125891 
L 147.067125 -480.346431 
L 146.291478 -480.344583 
L 145.515832 -480.075736 
L 144.740186 -480.223001 
L 143.964539 -480.375873 
L 143.188893 -480.195805 
L 142.413246 -479.588399 
L 141.6376 -478.427645 
L 140.861954 -476.542602 
L 140.086307 -473.696842 
L 139.310661 -469.555688 
L 138.535015 -463.632118 
L 137.759368 -455.193775 
L 136.983722 -443.095621 
L 136.208075 -425.46222 
L 135.432429 -399.045198 
L 134.656783 -357.820857 
L 133.881136 -289.628272 
z
" style="stroke: #ffa500; stroke-opacity: 0.3"/>
    </defs>
    <g clip-path="url(#pee20545678)">
     <use xlink:href="#m3301dd6fe3" x="0" y="540.100875" style="fill: #ffa500; fill-opacity: 0.3; stroke: #ffa500; stroke-opacity: 0.3"/>
    </g>
   </g>
   <g id="matplotlib.axis_1">
    <g id="xtick_1">
     <g id="line2d_1">
      <defs>
       <path id="m4e634ac959" d="M 0 0 
L 0 3.5 
" style="stroke: #000000; stroke-width: 0.8"/>
      </defs>
      <g>
       <use xlink:href="#m4e634ac959" x="133.10549" y="416.476875" style="stroke: #000000; stroke-width: 0.8"/>
      </g>
     </g>
     <g id="text_1">
      <!-- 0 -->
      <g transform="translate(126.74299 438.67375) scale(0.2 -0.2)">
       <defs>
        <path id="DejaVuSans-30" d="M 2034 4250 
Q 1547 4250 1301 3770 
Q 1056 3291 1056 2328 
Q 1056 1369 1301 889 
Q 1547 409 2034 409 
Q 2525 409 2770 889 
Q 3016 1369 3016 2328 
Q 3016 3291 2770 3770 
Q 2525 4250 2034 4250 
z
M 2034 4750 
Q 2819 4750 3233 4129 
Q 3647 3509 3647 2328 
Q 3647 1150 3233 529 
Q 2819 -91 2034 -91 
Q 1250 -91 836 529 
Q 422 1150 422 2328 
Q 422 3509 836 4129 
Q 1250 4750 2034 4750 
z
" transform="scale(0.015625)"/>
       </defs>
       <use xlink:href="#DejaVuSans-30"/>
      </g>
     </g>
    </g>
    <g id="xtick_2">
     <g id="line2d_2">
      <g>
       <use xlink:href="#m4e634ac959" x="210.670127" y="416.476875" style="stroke: #000000; stroke-width: 0.8"/>
      </g>
     </g>
     <g id="text_2">
      <!-- 100 -->
      <g transform="translate(191.582627 438.67375) scale(0.2 -0.2)">
       <defs>
        <path id="DejaVuSans-31" d="M 794 531 
L 1825 531 
L 1825 4091 
L 703 3866 
L 703 4441 
L 1819 4666 
L 2450 4666 
L 2450 531 
L 3481 531 
L 3481 0 
L 794 0 
L 794 531 
z
" transform="scale(0.015625)"/>
       </defs>
       <use xlink:href="#DejaVuSans-31"/>
       <use xlink:href="#DejaVuSans-30" x="63.623047"/>
       <use xlink:href="#DejaVuSans-30" x="127.246094"/>
      </g>
     </g>
    </g>
    <g id="xtick_3">
     <g id="line2d_3">
      <g>
       <use xlink:href="#m4e634ac959" x="288.234764" y="416.476875" style="stroke: #000000; stroke-width: 0.8"/>
      </g>
     </g>
     <g id="text_3">
      <!-- 200 -->
      <g transform="translate(269.147264 438.67375) scale(0.2 -0.2)">
       <defs>
        <path id="DejaVuSans-32" d="M 1228 531 
L 3431 531 
L 3431 0 
L 469 0 
L 469 531 
Q 828 903 1448 1529 
Q 2069 2156 2228 2338 
Q 2531 2678 2651 2914 
Q 2772 3150 2772 3378 
Q 2772 3750 2511 3984 
Q 2250 4219 1831 4219 
Q 1534 4219 1204 4116 
Q 875 4013 500 3803 
L 500 4441 
Q 881 4594 1212 4672 
Q 1544 4750 1819 4750 
Q 2544 4750 2975 4387 
Q 3406 4025 3406 3419 
Q 3406 3131 3298 2873 
Q 3191 2616 2906 2266 
Q 2828 2175 2409 1742 
Q 1991 1309 1228 531 
z
" transform="scale(0.015625)"/>
       </defs>
       <use xlink:href="#DejaVuSans-32"/>
       <use xlink:href="#DejaVuSans-30" x="63.623047"/>
       <use xlink:href="#DejaVuSans-30" x="127.246094"/>
      </g>
     </g>
    </g>
    <g id="xtick_4">
     <g id="line2d_4">
      <g>
       <use xlink:href="#m4e634ac959" x="365.799402" y="416.476875" style="stroke: #000000; stroke-width: 0.8"/>
      </g>
     </g>
     <g id="text_4">
      <!-- 300 -->
      <g transform="translate(346.711902 438.67375) scale(0.2 -0.2)">
       <defs>
        <path id="DejaVuSans-33" d="M 2597 2516 
Q 3050 2419 3304 2112 
Q 3559 1806 3559 1356 
Q 3559 666 3084 287 
Q 2609 -91 1734 -91 
Q 1441 -91 1130 -33 
Q 819 25 488 141 
L 488 750 
Q 750 597 1062 519 
Q 1375 441 1716 441 
Q 2309 441 2620 675 
Q 2931 909 2931 1356 
Q 2931 1769 2642 2001 
Q 2353 2234 1838 2234 
L 1294 2234 
L 1294 2753 
L 1863 2753 
Q 2328 2753 2575 2939 
Q 2822 3125 2822 3475 
Q 2822 3834 2567 4026 
Q 2313 4219 1838 4219 
Q 1578 4219 1281 4162 
Q 984 4106 628 3988 
L 628 4550 
Q 988 4650 1302 4700 
Q 1616 4750 1894 4750 
Q 2613 4750 3031 4423 
Q 3450 4097 3450 3541 
Q 3450 3153 3228 2886 
Q 3006 2619 2597 2516 
z
" transform="scale(0.015625)"/>
       </defs>
       <use xlink:href="#DejaVuSans-33"/>
       <use xlink:href="#DejaVuSans-30" x="63.623047"/>
       <use xlink:href="#DejaVuSans-30" x="127.246094"/>
      </g>
     </g>
    </g>
    <g id="xtick_5">
     <g id="line2d_5">
      <g>
       <use xlink:href="#m4e634ac959" x="443.364039" y="416.476875" style="stroke: #000000; stroke-width: 0.8"/>
      </g>
     </g>
     <g id="text_5">
      <!-- 400 -->
      <g transform="translate(424.276539 438.67375) scale(0.2 -0.2)">
       <defs>
        <path id="DejaVuSans-34" d="M 2419 4116 
L 825 1625 
L 2419 1625 
L 2419 4116 
z
M 2253 4666 
L 3047 4666 
L 3047 1625 
L 3713 1625 
L 3713 1100 
L 3047 1100 
L 3047 0 
L 2419 0 
L 2419 1100 
L 313 1100 
L 313 1709 
L 2253 4666 
z
" transform="scale(0.015625)"/>
       </defs>
       <use xlink:href="#DejaVuSans-34"/>
       <use xlink:href="#DejaVuSans-30" x="63.623047"/>
       <use xlink:href="#DejaVuSans-30" x="127.246094"/>
      </g>
     </g>
    </g>
    <g id="xtick_6">
     <g id="line2d_6">
      <g>
       <use xlink:href="#m4e634ac959" x="520.928676" y="416.476875" style="stroke: #000000; stroke-width: 0.8"/>
      </g>
     </g>
     <g id="text_6">
      <!-- 500 -->
      <g transform="translate(501.841176 438.67375) scale(0.2 -0.2)">
       <defs>
        <path id="DejaVuSans-35" d="M 691 4666 
L 3169 4666 
L 3169 4134 
L 1269 4134 
L 1269 2991 
Q 1406 3038 1543 3061 
Q 1681 3084 1819 3084 
Q 2600 3084 3056 2656 
Q 3513 2228 3513 1497 
Q 3513 744 3044 326 
Q 2575 -91 1722 -91 
Q 1428 -91 1123 -41 
Q 819 9 494 109 
L 494 744 
Q 775 591 1075 516 
Q 1375 441 1709 441 
Q 2250 441 2565 725 
Q 2881 1009 2881 1497 
Q 2881 1984 2565 2268 
Q 2250 2553 1709 2553 
Q 1456 2553 1204 2497 
Q 953 2441 691 2322 
L 691 4666 
z
" transform="scale(0.015625)"/>
       </defs>
       <use xlink:href="#DejaVuSans-35"/>
       <use xlink:href="#DejaVuSans-30" x="63.623047"/>
       <use xlink:href="#DejaVuSans-30" x="127.246094"/>
      </g>
     </g>
    </g>
    <g id="xtick_7">
     <g id="line2d_7">
      <g>
       <use xlink:href="#m4e634ac959" x="598.493313" y="416.476875" style="stroke: #000000; stroke-width: 0.8"/>
      </g>
     </g>
     <g id="text_7">
      <!-- 600 -->
      <g transform="translate(579.405813 438.67375) scale(0.2 -0.2)">
       <defs>
        <path id="DejaVuSans-36" d="M 2113 2584 
Q 1688 2584 1439 2293 
Q 1191 2003 1191 1497 
Q 1191 994 1439 701 
Q 1688 409 2113 409 
Q 2538 409 2786 701 
Q 3034 994 3034 1497 
Q 3034 2003 2786 2293 
Q 2538 2584 2113 2584 
z
M 3366 4563 
L 3366 3988 
Q 3128 4100 2886 4159 
Q 2644 4219 2406 4219 
Q 1781 4219 1451 3797 
Q 1122 3375 1075 2522 
Q 1259 2794 1537 2939 
Q 1816 3084 2150 3084 
Q 2853 3084 3261 2657 
Q 3669 2231 3669 1497 
Q 3669 778 3244 343 
Q 2819 -91 2113 -91 
Q 1303 -91 875 529 
Q 447 1150 447 2328 
Q 447 3434 972 4092 
Q 1497 4750 2381 4750 
Q 2619 4750 2861 4703 
Q 3103 4656 3366 4563 
z
" transform="scale(0.015625)"/>
       </defs>
       <use xlink:href="#DejaVuSans-36"/>
       <use xlink:href="#DejaVuSans-30" x="63.623047"/>
       <use xlink:href="#DejaVuSans-30" x="127.246094"/>
      </g>
     </g>
    </g>
    <g id="text_8">
     <!-- Days since antigen exposure -->
     <g transform="translate(243.097188 462.03) scale(0.2 -0.2)">
      <defs>
       <path id="DejaVuSans-44" d="M 1259 4147 
L 1259 519 
L 2022 519 
Q 2988 519 3436 956 
Q 3884 1394 3884 2338 
Q 3884 3275 3436 3711 
Q 2988 4147 2022 4147 
L 1259 4147 
z
M 628 4666 
L 1925 4666 
Q 3281 4666 3915 4102 
Q 4550 3538 4550 2338 
Q 4550 1131 3912 565 
Q 3275 0 1925 0 
L 628 0 
L 628 4666 
z
" transform="scale(0.015625)"/>
       <path id="DejaVuSans-61" d="M 2194 1759 
Q 1497 1759 1228 1600 
Q 959 1441 959 1056 
Q 959 750 1161 570 
Q 1363 391 1709 391 
Q 2188 391 2477 730 
Q 2766 1069 2766 1631 
L 2766 1759 
L 2194 1759 
z
M 3341 1997 
L 3341 0 
L 2766 0 
L 2766 531 
Q 2569 213 2275 61 
Q 1981 -91 1556 -91 
Q 1019 -91 701 211 
Q 384 513 384 1019 
Q 384 1609 779 1909 
Q 1175 2209 1959 2209 
L 2766 2209 
L 2766 2266 
Q 2766 2663 2505 2880 
Q 2244 3097 1772 3097 
Q 1472 3097 1187 3025 
Q 903 2953 641 2809 
L 641 3341 
Q 956 3463 1253 3523 
Q 1550 3584 1831 3584 
Q 2591 3584 2966 3190 
Q 3341 2797 3341 1997 
z
" transform="scale(0.015625)"/>
       <path id="DejaVuSans-79" d="M 2059 -325 
Q 1816 -950 1584 -1140 
Q 1353 -1331 966 -1331 
L 506 -1331 
L 506 -850 
L 844 -850 
Q 1081 -850 1212 -737 
Q 1344 -625 1503 -206 
L 1606 56 
L 191 3500 
L 800 3500 
L 1894 763 
L 2988 3500 
L 3597 3500 
L 2059 -325 
z
" transform="scale(0.015625)"/>
       <path id="DejaVuSans-73" d="M 2834 3397 
L 2834 2853 
Q 2591 2978 2328 3040 
Q 2066 3103 1784 3103 
Q 1356 3103 1142 2972 
Q 928 2841 928 2578 
Q 928 2378 1081 2264 
Q 1234 2150 1697 2047 
L 1894 2003 
Q 2506 1872 2764 1633 
Q 3022 1394 3022 966 
Q 3022 478 2636 193 
Q 2250 -91 1575 -91 
Q 1294 -91 989 -36 
Q 684 19 347 128 
L 347 722 
Q 666 556 975 473 
Q 1284 391 1588 391 
Q 1994 391 2212 530 
Q 2431 669 2431 922 
Q 2431 1156 2273 1281 
Q 2116 1406 1581 1522 
L 1381 1569 
Q 847 1681 609 1914 
Q 372 2147 372 2553 
Q 372 3047 722 3315 
Q 1072 3584 1716 3584 
Q 2034 3584 2315 3537 
Q 2597 3491 2834 3397 
z
" transform="scale(0.015625)"/>
       <path id="DejaVuSans-20" transform="scale(0.015625)"/>
       <path id="DejaVuSans-69" d="M 603 3500 
L 1178 3500 
L 1178 0 
L 603 0 
L 603 3500 
z
M 603 4863 
L 1178 4863 
L 1178 4134 
L 603 4134 
L 603 4863 
z
" transform="scale(0.015625)"/>
       <path id="DejaVuSans-6e" d="M 3513 2113 
L 3513 0 
L 2938 0 
L 2938 2094 
Q 2938 2591 2744 2837 
Q 2550 3084 2163 3084 
Q 1697 3084 1428 2787 
Q 1159 2491 1159 1978 
L 1159 0 
L 581 0 
L 581 3500 
L 1159 3500 
L 1159 2956 
Q 1366 3272 1645 3428 
Q 1925 3584 2291 3584 
Q 2894 3584 3203 3211 
Q 3513 2838 3513 2113 
z
" transform="scale(0.015625)"/>
       <path id="DejaVuSans-63" d="M 3122 3366 
L 3122 2828 
Q 2878 2963 2633 3030 
Q 2388 3097 2138 3097 
Q 1578 3097 1268 2742 
Q 959 2388 959 1747 
Q 959 1106 1268 751 
Q 1578 397 2138 397 
Q 2388 397 2633 464 
Q 2878 531 3122 666 
L 3122 134 
Q 2881 22 2623 -34 
Q 2366 -91 2075 -91 
Q 1284 -91 818 406 
Q 353 903 353 1747 
Q 353 2603 823 3093 
Q 1294 3584 2113 3584 
Q 2378 3584 2631 3529 
Q 2884 3475 3122 3366 
z
" transform="scale(0.015625)"/>
       <path id="DejaVuSans-65" d="M 3597 1894 
L 3597 1613 
L 953 1613 
Q 991 1019 1311 708 
Q 1631 397 2203 397 
Q 2534 397 2845 478 
Q 3156 559 3463 722 
L 3463 178 
Q 3153 47 2828 -22 
Q 2503 -91 2169 -91 
Q 1331 -91 842 396 
Q 353 884 353 1716 
Q 353 2575 817 3079 
Q 1281 3584 2069 3584 
Q 2775 3584 3186 3129 
Q 3597 2675 3597 1894 
z
M 3022 2063 
Q 3016 2534 2758 2815 
Q 2500 3097 2075 3097 
Q 1594 3097 1305 2825 
Q 1016 2553 972 2059 
L 3022 2063 
z
" transform="scale(0.015625)"/>
       <path id="DejaVuSans-74" d="M 1172 4494 
L 1172 3500 
L 2356 3500 
L 2356 3053 
L 1172 3053 
L 1172 1153 
Q 1172 725 1289 603 
Q 1406 481 1766 481 
L 2356 481 
L 2356 0 
L 1766 0 
Q 1100 0 847 248 
Q 594 497 594 1153 
L 594 3053 
L 172 3053 
L 172 3500 
L 594 3500 
L 594 4494 
L 1172 4494 
z
" transform="scale(0.015625)"/>
       <path id="DejaVuSans-67" d="M 2906 1791 
Q 2906 2416 2648 2759 
Q 2391 3103 1925 3103 
Q 1463 3103 1205 2759 
Q 947 2416 947 1791 
Q 947 1169 1205 825 
Q 1463 481 1925 481 
Q 2391 481 2648 825 
Q 2906 1169 2906 1791 
z
M 3481 434 
Q 3481 -459 3084 -895 
Q 2688 -1331 1869 -1331 
Q 1566 -1331 1297 -1286 
Q 1028 -1241 775 -1147 
L 775 -588 
Q 1028 -725 1275 -790 
Q 1522 -856 1778 -856 
Q 2344 -856 2625 -561 
Q 2906 -266 2906 331 
L 2906 616 
Q 2728 306 2450 153 
Q 2172 0 1784 0 
Q 1141 0 747 490 
Q 353 981 353 1791 
Q 353 2603 747 3093 
Q 1141 3584 1784 3584 
Q 2172 3584 2450 3431 
Q 2728 3278 2906 2969 
L 2906 3500 
L 3481 3500 
L 3481 434 
z
" transform="scale(0.015625)"/>
       <path id="DejaVuSans-78" d="M 3513 3500 
L 2247 1797 
L 3578 0 
L 2900 0 
L 1881 1375 
L 863 0 
L 184 0 
L 1544 1831 
L 300 3500 
L 978 3500 
L 1906 2253 
L 2834 3500 
L 3513 3500 
z
" transform="scale(0.015625)"/>
       <path id="DejaVuSans-70" d="M 1159 525 
L 1159 -1331 
L 581 -1331 
L 581 3500 
L 1159 3500 
L 1159 2969 
Q 1341 3281 1617 3432 
Q 1894 3584 2278 3584 
Q 2916 3584 3314 3078 
Q 3713 2572 3713 1747 
Q 3713 922 3314 415 
Q 2916 -91 2278 -91 
Q 1894 -91 1617 61 
Q 1341 213 1159 525 
z
M 3116 1747 
Q 3116 2381 2855 2742 
Q 2594 3103 2138 3103 
Q 1681 3103 1420 2742 
Q 1159 2381 1159 1747 
Q 1159 1113 1420 752 
Q 1681 391 2138 391 
Q 2594 391 2855 752 
Q 3116 1113 3116 1747 
z
" transform="scale(0.015625)"/>
       <path id="DejaVuSans-6f" d="M 1959 3097 
Q 1497 3097 1228 2736 
Q 959 2375 959 1747 
Q 959 1119 1226 758 
Q 1494 397 1959 397 
Q 2419 397 2687 759 
Q 2956 1122 2956 1747 
Q 2956 2369 2687 2733 
Q 2419 3097 1959 3097 
z
M 1959 3584 
Q 2709 3584 3137 3096 
Q 3566 2609 3566 1747 
Q 3566 888 3137 398 
Q 2709 -91 1959 -91 
Q 1206 -91 779 398 
Q 353 888 353 1747 
Q 353 2609 779 3096 
Q 1206 3584 1959 3584 
z
" transform="scale(0.015625)"/>
       <path id="DejaVuSans-75" d="M 544 1381 
L 544 3500 
L 1119 3500 
L 1119 1403 
Q 1119 906 1312 657 
Q 1506 409 1894 409 
Q 2359 409 2629 706 
Q 2900 1003 2900 1516 
L 2900 3500 
L 3475 3500 
L 3475 0 
L 2900 0 
L 2900 538 
Q 2691 219 2414 64 
Q 2138 -91 1772 -91 
Q 1169 -91 856 284 
Q 544 659 544 1381 
z
M 1991 3584 
L 1991 3584 
z
" transform="scale(0.015625)"/>
       <path id="DejaVuSans-72" d="M 2631 2963 
Q 2534 3019 2420 3045 
Q 2306 3072 2169 3072 
Q 1681 3072 1420 2755 
Q 1159 2438 1159 1844 
L 1159 0 
L 581 0 
L 581 3500 
L 1159 3500 
L 1159 2956 
Q 1341 3275 1631 3429 
Q 1922 3584 2338 3584 
Q 2397 3584 2469 3576 
Q 2541 3569 2628 3553 
L 2631 2963 
z
" transform="scale(0.015625)"/>
      </defs>
      <use xlink:href="#DejaVuSans-44"/>
      <use xlink:href="#DejaVuSans-61" x="77.001953"/>
      <use xlink:href="#DejaVuSans-79" x="138.28125"/>
      <use xlink:href="#DejaVuSans-73" x="197.460938"/>
      <use xlink:href="#DejaVuSans-20" x="249.560547"/>
      <use xlink:href="#DejaVuSans-73" x="281.347656"/>
      <use xlink:href="#DejaVuSans-69" x="333.447266"/>
      <use xlink:href="#DejaVuSans-6e" x="361.230469"/>
      <use xlink:href="#DejaVuSans-63" x="424.609375"/>
      <use xlink:href="#DejaVuSans-65" x="479.589844"/>
      <use xlink:href="#DejaVuSans-20" x="541.113281"/>
      <use xlink:href="#DejaVuSans-61" x="572.900391"/>
      <use xlink:href="#DejaVuSans-6e" x="634.179688"/>
      <use xlink:href="#DejaVuSans-74" x="697.558594"/>
      <use xlink:href="#DejaVuSans-69" x="736.767578"/>
      <use xlink:href="#DejaVuSans-67" x="764.550781"/>
      <use xlink:href="#DejaVuSans-65" x="828.027344"/>
      <use xlink:href="#DejaVuSans-6e" x="889.550781"/>
      <use xlink:href="#DejaVuSans-20" x="952.929688"/>
      <use xlink:href="#DejaVuSans-65" x="984.716797"/>
      <use xlink:href="#DejaVuSans-78" x="1044.490234"/>
      <use xlink:href="#DejaVuSans-70" x="1103.669922"/>
      <use xlink:href="#DejaVuSans-6f" x="1167.146484"/>
      <use xlink:href="#DejaVuSans-73" x="1228.328125"/>
      <use xlink:href="#DejaVuSans-75" x="1280.427734"/>
      <use xlink:href="#DejaVuSans-72" x="1343.806641"/>
      <use xlink:href="#DejaVuSans-65" x="1382.669922"/>
     </g>
    </g>
   </g>
   <g id="matplotlib.axis_2">
    <g id="ytick_1">
     <g id="line2d_8">
      <defs>
       <path id="mba6dde205a" d="M 0 0 
L -3.5 0 
" style="stroke: #000000; stroke-width: 0.8"/>
      </defs>
      <g>
       <use xlink:href="#mba6dde205a" x="108.5175" y="416.476875" style="stroke: #000000; stroke-width: 0.8"/>
      </g>
     </g>
     <g id="text_9">
      <!-- 0.1 -->
      <g transform="translate(52.951875 424.075312) scale(0.2 -0.2)">
       <defs>
        <path id="DejaVuSans-2212" d="M 678 2272 
L 4684 2272 
L 4684 1741 
L 678 1741 
L 678 2272 
z
" transform="scale(0.015625)"/>
        <path id="DejaVuSans-2e" d="M 684 794 
L 1344 794 
L 1344 0 
L 684 0 
L 684 794 
z
" transform="scale(0.015625)"/>
       </defs>
       <use xlink:href="#DejaVuSans-2212"/>
       <use xlink:href="#DejaVuSans-30" x="83.789062"/>
       <use xlink:href="#DejaVuSans-2e" x="147.412109"/>
       <use xlink:href="#DejaVuSans-31" x="179.199219"/>
      </g>
     </g>
    </g>
    <g id="ytick_2">
     <g id="line2d_9">
      <g>
       <use xlink:href="#mba6dde205a" x="108.5175" y="373.006269" style="stroke: #000000; stroke-width: 0.8"/>
      </g>
     </g>
     <g id="text_10">
      <!-- 0.0 -->
      <g transform="translate(69.71125 380.604707) scale(0.2 -0.2)">
       <use xlink:href="#DejaVuSans-30"/>
       <use xlink:href="#DejaVuSans-2e" x="63.623047"/>
       <use xlink:href="#DejaVuSans-30" x="95.410156"/>
      </g>
     </g>
    </g>
    <g id="ytick_3">
     <g id="line2d_10">
      <g>
       <use xlink:href="#mba6dde205a" x="108.5175" y="329.535664" style="stroke: #000000; stroke-width: 0.8"/>
      </g>
     </g>
     <g id="text_11">
      <!-- 0.1 -->
      <g transform="translate(69.71125 337.134101) scale(0.2 -0.2)">
       <use xlink:href="#DejaVuSans-30"/>
       <use xlink:href="#DejaVuSans-2e" x="63.623047"/>
       <use xlink:href="#DejaVuSans-31" x="95.410156"/>
      </g>
     </g>
    </g>
    <g id="ytick_4">
     <g id="line2d_11">
      <g>
       <use xlink:href="#mba6dde205a" x="108.5175" y="286.065058" style="stroke: #000000; stroke-width: 0.8"/>
      </g>
     </g>
     <g id="text_12">
      <!-- 0.2 -->
      <g transform="translate(69.71125 293.663495) scale(0.2 -0.2)">
       <use xlink:href="#DejaVuSans-30"/>
       <use xlink:href="#DejaVuSans-2e" x="63.623047"/>
       <use xlink:href="#DejaVuSans-32" x="95.410156"/>
      </g>
     </g>
    </g>
    <g id="ytick_5">
     <g id="line2d_12">
      <g>
       <use xlink:href="#mba6dde205a" x="108.5175" y="242.594452" style="stroke: #000000; stroke-width: 0.8"/>
      </g>
     </g>
     <g id="text_13">
      <!-- 0.3 -->
      <g transform="translate(69.71125 250.19289) scale(0.2 -0.2)">
       <use xlink:href="#DejaVuSans-30"/>
       <use xlink:href="#DejaVuSans-2e" x="63.623047"/>
       <use xlink:href="#DejaVuSans-33" x="95.410156"/>
      </g>
     </g>
    </g>
    <g id="ytick_6">
     <g id="line2d_13">
      <g>
       <use xlink:href="#mba6dde205a" x="108.5175" y="199.123847" style="stroke: #000000; stroke-width: 0.8"/>
      </g>
     </g>
     <g id="text_14">
      <!-- 0.4 -->
      <g transform="translate(69.71125 206.722284) scale(0.2 -0.2)">
       <use xlink:href="#DejaVuSans-30"/>
       <use xlink:href="#DejaVuSans-2e" x="63.623047"/>
       <use xlink:href="#DejaVuSans-34" x="95.410156"/>
      </g>
     </g>
    </g>
    <g id="ytick_7">
     <g id="line2d_14">
      <g>
       <use xlink:href="#mba6dde205a" x="108.5175" y="155.653241" style="stroke: #000000; stroke-width: 0.8"/>
      </g>
     </g>
     <g id="text_15">
      <!-- 0.5 -->
      <g transform="translate(69.71125 163.251678) scale(0.2 -0.2)">
       <use xlink:href="#DejaVuSans-30"/>
       <use xlink:href="#DejaVuSans-2e" x="63.623047"/>
       <use xlink:href="#DejaVuSans-35" x="95.410156"/>
      </g>
     </g>
    </g>
    <g id="ytick_8">
     <g id="line2d_15">
      <g>
       <use xlink:href="#mba6dde205a" x="108.5175" y="112.182635" style="stroke: #000000; stroke-width: 0.8"/>
      </g>
     </g>
     <g id="text_16">
      <!-- 0.6 -->
      <g transform="translate(69.71125 119.781073) scale(0.2 -0.2)">
       <use xlink:href="#DejaVuSans-30"/>
       <use xlink:href="#DejaVuSans-2e" x="63.623047"/>
       <use xlink:href="#DejaVuSans-36" x="95.410156"/>
      </g>
     </g>
    </g>
    <g id="ytick_9">
     <g id="line2d_16">
      <g>
       <use xlink:href="#mba6dde205a" x="108.5175" y="68.71203" style="stroke: #000000; stroke-width: 0.8"/>
      </g>
     </g>
     <g id="text_17">
      <!-- 0.7 -->
      <g transform="translate(69.71125 76.310467) scale(0.2 -0.2)">
       <defs>
        <path id="DejaVuSans-37" d="M 525 4666 
L 3525 4666 
L 3525 4397 
L 1831 0 
L 1172 0 
L 2766 4134 
L 525 4134 
L 525 4666 
z
" transform="scale(0.015625)"/>
       </defs>
       <use xlink:href="#DejaVuSans-30"/>
       <use xlink:href="#DejaVuSans-2e" x="63.623047"/>
       <use xlink:href="#DejaVuSans-37" x="95.410156"/>
      </g>
     </g>
    </g>
    <g id="text_18">
     <!-- Virus neutralization -->
     <g transform="translate(22.396875 319.741562) rotate(-90) scale(0.2 -0.2)">
      <defs>
       <path id="DejaVuSans-56" d="M 1831 0 
L 50 4666 
L 709 4666 
L 2188 738 
L 3669 4666 
L 4325 4666 
L 2547 0 
L 1831 0 
z
" transform="scale(0.015625)"/>
       <path id="DejaVuSans-6c" d="M 603 4863 
L 1178 4863 
L 1178 0 
L 603 0 
L 603 4863 
z
" transform="scale(0.015625)"/>
       <path id="DejaVuSans-7a" d="M 353 3500 
L 3084 3500 
L 3084 2975 
L 922 459 
L 3084 459 
L 3084 0 
L 275 0 
L 275 525 
L 2438 3041 
L 353 3041 
L 353 3500 
z
" transform="scale(0.015625)"/>
      </defs>
      <use xlink:href="#DejaVuSans-56"/>
      <use xlink:href="#DejaVuSans-69" x="66.158203"/>
      <use xlink:href="#DejaVuSans-72" x="93.941406"/>
      <use xlink:href="#DejaVuSans-75" x="135.054688"/>
      <use xlink:href="#DejaVuSans-73" x="198.433594"/>
      <use xlink:href="#DejaVuSans-20" x="250.533203"/>
      <use xlink:href="#DejaVuSans-6e" x="282.320312"/>
      <use xlink:href="#DejaVuSans-65" x="345.699219"/>
      <use xlink:href="#DejaVuSans-75" x="407.222656"/>
      <use xlink:href="#DejaVuSans-74" x="470.601562"/>
      <use xlink:href="#DejaVuSans-72" x="509.810547"/>
      <use xlink:href="#DejaVuSans-61" x="550.923828"/>
      <use xlink:href="#DejaVuSans-6c" x="612.203125"/>
      <use xlink:href="#DejaVuSans-69" x="639.986328"/>
      <use xlink:href="#DejaVuSans-7a" x="667.769531"/>
      <use xlink:href="#DejaVuSans-61" x="720.259766"/>
      <use xlink:href="#DejaVuSans-74" x="781.539062"/>
      <use xlink:href="#DejaVuSans-69" x="820.748047"/>
      <use xlink:href="#DejaVuSans-6f" x="848.53125"/>
      <use xlink:href="#DejaVuSans-6e" x="909.712891"/>
     </g>
     <!--  probability -->
     <g transform="translate(44.7925 278.966562) rotate(-90) scale(0.2 -0.2)">
      <defs>
       <path id="DejaVuSans-62" d="M 3116 1747 
Q 3116 2381 2855 2742 
Q 2594 3103 2138 3103 
Q 1681 3103 1420 2742 
Q 1159 2381 1159 1747 
Q 1159 1113 1420 752 
Q 1681 391 2138 391 
Q 2594 391 2855 752 
Q 3116 1113 3116 1747 
z
M 1159 2969 
Q 1341 3281 1617 3432 
Q 1894 3584 2278 3584 
Q 2916 3584 3314 3078 
Q 3713 2572 3713 1747 
Q 3713 922 3314 415 
Q 2916 -91 2278 -91 
Q 1894 -91 1617 61 
Q 1341 213 1159 525 
L 1159 0 
L 581 0 
L 581 4863 
L 1159 4863 
L 1159 2969 
z
" transform="scale(0.015625)"/>
      </defs>
      <use xlink:href="#DejaVuSans-20"/>
      <use xlink:href="#DejaVuSans-70" x="31.787109"/>
      <use xlink:href="#DejaVuSans-72" x="95.263672"/>
      <use xlink:href="#DejaVuSans-6f" x="134.126953"/>
      <use xlink:href="#DejaVuSans-62" x="195.308594"/>
      <use xlink:href="#DejaVuSans-61" x="258.785156"/>
      <use xlink:href="#DejaVuSans-62" x="320.064453"/>
      <use xlink:href="#DejaVuSans-69" x="383.541016"/>
      <use xlink:href="#DejaVuSans-6c" x="411.324219"/>
      <use xlink:href="#DejaVuSans-69" x="439.107422"/>
      <use xlink:href="#DejaVuSans-74" x="466.890625"/>
      <use xlink:href="#DejaVuSans-79" x="506.099609"/>
     </g>
    </g>
   </g>
   <g id="patch_3">
    <path d="M 108.5175 416.476875 
L 108.5175 28.396875 
" style="fill: none; stroke: #000000; stroke-width: 0.8; stroke-linejoin: miter; stroke-linecap: square"/>
   </g>
   <g id="patch_4">
    <path d="M 666.5175 416.476875 
L 666.5175 28.396875 
" style="fill: none; stroke: #000000; stroke-width: 0.8; stroke-linejoin: miter; stroke-linecap: square"/>
   </g>
   <g id="patch_5">
    <path d="M 108.5175 416.476875 
L 666.5175 416.476875 
" style="fill: none; stroke: #000000; stroke-width: 0.8; stroke-linejoin: miter; stroke-linecap: square"/>
   </g>
   <g id="patch_6">
    <path d="M 108.5175 28.396875 
L 666.5175 28.396875 
" style="fill: none; stroke: #000000; stroke-width: 0.8; stroke-linejoin: miter; stroke-linecap: square"/>
   </g>
   <g id="text_19">
    <!-- BA.3 antigen -->
    <g transform="translate(323.269063 22.396875) scale(0.2 -0.2)">
     <defs>
      <path id="DejaVuSans-42" d="M 1259 2228 
L 1259 519 
L 2272 519 
Q 2781 519 3026 730 
Q 3272 941 3272 1375 
Q 3272 1813 3026 2020 
Q 2781 2228 2272 2228 
L 1259 2228 
z
M 1259 4147 
L 1259 2741 
L 2194 2741 
Q 2656 2741 2882 2914 
Q 3109 3088 3109 3444 
Q 3109 3797 2882 3972 
Q 2656 4147 2194 4147 
L 1259 4147 
z
M 628 4666 
L 2241 4666 
Q 2963 4666 3353 4366 
Q 3744 4066 3744 3513 
Q 3744 3084 3544 2831 
Q 3344 2578 2956 2516 
Q 3422 2416 3680 2098 
Q 3938 1781 3938 1306 
Q 3938 681 3513 340 
Q 3088 0 2303 0 
L 628 0 
L 628 4666 
z
" transform="scale(0.015625)"/>
      <path id="DejaVuSans-41" d="M 2188 4044 
L 1331 1722 
L 3047 1722 
L 2188 4044 
z
M 1831 4666 
L 2547 4666 
L 4325 0 
L 3669 0 
L 3244 1197 
L 1141 1197 
L 716 0 
L 50 0 
L 1831 4666 
z
" transform="scale(0.015625)"/>
     </defs>
     <use xlink:href="#DejaVuSans-42"/>
     <use xlink:href="#DejaVuSans-41" x="68.603516"/>
     <use xlink:href="#DejaVuSans-2e" x="135.261719"/>
     <use xlink:href="#DejaVuSans-33" x="167.048828"/>
     <use xlink:href="#DejaVuSans-20" x="230.671875"/>
     <use xlink:href="#DejaVuSans-61" x="262.458984"/>
     <use xlink:href="#DejaVuSans-6e" x="323.738281"/>
     <use xlink:href="#DejaVuSans-74" x="387.117188"/>
     <use xlink:href="#DejaVuSans-69" x="426.326172"/>
     <use xlink:href="#DejaVuSans-67" x="454.109375"/>
     <use xlink:href="#DejaVuSans-65" x="517.585938"/>
     <use xlink:href="#DejaVuSans-6e" x="579.109375"/>
    </g>
   </g>
   <g id="legend_1">
    <g id="patch_7">
     <path d="M 252.0175 532.900875 
L 362.151875 532.900875 
Q 366.151875 532.900875 366.151875 528.900875 
L 366.151875 501.544625 
Q 366.151875 497.544625 362.151875 497.544625 
L 252.0175 497.544625 
Q 248.0175 497.544625 248.0175 501.544625 
L 248.0175 528.900875 
Q 248.0175 532.900875 252.0175 532.900875 
z
" style="fill: #ffffff; opacity: 0.8; stroke: #cccccc; stroke-linejoin: miter"/>
    </g>
    <g id="patch_8">
     <path d="M 256.0175 520.7415 
L 296.0175 520.7415 
L 296.0175 506.7415 
L 256.0175 506.7415 
z
" style="fill: #ffa500; fill-opacity: 0.3; stroke: #ffa500; stroke-opacity: 0.3; stroke-linejoin: miter"/>
    </g>
    <g id="text_20">
     <!-- BA.2 -->
     <g transform="translate(312.0175 520.7415) scale(0.2 -0.2)">
      <use xlink:href="#DejaVuSans-42"/>
      <use xlink:href="#DejaVuSans-41" x="68.603516"/>
      <use xlink:href="#DejaVuSans-2e" x="135.261719"/>
      <use xlink:href="#DejaVuSans-32" x="167.048828"/>
     </g>
    </g>
   </g>
  </g>
 </g>
 <defs>
  <clipPath id="pee20545678">
   <rect x="108.5175" y="28.396875" width="558" height="388.08"/>
  </clipPath>
 </defs>
</svg>
