<?xml version="1.0" encoding="utf-8" standalone="no"?>
<!DOCTYPE svg PUBLIC "-//W3C//DTD SVG 1.1//EN"
  "http://www.w3.org/Graphics/SVG/1.1/DTD/svg11.dtd">
<svg xmlns:xlink="http://www.w3.org/1999/xlink" width="656.958125pt" height="540.100875pt" viewBox="0 0 656.958125 540.100875" xmlns="http://www.w3.org/2000/svg" version="1.1">
 <metadata>
  <rdf:RDF xmlns:dc="http://purl.org/dc/elements/1.1/" xmlns:cc="http://creativecommons.org/ns#" xmlns:rdf="http://www.w3.org/1999/02/22-rdf-syntax-ns#">
   <cc:Work>
    <dc:type rdf:resource="http://purl.org/dc/dcmitype/StillImage"/>
    <dc:date>2024-04-22T17:55:51.225418</dc:date>
    <dc:format>image/svg+xml</dc:format>
    <dc:creator>
     <cc:Agent>
      <dc:title>Matplotlib v3.8.4, https://matplotlib.org/</dc:title>
     </cc:Agent>
    </dc:creator>
   </cc:Work>
  </rdf:RDF>
 </metadata>
 <defs>
  <style type="text/css">*{stroke-linejoin: round; stroke-linecap: butt}</style>
 </defs>
 <g id="figure_1">
  <g id="patch_1">
   <path d="M 0 540.100875 
L 656.958125 540.100875 
L 656.958125 0 
L 0 0 
z
" style="fill: #ffffff"/>
  </g>
  <g id="axes_1">
   <g id="patch_2">
    <path d="M 91.758125 416.476875 
L 649.758125 416.476875 
L 649.758125 28.396875 
L 91.758125 28.396875 
z
" style="fill: #ffffff"/>
   </g>
   <g id="PolyCollection_1">
    <defs>
     <path id="m0044b43efc" d="M 117.121761 -316.436844 
L 117.121761 -234.260947 
L 117.897408 -287.543741 
L 118.673054 -327.063278 
L 119.4487 -357.025653 
L 120.224347 -380.176445 
L 120.999993 -398.359923 
L 121.77564 -412.846513 
L 122.551286 -424.531088 
L 123.326932 -434.056661 
L 124.102579 -441.893591 
L 124.878225 -448.391528 
L 125.653871 -453.814209 
L 126.429518 -458.363218 
L 127.205164 -462.194509 
L 127.980811 -465.430069 
L 128.756457 -468.166289 
L 129.532103 -470.480043 
L 130.30775 -472.433162 
L 131.083396 -474.075768 
L 131.859042 -475.08808 
L 132.634689 -473.62106 
L 133.410335 -472.006096 
L 134.185982 -470.254475 
L 134.961628 -468.375876 
L 135.737274 -466.378732 
L 136.512921 -464.270507 
L 137.288567 -462.057899 
L 138.064213 -459.747004 
L 138.83986 -457.343436 
L 139.615506 -454.852426 
L 140.391153 -452.278889 
L 141.166799 -449.627487 
L 141.942445 -446.902671 
L 142.718092 -444.108714 
L 143.493738 -441.249742 
L 144.269384 -438.329751 
L 145.045031 -435.352626 
L 145.820677 -432.322149 
L 146.596323 -429.242016 
L 147.37197 -426.115835 
L 148.147616 -422.947138 
L 148.923263 -419.739382 
L 149.698909 -416.495953 
L 150.474555 -413.220164 
L 151.250202 -409.91526 
L 152.025848 -406.584419 
L 152.801494 -403.230747 
L 153.577141 -399.857281 
L 154.352787 -396.46699 
L 155.128434 -393.06277 
L 155.90408 -389.647445 
L 156.679726 -386.223769 
L 157.455373 -382.794419 
L 158.231019 -379.361999 
L 159.006665 -375.929036 
L 159.782312 -372.497981 
L 160.557958 -369.071208 
L 161.333605 -365.651011 
L 162.109251 -362.239608 
L 162.884897 -358.839133 
L 163.660544 -355.451645 
L 164.43619 -352.079118 
L 165.211836 -348.72345 
L 165.987483 -345.386456 
L 166.763129 -342.069871 
L 167.538776 -338.77535 
L 168.314422 -335.50447 
L 169.090068 -332.258728 
L 169.865715 -329.039541 
L 170.641361 -325.848251 
L 171.417007 -322.686122 
L 172.192654 -319.554342 
L 172.9683 -316.454025 
L 173.743947 -313.386212 
L 174.519593 -310.351872 
L 175.295239 -307.351903 
L 176.070886 -304.387134 
L 176.846532 -301.458327 
L 177.622178 -298.566179 
L 178.397825 -295.711321 
L 179.173471 -292.894324 
L 179.949117 -290.115696 
L 180.724764 -287.37589 
L 181.50041 -284.675298 
L 182.276057 -282.01426 
L 183.051703 -279.393063 
L 183.827349 -276.811942 
L 184.602996 -274.271084 
L 185.378642 -271.770628 
L 186.154288 -269.310669 
L 186.929935 -266.891258 
L 187.705581 -264.512406 
L 188.481228 -262.174082 
L 189.256874 -259.876221 
L 190.03252 -257.61872 
L 190.808167 -255.401444 
L 191.583813 -253.224223 
L 192.359459 -251.086861 
L 193.135106 -248.98913 
L 193.910752 -246.930776 
L 194.686399 -244.911522 
L 195.462045 -242.931066 
L 196.237691 -240.989082 
L 197.013338 -239.085226 
L 197.788984 -237.219135 
L 198.56463 -235.390426 
L 199.340277 -233.598704 
L 200.115923 -231.843554 
L 200.89157 -230.12455 
L 201.667216 -228.441255 
L 202.442862 -226.793217 
L 203.218509 -225.179977 
L 203.994155 -223.601066 
L 204.769801 -222.056006 
L 205.545448 -220.544313 
L 206.321094 -219.065496 
L 207.096741 -217.619061 
L 207.872387 -216.204506 
L 208.648033 -214.821329 
L 209.42368 -213.469023 
L 210.199326 -212.14708 
L 210.974972 -210.854991 
L 211.750619 -209.592244 
L 212.526265 -208.35833 
L 213.301911 -207.152739 
L 214.077558 -205.974962 
L 214.853204 -204.824491 
L 215.628851 -203.700821 
L 216.404497 -202.603451 
L 217.180143 -201.531879 
L 217.95579 -200.485609 
L 218.731436 -199.464149 
L 219.507082 -198.467009 
L 220.282729 -197.493706 
L 221.058375 -196.543758 
L 221.834022 -195.616692 
L 222.609668 -194.712036 
L 223.385314 -193.829327 
L 224.160961 -192.968105 
L 224.936607 -192.127916 
L 225.712253 -191.308314 
L 226.4879 -190.508855 
L 227.263546 -189.729105 
L 228.039193 -188.968635 
L 228.814839 -188.227021 
L 229.590485 -187.503847 
L 230.366132 -186.798702 
L 231.141778 -186.111184 
L 231.917424 -185.440895 
L 232.693071 -184.787444 
L 233.468717 -184.150448 
L 234.244364 -183.52953 
L 235.02001 -182.92432 
L 235.795656 -182.334452 
L 236.571303 -181.759571 
L 237.346949 -181.199326 
L 238.122595 -180.653372 
L 238.898242 -180.121373 
L 239.673888 -179.602997 
L 240.449535 -179.097919 
L 241.225181 -178.605823 
L 242.000827 -178.126395 
L 242.776474 -177.659331 
L 243.55212 -177.204332 
L 244.327766 -176.761104 
L 245.103413 -176.329361 
L 245.879059 -175.908822 
L 246.654705 -175.499212 
L 247.430352 -175.100262 
L 248.205998 -174.71171 
L 248.981645 -174.333297 
L 249.757291 -173.964771 
L 250.532937 -173.605888 
L 251.308584 -173.256405 
L 252.08423 -172.916088 
L 252.859876 -172.584706 
L 253.635523 -172.262036 
L 254.411169 -171.947856 
L 255.186816 -171.641952 
L 255.962462 -171.344116 
L 256.738108 -171.054141 
L 257.513755 -170.771828 
L 258.289401 -170.496982 
L 259.065047 -170.229411 
L 259.840694 -169.96893 
L 260.61634 -169.715357 
L 261.391987 -169.468513 
L 262.167633 -169.228227 
L 262.943279 -168.994329 
L 263.718926 -168.766653 
L 264.494572 -168.54504 
L 265.270218 -168.329331 
L 266.045865 -168.119374 
L 266.821511 -167.915019 
L 267.597158 -167.716121 
L 268.372804 -167.522537 
L 269.14845 -167.334128 
L 269.924097 -167.15076 
L 270.699743 -166.9723 
L 271.475389 -166.798619 
L 272.251036 -166.629594 
L 273.026682 -166.4651 
L 273.802329 -166.30502 
L 274.577975 -166.149237 
L 275.353621 -165.997637 
L 276.129268 -165.850111 
L 276.904914 -165.706551 
L 277.68056 -165.566852 
L 278.456207 -165.430911 
L 279.231853 -165.298631 
L 280.007499 -165.169912 
L 280.783146 -165.044662 
L 281.558792 -164.922787 
L 282.334439 -164.804199 
L 283.110085 -164.68881 
L 283.885731 -164.576534 
L 284.661378 -164.467289 
L 285.437024 -164.360994 
L 286.21267 -164.257571 
L 286.988317 -164.156942 
L 287.763963 -164.059033 
L 288.53961 -163.963772 
L 289.315256 -163.871087 
L 290.090902 -163.78091 
L 290.866549 -163.693174 
L 291.642195 -163.607813 
L 292.417841 -163.524763 
L 293.193488 -163.443963 
L 293.969134 -163.365352 
L 294.744781 -163.288871 
L 295.520427 -163.214464 
L 296.296073 -163.142073 
L 297.07172 -163.071647 
L 297.847366 -163.00313 
L 298.623012 -162.936473 
L 299.398659 -162.871624 
L 300.174305 -162.808536 
L 300.949952 -162.74716 
L 301.725598 -162.687451 
L 302.501244 -162.629364 
L 303.276891 -162.572855 
L 304.052537 -162.517881 
L 304.828183 -162.464401 
L 305.60383 -162.412374 
L 306.379476 -162.361762 
L 307.155122 -162.312525 
L 307.930769 -162.264628 
L 308.706415 -162.218033 
L 309.482062 -162.172706 
L 310.257708 -162.128611 
L 311.033354 -162.085717 
L 311.809001 -162.043989 
L 312.584647 -162.003398 
L 313.360293 -161.963911 
L 314.13594 -161.925499 
L 314.911586 -161.888133 
L 315.687233 -161.851784 
L 316.462879 -161.816425 
L 317.238525 -161.78203 
L 318.014172 -161.748571 
L 318.789818 -161.716023 
L 319.565464 -161.684363 
L 320.341111 -161.653565 
L 321.116757 -161.623606 
L 321.892404 -161.594463 
L 322.66805 -161.566115 
L 323.443696 -161.53854 
L 324.219343 -161.511716 
L 324.994989 -161.485624 
L 325.770635 -161.460243 
L 326.546282 -161.435554 
L 327.321928 -161.411538 
L 328.097575 -161.388177 
L 328.873221 -161.365453 
L 329.648867 -161.343349 
L 330.424514 -161.321848 
L 331.20016 -161.300934 
L 331.975806 -161.28059 
L 332.751453 -161.260801 
L 333.527099 -161.241552 
L 334.302746 -161.222828 
L 335.078392 -161.204615 
L 335.854038 -161.1869 
L 336.629685 -161.169667 
L 337.405331 -161.152905 
L 338.180977 -161.1366 
L 338.956624 -161.120741 
L 339.73227 -161.105314 
L 340.507916 -161.090309 
L 341.283563 -161.075713 
L 342.059209 -161.061515 
L 342.834856 -161.047705 
L 343.610502 -161.034273 
L 344.386148 -161.021206 
L 345.161795 -161.008497 
L 345.937441 -160.996135 
L 346.713087 -160.98411 
L 347.488734 -160.972414 
L 348.26438 -160.961037 
L 349.040027 -160.949971 
L 349.815673 -160.939207 
L 350.591319 -160.928737 
L 351.366966 -160.918553 
L 352.142612 -160.908647 
L 352.918258 -160.899012 
L 353.693905 -160.88964 
L 354.469551 -160.880524 
L 355.245198 -160.871656 
L 356.020844 -160.863032 
L 356.79649 -160.854642 
L 357.572137 -160.846482 
L 358.347783 -160.838545 
L 359.123429 -160.830825 
L 359.899076 -160.823316 
L 360.674722 -160.816011 
L 361.450369 -160.808907 
L 362.226015 -160.801996 
L 363.001661 -160.795275 
L 363.777308 -160.788737 
L 364.552954 -160.782377 
L 365.3286 -160.776192 
L 366.104247 -160.770175 
L 366.879893 -160.764323 
L 367.65554 -160.758631 
L 368.431186 -160.753094 
L 369.206832 -160.747709 
L 369.982479 -160.742471 
L 370.758125 -160.737376 
L 371.533771 -160.73242 
L 372.309418 -160.7276 
L 373.085064 -160.722911 
L 373.86071 -160.718351 
L 374.636357 -160.713915 
L 375.412003 -160.7096 
L 376.18765 -160.705403 
L 376.963296 -160.701322 
L 377.738942 -160.697351 
L 378.514589 -160.693489 
L 379.290235 -160.689733 
L 380.065881 -160.686079 
L 380.841528 -160.682526 
L 381.617174 -160.679069 
L 382.392821 -160.675707 
L 383.168467 -160.672437 
L 383.944113 -160.669256 
L 384.71976 -160.666162 
L 385.495406 -160.663152 
L 386.271052 -160.660225 
L 387.046699 -160.657378 
L 387.822345 -160.654609 
L 388.597992 -160.651916 
L 389.373638 -160.649296 
L 390.149284 -160.646747 
L 390.924931 -160.644269 
L 391.700577 -160.641858 
L 392.476223 -160.639513 
L 393.25187 -160.637232 
L 394.027516 -160.635014 
L 394.803163 -160.632856 
L 395.578809 -160.630757 
L 396.354455 -160.628716 
L 397.130102 -160.62673 
L 397.905748 -160.624799 
L 398.681394 -160.62292 
L 399.457041 -160.621093 
L 400.232687 -160.619316 
L 401.008334 -160.617587 
L 401.78398 -160.615906 
L 402.559626 -160.61427 
L 403.335273 -160.612679 
L 404.110919 -160.611132 
L 404.886565 -160.609627 
L 405.662212 -160.608163 
L 406.437858 -160.60674 
L 407.213504 -160.605355 
L 407.989151 -160.604008 
L 408.764797 -160.602698 
L 409.540444 -160.601423 
L 410.31609 -160.600184 
L 411.091736 -160.598978 
L 411.867383 -160.597806 
L 412.643029 -160.596665 
L 413.418675 -160.595556 
L 414.194322 -160.594477 
L 414.969968 -160.593427 
L 415.745615 -160.592406 
L 416.521261 -160.591413 
L 417.296907 -160.590448 
L 418.072554 -160.589508 
L 418.8482 -160.588595 
L 419.623846 -160.587706 
L 420.399493 -160.586841 
L 421.175139 -160.586001 
L 421.950786 -160.585183 
L 422.726432 -160.584387 
L 423.502078 -160.583614 
L 424.277725 -160.582861 
L 425.053371 -160.582129 
L 425.829017 -160.581417 
L 426.604664 -160.580725 
L 427.38031 -160.580051 
L 428.155957 -160.579396 
L 428.931603 -160.578759 
L 429.707249 -160.578139 
L 430.482896 -160.577536 
L 431.258542 -160.57695 
L 432.034188 -160.57638 
L 432.809835 -160.575825 
L 433.585481 -160.575285 
L 434.361128 -160.574761 
L 435.136774 -160.57425 
L 435.91242 -160.573754 
L 436.688067 -160.573271 
L 437.463713 -160.572801 
L 438.239359 -160.572344 
L 439.015006 -160.5719 
L 439.790652 -160.571467 
L 440.566298 -160.571047 
L 441.341945 -160.570638 
L 442.117591 -160.57024 
L 442.893238 -160.569854 
L 443.668884 -160.569477 
L 444.44453 -160.569111 
L 445.220177 -160.568755 
L 445.995823 -160.568409 
L 446.771469 -160.568072 
L 447.547116 -160.567745 
L 448.322762 -160.567426 
L 449.098409 -160.567116 
L 449.874055 -160.566815 
L 450.649701 -160.566522 
L 451.425348 -160.566236 
L 452.200994 -160.565959 
L 452.97664 -160.565689 
L 453.752287 -160.565427 
L 454.527933 -160.565172 
L 455.30358 -160.564923 
L 456.079226 -160.564682 
L 456.854872 -160.564447 
L 457.630519 -160.564219 
L 458.406165 -160.563996 
L 459.181811 -160.56378 
L 459.957458 -160.56357 
L 460.733104 -160.563366 
L 461.508751 -160.563167 
L 462.284397 -160.562973 
L 463.060043 -160.562785 
L 463.83569 -160.562602 
L 464.611336 -160.562424 
L 465.386982 -160.562251 
L 466.162629 -160.562083 
L 466.938275 -160.561919 
L 467.713921 -160.561759 
L 468.489568 -160.561605 
L 469.265214 -160.561454 
L 470.040861 -160.561307 
L 470.816507 -160.561165 
L 471.592153 -160.561026 
L 472.3678 -160.560891 
L 473.143446 -160.56076 
L 473.919092 -160.560632 
L 474.694739 -160.560508 
L 475.470385 -160.560387 
L 476.246032 -160.56027 
L 477.021678 -160.560156 
L 477.797324 -160.560045 
L 478.572971 -160.559937 
L 479.348617 -160.559831 
L 480.124263 -160.559729 
L 480.89991 -160.55963 
L 481.675556 -160.559533 
L 482.451203 -160.559439 
L 483.226849 -160.559347 
L 484.002495 -160.559258 
L 484.778142 -160.559172 
L 485.553788 -160.559088 
L 486.329434 -160.559006 
L 487.105081 -160.558926 
L 487.880727 -160.558849 
L 488.656374 -160.558773 
L 489.43202 -160.5587 
L 490.207666 -160.558629 
L 490.983313 -160.558559 
L 491.758959 -160.558492 
L 492.534605 -160.558426 
L 493.310252 -160.558363 
L 494.085898 -160.5583 
L 494.861545 -160.55824 
L 495.637191 -160.558181 
L 496.412837 -160.558124 
L 497.188484 -160.558069 
L 497.96413 -160.558015 
L 498.739776 -160.557962 
L 499.515423 -160.557911 
L 500.291069 -160.557861 
L 501.066715 -160.557813 
L 501.842362 -160.557766 
L 502.618008 -160.55772 
L 503.393655 -160.557676 
L 504.169301 -160.557632 
L 504.944947 -160.55759 
L 505.720594 -160.557549 
L 506.49624 -160.557509 
L 507.271886 -160.557471 
L 508.047533 -160.557433 
L 508.823179 -160.557396 
L 509.598826 -160.557361 
L 510.374472 -160.557326 
L 511.150118 -160.557292 
L 511.925765 -160.55726 
L 512.701411 -160.557228 
L 513.477057 -160.557197 
L 514.252704 -160.557166 
L 515.02835 -160.557137 
L 515.803997 -160.557109 
L 516.579643 -160.557081 
L 517.355289 -160.557054 
L 518.130936 -160.557027 
L 518.906582 -160.557002 
L 519.682228 -160.556977 
L 520.457875 -160.556953 
L 521.233521 -160.556929 
L 522.009168 -160.556906 
L 522.784814 -160.556884 
L 523.56046 -160.556863 
L 524.336107 -160.556842 
L 525.111753 -160.556821 
L 525.887399 -160.556801 
L 526.663046 -160.556782 
L 527.438692 -160.556763 
L 528.214339 -160.556745 
L 528.989985 -160.556727 
L 529.765631 -160.556709 
L 530.541278 -160.556693 
L 531.316924 -160.556676 
L 532.09257 -160.55666 
L 532.868217 -160.556645 
L 533.643863 -160.55663 
L 534.419509 -160.556615 
L 535.195156 -160.556601 
L 535.970802 -160.556587 
L 536.746449 -160.556573 
L 537.522095 -160.55656 
L 538.297741 -160.556547 
L 539.073388 -160.556535 
L 539.849034 -160.556523 
L 540.62468 -160.556511 
L 541.400327 -160.5565 
L 542.175973 -160.556488 
L 542.95162 -160.556478 
L 543.727266 -160.556467 
L 544.502912 -160.556457 
L 545.278559 -160.556447 
L 546.054205 -160.556437 
L 546.829851 -160.556428 
L 547.605498 -160.556419 
L 548.381144 -160.55641 
L 549.156791 -160.556401 
L 549.932437 -160.556393 
L 550.708083 -160.556384 
L 551.48373 -160.556376 
L 552.259376 -160.556369 
L 553.035022 -160.556361 
L 553.810669 -160.556354 
L 554.586315 -160.556347 
L 555.361962 -160.55634 
L 556.137608 -160.556333 
L 556.913254 -160.556326 
L 557.688901 -160.55632 
L 558.464547 -160.556314 
L 559.240193 -160.556308 
L 560.01584 -160.556302 
L 560.791486 -160.556296 
L 561.567133 -160.556291 
L 562.342779 -160.556285 
L 563.118425 -160.55628 
L 563.894072 -160.556275 
L 564.669718 -160.55627 
L 565.445364 -160.556265 
L 566.221011 -160.55626 
L 566.996657 -160.556256 
L 567.772303 -160.556251 
L 568.54795 -160.556247 
L 569.323596 -160.556243 
L 570.099243 -160.556239 
L 570.874889 -160.556235 
L 571.650535 -160.556231 
L 572.426182 -160.556227 
L 573.201828 -160.556223 
L 573.977474 -160.55622 
L 574.753121 -160.556216 
L 575.528767 -160.556213 
L 576.304414 -160.55621 
L 577.08006 -160.556206 
L 577.855706 -160.556203 
L 578.631353 -160.5562 
L 579.406999 -160.556197 
L 580.182645 -160.556194 
L 580.958292 -160.556192 
L 581.733938 -160.556189 
L 582.509585 -160.556186 
L 583.285231 -160.556184 
L 584.060877 -160.556181 
L 584.836524 -160.556179 
L 585.61217 -160.556177 
L 586.387816 -160.556174 
L 587.163463 -160.556172 
L 587.939109 -160.55617 
L 588.714756 -160.556168 
L 589.490402 -160.556166 
L 590.266048 -160.556164 
L 591.041695 -160.556162 
L 591.817341 -160.55616 
L 592.592987 -160.556158 
L 593.368634 -160.556156 
L 594.14428 -160.556155 
L 594.919927 -160.556153 
L 595.695573 -160.556151 
L 596.471219 -160.55615 
L 597.246866 -160.556148 
L 598.022512 -160.556147 
L 598.798158 -160.556145 
L 599.573805 -160.556144 
L 600.349451 -160.556142 
L 601.125097 -160.556141 
L 601.900744 -160.55614 
L 602.67639 -160.556138 
L 603.452037 -160.556137 
L 604.227683 -160.556136 
L 605.003329 -160.556135 
L 605.778976 -160.556134 
L 606.554622 -160.556132 
L 607.330268 -160.556131 
L 608.105915 -160.55613 
L 608.881561 -160.556129 
L 609.657208 -160.556128 
L 610.432854 -160.556127 
L 611.2085 -160.556126 
L 611.984147 -160.556125 
L 612.759793 -160.556125 
L 613.535439 -160.556124 
L 614.311086 -160.556123 
L 615.086732 -160.556122 
L 615.862379 -160.556121 
L 616.638025 -160.55612 
L 617.413671 -160.55612 
L 618.189318 -160.556119 
L 618.964964 -160.556118 
L 619.74061 -160.556118 
L 620.516257 -160.556117 
L 621.291903 -160.556116 
L 622.06755 -160.556116 
L 622.843196 -160.556115 
L 623.618842 -160.556114 
L 624.394489 -160.556114 
L 624.394489 -162.396316 
L 624.394489 -162.396316 
L 623.618842 -162.41484 
L 622.843196 -162.433549 
L 622.06755 -162.452446 
L 621.291903 -162.471533 
L 620.516257 -162.490812 
L 619.74061 -162.510284 
L 618.964964 -162.529951 
L 618.189318 -162.549815 
L 617.413671 -162.569879 
L 616.638025 -162.590144 
L 615.862379 -162.610612 
L 615.086732 -162.631286 
L 614.311086 -162.652167 
L 613.535439 -162.673257 
L 612.759793 -162.694559 
L 611.984147 -162.716074 
L 611.2085 -162.737805 
L 610.432854 -162.759754 
L 609.657208 -162.781922 
L 608.881561 -162.804313 
L 608.105915 -162.826929 
L 607.330268 -162.849771 
L 606.554622 -162.872842 
L 605.778976 -162.896144 
L 605.003329 -162.91968 
L 604.227683 -162.943451 
L 603.452037 -162.967461 
L 602.67639 -162.991711 
L 601.900744 -163.016204 
L 601.125097 -163.040942 
L 600.349451 -163.065928 
L 599.573805 -163.091165 
L 598.798158 -163.116654 
L 598.022512 -163.142398 
L 597.246866 -163.1684 
L 596.471219 -163.194662 
L 595.695573 -163.221187 
L 594.919927 -163.247978 
L 594.14428 -163.275036 
L 593.368634 -163.302366 
L 592.592987 -163.329969 
L 591.817341 -163.357848 
L 591.041695 -163.386006 
L 590.266048 -163.414446 
L 589.490402 -163.44317 
L 588.714756 -163.472181 
L 587.939109 -163.501483 
L 587.163463 -163.531078 
L 586.387816 -163.560968 
L 585.61217 -163.591158 
L 584.836524 -163.621649 
L 584.060877 -163.652445 
L 583.285231 -163.683548 
L 582.509585 -163.714963 
L 581.733938 -163.746691 
L 580.958292 -163.778737 
L 580.182645 -163.811103 
L 579.406999 -163.843792 
L 578.631353 -163.876807 
L 577.855706 -163.910152 
L 577.08006 -163.943831 
L 576.304414 -163.977845 
L 575.528767 -164.012199 
L 574.753121 -164.046896 
L 573.977474 -164.08194 
L 573.201828 -164.117333 
L 572.426182 -164.153079 
L 571.650535 -164.189182 
L 570.874889 -164.225646 
L 570.099243 -164.262473 
L 569.323596 -164.299667 
L 568.54795 -164.337232 
L 567.772303 -164.375172 
L 566.996657 -164.41349 
L 566.221011 -164.452191 
L 565.445364 -164.491277 
L 564.669718 -164.530752 
L 563.894072 -164.570621 
L 563.118425 -164.610887 
L 562.342779 -164.651555 
L 561.567133 -164.692627 
L 560.791486 -164.734109 
L 560.01584 -164.776004 
L 559.240193 -164.818316 
L 558.464547 -164.861049 
L 557.688901 -164.904208 
L 556.913254 -164.947796 
L 556.137608 -164.991818 
L 555.361962 -165.036278 
L 554.586315 -165.081181 
L 553.810669 -165.12653 
L 553.035022 -165.17233 
L 552.259376 -165.218585 
L 551.48373 -165.265301 
L 550.708083 -165.312481 
L 549.932437 -165.36013 
L 549.156791 -165.408252 
L 548.381144 -165.456853 
L 547.605498 -165.505936 
L 546.829851 -165.555508 
L 546.054205 -165.605571 
L 545.278559 -165.656132 
L 544.502912 -165.707194 
L 543.727266 -165.758764 
L 542.95162 -165.810845 
L 542.175973 -165.863443 
L 541.400327 -165.916563 
L 540.62468 -165.97021 
L 539.849034 -166.024389 
L 539.073388 -166.079106 
L 538.297741 -166.134365 
L 537.522095 -166.190171 
L 536.746449 -166.246531 
L 535.970802 -166.303449 
L 535.195156 -166.360931 
L 534.419509 -166.418983 
L 533.643863 -166.477609 
L 532.868217 -166.536816 
L 532.09257 -166.596609 
L 531.316924 -166.656994 
L 530.541278 -166.717976 
L 529.765631 -166.779562 
L 528.989985 -166.841757 
L 528.214339 -166.904567 
L 527.438692 -166.967998 
L 526.663046 -167.032056 
L 525.887399 -167.096747 
L 525.111753 -167.162077 
L 524.336107 -167.228053 
L 523.56046 -167.29468 
L 522.784814 -167.361966 
L 522.009168 -167.429915 
L 521.233521 -167.498535 
L 520.457875 -167.567833 
L 519.682228 -167.637814 
L 518.906582 -167.708485 
L 518.130936 -167.779853 
L 517.355289 -167.851925 
L 516.579643 -167.924707 
L 515.803997 -167.998206 
L 515.02835 -168.072429 
L 514.252704 -168.147383 
L 513.477057 -168.223075 
L 512.701411 -168.299513 
L 511.925765 -168.376702 
L 511.150118 -168.454651 
L 510.374472 -168.533367 
L 509.598826 -168.612856 
L 508.823179 -168.693128 
L 508.047533 -168.774188 
L 507.271886 -168.856044 
L 506.49624 -168.938705 
L 505.720594 -169.022177 
L 504.944947 -169.106469 
L 504.169301 -169.191588 
L 503.393655 -169.277542 
L 502.618008 -169.364339 
L 501.842362 -169.451987 
L 501.066715 -169.540495 
L 500.291069 -169.62987 
L 499.515423 -169.72012 
L 498.739776 -169.811255 
L 497.96413 -169.903281 
L 497.188484 -169.996209 
L 496.412837 -170.090045 
L 495.637191 -170.1848 
L 494.861545 -170.280481 
L 494.085898 -170.377097 
L 493.310252 -170.474658 
L 492.534605 -170.573171 
L 491.758959 -170.672647 
L 490.983313 -170.773094 
L 490.207666 -170.874521 
L 489.43202 -170.976937 
L 488.656374 -171.080352 
L 487.880727 -171.184775 
L 487.105081 -171.290216 
L 486.329434 -171.396684 
L 485.553788 -171.504189 
L 484.778142 -171.61274 
L 484.002495 -171.722348 
L 483.226849 -171.833022 
L 482.451203 -171.944772 
L 481.675556 -172.057608 
L 480.89991 -172.17154 
L 480.124263 -172.286579 
L 479.348617 -172.402734 
L 478.572971 -172.520017 
L 477.797324 -172.638438 
L 477.021678 -172.758006 
L 476.246032 -172.878734 
L 475.470385 -173.000631 
L 474.694739 -173.123709 
L 473.919092 -173.247978 
L 473.143446 -173.37345 
L 472.3678 -173.500135 
L 471.592153 -173.628045 
L 470.816507 -173.757191 
L 470.040861 -173.887584 
L 469.265214 -174.019236 
L 468.489568 -174.152159 
L 467.713921 -174.286363 
L 466.938275 -174.421862 
L 466.162629 -174.558666 
L 465.386982 -174.696788 
L 464.611336 -174.836239 
L 463.83569 -174.977033 
L 463.060043 -175.119181 
L 462.284397 -175.262695 
L 461.508751 -175.407588 
L 460.733104 -175.553872 
L 459.957458 -175.701561 
L 459.181811 -175.850666 
L 458.406165 -176.001201 
L 457.630519 -176.153178 
L 456.854872 -176.306612 
L 456.079226 -176.461514 
L 455.30358 -176.617898 
L 454.527933 -176.775777 
L 453.752287 -176.935165 
L 452.97664 -177.096076 
L 452.200994 -177.258523 
L 451.425348 -177.42252 
L 450.649701 -177.58808 
L 449.874055 -177.755218 
L 449.098409 -177.923948 
L 448.322762 -178.094284 
L 447.547116 -178.26624 
L 446.771469 -178.439831 
L 445.995823 -178.615071 
L 445.220177 -178.791975 
L 444.44453 -178.970557 
L 443.668884 -179.150833 
L 442.893238 -179.332817 
L 442.117591 -179.516525 
L 441.341945 -179.701971 
L 440.566298 -179.889172 
L 439.790652 -180.078141 
L 439.015006 -180.268895 
L 438.239359 -180.46145 
L 437.463713 -180.655821 
L 436.688067 -180.852024 
L 435.91242 -181.050074 
L 435.136774 -181.249989 
L 434.361128 -181.451784 
L 433.585481 -181.655475 
L 432.809835 -181.861079 
L 432.034188 -182.068613 
L 431.258542 -182.278093 
L 430.482896 -182.489535 
L 429.707249 -182.702957 
L 428.931603 -182.918375 
L 428.155957 -183.135808 
L 427.38031 -183.355271 
L 426.604664 -183.576782 
L 425.829017 -183.800359 
L 425.053371 -184.026019 
L 424.277725 -184.25378 
L 423.502078 -184.48366 
L 422.726432 -184.715676 
L 421.950786 -184.949846 
L 421.175139 -185.18619 
L 420.399493 -185.424724 
L 419.623846 -185.665467 
L 418.8482 -185.908438 
L 418.072554 -186.153655 
L 417.296907 -186.401137 
L 416.521261 -186.650902 
L 415.745615 -186.902971 
L 414.969968 -187.157361 
L 414.194322 -187.414092 
L 413.418675 -187.673183 
L 412.643029 -187.934653 
L 411.867383 -188.198522 
L 411.091736 -188.46481 
L 410.31609 -188.733536 
L 409.540444 -189.00472 
L 408.764797 -189.278382 
L 407.989151 -189.554542 
L 407.213504 -189.83322 
L 406.437858 -190.114437 
L 405.662212 -190.398212 
L 404.886565 -190.684566 
L 404.110919 -190.973521 
L 403.335273 -191.265096 
L 402.559626 -191.559312 
L 401.78398 -191.85619 
L 401.008334 -192.155752 
L 400.232687 -192.458018 
L 399.457041 -192.763009 
L 398.681394 -193.070748 
L 397.905748 -193.381254 
L 397.130102 -193.69455 
L 396.354455 -194.010658 
L 395.578809 -194.329599 
L 394.803163 -194.651395 
L 394.027516 -194.976067 
L 393.25187 -195.303639 
L 392.476223 -195.634131 
L 391.700577 -195.967567 
L 390.924931 -196.303968 
L 390.149284 -196.643356 
L 389.373638 -196.985755 
L 388.597992 -197.331187 
L 387.822345 -197.679674 
L 387.046699 -198.031239 
L 386.271052 -198.385906 
L 385.495406 -198.743696 
L 384.71976 -199.104632 
L 383.944113 -199.468739 
L 383.168467 -199.836039 
L 382.392821 -200.206554 
L 381.617174 -200.58031 
L 380.841528 -200.957328 
L 380.065881 -201.337632 
L 379.290235 -201.721245 
L 378.514589 -202.108192 
L 377.738942 -202.498495 
L 376.963296 -202.892179 
L 376.18765 -203.289267 
L 375.412003 -203.689783 
L 374.636357 -204.093751 
L 373.86071 -204.501194 
L 373.085064 -204.912137 
L 372.309418 -205.326603 
L 371.533771 -205.744616 
L 370.758125 -206.166201 
L 369.982479 -206.591382 
L 369.206832 -207.020182 
L 368.431186 -207.452627 
L 367.65554 -207.888739 
L 366.879893 -208.328543 
L 366.104247 -208.772064 
L 365.3286 -209.219326 
L 364.552954 -209.670353 
L 363.777308 -210.125168 
L 363.001661 -210.583798 
L 362.226015 -211.046265 
L 361.450369 -211.512594 
L 360.674722 -211.98281 
L 359.899076 -212.456936 
L 359.123429 -212.934997 
L 358.347783 -213.417018 
L 357.572137 -213.903021 
L 356.79649 -214.393032 
L 356.020844 -214.887076 
L 355.245198 -215.385175 
L 354.469551 -215.887354 
L 353.693905 -216.393637 
L 352.918258 -216.904048 
L 352.142612 -217.418611 
L 351.366966 -217.937351 
L 350.591319 -218.460291 
L 349.815673 -218.987454 
L 349.040027 -219.518865 
L 348.26438 -220.054546 
L 347.488734 -220.594523 
L 346.713087 -221.138818 
L 345.937441 -221.687454 
L 345.161795 -222.240456 
L 344.386148 -222.797846 
L 343.610502 -223.359647 
L 342.834856 -223.925882 
L 342.059209 -224.496575 
L 341.283563 -225.071747 
L 340.507916 -225.651422 
L 339.73227 -226.235622 
L 338.956624 -226.82437 
L 338.180977 -227.417687 
L 337.405331 -228.015595 
L 336.629685 -228.618118 
L 335.854038 -229.225275 
L 335.078392 -229.837089 
L 334.302746 -230.453582 
L 333.527099 -231.074773 
L 332.751453 -231.700685 
L 331.975806 -232.331338 
L 331.20016 -232.966752 
L 330.424514 -233.606948 
L 329.648867 -234.251946 
L 328.873221 -234.901766 
L 328.097575 -235.556427 
L 327.321928 -236.21595 
L 326.546282 -236.880352 
L 325.770635 -237.549653 
L 324.994989 -238.223871 
L 324.219343 -238.903025 
L 323.443696 -239.587132 
L 322.66805 -240.276211 
L 321.892404 -240.970279 
L 321.116757 -241.669352 
L 320.341111 -242.373448 
L 319.565464 -243.082583 
L 318.789818 -243.796773 
L 318.014172 -244.516034 
L 317.238525 -245.240381 
L 316.462879 -245.969829 
L 315.687233 -246.704393 
L 314.911586 -247.444086 
L 314.13594 -248.188924 
L 313.360293 -248.938918 
L 312.584647 -249.694083 
L 311.809001 -250.45443 
L 311.033354 -251.219973 
L 310.257708 -251.990721 
L 309.482062 -252.766687 
L 308.706415 -253.547882 
L 307.930769 -254.334315 
L 307.155122 -255.125997 
L 306.379476 -255.922936 
L 305.60383 -256.725142 
L 304.828183 -257.532623 
L 304.052537 -258.345385 
L 303.276891 -259.163438 
L 302.501244 -259.986786 
L 301.725598 -260.815436 
L 300.949952 -261.649394 
L 300.174305 -262.488665 
L 299.398659 -263.333252 
L 298.623012 -264.18316 
L 297.847366 -265.03839 
L 297.07172 -265.898947 
L 296.296073 -266.764831 
L 295.520427 -267.636044 
L 294.744781 -268.512586 
L 293.969134 -269.394456 
L 293.193488 -270.281655 
L 292.417841 -271.17418 
L 291.642195 -272.072028 
L 290.866549 -272.975198 
L 290.090902 -273.883684 
L 289.315256 -274.797483 
L 288.53961 -275.716589 
L 287.763963 -276.640997 
L 286.988317 -277.570698 
L 286.21267 -278.505686 
L 285.437024 -279.445952 
L 284.661378 -280.391486 
L 283.885731 -281.34228 
L 283.110085 -282.298321 
L 282.334439 -283.259598 
L 281.558792 -284.226098 
L 280.783146 -285.197808 
L 280.007499 -286.174713 
L 279.231853 -287.156798 
L 278.456207 -288.144047 
L 277.68056 -289.136443 
L 276.904914 -290.133967 
L 276.129268 -291.1366 
L 275.353621 -292.144323 
L 274.577975 -293.157115 
L 273.802329 -294.174954 
L 273.026682 -295.197816 
L 272.251036 -296.225678 
L 271.475389 -297.258515 
L 270.699743 -298.296302 
L 269.924097 -299.339011 
L 269.14845 -300.386614 
L 268.372804 -301.439082 
L 267.597158 -302.496386 
L 266.821511 -303.558494 
L 266.045865 -304.625374 
L 265.270218 -305.696993 
L 264.494572 -306.773316 
L 263.718926 -307.854308 
L 262.943279 -308.939933 
L 262.167633 -310.030153 
L 261.391987 -311.124928 
L 260.61634 -312.22422 
L 259.840694 -313.327987 
L 259.065047 -314.436187 
L 258.289401 -315.548776 
L 257.513755 -316.665711 
L 256.738108 -317.786944 
L 255.962462 -318.912431 
L 255.186816 -320.042122 
L 254.411169 -321.175969 
L 253.635523 -322.313921 
L 252.859876 -323.455926 
L 252.08423 -324.601932 
L 251.308584 -325.751886 
L 250.532937 -326.905731 
L 249.757291 -328.063411 
L 248.981645 -329.224869 
L 248.205998 -330.390047 
L 247.430352 -331.558883 
L 246.654705 -332.731318 
L 245.879059 -333.907288 
L 245.103413 -335.08673 
L 244.327766 -336.269579 
L 243.55212 -337.45577 
L 242.776474 -338.645234 
L 242.000827 -339.837903 
L 241.225181 -341.033708 
L 240.449535 -342.232578 
L 239.673888 -343.43444 
L 238.898242 -344.639221 
L 238.122595 -345.846847 
L 237.346949 -347.057242 
L 236.571303 -348.270329 
L 235.795656 -349.486029 
L 235.02001 -350.704264 
L 234.244364 -351.924952 
L 233.468717 -353.148013 
L 232.693071 -354.373363 
L 231.917424 -355.600918 
L 231.141778 -356.830593 
L 230.366132 -358.062301 
L 229.590485 -359.295955 
L 228.814839 -360.531466 
L 228.039193 -361.768744 
L 227.263546 -363.007699 
L 226.4879 -364.248238 
L 225.712253 -365.490267 
L 224.936607 -366.733694 
L 224.160961 -367.978421 
L 223.385314 -369.224353 
L 222.609668 -370.471392 
L 221.834022 -371.719439 
L 221.058375 -372.968395 
L 220.282729 -374.218159 
L 219.507082 -375.468629 
L 218.731436 -376.719702 
L 217.95579 -377.971275 
L 217.180143 -379.223242 
L 216.404497 -380.475498 
L 215.628851 -381.727935 
L 214.853204 -382.980447 
L 214.077558 -384.232924 
L 213.301911 -385.485256 
L 212.526265 -386.737333 
L 211.750619 -387.989042 
L 210.974972 -389.240273 
L 210.199326 -390.49091 
L 209.42368 -391.740839 
L 208.648033 -392.989946 
L 207.872387 -394.238113 
L 207.096741 -395.485224 
L 206.321094 -396.73116 
L 205.545448 -397.975803 
L 204.769801 -399.219031 
L 203.994155 -400.460725 
L 203.218509 -401.700763 
L 202.442862 -402.939021 
L 201.667216 -404.175377 
L 200.89157 -405.409704 
L 200.115923 -406.641879 
L 199.340277 -407.871773 
L 198.56463 -409.09926 
L 197.788984 -410.32421 
L 197.013338 -411.546494 
L 196.237691 -412.76598 
L 195.462045 -413.982538 
L 194.686399 -415.196033 
L 193.910752 -416.40633 
L 193.135106 -417.613295 
L 192.359459 -418.81679 
L 191.583813 -420.016677 
L 190.808167 -421.212815 
L 190.03252 -422.405062 
L 189.256874 -423.593276 
L 188.481228 -424.777312 
L 187.705581 -425.957021 
L 186.929935 -427.132257 
L 186.154288 -428.302866 
L 185.378642 -429.468697 
L 184.602996 -430.629594 
L 183.827349 -431.785397 
L 183.051703 -432.935947 
L 182.276057 -434.081079 
L 181.50041 -435.220626 
L 180.724764 -436.354418 
L 179.949117 -437.48228 
L 179.173471 -438.604034 
L 178.397825 -439.719498 
L 177.622178 -440.828486 
L 176.846532 -441.930805 
L 176.070886 -443.026259 
L 175.295239 -444.114644 
L 174.519593 -445.195754 
L 173.743947 -446.269372 
L 172.9683 -447.335277 
L 172.192654 -448.393239 
L 171.417007 -449.443019 
L 170.641361 -450.484372 
L 169.865715 -451.51704 
L 169.090068 -452.540759 
L 168.314422 -453.555249 
L 167.538776 -454.560223 
L 166.763129 -455.555376 
L 165.987483 -456.540394 
L 165.211836 -457.514943 
L 164.43619 -458.478678 
L 163.660544 -459.43123 
L 162.884897 -460.372217 
L 162.109251 -461.301232 
L 161.333605 -462.217846 
L 160.557958 -463.121607 
L 159.782312 -464.012033 
L 159.006665 -464.888617 
L 158.231019 -465.750815 
L 157.455373 -466.598053 
L 156.679726 -467.429714 
L 155.90408 -468.245144 
L 155.128434 -469.043637 
L 154.352787 -469.824442 
L 153.577141 -470.586749 
L 152.801494 -471.329685 
L 152.025848 -472.052312 
L 151.250202 -472.753611 
L 150.474555 -473.432484 
L 149.698909 -474.087733 
L 148.923263 -474.718058 
L 148.147616 -475.322039 
L 147.37197 -475.898121 
L 146.596323 -476.444599 
L 145.820677 -476.959599 
L 145.045031 -477.441049 
L 144.269384 -477.886659 
L 143.493738 -478.293883 
L 142.718092 -478.659885 
L 141.942445 -478.981493 
L 141.166799 -479.255146 
L 140.391153 -479.47683 
L 139.615506 -479.642006 
L 138.83986 -479.745513 
L 138.064213 -479.781463 
L 137.288567 -479.743103 
L 136.512921 -479.685252 
L 135.737274 -479.770367 
L 134.961628 -479.769928 
L 134.185982 -479.673359 
L 133.410335 -479.72743 
L 132.634689 -479.781463 
L 131.859042 -479.722015 
L 131.083396 -479.630215 
L 130.30775 -479.763658 
L 129.532103 -479.762541 
L 128.756457 -479.599849 
L 127.980811 -479.688991 
L 127.205164 -479.781463 
L 126.429518 -479.672533 
L 125.653871 -479.304437 
L 124.878225 -478.598201 
L 124.102579 -477.443461 
L 123.326932 -475.681897 
L 122.551286 -473.079256 
L 121.77564 -469.275979 
L 120.999993 -463.695578 
L 120.224347 -455.364183 
L 119.4487 -442.528849 
L 118.673054 -421.776231 
L 117.897408 -385.760192 
L 117.121761 -316.436844 
z
" style="stroke: #ffa500; stroke-opacity: 0.3"/>
    </defs>
    <g clip-path="url(#p44fd9d8c60)">
     <use xlink:href="#m0044b43efc" x="0" y="540.100875" style="fill: #ffa500; fill-opacity: 0.3; stroke: #ffa500; stroke-opacity: 0.3"/>
    </g>
   </g>
   <g id="matplotlib.axis_1">
    <g id="xtick_1">
     <g id="line2d_1">
      <defs>
       <path id="mcdac741fb0" d="M 0 0 
L 0 3.5 
" style="stroke: #000000; stroke-width: 0.8"/>
      </defs>
      <g>
       <use xlink:href="#mcdac741fb0" x="116.346115" y="416.476875" style="stroke: #000000; stroke-width: 0.8"/>
      </g>
     </g>
     <g id="text_1">
      <!-- 0 -->
      <g transform="translate(109.983615 438.67375) scale(0.2 -0.2)">
       <defs>
        <path id="DejaVuSans-30" d="M 2034 4250 
Q 1547 4250 1301 3770 
Q 1056 3291 1056 2328 
Q 1056 1369 1301 889 
Q 1547 409 2034 409 
Q 2525 409 2770 889 
Q 3016 1369 3016 2328 
Q 3016 3291 2770 3770 
Q 2525 4250 2034 4250 
z
M 2034 4750 
Q 2819 4750 3233 4129 
Q 3647 3509 3647 2328 
Q 3647 1150 3233 529 
Q 2819 -91 2034 -91 
Q 1250 -91 836 529 
Q 422 1150 422 2328 
Q 422 3509 836 4129 
Q 1250 4750 2034 4750 
z
" transform="scale(0.015625)"/>
       </defs>
       <use xlink:href="#DejaVuSans-30"/>
      </g>
     </g>
    </g>
    <g id="xtick_2">
     <g id="line2d_2">
      <g>
       <use xlink:href="#mcdac741fb0" x="193.910752" y="416.476875" style="stroke: #000000; stroke-width: 0.8"/>
      </g>
     </g>
     <g id="text_2">
      <!-- 100 -->
      <g transform="translate(174.823252 438.67375) scale(0.2 -0.2)">
       <defs>
        <path id="DejaVuSans-31" d="M 794 531 
L 1825 531 
L 1825 4091 
L 703 3866 
L 703 4441 
L 1819 4666 
L 2450 4666 
L 2450 531 
L 3481 531 
L 3481 0 
L 794 0 
L 794 531 
z
" transform="scale(0.015625)"/>
       </defs>
       <use xlink:href="#DejaVuSans-31"/>
       <use xlink:href="#DejaVuSans-30" x="63.623047"/>
       <use xlink:href="#DejaVuSans-30" x="127.246094"/>
      </g>
     </g>
    </g>
    <g id="xtick_3">
     <g id="line2d_3">
      <g>
       <use xlink:href="#mcdac741fb0" x="271.475389" y="416.476875" style="stroke: #000000; stroke-width: 0.8"/>
      </g>
     </g>
     <g id="text_3">
      <!-- 200 -->
      <g transform="translate(252.387889 438.67375) scale(0.2 -0.2)">
       <defs>
        <path id="DejaVuSans-32" d="M 1228 531 
L 3431 531 
L 3431 0 
L 469 0 
L 469 531 
Q 828 903 1448 1529 
Q 2069 2156 2228 2338 
Q 2531 2678 2651 2914 
Q 2772 3150 2772 3378 
Q 2772 3750 2511 3984 
Q 2250 4219 1831 4219 
Q 1534 4219 1204 4116 
Q 875 4013 500 3803 
L 500 4441 
Q 881 4594 1212 4672 
Q 1544 4750 1819 4750 
Q 2544 4750 2975 4387 
Q 3406 4025 3406 3419 
Q 3406 3131 3298 2873 
Q 3191 2616 2906 2266 
Q 2828 2175 2409 1742 
Q 1991 1309 1228 531 
z
" transform="scale(0.015625)"/>
       </defs>
       <use xlink:href="#DejaVuSans-32"/>
       <use xlink:href="#DejaVuSans-30" x="63.623047"/>
       <use xlink:href="#DejaVuSans-30" x="127.246094"/>
      </g>
     </g>
    </g>
    <g id="xtick_4">
     <g id="line2d_4">
      <g>
       <use xlink:href="#mcdac741fb0" x="349.040027" y="416.476875" style="stroke: #000000; stroke-width: 0.8"/>
      </g>
     </g>
     <g id="text_4">
      <!-- 300 -->
      <g transform="translate(329.952527 438.67375) scale(0.2 -0.2)">
       <defs>
        <path id="DejaVuSans-33" d="M 2597 2516 
Q 3050 2419 3304 2112 
Q 3559 1806 3559 1356 
Q 3559 666 3084 287 
Q 2609 -91 1734 -91 
Q 1441 -91 1130 -33 
Q 819 25 488 141 
L 488 750 
Q 750 597 1062 519 
Q 1375 441 1716 441 
Q 2309 441 2620 675 
Q 2931 909 2931 1356 
Q 2931 1769 2642 2001 
Q 2353 2234 1838 2234 
L 1294 2234 
L 1294 2753 
L 1863 2753 
Q 2328 2753 2575 2939 
Q 2822 3125 2822 3475 
Q 2822 3834 2567 4026 
Q 2313 4219 1838 4219 
Q 1578 4219 1281 4162 
Q 984 4106 628 3988 
L 628 4550 
Q 988 4650 1302 4700 
Q 1616 4750 1894 4750 
Q 2613 4750 3031 4423 
Q 3450 4097 3450 3541 
Q 3450 3153 3228 2886 
Q 3006 2619 2597 2516 
z
" transform="scale(0.015625)"/>
       </defs>
       <use xlink:href="#DejaVuSans-33"/>
       <use xlink:href="#DejaVuSans-30" x="63.623047"/>
       <use xlink:href="#DejaVuSans-30" x="127.246094"/>
      </g>
     </g>
    </g>
    <g id="xtick_5">
     <g id="line2d_5">
      <g>
       <use xlink:href="#mcdac741fb0" x="426.604664" y="416.476875" style="stroke: #000000; stroke-width: 0.8"/>
      </g>
     </g>
     <g id="text_5">
      <!-- 400 -->
      <g transform="translate(407.517164 438.67375) scale(0.2 -0.2)">
       <defs>
        <path id="DejaVuSans-34" d="M 2419 4116 
L 825 1625 
L 2419 1625 
L 2419 4116 
z
M 2253 4666 
L 3047 4666 
L 3047 1625 
L 3713 1625 
L 3713 1100 
L 3047 1100 
L 3047 0 
L 2419 0 
L 2419 1100 
L 313 1100 
L 313 1709 
L 2253 4666 
z
" transform="scale(0.015625)"/>
       </defs>
       <use xlink:href="#DejaVuSans-34"/>
       <use xlink:href="#DejaVuSans-30" x="63.623047"/>
       <use xlink:href="#DejaVuSans-30" x="127.246094"/>
      </g>
     </g>
    </g>
    <g id="xtick_6">
     <g id="line2d_6">
      <g>
       <use xlink:href="#mcdac741fb0" x="504.169301" y="416.476875" style="stroke: #000000; stroke-width: 0.8"/>
      </g>
     </g>
     <g id="text_6">
      <!-- 500 -->
      <g transform="translate(485.081801 438.67375) scale(0.2 -0.2)">
       <defs>
        <path id="DejaVuSans-35" d="M 691 4666 
L 3169 4666 
L 3169 4134 
L 1269 4134 
L 1269 2991 
Q 1406 3038 1543 3061 
Q 1681 3084 1819 3084 
Q 2600 3084 3056 2656 
Q 3513 2228 3513 1497 
Q 3513 744 3044 326 
Q 2575 -91 1722 -91 
Q 1428 -91 1123 -41 
Q 819 9 494 109 
L 494 744 
Q 775 591 1075 516 
Q 1375 441 1709 441 
Q 2250 441 2565 725 
Q 2881 1009 2881 1497 
Q 2881 1984 2565 2268 
Q 2250 2553 1709 2553 
Q 1456 2553 1204 2497 
Q 953 2441 691 2322 
L 691 4666 
z
" transform="scale(0.015625)"/>
       </defs>
       <use xlink:href="#DejaVuSans-35"/>
       <use xlink:href="#DejaVuSans-30" x="63.623047"/>
       <use xlink:href="#DejaVuSans-30" x="127.246094"/>
      </g>
     </g>
    </g>
    <g id="xtick_7">
     <g id="line2d_7">
      <g>
       <use xlink:href="#mcdac741fb0" x="581.733938" y="416.476875" style="stroke: #000000; stroke-width: 0.8"/>
      </g>
     </g>
     <g id="text_7">
      <!-- 600 -->
      <g transform="translate(562.646438 438.67375) scale(0.2 -0.2)">
       <defs>
        <path id="DejaVuSans-36" d="M 2113 2584 
Q 1688 2584 1439 2293 
Q 1191 2003 1191 1497 
Q 1191 994 1439 701 
Q 1688 409 2113 409 
Q 2538 409 2786 701 
Q 3034 994 3034 1497 
Q 3034 2003 2786 2293 
Q 2538 2584 2113 2584 
z
M 3366 4563 
L 3366 3988 
Q 3128 4100 2886 4159 
Q 2644 4219 2406 4219 
Q 1781 4219 1451 3797 
Q 1122 3375 1075 2522 
Q 1259 2794 1537 2939 
Q 1816 3084 2150 3084 
Q 2853 3084 3261 2657 
Q 3669 2231 3669 1497 
Q 3669 778 3244 343 
Q 2819 -91 2113 -91 
Q 1303 -91 875 529 
Q 447 1150 447 2328 
Q 447 3434 972 4092 
Q 1497 4750 2381 4750 
Q 2619 4750 2861 4703 
Q 3103 4656 3366 4563 
z
" transform="scale(0.015625)"/>
       </defs>
       <use xlink:href="#DejaVuSans-36"/>
       <use xlink:href="#DejaVuSans-30" x="63.623047"/>
       <use xlink:href="#DejaVuSans-30" x="127.246094"/>
      </g>
     </g>
    </g>
    <g id="text_8">
     <!-- Days since antigen exposure -->
     <g transform="translate(226.337813 462.03) scale(0.2 -0.2)">
      <defs>
       <path id="DejaVuSans-44" d="M 1259 4147 
L 1259 519 
L 2022 519 
Q 2988 519 3436 956 
Q 3884 1394 3884 2338 
Q 3884 3275 3436 3711 
Q 2988 4147 2022 4147 
L 1259 4147 
z
M 628 4666 
L 1925 4666 
Q 3281 4666 3915 4102 
Q 4550 3538 4550 2338 
Q 4550 1131 3912 565 
Q 3275 0 1925 0 
L 628 0 
L 628 4666 
z
" transform="scale(0.015625)"/>
       <path id="DejaVuSans-61" d="M 2194 1759 
Q 1497 1759 1228 1600 
Q 959 1441 959 1056 
Q 959 750 1161 570 
Q 1363 391 1709 391 
Q 2188 391 2477 730 
Q 2766 1069 2766 1631 
L 2766 1759 
L 2194 1759 
z
M 3341 1997 
L 3341 0 
L 2766 0 
L 2766 531 
Q 2569 213 2275 61 
Q 1981 -91 1556 -91 
Q 1019 -91 701 211 
Q 384 513 384 1019 
Q 384 1609 779 1909 
Q 1175 2209 1959 2209 
L 2766 2209 
L 2766 2266 
Q 2766 2663 2505 2880 
Q 2244 3097 1772 3097 
Q 1472 3097 1187 3025 
Q 903 2953 641 2809 
L 641 3341 
Q 956 3463 1253 3523 
Q 1550 3584 1831 3584 
Q 2591 3584 2966 3190 
Q 3341 2797 3341 1997 
z
" transform="scale(0.015625)"/>
       <path id="DejaVuSans-79" d="M 2059 -325 
Q 1816 -950 1584 -1140 
Q 1353 -1331 966 -1331 
L 506 -1331 
L 506 -850 
L 844 -850 
Q 1081 -850 1212 -737 
Q 1344 -625 1503 -206 
L 1606 56 
L 191 3500 
L 800 3500 
L 1894 763 
L 2988 3500 
L 3597 3500 
L 2059 -325 
z
" transform="scale(0.015625)"/>
       <path id="DejaVuSans-73" d="M 2834 3397 
L 2834 2853 
Q 2591 2978 2328 3040 
Q 2066 3103 1784 3103 
Q 1356 3103 1142 2972 
Q 928 2841 928 2578 
Q 928 2378 1081 2264 
Q 1234 2150 1697 2047 
L 1894 2003 
Q 2506 1872 2764 1633 
Q 3022 1394 3022 966 
Q 3022 478 2636 193 
Q 2250 -91 1575 -91 
Q 1294 -91 989 -36 
Q 684 19 347 128 
L 347 722 
Q 666 556 975 473 
Q 1284 391 1588 391 
Q 1994 391 2212 530 
Q 2431 669 2431 922 
Q 2431 1156 2273 1281 
Q 2116 1406 1581 1522 
L 1381 1569 
Q 847 1681 609 1914 
Q 372 2147 372 2553 
Q 372 3047 722 3315 
Q 1072 3584 1716 3584 
Q 2034 3584 2315 3537 
Q 2597 3491 2834 3397 
z
" transform="scale(0.015625)"/>
       <path id="DejaVuSans-20" transform="scale(0.015625)"/>
       <path id="DejaVuSans-69" d="M 603 3500 
L 1178 3500 
L 1178 0 
L 603 0 
L 603 3500 
z
M 603 4863 
L 1178 4863 
L 1178 4134 
L 603 4134 
L 603 4863 
z
" transform="scale(0.015625)"/>
       <path id="DejaVuSans-6e" d="M 3513 2113 
L 3513 0 
L 2938 0 
L 2938 2094 
Q 2938 2591 2744 2837 
Q 2550 3084 2163 3084 
Q 1697 3084 1428 2787 
Q 1159 2491 1159 1978 
L 1159 0 
L 581 0 
L 581 3500 
L 1159 3500 
L 1159 2956 
Q 1366 3272 1645 3428 
Q 1925 3584 2291 3584 
Q 2894 3584 3203 3211 
Q 3513 2838 3513 2113 
z
" transform="scale(0.015625)"/>
       <path id="DejaVuSans-63" d="M 3122 3366 
L 3122 2828 
Q 2878 2963 2633 3030 
Q 2388 3097 2138 3097 
Q 1578 3097 1268 2742 
Q 959 2388 959 1747 
Q 959 1106 1268 751 
Q 1578 397 2138 397 
Q 2388 397 2633 464 
Q 2878 531 3122 666 
L 3122 134 
Q 2881 22 2623 -34 
Q 2366 -91 2075 -91 
Q 1284 -91 818 406 
Q 353 903 353 1747 
Q 353 2603 823 3093 
Q 1294 3584 2113 3584 
Q 2378 3584 2631 3529 
Q 2884 3475 3122 3366 
z
" transform="scale(0.015625)"/>
       <path id="DejaVuSans-65" d="M 3597 1894 
L 3597 1613 
L 953 1613 
Q 991 1019 1311 708 
Q 1631 397 2203 397 
Q 2534 397 2845 478 
Q 3156 559 3463 722 
L 3463 178 
Q 3153 47 2828 -22 
Q 2503 -91 2169 -91 
Q 1331 -91 842 396 
Q 353 884 353 1716 
Q 353 2575 817 3079 
Q 1281 3584 2069 3584 
Q 2775 3584 3186 3129 
Q 3597 2675 3597 1894 
z
M 3022 2063 
Q 3016 2534 2758 2815 
Q 2500 3097 2075 3097 
Q 1594 3097 1305 2825 
Q 1016 2553 972 2059 
L 3022 2063 
z
" transform="scale(0.015625)"/>
       <path id="DejaVuSans-74" d="M 1172 4494 
L 1172 3500 
L 2356 3500 
L 2356 3053 
L 1172 3053 
L 1172 1153 
Q 1172 725 1289 603 
Q 1406 481 1766 481 
L 2356 481 
L 2356 0 
L 1766 0 
Q 1100 0 847 248 
Q 594 497 594 1153 
L 594 3053 
L 172 3053 
L 172 3500 
L 594 3500 
L 594 4494 
L 1172 4494 
z
" transform="scale(0.015625)"/>
       <path id="DejaVuSans-67" d="M 2906 1791 
Q 2906 2416 2648 2759 
Q 2391 3103 1925 3103 
Q 1463 3103 1205 2759 
Q 947 2416 947 1791 
Q 947 1169 1205 825 
Q 1463 481 1925 481 
Q 2391 481 2648 825 
Q 2906 1169 2906 1791 
z
M 3481 434 
Q 3481 -459 3084 -895 
Q 2688 -1331 1869 -1331 
Q 1566 -1331 1297 -1286 
Q 1028 -1241 775 -1147 
L 775 -588 
Q 1028 -725 1275 -790 
Q 1522 -856 1778 -856 
Q 2344 -856 2625 -561 
Q 2906 -266 2906 331 
L 2906 616 
Q 2728 306 2450 153 
Q 2172 0 1784 0 
Q 1141 0 747 490 
Q 353 981 353 1791 
Q 353 2603 747 3093 
Q 1141 3584 1784 3584 
Q 2172 3584 2450 3431 
Q 2728 3278 2906 2969 
L 2906 3500 
L 3481 3500 
L 3481 434 
z
" transform="scale(0.015625)"/>
       <path id="DejaVuSans-78" d="M 3513 3500 
L 2247 1797 
L 3578 0 
L 2900 0 
L 1881 1375 
L 863 0 
L 184 0 
L 1544 1831 
L 300 3500 
L 978 3500 
L 1906 2253 
L 2834 3500 
L 3513 3500 
z
" transform="scale(0.015625)"/>
       <path id="DejaVuSans-70" d="M 1159 525 
L 1159 -1331 
L 581 -1331 
L 581 3500 
L 1159 3500 
L 1159 2969 
Q 1341 3281 1617 3432 
Q 1894 3584 2278 3584 
Q 2916 3584 3314 3078 
Q 3713 2572 3713 1747 
Q 3713 922 3314 415 
Q 2916 -91 2278 -91 
Q 1894 -91 1617 61 
Q 1341 213 1159 525 
z
M 3116 1747 
Q 3116 2381 2855 2742 
Q 2594 3103 2138 3103 
Q 1681 3103 1420 2742 
Q 1159 2381 1159 1747 
Q 1159 1113 1420 752 
Q 1681 391 2138 391 
Q 2594 391 2855 752 
Q 3116 1113 3116 1747 
z
" transform="scale(0.015625)"/>
       <path id="DejaVuSans-6f" d="M 1959 3097 
Q 1497 3097 1228 2736 
Q 959 2375 959 1747 
Q 959 1119 1226 758 
Q 1494 397 1959 397 
Q 2419 397 2687 759 
Q 2956 1122 2956 1747 
Q 2956 2369 2687 2733 
Q 2419 3097 1959 3097 
z
M 1959 3584 
Q 2709 3584 3137 3096 
Q 3566 2609 3566 1747 
Q 3566 888 3137 398 
Q 2709 -91 1959 -91 
Q 1206 -91 779 398 
Q 353 888 353 1747 
Q 353 2609 779 3096 
Q 1206 3584 1959 3584 
z
" transform="scale(0.015625)"/>
       <path id="DejaVuSans-75" d="M 544 1381 
L 544 3500 
L 1119 3500 
L 1119 1403 
Q 1119 906 1312 657 
Q 1506 409 1894 409 
Q 2359 409 2629 706 
Q 2900 1003 2900 1516 
L 2900 3500 
L 3475 3500 
L 3475 0 
L 2900 0 
L 2900 538 
Q 2691 219 2414 64 
Q 2138 -91 1772 -91 
Q 1169 -91 856 284 
Q 544 659 544 1381 
z
M 1991 3584 
L 1991 3584 
z
" transform="scale(0.015625)"/>
       <path id="DejaVuSans-72" d="M 2631 2963 
Q 2534 3019 2420 3045 
Q 2306 3072 2169 3072 
Q 1681 3072 1420 2755 
Q 1159 2438 1159 1844 
L 1159 0 
L 581 0 
L 581 3500 
L 1159 3500 
L 1159 2956 
Q 1341 3275 1631 3429 
Q 1922 3584 2338 3584 
Q 2397 3584 2469 3576 
Q 2541 3569 2628 3553 
L 2631 2963 
z
" transform="scale(0.015625)"/>
      </defs>
      <use xlink:href="#DejaVuSans-44"/>
      <use xlink:href="#DejaVuSans-61" x="77.001953"/>
      <use xlink:href="#DejaVuSans-79" x="138.28125"/>
      <use xlink:href="#DejaVuSans-73" x="197.460938"/>
      <use xlink:href="#DejaVuSans-20" x="249.560547"/>
      <use xlink:href="#DejaVuSans-73" x="281.347656"/>
      <use xlink:href="#DejaVuSans-69" x="333.447266"/>
      <use xlink:href="#DejaVuSans-6e" x="361.230469"/>
      <use xlink:href="#DejaVuSans-63" x="424.609375"/>
      <use xlink:href="#DejaVuSans-65" x="479.589844"/>
      <use xlink:href="#DejaVuSans-20" x="541.113281"/>
      <use xlink:href="#DejaVuSans-61" x="572.900391"/>
      <use xlink:href="#DejaVuSans-6e" x="634.179688"/>
      <use xlink:href="#DejaVuSans-74" x="697.558594"/>
      <use xlink:href="#DejaVuSans-69" x="736.767578"/>
      <use xlink:href="#DejaVuSans-67" x="764.550781"/>
      <use xlink:href="#DejaVuSans-65" x="828.027344"/>
      <use xlink:href="#DejaVuSans-6e" x="889.550781"/>
      <use xlink:href="#DejaVuSans-20" x="952.929688"/>
      <use xlink:href="#DejaVuSans-65" x="984.716797"/>
      <use xlink:href="#DejaVuSans-78" x="1044.490234"/>
      <use xlink:href="#DejaVuSans-70" x="1103.669922"/>
      <use xlink:href="#DejaVuSans-6f" x="1167.146484"/>
      <use xlink:href="#DejaVuSans-73" x="1228.328125"/>
      <use xlink:href="#DejaVuSans-75" x="1280.427734"/>
      <use xlink:href="#DejaVuSans-72" x="1343.806641"/>
      <use xlink:href="#DejaVuSans-65" x="1382.669922"/>
     </g>
    </g>
   </g>
   <g id="matplotlib.axis_2">
    <g id="ytick_1">
     <g id="line2d_8">
      <defs>
       <path id="mfc54346cbc" d="M 0 0 
L -3.5 0 
" style="stroke: #000000; stroke-width: 0.8"/>
      </defs>
      <g>
       <use xlink:href="#mfc54346cbc" x="91.758125" y="379.544782" style="stroke: #000000; stroke-width: 0.8"/>
      </g>
     </g>
     <g id="text_9">
      <!-- 0.0 -->
      <g transform="translate(52.951875 387.14322) scale(0.2 -0.2)">
       <defs>
        <path id="DejaVuSans-2e" d="M 684 794 
L 1344 794 
L 1344 0 
L 684 0 
L 684 794 
z
" transform="scale(0.015625)"/>
       </defs>
       <use xlink:href="#DejaVuSans-30"/>
       <use xlink:href="#DejaVuSans-2e" x="63.623047"/>
       <use xlink:href="#DejaVuSans-30" x="95.410156"/>
      </g>
     </g>
    </g>
    <g id="ytick_2">
     <g id="line2d_9">
      <g>
       <use xlink:href="#mfc54346cbc" x="91.758125" y="305.680597" style="stroke: #000000; stroke-width: 0.8"/>
      </g>
     </g>
     <g id="text_10">
      <!-- 0.2 -->
      <g transform="translate(52.951875 313.279034) scale(0.2 -0.2)">
       <use xlink:href="#DejaVuSans-30"/>
       <use xlink:href="#DejaVuSans-2e" x="63.623047"/>
       <use xlink:href="#DejaVuSans-32" x="95.410156"/>
      </g>
     </g>
    </g>
    <g id="ytick_3">
     <g id="line2d_10">
      <g>
       <use xlink:href="#mfc54346cbc" x="91.758125" y="231.816411" style="stroke: #000000; stroke-width: 0.8"/>
      </g>
     </g>
     <g id="text_11">
      <!-- 0.4 -->
      <g transform="translate(52.951875 239.414849) scale(0.2 -0.2)">
       <use xlink:href="#DejaVuSans-30"/>
       <use xlink:href="#DejaVuSans-2e" x="63.623047"/>
       <use xlink:href="#DejaVuSans-34" x="95.410156"/>
      </g>
     </g>
    </g>
    <g id="ytick_4">
     <g id="line2d_11">
      <g>
       <use xlink:href="#mfc54346cbc" x="91.758125" y="157.952226" style="stroke: #000000; stroke-width: 0.8"/>
      </g>
     </g>
     <g id="text_12">
      <!-- 0.6 -->
      <g transform="translate(52.951875 165.550663) scale(0.2 -0.2)">
       <use xlink:href="#DejaVuSans-30"/>
       <use xlink:href="#DejaVuSans-2e" x="63.623047"/>
       <use xlink:href="#DejaVuSans-36" x="95.410156"/>
      </g>
     </g>
    </g>
    <g id="ytick_5">
     <g id="line2d_12">
      <g>
       <use xlink:href="#mfc54346cbc" x="91.758125" y="84.08804" style="stroke: #000000; stroke-width: 0.8"/>
      </g>
     </g>
     <g id="text_13">
      <!-- 0.8 -->
      <g transform="translate(52.951875 91.686477) scale(0.2 -0.2)">
       <defs>
        <path id="DejaVuSans-38" d="M 2034 2216 
Q 1584 2216 1326 1975 
Q 1069 1734 1069 1313 
Q 1069 891 1326 650 
Q 1584 409 2034 409 
Q 2484 409 2743 651 
Q 3003 894 3003 1313 
Q 3003 1734 2745 1975 
Q 2488 2216 2034 2216 
z
M 1403 2484 
Q 997 2584 770 2862 
Q 544 3141 544 3541 
Q 544 4100 942 4425 
Q 1341 4750 2034 4750 
Q 2731 4750 3128 4425 
Q 3525 4100 3525 3541 
Q 3525 3141 3298 2862 
Q 3072 2584 2669 2484 
Q 3125 2378 3379 2068 
Q 3634 1759 3634 1313 
Q 3634 634 3220 271 
Q 2806 -91 2034 -91 
Q 1263 -91 848 271 
Q 434 634 434 1313 
Q 434 1759 690 2068 
Q 947 2378 1403 2484 
z
M 1172 3481 
Q 1172 3119 1398 2916 
Q 1625 2713 2034 2713 
Q 2441 2713 2670 2916 
Q 2900 3119 2900 3481 
Q 2900 3844 2670 4047 
Q 2441 4250 2034 4250 
Q 1625 4250 1398 4047 
Q 1172 3844 1172 3481 
z
" transform="scale(0.015625)"/>
       </defs>
       <use xlink:href="#DejaVuSans-30"/>
       <use xlink:href="#DejaVuSans-2e" x="63.623047"/>
       <use xlink:href="#DejaVuSans-38" x="95.410156"/>
      </g>
     </g>
    </g>
    <g id="text_14">
     <!-- Virus neutralization -->
     <g transform="translate(22.396875 319.741562) rotate(-90) scale(0.2 -0.2)">
      <defs>
       <path id="DejaVuSans-56" d="M 1831 0 
L 50 4666 
L 709 4666 
L 2188 738 
L 3669 4666 
L 4325 4666 
L 2547 0 
L 1831 0 
z
" transform="scale(0.015625)"/>
       <path id="DejaVuSans-6c" d="M 603 4863 
L 1178 4863 
L 1178 0 
L 603 0 
L 603 4863 
z
" transform="scale(0.015625)"/>
       <path id="DejaVuSans-7a" d="M 353 3500 
L 3084 3500 
L 3084 2975 
L 922 459 
L 3084 459 
L 3084 0 
L 275 0 
L 275 525 
L 2438 3041 
L 353 3041 
L 353 3500 
z
" transform="scale(0.015625)"/>
      </defs>
      <use xlink:href="#DejaVuSans-56"/>
      <use xlink:href="#DejaVuSans-69" x="66.158203"/>
      <use xlink:href="#DejaVuSans-72" x="93.941406"/>
      <use xlink:href="#DejaVuSans-75" x="135.054688"/>
      <use xlink:href="#DejaVuSans-73" x="198.433594"/>
      <use xlink:href="#DejaVuSans-20" x="250.533203"/>
      <use xlink:href="#DejaVuSans-6e" x="282.320312"/>
      <use xlink:href="#DejaVuSans-65" x="345.699219"/>
      <use xlink:href="#DejaVuSans-75" x="407.222656"/>
      <use xlink:href="#DejaVuSans-74" x="470.601562"/>
      <use xlink:href="#DejaVuSans-72" x="509.810547"/>
      <use xlink:href="#DejaVuSans-61" x="550.923828"/>
      <use xlink:href="#DejaVuSans-6c" x="612.203125"/>
      <use xlink:href="#DejaVuSans-69" x="639.986328"/>
      <use xlink:href="#DejaVuSans-7a" x="667.769531"/>
      <use xlink:href="#DejaVuSans-61" x="720.259766"/>
      <use xlink:href="#DejaVuSans-74" x="781.539062"/>
      <use xlink:href="#DejaVuSans-69" x="820.748047"/>
      <use xlink:href="#DejaVuSans-6f" x="848.53125"/>
      <use xlink:href="#DejaVuSans-6e" x="909.712891"/>
     </g>
     <!--  probability -->
     <g transform="translate(44.7925 278.966562) rotate(-90) scale(0.2 -0.2)">
      <defs>
       <path id="DejaVuSans-62" d="M 3116 1747 
Q 3116 2381 2855 2742 
Q 2594 3103 2138 3103 
Q 1681 3103 1420 2742 
Q 1159 2381 1159 1747 
Q 1159 1113 1420 752 
Q 1681 391 2138 391 
Q 2594 391 2855 752 
Q 3116 1113 3116 1747 
z
M 1159 2969 
Q 1341 3281 1617 3432 
Q 1894 3584 2278 3584 
Q 2916 3584 3314 3078 
Q 3713 2572 3713 1747 
Q 3713 922 3314 415 
Q 2916 -91 2278 -91 
Q 1894 -91 1617 61 
Q 1341 213 1159 525 
L 1159 0 
L 581 0 
L 581 4863 
L 1159 4863 
L 1159 2969 
z
" transform="scale(0.015625)"/>
      </defs>
      <use xlink:href="#DejaVuSans-20"/>
      <use xlink:href="#DejaVuSans-70" x="31.787109"/>
      <use xlink:href="#DejaVuSans-72" x="95.263672"/>
      <use xlink:href="#DejaVuSans-6f" x="134.126953"/>
      <use xlink:href="#DejaVuSans-62" x="195.308594"/>
      <use xlink:href="#DejaVuSans-61" x="258.785156"/>
      <use xlink:href="#DejaVuSans-62" x="320.064453"/>
      <use xlink:href="#DejaVuSans-69" x="383.541016"/>
      <use xlink:href="#DejaVuSans-6c" x="411.324219"/>
      <use xlink:href="#DejaVuSans-69" x="439.107422"/>
      <use xlink:href="#DejaVuSans-74" x="466.890625"/>
      <use xlink:href="#DejaVuSans-79" x="506.099609"/>
     </g>
    </g>
   </g>
   <g id="patch_3">
    <path d="M 91.758125 416.476875 
L 91.758125 28.396875 
" style="fill: none; stroke: #000000; stroke-width: 0.8; stroke-linejoin: miter; stroke-linecap: square"/>
   </g>
   <g id="patch_4">
    <path d="M 649.758125 416.476875 
L 649.758125 28.396875 
" style="fill: none; stroke: #000000; stroke-width: 0.8; stroke-linejoin: miter; stroke-linecap: square"/>
   </g>
   <g id="patch_5">
    <path d="M 91.758125 416.476875 
L 649.758125 416.476875 
" style="fill: none; stroke: #000000; stroke-width: 0.8; stroke-linejoin: miter; stroke-linecap: square"/>
   </g>
   <g id="patch_6">
    <path d="M 91.758125 28.396875 
L 649.758125 28.396875 
" style="fill: none; stroke: #000000; stroke-width: 0.8; stroke-linejoin: miter; stroke-linecap: square"/>
   </g>
   <g id="text_15">
    <!-- BA.3 antigen -->
    <g transform="translate(306.509687 22.396875) scale(0.2 -0.2)">
     <defs>
      <path id="DejaVuSans-42" d="M 1259 2228 
L 1259 519 
L 2272 519 
Q 2781 519 3026 730 
Q 3272 941 3272 1375 
Q 3272 1813 3026 2020 
Q 2781 2228 2272 2228 
L 1259 2228 
z
M 1259 4147 
L 1259 2741 
L 2194 2741 
Q 2656 2741 2882 2914 
Q 3109 3088 3109 3444 
Q 3109 3797 2882 3972 
Q 2656 4147 2194 4147 
L 1259 4147 
z
M 628 4666 
L 2241 4666 
Q 2963 4666 3353 4366 
Q 3744 4066 3744 3513 
Q 3744 3084 3544 2831 
Q 3344 2578 2956 2516 
Q 3422 2416 3680 2098 
Q 3938 1781 3938 1306 
Q 3938 681 3513 340 
Q 3088 0 2303 0 
L 628 0 
L 628 4666 
z
" transform="scale(0.015625)"/>
      <path id="DejaVuSans-41" d="M 2188 4044 
L 1331 1722 
L 3047 1722 
L 2188 4044 
z
M 1831 4666 
L 2547 4666 
L 4325 0 
L 3669 0 
L 3244 1197 
L 1141 1197 
L 716 0 
L 50 0 
L 1831 4666 
z
" transform="scale(0.015625)"/>
     </defs>
     <use xlink:href="#DejaVuSans-42"/>
     <use xlink:href="#DejaVuSans-41" x="68.603516"/>
     <use xlink:href="#DejaVuSans-2e" x="135.261719"/>
     <use xlink:href="#DejaVuSans-33" x="167.048828"/>
     <use xlink:href="#DejaVuSans-20" x="230.671875"/>
     <use xlink:href="#DejaVuSans-61" x="262.458984"/>
     <use xlink:href="#DejaVuSans-6e" x="323.738281"/>
     <use xlink:href="#DejaVuSans-74" x="387.117188"/>
     <use xlink:href="#DejaVuSans-69" x="426.326172"/>
     <use xlink:href="#DejaVuSans-67" x="454.109375"/>
     <use xlink:href="#DejaVuSans-65" x="517.585938"/>
     <use xlink:href="#DejaVuSans-6e" x="579.109375"/>
    </g>
   </g>
   <g id="legend_1">
    <g id="patch_7">
     <path d="M 235.258125 532.900875 
L 345.3925 532.900875 
Q 349.3925 532.900875 349.3925 528.900875 
L 349.3925 501.544625 
Q 349.3925 497.544625 345.3925 497.544625 
L 235.258125 497.544625 
Q 231.258125 497.544625 231.258125 501.544625 
L 231.258125 528.900875 
Q 231.258125 532.900875 235.258125 532.900875 
z
" style="fill: #ffffff; opacity: 0.8; stroke: #cccccc; stroke-linejoin: miter"/>
    </g>
    <g id="patch_8">
     <path d="M 239.258125 520.7415 
L 279.258125 520.7415 
L 279.258125 506.7415 
L 239.258125 506.7415 
z
" style="fill: #ffa500; fill-opacity: 0.3; stroke: #ffa500; stroke-opacity: 0.3; stroke-linejoin: miter"/>
    </g>
    <g id="text_16">
     <!-- BA.2 -->
     <g transform="translate(295.258125 520.7415) scale(0.2 -0.2)">
      <use xlink:href="#DejaVuSans-42"/>
      <use xlink:href="#DejaVuSans-41" x="68.603516"/>
      <use xlink:href="#DejaVuSans-2e" x="135.261719"/>
      <use xlink:href="#DejaVuSans-32" x="167.048828"/>
     </g>
    </g>
   </g>
  </g>
 </g>
 <defs>
  <clipPath id="p44fd9d8c60">
   <rect x="91.758125" y="28.396875" width="558" height="388.08"/>
  </clipPath>
 </defs>
</svg>
