<?xml version="1.0" encoding="utf-8" standalone="no"?>
<!DOCTYPE svg PUBLIC "-//W3C//DTD SVG 1.1//EN"
  "http://www.w3.org/Graphics/SVG/1.1/DTD/svg11.dtd">
<svg xmlns:xlink="http://www.w3.org/1999/xlink" width="656.958125pt" height="540.100875pt" viewBox="0 0 656.958125 540.100875" xmlns="http://www.w3.org/2000/svg" version="1.1">
 <metadata>
  <rdf:RDF xmlns:dc="http://purl.org/dc/elements/1.1/" xmlns:cc="http://creativecommons.org/ns#" xmlns:rdf="http://www.w3.org/1999/02/22-rdf-syntax-ns#">
   <cc:Work>
    <dc:type rdf:resource="http://purl.org/dc/dcmitype/StillImage"/>
    <dc:date>2024-04-19T23:19:05.725281</dc:date>
    <dc:format>image/svg+xml</dc:format>
    <dc:creator>
     <cc:Agent>
      <dc:title>Matplotlib v3.8.4, https://matplotlib.org/</dc:title>
     </cc:Agent>
    </dc:creator>
   </cc:Work>
  </rdf:RDF>
 </metadata>
 <defs>
  <style type="text/css">*{stroke-linejoin: round; stroke-linecap: butt}</style>
 </defs>
 <g id="figure_1">
  <g id="patch_1">
   <path d="M 0 540.100875 
L 656.958125 540.100875 
L 656.958125 0 
L 0 0 
z
" style="fill: #ffffff"/>
  </g>
  <g id="axes_1">
   <g id="patch_2">
    <path d="M 91.758125 416.476875 
L 649.758125 416.476875 
L 649.758125 28.396875 
L 91.758125 28.396875 
z
" style="fill: #ffffff"/>
   </g>
   <g id="PolyCollection_1">
    <defs>
     <path id="m7f7fb4c28c" d="M 117.121761 -307.705378 
L 117.121761 -229.264264 
L 117.897408 -279.684013 
L 118.673054 -318.146793 
L 119.4487 -348.022425 
L 120.224347 -371.594783 
L 120.999993 -390.449588 
L 121.77564 -405.711634 
L 122.551286 -418.194139 
L 123.326932 -428.495225 
L 124.102579 -437.061674 
L 124.878225 -444.231941 
L 125.653871 -450.265721 
L 126.429518 -455.364623 
L 127.205164 -459.686844 
L 127.980811 -463.35775 
L 128.756457 -466.477589 
L 129.532103 -469.127203 
L 130.30775 -471.372281 
L 131.083396 -473.266591 
L 131.859042 -474.436892 
L 132.634689 -472.741634 
L 133.410335 -470.880702 
L 134.185982 -468.868418 
L 134.961628 -466.71716 
L 135.737274 -464.437782 
L 136.512921 -462.039929 
L 137.288567 -459.532278 
L 138.064213 -456.922721 
L 138.83986 -454.218512 
L 139.615506 -451.426374 
L 140.391153 -448.552591 
L 141.166799 -445.60307 
L 141.942445 -442.583401 
L 142.718092 -439.498894 
L 143.493738 -436.354615 
L 144.269384 -433.155414 
L 145.045031 -429.905942 
L 145.820677 -426.610674 
L 146.596323 -423.27392 
L 147.37197 -419.899833 
L 148.147616 -416.492423 
L 148.923263 -413.055563 
L 149.698909 -409.592994 
L 150.474555 -406.108329 
L 151.250202 -402.605059 
L 152.025848 -399.086559 
L 152.801494 -395.556082 
L 153.577141 -392.016773 
L 154.352787 -388.471662 
L 155.128434 -384.92367 
L 155.90408 -381.375611 
L 156.679726 -377.830193 
L 157.455373 -374.290016 
L 158.231019 -370.757581 
L 159.006665 -367.235282 
L 159.782312 -363.725414 
L 160.557958 -360.230174 
L 161.333605 -356.751658 
L 162.109251 -353.291866 
L 162.884897 -349.852702 
L 163.660544 -346.435976 
L 164.43619 -343.043405 
L 165.211836 -339.676614 
L 165.987483 -336.337139 
L 166.763129 -333.026427 
L 167.538776 -329.74584 
L 168.314422 -326.496653 
L 169.090068 -323.28006 
L 169.865715 -320.097174 
L 170.641361 -316.949026 
L 171.417007 -313.836573 
L 172.192654 -310.760695 
L 172.9683 -307.722199 
L 173.743947 -304.721821 
L 174.519593 -301.760229 
L 175.295239 -298.838023 
L 176.070886 -295.955737 
L 176.846532 -293.113844 
L 177.622178 -290.312757 
L 178.397825 -287.55283 
L 179.173471 -284.83436 
L 179.949117 -282.157592 
L 180.724764 -279.522718 
L 181.50041 -276.92988 
L 182.276057 -274.379175 
L 183.051703 -271.870651 
L 183.827349 -269.404315 
L 184.602996 -266.980134 
L 185.378642 -264.598033 
L 186.154288 -262.257902 
L 186.929935 -259.959594 
L 187.705581 -257.70293 
L 188.481228 -255.487699 
L 189.256874 -253.313661 
L 190.03252 -251.180548 
L 190.808167 -249.088065 
L 191.583813 -247.035894 
L 192.359459 -245.023694 
L 193.135106 -243.0511 
L 193.910752 -241.117732 
L 194.686399 -239.223189 
L 195.462045 -237.367053 
L 196.237691 -235.548892 
L 197.013338 -233.76826 
L 197.788984 -232.024696 
L 198.56463 -230.31773 
L 199.340277 -228.64688 
L 200.115923 -227.011657 
L 200.89157 -225.411561 
L 201.667216 -223.846087 
L 202.442862 -222.314722 
L 203.218509 -220.816949 
L 203.994155 -219.352246 
L 204.769801 -217.920089 
L 205.545448 -216.51995 
L 206.321094 -215.151298 
L 207.096741 -213.813603 
L 207.872387 -212.506334 
L 208.648033 -211.228957 
L 209.42368 -209.980944 
L 210.199326 -208.761763 
L 210.974972 -207.570888 
L 211.750619 -206.407792 
L 212.526265 -205.271953 
L 213.301911 -204.16285 
L 214.077558 -203.079968 
L 214.853204 -202.022794 
L 215.628851 -200.990819 
L 216.404497 -199.983542 
L 217.180143 -199.000462 
L 217.95579 -198.041086 
L 218.731436 -197.104926 
L 219.507082 -196.191499 
L 220.282729 -195.300329 
L 221.058375 -194.430944 
L 221.834022 -193.58288 
L 222.609668 -192.755679 
L 223.385314 -191.948888 
L 224.160961 -191.162061 
L 224.936607 -190.394761 
L 225.712253 -189.646555 
L 226.4879 -188.917016 
L 227.263546 -188.205728 
L 228.039193 -187.512277 
L 228.814839 -186.836259 
L 229.590485 -186.177276 
L 230.366132 -185.534937 
L 231.141778 -184.908858 
L 231.917424 -184.298662 
L 232.693071 -183.703978 
L 233.468717 -183.124443 
L 234.244364 -182.5597 
L 235.02001 -182.0094 
L 235.795656 -181.4732 
L 236.571303 -180.950763 
L 237.346949 -180.44176 
L 238.122595 -179.945868 
L 238.898242 -179.462771 
L 239.673888 -178.992158 
L 240.449535 -178.533727 
L 241.225181 -178.08718 
L 242.000827 -177.652226 
L 242.776474 -177.22858 
L 243.55212 -176.815965 
L 244.327766 -176.414107 
L 245.103413 -176.02274 
L 245.879059 -175.641604 
L 246.654705 -175.270443 
L 247.430352 -174.909008 
L 248.205998 -174.557055 
L 248.981645 -174.214346 
L 249.757291 -173.880649 
L 250.532937 -173.555736 
L 251.308584 -173.239385 
L 252.08423 -172.931379 
L 252.859876 -172.631506 
L 253.635523 -172.339558 
L 254.411169 -172.055334 
L 255.186816 -171.778635 
L 255.962462 -171.509271 
L 256.738108 -171.247051 
L 257.513755 -170.991792 
L 258.289401 -170.743316 
L 259.065047 -170.501447 
L 259.840694 -170.266015 
L 260.61634 -170.036852 
L 261.391987 -169.813797 
L 262.167633 -169.59669 
L 262.943279 -169.385378 
L 263.718926 -169.179709 
L 264.494572 -168.979537 
L 265.270218 -168.784716 
L 266.045865 -168.595109 
L 266.821511 -168.410578 
L 267.597158 -168.230991 
L 268.372804 -168.056217 
L 269.14845 -167.88613 
L 269.924097 -167.720607 
L 270.699743 -167.559528 
L 271.475389 -167.402775 
L 272.251036 -167.250235 
L 273.026682 -167.101796 
L 273.802329 -166.957351 
L 274.577975 -166.816792 
L 275.353621 -166.680017 
L 276.129268 -166.546927 
L 276.904914 -166.417423 
L 277.68056 -166.291409 
L 278.456207 -166.168794 
L 279.231853 -166.049487 
L 280.007499 -165.933399 
L 280.783146 -165.820446 
L 281.558792 -165.710543 
L 282.334439 -165.603609 
L 283.110085 -165.499566 
L 283.885731 -165.398334 
L 284.661378 -165.299841 
L 285.437024 -165.204011 
L 286.21267 -165.110775 
L 286.988317 -165.020062 
L 287.763963 -164.931805 
L 288.53961 -164.845939 
L 289.315256 -164.762398 
L 290.090902 -164.681121 
L 290.866549 -164.602047 
L 291.642195 -164.525116 
L 292.417841 -164.450271 
L 293.193488 -164.377456 
L 293.969134 -164.306617 
L 294.744781 -164.2377 
L 295.520427 -164.170653 
L 296.296073 -164.105426 
L 297.07172 -164.04197 
L 297.847366 -163.980237 
L 298.623012 -163.920181 
L 299.398659 -163.861756 
L 300.174305 -163.804919 
L 300.949952 -163.749627 
L 301.725598 -163.695837 
L 302.501244 -163.64351 
L 303.276891 -163.592605 
L 304.052537 -163.543085 
L 304.828183 -163.494911 
L 305.60383 -163.448048 
L 306.379476 -163.40246 
L 307.155122 -163.358112 
L 307.930769 -163.314971 
L 308.706415 -163.273004 
L 309.482062 -163.23218 
L 310.257708 -163.192467 
L 311.033354 -163.153835 
L 311.809001 -163.116255 
L 312.584647 -163.079699 
L 313.360293 -163.044138 
L 314.13594 -163.009546 
L 314.911586 -162.975896 
L 315.687233 -162.943163 
L 316.462879 -162.911322 
L 317.238525 -162.880349 
L 318.014172 -162.85022 
L 318.789818 -162.820912 
L 319.565464 -162.792403 
L 320.341111 -162.764671 
L 321.116757 -162.737695 
L 321.892404 -162.711454 
L 322.66805 -162.685929 
L 323.443696 -162.6611 
L 324.219343 -162.636949 
L 324.994989 -162.613456 
L 325.770635 -162.590603 
L 326.546282 -162.568374 
L 327.321928 -162.546752 
L 328.097575 -162.525719 
L 328.873221 -162.50526 
L 329.648867 -162.48536 
L 330.424514 -162.466002 
L 331.20016 -162.447172 
L 331.975806 -162.428857 
L 332.751453 -162.411041 
L 333.527099 -162.393712 
L 334.302746 -162.376855 
L 335.078392 -162.360459 
L 335.854038 -162.34451 
L 336.629685 -162.328996 
L 337.405331 -162.313906 
L 338.180977 -162.299228 
L 338.956624 -162.284951 
L 339.73227 -162.271064 
L 340.507916 -162.257555 
L 341.283563 -162.244416 
L 342.059209 -162.231635 
L 342.834856 -162.219203 
L 343.610502 -162.207111 
L 344.386148 -162.195349 
L 345.161795 -162.183909 
L 345.937441 -162.17278 
L 346.713087 -162.161956 
L 347.488734 -162.151427 
L 348.26438 -162.141186 
L 349.040027 -162.131225 
L 349.815673 -162.121535 
L 350.591319 -162.112111 
L 351.366966 -162.102944 
L 352.142612 -162.094027 
L 352.918258 -162.085354 
L 353.693905 -162.076918 
L 354.469551 -162.068712 
L 355.245198 -162.06073 
L 356.020844 -162.052967 
L 356.79649 -162.045416 
L 357.572137 -162.038071 
L 358.347783 -162.030926 
L 359.123429 -162.023977 
L 359.899076 -162.017218 
L 360.674722 -162.010643 
L 361.450369 -162.004248 
L 362.226015 -161.998028 
L 363.001661 -161.991978 
L 363.777308 -161.986093 
L 364.552954 -161.980369 
L 365.3286 -161.974802 
L 366.104247 -161.969386 
L 366.879893 -161.964119 
L 367.65554 -161.958995 
L 368.431186 -161.954012 
L 369.206832 -161.949165 
L 369.982479 -161.94445 
L 370.758125 -161.939864 
L 371.533771 -161.935403 
L 372.309418 -161.931065 
L 373.085064 -161.926845 
L 373.86071 -161.92274 
L 374.636357 -161.918747 
L 375.412003 -161.914864 
L 376.18765 -161.911087 
L 376.963296 -161.907413 
L 377.738942 -161.903839 
L 378.514589 -161.900363 
L 379.290235 -161.896982 
L 380.065881 -161.893694 
L 380.841528 -161.890495 
L 381.617174 -161.887384 
L 382.392821 -161.884358 
L 383.168467 -161.881414 
L 383.944113 -161.878552 
L 384.71976 -161.875767 
L 385.495406 -161.873058 
L 386.271052 -161.870424 
L 387.046699 -161.867861 
L 387.822345 -161.865369 
L 388.597992 -161.862945 
L 389.373638 -161.860587 
L 390.149284 -161.858293 
L 390.924931 -161.856062 
L 391.700577 -161.853892 
L 392.476223 -161.851782 
L 393.25187 -161.849729 
L 394.027516 -161.847732 
L 394.803163 -161.84579 
L 395.578809 -161.843901 
L 396.354455 -161.842064 
L 397.130102 -161.840277 
L 397.905748 -161.838538 
L 398.681394 -161.836848 
L 399.457041 -161.835203 
L 400.232687 -161.833603 
L 401.008334 -161.832048 
L 401.78398 -161.830534 
L 402.559626 -161.829062 
L 403.335273 -161.827631 
L 404.110919 -161.826238 
L 404.886565 -161.824884 
L 405.662212 -161.823566 
L 406.437858 -161.822285 
L 407.213504 -161.821038 
L 407.989151 -161.819826 
L 408.764797 -161.818647 
L 409.540444 -161.8175 
L 410.31609 -161.816384 
L 411.091736 -161.815299 
L 411.867383 -161.814244 
L 412.643029 -161.813217 
L 413.418675 -161.812219 
L 414.194322 -161.811248 
L 414.969968 -161.810303 
L 415.745615 -161.809384 
L 416.521261 -161.808491 
L 417.296907 -161.807622 
L 418.072554 -161.806776 
L 418.8482 -161.805954 
L 419.623846 -161.805154 
L 420.399493 -161.804376 
L 421.175139 -161.803619 
L 421.950786 -161.802883 
L 422.726432 -161.802167 
L 423.502078 -161.801471 
L 424.277725 -161.800794 
L 425.053371 -161.800135 
L 425.829017 -161.799494 
L 426.604664 -161.798871 
L 427.38031 -161.798265 
L 428.155957 -161.797675 
L 428.931603 -161.797102 
L 429.707249 -161.796544 
L 430.482896 -161.796001 
L 431.258542 -161.795473 
L 432.034188 -161.79496 
L 432.809835 -161.794461 
L 433.585481 -161.793975 
L 434.361128 -161.793503 
L 435.136774 -161.793044 
L 435.91242 -161.792597 
L 436.688067 -161.792162 
L 437.463713 -161.791739 
L 438.239359 -161.791328 
L 439.015006 -161.790928 
L 439.790652 -161.790539 
L 440.566298 -161.790161 
L 441.341945 -161.789793 
L 442.117591 -161.789435 
L 442.893238 -161.789087 
L 443.668884 -161.788748 
L 444.44453 -161.788419 
L 445.220177 -161.788098 
L 445.995823 -161.787787 
L 446.771469 -161.787483 
L 447.547116 -161.787189 
L 448.322762 -161.786902 
L 449.098409 -161.786623 
L 449.874055 -161.786352 
L 450.649701 -161.786088 
L 451.425348 -161.785831 
L 452.200994 -161.785581 
L 452.97664 -161.785339 
L 453.752287 -161.785103 
L 454.527933 -161.784873 
L 455.30358 -161.784649 
L 456.079226 -161.784432 
L 456.854872 -161.784221 
L 457.630519 -161.784015 
L 458.406165 -161.783815 
L 459.181811 -161.783621 
L 459.957458 -161.783431 
L 460.733104 -161.783247 
L 461.508751 -161.783068 
L 462.284397 -161.782894 
L 463.060043 -161.782725 
L 463.83569 -161.78256 
L 464.611336 -161.7824 
L 465.386982 -161.782244 
L 466.162629 -161.782093 
L 466.938275 -161.781945 
L 467.713921 -161.781802 
L 468.489568 -161.781662 
L 469.265214 -161.781527 
L 470.040861 -161.781395 
L 470.816507 -161.781267 
L 471.592153 -161.781142 
L 472.3678 -161.78102 
L 473.143446 -161.780902 
L 473.919092 -161.780787 
L 474.694739 -161.780676 
L 475.470385 -161.780567 
L 476.246032 -161.780461 
L 477.021678 -161.780358 
L 477.797324 -161.780258 
L 478.572971 -161.780161 
L 479.348617 -161.780067 
L 480.124263 -161.779975 
L 480.89991 -161.779885 
L 481.675556 -161.779798 
L 482.451203 -161.779713 
L 483.226849 -161.779631 
L 484.002495 -161.779551 
L 484.778142 -161.779473 
L 485.553788 -161.779397 
L 486.329434 -161.779324 
L 487.105081 -161.779252 
L 487.880727 -161.779182 
L 488.656374 -161.779114 
L 489.43202 -161.779048 
L 490.207666 -161.778984 
L 490.983313 -161.778922 
L 491.758959 -161.778861 
L 492.534605 -161.778802 
L 493.310252 -161.778745 
L 494.085898 -161.778689 
L 494.861545 -161.778634 
L 495.637191 -161.778582 
L 496.412837 -161.77853 
L 497.188484 -161.77848 
L 497.96413 -161.778432 
L 498.739776 -161.778384 
L 499.515423 -161.778338 
L 500.291069 -161.778293 
L 501.066715 -161.77825 
L 501.842362 -161.778208 
L 502.618008 -161.778166 
L 503.393655 -161.778126 
L 504.169301 -161.778087 
L 504.944947 -161.77805 
L 505.720594 -161.778013 
L 506.49624 -161.777977 
L 507.271886 -161.777942 
L 508.047533 -161.777908 
L 508.823179 -161.777875 
L 509.598826 -161.777843 
L 510.374472 -161.777812 
L 511.150118 -161.777781 
L 511.925765 -161.777752 
L 512.701411 -161.777723 
L 513.477057 -161.777695 
L 514.252704 -161.777668 
L 515.02835 -161.777642 
L 515.803997 -161.777616 
L 516.579643 -161.777591 
L 517.355289 -161.777567 
L 518.130936 -161.777543 
L 518.906582 -161.77752 
L 519.682228 -161.777498 
L 520.457875 -161.777476 
L 521.233521 -161.777455 
L 522.009168 -161.777434 
L 522.784814 -161.777414 
L 523.56046 -161.777395 
L 524.336107 -161.777376 
L 525.111753 -161.777357 
L 525.887399 -161.777339 
L 526.663046 -161.777322 
L 527.438692 -161.777305 
L 528.214339 -161.777288 
L 528.989985 -161.777272 
L 529.765631 -161.777257 
L 530.541278 -161.777242 
L 531.316924 -161.777227 
L 532.09257 -161.777213 
L 532.868217 -161.777199 
L 533.643863 -161.777185 
L 534.419509 -161.777172 
L 535.195156 -161.777159 
L 535.970802 -161.777146 
L 536.746449 -161.777134 
L 537.522095 -161.777122 
L 538.297741 -161.777111 
L 539.073388 -161.7771 
L 539.849034 -161.777089 
L 540.62468 -161.777078 
L 541.400327 -161.777068 
L 542.175973 -161.777058 
L 542.95162 -161.777048 
L 543.727266 -161.777039 
L 544.502912 -161.77703 
L 545.278559 -161.777021 
L 546.054205 -161.777012 
L 546.829851 -161.777003 
L 547.605498 -161.776995 
L 548.381144 -161.776987 
L 549.156791 -161.776979 
L 549.932437 -161.776972 
L 550.708083 -161.776964 
L 551.48373 -161.776957 
L 552.259376 -161.77695 
L 553.035022 -161.776943 
L 553.810669 -161.776937 
L 554.586315 -161.77693 
L 555.361962 -161.776924 
L 556.137608 -161.776918 
L 556.913254 -161.776912 
L 557.688901 -161.776906 
L 558.464547 -161.776901 
L 559.240193 -161.776895 
L 560.01584 -161.77689 
L 560.791486 -161.776885 
L 561.567133 -161.77688 
L 562.342779 -161.776875 
L 563.118425 -161.77687 
L 563.894072 -161.776866 
L 564.669718 -161.776861 
L 565.445364 -161.776857 
L 566.221011 -161.776853 
L 566.996657 -161.776848 
L 567.772303 -161.776844 
L 568.54795 -161.776841 
L 569.323596 -161.776837 
L 570.099243 -161.776833 
L 570.874889 -161.77683 
L 571.650535 -161.776826 
L 572.426182 -161.776823 
L 573.201828 -161.776819 
L 573.977474 -161.776816 
L 574.753121 -161.776813 
L 575.528767 -161.77681 
L 576.304414 -161.776807 
L 577.08006 -161.776804 
L 577.855706 -161.776801 
L 578.631353 -161.776799 
L 579.406999 -161.776796 
L 580.182645 -161.776793 
L 580.958292 -161.776791 
L 581.733938 -161.776788 
L 582.509585 -161.776786 
L 583.285231 -161.776784 
L 584.060877 -161.776782 
L 584.836524 -161.776779 
L 585.61217 -161.776777 
L 586.387816 -161.776775 
L 587.163463 -161.776773 
L 587.939109 -161.776771 
L 588.714756 -161.776769 
L 589.490402 -161.776767 
L 590.266048 -161.776766 
L 591.041695 -161.776764 
L 591.817341 -161.776762 
L 592.592987 -161.776761 
L 593.368634 -161.776759 
L 594.14428 -161.776757 
L 594.919927 -161.776756 
L 595.695573 -161.776754 
L 596.471219 -161.776753 
L 597.246866 -161.776752 
L 598.022512 -161.77675 
L 598.798158 -161.776749 
L 599.573805 -161.776748 
L 600.349451 -161.776746 
L 601.125097 -161.776745 
L 601.900744 -161.776744 
L 602.67639 -161.776743 
L 603.452037 -161.776742 
L 604.227683 -161.776741 
L 605.003329 -161.77674 
L 605.778976 -161.776738 
L 606.554622 -161.776737 
L 607.330268 -161.776737 
L 608.105915 -161.776736 
L 608.881561 -161.776735 
L 609.657208 -161.776734 
L 610.432854 -161.776733 
L 611.2085 -161.776732 
L 611.984147 -161.776731 
L 612.759793 -161.77673 
L 613.535439 -161.77673 
L 614.311086 -161.776729 
L 615.086732 -161.776728 
L 615.862379 -161.776727 
L 616.638025 -161.776727 
L 617.413671 -161.776726 
L 618.189318 -161.776725 
L 618.964964 -161.776725 
L 619.74061 -161.776724 
L 620.516257 -161.776723 
L 621.291903 -161.776723 
L 622.06755 -161.776722 
L 622.843196 -161.776722 
L 623.618842 -161.776721 
L 624.394489 -161.776721 
L 624.394489 -163.433584 
L 624.394489 -163.433584 
L 623.618842 -163.450269 
L 622.843196 -163.467122 
L 622.06755 -163.484143 
L 621.291903 -163.501336 
L 620.516257 -163.518702 
L 619.74061 -163.536241 
L 618.964964 -163.553957 
L 618.189318 -163.571851 
L 617.413671 -163.589925 
L 616.638025 -163.608179 
L 615.862379 -163.626618 
L 615.086732 -163.645241 
L 614.311086 -163.664051 
L 613.535439 -163.68305 
L 612.759793 -163.70224 
L 611.984147 -163.721622 
L 611.2085 -163.741199 
L 610.432854 -163.760972 
L 609.657208 -163.780943 
L 608.881561 -163.801115 
L 608.105915 -163.82149 
L 607.330268 -163.842068 
L 606.554622 -163.862854 
L 605.778976 -163.883847 
L 605.003329 -163.905051 
L 604.227683 -163.926468 
L 603.452037 -163.9481 
L 602.67639 -163.969949 
L 601.900744 -163.992016 
L 601.125097 -164.014305 
L 600.349451 -164.036818 
L 599.573805 -164.059556 
L 598.798158 -164.082522 
L 598.022512 -164.105718 
L 597.246866 -164.129147 
L 596.471219 -164.15281 
L 595.695573 -164.176711 
L 594.919927 -164.200851 
L 594.14428 -164.225233 
L 593.368634 -164.24986 
L 592.592987 -164.274733 
L 591.817341 -164.299855 
L 591.041695 -164.325229 
L 590.266048 -164.350857 
L 589.490402 -164.376742 
L 588.714756 -164.402886 
L 587.939109 -164.429292 
L 587.163463 -164.455962 
L 586.387816 -164.482899 
L 585.61217 -164.510106 
L 584.836524 -164.537585 
L 584.060877 -164.565339 
L 583.285231 -164.593372 
L 582.509585 -164.621684 
L 581.733938 -164.65028 
L 580.958292 -164.679162 
L 580.182645 -164.708333 
L 579.406999 -164.737796 
L 578.631353 -164.767553 
L 577.855706 -164.797609 
L 577.08006 -164.827964 
L 576.304414 -164.858624 
L 575.528767 -164.88959 
L 574.753121 -164.920865 
L 573.977474 -164.952454 
L 573.201828 -164.984358 
L 572.426182 -165.01658 
L 571.650535 -165.049125 
L 570.874889 -165.081996 
L 570.099243 -165.115194 
L 569.323596 -165.148724 
L 568.54795 -165.18259 
L 567.772303 -165.216793 
L 566.996657 -165.251338 
L 566.221011 -165.286229 
L 565.445364 -165.321467 
L 564.669718 -165.357058 
L 563.894072 -165.393004 
L 563.118425 -165.429308 
L 562.342779 -165.465975 
L 561.567133 -165.503008 
L 560.791486 -165.54041 
L 560.01584 -165.578186 
L 559.240193 -165.616339 
L 558.464547 -165.654872 
L 557.688901 -165.693789 
L 556.913254 -165.733095 
L 556.137608 -165.772792 
L 555.361962 -165.812886 
L 554.586315 -165.853379 
L 553.810669 -165.894275 
L 553.035022 -165.93558 
L 552.259376 -165.977296 
L 551.48373 -166.019427 
L 550.708083 -166.061978 
L 549.932437 -166.104954 
L 549.156791 -166.148357 
L 548.381144 -166.192192 
L 547.605498 -166.236464 
L 546.829851 -166.281177 
L 546.054205 -166.326335 
L 545.278559 -166.371942 
L 544.502912 -166.418003 
L 543.727266 -166.464522 
L 542.95162 -166.511504 
L 542.175973 -166.558954 
L 541.400327 -166.606875 
L 540.62468 -166.655273 
L 539.849034 -166.704153 
L 539.073388 -166.753518 
L 538.297741 -166.803373 
L 537.522095 -166.853725 
L 536.746449 -166.904576 
L 535.970802 -166.955933 
L 535.195156 -167.0078 
L 534.419509 -167.060182 
L 533.643863 -167.113084 
L 532.868217 -167.166511 
L 532.09257 -167.220469 
L 531.316924 -167.274962 
L 530.541278 -167.329996 
L 529.765631 -167.385576 
L 528.989985 -167.441707 
L 528.214339 -167.498395 
L 527.438692 -167.555645 
L 526.663046 -167.613463 
L 525.887399 -167.671853 
L 525.111753 -167.730823 
L 524.336107 -167.790377 
L 523.56046 -167.85052 
L 522.784814 -167.91126 
L 522.009168 -167.972601 
L 521.233521 -168.034549 
L 520.457875 -168.09711 
L 519.682228 -168.160291 
L 518.906582 -168.224096 
L 518.130936 -168.288533 
L 517.355289 -168.353608 
L 516.579643 -168.419326 
L 515.803997 -168.485693 
L 515.02835 -168.552717 
L 514.252704 -168.620403 
L 513.477057 -168.688757 
L 512.701411 -168.757787 
L 511.925765 -168.827499 
L 511.150118 -168.897899 
L 510.374472 -168.968993 
L 509.598826 -169.04079 
L 508.823179 -169.113295 
L 508.047533 -169.186515 
L 507.271886 -169.260457 
L 506.49624 -169.335129 
L 505.720594 -169.410536 
L 504.944947 -169.486687 
L 504.169301 -169.563587 
L 503.393655 -169.641246 
L 502.618008 -169.719669 
L 501.842362 -169.798864 
L 501.066715 -169.878839 
L 500.291069 -169.959601 
L 499.515423 -170.041157 
L 498.739776 -170.123515 
L 497.96413 -170.206683 
L 497.188484 -170.290669 
L 496.412837 -170.37548 
L 495.637191 -170.461124 
L 494.861545 -170.547609 
L 494.085898 -170.634944 
L 493.310252 -170.723135 
L 492.534605 -170.812193 
L 491.758959 -170.902124 
L 490.983313 -170.992936 
L 490.207666 -171.08464 
L 489.43202 -171.177242 
L 488.656374 -171.270752 
L 487.880727 -171.365177 
L 487.105081 -171.460527 
L 486.329434 -171.556811 
L 485.553788 -171.654037 
L 484.778142 -171.752214 
L 484.002495 -171.851352 
L 483.226849 -171.951459 
L 482.451203 -172.052544 
L 481.675556 -172.154617 
L 480.89991 -172.257686 
L 480.124263 -172.361763 
L 479.348617 -172.466855 
L 478.572971 -172.572972 
L 477.797324 -172.680125 
L 477.021678 -172.788323 
L 476.246032 -172.897575 
L 475.470385 -173.007891 
L 474.694739 -173.119282 
L 473.919092 -173.231758 
L 473.143446 -173.345329 
L 472.3678 -173.460004 
L 471.592153 -173.575795 
L 470.816507 -173.692711 
L 470.040861 -173.810764 
L 469.265214 -173.929963 
L 468.489568 -174.05032 
L 467.713921 -174.171845 
L 466.938275 -174.29455 
L 466.162629 -174.418444 
L 465.386982 -174.54354 
L 464.611336 -174.669848 
L 463.83569 -174.797379 
L 463.060043 -174.926145 
L 462.284397 -175.056158 
L 461.508751 -175.187428 
L 460.733104 -175.319968 
L 459.957458 -175.453789 
L 459.181811 -175.588902 
L 458.406165 -175.725321 
L 457.630519 -175.863056 
L 456.854872 -176.002121 
L 456.079226 -176.142526 
L 455.30358 -176.284285 
L 454.527933 -176.427409 
L 453.752287 -176.571912 
L 452.97664 -176.717806 
L 452.200994 -176.865104 
L 451.425348 -177.013817 
L 450.649701 -177.163961 
L 449.874055 -177.315546 
L 449.098409 -177.468587 
L 448.322762 -177.623096 
L 447.547116 -177.779088 
L 446.771469 -177.936575 
L 445.995823 -178.095571 
L 445.220177 -178.256089 
L 444.44453 -178.418144 
L 443.668884 -178.581749 
L 442.893238 -178.746918 
L 442.117591 -178.913665 
L 441.341945 -179.082005 
L 440.566298 -179.251951 
L 439.790652 -179.423518 
L 439.015006 -179.596721 
L 438.239359 -179.771574 
L 437.463713 -179.948092 
L 436.688067 -180.126289 
L 435.91242 -180.306182 
L 435.136774 -180.487784 
L 434.361128 -180.671111 
L 433.585481 -180.856178 
L 432.809835 -181.043001 
L 432.034188 -181.231595 
L 431.258542 -181.421976 
L 430.482896 -181.614159 
L 429.707249 -181.80816 
L 428.931603 -182.003996 
L 428.155957 -182.201683 
L 427.38031 -182.401236 
L 426.604664 -182.602672 
L 425.829017 -182.806007 
L 425.053371 -183.011258 
L 424.277725 -183.218442 
L 423.502078 -183.427576 
L 422.726432 -183.638675 
L 421.950786 -183.851758 
L 421.175139 -184.066842 
L 420.399493 -184.283943 
L 419.623846 -184.50308 
L 418.8482 -184.724269 
L 418.072554 -184.947528 
L 417.296907 -185.172875 
L 416.521261 -185.400329 
L 415.745615 -185.629906 
L 414.969968 -185.861625 
L 414.194322 -186.095504 
L 413.418675 -186.331561 
L 412.643029 -186.569816 
L 411.867383 -186.810286 
L 411.091736 -187.05299 
L 410.31609 -187.297947 
L 409.540444 -187.545176 
L 408.764797 -187.794696 
L 407.989151 -188.046527 
L 407.213504 -188.300686 
L 406.437858 -188.557195 
L 405.662212 -188.816072 
L 404.886565 -189.077337 
L 404.110919 -189.341009 
L 403.335273 -189.60711 
L 402.559626 -189.875658 
L 401.78398 -190.146673 
L 401.008334 -190.420177 
L 400.232687 -190.696189 
L 399.457041 -190.97473 
L 398.681394 -191.255821 
L 397.905748 -191.539481 
L 397.130102 -191.825732 
L 396.354455 -192.114596 
L 395.578809 -192.406092 
L 394.803163 -192.700242 
L 394.027516 -192.997067 
L 393.25187 -193.29659 
L 392.476223 -193.59883 
L 391.700577 -193.90381 
L 390.924931 -194.211552 
L 390.149284 -194.522077 
L 389.373638 -194.835407 
L 388.597992 -195.151565 
L 387.822345 -195.470572 
L 387.046699 -195.79245 
L 386.271052 -196.117223 
L 385.495406 -196.444913 
L 384.71976 -196.775541 
L 383.944113 -197.109132 
L 383.168467 -197.445706 
L 382.392821 -197.785289 
L 381.617174 -198.127901 
L 380.841528 -198.473567 
L 380.065881 -198.82231 
L 379.290235 -199.174153 
L 378.514589 -199.529119 
L 377.738942 -199.887231 
L 376.963296 -200.248514 
L 376.18765 -200.612991 
L 375.412003 -200.980685 
L 374.636357 -201.35162 
L 373.86071 -201.725821 
L 373.085064 -202.103311 
L 372.309418 -202.484114 
L 371.533771 -202.868255 
L 370.758125 -203.255757 
L 369.982479 -203.646645 
L 369.206832 -204.040942 
L 368.431186 -204.438675 
L 367.65554 -204.839867 
L 366.879893 -205.244542 
L 366.104247 -205.652725 
L 365.3286 -206.064441 
L 364.552954 -206.479715 
L 363.777308 -206.898572 
L 363.001661 -207.321035 
L 362.226015 -207.747131 
L 361.450369 -208.176884 
L 360.674722 -208.610318 
L 359.899076 -209.04746 
L 359.123429 -209.488334 
L 358.347783 -209.932966 
L 357.572137 -210.381379 
L 356.79649 -210.833601 
L 356.020844 -211.289655 
L 355.245198 -211.749567 
L 354.469551 -212.213362 
L 353.693905 -212.681066 
L 352.918258 -213.152704 
L 352.142612 -213.6283 
L 351.366966 -214.107882 
L 350.591319 -214.591472 
L 349.815673 -215.079098 
L 349.040027 -215.570784 
L 348.26438 -216.066555 
L 347.488734 -216.566438 
L 346.713087 -217.070456 
L 345.937441 -217.578636 
L 345.161795 -218.091002 
L 344.386148 -218.60758 
L 343.610502 -219.128394 
L 342.834856 -219.653471 
L 342.059209 -220.182834 
L 341.283563 -220.716509 
L 340.507916 -221.254522 
L 339.73227 -221.796896 
L 338.956624 -222.343657 
L 338.180977 -222.894829 
L 337.405331 -223.450437 
L 336.629685 -224.010506 
L 335.854038 -224.57506 
L 335.078392 -225.144124 
L 334.302746 -225.717722 
L 333.527099 -226.295878 
L 332.751453 -226.878616 
L 331.975806 -227.465961 
L 331.20016 -228.057936 
L 330.424514 -228.654565 
L 329.648867 -229.255872 
L 328.873221 -229.861879 
L 328.097575 -230.472612 
L 327.321928 -231.088091 
L 326.546282 -231.708342 
L 325.770635 -232.333386 
L 324.994989 -232.963246 
L 324.219343 -233.597946 
L 323.443696 -234.237506 
L 322.66805 -234.881949 
L 321.892404 -235.531297 
L 321.116757 -236.185573 
L 320.341111 -236.844796 
L 319.565464 -237.50899 
L 318.789818 -238.178173 
L 318.014172 -238.852369 
L 317.238525 -239.531596 
L 316.462879 -240.215875 
L 315.687233 -240.905227 
L 314.911586 -241.599671 
L 314.13594 -242.299226 
L 313.360293 -243.003912 
L 312.584647 -243.713748 
L 311.809001 -244.428751 
L 311.033354 -245.148941 
L 310.257708 -245.874336 
L 309.482062 -246.604952 
L 308.706415 -247.340807 
L 307.930769 -248.081918 
L 307.155122 -248.828302 
L 306.379476 -249.579974 
L 305.60383 -250.336951 
L 304.828183 -251.099248 
L 304.052537 -251.866879 
L 303.276891 -252.639859 
L 302.501244 -253.418203 
L 301.725598 -254.201924 
L 300.949952 -254.991035 
L 300.174305 -255.78555 
L 299.398659 -256.58548 
L 298.623012 -257.390837 
L 297.847366 -258.201632 
L 297.07172 -259.017878 
L 296.296073 -259.839583 
L 295.520427 -260.666757 
L 294.744781 -261.499411 
L 293.969134 -262.337553 
L 293.193488 -263.18119 
L 292.417841 -264.030331 
L 291.642195 -264.884982 
L 290.866549 -265.745151 
L 290.090902 -266.610843 
L 289.315256 -267.482063 
L 288.53961 -268.358816 
L 287.763963 -269.241106 
L 286.988317 -270.128936 
L 286.21267 -271.022309 
L 285.437024 -271.921227 
L 284.661378 -272.825692 
L 283.885731 -273.735704 
L 283.110085 -274.651262 
L 282.334439 -275.572367 
L 281.558792 -276.499017 
L 280.783146 -277.431209 
L 280.007499 -278.368941 
L 279.231853 -279.312209 
L 278.456207 -280.261008 
L 277.68056 -281.215333 
L 276.904914 -282.175178 
L 276.129268 -283.140535 
L 275.353621 -284.111398 
L 274.577975 -285.087757 
L 273.802329 -286.069604 
L 273.026682 -287.056927 
L 272.251036 -288.049715 
L 271.475389 -289.047958 
L 270.699743 -290.05164 
L 269.924097 -291.06075 
L 269.14845 -292.075271 
L 268.372804 -293.095188 
L 267.597158 -294.120484 
L 266.821511 -295.151142 
L 266.045865 -296.187143 
L 265.270218 -297.228468 
L 264.494572 -298.275095 
L 263.718926 -299.327004 
L 262.943279 -300.384171 
L 262.167633 -301.446573 
L 261.391987 -302.514185 
L 260.61634 -303.586982 
L 259.840694 -304.664936 
L 259.065047 -305.74802 
L 258.289401 -306.836205 
L 257.513755 -307.92946 
L 256.738108 -309.027755 
L 255.962462 -310.131057 
L 255.186816 -311.239333 
L 254.411169 -312.352549 
L 253.635523 -313.470668 
L 252.859876 -314.593654 
L 252.08423 -315.721468 
L 251.308584 -316.854073 
L 250.532937 -317.991426 
L 249.757291 -319.133488 
L 248.981645 -320.280214 
L 248.205998 -321.431562 
L 247.430352 -322.587485 
L 246.654705 -323.747938 
L 245.879059 -324.912873 
L 245.103413 -326.082241 
L 244.327766 -327.255992 
L 243.55212 -328.434075 
L 242.776474 -329.616437 
L 242.000827 -330.803025 
L 241.225181 -331.993783 
L 240.449535 -333.188654 
L 239.673888 -334.387582 
L 238.898242 -335.590507 
L 238.122595 -336.797369 
L 237.346949 -338.008107 
L 236.571303 -339.222657 
L 235.795656 -340.440956 
L 235.02001 -341.662938 
L 234.244364 -342.888537 
L 233.468717 -344.117684 
L 232.693071 -345.35031 
L 231.917424 -346.586345 
L 231.141778 -347.825716 
L 230.366132 -349.068351 
L 229.590485 -350.314174 
L 228.814839 -351.56311 
L 228.039193 -352.815081 
L 227.263546 -354.07001 
L 226.4879 -355.327815 
L 225.712253 -356.588416 
L 224.936607 -357.851731 
L 224.160961 -359.117675 
L 223.385314 -360.386163 
L 222.609668 -361.657109 
L 221.834022 -362.930425 
L 221.058375 -364.206022 
L 220.282729 -365.48381 
L 219.507082 -366.763696 
L 218.731436 -368.045587 
L 217.95579 -369.32939 
L 217.180143 -370.615007 
L 216.404497 -371.902343 
L 215.628851 -373.191299 
L 214.853204 -374.481775 
L 214.077558 -375.77367 
L 213.301911 -377.066881 
L 212.526265 -378.361305 
L 211.750619 -379.656837 
L 210.974972 -380.953371 
L 210.199326 -382.250798 
L 209.42368 -383.54901 
L 208.648033 -384.847897 
L 207.872387 -386.147345 
L 207.096741 -387.447243 
L 206.321094 -388.747475 
L 205.545448 -390.047925 
L 204.769801 -391.348477 
L 203.994155 -392.649011 
L 203.218509 -393.949407 
L 202.442862 -395.249544 
L 201.667216 -396.549297 
L 200.89157 -397.848542 
L 200.115923 -399.147153 
L 199.340277 -400.445002 
L 198.56463 -401.741958 
L 197.788984 -403.037892 
L 197.013338 -404.332669 
L 196.237691 -405.626155 
L 195.462045 -406.918214 
L 194.686399 -408.208706 
L 193.910752 -409.497492 
L 193.135106 -410.784428 
L 192.359459 -412.069371 
L 191.583813 -413.352172 
L 190.808167 -414.632684 
L 190.03252 -415.910754 
L 189.256874 -417.186227 
L 188.481228 -418.458948 
L 187.705581 -419.728757 
L 186.929935 -420.99549 
L 186.154288 -422.258982 
L 185.378642 -423.519065 
L 184.602996 -424.775565 
L 183.827349 -426.028305 
L 183.051703 -427.277107 
L 182.276057 -428.521785 
L 181.50041 -429.76215 
L 180.724764 -430.998009 
L 179.949117 -432.229163 
L 179.173471 -433.455409 
L 178.397825 -434.676535 
L 177.622178 -435.892326 
L 176.846532 -437.10256 
L 176.070886 -438.307007 
L 175.295239 -439.505429 
L 174.519593 -440.697582 
L 173.743947 -441.883211 
L 172.9683 -443.062054 
L 172.192654 -444.233837 
L 171.417007 -445.398276 
L 170.641361 -446.555076 
L 169.865715 -447.70393 
L 169.090068 -448.844517 
L 168.314422 -449.9765 
L 167.538776 -451.099531 
L 166.763129 -452.213241 
L 165.987483 -453.317245 
L 165.211836 -454.411139 
L 164.43619 -455.494498 
L 163.660544 -456.566875 
L 162.884897 -457.627796 
L 162.109251 -458.676765 
L 161.333605 -459.713253 
L 160.557958 -460.736703 
L 159.782312 -461.746523 
L 159.006665 -462.742085 
L 158.231019 -463.72272 
L 157.455373 -464.687719 
L 156.679726 -465.636321 
L 155.90408 -466.567715 
L 155.128434 -467.481034 
L 154.352787 -468.375347 
L 153.577141 -469.249657 
L 152.801494 -470.102888 
L 152.025848 -470.933881 
L 151.250202 -471.741388 
L 150.474555 -472.524053 
L 149.698909 -473.280411 
L 148.923263 -474.008865 
L 148.147616 -474.707679 
L 147.37197 -475.374955 
L 146.596323 -476.008617 
L 145.820677 -476.606384 
L 145.045031 -477.165747 
L 144.269384 -477.683935 
L 143.493738 -478.157879 
L 142.718092 -478.584171 
L 141.942445 -478.95901 
L 141.166799 -479.278145 
L 140.391153 -479.536801 
L 139.615506 -479.729599 
L 138.83986 -479.850448 
L 138.064213 -479.892427 
L 137.288567 -479.847634 
L 136.512921 -479.780088 
L 135.737274 -479.879471 
L 134.961628 -479.878958 
L 134.185982 -479.766203 
L 133.410335 -479.829333 
L 132.634689 -479.892427 
L 131.859042 -479.823012 
L 131.083396 -479.715835 
L 130.30775 -479.871636 
L 129.532103 -479.870332 
L 128.756457 -479.680387 
L 127.980811 -479.784453 
L 127.205164 -479.892427 
L 126.429518 -479.765239 
L 125.653871 -479.335646 
L 124.878225 -478.512304 
L 124.102579 -477.16855 
L 123.326932 -475.124418 
L 122.551286 -472.116699 
L 121.77564 -467.747024 
L 120.999993 -461.387467 
L 120.224347 -451.999141 
L 119.4487 -437.75989 
L 118.673054 -415.236441 
L 117.897408 -377.350989 
L 117.121761 -307.705378 
z
" style="stroke: #ffa500; stroke-opacity: 0.3"/>
    </defs>
    <g clip-path="url(#pdf5e73912d)">
     <use xlink:href="#m7f7fb4c28c" x="0" y="540.100875" style="fill: #ffa500; fill-opacity: 0.3; stroke: #ffa500; stroke-opacity: 0.3"/>
    </g>
   </g>
   <g id="matplotlib.axis_1">
    <g id="xtick_1">
     <g id="line2d_1">
      <defs>
       <path id="mdb154f26cd" d="M 0 0 
L 0 3.5 
" style="stroke: #000000; stroke-width: 0.8"/>
      </defs>
      <g>
       <use xlink:href="#mdb154f26cd" x="116.346115" y="416.476875" style="stroke: #000000; stroke-width: 0.8"/>
      </g>
     </g>
     <g id="text_1">
      <!-- 0 -->
      <g transform="translate(109.983615 438.67375) scale(0.2 -0.2)">
       <defs>
        <path id="DejaVuSans-30" d="M 2034 4250 
Q 1547 4250 1301 3770 
Q 1056 3291 1056 2328 
Q 1056 1369 1301 889 
Q 1547 409 2034 409 
Q 2525 409 2770 889 
Q 3016 1369 3016 2328 
Q 3016 3291 2770 3770 
Q 2525 4250 2034 4250 
z
M 2034 4750 
Q 2819 4750 3233 4129 
Q 3647 3509 3647 2328 
Q 3647 1150 3233 529 
Q 2819 -91 2034 -91 
Q 1250 -91 836 529 
Q 422 1150 422 2328 
Q 422 3509 836 4129 
Q 1250 4750 2034 4750 
z
" transform="scale(0.015625)"/>
       </defs>
       <use xlink:href="#DejaVuSans-30"/>
      </g>
     </g>
    </g>
    <g id="xtick_2">
     <g id="line2d_2">
      <g>
       <use xlink:href="#mdb154f26cd" x="193.910752" y="416.476875" style="stroke: #000000; stroke-width: 0.8"/>
      </g>
     </g>
     <g id="text_2">
      <!-- 100 -->
      <g transform="translate(174.823252 438.67375) scale(0.2 -0.2)">
       <defs>
        <path id="DejaVuSans-31" d="M 794 531 
L 1825 531 
L 1825 4091 
L 703 3866 
L 703 4441 
L 1819 4666 
L 2450 4666 
L 2450 531 
L 3481 531 
L 3481 0 
L 794 0 
L 794 531 
z
" transform="scale(0.015625)"/>
       </defs>
       <use xlink:href="#DejaVuSans-31"/>
       <use xlink:href="#DejaVuSans-30" x="63.623047"/>
       <use xlink:href="#DejaVuSans-30" x="127.246094"/>
      </g>
     </g>
    </g>
    <g id="xtick_3">
     <g id="line2d_3">
      <g>
       <use xlink:href="#mdb154f26cd" x="271.475389" y="416.476875" style="stroke: #000000; stroke-width: 0.8"/>
      </g>
     </g>
     <g id="text_3">
      <!-- 200 -->
      <g transform="translate(252.387889 438.67375) scale(0.2 -0.2)">
       <defs>
        <path id="DejaVuSans-32" d="M 1228 531 
L 3431 531 
L 3431 0 
L 469 0 
L 469 531 
Q 828 903 1448 1529 
Q 2069 2156 2228 2338 
Q 2531 2678 2651 2914 
Q 2772 3150 2772 3378 
Q 2772 3750 2511 3984 
Q 2250 4219 1831 4219 
Q 1534 4219 1204 4116 
Q 875 4013 500 3803 
L 500 4441 
Q 881 4594 1212 4672 
Q 1544 4750 1819 4750 
Q 2544 4750 2975 4387 
Q 3406 4025 3406 3419 
Q 3406 3131 3298 2873 
Q 3191 2616 2906 2266 
Q 2828 2175 2409 1742 
Q 1991 1309 1228 531 
z
" transform="scale(0.015625)"/>
       </defs>
       <use xlink:href="#DejaVuSans-32"/>
       <use xlink:href="#DejaVuSans-30" x="63.623047"/>
       <use xlink:href="#DejaVuSans-30" x="127.246094"/>
      </g>
     </g>
    </g>
    <g id="xtick_4">
     <g id="line2d_4">
      <g>
       <use xlink:href="#mdb154f26cd" x="349.040027" y="416.476875" style="stroke: #000000; stroke-width: 0.8"/>
      </g>
     </g>
     <g id="text_4">
      <!-- 300 -->
      <g transform="translate(329.952527 438.67375) scale(0.2 -0.2)">
       <defs>
        <path id="DejaVuSans-33" d="M 2597 2516 
Q 3050 2419 3304 2112 
Q 3559 1806 3559 1356 
Q 3559 666 3084 287 
Q 2609 -91 1734 -91 
Q 1441 -91 1130 -33 
Q 819 25 488 141 
L 488 750 
Q 750 597 1062 519 
Q 1375 441 1716 441 
Q 2309 441 2620 675 
Q 2931 909 2931 1356 
Q 2931 1769 2642 2001 
Q 2353 2234 1838 2234 
L 1294 2234 
L 1294 2753 
L 1863 2753 
Q 2328 2753 2575 2939 
Q 2822 3125 2822 3475 
Q 2822 3834 2567 4026 
Q 2313 4219 1838 4219 
Q 1578 4219 1281 4162 
Q 984 4106 628 3988 
L 628 4550 
Q 988 4650 1302 4700 
Q 1616 4750 1894 4750 
Q 2613 4750 3031 4423 
Q 3450 4097 3450 3541 
Q 3450 3153 3228 2886 
Q 3006 2619 2597 2516 
z
" transform="scale(0.015625)"/>
       </defs>
       <use xlink:href="#DejaVuSans-33"/>
       <use xlink:href="#DejaVuSans-30" x="63.623047"/>
       <use xlink:href="#DejaVuSans-30" x="127.246094"/>
      </g>
     </g>
    </g>
    <g id="xtick_5">
     <g id="line2d_5">
      <g>
       <use xlink:href="#mdb154f26cd" x="426.604664" y="416.476875" style="stroke: #000000; stroke-width: 0.8"/>
      </g>
     </g>
     <g id="text_5">
      <!-- 400 -->
      <g transform="translate(407.517164 438.67375) scale(0.2 -0.2)">
       <defs>
        <path id="DejaVuSans-34" d="M 2419 4116 
L 825 1625 
L 2419 1625 
L 2419 4116 
z
M 2253 4666 
L 3047 4666 
L 3047 1625 
L 3713 1625 
L 3713 1100 
L 3047 1100 
L 3047 0 
L 2419 0 
L 2419 1100 
L 313 1100 
L 313 1709 
L 2253 4666 
z
" transform="scale(0.015625)"/>
       </defs>
       <use xlink:href="#DejaVuSans-34"/>
       <use xlink:href="#DejaVuSans-30" x="63.623047"/>
       <use xlink:href="#DejaVuSans-30" x="127.246094"/>
      </g>
     </g>
    </g>
    <g id="xtick_6">
     <g id="line2d_6">
      <g>
       <use xlink:href="#mdb154f26cd" x="504.169301" y="416.476875" style="stroke: #000000; stroke-width: 0.8"/>
      </g>
     </g>
     <g id="text_6">
      <!-- 500 -->
      <g transform="translate(485.081801 438.67375) scale(0.2 -0.2)">
       <defs>
        <path id="DejaVuSans-35" d="M 691 4666 
L 3169 4666 
L 3169 4134 
L 1269 4134 
L 1269 2991 
Q 1406 3038 1543 3061 
Q 1681 3084 1819 3084 
Q 2600 3084 3056 2656 
Q 3513 2228 3513 1497 
Q 3513 744 3044 326 
Q 2575 -91 1722 -91 
Q 1428 -91 1123 -41 
Q 819 9 494 109 
L 494 744 
Q 775 591 1075 516 
Q 1375 441 1709 441 
Q 2250 441 2565 725 
Q 2881 1009 2881 1497 
Q 2881 1984 2565 2268 
Q 2250 2553 1709 2553 
Q 1456 2553 1204 2497 
Q 953 2441 691 2322 
L 691 4666 
z
" transform="scale(0.015625)"/>
       </defs>
       <use xlink:href="#DejaVuSans-35"/>
       <use xlink:href="#DejaVuSans-30" x="63.623047"/>
       <use xlink:href="#DejaVuSans-30" x="127.246094"/>
      </g>
     </g>
    </g>
    <g id="xtick_7">
     <g id="line2d_7">
      <g>
       <use xlink:href="#mdb154f26cd" x="581.733938" y="416.476875" style="stroke: #000000; stroke-width: 0.8"/>
      </g>
     </g>
     <g id="text_7">
      <!-- 600 -->
      <g transform="translate(562.646438 438.67375) scale(0.2 -0.2)">
       <defs>
        <path id="DejaVuSans-36" d="M 2113 2584 
Q 1688 2584 1439 2293 
Q 1191 2003 1191 1497 
Q 1191 994 1439 701 
Q 1688 409 2113 409 
Q 2538 409 2786 701 
Q 3034 994 3034 1497 
Q 3034 2003 2786 2293 
Q 2538 2584 2113 2584 
z
M 3366 4563 
L 3366 3988 
Q 3128 4100 2886 4159 
Q 2644 4219 2406 4219 
Q 1781 4219 1451 3797 
Q 1122 3375 1075 2522 
Q 1259 2794 1537 2939 
Q 1816 3084 2150 3084 
Q 2853 3084 3261 2657 
Q 3669 2231 3669 1497 
Q 3669 778 3244 343 
Q 2819 -91 2113 -91 
Q 1303 -91 875 529 
Q 447 1150 447 2328 
Q 447 3434 972 4092 
Q 1497 4750 2381 4750 
Q 2619 4750 2861 4703 
Q 3103 4656 3366 4563 
z
" transform="scale(0.015625)"/>
       </defs>
       <use xlink:href="#DejaVuSans-36"/>
       <use xlink:href="#DejaVuSans-30" x="63.623047"/>
       <use xlink:href="#DejaVuSans-30" x="127.246094"/>
      </g>
     </g>
    </g>
    <g id="text_8">
     <!-- Days since antigen exposure -->
     <g transform="translate(226.337813 462.03) scale(0.2 -0.2)">
      <defs>
       <path id="DejaVuSans-44" d="M 1259 4147 
L 1259 519 
L 2022 519 
Q 2988 519 3436 956 
Q 3884 1394 3884 2338 
Q 3884 3275 3436 3711 
Q 2988 4147 2022 4147 
L 1259 4147 
z
M 628 4666 
L 1925 4666 
Q 3281 4666 3915 4102 
Q 4550 3538 4550 2338 
Q 4550 1131 3912 565 
Q 3275 0 1925 0 
L 628 0 
L 628 4666 
z
" transform="scale(0.015625)"/>
       <path id="DejaVuSans-61" d="M 2194 1759 
Q 1497 1759 1228 1600 
Q 959 1441 959 1056 
Q 959 750 1161 570 
Q 1363 391 1709 391 
Q 2188 391 2477 730 
Q 2766 1069 2766 1631 
L 2766 1759 
L 2194 1759 
z
M 3341 1997 
L 3341 0 
L 2766 0 
L 2766 531 
Q 2569 213 2275 61 
Q 1981 -91 1556 -91 
Q 1019 -91 701 211 
Q 384 513 384 1019 
Q 384 1609 779 1909 
Q 1175 2209 1959 2209 
L 2766 2209 
L 2766 2266 
Q 2766 2663 2505 2880 
Q 2244 3097 1772 3097 
Q 1472 3097 1187 3025 
Q 903 2953 641 2809 
L 641 3341 
Q 956 3463 1253 3523 
Q 1550 3584 1831 3584 
Q 2591 3584 2966 3190 
Q 3341 2797 3341 1997 
z
" transform="scale(0.015625)"/>
       <path id="DejaVuSans-79" d="M 2059 -325 
Q 1816 -950 1584 -1140 
Q 1353 -1331 966 -1331 
L 506 -1331 
L 506 -850 
L 844 -850 
Q 1081 -850 1212 -737 
Q 1344 -625 1503 -206 
L 1606 56 
L 191 3500 
L 800 3500 
L 1894 763 
L 2988 3500 
L 3597 3500 
L 2059 -325 
z
" transform="scale(0.015625)"/>
       <path id="DejaVuSans-73" d="M 2834 3397 
L 2834 2853 
Q 2591 2978 2328 3040 
Q 2066 3103 1784 3103 
Q 1356 3103 1142 2972 
Q 928 2841 928 2578 
Q 928 2378 1081 2264 
Q 1234 2150 1697 2047 
L 1894 2003 
Q 2506 1872 2764 1633 
Q 3022 1394 3022 966 
Q 3022 478 2636 193 
Q 2250 -91 1575 -91 
Q 1294 -91 989 -36 
Q 684 19 347 128 
L 347 722 
Q 666 556 975 473 
Q 1284 391 1588 391 
Q 1994 391 2212 530 
Q 2431 669 2431 922 
Q 2431 1156 2273 1281 
Q 2116 1406 1581 1522 
L 1381 1569 
Q 847 1681 609 1914 
Q 372 2147 372 2553 
Q 372 3047 722 3315 
Q 1072 3584 1716 3584 
Q 2034 3584 2315 3537 
Q 2597 3491 2834 3397 
z
" transform="scale(0.015625)"/>
       <path id="DejaVuSans-20" transform="scale(0.015625)"/>
       <path id="DejaVuSans-69" d="M 603 3500 
L 1178 3500 
L 1178 0 
L 603 0 
L 603 3500 
z
M 603 4863 
L 1178 4863 
L 1178 4134 
L 603 4134 
L 603 4863 
z
" transform="scale(0.015625)"/>
       <path id="DejaVuSans-6e" d="M 3513 2113 
L 3513 0 
L 2938 0 
L 2938 2094 
Q 2938 2591 2744 2837 
Q 2550 3084 2163 3084 
Q 1697 3084 1428 2787 
Q 1159 2491 1159 1978 
L 1159 0 
L 581 0 
L 581 3500 
L 1159 3500 
L 1159 2956 
Q 1366 3272 1645 3428 
Q 1925 3584 2291 3584 
Q 2894 3584 3203 3211 
Q 3513 2838 3513 2113 
z
" transform="scale(0.015625)"/>
       <path id="DejaVuSans-63" d="M 3122 3366 
L 3122 2828 
Q 2878 2963 2633 3030 
Q 2388 3097 2138 3097 
Q 1578 3097 1268 2742 
Q 959 2388 959 1747 
Q 959 1106 1268 751 
Q 1578 397 2138 397 
Q 2388 397 2633 464 
Q 2878 531 3122 666 
L 3122 134 
Q 2881 22 2623 -34 
Q 2366 -91 2075 -91 
Q 1284 -91 818 406 
Q 353 903 353 1747 
Q 353 2603 823 3093 
Q 1294 3584 2113 3584 
Q 2378 3584 2631 3529 
Q 2884 3475 3122 3366 
z
" transform="scale(0.015625)"/>
       <path id="DejaVuSans-65" d="M 3597 1894 
L 3597 1613 
L 953 1613 
Q 991 1019 1311 708 
Q 1631 397 2203 397 
Q 2534 397 2845 478 
Q 3156 559 3463 722 
L 3463 178 
Q 3153 47 2828 -22 
Q 2503 -91 2169 -91 
Q 1331 -91 842 396 
Q 353 884 353 1716 
Q 353 2575 817 3079 
Q 1281 3584 2069 3584 
Q 2775 3584 3186 3129 
Q 3597 2675 3597 1894 
z
M 3022 2063 
Q 3016 2534 2758 2815 
Q 2500 3097 2075 3097 
Q 1594 3097 1305 2825 
Q 1016 2553 972 2059 
L 3022 2063 
z
" transform="scale(0.015625)"/>
       <path id="DejaVuSans-74" d="M 1172 4494 
L 1172 3500 
L 2356 3500 
L 2356 3053 
L 1172 3053 
L 1172 1153 
Q 1172 725 1289 603 
Q 1406 481 1766 481 
L 2356 481 
L 2356 0 
L 1766 0 
Q 1100 0 847 248 
Q 594 497 594 1153 
L 594 3053 
L 172 3053 
L 172 3500 
L 594 3500 
L 594 4494 
L 1172 4494 
z
" transform="scale(0.015625)"/>
       <path id="DejaVuSans-67" d="M 2906 1791 
Q 2906 2416 2648 2759 
Q 2391 3103 1925 3103 
Q 1463 3103 1205 2759 
Q 947 2416 947 1791 
Q 947 1169 1205 825 
Q 1463 481 1925 481 
Q 2391 481 2648 825 
Q 2906 1169 2906 1791 
z
M 3481 434 
Q 3481 -459 3084 -895 
Q 2688 -1331 1869 -1331 
Q 1566 -1331 1297 -1286 
Q 1028 -1241 775 -1147 
L 775 -588 
Q 1028 -725 1275 -790 
Q 1522 -856 1778 -856 
Q 2344 -856 2625 -561 
Q 2906 -266 2906 331 
L 2906 616 
Q 2728 306 2450 153 
Q 2172 0 1784 0 
Q 1141 0 747 490 
Q 353 981 353 1791 
Q 353 2603 747 3093 
Q 1141 3584 1784 3584 
Q 2172 3584 2450 3431 
Q 2728 3278 2906 2969 
L 2906 3500 
L 3481 3500 
L 3481 434 
z
" transform="scale(0.015625)"/>
       <path id="DejaVuSans-78" d="M 3513 3500 
L 2247 1797 
L 3578 0 
L 2900 0 
L 1881 1375 
L 863 0 
L 184 0 
L 1544 1831 
L 300 3500 
L 978 3500 
L 1906 2253 
L 2834 3500 
L 3513 3500 
z
" transform="scale(0.015625)"/>
       <path id="DejaVuSans-70" d="M 1159 525 
L 1159 -1331 
L 581 -1331 
L 581 3500 
L 1159 3500 
L 1159 2969 
Q 1341 3281 1617 3432 
Q 1894 3584 2278 3584 
Q 2916 3584 3314 3078 
Q 3713 2572 3713 1747 
Q 3713 922 3314 415 
Q 2916 -91 2278 -91 
Q 1894 -91 1617 61 
Q 1341 213 1159 525 
z
M 3116 1747 
Q 3116 2381 2855 2742 
Q 2594 3103 2138 3103 
Q 1681 3103 1420 2742 
Q 1159 2381 1159 1747 
Q 1159 1113 1420 752 
Q 1681 391 2138 391 
Q 2594 391 2855 752 
Q 3116 1113 3116 1747 
z
" transform="scale(0.015625)"/>
       <path id="DejaVuSans-6f" d="M 1959 3097 
Q 1497 3097 1228 2736 
Q 959 2375 959 1747 
Q 959 1119 1226 758 
Q 1494 397 1959 397 
Q 2419 397 2687 759 
Q 2956 1122 2956 1747 
Q 2956 2369 2687 2733 
Q 2419 3097 1959 3097 
z
M 1959 3584 
Q 2709 3584 3137 3096 
Q 3566 2609 3566 1747 
Q 3566 888 3137 398 
Q 2709 -91 1959 -91 
Q 1206 -91 779 398 
Q 353 888 353 1747 
Q 353 2609 779 3096 
Q 1206 3584 1959 3584 
z
" transform="scale(0.015625)"/>
       <path id="DejaVuSans-75" d="M 544 1381 
L 544 3500 
L 1119 3500 
L 1119 1403 
Q 1119 906 1312 657 
Q 1506 409 1894 409 
Q 2359 409 2629 706 
Q 2900 1003 2900 1516 
L 2900 3500 
L 3475 3500 
L 3475 0 
L 2900 0 
L 2900 538 
Q 2691 219 2414 64 
Q 2138 -91 1772 -91 
Q 1169 -91 856 284 
Q 544 659 544 1381 
z
M 1991 3584 
L 1991 3584 
z
" transform="scale(0.015625)"/>
       <path id="DejaVuSans-72" d="M 2631 2963 
Q 2534 3019 2420 3045 
Q 2306 3072 2169 3072 
Q 1681 3072 1420 2755 
Q 1159 2438 1159 1844 
L 1159 0 
L 581 0 
L 581 3500 
L 1159 3500 
L 1159 2956 
Q 1341 3275 1631 3429 
Q 1922 3584 2338 3584 
Q 2397 3584 2469 3576 
Q 2541 3569 2628 3553 
L 2631 2963 
z
" transform="scale(0.015625)"/>
      </defs>
      <use xlink:href="#DejaVuSans-44"/>
      <use xlink:href="#DejaVuSans-61" x="77.001953"/>
      <use xlink:href="#DejaVuSans-79" x="138.28125"/>
      <use xlink:href="#DejaVuSans-73" x="197.460938"/>
      <use xlink:href="#DejaVuSans-20" x="249.560547"/>
      <use xlink:href="#DejaVuSans-73" x="281.347656"/>
      <use xlink:href="#DejaVuSans-69" x="333.447266"/>
      <use xlink:href="#DejaVuSans-6e" x="361.230469"/>
      <use xlink:href="#DejaVuSans-63" x="424.609375"/>
      <use xlink:href="#DejaVuSans-65" x="479.589844"/>
      <use xlink:href="#DejaVuSans-20" x="541.113281"/>
      <use xlink:href="#DejaVuSans-61" x="572.900391"/>
      <use xlink:href="#DejaVuSans-6e" x="634.179688"/>
      <use xlink:href="#DejaVuSans-74" x="697.558594"/>
      <use xlink:href="#DejaVuSans-69" x="736.767578"/>
      <use xlink:href="#DejaVuSans-67" x="764.550781"/>
      <use xlink:href="#DejaVuSans-65" x="828.027344"/>
      <use xlink:href="#DejaVuSans-6e" x="889.550781"/>
      <use xlink:href="#DejaVuSans-20" x="952.929688"/>
      <use xlink:href="#DejaVuSans-65" x="984.716797"/>
      <use xlink:href="#DejaVuSans-78" x="1044.490234"/>
      <use xlink:href="#DejaVuSans-70" x="1103.669922"/>
      <use xlink:href="#DejaVuSans-6f" x="1167.146484"/>
      <use xlink:href="#DejaVuSans-73" x="1228.328125"/>
      <use xlink:href="#DejaVuSans-75" x="1280.427734"/>
      <use xlink:href="#DejaVuSans-72" x="1343.806641"/>
      <use xlink:href="#DejaVuSans-65" x="1382.669922"/>
     </g>
    </g>
   </g>
   <g id="matplotlib.axis_2">
    <g id="ytick_1">
     <g id="line2d_8">
      <defs>
       <path id="m9152e032f2" d="M 0 0 
L -3.5 0 
" style="stroke: #000000; stroke-width: 0.8"/>
      </defs>
      <g>
       <use xlink:href="#m9152e032f2" x="91.758125" y="378.324173" style="stroke: #000000; stroke-width: 0.8"/>
      </g>
     </g>
     <g id="text_9">
      <!-- 0.0 -->
      <g transform="translate(52.951875 385.922611) scale(0.2 -0.2)">
       <defs>
        <path id="DejaVuSans-2e" d="M 684 794 
L 1344 794 
L 1344 0 
L 684 0 
L 684 794 
z
" transform="scale(0.015625)"/>
       </defs>
       <use xlink:href="#DejaVuSans-30"/>
       <use xlink:href="#DejaVuSans-2e" x="63.623047"/>
       <use xlink:href="#DejaVuSans-30" x="95.410156"/>
      </g>
     </g>
    </g>
    <g id="ytick_2">
     <g id="line2d_9">
      <g>
       <use xlink:href="#m9152e032f2" x="91.758125" y="302.01877" style="stroke: #000000; stroke-width: 0.8"/>
      </g>
     </g>
     <g id="text_10">
      <!-- 0.2 -->
      <g transform="translate(52.951875 309.617207) scale(0.2 -0.2)">
       <use xlink:href="#DejaVuSans-30"/>
       <use xlink:href="#DejaVuSans-2e" x="63.623047"/>
       <use xlink:href="#DejaVuSans-32" x="95.410156"/>
      </g>
     </g>
    </g>
    <g id="ytick_3">
     <g id="line2d_10">
      <g>
       <use xlink:href="#m9152e032f2" x="91.758125" y="225.713366" style="stroke: #000000; stroke-width: 0.8"/>
      </g>
     </g>
     <g id="text_11">
      <!-- 0.4 -->
      <g transform="translate(52.951875 233.311803) scale(0.2 -0.2)">
       <use xlink:href="#DejaVuSans-30"/>
       <use xlink:href="#DejaVuSans-2e" x="63.623047"/>
       <use xlink:href="#DejaVuSans-34" x="95.410156"/>
      </g>
     </g>
    </g>
    <g id="ytick_4">
     <g id="line2d_11">
      <g>
       <use xlink:href="#m9152e032f2" x="91.758125" y="149.407962" style="stroke: #000000; stroke-width: 0.8"/>
      </g>
     </g>
     <g id="text_12">
      <!-- 0.6 -->
      <g transform="translate(52.951875 157.0064) scale(0.2 -0.2)">
       <use xlink:href="#DejaVuSans-30"/>
       <use xlink:href="#DejaVuSans-2e" x="63.623047"/>
       <use xlink:href="#DejaVuSans-36" x="95.410156"/>
      </g>
     </g>
    </g>
    <g id="ytick_5">
     <g id="line2d_12">
      <g>
       <use xlink:href="#m9152e032f2" x="91.758125" y="73.102559" style="stroke: #000000; stroke-width: 0.8"/>
      </g>
     </g>
     <g id="text_13">
      <!-- 0.8 -->
      <g transform="translate(52.951875 80.700996) scale(0.2 -0.2)">
       <defs>
        <path id="DejaVuSans-38" d="M 2034 2216 
Q 1584 2216 1326 1975 
Q 1069 1734 1069 1313 
Q 1069 891 1326 650 
Q 1584 409 2034 409 
Q 2484 409 2743 651 
Q 3003 894 3003 1313 
Q 3003 1734 2745 1975 
Q 2488 2216 2034 2216 
z
M 1403 2484 
Q 997 2584 770 2862 
Q 544 3141 544 3541 
Q 544 4100 942 4425 
Q 1341 4750 2034 4750 
Q 2731 4750 3128 4425 
Q 3525 4100 3525 3541 
Q 3525 3141 3298 2862 
Q 3072 2584 2669 2484 
Q 3125 2378 3379 2068 
Q 3634 1759 3634 1313 
Q 3634 634 3220 271 
Q 2806 -91 2034 -91 
Q 1263 -91 848 271 
Q 434 634 434 1313 
Q 434 1759 690 2068 
Q 947 2378 1403 2484 
z
M 1172 3481 
Q 1172 3119 1398 2916 
Q 1625 2713 2034 2713 
Q 2441 2713 2670 2916 
Q 2900 3119 2900 3481 
Q 2900 3844 2670 4047 
Q 2441 4250 2034 4250 
Q 1625 4250 1398 4047 
Q 1172 3844 1172 3481 
z
" transform="scale(0.015625)"/>
       </defs>
       <use xlink:href="#DejaVuSans-30"/>
       <use xlink:href="#DejaVuSans-2e" x="63.623047"/>
       <use xlink:href="#DejaVuSans-38" x="95.410156"/>
      </g>
     </g>
    </g>
    <g id="text_14">
     <!-- Virus neutralization -->
     <g transform="translate(22.396875 319.741562) rotate(-90) scale(0.2 -0.2)">
      <defs>
       <path id="DejaVuSans-56" d="M 1831 0 
L 50 4666 
L 709 4666 
L 2188 738 
L 3669 4666 
L 4325 4666 
L 2547 0 
L 1831 0 
z
" transform="scale(0.015625)"/>
       <path id="DejaVuSans-6c" d="M 603 4863 
L 1178 4863 
L 1178 0 
L 603 0 
L 603 4863 
z
" transform="scale(0.015625)"/>
       <path id="DejaVuSans-7a" d="M 353 3500 
L 3084 3500 
L 3084 2975 
L 922 459 
L 3084 459 
L 3084 0 
L 275 0 
L 275 525 
L 2438 3041 
L 353 3041 
L 353 3500 
z
" transform="scale(0.015625)"/>
      </defs>
      <use xlink:href="#DejaVuSans-56"/>
      <use xlink:href="#DejaVuSans-69" x="66.158203"/>
      <use xlink:href="#DejaVuSans-72" x="93.941406"/>
      <use xlink:href="#DejaVuSans-75" x="135.054688"/>
      <use xlink:href="#DejaVuSans-73" x="198.433594"/>
      <use xlink:href="#DejaVuSans-20" x="250.533203"/>
      <use xlink:href="#DejaVuSans-6e" x="282.320312"/>
      <use xlink:href="#DejaVuSans-65" x="345.699219"/>
      <use xlink:href="#DejaVuSans-75" x="407.222656"/>
      <use xlink:href="#DejaVuSans-74" x="470.601562"/>
      <use xlink:href="#DejaVuSans-72" x="509.810547"/>
      <use xlink:href="#DejaVuSans-61" x="550.923828"/>
      <use xlink:href="#DejaVuSans-6c" x="612.203125"/>
      <use xlink:href="#DejaVuSans-69" x="639.986328"/>
      <use xlink:href="#DejaVuSans-7a" x="667.769531"/>
      <use xlink:href="#DejaVuSans-61" x="720.259766"/>
      <use xlink:href="#DejaVuSans-74" x="781.539062"/>
      <use xlink:href="#DejaVuSans-69" x="820.748047"/>
      <use xlink:href="#DejaVuSans-6f" x="848.53125"/>
      <use xlink:href="#DejaVuSans-6e" x="909.712891"/>
     </g>
     <!--  probability -->
     <g transform="translate(44.7925 278.966562) rotate(-90) scale(0.2 -0.2)">
      <defs>
       <path id="DejaVuSans-62" d="M 3116 1747 
Q 3116 2381 2855 2742 
Q 2594 3103 2138 3103 
Q 1681 3103 1420 2742 
Q 1159 2381 1159 1747 
Q 1159 1113 1420 752 
Q 1681 391 2138 391 
Q 2594 391 2855 752 
Q 3116 1113 3116 1747 
z
M 1159 2969 
Q 1341 3281 1617 3432 
Q 1894 3584 2278 3584 
Q 2916 3584 3314 3078 
Q 3713 2572 3713 1747 
Q 3713 922 3314 415 
Q 2916 -91 2278 -91 
Q 1894 -91 1617 61 
Q 1341 213 1159 525 
L 1159 0 
L 581 0 
L 581 4863 
L 1159 4863 
L 1159 2969 
z
" transform="scale(0.015625)"/>
      </defs>
      <use xlink:href="#DejaVuSans-20"/>
      <use xlink:href="#DejaVuSans-70" x="31.787109"/>
      <use xlink:href="#DejaVuSans-72" x="95.263672"/>
      <use xlink:href="#DejaVuSans-6f" x="134.126953"/>
      <use xlink:href="#DejaVuSans-62" x="195.308594"/>
      <use xlink:href="#DejaVuSans-61" x="258.785156"/>
      <use xlink:href="#DejaVuSans-62" x="320.064453"/>
      <use xlink:href="#DejaVuSans-69" x="383.541016"/>
      <use xlink:href="#DejaVuSans-6c" x="411.324219"/>
      <use xlink:href="#DejaVuSans-69" x="439.107422"/>
      <use xlink:href="#DejaVuSans-74" x="466.890625"/>
      <use xlink:href="#DejaVuSans-79" x="506.099609"/>
     </g>
    </g>
   </g>
   <g id="patch_3">
    <path d="M 91.758125 416.476875 
L 91.758125 28.396875 
" style="fill: none; stroke: #000000; stroke-width: 0.8; stroke-linejoin: miter; stroke-linecap: square"/>
   </g>
   <g id="patch_4">
    <path d="M 649.758125 416.476875 
L 649.758125 28.396875 
" style="fill: none; stroke: #000000; stroke-width: 0.8; stroke-linejoin: miter; stroke-linecap: square"/>
   </g>
   <g id="patch_5">
    <path d="M 91.758125 416.476875 
L 649.758125 416.476875 
" style="fill: none; stroke: #000000; stroke-width: 0.8; stroke-linejoin: miter; stroke-linecap: square"/>
   </g>
   <g id="patch_6">
    <path d="M 91.758125 28.396875 
L 649.758125 28.396875 
" style="fill: none; stroke: #000000; stroke-width: 0.8; stroke-linejoin: miter; stroke-linecap: square"/>
   </g>
   <g id="text_15">
    <!-- BA.5 antigen -->
    <g transform="translate(306.509687 22.396875) scale(0.2 -0.2)">
     <defs>
      <path id="DejaVuSans-42" d="M 1259 2228 
L 1259 519 
L 2272 519 
Q 2781 519 3026 730 
Q 3272 941 3272 1375 
Q 3272 1813 3026 2020 
Q 2781 2228 2272 2228 
L 1259 2228 
z
M 1259 4147 
L 1259 2741 
L 2194 2741 
Q 2656 2741 2882 2914 
Q 3109 3088 3109 3444 
Q 3109 3797 2882 3972 
Q 2656 4147 2194 4147 
L 1259 4147 
z
M 628 4666 
L 2241 4666 
Q 2963 4666 3353 4366 
Q 3744 4066 3744 3513 
Q 3744 3084 3544 2831 
Q 3344 2578 2956 2516 
Q 3422 2416 3680 2098 
Q 3938 1781 3938 1306 
Q 3938 681 3513 340 
Q 3088 0 2303 0 
L 628 0 
L 628 4666 
z
" transform="scale(0.015625)"/>
      <path id="DejaVuSans-41" d="M 2188 4044 
L 1331 1722 
L 3047 1722 
L 2188 4044 
z
M 1831 4666 
L 2547 4666 
L 4325 0 
L 3669 0 
L 3244 1197 
L 1141 1197 
L 716 0 
L 50 0 
L 1831 4666 
z
" transform="scale(0.015625)"/>
     </defs>
     <use xlink:href="#DejaVuSans-42"/>
     <use xlink:href="#DejaVuSans-41" x="68.603516"/>
     <use xlink:href="#DejaVuSans-2e" x="135.261719"/>
     <use xlink:href="#DejaVuSans-35" x="167.048828"/>
     <use xlink:href="#DejaVuSans-20" x="230.671875"/>
     <use xlink:href="#DejaVuSans-61" x="262.458984"/>
     <use xlink:href="#DejaVuSans-6e" x="323.738281"/>
     <use xlink:href="#DejaVuSans-74" x="387.117188"/>
     <use xlink:href="#DejaVuSans-69" x="426.326172"/>
     <use xlink:href="#DejaVuSans-67" x="454.109375"/>
     <use xlink:href="#DejaVuSans-65" x="517.585938"/>
     <use xlink:href="#DejaVuSans-6e" x="579.109375"/>
    </g>
   </g>
   <g id="legend_1">
    <g id="patch_7">
     <path d="M 235.258125 532.900875 
L 345.3925 532.900875 
Q 349.3925 532.900875 349.3925 528.900875 
L 349.3925 501.544625 
Q 349.3925 497.544625 345.3925 497.544625 
L 235.258125 497.544625 
Q 231.258125 497.544625 231.258125 501.544625 
L 231.258125 528.900875 
Q 231.258125 532.900875 235.258125 532.900875 
z
" style="fill: #ffffff; opacity: 0.8; stroke: #cccccc; stroke-linejoin: miter"/>
    </g>
    <g id="patch_8">
     <path d="M 239.258125 520.7415 
L 279.258125 520.7415 
L 279.258125 506.7415 
L 239.258125 506.7415 
z
" style="fill: #ffa500; fill-opacity: 0.3; stroke: #ffa500; stroke-opacity: 0.3; stroke-linejoin: miter"/>
    </g>
    <g id="text_16">
     <!-- BA.2 -->
     <g transform="translate(295.258125 520.7415) scale(0.2 -0.2)">
      <use xlink:href="#DejaVuSans-42"/>
      <use xlink:href="#DejaVuSans-41" x="68.603516"/>
      <use xlink:href="#DejaVuSans-2e" x="135.261719"/>
      <use xlink:href="#DejaVuSans-32" x="167.048828"/>
     </g>
    </g>
   </g>
  </g>
 </g>
 <defs>
  <clipPath id="pdf5e73912d">
   <rect x="91.758125" y="28.396875" width="558" height="388.08"/>
  </clipPath>
 </defs>
</svg>
