<?xml version="1.0" encoding="utf-8" standalone="no"?>
<!DOCTYPE svg PUBLIC "-//W3C//DTD SVG 1.1//EN"
  "http://www.w3.org/Graphics/SVG/1.1/DTD/svg11.dtd">
<svg xmlns:xlink="http://www.w3.org/1999/xlink" width="656.958125pt" height="540.100875pt" viewBox="0 0 656.958125 540.100875" xmlns="http://www.w3.org/2000/svg" version="1.1">
 <metadata>
  <rdf:RDF xmlns:dc="http://purl.org/dc/elements/1.1/" xmlns:cc="http://creativecommons.org/ns#" xmlns:rdf="http://www.w3.org/1999/02/22-rdf-syntax-ns#">
   <cc:Work>
    <dc:type rdf:resource="http://purl.org/dc/dcmitype/StillImage"/>
    <dc:date>2024-04-22T19:41:06.501190</dc:date>
    <dc:format>image/svg+xml</dc:format>
    <dc:creator>
     <cc:Agent>
      <dc:title>Matplotlib v3.8.4, https://matplotlib.org/</dc:title>
     </cc:Agent>
    </dc:creator>
   </cc:Work>
  </rdf:RDF>
 </metadata>
 <defs>
  <style type="text/css">*{stroke-linejoin: round; stroke-linecap: butt}</style>
 </defs>
 <g id="figure_1">
  <g id="patch_1">
   <path d="M 0 540.100875 
L 656.958125 540.100875 
L 656.958125 0 
L 0 0 
z
" style="fill: #ffffff"/>
  </g>
  <g id="axes_1">
   <g id="patch_2">
    <path d="M 91.758125 416.476875 
L 649.758125 416.476875 
L 649.758125 28.396875 
L 91.758125 28.396875 
z
" style="fill: #ffffff"/>
   </g>
   <g id="PolyCollection_1">
    <defs>
     <path id="m260ce13fad" d="M 117.121761 -312.844436 
L 117.121761 -232.02744 
L 117.897408 -284.235607 
L 118.673054 -323.423948 
L 119.4487 -353.433555 
L 120.224347 -376.816067 
L 120.999993 -395.311736 
L 121.77564 -410.135311 
L 122.551286 -422.152405 
L 123.326932 -431.991344 
L 124.102579 -440.115863 
L 124.878225 -446.873407 
L 125.653871 -452.527879 
L 126.429518 -457.282237 
L 127.205164 -461.294359 
L 127.980811 -464.688343 
L 128.756457 -467.562677 
L 129.532103 -469.996213 
L 130.30775 -472.052598 
L 131.083396 -473.78359 
L 131.859042 -474.851076 
L 132.634689 -473.304273 
L 133.410335 -471.602782 
L 134.185982 -469.758845 
L 134.961628 -467.783 
L 135.737274 -465.684459 
L 136.512921 -463.471399 
L 137.288567 -461.151176 
L 138.064213 -458.730496 
L 138.83986 -456.215544 
L 139.615506 -453.612078 
L 140.391153 -450.925512 
L 141.166799 -448.16097 
L 141.942445 -445.323339 
L 142.718092 -442.417297 
L 143.493738 -439.447347 
L 144.269384 -436.417838 
L 145.045031 -433.33298 
L 145.820677 -430.196859 
L 146.596323 -427.013443 
L 147.37197 -423.786599 
L 148.147616 -420.520086 
L 148.923263 -417.217572 
L 149.698909 -413.882629 
L 150.474555 -410.518737 
L 151.250202 -407.129289 
L 152.025848 -403.717588 
L 152.801494 -400.286848 
L 153.577141 -396.840199 
L 154.352787 -393.380682 
L 155.128434 -389.91125 
L 155.90408 -386.43477 
L 156.679726 -382.954021 
L 157.455373 -379.471695 
L 158.231019 -375.990395 
L 159.006665 -372.512636 
L 159.782312 -369.040845 
L 160.557958 -365.577361 
L 161.333605 -362.124434 
L 162.109251 -358.684226 
L 162.884897 -355.258812 
L 163.660544 -351.850178 
L 164.43619 -348.460222 
L 165.211836 -345.090758 
L 165.987483 -341.743512 
L 166.763129 -338.420124 
L 167.538776 -335.122152 
L 168.314422 -331.851069 
L 169.090068 -328.608265 
L 169.865715 -325.39505 
L 170.641361 -322.212655 
L 171.417007 -319.06223 
L 172.192654 -315.944851 
L 172.9683 -312.861515 
L 173.743947 -309.81315 
L 174.519593 -306.800609 
L 175.295239 -303.824674 
L 176.070886 -300.886061 
L 176.846532 -297.985418 
L 177.622178 -295.12333 
L 178.397825 -292.300317 
L 179.173471 -289.516841 
L 179.949117 -286.773303 
L 180.724764 -284.07005 
L 181.50041 -281.407373 
L 182.276057 -278.78551 
L 183.051703 -276.204651 
L 183.827349 -273.664935 
L 184.602996 -271.166457 
L 185.378642 -268.709266 
L 186.154288 -266.293371 
L 186.929935 -263.918738 
L 187.705581 -261.585296 
L 188.481228 -259.292939 
L 189.256874 -257.041524 
L 190.03252 -254.830878 
L 190.808167 -252.660795 
L 191.583813 -250.531041 
L 192.359459 -248.441355 
L 193.135106 -246.391451 
L 193.910752 -244.381017 
L 194.686399 -242.409719 
L 195.462045 -240.477205 
L 196.237691 -238.583101 
L 197.013338 -236.727016 
L 197.788984 -234.908542 
L 198.56463 -233.127256 
L 199.340277 -231.382723 
L 200.115923 -229.674492 
L 200.89157 -228.002105 
L 201.667216 -226.36509 
L 202.442862 -224.762967 
L 203.218509 -223.195249 
L 203.994155 -221.661441 
L 204.769801 -220.161043 
L 205.545448 -218.693548 
L 206.321094 -217.258445 
L 207.096741 -215.855222 
L 207.872387 -214.483361 
L 208.648033 -213.142344 
L 209.42368 -211.831652 
L 210.199326 -210.550764 
L 210.974972 -209.29916 
L 211.750619 -208.07632 
L 212.526265 -206.881725 
L 213.301911 -205.71486 
L 214.077558 -204.575209 
L 214.853204 -203.46226 
L 215.628851 -202.375504 
L 216.404497 -201.314437 
L 217.180143 -200.278555 
L 217.95579 -199.267362 
L 218.731436 -198.280365 
L 219.507082 -197.317075 
L 220.282729 -196.377008 
L 221.058375 -195.459687 
L 221.834022 -194.564639 
L 222.609668 -193.691397 
L 223.385314 -192.8395 
L 224.160961 -192.008493 
L 224.936607 -191.197926 
L 225.712253 -190.407357 
L 226.4879 -189.63635 
L 227.263546 -188.884474 
L 228.039193 -188.151306 
L 228.814839 -187.436429 
L 229.590485 -186.739434 
L 230.366132 -186.059917 
L 231.141778 -185.397481 
L 231.917424 -184.751736 
L 232.693071 -184.1223 
L 233.468717 -183.508796 
L 234.244364 -182.910854 
L 235.02001 -182.328113 
L 235.795656 -181.760215 
L 236.571303 -181.206811 
L 237.346949 -180.667559 
L 238.122595 -180.142123 
L 238.898242 -179.630174 
L 239.673888 -179.131388 
L 240.449535 -178.645449 
L 241.225181 -178.172047 
L 242.000827 -177.710879 
L 242.776474 -177.261647 
L 243.55212 -176.82406 
L 244.327766 -176.397834 
L 245.103413 -175.982688 
L 245.879059 -175.578351 
L 246.654705 -175.184555 
L 247.430352 -174.801039 
L 248.205998 -174.427548 
L 248.981645 -174.063832 
L 249.757291 -173.709646 
L 250.532937 -173.364753 
L 251.308584 -173.028917 
L 252.08423 -172.701913 
L 252.859876 -172.383516 
L 253.635523 -172.073509 
L 254.411169 -171.771679 
L 255.186816 -171.477818 
L 255.962462 -171.191724 
L 256.738108 -170.913199 
L 257.513755 -170.642048 
L 258.289401 -170.378084 
L 259.065047 -170.121121 
L 259.840694 -169.87098 
L 260.61634 -169.627485 
L 261.391987 -169.390465 
L 262.167633 -169.159752 
L 262.943279 -168.935183 
L 263.718926 -168.716599 
L 264.494572 -168.503844 
L 265.270218 -168.296767 
L 266.045865 -168.095221 
L 266.821511 -167.89906 
L 267.597158 -167.708145 
L 268.372804 -167.522338 
L 269.14845 -167.341505 
L 269.924097 -167.165516 
L 270.699743 -166.994245 
L 271.475389 -166.827567 
L 272.251036 -166.665361 
L 273.026682 -166.50751 
L 273.802329 -166.353898 
L 274.577975 -166.204415 
L 275.353621 -166.058951 
L 276.129268 -165.917399 
L 276.904914 -165.779657 
L 277.68056 -165.645623 
L 278.456207 -165.5152 
L 279.231853 -165.38829 
L 280.007499 -165.264802 
L 280.783146 -165.144643 
L 281.558792 -165.027727 
L 282.334439 -164.913965 
L 283.110085 -164.803275 
L 283.885731 -164.695574 
L 284.661378 -164.590782 
L 285.437024 -164.488823 
L 286.21267 -164.38962 
L 286.988317 -164.2931 
L 287.763963 -164.19919 
L 288.53961 -164.107822 
L 289.315256 -164.018926 
L 290.090902 -163.932438 
L 290.866549 -163.848291 
L 291.642195 -163.766424 
L 292.417841 -163.686775 
L 293.193488 -163.609285 
L 293.969134 -163.533895 
L 294.744781 -163.46055 
L 295.520427 -163.389194 
L 296.296073 -163.319773 
L 297.07172 -163.252237 
L 297.847366 -163.186533 
L 298.623012 -163.122612 
L 299.398659 -163.060428 
L 300.174305 -162.999931 
L 300.949952 -162.941078 
L 301.725598 -162.883824 
L 302.501244 -162.828125 
L 303.276891 -162.77394 
L 304.052537 -162.721228 
L 304.828183 -162.669949 
L 305.60383 -162.620064 
L 306.379476 -162.571536 
L 307.155122 -162.524327 
L 307.930769 -162.478403 
L 308.706415 -162.433727 
L 309.482062 -162.390268 
L 310.257708 -162.347991 
L 311.033354 -162.306865 
L 311.809001 -162.266858 
L 312.584647 -162.227941 
L 313.360293 -162.190083 
L 314.13594 -162.153256 
L 314.911586 -162.117431 
L 315.687233 -162.082583 
L 316.462879 -162.048684 
L 317.238525 -162.015708 
L 318.014172 -161.983631 
L 318.789818 -161.952427 
L 319.565464 -161.922074 
L 320.341111 -161.892549 
L 321.116757 -161.863828 
L 321.892404 -161.835889 
L 322.66805 -161.808713 
L 323.443696 -161.782277 
L 324.219343 -161.756562 
L 324.994989 -161.731549 
L 325.770635 -161.707217 
L 326.546282 -161.683549 
L 327.321928 -161.660526 
L 328.097575 -161.638132 
L 328.873221 -161.616348 
L 329.648867 -161.595159 
L 330.424514 -161.574547 
L 331.20016 -161.554498 
L 331.975806 -161.534996 
L 332.751453 -161.516026 
L 333.527099 -161.497574 
L 334.302746 -161.479625 
L 335.078392 -161.462166 
L 335.854038 -161.445184 
L 336.629685 -161.428665 
L 337.405331 -161.412597 
L 338.180977 -161.396967 
L 338.956624 -161.381764 
L 339.73227 -161.366977 
L 340.507916 -161.352593 
L 341.283563 -161.338601 
L 342.059209 -161.324992 
L 342.834856 -161.311754 
L 343.610502 -161.298878 
L 344.386148 -161.286353 
L 345.161795 -161.27417 
L 345.937441 -161.26232 
L 346.713087 -161.250794 
L 347.488734 -161.239582 
L 348.26438 -161.228677 
L 349.040027 -161.218069 
L 349.815673 -161.207752 
L 350.591319 -161.197716 
L 351.366966 -161.187954 
L 352.142612 -161.178458 
L 352.918258 -161.169223 
L 353.693905 -161.160239 
L 354.469551 -161.151501 
L 355.245198 -161.143001 
L 356.020844 -161.134734 
L 356.79649 -161.126693 
L 357.572137 -161.118871 
L 358.347783 -161.111263 
L 359.123429 -161.103863 
L 359.899076 -161.096665 
L 360.674722 -161.089664 
L 361.450369 -161.082854 
L 362.226015 -161.07623 
L 363.001661 -161.069787 
L 363.777308 -161.06352 
L 364.552954 -161.057425 
L 365.3286 -161.051496 
L 366.104247 -161.045729 
L 366.879893 -161.040119 
L 367.65554 -161.034663 
L 368.431186 -161.029356 
L 369.206832 -161.024194 
L 369.982479 -161.019173 
L 370.758125 -161.01429 
L 371.533771 -161.00954 
L 372.309418 -161.004919 
L 373.085064 -161.000425 
L 373.86071 -160.996054 
L 374.636357 -160.991802 
L 375.412003 -160.987667 
L 376.18765 -160.983644 
L 376.963296 -160.979732 
L 377.738942 -160.975926 
L 378.514589 -160.972224 
L 379.290235 -160.968624 
L 380.065881 -160.965122 
L 380.841528 -160.961716 
L 381.617174 -160.958402 
L 382.392821 -160.95518 
L 383.168467 -160.952045 
L 383.944113 -160.948996 
L 384.71976 -160.946031 
L 385.495406 -160.943146 
L 386.271052 -160.940341 
L 387.046699 -160.937612 
L 387.822345 -160.934958 
L 388.597992 -160.932376 
L 389.373638 -160.929865 
L 390.149284 -160.927422 
L 390.924931 -160.925047 
L 391.700577 -160.922736 
L 392.476223 -160.920488 
L 393.25187 -160.918302 
L 394.027516 -160.916176 
L 394.803163 -160.914107 
L 395.578809 -160.912096 
L 396.354455 -160.910139 
L 397.130102 -160.908236 
L 397.905748 -160.906384 
L 398.681394 -160.904584 
L 399.457041 -160.902832 
L 400.232687 -160.901129 
L 401.008334 -160.899472 
L 401.78398 -160.89786 
L 402.559626 -160.896293 
L 403.335273 -160.894768 
L 404.110919 -160.893285 
L 404.886565 -160.891843 
L 405.662212 -160.89044 
L 406.437858 -160.889075 
L 407.213504 -160.887748 
L 407.989151 -160.886457 
L 408.764797 -160.885201 
L 409.540444 -160.88398 
L 410.31609 -160.882791 
L 411.091736 -160.881636 
L 411.867383 -160.880512 
L 412.643029 -160.879419 
L 413.418675 -160.878355 
L 414.194322 -160.877321 
L 414.969968 -160.876315 
L 415.745615 -160.875337 
L 416.521261 -160.874385 
L 417.296907 -160.873459 
L 418.072554 -160.872559 
L 418.8482 -160.871683 
L 419.623846 -160.870831 
L 420.399493 -160.870003 
L 421.175139 -160.869197 
L 421.950786 -160.868413 
L 422.726432 -160.867651 
L 423.502078 -160.866909 
L 424.277725 -160.866188 
L 425.053371 -160.865486 
L 425.829017 -160.864804 
L 426.604664 -160.86414 
L 427.38031 -160.863495 
L 428.155957 -160.862867 
L 428.931603 -160.862256 
L 429.707249 -160.861662 
L 430.482896 -160.861084 
L 431.258542 -160.860522 
L 432.034188 -160.859975 
L 432.809835 -160.859444 
L 433.585481 -160.858927 
L 434.361128 -160.858424 
L 435.136774 -160.857934 
L 435.91242 -160.857458 
L 436.688067 -160.856995 
L 437.463713 -160.856545 
L 438.239359 -160.856107 
L 439.015006 -160.855681 
L 439.790652 -160.855267 
L 440.566298 -160.854864 
L 441.341945 -160.854472 
L 442.117591 -160.854091 
L 442.893238 -160.85372 
L 443.668884 -160.85336 
L 444.44453 -160.853009 
L 445.220177 -160.852668 
L 445.995823 -160.852336 
L 446.771469 -160.852013 
L 447.547116 -160.851699 
L 448.322762 -160.851394 
L 449.098409 -160.851097 
L 449.874055 -160.850808 
L 450.649701 -160.850527 
L 451.425348 -160.850253 
L 452.200994 -160.849987 
L 452.97664 -160.849729 
L 453.752287 -160.849477 
L 454.527933 -160.849233 
L 455.30358 -160.848995 
L 456.079226 -160.848763 
L 456.854872 -160.848538 
L 457.630519 -160.848319 
L 458.406165 -160.848106 
L 459.181811 -160.847899 
L 459.957458 -160.847698 
L 460.733104 -160.847502 
L 461.508751 -160.847311 
L 462.284397 -160.847126 
L 463.060043 -160.846945 
L 463.83569 -160.84677 
L 464.611336 -160.846599 
L 465.386982 -160.846433 
L 466.162629 -160.846272 
L 466.938275 -160.846115 
L 467.713921 -160.845962 
L 468.489568 -160.845814 
L 469.265214 -160.845669 
L 470.040861 -160.845529 
L 470.816507 -160.845392 
L 471.592153 -160.845259 
L 472.3678 -160.84513 
L 473.143446 -160.845004 
L 473.919092 -160.844882 
L 474.694739 -160.844763 
L 475.470385 -160.844647 
L 476.246032 -160.844535 
L 477.021678 -160.844425 
L 477.797324 -160.844319 
L 478.572971 -160.844215 
L 479.348617 -160.844114 
L 480.124263 -160.844016 
L 480.89991 -160.843921 
L 481.675556 -160.843828 
L 482.451203 -160.843738 
L 483.226849 -160.84365 
L 484.002495 -160.843565 
L 484.778142 -160.843482 
L 485.553788 -160.843401 
L 486.329434 -160.843323 
L 487.105081 -160.843247 
L 487.880727 -160.843172 
L 488.656374 -160.8431 
L 489.43202 -160.84303 
L 490.207666 -160.842961 
L 490.983313 -160.842895 
L 491.758959 -160.84283 
L 492.534605 -160.842767 
L 493.310252 -160.842706 
L 494.085898 -160.842647 
L 494.861545 -160.842589 
L 495.637191 -160.842533 
L 496.412837 -160.842478 
L 497.188484 -160.842425 
L 497.96413 -160.842373 
L 498.739776 -160.842323 
L 499.515423 -160.842274 
L 500.291069 -160.842226 
L 501.066715 -160.84218 
L 501.842362 -160.842134 
L 502.618008 -160.842091 
L 503.393655 -160.842048 
L 504.169301 -160.842006 
L 504.944947 -160.841966 
L 505.720594 -160.841927 
L 506.49624 -160.841889 
L 507.271886 -160.841852 
L 508.047533 -160.841815 
L 508.823179 -160.84178 
L 509.598826 -160.841746 
L 510.374472 -160.841713 
L 511.150118 -160.841681 
L 511.925765 -160.841649 
L 512.701411 -160.841619 
L 513.477057 -160.841589 
L 514.252704 -160.84156 
L 515.02835 -160.841532 
L 515.803997 -160.841504 
L 516.579643 -160.841478 
L 517.355289 -160.841452 
L 518.130936 -160.841427 
L 518.906582 -160.841402 
L 519.682228 -160.841378 
L 520.457875 -160.841355 
L 521.233521 -160.841333 
L 522.009168 -160.841311 
L 522.784814 -160.841289 
L 523.56046 -160.841269 
L 524.336107 -160.841248 
L 525.111753 -160.841229 
L 525.887399 -160.84121 
L 526.663046 -160.841191 
L 527.438692 -160.841173 
L 528.214339 -160.841156 
L 528.989985 -160.841138 
L 529.765631 -160.841122 
L 530.541278 -160.841106 
L 531.316924 -160.84109 
L 532.09257 -160.841075 
L 532.868217 -160.84106 
L 533.643863 -160.841045 
L 534.419509 -160.841031 
L 535.195156 -160.841018 
L 535.970802 -160.841004 
L 536.746449 -160.840991 
L 537.522095 -160.840979 
L 538.297741 -160.840967 
L 539.073388 -160.840955 
L 539.849034 -160.840943 
L 540.62468 -160.840932 
L 541.400327 -160.840921 
L 542.175973 -160.84091 
L 542.95162 -160.8409 
L 543.727266 -160.84089 
L 544.502912 -160.84088 
L 545.278559 -160.84087 
L 546.054205 -160.840861 
L 546.829851 -160.840852 
L 547.605498 -160.840843 
L 548.381144 -160.840835 
L 549.156791 -160.840826 
L 549.932437 -160.840818 
L 550.708083 -160.84081 
L 551.48373 -160.840803 
L 552.259376 -160.840795 
L 553.035022 -160.840788 
L 553.810669 -160.840781 
L 554.586315 -160.840774 
L 555.361962 -160.840768 
L 556.137608 -160.840761 
L 556.913254 -160.840755 
L 557.688901 -160.840749 
L 558.464547 -160.840743 
L 559.240193 -160.840737 
L 560.01584 -160.840731 
L 560.791486 -160.840726 
L 561.567133 -160.84072 
L 562.342779 -160.840715 
L 563.118425 -160.84071 
L 563.894072 -160.840705 
L 564.669718 -160.840701 
L 565.445364 -160.840696 
L 566.221011 -160.840691 
L 566.996657 -160.840687 
L 567.772303 -160.840683 
L 568.54795 -160.840679 
L 569.323596 -160.840675 
L 570.099243 -160.840671 
L 570.874889 -160.840667 
L 571.650535 -160.840663 
L 572.426182 -160.840659 
L 573.201828 -160.840656 
L 573.977474 -160.840653 
L 574.753121 -160.840649 
L 575.528767 -160.840646 
L 576.304414 -160.840643 
L 577.08006 -160.84064 
L 577.855706 -160.840637 
L 578.631353 -160.840634 
L 579.406999 -160.840631 
L 580.182645 -160.840628 
L 580.958292 -160.840626 
L 581.733938 -160.840623 
L 582.509585 -160.840621 
L 583.285231 -160.840618 
L 584.060877 -160.840616 
L 584.836524 -160.840613 
L 585.61217 -160.840611 
L 586.387816 -160.840609 
L 587.163463 -160.840607 
L 587.939109 -160.840605 
L 588.714756 -160.840603 
L 589.490402 -160.840601 
L 590.266048 -160.840599 
L 591.041695 -160.840597 
L 591.817341 -160.840595 
L 592.592987 -160.840593 
L 593.368634 -160.840592 
L 594.14428 -160.84059 
L 594.919927 -160.840588 
L 595.695573 -160.840587 
L 596.471219 -160.840585 
L 597.246866 -160.840584 
L 598.022512 -160.840582 
L 598.798158 -160.840581 
L 599.573805 -160.84058 
L 600.349451 -160.840578 
L 601.125097 -160.840577 
L 601.900744 -160.840576 
L 602.67639 -160.840574 
L 603.452037 -160.840573 
L 604.227683 -160.840572 
L 605.003329 -160.840571 
L 605.778976 -160.84057 
L 606.554622 -160.840569 
L 607.330268 -160.840568 
L 608.105915 -160.840567 
L 608.881561 -160.840566 
L 609.657208 -160.840565 
L 610.432854 -160.840564 
L 611.2085 -160.840563 
L 611.984147 -160.840562 
L 612.759793 -160.840561 
L 613.535439 -160.84056 
L 614.311086 -160.84056 
L 615.086732 -160.840559 
L 615.862379 -160.840558 
L 616.638025 -160.840557 
L 617.413671 -160.840557 
L 618.189318 -160.840556 
L 618.964964 -160.840555 
L 619.74061 -160.840555 
L 620.516257 -160.840554 
L 621.291903 -160.840553 
L 622.06755 -160.840553 
L 622.843196 -160.840552 
L 623.618842 -160.840551 
L 624.394489 -160.840551 
L 624.394489 -162.604667 
L 624.394489 -162.604667 
L 623.618842 -162.622428 
L 622.843196 -162.640368 
L 622.06755 -162.658487 
L 621.291903 -162.676788 
L 620.516257 -162.695273 
L 619.74061 -162.713944 
L 618.964964 -162.732802 
L 618.189318 -162.751849 
L 617.413671 -162.771087 
L 616.638025 -162.790519 
L 615.862379 -162.810145 
L 615.086732 -162.829968 
L 614.311086 -162.84999 
L 613.535439 -162.870213 
L 612.759793 -162.890639 
L 611.984147 -162.91127 
L 611.2085 -162.932107 
L 610.432854 -162.953154 
L 609.657208 -162.974412 
L 608.881561 -162.995882 
L 608.105915 -163.017569 
L 607.330268 -163.039472 
L 606.554622 -163.061595 
L 605.778976 -163.08394 
L 605.003329 -163.106509 
L 604.227683 -163.129304 
L 603.452037 -163.152328 
L 602.67639 -163.175582 
L 601.900744 -163.19907 
L 601.125097 -163.222793 
L 600.349451 -163.246753 
L 599.573805 -163.270954 
L 598.798158 -163.295397 
L 598.022512 -163.320084 
L 597.246866 -163.34502 
L 596.471219 -163.370204 
L 595.695573 -163.395641 
L 594.919927 -163.421333 
L 594.14428 -163.447282 
L 593.368634 -163.473491 
L 592.592987 -163.499963 
L 591.817341 -163.526699 
L 591.041695 -163.553703 
L 590.266048 -163.580977 
L 589.490402 -163.608524 
L 588.714756 -163.636347 
L 587.939109 -163.664449 
L 587.163463 -163.692831 
L 586.387816 -163.721497 
L 585.61217 -163.750451 
L 584.836524 -163.779693 
L 584.060877 -163.809229 
L 583.285231 -163.839059 
L 582.509585 -163.869188 
L 581.733938 -163.899619 
L 580.958292 -163.930353 
L 580.182645 -163.961395 
L 579.406999 -163.992747 
L 578.631353 -164.024412 
L 577.855706 -164.056394 
L 577.08006 -164.088696 
L 576.304414 -164.12132 
L 575.528767 -164.15427 
L 574.753121 -164.187549 
L 573.977474 -164.221161 
L 573.201828 -164.255108 
L 572.426182 -164.289395 
L 571.650535 -164.324024 
L 570.874889 -164.358998 
L 570.099243 -164.394322 
L 569.323596 -164.429998 
L 568.54795 -164.466031 
L 567.772303 -164.502423 
L 566.996657 -164.539178 
L 566.221011 -164.5763 
L 565.445364 -164.613792 
L 564.669718 -164.651658 
L 563.894072 -164.689902 
L 563.118425 -164.728527 
L 562.342779 -164.767538 
L 561.567133 -164.806937 
L 560.791486 -164.846729 
L 560.01584 -164.886918 
L 559.240193 -164.927507 
L 558.464547 -164.968501 
L 557.688901 -165.009903 
L 556.913254 -165.051718 
L 556.137608 -165.093949 
L 555.361962 -165.136601 
L 554.586315 -165.179677 
L 553.810669 -165.223182 
L 553.035022 -165.267121 
L 552.259376 -165.311497 
L 551.48373 -165.356314 
L 550.708083 -165.401578 
L 549.932437 -165.447292 
L 549.156791 -165.49346 
L 548.381144 -165.540088 
L 547.605498 -165.58718 
L 546.829851 -165.634739 
L 546.054205 -165.682772 
L 545.278559 -165.731282 
L 544.502912 -165.780274 
L 543.727266 -165.829753 
L 542.95162 -165.879724 
L 542.175973 -165.930191 
L 541.400327 -165.98116 
L 540.62468 -166.032634 
L 539.849034 -166.08462 
L 539.073388 -166.137122 
L 538.297741 -166.190144 
L 537.522095 -166.243694 
L 536.746449 -166.297774 
L 535.970802 -166.352391 
L 535.195156 -166.407549 
L 534.419509 -166.463255 
L 533.643863 -166.519513 
L 532.868217 -166.576329 
L 532.09257 -166.633708 
L 531.316924 -166.691655 
L 530.541278 -166.750177 
L 529.765631 -166.809278 
L 528.989985 -166.868965 
L 528.214339 -166.929242 
L 527.438692 -166.990117 
L 526.663046 -167.051594 
L 525.887399 -167.113679 
L 525.111753 -167.176379 
L 524.336107 -167.239698 
L 523.56046 -167.303645 
L 522.784814 -167.368223 
L 522.009168 -167.43344 
L 521.233521 -167.499301 
L 520.457875 -167.565813 
L 519.682228 -167.632983 
L 518.906582 -167.700815 
L 518.130936 -167.769318 
L 517.355289 -167.838497 
L 516.579643 -167.908359 
L 515.803997 -167.97891 
L 515.02835 -168.050157 
L 514.252704 -168.122107 
L 513.477057 -168.194767 
L 512.701411 -168.268143 
L 511.925765 -168.342242 
L 511.150118 -168.417071 
L 510.374472 -168.492638 
L 509.598826 -168.568949 
L 508.823179 -168.646011 
L 508.047533 -168.723832 
L 507.271886 -168.802419 
L 506.49624 -168.881779 
L 505.720594 -168.96192 
L 504.944947 -169.042849 
L 504.169301 -169.124573 
L 503.393655 -169.207101 
L 502.618008 -169.290439 
L 501.842362 -169.374597 
L 501.066715 -169.459581 
L 500.291069 -169.545399 
L 499.515423 -169.632059 
L 498.739776 -169.71957 
L 497.96413 -169.807939 
L 497.188484 -169.897175 
L 496.412837 -169.987286 
L 495.637191 -170.07828 
L 494.861545 -170.170165 
L 494.085898 -170.26295 
L 493.310252 -170.356644 
L 492.534605 -170.451255 
L 491.758959 -170.546792 
L 490.983313 -170.643264 
L 490.207666 -170.740678 
L 489.43202 -170.839046 
L 488.656374 -170.938374 
L 487.880727 -171.038673 
L 487.105081 -171.139952 
L 486.329434 -171.242219 
L 485.553788 -171.345484 
L 484.778142 -171.449757 
L 484.002495 -171.555047 
L 483.226849 -171.661363 
L 482.451203 -171.768716 
L 481.675556 -171.877114 
L 480.89991 -171.986568 
L 480.124263 -172.097088 
L 479.348617 -172.208683 
L 478.572971 -172.321364 
L 477.797324 -172.43514 
L 477.021678 -172.550023 
L 476.246032 -172.666021 
L 475.470385 -172.783147 
L 474.694739 -172.90141 
L 473.919092 -173.02082 
L 473.143446 -173.141389 
L 472.3678 -173.263127 
L 471.592153 -173.386045 
L 470.816507 -173.510155 
L 470.040861 -173.635466 
L 469.265214 -173.76199 
L 468.489568 -173.889739 
L 467.713921 -174.018723 
L 466.938275 -174.148955 
L 466.162629 -174.280445 
L 465.386982 -174.413205 
L 464.611336 -174.547248 
L 463.83569 -174.682583 
L 463.060043 -174.819225 
L 462.284397 -174.957184 
L 461.508751 -175.096472 
L 460.733104 -175.237103 
L 459.957458 -175.379087 
L 459.181811 -175.522438 
L 458.406165 -175.667168 
L 457.630519 -175.813289 
L 456.854872 -175.960814 
L 456.079226 -176.109756 
L 455.30358 -176.260128 
L 454.527933 -176.411943 
L 453.752287 -176.565214 
L 452.97664 -176.719953 
L 452.200994 -176.876175 
L 451.425348 -177.033893 
L 450.649701 -177.19312 
L 449.874055 -177.35387 
L 449.098409 -177.516156 
L 448.322762 -177.679992 
L 447.547116 -177.845393 
L 446.771469 -178.012372 
L 445.995823 -178.180944 
L 445.220177 -178.351122 
L 444.44453 -178.522921 
L 443.668884 -178.696355 
L 442.893238 -178.87144 
L 442.117591 -179.048189 
L 441.341945 -179.226618 
L 440.566298 -179.406741 
L 439.790652 -179.588574 
L 439.015006 -179.772131 
L 438.239359 -179.957428 
L 437.463713 -180.14448 
L 436.688067 -180.333302 
L 435.91242 -180.523911 
L 435.136774 -180.716321 
L 434.361128 -180.910549 
L 433.585481 -181.106611 
L 432.809835 -181.304522 
L 432.034188 -181.504299 
L 431.258542 -181.705957 
L 430.482896 -181.909515 
L 429.707249 -182.114986 
L 428.931603 -182.32239 
L 428.155957 -182.531741 
L 427.38031 -182.743057 
L 426.604664 -182.956355 
L 425.829017 -183.171652 
L 425.053371 -183.388965 
L 424.277725 -183.608312 
L 423.502078 -183.829709 
L 422.726432 -184.053175 
L 421.950786 -184.278726 
L 421.175139 -184.506381 
L 420.399493 -184.736158 
L 419.623846 -184.968075 
L 418.8482 -185.202149 
L 418.072554 -185.438399 
L 417.296907 -185.676844 
L 416.521261 -185.917501 
L 415.745615 -186.160389 
L 414.969968 -186.405528 
L 414.194322 -186.652935 
L 413.418675 -186.90263 
L 412.643029 -187.154632 
L 411.867383 -187.40896 
L 411.091736 -187.665633 
L 410.31609 -187.924671 
L 409.540444 -188.186092 
L 408.764797 -188.449918 
L 407.989151 -188.716167 
L 407.213504 -188.984859 
L 406.437858 -189.256015 
L 405.662212 -189.529654 
L 404.886565 -189.805797 
L 404.110919 -190.084463 
L 403.335273 -190.365674 
L 402.559626 -190.64945 
L 401.78398 -190.935811 
L 401.008334 -191.224778 
L 400.232687 -191.516373 
L 399.457041 -191.810615 
L 398.681394 -192.107527 
L 397.905748 -192.407129 
L 397.130102 -192.709442 
L 396.354455 -193.014489 
L 395.578809 -193.32229 
L 394.803163 -193.632868 
L 394.027516 -193.946243 
L 393.25187 -194.262438 
L 392.476223 -194.581475 
L 391.700577 -194.903375 
L 390.924931 -195.228161 
L 390.149284 -195.555856 
L 389.373638 -195.88648 
L 388.597992 -196.220058 
L 387.822345 -196.556611 
L 387.046699 -196.896161 
L 386.271052 -197.238733 
L 385.495406 -197.584348 
L 384.71976 -197.933029 
L 383.944113 -198.2848 
L 383.168467 -198.639683 
L 382.392821 -198.997701 
L 381.617174 -199.358878 
L 380.841528 -199.723238 
L 380.065881 -200.090803 
L 379.290235 -200.461597 
L 378.514589 -200.835644 
L 377.738942 -201.212967 
L 376.963296 -201.593589 
L 376.18765 -201.977536 
L 375.412003 -202.36483 
L 374.636357 -202.755496 
L 373.86071 -203.149557 
L 373.085064 -203.547037 
L 372.309418 -203.947962 
L 371.533771 -204.352354 
L 370.758125 -204.760238 
L 369.982479 -205.171638 
L 369.206832 -205.58658 
L 368.431186 -206.005086 
L 367.65554 -206.427182 
L 366.879893 -206.852892 
L 366.104247 -207.28224 
L 365.3286 -207.715251 
L 364.552954 -208.15195 
L 363.777308 -208.592361 
L 363.001661 -209.036509 
L 362.226015 -209.484419 
L 361.450369 -209.936114 
L 360.674722 -210.391621 
L 359.899076 -210.850964 
L 359.123429 -211.314167 
L 358.347783 -211.781255 
L 357.572137 -212.252253 
L 356.79649 -212.727185 
L 356.020844 -213.206078 
L 355.245198 -213.688954 
L 354.469551 -214.17584 
L 353.693905 -214.666759 
L 352.918258 -215.161736 
L 352.142612 -215.660797 
L 351.366966 -216.163965 
L 350.591319 -216.671265 
L 349.815673 -217.182723 
L 349.040027 -217.698362 
L 348.26438 -218.218207 
L 347.488734 -218.742282 
L 346.713087 -219.270612 
L 345.937441 -219.803221 
L 345.161795 -220.340134 
L 344.386148 -220.881374 
L 343.610502 -221.426966 
L 342.834856 -221.976934 
L 342.059209 -222.531302 
L 341.283563 -223.090093 
L 340.507916 -223.653332 
L 339.73227 -224.221042 
L 338.956624 -224.793246 
L 338.180977 -225.369968 
L 337.405331 -225.951232 
L 336.629685 -226.53706 
L 335.854038 -227.127476 
L 335.078392 -227.722503 
L 334.302746 -228.322163 
L 333.527099 -228.926479 
L 332.751453 -229.535473 
L 331.975806 -230.149168 
L 331.20016 -230.767586 
L 330.424514 -231.390748 
L 329.648867 -232.018677 
L 328.873221 -232.651395 
L 328.097575 -233.288921 
L 327.321928 -233.931279 
L 326.546282 -234.578487 
L 325.770635 -235.230568 
L 324.994989 -235.887542 
L 324.219343 -236.549429 
L 323.443696 -237.216249 
L 322.66805 -237.888021 
L 321.892404 -238.564766 
L 321.116757 -239.246502 
L 320.341111 -239.933248 
L 319.565464 -240.625023 
L 318.789818 -241.321846 
L 318.014172 -242.023733 
L 317.238525 -242.730704 
L 316.462879 -243.442775 
L 315.687233 -244.159963 
L 314.911586 -244.882285 
L 314.13594 -245.609758 
L 313.360293 -246.342397 
L 312.584647 -247.080218 
L 311.809001 -247.823236 
L 311.033354 -248.571467 
L 310.257708 -249.324924 
L 309.482062 -250.083622 
L 308.706415 -250.847573 
L 307.930769 -251.616792 
L 307.155122 -252.391292 
L 306.379476 -253.171083 
L 305.60383 -253.956179 
L 304.828183 -254.746591 
L 304.052537 -255.542329 
L 303.276891 -256.343403 
L 302.501244 -257.149825 
L 301.725598 -257.961602 
L 300.949952 -258.778745 
L 300.174305 -259.601261 
L 299.398659 -260.429157 
L 298.623012 -261.262442 
L 297.847366 -262.101122 
L 297.07172 -262.945203 
L 296.296073 -263.794689 
L 295.520427 -264.649587 
L 294.744781 -265.509901 
L 293.969134 -266.375633 
L 293.193488 -267.246787 
L 292.417841 -268.123366 
L 291.642195 -269.00537 
L 290.866549 -269.892801 
L 290.090902 -270.78566 
L 289.315256 -271.683945 
L 288.53961 -272.587656 
L 287.763963 -273.496791 
L 286.988317 -274.411347 
L 286.21267 -275.331321 
L 285.437024 -276.256709 
L 284.661378 -277.187506 
L 283.885731 -278.123707 
L 283.110085 -279.065304 
L 282.334439 -280.012291 
L 281.558792 -280.96466 
L 280.783146 -281.922402 
L 280.007499 -282.885508 
L 279.231853 -283.853966 
L 278.456207 -284.827765 
L 277.68056 -285.806893 
L 276.904914 -286.791337 
L 276.129268 -287.781082 
L 275.353621 -288.776114 
L 274.577975 -289.776418 
L 273.802329 -290.781975 
L 273.026682 -291.792768 
L 272.251036 -292.808778 
L 271.475389 -293.829986 
L 270.699743 -294.856371 
L 269.924097 -295.887912 
L 269.14845 -296.924584 
L 268.372804 -297.966366 
L 267.597158 -299.013232 
L 266.821511 -300.065156 
L 266.045865 -301.122112 
L 265.270218 -302.184071 
L 264.494572 -303.251005 
L 263.718926 -304.322884 
L 262.943279 -305.399676 
L 262.167633 -306.481349 
L 261.391987 -307.567871 
L 260.61634 -308.659206 
L 259.840694 -309.75532 
L 259.065047 -310.856174 
L 258.289401 -311.961733 
L 257.513755 -313.071956 
L 256.738108 -314.186803 
L 255.962462 -315.306234 
L 255.186816 -316.430205 
L 254.411169 -317.558674 
L 253.635523 -318.691595 
L 252.859876 -319.828921 
L 252.08423 -320.970607 
L 251.308584 -322.116604 
L 250.532937 -323.266861 
L 249.757291 -324.421328 
L 248.981645 -325.579953 
L 248.205998 -326.742682 
L 247.430352 -327.909461 
L 246.654705 -329.080234 
L 245.879059 -330.254944 
L 245.103413 -331.433532 
L 244.327766 -332.61594 
L 243.55212 -333.802105 
L 242.776474 -334.991967 
L 242.000827 -336.185461 
L 241.225181 -337.382523 
L 240.449535 -338.583087 
L 239.673888 -339.787086 
L 238.898242 -340.994451 
L 238.122595 -342.205114 
L 237.346949 -343.419002 
L 236.571303 -344.636043 
L 235.795656 -345.856164 
L 235.02001 -347.07929 
L 234.244364 -348.305346 
L 233.468717 -349.534253 
L 232.693071 -350.765933 
L 231.917424 -352.000306 
L 231.141778 -353.237291 
L 230.366132 -354.476806 
L 229.590485 -355.718767 
L 228.814839 -356.963089 
L 228.039193 -358.209686 
L 227.263546 -359.458471 
L 226.4879 -360.709354 
L 225.712253 -361.962247 
L 224.936607 -363.217058 
L 224.160961 -364.473694 
L 223.385314 -365.732063 
L 222.609668 -366.992069 
L 221.834022 -368.253616 
L 221.058375 -369.516608 
L 220.282729 -370.780946 
L 219.507082 -372.04653 
L 218.731436 -373.31326 
L 217.95579 -374.581034 
L 217.180143 -375.849749 
L 216.404497 -377.1193 
L 215.628851 -378.389583 
L 214.853204 -379.66049 
L 214.077558 -380.931914 
L 213.301911 -382.203747 
L 212.526265 -383.475878 
L 211.750619 -384.748196 
L 210.974972 -386.020589 
L 210.199326 -387.292943 
L 209.42368 -388.565145 
L 208.648033 -389.837077 
L 207.872387 -391.108625 
L 207.096741 -392.379669 
L 206.321094 -393.650092 
L 205.545448 -394.919771 
L 204.769801 -396.188588 
L 203.994155 -397.456417 
L 203.218509 -398.723138 
L 202.442862 -399.988623 
L 201.667216 -401.252748 
L 200.89157 -402.515385 
L 200.115923 -403.776406 
L 199.340277 -405.03568 
L 198.56463 -406.293078 
L 197.788984 -407.548466 
L 197.013338 -408.801711 
L 196.237691 -410.052679 
L 195.462045 -411.301231 
L 194.686399 -412.547231 
L 193.910752 -413.790539 
L 193.135106 -415.031014 
L 192.359459 -416.268512 
L 191.583813 -417.502891 
L 190.808167 -418.734002 
L 190.03252 -419.961698 
L 189.256874 -421.185829 
L 188.481228 -422.406242 
L 187.705581 -423.622782 
L 186.929935 -424.835293 
L 186.154288 -426.043615 
L 185.378642 -427.247587 
L 184.602996 -428.447042 
L 183.827349 -429.641813 
L 183.051703 -430.83173 
L 182.276057 -432.016616 
L 181.50041 -433.196295 
L 180.724764 -434.370585 
L 179.949117 -435.539298 
L 179.173471 -436.702245 
L 178.397825 -437.859231 
L 177.622178 -439.010054 
L 176.846532 -440.154508 
L 176.070886 -441.292384 
L 175.295239 -442.423461 
L 174.519593 -443.547516 
L 173.743947 -444.664317 
L 172.9683 -445.773624 
L 172.192654 -446.875189 
L 171.417007 -447.968754 
L 170.641361 -449.054054 
L 169.865715 -450.130811 
L 169.090068 -451.198737 
L 168.314422 -452.257531 
L 167.538776 -453.30688 
L 166.763129 -454.346457 
L 165.987483 -455.375918 
L 165.211836 -456.394904 
L 164.43619 -457.40304 
L 163.660544 -458.399927 
L 162.884897 -459.38515 
L 162.109251 -460.358269 
L 161.333605 -461.31882 
L 160.557958 -462.266312 
L 159.782312 -463.200227 
L 159.006665 -464.120012 
L 158.231019 -465.025082 
L 157.455373 -465.914815 
L 156.679726 -466.788547 
L 155.90408 -467.645568 
L 155.128434 -468.485121 
L 154.352787 -469.306392 
L 153.577141 -470.108509 
L 152.801494 -470.890535 
L 152.025848 -471.651455 
L 151.250202 -472.39018 
L 150.474555 -473.105524 
L 149.698909 -473.796204 
L 148.923263 -474.460824 
L 148.147616 -475.097863 
L 147.37197 -475.705654 
L 146.596323 -476.282374 
L 145.820677 -476.826017 
L 145.045031 -477.334372 
L 144.269384 -477.804992 
L 143.493738 -478.235165 
L 142.718092 -478.621867 
L 141.942445 -478.961723 
L 141.166799 -479.250945 
L 140.391153 -479.485272 
L 139.615506 -479.659885 
L 138.83986 -479.769313 
L 138.064213 -479.807321 
L 137.288567 -479.766765 
L 136.512921 -479.705605 
L 135.737274 -479.79559 
L 134.961628 -479.795126 
L 134.185982 -479.693031 
L 133.410335 -479.750195 
L 132.634689 -479.807321 
L 131.859042 -479.744471 
L 131.083396 -479.64742 
L 130.30775 -479.788497 
L 129.532103 -479.787316 
L 128.756457 -479.615319 
L 127.980811 -479.709557 
L 127.205164 -479.807321 
L 126.429518 -479.692158 
L 125.653871 -479.303045 
L 124.878225 -478.556689 
L 124.102579 -477.336919 
L 123.326932 -475.477508 
L 122.551286 -472.733289 
L 121.77564 -468.729471 
L 120.999993 -462.86827 
L 120.224347 -454.146692 
L 119.4487 -440.775644 
L 118.673054 -419.314096 
L 117.897408 -382.483039 
L 117.121761 -312.844436 
z
" style="stroke: #ffa500; stroke-opacity: 0.3"/>
    </defs>
    <g clip-path="url(#pe1a77adac9)">
     <use xlink:href="#m260ce13fad" x="0" y="540.100875" style="fill: #ffa500; fill-opacity: 0.3; stroke: #ffa500; stroke-opacity: 0.3"/>
    </g>
   </g>
   <g id="matplotlib.axis_1">
    <g id="xtick_1">
     <g id="line2d_1">
      <defs>
       <path id="m332981abf4" d="M 0 0 
L 0 3.5 
" style="stroke: #000000; stroke-width: 0.8"/>
      </defs>
      <g>
       <use xlink:href="#m332981abf4" x="116.346115" y="416.476875" style="stroke: #000000; stroke-width: 0.8"/>
      </g>
     </g>
     <g id="text_1">
      <!-- 0 -->
      <g transform="translate(109.983615 438.67375) scale(0.2 -0.2)">
       <defs>
        <path id="DejaVuSans-30" d="M 2034 4250 
Q 1547 4250 1301 3770 
Q 1056 3291 1056 2328 
Q 1056 1369 1301 889 
Q 1547 409 2034 409 
Q 2525 409 2770 889 
Q 3016 1369 3016 2328 
Q 3016 3291 2770 3770 
Q 2525 4250 2034 4250 
z
M 2034 4750 
Q 2819 4750 3233 4129 
Q 3647 3509 3647 2328 
Q 3647 1150 3233 529 
Q 2819 -91 2034 -91 
Q 1250 -91 836 529 
Q 422 1150 422 2328 
Q 422 3509 836 4129 
Q 1250 4750 2034 4750 
z
" transform="scale(0.015625)"/>
       </defs>
       <use xlink:href="#DejaVuSans-30"/>
      </g>
     </g>
    </g>
    <g id="xtick_2">
     <g id="line2d_2">
      <g>
       <use xlink:href="#m332981abf4" x="193.910752" y="416.476875" style="stroke: #000000; stroke-width: 0.8"/>
      </g>
     </g>
     <g id="text_2">
      <!-- 100 -->
      <g transform="translate(174.823252 438.67375) scale(0.2 -0.2)">
       <defs>
        <path id="DejaVuSans-31" d="M 794 531 
L 1825 531 
L 1825 4091 
L 703 3866 
L 703 4441 
L 1819 4666 
L 2450 4666 
L 2450 531 
L 3481 531 
L 3481 0 
L 794 0 
L 794 531 
z
" transform="scale(0.015625)"/>
       </defs>
       <use xlink:href="#DejaVuSans-31"/>
       <use xlink:href="#DejaVuSans-30" x="63.623047"/>
       <use xlink:href="#DejaVuSans-30" x="127.246094"/>
      </g>
     </g>
    </g>
    <g id="xtick_3">
     <g id="line2d_3">
      <g>
       <use xlink:href="#m332981abf4" x="271.475389" y="416.476875" style="stroke: #000000; stroke-width: 0.8"/>
      </g>
     </g>
     <g id="text_3">
      <!-- 200 -->
      <g transform="translate(252.387889 438.67375) scale(0.2 -0.2)">
       <defs>
        <path id="DejaVuSans-32" d="M 1228 531 
L 3431 531 
L 3431 0 
L 469 0 
L 469 531 
Q 828 903 1448 1529 
Q 2069 2156 2228 2338 
Q 2531 2678 2651 2914 
Q 2772 3150 2772 3378 
Q 2772 3750 2511 3984 
Q 2250 4219 1831 4219 
Q 1534 4219 1204 4116 
Q 875 4013 500 3803 
L 500 4441 
Q 881 4594 1212 4672 
Q 1544 4750 1819 4750 
Q 2544 4750 2975 4387 
Q 3406 4025 3406 3419 
Q 3406 3131 3298 2873 
Q 3191 2616 2906 2266 
Q 2828 2175 2409 1742 
Q 1991 1309 1228 531 
z
" transform="scale(0.015625)"/>
       </defs>
       <use xlink:href="#DejaVuSans-32"/>
       <use xlink:href="#DejaVuSans-30" x="63.623047"/>
       <use xlink:href="#DejaVuSans-30" x="127.246094"/>
      </g>
     </g>
    </g>
    <g id="xtick_4">
     <g id="line2d_4">
      <g>
       <use xlink:href="#m332981abf4" x="349.040027" y="416.476875" style="stroke: #000000; stroke-width: 0.8"/>
      </g>
     </g>
     <g id="text_4">
      <!-- 300 -->
      <g transform="translate(329.952527 438.67375) scale(0.2 -0.2)">
       <defs>
        <path id="DejaVuSans-33" d="M 2597 2516 
Q 3050 2419 3304 2112 
Q 3559 1806 3559 1356 
Q 3559 666 3084 287 
Q 2609 -91 1734 -91 
Q 1441 -91 1130 -33 
Q 819 25 488 141 
L 488 750 
Q 750 597 1062 519 
Q 1375 441 1716 441 
Q 2309 441 2620 675 
Q 2931 909 2931 1356 
Q 2931 1769 2642 2001 
Q 2353 2234 1838 2234 
L 1294 2234 
L 1294 2753 
L 1863 2753 
Q 2328 2753 2575 2939 
Q 2822 3125 2822 3475 
Q 2822 3834 2567 4026 
Q 2313 4219 1838 4219 
Q 1578 4219 1281 4162 
Q 984 4106 628 3988 
L 628 4550 
Q 988 4650 1302 4700 
Q 1616 4750 1894 4750 
Q 2613 4750 3031 4423 
Q 3450 4097 3450 3541 
Q 3450 3153 3228 2886 
Q 3006 2619 2597 2516 
z
" transform="scale(0.015625)"/>
       </defs>
       <use xlink:href="#DejaVuSans-33"/>
       <use xlink:href="#DejaVuSans-30" x="63.623047"/>
       <use xlink:href="#DejaVuSans-30" x="127.246094"/>
      </g>
     </g>
    </g>
    <g id="xtick_5">
     <g id="line2d_5">
      <g>
       <use xlink:href="#m332981abf4" x="426.604664" y="416.476875" style="stroke: #000000; stroke-width: 0.8"/>
      </g>
     </g>
     <g id="text_5">
      <!-- 400 -->
      <g transform="translate(407.517164 438.67375) scale(0.2 -0.2)">
       <defs>
        <path id="DejaVuSans-34" d="M 2419 4116 
L 825 1625 
L 2419 1625 
L 2419 4116 
z
M 2253 4666 
L 3047 4666 
L 3047 1625 
L 3713 1625 
L 3713 1100 
L 3047 1100 
L 3047 0 
L 2419 0 
L 2419 1100 
L 313 1100 
L 313 1709 
L 2253 4666 
z
" transform="scale(0.015625)"/>
       </defs>
       <use xlink:href="#DejaVuSans-34"/>
       <use xlink:href="#DejaVuSans-30" x="63.623047"/>
       <use xlink:href="#DejaVuSans-30" x="127.246094"/>
      </g>
     </g>
    </g>
    <g id="xtick_6">
     <g id="line2d_6">
      <g>
       <use xlink:href="#m332981abf4" x="504.169301" y="416.476875" style="stroke: #000000; stroke-width: 0.8"/>
      </g>
     </g>
     <g id="text_6">
      <!-- 500 -->
      <g transform="translate(485.081801 438.67375) scale(0.2 -0.2)">
       <defs>
        <path id="DejaVuSans-35" d="M 691 4666 
L 3169 4666 
L 3169 4134 
L 1269 4134 
L 1269 2991 
Q 1406 3038 1543 3061 
Q 1681 3084 1819 3084 
Q 2600 3084 3056 2656 
Q 3513 2228 3513 1497 
Q 3513 744 3044 326 
Q 2575 -91 1722 -91 
Q 1428 -91 1123 -41 
Q 819 9 494 109 
L 494 744 
Q 775 591 1075 516 
Q 1375 441 1709 441 
Q 2250 441 2565 725 
Q 2881 1009 2881 1497 
Q 2881 1984 2565 2268 
Q 2250 2553 1709 2553 
Q 1456 2553 1204 2497 
Q 953 2441 691 2322 
L 691 4666 
z
" transform="scale(0.015625)"/>
       </defs>
       <use xlink:href="#DejaVuSans-35"/>
       <use xlink:href="#DejaVuSans-30" x="63.623047"/>
       <use xlink:href="#DejaVuSans-30" x="127.246094"/>
      </g>
     </g>
    </g>
    <g id="xtick_7">
     <g id="line2d_7">
      <g>
       <use xlink:href="#m332981abf4" x="581.733938" y="416.476875" style="stroke: #000000; stroke-width: 0.8"/>
      </g>
     </g>
     <g id="text_7">
      <!-- 600 -->
      <g transform="translate(562.646438 438.67375) scale(0.2 -0.2)">
       <defs>
        <path id="DejaVuSans-36" d="M 2113 2584 
Q 1688 2584 1439 2293 
Q 1191 2003 1191 1497 
Q 1191 994 1439 701 
Q 1688 409 2113 409 
Q 2538 409 2786 701 
Q 3034 994 3034 1497 
Q 3034 2003 2786 2293 
Q 2538 2584 2113 2584 
z
M 3366 4563 
L 3366 3988 
Q 3128 4100 2886 4159 
Q 2644 4219 2406 4219 
Q 1781 4219 1451 3797 
Q 1122 3375 1075 2522 
Q 1259 2794 1537 2939 
Q 1816 3084 2150 3084 
Q 2853 3084 3261 2657 
Q 3669 2231 3669 1497 
Q 3669 778 3244 343 
Q 2819 -91 2113 -91 
Q 1303 -91 875 529 
Q 447 1150 447 2328 
Q 447 3434 972 4092 
Q 1497 4750 2381 4750 
Q 2619 4750 2861 4703 
Q 3103 4656 3366 4563 
z
" transform="scale(0.015625)"/>
       </defs>
       <use xlink:href="#DejaVuSans-36"/>
       <use xlink:href="#DejaVuSans-30" x="63.623047"/>
       <use xlink:href="#DejaVuSans-30" x="127.246094"/>
      </g>
     </g>
    </g>
    <g id="text_8">
     <!-- Days since antigen exposure -->
     <g transform="translate(226.337813 462.03) scale(0.2 -0.2)">
      <defs>
       <path id="DejaVuSans-44" d="M 1259 4147 
L 1259 519 
L 2022 519 
Q 2988 519 3436 956 
Q 3884 1394 3884 2338 
Q 3884 3275 3436 3711 
Q 2988 4147 2022 4147 
L 1259 4147 
z
M 628 4666 
L 1925 4666 
Q 3281 4666 3915 4102 
Q 4550 3538 4550 2338 
Q 4550 1131 3912 565 
Q 3275 0 1925 0 
L 628 0 
L 628 4666 
z
" transform="scale(0.015625)"/>
       <path id="DejaVuSans-61" d="M 2194 1759 
Q 1497 1759 1228 1600 
Q 959 1441 959 1056 
Q 959 750 1161 570 
Q 1363 391 1709 391 
Q 2188 391 2477 730 
Q 2766 1069 2766 1631 
L 2766 1759 
L 2194 1759 
z
M 3341 1997 
L 3341 0 
L 2766 0 
L 2766 531 
Q 2569 213 2275 61 
Q 1981 -91 1556 -91 
Q 1019 -91 701 211 
Q 384 513 384 1019 
Q 384 1609 779 1909 
Q 1175 2209 1959 2209 
L 2766 2209 
L 2766 2266 
Q 2766 2663 2505 2880 
Q 2244 3097 1772 3097 
Q 1472 3097 1187 3025 
Q 903 2953 641 2809 
L 641 3341 
Q 956 3463 1253 3523 
Q 1550 3584 1831 3584 
Q 2591 3584 2966 3190 
Q 3341 2797 3341 1997 
z
" transform="scale(0.015625)"/>
       <path id="DejaVuSans-79" d="M 2059 -325 
Q 1816 -950 1584 -1140 
Q 1353 -1331 966 -1331 
L 506 -1331 
L 506 -850 
L 844 -850 
Q 1081 -850 1212 -737 
Q 1344 -625 1503 -206 
L 1606 56 
L 191 3500 
L 800 3500 
L 1894 763 
L 2988 3500 
L 3597 3500 
L 2059 -325 
z
" transform="scale(0.015625)"/>
       <path id="DejaVuSans-73" d="M 2834 3397 
L 2834 2853 
Q 2591 2978 2328 3040 
Q 2066 3103 1784 3103 
Q 1356 3103 1142 2972 
Q 928 2841 928 2578 
Q 928 2378 1081 2264 
Q 1234 2150 1697 2047 
L 1894 2003 
Q 2506 1872 2764 1633 
Q 3022 1394 3022 966 
Q 3022 478 2636 193 
Q 2250 -91 1575 -91 
Q 1294 -91 989 -36 
Q 684 19 347 128 
L 347 722 
Q 666 556 975 473 
Q 1284 391 1588 391 
Q 1994 391 2212 530 
Q 2431 669 2431 922 
Q 2431 1156 2273 1281 
Q 2116 1406 1581 1522 
L 1381 1569 
Q 847 1681 609 1914 
Q 372 2147 372 2553 
Q 372 3047 722 3315 
Q 1072 3584 1716 3584 
Q 2034 3584 2315 3537 
Q 2597 3491 2834 3397 
z
" transform="scale(0.015625)"/>
       <path id="DejaVuSans-20" transform="scale(0.015625)"/>
       <path id="DejaVuSans-69" d="M 603 3500 
L 1178 3500 
L 1178 0 
L 603 0 
L 603 3500 
z
M 603 4863 
L 1178 4863 
L 1178 4134 
L 603 4134 
L 603 4863 
z
" transform="scale(0.015625)"/>
       <path id="DejaVuSans-6e" d="M 3513 2113 
L 3513 0 
L 2938 0 
L 2938 2094 
Q 2938 2591 2744 2837 
Q 2550 3084 2163 3084 
Q 1697 3084 1428 2787 
Q 1159 2491 1159 1978 
L 1159 0 
L 581 0 
L 581 3500 
L 1159 3500 
L 1159 2956 
Q 1366 3272 1645 3428 
Q 1925 3584 2291 3584 
Q 2894 3584 3203 3211 
Q 3513 2838 3513 2113 
z
" transform="scale(0.015625)"/>
       <path id="DejaVuSans-63" d="M 3122 3366 
L 3122 2828 
Q 2878 2963 2633 3030 
Q 2388 3097 2138 3097 
Q 1578 3097 1268 2742 
Q 959 2388 959 1747 
Q 959 1106 1268 751 
Q 1578 397 2138 397 
Q 2388 397 2633 464 
Q 2878 531 3122 666 
L 3122 134 
Q 2881 22 2623 -34 
Q 2366 -91 2075 -91 
Q 1284 -91 818 406 
Q 353 903 353 1747 
Q 353 2603 823 3093 
Q 1294 3584 2113 3584 
Q 2378 3584 2631 3529 
Q 2884 3475 3122 3366 
z
" transform="scale(0.015625)"/>
       <path id="DejaVuSans-65" d="M 3597 1894 
L 3597 1613 
L 953 1613 
Q 991 1019 1311 708 
Q 1631 397 2203 397 
Q 2534 397 2845 478 
Q 3156 559 3463 722 
L 3463 178 
Q 3153 47 2828 -22 
Q 2503 -91 2169 -91 
Q 1331 -91 842 396 
Q 353 884 353 1716 
Q 353 2575 817 3079 
Q 1281 3584 2069 3584 
Q 2775 3584 3186 3129 
Q 3597 2675 3597 1894 
z
M 3022 2063 
Q 3016 2534 2758 2815 
Q 2500 3097 2075 3097 
Q 1594 3097 1305 2825 
Q 1016 2553 972 2059 
L 3022 2063 
z
" transform="scale(0.015625)"/>
       <path id="DejaVuSans-74" d="M 1172 4494 
L 1172 3500 
L 2356 3500 
L 2356 3053 
L 1172 3053 
L 1172 1153 
Q 1172 725 1289 603 
Q 1406 481 1766 481 
L 2356 481 
L 2356 0 
L 1766 0 
Q 1100 0 847 248 
Q 594 497 594 1153 
L 594 3053 
L 172 3053 
L 172 3500 
L 594 3500 
L 594 4494 
L 1172 4494 
z
" transform="scale(0.015625)"/>
       <path id="DejaVuSans-67" d="M 2906 1791 
Q 2906 2416 2648 2759 
Q 2391 3103 1925 3103 
Q 1463 3103 1205 2759 
Q 947 2416 947 1791 
Q 947 1169 1205 825 
Q 1463 481 1925 481 
Q 2391 481 2648 825 
Q 2906 1169 2906 1791 
z
M 3481 434 
Q 3481 -459 3084 -895 
Q 2688 -1331 1869 -1331 
Q 1566 -1331 1297 -1286 
Q 1028 -1241 775 -1147 
L 775 -588 
Q 1028 -725 1275 -790 
Q 1522 -856 1778 -856 
Q 2344 -856 2625 -561 
Q 2906 -266 2906 331 
L 2906 616 
Q 2728 306 2450 153 
Q 2172 0 1784 0 
Q 1141 0 747 490 
Q 353 981 353 1791 
Q 353 2603 747 3093 
Q 1141 3584 1784 3584 
Q 2172 3584 2450 3431 
Q 2728 3278 2906 2969 
L 2906 3500 
L 3481 3500 
L 3481 434 
z
" transform="scale(0.015625)"/>
       <path id="DejaVuSans-78" d="M 3513 3500 
L 2247 1797 
L 3578 0 
L 2900 0 
L 1881 1375 
L 863 0 
L 184 0 
L 1544 1831 
L 300 3500 
L 978 3500 
L 1906 2253 
L 2834 3500 
L 3513 3500 
z
" transform="scale(0.015625)"/>
       <path id="DejaVuSans-70" d="M 1159 525 
L 1159 -1331 
L 581 -1331 
L 581 3500 
L 1159 3500 
L 1159 2969 
Q 1341 3281 1617 3432 
Q 1894 3584 2278 3584 
Q 2916 3584 3314 3078 
Q 3713 2572 3713 1747 
Q 3713 922 3314 415 
Q 2916 -91 2278 -91 
Q 1894 -91 1617 61 
Q 1341 213 1159 525 
z
M 3116 1747 
Q 3116 2381 2855 2742 
Q 2594 3103 2138 3103 
Q 1681 3103 1420 2742 
Q 1159 2381 1159 1747 
Q 1159 1113 1420 752 
Q 1681 391 2138 391 
Q 2594 391 2855 752 
Q 3116 1113 3116 1747 
z
" transform="scale(0.015625)"/>
       <path id="DejaVuSans-6f" d="M 1959 3097 
Q 1497 3097 1228 2736 
Q 959 2375 959 1747 
Q 959 1119 1226 758 
Q 1494 397 1959 397 
Q 2419 397 2687 759 
Q 2956 1122 2956 1747 
Q 2956 2369 2687 2733 
Q 2419 3097 1959 3097 
z
M 1959 3584 
Q 2709 3584 3137 3096 
Q 3566 2609 3566 1747 
Q 3566 888 3137 398 
Q 2709 -91 1959 -91 
Q 1206 -91 779 398 
Q 353 888 353 1747 
Q 353 2609 779 3096 
Q 1206 3584 1959 3584 
z
" transform="scale(0.015625)"/>
       <path id="DejaVuSans-75" d="M 544 1381 
L 544 3500 
L 1119 3500 
L 1119 1403 
Q 1119 906 1312 657 
Q 1506 409 1894 409 
Q 2359 409 2629 706 
Q 2900 1003 2900 1516 
L 2900 3500 
L 3475 3500 
L 3475 0 
L 2900 0 
L 2900 538 
Q 2691 219 2414 64 
Q 2138 -91 1772 -91 
Q 1169 -91 856 284 
Q 544 659 544 1381 
z
M 1991 3584 
L 1991 3584 
z
" transform="scale(0.015625)"/>
       <path id="DejaVuSans-72" d="M 2631 2963 
Q 2534 3019 2420 3045 
Q 2306 3072 2169 3072 
Q 1681 3072 1420 2755 
Q 1159 2438 1159 1844 
L 1159 0 
L 581 0 
L 581 3500 
L 1159 3500 
L 1159 2956 
Q 1341 3275 1631 3429 
Q 1922 3584 2338 3584 
Q 2397 3584 2469 3576 
Q 2541 3569 2628 3553 
L 2631 2963 
z
" transform="scale(0.015625)"/>
      </defs>
      <use xlink:href="#DejaVuSans-44"/>
      <use xlink:href="#DejaVuSans-61" x="77.001953"/>
      <use xlink:href="#DejaVuSans-79" x="138.28125"/>
      <use xlink:href="#DejaVuSans-73" x="197.460938"/>
      <use xlink:href="#DejaVuSans-20" x="249.560547"/>
      <use xlink:href="#DejaVuSans-73" x="281.347656"/>
      <use xlink:href="#DejaVuSans-69" x="333.447266"/>
      <use xlink:href="#DejaVuSans-6e" x="361.230469"/>
      <use xlink:href="#DejaVuSans-63" x="424.609375"/>
      <use xlink:href="#DejaVuSans-65" x="479.589844"/>
      <use xlink:href="#DejaVuSans-20" x="541.113281"/>
      <use xlink:href="#DejaVuSans-61" x="572.900391"/>
      <use xlink:href="#DejaVuSans-6e" x="634.179688"/>
      <use xlink:href="#DejaVuSans-74" x="697.558594"/>
      <use xlink:href="#DejaVuSans-69" x="736.767578"/>
      <use xlink:href="#DejaVuSans-67" x="764.550781"/>
      <use xlink:href="#DejaVuSans-65" x="828.027344"/>
      <use xlink:href="#DejaVuSans-6e" x="889.550781"/>
      <use xlink:href="#DejaVuSans-20" x="952.929688"/>
      <use xlink:href="#DejaVuSans-65" x="984.716797"/>
      <use xlink:href="#DejaVuSans-78" x="1044.490234"/>
      <use xlink:href="#DejaVuSans-70" x="1103.669922"/>
      <use xlink:href="#DejaVuSans-6f" x="1167.146484"/>
      <use xlink:href="#DejaVuSans-73" x="1228.328125"/>
      <use xlink:href="#DejaVuSans-75" x="1280.427734"/>
      <use xlink:href="#DejaVuSans-72" x="1343.806641"/>
      <use xlink:href="#DejaVuSans-65" x="1382.669922"/>
     </g>
    </g>
   </g>
   <g id="matplotlib.axis_2">
    <g id="ytick_1">
     <g id="line2d_8">
      <defs>
       <path id="m02248ea08a" d="M 0 0 
L -3.5 0 
" style="stroke: #000000; stroke-width: 0.8"/>
      </defs>
      <g>
       <use xlink:href="#m02248ea08a" x="91.758125" y="379.260344" style="stroke: #000000; stroke-width: 0.8"/>
      </g>
     </g>
     <g id="text_9">
      <!-- 0.0 -->
      <g transform="translate(52.951875 386.858782) scale(0.2 -0.2)">
       <defs>
        <path id="DejaVuSans-2e" d="M 684 794 
L 1344 794 
L 1344 0 
L 684 0 
L 684 794 
z
" transform="scale(0.015625)"/>
       </defs>
       <use xlink:href="#DejaVuSans-30"/>
       <use xlink:href="#DejaVuSans-2e" x="63.623047"/>
       <use xlink:href="#DejaVuSans-30" x="95.410156"/>
      </g>
     </g>
    </g>
    <g id="ytick_2">
     <g id="line2d_9">
      <g>
       <use xlink:href="#m02248ea08a" x="91.758125" y="304.827283" style="stroke: #000000; stroke-width: 0.8"/>
      </g>
     </g>
     <g id="text_10">
      <!-- 0.2 -->
      <g transform="translate(52.951875 312.42572) scale(0.2 -0.2)">
       <use xlink:href="#DejaVuSans-30"/>
       <use xlink:href="#DejaVuSans-2e" x="63.623047"/>
       <use xlink:href="#DejaVuSans-32" x="95.410156"/>
      </g>
     </g>
    </g>
    <g id="ytick_3">
     <g id="line2d_10">
      <g>
       <use xlink:href="#m02248ea08a" x="91.758125" y="230.394221" style="stroke: #000000; stroke-width: 0.8"/>
      </g>
     </g>
     <g id="text_11">
      <!-- 0.4 -->
      <g transform="translate(52.951875 237.992658) scale(0.2 -0.2)">
       <use xlink:href="#DejaVuSans-30"/>
       <use xlink:href="#DejaVuSans-2e" x="63.623047"/>
       <use xlink:href="#DejaVuSans-34" x="95.410156"/>
      </g>
     </g>
    </g>
    <g id="ytick_4">
     <g id="line2d_11">
      <g>
       <use xlink:href="#m02248ea08a" x="91.758125" y="155.961159" style="stroke: #000000; stroke-width: 0.8"/>
      </g>
     </g>
     <g id="text_12">
      <!-- 0.6 -->
      <g transform="translate(52.951875 163.559597) scale(0.2 -0.2)">
       <use xlink:href="#DejaVuSans-30"/>
       <use xlink:href="#DejaVuSans-2e" x="63.623047"/>
       <use xlink:href="#DejaVuSans-36" x="95.410156"/>
      </g>
     </g>
    </g>
    <g id="ytick_5">
     <g id="line2d_12">
      <g>
       <use xlink:href="#m02248ea08a" x="91.758125" y="81.528098" style="stroke: #000000; stroke-width: 0.8"/>
      </g>
     </g>
     <g id="text_13">
      <!-- 0.8 -->
      <g transform="translate(52.951875 89.126535) scale(0.2 -0.2)">
       <defs>
        <path id="DejaVuSans-38" d="M 2034 2216 
Q 1584 2216 1326 1975 
Q 1069 1734 1069 1313 
Q 1069 891 1326 650 
Q 1584 409 2034 409 
Q 2484 409 2743 651 
Q 3003 894 3003 1313 
Q 3003 1734 2745 1975 
Q 2488 2216 2034 2216 
z
M 1403 2484 
Q 997 2584 770 2862 
Q 544 3141 544 3541 
Q 544 4100 942 4425 
Q 1341 4750 2034 4750 
Q 2731 4750 3128 4425 
Q 3525 4100 3525 3541 
Q 3525 3141 3298 2862 
Q 3072 2584 2669 2484 
Q 3125 2378 3379 2068 
Q 3634 1759 3634 1313 
Q 3634 634 3220 271 
Q 2806 -91 2034 -91 
Q 1263 -91 848 271 
Q 434 634 434 1313 
Q 434 1759 690 2068 
Q 947 2378 1403 2484 
z
M 1172 3481 
Q 1172 3119 1398 2916 
Q 1625 2713 2034 2713 
Q 2441 2713 2670 2916 
Q 2900 3119 2900 3481 
Q 2900 3844 2670 4047 
Q 2441 4250 2034 4250 
Q 1625 4250 1398 4047 
Q 1172 3844 1172 3481 
z
" transform="scale(0.015625)"/>
       </defs>
       <use xlink:href="#DejaVuSans-30"/>
       <use xlink:href="#DejaVuSans-2e" x="63.623047"/>
       <use xlink:href="#DejaVuSans-38" x="95.410156"/>
      </g>
     </g>
    </g>
    <g id="text_14">
     <!-- Virus neutralization -->
     <g transform="translate(22.396875 319.741562) rotate(-90) scale(0.2 -0.2)">
      <defs>
       <path id="DejaVuSans-56" d="M 1831 0 
L 50 4666 
L 709 4666 
L 2188 738 
L 3669 4666 
L 4325 4666 
L 2547 0 
L 1831 0 
z
" transform="scale(0.015625)"/>
       <path id="DejaVuSans-6c" d="M 603 4863 
L 1178 4863 
L 1178 0 
L 603 0 
L 603 4863 
z
" transform="scale(0.015625)"/>
       <path id="DejaVuSans-7a" d="M 353 3500 
L 3084 3500 
L 3084 2975 
L 922 459 
L 3084 459 
L 3084 0 
L 275 0 
L 275 525 
L 2438 3041 
L 353 3041 
L 353 3500 
z
" transform="scale(0.015625)"/>
      </defs>
      <use xlink:href="#DejaVuSans-56"/>
      <use xlink:href="#DejaVuSans-69" x="66.158203"/>
      <use xlink:href="#DejaVuSans-72" x="93.941406"/>
      <use xlink:href="#DejaVuSans-75" x="135.054688"/>
      <use xlink:href="#DejaVuSans-73" x="198.433594"/>
      <use xlink:href="#DejaVuSans-20" x="250.533203"/>
      <use xlink:href="#DejaVuSans-6e" x="282.320312"/>
      <use xlink:href="#DejaVuSans-65" x="345.699219"/>
      <use xlink:href="#DejaVuSans-75" x="407.222656"/>
      <use xlink:href="#DejaVuSans-74" x="470.601562"/>
      <use xlink:href="#DejaVuSans-72" x="509.810547"/>
      <use xlink:href="#DejaVuSans-61" x="550.923828"/>
      <use xlink:href="#DejaVuSans-6c" x="612.203125"/>
      <use xlink:href="#DejaVuSans-69" x="639.986328"/>
      <use xlink:href="#DejaVuSans-7a" x="667.769531"/>
      <use xlink:href="#DejaVuSans-61" x="720.259766"/>
      <use xlink:href="#DejaVuSans-74" x="781.539062"/>
      <use xlink:href="#DejaVuSans-69" x="820.748047"/>
      <use xlink:href="#DejaVuSans-6f" x="848.53125"/>
      <use xlink:href="#DejaVuSans-6e" x="909.712891"/>
     </g>
     <!--  probability -->
     <g transform="translate(44.7925 278.966562) rotate(-90) scale(0.2 -0.2)">
      <defs>
       <path id="DejaVuSans-62" d="M 3116 1747 
Q 3116 2381 2855 2742 
Q 2594 3103 2138 3103 
Q 1681 3103 1420 2742 
Q 1159 2381 1159 1747 
Q 1159 1113 1420 752 
Q 1681 391 2138 391 
Q 2594 391 2855 752 
Q 3116 1113 3116 1747 
z
M 1159 2969 
Q 1341 3281 1617 3432 
Q 1894 3584 2278 3584 
Q 2916 3584 3314 3078 
Q 3713 2572 3713 1747 
Q 3713 922 3314 415 
Q 2916 -91 2278 -91 
Q 1894 -91 1617 61 
Q 1341 213 1159 525 
L 1159 0 
L 581 0 
L 581 4863 
L 1159 4863 
L 1159 2969 
z
" transform="scale(0.015625)"/>
      </defs>
      <use xlink:href="#DejaVuSans-20"/>
      <use xlink:href="#DejaVuSans-70" x="31.787109"/>
      <use xlink:href="#DejaVuSans-72" x="95.263672"/>
      <use xlink:href="#DejaVuSans-6f" x="134.126953"/>
      <use xlink:href="#DejaVuSans-62" x="195.308594"/>
      <use xlink:href="#DejaVuSans-61" x="258.785156"/>
      <use xlink:href="#DejaVuSans-62" x="320.064453"/>
      <use xlink:href="#DejaVuSans-69" x="383.541016"/>
      <use xlink:href="#DejaVuSans-6c" x="411.324219"/>
      <use xlink:href="#DejaVuSans-69" x="439.107422"/>
      <use xlink:href="#DejaVuSans-74" x="466.890625"/>
      <use xlink:href="#DejaVuSans-79" x="506.099609"/>
     </g>
    </g>
   </g>
   <g id="patch_3">
    <path d="M 91.758125 416.476875 
L 91.758125 28.396875 
" style="fill: none; stroke: #000000; stroke-width: 0.8; stroke-linejoin: miter; stroke-linecap: square"/>
   </g>
   <g id="patch_4">
    <path d="M 649.758125 416.476875 
L 649.758125 28.396875 
" style="fill: none; stroke: #000000; stroke-width: 0.8; stroke-linejoin: miter; stroke-linecap: square"/>
   </g>
   <g id="patch_5">
    <path d="M 91.758125 416.476875 
L 649.758125 416.476875 
" style="fill: none; stroke: #000000; stroke-width: 0.8; stroke-linejoin: miter; stroke-linecap: square"/>
   </g>
   <g id="patch_6">
    <path d="M 91.758125 28.396875 
L 649.758125 28.396875 
" style="fill: none; stroke: #000000; stroke-width: 0.8; stroke-linejoin: miter; stroke-linecap: square"/>
   </g>
   <g id="text_15">
    <!-- Lineage 2 antigen -->
    <g transform="translate(280.565938 22.396875) scale(0.2 -0.2)">
     <defs>
      <path id="DejaVuSans-4c" d="M 628 4666 
L 1259 4666 
L 1259 531 
L 3531 531 
L 3531 0 
L 628 0 
L 628 4666 
z
" transform="scale(0.015625)"/>
     </defs>
     <use xlink:href="#DejaVuSans-4c"/>
     <use xlink:href="#DejaVuSans-69" x="55.712891"/>
     <use xlink:href="#DejaVuSans-6e" x="83.496094"/>
     <use xlink:href="#DejaVuSans-65" x="146.875"/>
     <use xlink:href="#DejaVuSans-61" x="208.398438"/>
     <use xlink:href="#DejaVuSans-67" x="269.677734"/>
     <use xlink:href="#DejaVuSans-65" x="333.154297"/>
     <use xlink:href="#DejaVuSans-20" x="394.677734"/>
     <use xlink:href="#DejaVuSans-32" x="426.464844"/>
     <use xlink:href="#DejaVuSans-20" x="490.087891"/>
     <use xlink:href="#DejaVuSans-61" x="521.875"/>
     <use xlink:href="#DejaVuSans-6e" x="583.154297"/>
     <use xlink:href="#DejaVuSans-74" x="646.533203"/>
     <use xlink:href="#DejaVuSans-69" x="685.742188"/>
     <use xlink:href="#DejaVuSans-67" x="713.525391"/>
     <use xlink:href="#DejaVuSans-65" x="777.001953"/>
     <use xlink:href="#DejaVuSans-6e" x="838.525391"/>
    </g>
   </g>
   <g id="legend_1">
    <g id="patch_7">
     <path d="M 235.258125 532.900875 
L 397.28 532.900875 
Q 401.28 532.900875 401.28 528.900875 
L 401.28 501.544625 
Q 401.28 497.544625 397.28 497.544625 
L 235.258125 497.544625 
Q 231.258125 497.544625 231.258125 501.544625 
L 231.258125 528.900875 
Q 231.258125 532.900875 235.258125 532.900875 
z
" style="fill: #ffffff; opacity: 0.8; stroke: #cccccc; stroke-linejoin: miter"/>
    </g>
    <g id="patch_8">
     <path d="M 239.258125 520.7415 
L 279.258125 520.7415 
L 279.258125 506.7415 
L 239.258125 506.7415 
z
" style="fill: #ffa500; fill-opacity: 0.3; stroke: #ffa500; stroke-opacity: 0.3; stroke-linejoin: miter"/>
    </g>
    <g id="text_16">
     <!-- Lineage 1 -->
     <g transform="translate(295.258125 520.7415) scale(0.2 -0.2)">
      <use xlink:href="#DejaVuSans-4c"/>
      <use xlink:href="#DejaVuSans-69" x="55.712891"/>
      <use xlink:href="#DejaVuSans-6e" x="83.496094"/>
      <use xlink:href="#DejaVuSans-65" x="146.875"/>
      <use xlink:href="#DejaVuSans-61" x="208.398438"/>
      <use xlink:href="#DejaVuSans-67" x="269.677734"/>
      <use xlink:href="#DejaVuSans-65" x="333.154297"/>
      <use xlink:href="#DejaVuSans-20" x="394.677734"/>
      <use xlink:href="#DejaVuSans-31" x="426.464844"/>
     </g>
    </g>
   </g>
  </g>
 </g>
 <defs>
  <clipPath id="pe1a77adac9">
   <rect x="91.758125" y="28.396875" width="558" height="388.08"/>
  </clipPath>
 </defs>
</svg>
