<?xml version="1.0" encoding="utf-8" standalone="no"?>
<!DOCTYPE svg PUBLIC "-//W3C//DTD SVG 1.1//EN"
  "http://www.w3.org/Graphics/SVG/1.1/DTD/svg11.dtd">
<svg xmlns:xlink="http://www.w3.org/1999/xlink" width="656.958125pt" height="518.904pt" viewBox="0 0 656.958125 518.904" xmlns="http://www.w3.org/2000/svg" version="1.1">
 <metadata>
  <rdf:RDF xmlns:dc="http://purl.org/dc/elements/1.1/" xmlns:cc="http://creativecommons.org/ns#" xmlns:rdf="http://www.w3.org/1999/02/22-rdf-syntax-ns#">
   <cc:Work>
    <dc:type rdf:resource="http://purl.org/dc/dcmitype/StillImage"/>
    <dc:date>2024-04-22T14:01:44.579981</dc:date>
    <dc:format>image/svg+xml</dc:format>
    <dc:creator>
     <cc:Agent>
      <dc:title>Matplotlib v3.8.4, https://matplotlib.org/</dc:title>
     </cc:Agent>
    </dc:creator>
   </cc:Work>
  </rdf:RDF>
 </metadata>
 <defs>
  <style type="text/css">*{stroke-linejoin: round; stroke-linecap: butt}</style>
 </defs>
 <g id="figure_1">
  <g id="patch_1">
   <path d="M 0 518.904 
L 656.958125 518.904 
L 656.958125 0 
L 0 0 
z
" style="fill: #ffffff"/>
  </g>
  <g id="axes_1">
   <g id="patch_2">
    <path d="M 91.758125 395.28 
L 649.758125 395.28 
L 649.758125 7.2 
L 91.758125 7.2 
z
" style="fill: #ffffff"/>
   </g>
   <g id="PolyCollection_1">
    <defs>
     <path id="md8af8937ea" d="M 117.121761 -233.608317 
L 117.121761 -186.536233 
L 117.897408 -214.924086 
L 118.673054 -241.24676 
L 119.4487 -265.617576 
L 120.224347 -288.144246 
L 120.999993 -308.929142 
L 121.77564 -328.069546 
L 122.551286 -345.657888 
L 123.326932 -361.781979 
L 124.102579 -376.525226 
L 124.878225 -389.966846 
L 125.653871 -402.182057 
L 126.429518 -413.242274 
L 127.205164 -423.215291 
L 127.980811 -432.165448 
L 128.756457 -440.1538 
L 129.532103 -447.238274 
L 130.30775 -453.473817 
L 131.083396 -458.912541 
L 131.859042 -462.358155 
L 132.634689 -457.388486 
L 133.410335 -452.089449 
L 134.185982 -446.533556 
L 134.961628 -440.782667 
L 135.737274 -434.889468 
L 136.512921 -428.898739 
L 137.288567 -422.848455 
L 138.064213 -416.770733 
L 138.83986 -410.692652 
L 139.615506 -404.636953 
L 140.391153 -398.622657 
L 141.166799 -392.665583 
L 141.942445 -386.778802 
L 142.718092 -380.973033 
L 143.493738 -375.256975 
L 144.269384 -369.637598 
L 145.045031 -364.120399 
L 145.820677 -358.709609 
L 146.596323 -353.408388 
L 147.37197 -348.218979 
L 148.147616 -343.14285 
L 148.923263 -338.180809 
L 149.698909 -333.333112 
L 150.474555 -328.599545 
L 151.250202 -323.979502 
L 152.025848 -319.472051 
L 152.801494 -315.07599 
L 153.577141 -310.789892 
L 154.352787 -306.612149 
L 155.128434 -302.541006 
L 155.90408 -298.574591 
L 156.679726 -294.71094 
L 157.455373 -290.948021 
L 158.231019 -287.283752 
L 159.006665 -283.716013 
L 159.782312 -280.242667 
L 160.557958 -276.861565 
L 161.333605 -273.570557 
L 162.109251 -270.367502 
L 162.884897 -267.250274 
L 163.660544 -264.216766 
L 164.43619 -261.264896 
L 165.211836 -258.392611 
L 165.987483 -255.59789 
L 166.763129 -252.878745 
L 167.538776 -250.233225 
L 168.314422 -247.659417 
L 169.090068 -245.155445 
L 169.865715 -242.719474 
L 170.641361 -240.349709 
L 171.417007 -238.044395 
L 172.192654 -235.801817 
L 172.9683 -233.620302 
L 173.743947 -231.498214 
L 174.519593 -229.43396 
L 175.295239 -227.425984 
L 176.070886 -225.472772 
L 176.846532 -223.572845 
L 177.622178 -221.724763 
L 178.397825 -219.927123 
L 179.173471 -218.178559 
L 179.949117 -216.47774 
L 180.724764 -214.82337 
L 181.50041 -213.214187 
L 182.276057 -211.648961 
L 183.051703 -210.126499 
L 183.827349 -208.645634 
L 184.602996 -207.205235 
L 185.378642 -205.804199 
L 186.154288 -204.441452 
L 186.929935 -203.115952 
L 187.705581 -201.826681 
L 188.481228 -200.572651 
L 189.256874 -199.352901 
L 190.03252 -198.166495 
L 190.808167 -197.012522 
L 191.583813 -195.890097 
L 192.359459 -194.798358 
L 193.135106 -193.736467 
L 193.910752 -192.703608 
L 194.686399 -191.698989 
L 195.462045 -190.721837 
L 196.237691 -189.771402 
L 197.013338 -188.846955 
L 197.788984 -187.947784 
L 198.56463 -187.073198 
L 199.340277 -186.222527 
L 200.115923 -185.395116 
L 200.89157 -184.590329 
L 201.667216 -183.807548 
L 202.442862 -183.04617 
L 203.218509 -182.305613 
L 203.994155 -181.585304 
L 204.769801 -180.884693 
L 205.545448 -180.203238 
L 206.321094 -179.540418 
L 207.096741 -178.895722 
L 207.872387 -178.268655 
L 208.648033 -177.658735 
L 209.42368 -177.065493 
L 210.199326 -176.488473 
L 210.974972 -175.927232 
L 211.750619 -175.381337 
L 212.526265 -174.85037 
L 213.301911 -174.333922 
L 214.077558 -173.831596 
L 214.853204 -173.343007 
L 215.628851 -172.867777 
L 216.404497 -172.405543 
L 217.180143 -171.955948 
L 217.95579 -171.518648 
L 218.731436 -171.093306 
L 219.507082 -170.679594 
L 220.282729 -170.277196 
L 221.058375 -169.885801 
L 221.834022 -169.505109 
L 222.609668 -169.134827 
L 223.385314 -168.77467 
L 224.160961 -168.424361 
L 224.936607 -168.083632 
L 225.712253 -167.75222 
L 226.4879 -167.429871 
L 227.263546 -167.116336 
L 228.039193 -166.811375 
L 228.814839 -166.514753 
L 229.590485 -166.226242 
L 230.366132 -165.945621 
L 231.141778 -165.672673 
L 231.917424 -165.407189 
L 232.693071 -165.148964 
L 233.468717 -164.897801 
L 234.244364 -164.653506 
L 235.02001 -164.415891 
L 235.795656 -164.184773 
L 236.571303 -163.959976 
L 237.346949 -163.741325 
L 238.122595 -163.528654 
L 238.898242 -163.321798 
L 239.673888 -163.120599 
L 240.449535 -162.924901 
L 241.225181 -162.734555 
L 242.000827 -162.549414 
L 242.776474 -162.369335 
L 243.55212 -162.194181 
L 244.327766 -162.023816 
L 245.103413 -161.85811 
L 245.879059 -161.696936 
L 246.654705 -161.540168 
L 247.430352 -161.387688 
L 248.205998 -161.239377 
L 248.981645 -161.095121 
L 249.757291 -160.95481 
L 250.532937 -160.818336 
L 251.308584 -160.685594 
L 252.08423 -160.556482 
L 252.859876 -160.4309 
L 253.635523 -160.308753 
L 254.411169 -160.189945 
L 255.186816 -160.074387 
L 255.962462 -159.961988 
L 256.738108 -159.852663 
L 257.513755 -159.746327 
L 258.289401 -159.642899 
L 259.065047 -159.542299 
L 259.840694 -159.444451 
L 260.61634 -159.349278 
L 261.391987 -159.256707 
L 262.167633 -159.166668 
L 262.943279 -159.079091 
L 263.718926 -158.993908 
L 264.494572 -158.911055 
L 265.270218 -158.830468 
L 266.045865 -158.752084 
L 266.821511 -158.675844 
L 267.597158 -158.601688 
L 268.372804 -158.529561 
L 269.14845 -158.459405 
L 269.924097 -158.391168 
L 270.699743 -158.324797 
L 271.475389 -158.260241 
L 272.251036 -158.19745 
L 273.026682 -158.136376 
L 273.802329 -158.076973 
L 274.577975 -158.019193 
L 275.353621 -157.962994 
L 276.129268 -157.908331 
L 276.904914 -157.855164 
L 277.68056 -157.80345 
L 278.456207 -157.75315 
L 279.231853 -157.704225 
L 280.007499 -157.656639 
L 280.783146 -157.610353 
L 281.558792 -157.565334 
L 282.334439 -157.521545 
L 283.110085 -157.478954 
L 283.885731 -157.437528 
L 284.661378 -157.397234 
L 285.437024 -157.358042 
L 286.21267 -157.319922 
L 286.988317 -157.282844 
L 287.763963 -157.24678 
L 288.53961 -157.211703 
L 289.315256 -157.177584 
L 290.090902 -157.144399 
L 290.866549 -157.112121 
L 291.642195 -157.080725 
L 292.417841 -157.050188 
L 293.193488 -157.020486 
L 293.969134 -156.991597 
L 294.744781 -156.963497 
L 295.520427 -156.936166 
L 296.296073 -156.909582 
L 297.07172 -156.883725 
L 297.847366 -156.858575 
L 298.623012 -156.834113 
L 299.398659 -156.810319 
L 300.174305 -156.787177 
L 300.949952 -156.764667 
L 301.725598 -156.742773 
L 302.501244 -156.721477 
L 303.276891 -156.700764 
L 304.052537 -156.680617 
L 304.828183 -156.661021 
L 305.60383 -156.641961 
L 306.379476 -156.623422 
L 307.155122 -156.60539 
L 307.930769 -156.587851 
L 308.706415 -156.570792 
L 309.482062 -156.554199 
L 310.257708 -156.53806 
L 311.033354 -156.522363 
L 311.809001 -156.507094 
L 312.584647 -156.492243 
L 313.360293 -156.477798 
L 314.13594 -156.463748 
L 314.911586 -156.450083 
L 315.687233 -156.436791 
L 316.462879 -156.423862 
L 317.238525 -156.411287 
L 318.014172 -156.399056 
L 318.789818 -156.38716 
L 319.565464 -156.375588 
L 320.341111 -156.364333 
L 321.116757 -156.353386 
L 321.892404 -156.342739 
L 322.66805 -156.332382 
L 323.443696 -156.322308 
L 324.219343 -156.312511 
L 324.994989 -156.30298 
L 325.770635 -156.293711 
L 326.546282 -156.284695 
L 327.321928 -156.275926 
L 328.097575 -156.267396 
L 328.873221 -156.2591 
L 329.648867 -156.25103 
L 330.424514 -156.243181 
L 331.20016 -156.235547 
L 331.975806 -156.228122 
L 332.751453 -156.220899 
L 333.527099 -156.213874 
L 334.302746 -156.207041 
L 335.078392 -156.200395 
L 335.854038 -156.193931 
L 336.629685 -156.187644 
L 337.405331 -156.181528 
L 338.180977 -156.17558 
L 338.956624 -156.169794 
L 339.73227 -156.164167 
L 340.507916 -156.158693 
L 341.283563 -156.153369 
L 342.059209 -156.148191 
L 342.834856 -156.143154 
L 343.610502 -156.138255 
L 344.386148 -156.13349 
L 345.161795 -156.128856 
L 345.937441 -156.124348 
L 346.713087 -156.119963 
L 347.488734 -156.115698 
L 348.26438 -156.11155 
L 349.040027 -156.107515 
L 349.815673 -156.103591 
L 350.591319 -156.099774 
L 351.366966 -156.096061 
L 352.142612 -156.09245 
L 352.918258 -156.088937 
L 353.693905 -156.085521 
L 354.469551 -156.082198 
L 355.245198 -156.078966 
L 356.020844 -156.075822 
L 356.79649 -156.072764 
L 357.572137 -156.06979 
L 358.347783 -156.066897 
L 359.123429 -156.064083 
L 359.899076 -156.061347 
L 360.674722 -156.058685 
L 361.450369 -156.056095 
L 362.226015 -156.053577 
L 363.001661 -156.051128 
L 363.777308 -156.048745 
L 364.552954 -156.046428 
L 365.3286 -156.044174 
L 366.104247 -156.041981 
L 366.879893 -156.039849 
L 367.65554 -156.037775 
L 368.431186 -156.035758 
L 369.206832 -156.033795 
L 369.982479 -156.031887 
L 370.758125 -156.03003 
L 371.533771 -156.028225 
L 372.309418 -156.026469 
L 373.085064 -156.02476 
L 373.86071 -156.023099 
L 374.636357 -156.021483 
L 375.412003 -156.019911 
L 376.18765 -156.018382 
L 376.963296 -156.016895 
L 377.738942 -156.015449 
L 378.514589 -156.014042 
L 379.290235 -156.012673 
L 380.065881 -156.011342 
L 380.841528 -156.010048 
L 381.617174 -156.008789 
L 382.392821 -156.007564 
L 383.168467 -156.006373 
L 383.944113 -156.005214 
L 384.71976 -156.004087 
L 385.495406 -156.002991 
L 386.271052 -156.001925 
L 387.046699 -156.000887 
L 387.822345 -155.999879 
L 388.597992 -155.998898 
L 389.373638 -155.997943 
L 390.149284 -155.997015 
L 390.924931 -155.996112 
L 391.700577 -155.995234 
L 392.476223 -155.99438 
L 393.25187 -155.993549 
L 394.027516 -155.992741 
L 394.803163 -155.991955 
L 395.578809 -155.991191 
L 396.354455 -155.990447 
L 397.130102 -155.989724 
L 397.905748 -155.989021 
L 398.681394 -155.988337 
L 399.457041 -155.987671 
L 400.232687 -155.987024 
L 401.008334 -155.986394 
L 401.78398 -155.985782 
L 402.559626 -155.985186 
L 403.335273 -155.984607 
L 404.110919 -155.984043 
L 404.886565 -155.983495 
L 405.662212 -155.982962 
L 406.437858 -155.982444 
L 407.213504 -155.981939 
L 407.989151 -155.981449 
L 408.764797 -155.980972 
L 409.540444 -155.980508 
L 410.31609 -155.980056 
L 411.091736 -155.979617 
L 411.867383 -155.97919 
L 412.643029 -155.978775 
L 413.418675 -155.978371 
L 414.194322 -155.977978 
L 414.969968 -155.977596 
L 415.745615 -155.977224 
L 416.521261 -155.976862 
L 417.296907 -155.97651 
L 418.072554 -155.976168 
L 418.8482 -155.975836 
L 419.623846 -155.975512 
L 420.399493 -155.975197 
L 421.175139 -155.974891 
L 421.950786 -155.974593 
L 422.726432 -155.974303 
L 423.502078 -155.974022 
L 424.277725 -155.973748 
L 425.053371 -155.973481 
L 425.829017 -155.973222 
L 426.604664 -155.97297 
L 427.38031 -155.972724 
L 428.155957 -155.972486 
L 428.931603 -155.972254 
L 429.707249 -155.972028 
L 430.482896 -155.971809 
L 431.258542 -155.971595 
L 432.034188 -155.971387 
L 432.809835 -155.971185 
L 433.585481 -155.970989 
L 434.361128 -155.970798 
L 435.136774 -155.970612 
L 435.91242 -155.970431 
L 436.688067 -155.970255 
L 437.463713 -155.970084 
L 438.239359 -155.969918 
L 439.015006 -155.969756 
L 439.790652 -155.969599 
L 440.566298 -155.969445 
L 441.341945 -155.969297 
L 442.117591 -155.969152 
L 442.893238 -155.969011 
L 443.668884 -155.968874 
L 444.44453 -155.968741 
L 445.220177 -155.968611 
L 445.995823 -155.968485 
L 446.771469 -155.968362 
L 447.547116 -155.968243 
L 448.322762 -155.968127 
L 449.098409 -155.968014 
L 449.874055 -155.967904 
L 450.649701 -155.967798 
L 451.425348 -155.967694 
L 452.200994 -155.967593 
L 452.97664 -155.967494 
L 453.752287 -155.967399 
L 454.527933 -155.967306 
L 455.30358 -155.967216 
L 456.079226 -155.967128 
L 456.854872 -155.967042 
L 457.630519 -155.966959 
L 458.406165 -155.966878 
L 459.181811 -155.966799 
L 459.957458 -155.966723 
L 460.733104 -155.966648 
L 461.508751 -155.966576 
L 462.284397 -155.966505 
L 463.060043 -155.966437 
L 463.83569 -155.96637 
L 464.611336 -155.966305 
L 465.386982 -155.966242 
L 466.162629 -155.966181 
L 466.938275 -155.966121 
L 467.713921 -155.966063 
L 468.489568 -155.966007 
L 469.265214 -155.965952 
L 470.040861 -155.965899 
L 470.816507 -155.965847 
L 471.592153 -155.965796 
L 472.3678 -155.965747 
L 473.143446 -155.965699 
L 473.919092 -155.965653 
L 474.694739 -155.965608 
L 475.470385 -155.965564 
L 476.246032 -155.965521 
L 477.021678 -155.965479 
L 477.797324 -155.965439 
L 478.572971 -155.9654 
L 479.348617 -155.965361 
L 480.124263 -155.965324 
L 480.89991 -155.965288 
L 481.675556 -155.965253 
L 482.451203 -155.965218 
L 483.226849 -155.965185 
L 484.002495 -155.965153 
L 484.778142 -155.965121 
L 485.553788 -155.965091 
L 486.329434 -155.965061 
L 487.105081 -155.965032 
L 487.880727 -155.965004 
L 488.656374 -155.964976 
L 489.43202 -155.964949 
L 490.207666 -155.964923 
L 490.983313 -155.964898 
L 491.758959 -155.964874 
L 492.534605 -155.96485 
L 493.310252 -155.964826 
L 494.085898 -155.964804 
L 494.861545 -155.964782 
L 495.637191 -155.964761 
L 496.412837 -155.96474 
L 497.188484 -155.964719 
L 497.96413 -155.9647 
L 498.739776 -155.964681 
L 499.515423 -155.964662 
L 500.291069 -155.964644 
L 501.066715 -155.964626 
L 501.842362 -155.964609 
L 502.618008 -155.964593 
L 503.393655 -155.964576 
L 504.169301 -155.964561 
L 504.944947 -155.964545 
L 505.720594 -155.96453 
L 506.49624 -155.964516 
L 507.271886 -155.964502 
L 508.047533 -155.964488 
L 508.823179 -155.964475 
L 509.598826 -155.964462 
L 510.374472 -155.964449 
L 511.150118 -155.964437 
L 511.925765 -155.964425 
L 512.701411 -155.964413 
L 513.477057 -155.964402 
L 514.252704 -155.964391 
L 515.02835 -155.96438 
L 515.803997 -155.96437 
L 516.579643 -155.96436 
L 517.355289 -155.96435 
L 518.130936 -155.96434 
L 518.906582 -155.964331 
L 519.682228 -155.964322 
L 520.457875 -155.964313 
L 521.233521 -155.964305 
L 522.009168 -155.964296 
L 522.784814 -155.964288 
L 523.56046 -155.96428 
L 524.336107 -155.964273 
L 525.111753 -155.964265 
L 525.887399 -155.964258 
L 526.663046 -155.964251 
L 527.438692 -155.964244 
L 528.214339 -155.964237 
L 528.989985 -155.964231 
L 529.765631 -155.964225 
L 530.541278 -155.964218 
L 531.316924 -155.964212 
L 532.09257 -155.964207 
L 532.868217 -155.964201 
L 533.643863 -155.964195 
L 534.419509 -155.96419 
L 535.195156 -155.964185 
L 535.970802 -155.96418 
L 536.746449 -155.964175 
L 537.522095 -155.96417 
L 538.297741 -155.964166 
L 539.073388 -155.964161 
L 539.849034 -155.964157 
L 540.62468 -155.964152 
L 541.400327 -155.964148 
L 542.175973 -155.964144 
L 542.95162 -155.96414 
L 543.727266 -155.964136 
L 544.502912 -155.964133 
L 545.278559 -155.964129 
L 546.054205 -155.964125 
L 546.829851 -155.964122 
L 547.605498 -155.964119 
L 548.381144 -155.964115 
L 549.156791 -155.964112 
L 549.932437 -155.964109 
L 550.708083 -155.964106 
L 551.48373 -155.964103 
L 552.259376 -155.9641 
L 553.035022 -155.964098 
L 553.810669 -155.964095 
L 554.586315 -155.964092 
L 555.361962 -155.96409 
L 556.137608 -155.964087 
L 556.913254 -155.964085 
L 557.688901 -155.964083 
L 558.464547 -155.96408 
L 559.240193 -155.964078 
L 560.01584 -155.964076 
L 560.791486 -155.964074 
L 561.567133 -155.964072 
L 562.342779 -155.96407 
L 563.118425 -155.964068 
L 563.894072 -155.964066 
L 564.669718 -155.964064 
L 565.445364 -155.964063 
L 566.221011 -155.964061 
L 566.996657 -155.964059 
L 567.772303 -155.964058 
L 568.54795 -155.964056 
L 569.323596 -155.964055 
L 570.099243 -155.964053 
L 570.874889 -155.964052 
L 571.650535 -155.96405 
L 572.426182 -155.964049 
L 573.201828 -155.964048 
L 573.977474 -155.964046 
L 574.753121 -155.964045 
L 575.528767 -155.964044 
L 576.304414 -155.964043 
L 577.08006 -155.964041 
L 577.855706 -155.96404 
L 578.631353 -155.964039 
L 579.406999 -155.964038 
L 580.182645 -155.964037 
L 580.958292 -155.964036 
L 581.733938 -155.964035 
L 582.509585 -155.964034 
L 583.285231 -155.964033 
L 584.060877 -155.964032 
L 584.836524 -155.964031 
L 585.61217 -155.964031 
L 586.387816 -155.96403 
L 587.163463 -155.964029 
L 587.939109 -155.964028 
L 588.714756 -155.964027 
L 589.490402 -155.964027 
L 590.266048 -155.964026 
L 591.041695 -155.964025 
L 591.817341 -155.964024 
L 592.592987 -155.964024 
L 593.368634 -155.964023 
L 594.14428 -155.964022 
L 594.919927 -155.964022 
L 595.695573 -155.964021 
L 596.471219 -155.964021 
L 597.246866 -155.96402 
L 598.022512 -155.96402 
L 598.798158 -155.964019 
L 599.573805 -155.964019 
L 600.349451 -155.964018 
L 601.125097 -155.964018 
L 601.900744 -155.964017 
L 602.67639 -155.964017 
L 603.452037 -155.964016 
L 604.227683 -155.964016 
L 605.003329 -155.964015 
L 605.778976 -155.964015 
L 606.554622 -155.964014 
L 607.330268 -155.964014 
L 608.105915 -155.964014 
L 608.881561 -155.964013 
L 609.657208 -155.964013 
L 610.432854 -155.964013 
L 611.2085 -155.964012 
L 611.984147 -155.964012 
L 612.759793 -155.964012 
L 613.535439 -155.964011 
L 614.311086 -155.964011 
L 615.086732 -155.964011 
L 615.862379 -155.96401 
L 616.638025 -155.96401 
L 617.413671 -155.96401 
L 618.189318 -155.96401 
L 618.964964 -155.964009 
L 619.74061 -155.964009 
L 620.516257 -155.964009 
L 621.291903 -155.964009 
L 622.06755 -155.964008 
L 622.843196 -155.964008 
L 623.618842 -155.964008 
L 624.394489 -155.964008 
L 624.394489 -156.636079 
L 624.394489 -156.636079 
L 623.618842 -156.642864 
L 622.843196 -156.649718 
L 622.06755 -156.656641 
L 621.291903 -156.663634 
L 620.516257 -156.670698 
L 619.74061 -156.677833 
L 618.964964 -156.68504 
L 618.189318 -156.69232 
L 617.413671 -156.699673 
L 616.638025 -156.707101 
L 615.862379 -156.714603 
L 615.086732 -156.722182 
L 614.311086 -156.729836 
L 613.535439 -156.737568 
L 612.759793 -156.745379 
L 611.984147 -156.753267 
L 611.2085 -156.761236 
L 610.432854 -156.769285 
L 609.657208 -156.777416 
L 608.881561 -156.785628 
L 608.105915 -156.793923 
L 607.330268 -156.802302 
L 606.554622 -156.810766 
L 605.778976 -156.819315 
L 605.003329 -156.827951 
L 604.227683 -156.836673 
L 603.452037 -156.845484 
L 602.67639 -156.854384 
L 601.900744 -156.863373 
L 601.125097 -156.872454 
L 600.349451 -156.881626 
L 599.573805 -156.89089 
L 598.798158 -156.900248 
L 598.022512 -156.909701 
L 597.246866 -156.919249 
L 596.471219 -156.928893 
L 595.695573 -156.938635 
L 594.919927 -156.948475 
L 594.14428 -156.958415 
L 593.368634 -156.968455 
L 592.592987 -156.978596 
L 591.817341 -156.988839 
L 591.041695 -156.999186 
L 590.266048 -157.009638 
L 589.490402 -157.020195 
L 588.714756 -157.030859 
L 587.939109 -157.04163 
L 587.163463 -157.05251 
L 586.387816 -157.0635 
L 585.61217 -157.0746 
L 584.836524 -157.085813 
L 584.060877 -157.097139 
L 583.285231 -157.10858 
L 582.509585 -157.120136 
L 581.733938 -157.131808 
L 580.958292 -157.143599 
L 580.182645 -157.155508 
L 579.406999 -157.167538 
L 578.631353 -157.179689 
L 577.855706 -157.191963 
L 577.08006 -157.204361 
L 576.304414 -157.216884 
L 575.528767 -157.229533 
L 574.753121 -157.242311 
L 573.977474 -157.255217 
L 573.201828 -157.268253 
L 572.426182 -157.281421 
L 571.650535 -157.294722 
L 570.874889 -157.308157 
L 570.099243 -157.321728 
L 569.323596 -157.335436 
L 568.54795 -157.349283 
L 567.772303 -157.363269 
L 566.996657 -157.377396 
L 566.221011 -157.391666 
L 565.445364 -157.40608 
L 564.669718 -157.42064 
L 563.894072 -157.435346 
L 563.118425 -157.450201 
L 562.342779 -157.465207 
L 561.567133 -157.480363 
L 560.791486 -157.495673 
L 560.01584 -157.511137 
L 559.240193 -157.526757 
L 558.464547 -157.542535 
L 557.688901 -157.558472 
L 556.913254 -157.57457 
L 556.137608 -157.590831 
L 555.361962 -157.607256 
L 554.586315 -157.623847 
L 553.810669 -157.640605 
L 553.035022 -157.657532 
L 552.259376 -157.674631 
L 551.48373 -157.691902 
L 550.708083 -157.709347 
L 549.932437 -157.726968 
L 549.156791 -157.744768 
L 548.381144 -157.762747 
L 547.605498 -157.780907 
L 546.829851 -157.799251 
L 546.054205 -157.81778 
L 545.278559 -157.836497 
L 544.502912 -157.855402 
L 543.727266 -157.874498 
L 542.95162 -157.893787 
L 542.175973 -157.91327 
L 541.400327 -157.93295 
L 540.62468 -157.952829 
L 539.849034 -157.972909 
L 539.073388 -157.993192 
L 538.297741 -158.013679 
L 537.522095 -158.034373 
L 536.746449 -158.055276 
L 535.970802 -158.07639 
L 535.195156 -158.097717 
L 534.419509 -158.11926 
L 533.643863 -158.14102 
L 532.868217 -158.162999 
L 532.09257 -158.185201 
L 531.316924 -158.207627 
L 530.541278 -158.230279 
L 529.765631 -158.25316 
L 528.989985 -158.276272 
L 528.214339 -158.299617 
L 527.438692 -158.323198 
L 526.663046 -158.347017 
L 525.887399 -158.371076 
L 525.111753 -158.395379 
L 524.336107 -158.419927 
L 523.56046 -158.444722 
L 522.784814 -158.469768 
L 522.009168 -158.495067 
L 521.233521 -158.520621 
L 520.457875 -158.546433 
L 519.682228 -158.572506 
L 518.906582 -158.598842 
L 518.130936 -158.625444 
L 517.355289 -158.652315 
L 516.579643 -158.679457 
L 515.803997 -158.706873 
L 515.02835 -158.734565 
L 514.252704 -158.762538 
L 513.477057 -158.790792 
L 512.701411 -158.819332 
L 511.925765 -158.848161 
L 511.150118 -158.87728 
L 510.374472 -158.906693 
L 509.598826 -158.936403 
L 508.823179 -158.966413 
L 508.047533 -158.996726 
L 507.271886 -159.027345 
L 506.49624 -159.058274 
L 505.720594 -159.089514 
L 504.944947 -159.12107 
L 504.169301 -159.152945 
L 503.393655 -159.185141 
L 502.618008 -159.217662 
L 501.842362 -159.250512 
L 501.066715 -159.283693 
L 500.291069 -159.31721 
L 499.515423 -159.351065 
L 498.739776 -159.385261 
L 497.96413 -159.419803 
L 497.188484 -159.454694 
L 496.412837 -159.489937 
L 495.637191 -159.525535 
L 494.861545 -159.561493 
L 494.085898 -159.597815 
L 493.310252 -159.634502 
L 492.534605 -159.671561 
L 491.758959 -159.708993 
L 490.983313 -159.746803 
L 490.207666 -159.784995 
L 489.43202 -159.823573 
L 488.656374 -159.86254 
L 487.880727 -159.901901 
L 487.105081 -159.941659 
L 486.329434 -159.981818 
L 485.553788 -160.022383 
L 484.778142 -160.063358 
L 484.002495 -160.104746 
L 483.226849 -160.146552 
L 482.451203 -160.18878 
L 481.675556 -160.231434 
L 480.89991 -160.274519 
L 480.124263 -160.318039 
L 479.348617 -160.361998 
L 478.572971 -160.406402 
L 477.797324 -160.451253 
L 477.021678 -160.496558 
L 476.246032 -160.542319 
L 475.470385 -160.588543 
L 474.694739 -160.635234 
L 473.919092 -160.682396 
L 473.143446 -160.730034 
L 472.3678 -160.778153 
L 471.592153 -160.826757 
L 470.816507 -160.875853 
L 470.040861 -160.925444 
L 469.265214 -160.975536 
L 468.489568 -161.026134 
L 467.713921 -161.077242 
L 466.938275 -161.128867 
L 466.162629 -161.181013 
L 465.386982 -161.233685 
L 464.611336 -161.286889 
L 463.83569 -161.34063 
L 463.060043 -161.394914 
L 462.284397 -161.449745 
L 461.508751 -161.505131 
L 460.733104 -161.561075 
L 459.957458 -161.617585 
L 459.181811 -161.674665 
L 458.406165 -161.732321 
L 457.630519 -161.790559 
L 456.854872 -161.849386 
L 456.079226 -161.908806 
L 455.30358 -161.968826 
L 454.527933 -162.029452 
L 453.752287 -162.090691 
L 452.97664 -162.152547 
L 452.200994 -162.215028 
L 451.425348 -162.27814 
L 450.649701 -162.341889 
L 449.874055 -162.406282 
L 449.098409 -162.471324 
L 448.322762 -162.537024 
L 447.547116 -162.603387 
L 446.771469 -162.67042 
L 445.995823 -162.738129 
L 445.220177 -162.806522 
L 444.44453 -162.875606 
L 443.668884 -162.945387 
L 442.893238 -163.015873 
L 442.117591 -163.087071 
L 441.341945 -163.158987 
L 440.566298 -163.231629 
L 439.790652 -163.305005 
L 439.015006 -163.379121 
L 438.239359 -163.453986 
L 437.463713 -163.529607 
L 436.688067 -163.605991 
L 435.91242 -163.683146 
L 435.136774 -163.761081 
L 434.361128 -163.839802 
L 433.585481 -163.919318 
L 432.809835 -163.999637 
L 432.034188 -164.080766 
L 431.258542 -164.162715 
L 430.482896 -164.245491 
L 429.707249 -164.329103 
L 428.931603 -164.413559 
L 428.155957 -164.498868 
L 427.38031 -164.585038 
L 426.604664 -164.672078 
L 425.829017 -164.759997 
L 425.053371 -164.848803 
L 424.277725 -164.938507 
L 423.502078 -165.029115 
L 422.726432 -165.120639 
L 421.950786 -165.213086 
L 421.175139 -165.306467 
L 420.399493 -165.400791 
L 419.623846 -165.496067 
L 418.8482 -165.592305 
L 418.072554 -165.689515 
L 417.296907 -165.787706 
L 416.521261 -165.886889 
L 415.745615 -165.987072 
L 414.969968 -166.088268 
L 414.194322 -166.190485 
L 413.418675 -166.293734 
L 412.643029 -166.398025 
L 411.867383 -166.50337 
L 411.091736 -166.609778 
L 410.31609 -166.71726 
L 409.540444 -166.825827 
L 408.764797 -166.935491 
L 407.989151 -167.046262 
L 407.213504 -167.158151 
L 406.437858 -167.27117 
L 405.662212 -167.38533 
L 404.886565 -167.500642 
L 404.110919 -167.617119 
L 403.335273 -167.734771 
L 402.559626 -167.853612 
L 401.78398 -167.973652 
L 401.008334 -168.094905 
L 400.232687 -168.217381 
L 399.457041 -168.341094 
L 398.681394 -168.466056 
L 397.905748 -168.59228 
L 397.130102 -168.719778 
L 396.354455 -168.848563 
L 395.578809 -168.978649 
L 394.803163 -169.110048 
L 394.027516 -169.242774 
L 393.25187 -169.376839 
L 392.476223 -169.512258 
L 391.700577 -169.649045 
L 390.924931 -169.787212 
L 390.149284 -169.926775 
L 389.373638 -170.067746 
L 388.597992 -170.210141 
L 387.822345 -170.353974 
L 387.046699 -170.499258 
L 386.271052 -170.64601 
L 385.495406 -170.794243 
L 384.71976 -170.943972 
L 383.944113 -171.095214 
L 383.168467 -171.247982 
L 382.392821 -171.402293 
L 381.617174 -171.558161 
L 380.841528 -171.715604 
L 380.065881 -171.874636 
L 379.290235 -172.035273 
L 378.514589 -172.197533 
L 377.738942 -172.36143 
L 376.963296 -172.526983 
L 376.18765 -172.694206 
L 375.412003 -172.863119 
L 374.636357 -173.033736 
L 373.86071 -173.206076 
L 373.085064 -173.380156 
L 372.309418 -173.555994 
L 371.533771 -173.733607 
L 370.758125 -173.913013 
L 369.982479 -174.094231 
L 369.206832 -174.277278 
L 368.431186 -174.462173 
L 367.65554 -174.648935 
L 366.879893 -174.837582 
L 366.104247 -175.028135 
L 365.3286 -175.220611 
L 364.552954 -175.41503 
L 363.777308 -175.611412 
L 363.001661 -175.809777 
L 362.226015 -176.010145 
L 361.450369 -176.212535 
L 360.674722 -176.416969 
L 359.899076 -176.623468 
L 359.123429 -176.83205 
L 358.347783 -177.042739 
L 357.572137 -177.255555 
L 356.79649 -177.47052 
L 356.020844 -177.687655 
L 355.245198 -177.906982 
L 354.469551 -178.128523 
L 353.693905 -178.352302 
L 352.918258 -178.578339 
L 352.142612 -178.806659 
L 351.366966 -179.037284 
L 350.591319 -179.270237 
L 349.815673 -179.505543 
L 349.040027 -179.743224 
L 348.26438 -179.983304 
L 347.488734 -180.225809 
L 346.713087 -180.470762 
L 345.937441 -180.718188 
L 345.161795 -180.968112 
L 344.386148 -181.22056 
L 343.610502 -181.475556 
L 342.834856 -181.733127 
L 342.059209 -181.993298 
L 341.283563 -182.256096 
L 340.507916 -182.521547 
L 339.73227 -182.789679 
L 338.956624 -183.060517 
L 338.180977 -183.33409 
L 337.405331 -183.610425 
L 336.629685 -183.88955 
L 335.854038 -184.171493 
L 335.078392 -184.456282 
L 334.302746 -184.743947 
L 333.527099 -185.034516 
L 332.751453 -185.328019 
L 331.975806 -185.624485 
L 331.20016 -185.923945 
L 330.424514 -186.226427 
L 329.648867 -186.531964 
L 328.873221 -186.840585 
L 328.097575 -187.152323 
L 327.321928 -187.467207 
L 326.546282 -187.785271 
L 325.770635 -188.106546 
L 324.994989 -188.431065 
L 324.219343 -188.75886 
L 323.443696 -189.089965 
L 322.66805 -189.424413 
L 321.892404 -189.762237 
L 321.116757 -190.103472 
L 320.341111 -190.448152 
L 319.565464 -190.796312 
L 318.789818 -191.147988 
L 318.014172 -191.503214 
L 317.238525 -191.862026 
L 316.462879 -192.224461 
L 315.687233 -192.590555 
L 314.911586 -192.960346 
L 314.13594 -193.33387 
L 313.360293 -193.711165 
L 312.584647 -194.092269 
L 311.809001 -194.477221 
L 311.033354 -194.86606 
L 310.257708 -195.258824 
L 309.482062 -195.655554 
L 308.706415 -196.056289 
L 307.930769 -196.461071 
L 307.155122 -196.869939 
L 306.379476 -197.282935 
L 305.60383 -197.700101 
L 304.828183 -198.121478 
L 304.052537 -198.54711 
L 303.276891 -198.977039 
L 302.501244 -199.411309 
L 301.725598 -199.849963 
L 300.949952 -200.293046 
L 300.174305 -200.740603 
L 299.398659 -201.192678 
L 298.623012 -201.649318 
L 297.847366 -202.110567 
L 297.07172 -202.576474 
L 296.296073 -203.047085 
L 295.520427 -203.522447 
L 294.744781 -204.002608 
L 293.969134 -204.487617 
L 293.193488 -204.977523 
L 292.417841 -205.472375 
L 291.642195 -205.972223 
L 290.866549 -206.477118 
L 290.090902 -206.98711 
L 289.315256 -207.502252 
L 288.53961 -208.022594 
L 287.763963 -208.54819 
L 286.988317 -209.079092 
L 286.21267 -209.615355 
L 285.437024 -210.157031 
L 284.661378 -210.704177 
L 283.885731 -211.256846 
L 283.110085 -211.815096 
L 282.334439 -212.378982 
L 281.558792 -212.94856 
L 280.783146 -213.52389 
L 280.007499 -214.105028 
L 279.231853 -214.692033 
L 278.456207 -215.284965 
L 277.68056 -215.883883 
L 276.904914 -216.488848 
L 276.129268 -217.09992 
L 275.353621 -217.717162 
L 274.577975 -218.340636 
L 273.802329 -218.970405 
L 273.026682 -219.606532 
L 272.251036 -220.249081 
L 271.475389 -220.898118 
L 270.699743 -221.553707 
L 269.924097 -222.215915 
L 269.14845 -222.884809 
L 268.372804 -223.560456 
L 267.597158 -224.242924 
L 266.821511 -224.932283 
L 266.045865 -225.628602 
L 265.270218 -226.33195 
L 264.494572 -227.0424 
L 263.718926 -227.760022 
L 262.943279 -228.484889 
L 262.167633 -229.217074 
L 261.391987 -229.956652 
L 260.61634 -230.703696 
L 259.840694 -231.458282 
L 259.065047 -232.220487 
L 258.289401 -232.990386 
L 257.513755 -233.768058 
L 256.738108 -234.553582 
L 255.962462 -235.347035 
L 255.186816 -236.148499 
L 254.411169 -236.958055 
L 253.635523 -237.775783 
L 252.859876 -238.601766 
L 252.08423 -239.436088 
L 251.308584 -240.278833 
L 250.532937 -241.130086 
L 249.757291 -241.989932 
L 248.981645 -242.858458 
L 248.205998 -243.735752 
L 247.430352 -244.621903 
L 246.654705 -245.516998 
L 245.879059 -246.42113 
L 245.103413 -247.334388 
L 244.327766 -248.256865 
L 243.55212 -249.188654 
L 242.776474 -250.129848 
L 242.000827 -251.080543 
L 241.225181 -252.040833 
L 240.449535 -253.010817 
L 239.673888 -253.990591 
L 238.898242 -254.980253 
L 238.122595 -255.979904 
L 237.346949 -256.989645 
L 236.571303 -258.009575 
L 235.795656 -259.039799 
L 235.02001 -260.08042 
L 234.244364 -261.131541 
L 233.468717 -262.193269 
L 232.693071 -263.265711 
L 231.917424 -264.348973 
L 231.141778 -265.443165 
L 230.366132 -266.548395 
L 229.590485 -267.664776 
L 228.814839 -268.792418 
L 228.039193 -269.931435 
L 227.263546 -271.08194 
L 226.4879 -272.244048 
L 225.712253 -273.417876 
L 224.936607 -274.60354 
L 224.160961 -275.801158 
L 223.385314 -277.01085 
L 222.609668 -278.232736 
L 221.834022 -279.466938 
L 221.058375 -280.713577 
L 220.282729 -281.972777 
L 219.507082 -283.244663 
L 218.731436 -284.52936 
L 217.95579 -285.826996 
L 217.180143 -287.137697 
L 216.404497 -288.461592 
L 215.628851 -289.798811 
L 214.853204 -291.149484 
L 214.077558 -292.513744 
L 213.301911 -293.891722 
L 212.526265 -295.283553 
L 211.750619 -296.68937 
L 210.974972 -298.109309 
L 210.199326 -299.543506 
L 209.42368 -300.992097 
L 208.648033 -302.455221 
L 207.872387 -303.933015 
L 207.096741 -305.425619 
L 206.321094 -306.933171 
L 205.545448 -308.455812 
L 204.769801 -309.993681 
L 203.994155 -311.54692 
L 203.218509 -313.11567 
L 202.442862 -314.700071 
L 201.667216 -316.300264 
L 200.89157 -317.916391 
L 200.115923 -319.548591 
L 199.340277 -321.197005 
L 198.56463 -322.861772 
L 197.788984 -324.543031 
L 197.013338 -326.24092 
L 196.237691 -327.955576 
L 195.462045 -329.687132 
L 194.686399 -331.435723 
L 193.910752 -333.20148 
L 193.135106 -334.984531 
L 192.359459 -336.785003 
L 191.583813 -338.603017 
L 190.808167 -340.438695 
L 190.03252 -342.29215 
L 189.256874 -344.163493 
L 188.481228 -346.05283 
L 187.705581 -347.960261 
L 186.929935 -349.885878 
L 186.154288 -351.829767 
L 185.378642 -353.792007 
L 184.602996 -355.772666 
L 183.827349 -357.771804 
L 183.051703 -359.789468 
L 182.276057 -361.825695 
L 181.50041 -363.880507 
L 180.724764 -365.953912 
L 179.949117 -368.045902 
L 179.173471 -370.156449 
L 178.397825 -372.285507 
L 177.622178 -374.433009 
L 176.846532 -376.598862 
L 176.070886 -378.782949 
L 175.295239 -380.985121 
L 174.519593 -383.2052 
L 173.743947 -385.442972 
L 172.9683 -387.698185 
L 172.192654 -389.970547 
L 171.417007 -392.259717 
L 170.641361 -394.565307 
L 169.865715 -396.886871 
L 169.090068 -399.223905 
L 168.314422 -401.57584 
L 167.538776 -403.942032 
L 166.763129 -406.321761 
L 165.987483 -408.714219 
L 165.211836 -411.118506 
L 164.43619 -413.533617 
L 163.660544 -415.958435 
L 162.884897 -418.391719 
L 162.109251 -420.832097 
L 161.333605 -423.278046 
L 160.557958 -425.727883 
L 159.782312 -428.179753 
L 159.006665 -430.631605 
L 158.231019 -433.081181 
L 157.455373 -435.525994 
L 156.679726 -437.963307 
L 155.90408 -440.390111 
L 155.128434 -442.803097 
L 154.352787 -445.198633 
L 153.577141 -447.57273 
L 152.801494 -449.921014 
L 152.025848 -452.238686 
L 151.250202 -454.520483 
L 150.474555 -456.76064 
L 149.698909 -458.95284 
L 148.923263 -461.090166 
L 148.147616 -463.165043 
L 147.37197 -465.16918 
L 146.596323 -467.093505 
L 145.820677 -468.92809 
L 145.045031 -470.662078 
L 144.269384 -472.283594 
L 143.493738 -473.779652 
L 142.718092 -475.136057 
L 141.942445 -476.337289 
L 141.166799 -477.366389 
L 140.391153 -478.204819 
L 139.615506 -478.832325 
L 138.83986 -479.226778 
L 138.064213 -479.364 
L 137.288567 -479.217582 
L 136.512921 -478.997016 
L 135.737274 -479.321635 
L 134.961628 -479.319959 
L 134.185982 -478.951708 
L 133.410335 -479.157795 
L 132.634689 -479.364 
L 131.859042 -479.137148 
L 131.083396 -478.787453 
L 130.30775 -479.296025 
L 129.532103 -479.291759 
L 128.756457 -478.671944 
L 127.980811 -479.011261 
L 127.205164 -479.364 
L 126.429518 -478.948562 
L 125.653871 -477.552441 
L 124.878225 -474.906665 
L 124.102579 -470.670811 
L 123.326932 -464.414048 
L 122.551286 -455.591155 
L 121.77564 -443.512162 
L 120.999993 -427.303954 
L 120.224347 -405.861677 
L 119.4487 -377.787253 
L 118.673054 -341.311586 
L 117.897408 -294.196126 
L 117.121761 -233.608317 
z
" style="stroke: #73c476; stroke-opacity: 0.3"/>
    </defs>
    <g clip-path="url(#p43bcf8b3cf)">
     <use xlink:href="#md8af8937ea" x="0" y="518.904" style="fill: #73c476; fill-opacity: 0.3; stroke: #73c476; stroke-opacity: 0.3"/>
    </g>
   </g>
   <g id="matplotlib.axis_1">
    <g id="xtick_1">
     <g id="line2d_1">
      <defs>
       <path id="m29463aefbc" d="M 0 0 
L 0 3.5 
" style="stroke: #000000; stroke-width: 0.8"/>
      </defs>
      <g>
       <use xlink:href="#m29463aefbc" x="116.346115" y="395.28" style="stroke: #000000; stroke-width: 0.8"/>
      </g>
     </g>
     <g id="text_1">
      <!-- 0 -->
      <g transform="translate(109.983615 417.476875) scale(0.2 -0.2)">
       <defs>
        <path id="DejaVuSans-30" d="M 2034 4250 
Q 1547 4250 1301 3770 
Q 1056 3291 1056 2328 
Q 1056 1369 1301 889 
Q 1547 409 2034 409 
Q 2525 409 2770 889 
Q 3016 1369 3016 2328 
Q 3016 3291 2770 3770 
Q 2525 4250 2034 4250 
z
M 2034 4750 
Q 2819 4750 3233 4129 
Q 3647 3509 3647 2328 
Q 3647 1150 3233 529 
Q 2819 -91 2034 -91 
Q 1250 -91 836 529 
Q 422 1150 422 2328 
Q 422 3509 836 4129 
Q 1250 4750 2034 4750 
z
" transform="scale(0.015625)"/>
       </defs>
       <use xlink:href="#DejaVuSans-30"/>
      </g>
     </g>
    </g>
    <g id="xtick_2">
     <g id="line2d_2">
      <g>
       <use xlink:href="#m29463aefbc" x="193.910752" y="395.28" style="stroke: #000000; stroke-width: 0.8"/>
      </g>
     </g>
     <g id="text_2">
      <!-- 100 -->
      <g transform="translate(174.823252 417.476875) scale(0.2 -0.2)">
       <defs>
        <path id="DejaVuSans-31" d="M 794 531 
L 1825 531 
L 1825 4091 
L 703 3866 
L 703 4441 
L 1819 4666 
L 2450 4666 
L 2450 531 
L 3481 531 
L 3481 0 
L 794 0 
L 794 531 
z
" transform="scale(0.015625)"/>
       </defs>
       <use xlink:href="#DejaVuSans-31"/>
       <use xlink:href="#DejaVuSans-30" x="63.623047"/>
       <use xlink:href="#DejaVuSans-30" x="127.246094"/>
      </g>
     </g>
    </g>
    <g id="xtick_3">
     <g id="line2d_3">
      <g>
       <use xlink:href="#m29463aefbc" x="271.475389" y="395.28" style="stroke: #000000; stroke-width: 0.8"/>
      </g>
     </g>
     <g id="text_3">
      <!-- 200 -->
      <g transform="translate(252.387889 417.476875) scale(0.2 -0.2)">
       <defs>
        <path id="DejaVuSans-32" d="M 1228 531 
L 3431 531 
L 3431 0 
L 469 0 
L 469 531 
Q 828 903 1448 1529 
Q 2069 2156 2228 2338 
Q 2531 2678 2651 2914 
Q 2772 3150 2772 3378 
Q 2772 3750 2511 3984 
Q 2250 4219 1831 4219 
Q 1534 4219 1204 4116 
Q 875 4013 500 3803 
L 500 4441 
Q 881 4594 1212 4672 
Q 1544 4750 1819 4750 
Q 2544 4750 2975 4387 
Q 3406 4025 3406 3419 
Q 3406 3131 3298 2873 
Q 3191 2616 2906 2266 
Q 2828 2175 2409 1742 
Q 1991 1309 1228 531 
z
" transform="scale(0.015625)"/>
       </defs>
       <use xlink:href="#DejaVuSans-32"/>
       <use xlink:href="#DejaVuSans-30" x="63.623047"/>
       <use xlink:href="#DejaVuSans-30" x="127.246094"/>
      </g>
     </g>
    </g>
    <g id="xtick_4">
     <g id="line2d_4">
      <g>
       <use xlink:href="#m29463aefbc" x="349.040027" y="395.28" style="stroke: #000000; stroke-width: 0.8"/>
      </g>
     </g>
     <g id="text_4">
      <!-- 300 -->
      <g transform="translate(329.952527 417.476875) scale(0.2 -0.2)">
       <defs>
        <path id="DejaVuSans-33" d="M 2597 2516 
Q 3050 2419 3304 2112 
Q 3559 1806 3559 1356 
Q 3559 666 3084 287 
Q 2609 -91 1734 -91 
Q 1441 -91 1130 -33 
Q 819 25 488 141 
L 488 750 
Q 750 597 1062 519 
Q 1375 441 1716 441 
Q 2309 441 2620 675 
Q 2931 909 2931 1356 
Q 2931 1769 2642 2001 
Q 2353 2234 1838 2234 
L 1294 2234 
L 1294 2753 
L 1863 2753 
Q 2328 2753 2575 2939 
Q 2822 3125 2822 3475 
Q 2822 3834 2567 4026 
Q 2313 4219 1838 4219 
Q 1578 4219 1281 4162 
Q 984 4106 628 3988 
L 628 4550 
Q 988 4650 1302 4700 
Q 1616 4750 1894 4750 
Q 2613 4750 3031 4423 
Q 3450 4097 3450 3541 
Q 3450 3153 3228 2886 
Q 3006 2619 2597 2516 
z
" transform="scale(0.015625)"/>
       </defs>
       <use xlink:href="#DejaVuSans-33"/>
       <use xlink:href="#DejaVuSans-30" x="63.623047"/>
       <use xlink:href="#DejaVuSans-30" x="127.246094"/>
      </g>
     </g>
    </g>
    <g id="xtick_5">
     <g id="line2d_5">
      <g>
       <use xlink:href="#m29463aefbc" x="426.604664" y="395.28" style="stroke: #000000; stroke-width: 0.8"/>
      </g>
     </g>
     <g id="text_5">
      <!-- 400 -->
      <g transform="translate(407.517164 417.476875) scale(0.2 -0.2)">
       <defs>
        <path id="DejaVuSans-34" d="M 2419 4116 
L 825 1625 
L 2419 1625 
L 2419 4116 
z
M 2253 4666 
L 3047 4666 
L 3047 1625 
L 3713 1625 
L 3713 1100 
L 3047 1100 
L 3047 0 
L 2419 0 
L 2419 1100 
L 313 1100 
L 313 1709 
L 2253 4666 
z
" transform="scale(0.015625)"/>
       </defs>
       <use xlink:href="#DejaVuSans-34"/>
       <use xlink:href="#DejaVuSans-30" x="63.623047"/>
       <use xlink:href="#DejaVuSans-30" x="127.246094"/>
      </g>
     </g>
    </g>
    <g id="xtick_6">
     <g id="line2d_6">
      <g>
       <use xlink:href="#m29463aefbc" x="504.169301" y="395.28" style="stroke: #000000; stroke-width: 0.8"/>
      </g>
     </g>
     <g id="text_6">
      <!-- 500 -->
      <g transform="translate(485.081801 417.476875) scale(0.2 -0.2)">
       <defs>
        <path id="DejaVuSans-35" d="M 691 4666 
L 3169 4666 
L 3169 4134 
L 1269 4134 
L 1269 2991 
Q 1406 3038 1543 3061 
Q 1681 3084 1819 3084 
Q 2600 3084 3056 2656 
Q 3513 2228 3513 1497 
Q 3513 744 3044 326 
Q 2575 -91 1722 -91 
Q 1428 -91 1123 -41 
Q 819 9 494 109 
L 494 744 
Q 775 591 1075 516 
Q 1375 441 1709 441 
Q 2250 441 2565 725 
Q 2881 1009 2881 1497 
Q 2881 1984 2565 2268 
Q 2250 2553 1709 2553 
Q 1456 2553 1204 2497 
Q 953 2441 691 2322 
L 691 4666 
z
" transform="scale(0.015625)"/>
       </defs>
       <use xlink:href="#DejaVuSans-35"/>
       <use xlink:href="#DejaVuSans-30" x="63.623047"/>
       <use xlink:href="#DejaVuSans-30" x="127.246094"/>
      </g>
     </g>
    </g>
    <g id="xtick_7">
     <g id="line2d_7">
      <g>
       <use xlink:href="#m29463aefbc" x="581.733938" y="395.28" style="stroke: #000000; stroke-width: 0.8"/>
      </g>
     </g>
     <g id="text_7">
      <!-- 600 -->
      <g transform="translate(562.646438 417.476875) scale(0.2 -0.2)">
       <defs>
        <path id="DejaVuSans-36" d="M 2113 2584 
Q 1688 2584 1439 2293 
Q 1191 2003 1191 1497 
Q 1191 994 1439 701 
Q 1688 409 2113 409 
Q 2538 409 2786 701 
Q 3034 994 3034 1497 
Q 3034 2003 2786 2293 
Q 2538 2584 2113 2584 
z
M 3366 4563 
L 3366 3988 
Q 3128 4100 2886 4159 
Q 2644 4219 2406 4219 
Q 1781 4219 1451 3797 
Q 1122 3375 1075 2522 
Q 1259 2794 1537 2939 
Q 1816 3084 2150 3084 
Q 2853 3084 3261 2657 
Q 3669 2231 3669 1497 
Q 3669 778 3244 343 
Q 2819 -91 2113 -91 
Q 1303 -91 875 529 
Q 447 1150 447 2328 
Q 447 3434 972 4092 
Q 1497 4750 2381 4750 
Q 2619 4750 2861 4703 
Q 3103 4656 3366 4563 
z
" transform="scale(0.015625)"/>
       </defs>
       <use xlink:href="#DejaVuSans-36"/>
       <use xlink:href="#DejaVuSans-30" x="63.623047"/>
       <use xlink:href="#DejaVuSans-30" x="127.246094"/>
      </g>
     </g>
    </g>
    <g id="text_8">
     <!-- Days since antigen exposure -->
     <g transform="translate(226.337813 440.833125) scale(0.2 -0.2)">
      <defs>
       <path id="DejaVuSans-44" d="M 1259 4147 
L 1259 519 
L 2022 519 
Q 2988 519 3436 956 
Q 3884 1394 3884 2338 
Q 3884 3275 3436 3711 
Q 2988 4147 2022 4147 
L 1259 4147 
z
M 628 4666 
L 1925 4666 
Q 3281 4666 3915 4102 
Q 4550 3538 4550 2338 
Q 4550 1131 3912 565 
Q 3275 0 1925 0 
L 628 0 
L 628 4666 
z
" transform="scale(0.015625)"/>
       <path id="DejaVuSans-61" d="M 2194 1759 
Q 1497 1759 1228 1600 
Q 959 1441 959 1056 
Q 959 750 1161 570 
Q 1363 391 1709 391 
Q 2188 391 2477 730 
Q 2766 1069 2766 1631 
L 2766 1759 
L 2194 1759 
z
M 3341 1997 
L 3341 0 
L 2766 0 
L 2766 531 
Q 2569 213 2275 61 
Q 1981 -91 1556 -91 
Q 1019 -91 701 211 
Q 384 513 384 1019 
Q 384 1609 779 1909 
Q 1175 2209 1959 2209 
L 2766 2209 
L 2766 2266 
Q 2766 2663 2505 2880 
Q 2244 3097 1772 3097 
Q 1472 3097 1187 3025 
Q 903 2953 641 2809 
L 641 3341 
Q 956 3463 1253 3523 
Q 1550 3584 1831 3584 
Q 2591 3584 2966 3190 
Q 3341 2797 3341 1997 
z
" transform="scale(0.015625)"/>
       <path id="DejaVuSans-79" d="M 2059 -325 
Q 1816 -950 1584 -1140 
Q 1353 -1331 966 -1331 
L 506 -1331 
L 506 -850 
L 844 -850 
Q 1081 -850 1212 -737 
Q 1344 -625 1503 -206 
L 1606 56 
L 191 3500 
L 800 3500 
L 1894 763 
L 2988 3500 
L 3597 3500 
L 2059 -325 
z
" transform="scale(0.015625)"/>
       <path id="DejaVuSans-73" d="M 2834 3397 
L 2834 2853 
Q 2591 2978 2328 3040 
Q 2066 3103 1784 3103 
Q 1356 3103 1142 2972 
Q 928 2841 928 2578 
Q 928 2378 1081 2264 
Q 1234 2150 1697 2047 
L 1894 2003 
Q 2506 1872 2764 1633 
Q 3022 1394 3022 966 
Q 3022 478 2636 193 
Q 2250 -91 1575 -91 
Q 1294 -91 989 -36 
Q 684 19 347 128 
L 347 722 
Q 666 556 975 473 
Q 1284 391 1588 391 
Q 1994 391 2212 530 
Q 2431 669 2431 922 
Q 2431 1156 2273 1281 
Q 2116 1406 1581 1522 
L 1381 1569 
Q 847 1681 609 1914 
Q 372 2147 372 2553 
Q 372 3047 722 3315 
Q 1072 3584 1716 3584 
Q 2034 3584 2315 3537 
Q 2597 3491 2834 3397 
z
" transform="scale(0.015625)"/>
       <path id="DejaVuSans-20" transform="scale(0.015625)"/>
       <path id="DejaVuSans-69" d="M 603 3500 
L 1178 3500 
L 1178 0 
L 603 0 
L 603 3500 
z
M 603 4863 
L 1178 4863 
L 1178 4134 
L 603 4134 
L 603 4863 
z
" transform="scale(0.015625)"/>
       <path id="DejaVuSans-6e" d="M 3513 2113 
L 3513 0 
L 2938 0 
L 2938 2094 
Q 2938 2591 2744 2837 
Q 2550 3084 2163 3084 
Q 1697 3084 1428 2787 
Q 1159 2491 1159 1978 
L 1159 0 
L 581 0 
L 581 3500 
L 1159 3500 
L 1159 2956 
Q 1366 3272 1645 3428 
Q 1925 3584 2291 3584 
Q 2894 3584 3203 3211 
Q 3513 2838 3513 2113 
z
" transform="scale(0.015625)"/>
       <path id="DejaVuSans-63" d="M 3122 3366 
L 3122 2828 
Q 2878 2963 2633 3030 
Q 2388 3097 2138 3097 
Q 1578 3097 1268 2742 
Q 959 2388 959 1747 
Q 959 1106 1268 751 
Q 1578 397 2138 397 
Q 2388 397 2633 464 
Q 2878 531 3122 666 
L 3122 134 
Q 2881 22 2623 -34 
Q 2366 -91 2075 -91 
Q 1284 -91 818 406 
Q 353 903 353 1747 
Q 353 2603 823 3093 
Q 1294 3584 2113 3584 
Q 2378 3584 2631 3529 
Q 2884 3475 3122 3366 
z
" transform="scale(0.015625)"/>
       <path id="DejaVuSans-65" d="M 3597 1894 
L 3597 1613 
L 953 1613 
Q 991 1019 1311 708 
Q 1631 397 2203 397 
Q 2534 397 2845 478 
Q 3156 559 3463 722 
L 3463 178 
Q 3153 47 2828 -22 
Q 2503 -91 2169 -91 
Q 1331 -91 842 396 
Q 353 884 353 1716 
Q 353 2575 817 3079 
Q 1281 3584 2069 3584 
Q 2775 3584 3186 3129 
Q 3597 2675 3597 1894 
z
M 3022 2063 
Q 3016 2534 2758 2815 
Q 2500 3097 2075 3097 
Q 1594 3097 1305 2825 
Q 1016 2553 972 2059 
L 3022 2063 
z
" transform="scale(0.015625)"/>
       <path id="DejaVuSans-74" d="M 1172 4494 
L 1172 3500 
L 2356 3500 
L 2356 3053 
L 1172 3053 
L 1172 1153 
Q 1172 725 1289 603 
Q 1406 481 1766 481 
L 2356 481 
L 2356 0 
L 1766 0 
Q 1100 0 847 248 
Q 594 497 594 1153 
L 594 3053 
L 172 3053 
L 172 3500 
L 594 3500 
L 594 4494 
L 1172 4494 
z
" transform="scale(0.015625)"/>
       <path id="DejaVuSans-67" d="M 2906 1791 
Q 2906 2416 2648 2759 
Q 2391 3103 1925 3103 
Q 1463 3103 1205 2759 
Q 947 2416 947 1791 
Q 947 1169 1205 825 
Q 1463 481 1925 481 
Q 2391 481 2648 825 
Q 2906 1169 2906 1791 
z
M 3481 434 
Q 3481 -459 3084 -895 
Q 2688 -1331 1869 -1331 
Q 1566 -1331 1297 -1286 
Q 1028 -1241 775 -1147 
L 775 -588 
Q 1028 -725 1275 -790 
Q 1522 -856 1778 -856 
Q 2344 -856 2625 -561 
Q 2906 -266 2906 331 
L 2906 616 
Q 2728 306 2450 153 
Q 2172 0 1784 0 
Q 1141 0 747 490 
Q 353 981 353 1791 
Q 353 2603 747 3093 
Q 1141 3584 1784 3584 
Q 2172 3584 2450 3431 
Q 2728 3278 2906 2969 
L 2906 3500 
L 3481 3500 
L 3481 434 
z
" transform="scale(0.015625)"/>
       <path id="DejaVuSans-78" d="M 3513 3500 
L 2247 1797 
L 3578 0 
L 2900 0 
L 1881 1375 
L 863 0 
L 184 0 
L 1544 1831 
L 300 3500 
L 978 3500 
L 1906 2253 
L 2834 3500 
L 3513 3500 
z
" transform="scale(0.015625)"/>
       <path id="DejaVuSans-70" d="M 1159 525 
L 1159 -1331 
L 581 -1331 
L 581 3500 
L 1159 3500 
L 1159 2969 
Q 1341 3281 1617 3432 
Q 1894 3584 2278 3584 
Q 2916 3584 3314 3078 
Q 3713 2572 3713 1747 
Q 3713 922 3314 415 
Q 2916 -91 2278 -91 
Q 1894 -91 1617 61 
Q 1341 213 1159 525 
z
M 3116 1747 
Q 3116 2381 2855 2742 
Q 2594 3103 2138 3103 
Q 1681 3103 1420 2742 
Q 1159 2381 1159 1747 
Q 1159 1113 1420 752 
Q 1681 391 2138 391 
Q 2594 391 2855 752 
Q 3116 1113 3116 1747 
z
" transform="scale(0.015625)"/>
       <path id="DejaVuSans-6f" d="M 1959 3097 
Q 1497 3097 1228 2736 
Q 959 2375 959 1747 
Q 959 1119 1226 758 
Q 1494 397 1959 397 
Q 2419 397 2687 759 
Q 2956 1122 2956 1747 
Q 2956 2369 2687 2733 
Q 2419 3097 1959 3097 
z
M 1959 3584 
Q 2709 3584 3137 3096 
Q 3566 2609 3566 1747 
Q 3566 888 3137 398 
Q 2709 -91 1959 -91 
Q 1206 -91 779 398 
Q 353 888 353 1747 
Q 353 2609 779 3096 
Q 1206 3584 1959 3584 
z
" transform="scale(0.015625)"/>
       <path id="DejaVuSans-75" d="M 544 1381 
L 544 3500 
L 1119 3500 
L 1119 1403 
Q 1119 906 1312 657 
Q 1506 409 1894 409 
Q 2359 409 2629 706 
Q 2900 1003 2900 1516 
L 2900 3500 
L 3475 3500 
L 3475 0 
L 2900 0 
L 2900 538 
Q 2691 219 2414 64 
Q 2138 -91 1772 -91 
Q 1169 -91 856 284 
Q 544 659 544 1381 
z
M 1991 3584 
L 1991 3584 
z
" transform="scale(0.015625)"/>
       <path id="DejaVuSans-72" d="M 2631 2963 
Q 2534 3019 2420 3045 
Q 2306 3072 2169 3072 
Q 1681 3072 1420 2755 
Q 1159 2438 1159 1844 
L 1159 0 
L 581 0 
L 581 3500 
L 1159 3500 
L 1159 2956 
Q 1341 3275 1631 3429 
Q 1922 3584 2338 3584 
Q 2397 3584 2469 3576 
Q 2541 3569 2628 3553 
L 2631 2963 
z
" transform="scale(0.015625)"/>
      </defs>
      <use xlink:href="#DejaVuSans-44"/>
      <use xlink:href="#DejaVuSans-61" x="77.001953"/>
      <use xlink:href="#DejaVuSans-79" x="138.28125"/>
      <use xlink:href="#DejaVuSans-73" x="197.460938"/>
      <use xlink:href="#DejaVuSans-20" x="249.560547"/>
      <use xlink:href="#DejaVuSans-73" x="281.347656"/>
      <use xlink:href="#DejaVuSans-69" x="333.447266"/>
      <use xlink:href="#DejaVuSans-6e" x="361.230469"/>
      <use xlink:href="#DejaVuSans-63" x="424.609375"/>
      <use xlink:href="#DejaVuSans-65" x="479.589844"/>
      <use xlink:href="#DejaVuSans-20" x="541.113281"/>
      <use xlink:href="#DejaVuSans-61" x="572.900391"/>
      <use xlink:href="#DejaVuSans-6e" x="634.179688"/>
      <use xlink:href="#DejaVuSans-74" x="697.558594"/>
      <use xlink:href="#DejaVuSans-69" x="736.767578"/>
      <use xlink:href="#DejaVuSans-67" x="764.550781"/>
      <use xlink:href="#DejaVuSans-65" x="828.027344"/>
      <use xlink:href="#DejaVuSans-6e" x="889.550781"/>
      <use xlink:href="#DejaVuSans-20" x="952.929688"/>
      <use xlink:href="#DejaVuSans-65" x="984.716797"/>
      <use xlink:href="#DejaVuSans-78" x="1044.490234"/>
      <use xlink:href="#DejaVuSans-70" x="1103.669922"/>
      <use xlink:href="#DejaVuSans-6f" x="1167.146484"/>
      <use xlink:href="#DejaVuSans-73" x="1228.328125"/>
      <use xlink:href="#DejaVuSans-75" x="1280.427734"/>
      <use xlink:href="#DejaVuSans-72" x="1343.806641"/>
      <use xlink:href="#DejaVuSans-65" x="1382.669922"/>
     </g>
    </g>
   </g>
   <g id="matplotlib.axis_2">
    <g id="ytick_1">
     <g id="line2d_8">
      <defs>
       <path id="m329164164b" d="M 0 0 
L -3.5 0 
" style="stroke: #000000; stroke-width: 0.8"/>
      </defs>
      <g>
       <use xlink:href="#m329164164b" x="91.758125" y="362.94" style="stroke: #000000; stroke-width: 0.8"/>
      </g>
     </g>
     <g id="text_9">
      <!-- 0.0 -->
      <g transform="translate(52.951875 370.538437) scale(0.2 -0.2)">
       <defs>
        <path id="DejaVuSans-2e" d="M 684 794 
L 1344 794 
L 1344 0 
L 684 0 
L 684 794 
z
" transform="scale(0.015625)"/>
       </defs>
       <use xlink:href="#DejaVuSans-30"/>
       <use xlink:href="#DejaVuSans-2e" x="63.623047"/>
       <use xlink:href="#DejaVuSans-30" x="95.410156"/>
      </g>
     </g>
    </g>
    <g id="ytick_2">
     <g id="line2d_9">
      <g>
       <use xlink:href="#m329164164b" x="91.758125" y="298.26" style="stroke: #000000; stroke-width: 0.8"/>
      </g>
     </g>
     <g id="text_10">
      <!-- 0.2 -->
      <g transform="translate(52.951875 305.858437) scale(0.2 -0.2)">
       <use xlink:href="#DejaVuSans-30"/>
       <use xlink:href="#DejaVuSans-2e" x="63.623047"/>
       <use xlink:href="#DejaVuSans-32" x="95.410156"/>
      </g>
     </g>
    </g>
    <g id="ytick_3">
     <g id="line2d_10">
      <g>
       <use xlink:href="#m329164164b" x="91.758125" y="233.58" style="stroke: #000000; stroke-width: 0.8"/>
      </g>
     </g>
     <g id="text_11">
      <!-- 0.4 -->
      <g transform="translate(52.951875 241.178437) scale(0.2 -0.2)">
       <use xlink:href="#DejaVuSans-30"/>
       <use xlink:href="#DejaVuSans-2e" x="63.623047"/>
       <use xlink:href="#DejaVuSans-34" x="95.410156"/>
      </g>
     </g>
    </g>
    <g id="ytick_4">
     <g id="line2d_11">
      <g>
       <use xlink:href="#m329164164b" x="91.758125" y="168.9" style="stroke: #000000; stroke-width: 0.8"/>
      </g>
     </g>
     <g id="text_12">
      <!-- 0.6 -->
      <g transform="translate(52.951875 176.498437) scale(0.2 -0.2)">
       <use xlink:href="#DejaVuSans-30"/>
       <use xlink:href="#DejaVuSans-2e" x="63.623047"/>
       <use xlink:href="#DejaVuSans-36" x="95.410156"/>
      </g>
     </g>
    </g>
    <g id="ytick_5">
     <g id="line2d_12">
      <g>
       <use xlink:href="#m329164164b" x="91.758125" y="104.22" style="stroke: #000000; stroke-width: 0.8"/>
      </g>
     </g>
     <g id="text_13">
      <!-- 0.8 -->
      <g transform="translate(52.951875 111.818437) scale(0.2 -0.2)">
       <defs>
        <path id="DejaVuSans-38" d="M 2034 2216 
Q 1584 2216 1326 1975 
Q 1069 1734 1069 1313 
Q 1069 891 1326 650 
Q 1584 409 2034 409 
Q 2484 409 2743 651 
Q 3003 894 3003 1313 
Q 3003 1734 2745 1975 
Q 2488 2216 2034 2216 
z
M 1403 2484 
Q 997 2584 770 2862 
Q 544 3141 544 3541 
Q 544 4100 942 4425 
Q 1341 4750 2034 4750 
Q 2731 4750 3128 4425 
Q 3525 4100 3525 3541 
Q 3525 3141 3298 2862 
Q 3072 2584 2669 2484 
Q 3125 2378 3379 2068 
Q 3634 1759 3634 1313 
Q 3634 634 3220 271 
Q 2806 -91 2034 -91 
Q 1263 -91 848 271 
Q 434 634 434 1313 
Q 434 1759 690 2068 
Q 947 2378 1403 2484 
z
M 1172 3481 
Q 1172 3119 1398 2916 
Q 1625 2713 2034 2713 
Q 2441 2713 2670 2916 
Q 2900 3119 2900 3481 
Q 2900 3844 2670 4047 
Q 2441 4250 2034 4250 
Q 1625 4250 1398 4047 
Q 1172 3844 1172 3481 
z
" transform="scale(0.015625)"/>
       </defs>
       <use xlink:href="#DejaVuSans-30"/>
       <use xlink:href="#DejaVuSans-2e" x="63.623047"/>
       <use xlink:href="#DejaVuSans-38" x="95.410156"/>
      </g>
     </g>
    </g>
    <g id="ytick_6">
     <g id="line2d_13">
      <g>
       <use xlink:href="#m329164164b" x="91.758125" y="39.54" style="stroke: #000000; stroke-width: 0.8"/>
      </g>
     </g>
     <g id="text_14">
      <!-- 1.0 -->
      <g transform="translate(52.951875 47.138437) scale(0.2 -0.2)">
       <use xlink:href="#DejaVuSans-31"/>
       <use xlink:href="#DejaVuSans-2e" x="63.623047"/>
       <use xlink:href="#DejaVuSans-30" x="95.410156"/>
      </g>
     </g>
    </g>
    <g id="text_15">
     <!-- Virus neutralization -->
     <g transform="translate(22.396875 298.544687) rotate(-90) scale(0.2 -0.2)">
      <defs>
       <path id="DejaVuSans-56" d="M 1831 0 
L 50 4666 
L 709 4666 
L 2188 738 
L 3669 4666 
L 4325 4666 
L 2547 0 
L 1831 0 
z
" transform="scale(0.015625)"/>
       <path id="DejaVuSans-6c" d="M 603 4863 
L 1178 4863 
L 1178 0 
L 603 0 
L 603 4863 
z
" transform="scale(0.015625)"/>
       <path id="DejaVuSans-7a" d="M 353 3500 
L 3084 3500 
L 3084 2975 
L 922 459 
L 3084 459 
L 3084 0 
L 275 0 
L 275 525 
L 2438 3041 
L 353 3041 
L 353 3500 
z
" transform="scale(0.015625)"/>
      </defs>
      <use xlink:href="#DejaVuSans-56"/>
      <use xlink:href="#DejaVuSans-69" x="66.158203"/>
      <use xlink:href="#DejaVuSans-72" x="93.941406"/>
      <use xlink:href="#DejaVuSans-75" x="135.054688"/>
      <use xlink:href="#DejaVuSans-73" x="198.433594"/>
      <use xlink:href="#DejaVuSans-20" x="250.533203"/>
      <use xlink:href="#DejaVuSans-6e" x="282.320312"/>
      <use xlink:href="#DejaVuSans-65" x="345.699219"/>
      <use xlink:href="#DejaVuSans-75" x="407.222656"/>
      <use xlink:href="#DejaVuSans-74" x="470.601562"/>
      <use xlink:href="#DejaVuSans-72" x="509.810547"/>
      <use xlink:href="#DejaVuSans-61" x="550.923828"/>
      <use xlink:href="#DejaVuSans-6c" x="612.203125"/>
      <use xlink:href="#DejaVuSans-69" x="639.986328"/>
      <use xlink:href="#DejaVuSans-7a" x="667.769531"/>
      <use xlink:href="#DejaVuSans-61" x="720.259766"/>
      <use xlink:href="#DejaVuSans-74" x="781.539062"/>
      <use xlink:href="#DejaVuSans-69" x="820.748047"/>
      <use xlink:href="#DejaVuSans-6f" x="848.53125"/>
      <use xlink:href="#DejaVuSans-6e" x="909.712891"/>
     </g>
     <!--  probability -->
     <g transform="translate(44.7925 257.769687) rotate(-90) scale(0.2 -0.2)">
      <defs>
       <path id="DejaVuSans-62" d="M 3116 1747 
Q 3116 2381 2855 2742 
Q 2594 3103 2138 3103 
Q 1681 3103 1420 2742 
Q 1159 2381 1159 1747 
Q 1159 1113 1420 752 
Q 1681 391 2138 391 
Q 2594 391 2855 752 
Q 3116 1113 3116 1747 
z
M 1159 2969 
Q 1341 3281 1617 3432 
Q 1894 3584 2278 3584 
Q 2916 3584 3314 3078 
Q 3713 2572 3713 1747 
Q 3713 922 3314 415 
Q 2916 -91 2278 -91 
Q 1894 -91 1617 61 
Q 1341 213 1159 525 
L 1159 0 
L 581 0 
L 581 4863 
L 1159 4863 
L 1159 2969 
z
" transform="scale(0.015625)"/>
      </defs>
      <use xlink:href="#DejaVuSans-20"/>
      <use xlink:href="#DejaVuSans-70" x="31.787109"/>
      <use xlink:href="#DejaVuSans-72" x="95.263672"/>
      <use xlink:href="#DejaVuSans-6f" x="134.126953"/>
      <use xlink:href="#DejaVuSans-62" x="195.308594"/>
      <use xlink:href="#DejaVuSans-61" x="258.785156"/>
      <use xlink:href="#DejaVuSans-62" x="320.064453"/>
      <use xlink:href="#DejaVuSans-69" x="383.541016"/>
      <use xlink:href="#DejaVuSans-6c" x="411.324219"/>
      <use xlink:href="#DejaVuSans-69" x="439.107422"/>
      <use xlink:href="#DejaVuSans-74" x="466.890625"/>
      <use xlink:href="#DejaVuSans-79" x="506.099609"/>
     </g>
    </g>
   </g>
   <g id="patch_3">
    <path d="M 91.758125 395.28 
L 91.758125 7.2 
" style="fill: none; stroke: #000000; stroke-width: 0.8; stroke-linejoin: miter; stroke-linecap: square"/>
   </g>
   <g id="patch_4">
    <path d="M 649.758125 395.28 
L 649.758125 7.2 
" style="fill: none; stroke: #000000; stroke-width: 0.8; stroke-linejoin: miter; stroke-linecap: square"/>
   </g>
   <g id="patch_5">
    <path d="M 91.758125 395.28 
L 649.758125 395.28 
" style="fill: none; stroke: #000000; stroke-width: 0.8; stroke-linejoin: miter; stroke-linecap: square"/>
   </g>
   <g id="patch_6">
    <path d="M 91.758125 7.2 
L 649.758125 7.2 
" style="fill: none; stroke: #000000; stroke-width: 0.8; stroke-linejoin: miter; stroke-linecap: square"/>
   </g>
   <g id="legend_1">
    <g id="patch_7">
     <path d="M 235.258125 511.704 
L 507.7175 511.704 
Q 511.7175 511.704 511.7175 507.704 
L 511.7175 480.34775 
Q 511.7175 476.34775 507.7175 476.34775 
L 235.258125 476.34775 
Q 231.258125 476.34775 231.258125 480.34775 
L 231.258125 507.704 
Q 231.258125 511.704 235.258125 511.704 
z
" style="fill: #ffffff; opacity: 0.8; stroke: #cccccc; stroke-linejoin: miter"/>
    </g>
    <g id="patch_8">
     <path d="M 239.258125 499.544625 
L 279.258125 499.544625 
L 279.258125 485.544625 
L 239.258125 485.544625 
z
" style="fill: #73c476; fill-opacity: 0.3; stroke: #73c476; stroke-opacity: 0.3; stroke-linejoin: miter"/>
    </g>
    <g id="text_16">
     <!-- Epitopes PK (ranges) -->
     <g transform="translate(295.258125 499.544625) scale(0.2 -0.2)">
      <defs>
       <path id="DejaVuSans-45" d="M 628 4666 
L 3578 4666 
L 3578 4134 
L 1259 4134 
L 1259 2753 
L 3481 2753 
L 3481 2222 
L 1259 2222 
L 1259 531 
L 3634 531 
L 3634 0 
L 628 0 
L 628 4666 
z
" transform="scale(0.015625)"/>
       <path id="DejaVuSans-50" d="M 1259 4147 
L 1259 2394 
L 2053 2394 
Q 2494 2394 2734 2622 
Q 2975 2850 2975 3272 
Q 2975 3691 2734 3919 
Q 2494 4147 2053 4147 
L 1259 4147 
z
M 628 4666 
L 2053 4666 
Q 2838 4666 3239 4311 
Q 3641 3956 3641 3272 
Q 3641 2581 3239 2228 
Q 2838 1875 2053 1875 
L 1259 1875 
L 1259 0 
L 628 0 
L 628 4666 
z
" transform="scale(0.015625)"/>
       <path id="DejaVuSans-4b" d="M 628 4666 
L 1259 4666 
L 1259 2694 
L 3353 4666 
L 4166 4666 
L 1850 2491 
L 4331 0 
L 3500 0 
L 1259 2247 
L 1259 0 
L 628 0 
L 628 4666 
z
" transform="scale(0.015625)"/>
       <path id="DejaVuSans-28" d="M 1984 4856 
Q 1566 4138 1362 3434 
Q 1159 2731 1159 2009 
Q 1159 1288 1364 580 
Q 1569 -128 1984 -844 
L 1484 -844 
Q 1016 -109 783 600 
Q 550 1309 550 2009 
Q 550 2706 781 3412 
Q 1013 4119 1484 4856 
L 1984 4856 
z
" transform="scale(0.015625)"/>
       <path id="DejaVuSans-29" d="M 513 4856 
L 1013 4856 
Q 1481 4119 1714 3412 
Q 1947 2706 1947 2009 
Q 1947 1309 1714 600 
Q 1481 -109 1013 -844 
L 513 -844 
Q 928 -128 1133 580 
Q 1338 1288 1338 2009 
Q 1338 2731 1133 3434 
Q 928 4138 513 4856 
z
" transform="scale(0.015625)"/>
      </defs>
      <use xlink:href="#DejaVuSans-45"/>
      <use xlink:href="#DejaVuSans-70" x="63.183594"/>
      <use xlink:href="#DejaVuSans-69" x="126.660156"/>
      <use xlink:href="#DejaVuSans-74" x="154.443359"/>
      <use xlink:href="#DejaVuSans-6f" x="193.652344"/>
      <use xlink:href="#DejaVuSans-70" x="254.833984"/>
      <use xlink:href="#DejaVuSans-65" x="318.310547"/>
      <use xlink:href="#DejaVuSans-73" x="379.833984"/>
      <use xlink:href="#DejaVuSans-20" x="431.933594"/>
      <use xlink:href="#DejaVuSans-50" x="463.720703"/>
      <use xlink:href="#DejaVuSans-4b" x="524.023438"/>
      <use xlink:href="#DejaVuSans-20" x="589.599609"/>
      <use xlink:href="#DejaVuSans-28" x="621.386719"/>
      <use xlink:href="#DejaVuSans-72" x="660.400391"/>
      <use xlink:href="#DejaVuSans-61" x="701.513672"/>
      <use xlink:href="#DejaVuSans-6e" x="762.792969"/>
      <use xlink:href="#DejaVuSans-67" x="826.171875"/>
      <use xlink:href="#DejaVuSans-65" x="889.648438"/>
      <use xlink:href="#DejaVuSans-73" x="951.171875"/>
      <use xlink:href="#DejaVuSans-29" x="1003.271484"/>
     </g>
    </g>
   </g>
  </g>
 </g>
 <defs>
  <clipPath id="p43bcf8b3cf">
   <rect x="91.758125" y="7.2" width="558" height="388.08"/>
  </clipPath>
 </defs>
</svg>
