<?xml version="1.0" encoding="utf-8" standalone="no"?>
<!DOCTYPE svg PUBLIC "-//W3C//DTD SVG 1.1//EN"
  "http://www.w3.org/Graphics/SVG/1.1/DTD/svg11.dtd">
<svg xmlns:xlink="http://www.w3.org/1999/xlink" width="880.501875pt" height="473.389375pt" viewBox="0 0 880.501875 473.389375" xmlns="http://www.w3.org/2000/svg" version="1.1">
 <metadata>
  <rdf:RDF xmlns:dc="http://purl.org/dc/elements/1.1/" xmlns:cc="http://creativecommons.org/ns#" xmlns:rdf="http://www.w3.org/1999/02/22-rdf-syntax-ns#">
   <cc:Work>
    <dc:type rdf:resource="http://purl.org/dc/dcmitype/StillImage"/>
    <dc:date>2024-04-09T15:12:55.386294</dc:date>
    <dc:format>image/svg+xml</dc:format>
    <dc:creator>
     <cc:Agent>
      <dc:title>Matplotlib v3.7.0, https://matplotlib.org/</dc:title>
     </cc:Agent>
    </dc:creator>
   </cc:Work>
  </rdf:RDF>
 </metadata>
 <defs>
  <style type="text/css">*{stroke-linejoin: round; stroke-linecap: butt}</style>
 </defs>
 <g id="figure_1">
  <g id="patch_1">
   <path d="M 0 473.389375 
L 880.501875 473.389375 
L 880.501875 0 
L 0 0 
z
" style="fill: #ffffff"/>
  </g>
  <g id="axes_1">
   <g id="patch_2">
    <path d="M 91.758125 416.476875 
L 649.758125 416.476875 
L 649.758125 28.396875 
L 91.758125 28.396875 
z
" style="fill: #ffffff"/>
   </g>
   <g id="PolyCollection_1">
    <defs>
     <path id="m0b5ab6ae1f" d="M 117.121761 -397.34946 
L 117.121761 -330.404621 
L 117.897408 -384.153399 
L 118.673054 -400.620133 
L 119.4487 -406.813295 
L 120.224347 -409.508888 
L 120.999993 -410.819184 
L 121.77564 -411.513937 
L 122.551286 -411.909147 
L 123.326932 -412.147397 
L 124.102579 -412.298179 
L 124.878225 -412.397612 
L 125.653871 -412.465524 
L 126.429518 -412.513317 
L 127.205164 -412.547826 
L 127.980811 -412.57329 
L 128.756457 -412.592428 
L 129.532103 -412.607029 
L 130.30775 -412.6183 
L 131.083396 -412.627076 
L 131.859042 -412.632179 
L 132.634689 -412.624709 
L 133.410335 -412.615915 
L 134.185982 -412.605666 
L 134.961628 -412.593809 
L 135.737274 -412.580164 
L 136.512921 -412.56453 
L 137.288567 -412.546679 
L 138.064213 -412.526355 
L 138.83986 -412.503275 
L 139.615506 -412.477128 
L 140.391153 -412.447568 
L 141.166799 -412.414219 
L 141.942445 -412.37667 
L 142.718092 -412.334471 
L 143.493738 -412.287137 
L 144.269384 -412.234141 
L 145.045031 -412.174914 
L 145.820677 -412.108843 
L 146.596323 -412.035273 
L 147.37197 -411.9535 
L 148.147616 -411.862773 
L 148.923263 -411.762291 
L 149.698909 -411.651206 
L 150.474555 -411.528617 
L 151.250202 -411.393574 
L 152.025848 -411.245076 
L 152.801494 -411.082068 
L 153.577141 -410.903449 
L 154.352787 -410.708065 
L 155.128434 -410.494713 
L 155.90408 -410.262145 
L 156.679726 -410.009066 
L 157.455373 -409.734136 
L 158.231019 -409.435977 
L 159.006665 -409.113169 
L 159.782312 -408.764261 
L 160.557958 -408.387769 
L 161.333605 -407.98218 
L 162.109251 -407.545962 
L 162.884897 -407.077562 
L 163.660544 -406.575415 
L 164.43619 -406.037948 
L 165.211836 -405.463588 
L 165.987483 -404.850762 
L 166.763129 -404.19791 
L 167.538776 -403.503489 
L 168.314422 -402.765976 
L 169.090068 -401.983879 
L 169.865715 -401.155743 
L 170.641361 -400.280155 
L 171.417007 -399.35575 
L 172.192654 -398.38122 
L 172.9683 -397.355322 
L 173.743947 -396.276877 
L 174.519593 -395.144784 
L 175.295239 -393.958022 
L 176.070886 -392.715657 
L 176.846532 -391.416846 
L 177.622178 -390.060843 
L 178.397825 -388.647003 
L 179.173471 -387.174786 
L 179.949117 -385.64376 
L 180.724764 -384.053608 
L 181.50041 -382.404125 
L 182.276057 -380.695223 
L 183.051703 -378.926934 
L 183.827349 -377.099409 
L 184.602996 -375.212919 
L 185.378642 -373.267855 
L 186.154288 -371.264729 
L 186.929935 -369.204169 
L 187.705581 -367.086923 
L 188.481228 -364.913852 
L 189.256874 -362.685931 
L 190.03252 -360.404243 
L 190.808167 -358.069978 
L 191.583813 -355.684428 
L 192.359459 -353.248982 
L 193.135106 -350.765124 
L 193.910752 -348.234426 
L 194.686399 -345.658542 
L 195.462045 -343.039205 
L 196.237691 -340.37822 
L 197.013338 -337.677457 
L 197.788984 -334.93885 
L 198.56463 -332.164382 
L 199.340277 -329.356089 
L 200.115923 -326.516046 
L 200.89157 -323.646364 
L 201.667216 -320.749186 
L 202.442862 -317.826674 
L 203.218509 -314.881012 
L 203.994155 -311.914393 
L 204.769801 -308.929015 
L 205.545448 -305.927078 
L 206.321094 -302.910776 
L 207.096741 -299.882291 
L 207.872387 -296.84379 
L 208.648033 -293.79742 
L 209.42368 -290.745303 
L 210.199326 -287.68953 
L 210.974972 -284.632159 
L 211.750619 -281.575212 
L 212.526265 -278.520668 
L 213.301911 -275.470462 
L 214.077558 -272.426483 
L 214.853204 -269.39057 
L 215.628851 -266.364508 
L 216.404497 -263.350028 
L 217.180143 -260.348805 
L 217.95579 -257.362455 
L 218.731436 -254.392536 
L 219.507082 -251.440543 
L 220.282729 -248.50791 
L 221.058375 -245.596008 
L 221.834022 -242.706147 
L 222.609668 -239.839571 
L 223.385314 -236.997463 
L 224.160961 -234.180941 
L 224.936607 -231.391059 
L 225.712253 -228.628812 
L 226.4879 -225.89513 
L 227.263546 -223.190881 
L 228.039193 -220.516875 
L 228.814839 -217.873862 
L 229.590485 -215.262531 
L 230.366132 -212.683517 
L 231.141778 -210.137397 
L 231.917424 -207.624693 
L 232.693071 -205.145876 
L 233.468717 -202.701363 
L 234.244364 -200.29152 
L 235.02001 -197.916668 
L 235.795656 -195.577078 
L 236.571303 -193.272975 
L 237.346949 -191.004542 
L 238.122595 -188.771919 
L 238.898242 -186.575205 
L 239.673888 -184.414462 
L 240.449535 -182.289712 
L 241.225181 -180.200943 
L 242.000827 -178.14811 
L 242.776474 -176.131135 
L 243.55212 -174.14991 
L 244.327766 -172.204295 
L 245.103413 -170.294127 
L 245.879059 -168.419214 
L 246.654705 -166.579341 
L 247.430352 -164.774269 
L 248.205998 -163.003739 
L 248.981645 -161.26747 
L 249.757291 -159.565164 
L 250.532937 -157.896504 
L 251.308584 -156.261158 
L 252.08423 -154.658779 
L 252.859876 -153.089004 
L 253.635523 -151.551461 
L 254.411169 -150.045765 
L 255.186816 -148.571519 
L 255.962462 -147.128318 
L 256.738108 -145.715749 
L 257.513755 -144.33339 
L 258.289401 -142.980815 
L 259.065047 -141.657588 
L 259.840694 -140.363273 
L 260.61634 -139.097425 
L 261.391987 -137.8596 
L 262.167633 -136.649349 
L 262.943279 -135.46622 
L 263.718926 -134.309762 
L 264.494572 -133.179521 
L 265.270218 -132.075044 
L 266.045865 -130.995878 
L 266.821511 -129.941571 
L 267.597158 -128.911672 
L 268.372804 -127.90573 
L 269.14845 -126.923299 
L 269.924097 -125.963934 
L 270.699743 -125.027193 
L 271.475389 -124.112636 
L 272.251036 -123.219828 
L 273.026682 -122.348338 
L 273.802329 -121.497737 
L 274.577975 -120.667603 
L 275.353621 -119.857515 
L 276.129268 -119.067059 
L 276.904914 -118.295827 
L 277.68056 -117.543412 
L 278.456207 -116.809416 
L 279.231853 -116.093444 
L 280.007499 -115.395108 
L 280.783146 -114.714024 
L 281.558792 -114.049815 
L 282.334439 -113.402108 
L 283.110085 -112.770538 
L 283.885731 -112.154743 
L 284.661378 -111.554369 
L 285.437024 -110.969067 
L 286.21267 -110.398495 
L 286.988317 -109.842315 
L 287.763963 -109.300196 
L 288.53961 -108.771813 
L 289.315256 -108.256846 
L 290.090902 -107.754982 
L 290.866549 -107.265914 
L 291.642195 -106.78934 
L 292.417841 -106.324963 
L 293.193488 -105.872495 
L 293.969134 -105.431649 
L 294.744781 -105.002148 
L 295.520427 -104.583718 
L 296.296073 -104.176092 
L 297.07172 -103.779007 
L 297.847366 -103.392207 
L 298.623012 -103.015441 
L 299.398659 -102.648463 
L 300.174305 -102.291032 
L 300.949952 -101.942913 
L 301.725598 -101.603875 
L 302.501244 -101.273693 
L 303.276891 -100.952147 
L 304.052537 -100.639021 
L 304.828183 -100.334105 
L 305.60383 -100.037192 
L 306.379476 -99.748082 
L 307.155122 -99.466577 
L 307.930769 -99.192487 
L 308.706415 -98.925622 
L 309.482062 -98.665799 
L 310.257708 -98.41284 
L 311.033354 -98.16657 
L 311.809001 -97.926818 
L 312.584647 -97.693416 
L 313.360293 -97.466203 
L 314.13594 -97.245018 
L 314.911586 -97.029708 
L 315.687233 -96.820121 
L 316.462879 -96.616109 
L 317.238525 -96.417528 
L 318.014172 -96.224237 
L 318.789818 -96.036099 
L 319.565464 -95.85298 
L 320.341111 -95.674749 
L 321.116757 -95.50128 
L 321.892404 -95.332448 
L 322.66805 -95.168132 
L 323.443696 -95.008213 
L 324.219343 -94.852578 
L 324.994989 -94.701112 
L 325.770635 -94.553707 
L 326.546282 -94.410257 
L 327.321928 -94.270656 
L 328.097575 -94.134804 
L 328.873221 -94.002602 
L 329.648867 -93.873954 
L 330.424514 -93.748765 
L 331.20016 -93.626944 
L 331.975806 -93.508402 
L 332.751453 -93.393053 
L 333.527099 -93.28081 
L 334.302746 -93.171593 
L 335.078392 -93.065321 
L 335.854038 -92.961914 
L 336.629685 -92.861298 
L 337.405331 -92.763398 
L 338.180977 -92.668141 
L 338.956624 -92.575457 
L 339.73227 -92.485278 
L 340.507916 -92.397536 
L 341.283563 -92.312166 
L 342.059209 -92.229105 
L 342.834856 -92.148292 
L 343.610502 -92.069665 
L 344.386148 -91.993167 
L 345.161795 -91.91874 
L 345.937441 -91.846329 
L 346.713087 -91.775879 
L 347.488734 -91.707339 
L 348.26438 -91.640656 
L 349.040027 -91.575782 
L 349.815673 -91.512666 
L 350.591319 -91.451263 
L 351.366966 -91.391526 
L 352.142612 -91.333409 
L 352.918258 -91.27687 
L 353.693905 -91.221866 
L 354.469551 -91.168356 
L 355.245198 -91.116298 
L 356.020844 -91.065655 
L 356.79649 -91.016388 
L 357.572137 -90.968459 
L 358.347783 -90.921833 
L 359.123429 -90.876475 
L 359.899076 -90.832349 
L 360.674722 -90.789424 
L 361.450369 -90.747665 
L 362.226015 -90.707043 
L 363.001661 -90.667525 
L 363.777308 -90.629083 
L 364.552954 -90.591687 
L 365.3286 -90.555309 
L 366.104247 -90.51992 
L 366.879893 -90.485495 
L 367.65554 -90.452008 
L 368.431186 -90.419432 
L 369.206832 -90.387743 
L 369.982479 -90.356917 
L 370.758125 -90.326931 
L 371.533771 -90.297762 
L 372.309418 -90.269387 
L 373.085064 -90.241786 
L 373.86071 -90.214936 
L 374.636357 -90.188819 
L 375.412003 -90.163413 
L 376.18765 -90.138699 
L 376.963296 -90.114659 
L 377.738942 -90.091275 
L 378.514589 -90.068528 
L 379.290235 -90.046401 
L 380.065881 -90.024878 
L 380.841528 -90.003942 
L 381.617174 -89.983576 
L 382.392821 -89.963767 
L 383.168467 -89.944497 
L 383.944113 -89.925753 
L 384.71976 -89.90752 
L 385.495406 -89.889785 
L 386.271052 -89.872534 
L 387.046699 -89.855753 
L 387.822345 -89.839431 
L 388.597992 -89.823553 
L 389.373638 -89.808109 
L 390.149284 -89.793087 
L 390.924931 -89.778474 
L 391.700577 -89.76426 
L 392.476223 -89.750435 
L 393.25187 -89.736986 
L 394.027516 -89.723905 
L 394.803163 -89.711181 
L 395.578809 -89.698804 
L 396.354455 -89.686766 
L 397.130102 -89.675056 
L 397.905748 -89.663665 
L 398.681394 -89.652586 
L 399.457041 -89.641809 
L 400.232687 -89.631327 
L 401.008334 -89.62113 
L 401.78398 -89.611212 
L 402.559626 -89.601566 
L 403.335273 -89.592182 
L 404.110919 -89.583055 
L 404.886565 -89.574177 
L 405.662212 -89.565542 
L 406.437858 -89.557142 
L 407.213504 -89.548972 
L 407.989151 -89.541025 
L 408.764797 -89.533295 
L 409.540444 -89.525777 
L 410.31609 -89.518463 
L 411.091736 -89.51135 
L 411.867383 -89.504431 
L 412.643029 -89.497701 
L 413.418675 -89.491155 
L 414.194322 -89.484787 
L 414.969968 -89.478594 
L 415.745615 -89.47257 
L 416.521261 -89.46671 
L 417.296907 -89.461011 
L 418.072554 -89.455467 
L 418.8482 -89.450075 
L 419.623846 -89.44483 
L 420.399493 -89.439729 
L 421.175139 -89.434766 
L 421.950786 -89.42994 
L 422.726432 -89.425245 
L 423.502078 -89.420679 
L 424.277725 -89.416238 
L 425.053371 -89.411917 
L 425.829017 -89.407715 
L 426.604664 -89.403628 
L 427.38031 -89.399653 
L 428.155957 -89.395786 
L 428.931603 -89.392025 
L 429.707249 -89.388366 
L 430.482896 -89.384808 
L 431.258542 -89.381347 
L 432.034188 -89.37798 
L 432.809835 -89.374706 
L 433.585481 -89.371521 
L 434.361128 -89.368423 
L 435.136774 -89.36541 
L 435.91242 -89.362479 
L 436.688067 -89.359628 
L 437.463713 -89.356855 
L 438.239359 -89.354158 
L 439.015006 -89.351535 
L 439.790652 -89.348983 
L 440.566298 -89.346501 
L 441.341945 -89.344087 
L 442.117591 -89.341739 
L 442.893238 -89.339455 
L 443.668884 -89.337234 
L 444.44453 -89.335073 
L 445.220177 -89.332972 
L 445.995823 -89.330927 
L 446.771469 -89.328939 
L 447.547116 -89.327005 
L 448.322762 -89.325124 
L 449.098409 -89.323295 
L 449.874055 -89.321515 
L 450.649701 -89.319784 
L 451.425348 -89.3181 
L 452.200994 -89.316463 
L 452.97664 -89.31487 
L 453.752287 -89.313321 
L 454.527933 -89.311814 
L 455.30358 -89.310348 
L 456.079226 -89.308922 
L 456.854872 -89.307536 
L 457.630519 -89.306187 
L 458.406165 -89.304875 
L 459.181811 -89.303599 
L 459.957458 -89.302358 
L 460.733104 -89.301151 
L 461.508751 -89.299977 
L 462.284397 -89.298835 
L 463.060043 -89.297724 
L 463.83569 -89.296643 
L 464.611336 -89.295592 
L 465.386982 -89.29457 
L 466.162629 -89.293576 
L 466.938275 -89.292609 
L 467.713921 -89.291668 
L 468.489568 -89.290753 
L 469.265214 -89.289863 
L 470.040861 -89.288998 
L 470.816507 -89.288156 
L 471.592153 -89.287337 
L 472.3678 -89.28654 
L 473.143446 -89.285766 
L 473.919092 -89.285012 
L 474.694739 -89.284279 
L 475.470385 -89.283566 
L 476.246032 -89.282873 
L 477.021678 -89.282198 
L 477.797324 -89.281542 
L 478.572971 -89.280904 
L 479.348617 -89.280284 
L 480.124263 -89.27968 
L 480.89991 -89.279093 
L 481.675556 -89.278522 
L 482.451203 -89.277966 
L 483.226849 -89.277426 
L 484.002495 -89.276901 
L 484.778142 -89.276389 
L 485.553788 -89.275892 
L 486.329434 -89.275409 
L 487.105081 -89.274938 
L 487.880727 -89.274481 
L 488.656374 -89.274036 
L 489.43202 -89.273603 
L 490.207666 -89.273182 
L 490.983313 -89.272773 
L 491.758959 -89.272374 
L 492.534605 -89.271987 
L 493.310252 -89.27161 
L 494.085898 -89.271244 
L 494.861545 -89.270887 
L 495.637191 -89.270541 
L 496.412837 -89.270203 
L 497.188484 -89.269875 
L 497.96413 -89.269556 
L 498.739776 -89.269246 
L 499.515423 -89.268944 
L 500.291069 -89.268651 
L 501.066715 -89.268365 
L 501.842362 -89.268087 
L 502.618008 -89.267817 
L 503.393655 -89.267554 
L 504.169301 -89.267299 
L 504.944947 -89.26705 
L 505.720594 -89.266808 
L 506.49624 -89.266573 
L 507.271886 -89.266344 
L 508.047533 -89.266122 
L 508.823179 -89.265906 
L 509.598826 -89.265695 
L 510.374472 -89.26549 
L 511.150118 -89.265291 
L 511.925765 -89.265097 
L 512.701411 -89.264909 
L 513.477057 -89.264726 
L 514.252704 -89.264548 
L 515.02835 -89.264374 
L 515.803997 -89.264206 
L 516.579643 -89.264042 
L 517.355289 -89.263882 
L 518.130936 -89.263727 
L 518.906582 -89.263576 
L 519.682228 -89.263429 
L 520.457875 -89.263286 
L 521.233521 -89.263148 
L 522.009168 -89.263012 
L 522.784814 -89.262881 
L 523.56046 -89.262753 
L 524.336107 -89.262629 
L 525.111753 -89.262508 
L 525.887399 -89.26239 
L 526.663046 -89.262276 
L 527.438692 -89.262165 
L 528.214339 -89.262057 
L 528.989985 -89.261951 
L 529.765631 -89.261849 
L 530.541278 -89.261749 
L 531.316924 -89.261653 
L 532.09257 -89.261558 
L 532.868217 -89.261467 
L 533.643863 -89.261378 
L 534.419509 -89.261291 
L 535.195156 -89.261207 
L 535.970802 -89.261125 
L 536.746449 -89.261045 
L 537.522095 -89.260967 
L 538.297741 -89.260892 
L 539.073388 -89.260818 
L 539.849034 -89.260747 
L 540.62468 -89.260678 
L 541.400327 -89.26061 
L 542.175973 -89.260544 
L 542.95162 -89.260481 
L 543.727266 -89.260418 
L 544.502912 -89.260358 
L 545.278559 -89.260299 
L 546.054205 -89.260242 
L 546.829851 -89.260186 
L 547.605498 -89.260132 
L 548.381144 -89.26008 
L 549.156791 -89.260028 
L 549.932437 -89.259979 
L 550.708083 -89.25993 
L 551.48373 -89.259883 
L 552.259376 -89.259837 
L 553.035022 -89.259793 
L 553.810669 -89.259749 
L 554.586315 -89.259707 
L 555.361962 -89.259666 
L 556.137608 -89.259626 
L 556.913254 -89.259588 
L 557.688901 -89.25955 
L 558.464547 -89.259513 
L 559.240193 -89.259477 
L 560.01584 -89.259443 
L 560.791486 -89.259409 
L 561.567133 -89.259376 
L 562.342779 -89.259344 
L 563.118425 -89.259313 
L 563.894072 -89.259283 
L 564.669718 -89.259253 
L 565.445364 -89.259225 
L 566.221011 -89.259197 
L 566.996657 -89.25917 
L 567.772303 -89.259144 
L 568.54795 -89.259118 
L 569.323596 -89.259093 
L 570.099243 -89.259069 
L 570.874889 -89.259045 
L 571.650535 -89.259023 
L 572.426182 -89.259 
L 573.201828 -89.258979 
L 573.977474 -89.258957 
L 574.753121 -89.258937 
L 575.528767 -89.258917 
L 576.304414 -89.258898 
L 577.08006 -89.258879 
L 577.855706 -89.25886 
L 578.631353 -89.258843 
L 579.406999 -89.258825 
L 580.182645 -89.258808 
L 580.958292 -89.258792 
L 581.733938 -89.258776 
L 582.509585 -89.25876 
L 583.285231 -89.258745 
L 584.060877 -89.258731 
L 584.836524 -89.258716 
L 585.61217 -89.258702 
L 586.387816 -89.258689 
L 587.163463 -89.258676 
L 587.939109 -89.258663 
L 588.714756 -89.25865 
L 589.490402 -89.258638 
L 590.266048 -89.258627 
L 591.041695 -89.258615 
L 591.817341 -89.258604 
L 592.592987 -89.258593 
L 593.368634 -89.258583 
L 594.14428 -89.258572 
L 594.919927 -89.258562 
L 595.695573 -89.258553 
L 596.471219 -89.258543 
L 597.246866 -89.258534 
L 598.022512 -89.258525 
L 598.798158 -89.258516 
L 599.573805 -89.258508 
L 600.349451 -89.2585 
L 601.125097 -89.258492 
L 601.900744 -89.258484 
L 602.67639 -89.258477 
L 603.452037 -89.258469 
L 604.227683 -89.258462 
L 605.003329 -89.258455 
L 605.778976 -89.258448 
L 606.554622 -89.258442 
L 607.330268 -89.258435 
L 608.105915 -89.258429 
L 608.881561 -89.258423 
L 609.657208 -89.258417 
L 610.432854 -89.258411 
L 611.2085 -89.258406 
L 611.984147 -89.2584 
L 612.759793 -89.258395 
L 613.535439 -89.25839 
L 614.311086 -89.258385 
L 615.086732 -89.25838 
L 615.862379 -89.258375 
L 616.638025 -89.258371 
L 617.413671 -89.258366 
L 618.189318 -89.258362 
L 618.964964 -89.258358 
L 619.74061 -89.258354 
L 620.516257 -89.25835 
L 621.291903 -89.258346 
L 622.06755 -89.258342 
L 622.843196 -89.258338 
L 623.618842 -89.258335 
L 624.394489 -89.258331 
L 624.394489 -99.945494 
L 624.394489 -99.945494 
L 623.618842 -100.05127 
L 622.843196 -100.158072 
L 622.06755 -100.265909 
L 621.291903 -100.37479 
L 620.516257 -100.484725 
L 619.74061 -100.595725 
L 618.964964 -100.707798 
L 618.189318 -100.820955 
L 617.413671 -100.935206 
L 616.638025 -101.050561 
L 615.862379 -101.16703 
L 615.086732 -101.284623 
L 614.311086 -101.40335 
L 613.535439 -101.523223 
L 612.759793 -101.64425 
L 611.984147 -101.766444 
L 611.2085 -101.889815 
L 610.432854 -102.014373 
L 609.657208 -102.14013 
L 608.881561 -102.267096 
L 608.105915 -102.395282 
L 607.330268 -102.524699 
L 606.554622 -102.655359 
L 605.778976 -102.787273 
L 605.003329 -102.920452 
L 604.227683 -103.054908 
L 603.452037 -103.190652 
L 602.67639 -103.327695 
L 601.900744 -103.466051 
L 601.125097 -103.60573 
L 600.349451 -103.746744 
L 599.573805 -103.889106 
L 598.798158 -104.032827 
L 598.022512 -104.177919 
L 597.246866 -104.324396 
L 596.471219 -104.472269 
L 595.695573 -104.621551 
L 594.919927 -104.772254 
L 594.14428 -104.924391 
L 593.368634 -105.077975 
L 592.592987 -105.233019 
L 591.817341 -105.389536 
L 591.041695 -105.547538 
L 590.266048 -105.707038 
L 589.490402 -105.868051 
L 588.714756 -106.03059 
L 587.939109 -106.194667 
L 587.163463 -106.360297 
L 586.387816 -106.527492 
L 585.61217 -106.696268 
L 584.836524 -106.866637 
L 584.060877 -107.038613 
L 583.285231 -107.212211 
L 582.509585 -107.387445 
L 581.733938 -107.564329 
L 580.958292 -107.742877 
L 580.182645 -107.923103 
L 579.406999 -108.105023 
L 578.631353 -108.288651 
L 577.855706 -108.474001 
L 577.08006 -108.661089 
L 576.304414 -108.84993 
L 575.528767 -109.040537 
L 574.753121 -109.232927 
L 573.977474 -109.427115 
L 573.201828 -109.623116 
L 572.426182 -109.820946 
L 571.650535 -110.02062 
L 570.874889 -110.222154 
L 570.099243 -110.425563 
L 569.323596 -110.630863 
L 568.54795 -110.838071 
L 567.772303 -111.047202 
L 566.996657 -111.258273 
L 566.221011 -111.4713 
L 565.445364 -111.686299 
L 564.669718 -111.903286 
L 563.894072 -112.122279 
L 563.118425 -112.343293 
L 562.342779 -112.566347 
L 561.567133 -112.791455 
L 560.791486 -113.018637 
L 560.01584 -113.247907 
L 559.240193 -113.479285 
L 558.464547 -113.712786 
L 557.688901 -113.948429 
L 556.913254 -114.18623 
L 556.137608 -114.426208 
L 555.361962 -114.66838 
L 554.586315 -114.912764 
L 553.810669 -115.159378 
L 553.035022 -115.408239 
L 552.259376 -115.659365 
L 551.48373 -115.912776 
L 550.708083 -116.168489 
L 549.932437 -116.426522 
L 549.156791 -116.686894 
L 548.381144 -116.949624 
L 547.605498 -117.214729 
L 546.829851 -117.482229 
L 546.054205 -117.752143 
L 545.278559 -118.024489 
L 544.502912 -118.299287 
L 543.727266 -118.576555 
L 542.95162 -118.856313 
L 542.175973 -119.13858 
L 541.400327 -119.423375 
L 540.62468 -119.710718 
L 539.849034 -120.000629 
L 539.073388 -120.293126 
L 538.297741 -120.588229 
L 537.522095 -120.885959 
L 536.746449 -121.186335 
L 535.970802 -121.489377 
L 535.195156 -121.795106 
L 534.419509 -122.10354 
L 533.643863 -122.414701 
L 532.868217 -122.728608 
L 532.09257 -123.045282 
L 531.316924 -123.364743 
L 530.541278 -123.687012 
L 529.765631 -124.012109 
L 528.989985 -124.340055 
L 528.214339 -124.67087 
L 527.438692 -125.004575 
L 526.663046 -125.341192 
L 525.887399 -125.68074 
L 525.111753 -126.02324 
L 524.336107 -126.368714 
L 523.56046 -126.717182 
L 522.784814 -127.068666 
L 522.009168 -127.423187 
L 521.233521 -127.780765 
L 520.457875 -128.141423 
L 519.682228 -128.50518 
L 518.906582 -128.872059 
L 518.130936 -129.242081 
L 517.355289 -129.615267 
L 516.579643 -129.991638 
L 515.803997 -130.371217 
L 515.02835 -130.754024 
L 514.252704 -131.14008 
L 513.477057 -131.529408 
L 512.701411 -131.922029 
L 511.925765 -132.317964 
L 511.150118 -132.717235 
L 510.374472 -133.119863 
L 509.598826 -133.52587 
L 508.823179 -133.935278 
L 508.047533 -134.348108 
L 507.271886 -134.764382 
L 506.49624 -135.184121 
L 505.720594 -135.607347 
L 504.944947 -136.034081 
L 504.169301 -136.464345 
L 503.393655 -136.89816 
L 502.618008 -137.335548 
L 501.842362 -137.776531 
L 501.066715 -138.221129 
L 500.291069 -138.669364 
L 499.515423 -139.121258 
L 498.739776 -139.576832 
L 497.96413 -140.036106 
L 497.188484 -140.499103 
L 496.412837 -140.965843 
L 495.637191 -141.436348 
L 494.861545 -141.910638 
L 494.085898 -142.388734 
L 493.310252 -142.870658 
L 492.534605 -143.356431 
L 491.758959 -143.846072 
L 490.983313 -144.339602 
L 490.207666 -144.837043 
L 489.43202 -145.338414 
L 488.656374 -145.843736 
L 487.880727 -146.353028 
L 487.105081 -146.866313 
L 486.329434 -147.383608 
L 485.553788 -147.904934 
L 484.778142 -148.430311 
L 484.002495 -148.959758 
L 483.226849 -149.493295 
L 482.451203 -150.030942 
L 481.675556 -150.572716 
L 480.89991 -151.118638 
L 480.124263 -151.668725 
L 479.348617 -152.222998 
L 478.572971 -152.781473 
L 477.797324 -153.34417 
L 477.021678 -153.911106 
L 476.246032 -154.482299 
L 475.470385 -155.057768 
L 474.694739 -155.637529 
L 473.919092 -156.2216 
L 473.143446 -156.809997 
L 472.3678 -157.402738 
L 471.592153 -157.999838 
L 470.816507 -158.601315 
L 470.040861 -159.207184 
L 469.265214 -159.817461 
L 468.489568 -160.432162 
L 467.713921 -161.051301 
L 466.938275 -161.674893 
L 466.162629 -162.302954 
L 465.386982 -162.935497 
L 464.611336 -163.572536 
L 463.83569 -164.214086 
L 463.060043 -164.860159 
L 462.284397 -165.510768 
L 461.508751 -166.165926 
L 460.733104 -166.825645 
L 459.957458 -167.489938 
L 459.181811 -168.158815 
L 458.406165 -168.832288 
L 457.630519 -169.510367 
L 456.854872 -170.193064 
L 456.079226 -170.880387 
L 455.30358 -171.572347 
L 454.527933 -172.268953 
L 453.752287 -172.970213 
L 452.97664 -173.676135 
L 452.200994 -174.386727 
L 451.425348 -175.101997 
L 450.649701 -175.821951 
L 449.874055 -176.546596 
L 449.098409 -177.275938 
L 448.322762 -178.009981 
L 447.547116 -178.748731 
L 446.771469 -179.492192 
L 445.995823 -180.240368 
L 445.220177 -180.993262 
L 444.44453 -181.750876 
L 443.668884 -182.513213 
L 442.893238 -183.280274 
L 442.117591 -184.05206 
L 441.341945 -184.828572 
L 440.566298 -185.609809 
L 439.790652 -186.39577 
L 439.015006 -187.186454 
L 438.239359 -187.981858 
L 437.463713 -188.78198 
L 436.688067 -189.586817 
L 435.91242 -190.396364 
L 435.136774 -191.210616 
L 434.361128 -192.029568 
L 433.585481 -192.853214 
L 432.809835 -193.681546 
L 432.034188 -194.514557 
L 431.258542 -195.35224 
L 430.482896 -196.194584 
L 429.707249 -197.041579 
L 428.931603 -197.893216 
L 428.155957 -198.749482 
L 427.38031 -199.610366 
L 426.604664 -200.475855 
L 425.829017 -201.345934 
L 425.053371 -202.22059 
L 424.277725 -203.099806 
L 423.502078 -203.983567 
L 422.726432 -204.871855 
L 421.950786 -205.764652 
L 421.175139 -206.66194 
L 420.399493 -207.563699 
L 419.623846 -208.469909 
L 418.8482 -209.380547 
L 418.072554 -210.295592 
L 417.296907 -211.21502 
L 416.521261 -212.138807 
L 415.745615 -213.066927 
L 414.969968 -213.999356 
L 414.194322 -214.936065 
L 413.418675 -215.877027 
L 412.643029 -216.822214 
L 411.867383 -217.771594 
L 411.091736 -218.725137 
L 410.31609 -219.682811 
L 409.540444 -220.644584 
L 408.764797 -221.610421 
L 407.989151 -222.580288 
L 407.213504 -223.554149 
L 406.437858 -224.531966 
L 405.662212 -225.513703 
L 404.886565 -226.499319 
L 404.110919 -227.488775 
L 403.335273 -228.48203 
L 402.559626 -229.479042 
L 401.78398 -230.479768 
L 401.008334 -231.484162 
L 400.232687 -232.492181 
L 399.457041 -233.503777 
L 398.681394 -234.518904 
L 397.905748 -235.537512 
L 397.130102 -236.559552 
L 396.354455 -237.584974 
L 395.578809 -238.613725 
L 394.803163 -239.645753 
L 394.027516 -240.681004 
L 393.25187 -241.719422 
L 392.476223 -242.760953 
L 391.700577 -243.805537 
L 390.924931 -244.853118 
L 390.149284 -245.903635 
L 389.373638 -246.957029 
L 388.597992 -248.013237 
L 387.822345 -249.072196 
L 387.046699 -250.133844 
L 386.271052 -251.198116 
L 385.495406 -252.264944 
L 384.71976 -253.334263 
L 383.944113 -254.406004 
L 383.168467 -255.480097 
L 382.392821 -256.556474 
L 381.617174 -257.635062 
L 380.841528 -258.715789 
L 380.065881 -259.798582 
L 379.290235 -260.883366 
L 378.514589 -261.970066 
L 377.738942 -263.058605 
L 376.963296 -264.148907 
L 376.18765 -265.240891 
L 375.412003 -266.334479 
L 374.636357 -267.429591 
L 373.86071 -268.526144 
L 373.085064 -269.624057 
L 372.309418 -270.723245 
L 371.533771 -271.823626 
L 370.758125 -272.925112 
L 369.982479 -274.027619 
L 369.206832 -275.131059 
L 368.431186 -276.235345 
L 367.65554 -277.340386 
L 366.879893 -278.446095 
L 366.104247 -279.552379 
L 365.3286 -280.659149 
L 364.552954 -281.766311 
L 363.777308 -282.873773 
L 363.001661 -283.981442 
L 362.226015 -285.089222 
L 361.450369 -286.197019 
L 360.674722 -287.304737 
L 359.899076 -288.412279 
L 359.123429 -289.519549 
L 358.347783 -290.626448 
L 357.572137 -291.732878 
L 356.79649 -292.838741 
L 356.020844 -293.943936 
L 355.245198 -295.048363 
L 354.469551 -296.151923 
L 353.693905 -297.254514 
L 352.918258 -298.356034 
L 352.142612 -299.456382 
L 351.366966 -300.555455 
L 350.591319 -301.653151 
L 349.815673 -302.749366 
L 349.040027 -303.843998 
L 348.26438 -304.936943 
L 347.488734 -306.028096 
L 346.713087 -307.117354 
L 345.937441 -308.204613 
L 345.161795 -309.289768 
L 344.386148 -310.372715 
L 343.610502 -311.453348 
L 342.834856 -312.531565 
L 342.059209 -313.607259 
L 341.283563 -314.680326 
L 340.507916 -315.750662 
L 339.73227 -316.818162 
L 338.956624 -317.882722 
L 338.180977 -318.944238 
L 337.405331 -320.002605 
L 336.629685 -321.05772 
L 335.854038 -322.109479 
L 335.078392 -323.15778 
L 334.302746 -324.202519 
L 333.527099 -325.243593 
L 332.751453 -326.280902 
L 331.975806 -327.314343 
L 331.20016 -328.343816 
L 330.424514 -329.369219 
L 329.648867 -330.390453 
L 328.873221 -331.407419 
L 328.097575 -332.420017 
L 327.321928 -333.428151 
L 326.546282 -334.431722 
L 325.770635 -335.430634 
L 324.994989 -336.424792 
L 324.219343 -337.414101 
L 323.443696 -338.398466 
L 322.66805 -339.377796 
L 321.892404 -340.351997 
L 321.116757 -341.320979 
L 320.341111 -342.284651 
L 319.565464 -343.242926 
L 318.789818 -344.195715 
L 318.014172 -345.142931 
L 317.238525 -346.084489 
L 316.462879 -347.020305 
L 315.687233 -347.950296 
L 314.911586 -348.874379 
L 314.13594 -349.792476 
L 313.360293 -350.704506 
L 312.584647 -351.610393 
L 311.809001 -352.510059 
L 311.033354 -353.403431 
L 310.257708 -354.290436 
L 309.482062 -355.171001 
L 308.706415 -356.045056 
L 307.930769 -356.912533 
L 307.155122 -357.773366 
L 306.379476 -358.627488 
L 305.60383 -359.474837 
L 304.828183 -360.31535 
L 304.052537 -361.148968 
L 303.276891 -361.975632 
L 302.501244 -362.795285 
L 301.725598 -363.607873 
L 300.949952 -364.413343 
L 300.174305 -365.211644 
L 299.398659 -366.002726 
L 298.623012 -366.786543 
L 297.847366 -367.563049 
L 297.07172 -368.3322 
L 296.296073 -369.093955 
L 295.520427 -369.848275 
L 294.744781 -370.595121 
L 293.969134 -371.334459 
L 293.193488 -372.066255 
L 292.417841 -372.790478 
L 291.642195 -373.507097 
L 290.866549 -374.216085 
L 290.090902 -374.917417 
L 289.315256 -375.611071 
L 288.53961 -376.297023 
L 287.763963 -376.975256 
L 286.988317 -377.645751 
L 286.21267 -378.308495 
L 285.437024 -378.963473 
L 284.661378 -379.610675 
L 283.885731 -380.250093 
L 283.110085 -380.881719 
L 282.334439 -381.505548 
L 281.558792 -382.121579 
L 280.783146 -382.72981 
L 280.007499 -383.330242 
L 279.231853 -383.92288 
L 278.456207 -384.507729 
L 277.68056 -385.084797 
L 276.904914 -385.654092 
L 276.129268 -386.215626 
L 275.353621 -386.769414 
L 274.577975 -387.31547 
L 273.802329 -387.853811 
L 273.026682 -388.384458 
L 272.251036 -388.907431 
L 271.475389 -389.422754 
L 270.699743 -389.930452 
L 269.924097 -390.43055 
L 269.14845 -390.923079 
L 268.372804 -391.408069 
L 267.597158 -391.885551 
L 266.821511 -392.35556 
L 266.045865 -392.818131 
L 265.270218 -393.273303 
L 264.494572 -393.721113 
L 263.718926 -394.161602 
L 262.943279 -394.594814 
L 262.167633 -395.020791 
L 261.391987 -395.439579 
L 260.61634 -395.851225 
L 259.840694 -396.255777 
L 259.065047 -396.653285 
L 258.289401 -397.0438 
L 257.513755 -397.427374 
L 256.738108 -397.804062 
L 255.962462 -398.173919 
L 255.186816 -398.537001 
L 254.411169 -398.893364 
L 253.635523 -399.243069 
L 252.859876 -399.586175 
L 252.08423 -399.922743 
L 251.308584 -400.252835 
L 250.532937 -400.576514 
L 249.757291 -400.893844 
L 248.981645 -401.20489 
L 248.205998 -401.509717 
L 247.430352 -401.808392 
L 246.654705 -402.100983 
L 245.879059 -402.387558 
L 245.103413 -402.668186 
L 244.327766 -402.942936 
L 243.55212 -403.211878 
L 242.776474 -403.475084 
L 242.000827 -403.732624 
L 241.225181 -403.984571 
L 240.449535 -404.230997 
L 239.673888 -404.471974 
L 238.898242 -404.707577 
L 238.122595 -404.937877 
L 237.346949 -405.16295 
L 236.571303 -405.382869 
L 235.795656 -405.597708 
L 235.02001 -405.807542 
L 234.244364 -406.012445 
L 233.468717 -406.212493 
L 232.693071 -406.40776 
L 231.917424 -406.598321 
L 231.141778 -406.784251 
L 230.366132 -406.965624 
L 229.590485 -407.142515 
L 228.814839 -407.315 
L 228.039193 -407.483151 
L 227.263546 -407.647045 
L 226.4879 -407.806754 
L 225.712253 -407.962352 
L 224.936607 -408.113913 
L 224.160961 -408.261511 
L 223.385314 -408.405218 
L 222.609668 -408.545107 
L 221.834022 -408.681249 
L 221.058375 -408.813717 
L 220.282729 -408.942582 
L 219.507082 -409.067915 
L 218.731436 -409.189785 
L 217.95579 -409.308263 
L 217.180143 -409.423418 
L 216.404497 -409.535318 
L 215.628851 -409.644031 
L 214.853204 -409.749625 
L 214.077558 -409.852167 
L 213.301911 -409.951722 
L 212.526265 -410.048356 
L 211.750619 -410.142134 
L 210.974972 -410.23312 
L 210.199326 -410.321377 
L 209.42368 -410.406967 
L 208.648033 -410.489952 
L 207.872387 -410.570394 
L 207.096741 -410.648352 
L 206.321094 -410.723886 
L 205.545448 -410.797055 
L 204.769801 -410.867916 
L 203.994155 -410.936526 
L 203.218509 -411.002941 
L 202.442862 -411.067217 
L 201.667216 -411.129408 
L 200.89157 -411.189567 
L 200.115923 -411.247748 
L 199.340277 -411.304001 
L 198.56463 -411.358379 
L 197.788984 -411.410931 
L 197.013338 -411.461706 
L 196.237691 -411.510753 
L 195.462045 -411.558119 
L 194.686399 -411.603851 
L 193.910752 -411.647994 
L 193.135106 -411.690594 
L 192.359459 -411.731693 
L 191.583813 -411.771336 
L 190.808167 -411.809564 
L 190.03252 -411.846419 
L 189.256874 -411.881942 
L 188.481228 -411.916171 
L 187.705581 -411.949146 
L 186.929935 -411.980904 
L 186.154288 -412.011483 
L 185.378642 -412.040919 
L 184.602996 -412.069247 
L 183.827349 -412.096501 
L 183.051703 -412.122717 
L 182.276057 -412.147926 
L 181.50041 -412.17216 
L 180.724764 -412.195452 
L 179.949117 -412.217831 
L 179.173471 -412.239328 
L 178.397825 -412.259971 
L 177.622178 -412.27979 
L 176.846532 -412.29881 
L 176.070886 -412.31706 
L 175.295239 -412.334565 
L 174.519593 -412.351351 
L 173.743947 -412.367442 
L 172.9683 -412.382862 
L 172.192654 -412.397636 
L 171.417007 -412.411784 
L 170.641361 -412.42533 
L 169.865715 -412.438295 
L 169.090068 -412.450699 
L 168.314422 -412.462562 
L 167.538776 -412.473905 
L 166.763129 -412.484745 
L 165.987483 -412.495101 
L 165.211836 -412.50499 
L 164.43619 -412.514431 
L 163.660544 -412.523438 
L 162.884897 -412.532029 
L 162.109251 -412.540218 
L 161.333605 -412.548021 
L 160.557958 -412.555451 
L 159.782312 -412.562523 
L 159.006665 -412.56925 
L 158.231019 -412.575643 
L 157.455373 -412.581717 
L 156.679726 -412.587482 
L 155.90408 -412.592949 
L 155.128434 -412.598129 
L 154.352787 -412.603033 
L 153.577141 -412.607669 
L 152.801494 -412.612047 
L 152.025848 -412.616175 
L 151.250202 -412.620062 
L 150.474555 -412.623714 
L 149.698909 -412.627138 
L 148.923263 -412.63034 
L 148.147616 -412.633327 
L 147.37197 -412.636101 
L 146.596323 -412.638667 
L 145.820677 -412.641029 
L 145.045031 -412.643187 
L 144.269384 -412.645142 
L 143.493738 -412.646894 
L 142.718092 -412.648441 
L 141.942445 -412.649778 
L 141.166799 -412.650901 
L 140.391153 -412.651799 
L 139.615506 -412.652463 
L 138.83986 -412.652876 
L 138.064213 -412.653019 
L 137.288567 -412.652866 
L 136.512921 -412.652636 
L 135.737274 -412.652975 
L 134.961628 -412.652973 
L 134.185982 -412.652588 
L 133.410335 -412.652804 
L 132.634689 -412.653019 
L 131.859042 -412.652782 
L 131.083396 -412.652416 
L 130.30775 -412.652948 
L 129.532103 -412.652944 
L 128.756457 -412.652294 
L 127.980811 -412.652651 
L 127.205164 -412.653019 
L 126.429518 -412.652585 
L 125.653871 -412.651101 
L 124.878225 -412.648182 
L 124.102579 -412.643197 
L 123.326932 -412.635068 
L 122.551286 -412.621827 
L 121.77564 -412.599605 
L 120.999993 -412.560038 
L 120.224347 -412.482692 
L 119.4487 -412.308853 
L 118.673054 -411.827134 
L 117.897408 -409.973187 
L 117.121761 -397.34946 
z
" style="stroke: #ffa500; stroke-opacity: 0.3"/>
    </defs>
    <g clip-path="url(#p1ac42db8aa)">
     <use xlink:href="#m0b5ab6ae1f" x="0" y="473.389375" style="fill: #ffa500; fill-opacity: 0.3; stroke: #ffa500; stroke-opacity: 0.3"/>
    </g>
   </g>
   <g id="matplotlib.axis_1">
    <g id="xtick_1">
     <g id="line2d_1">
      <defs>
       <path id="m4998a4cce7" d="M 0 0 
L 0 3.5 
" style="stroke: #000000; stroke-width: 0.8"/>
      </defs>
      <g>
       <use xlink:href="#m4998a4cce7" x="116.346115" y="416.476875" style="stroke: #000000; stroke-width: 0.8"/>
      </g>
     </g>
     <g id="text_1">
      <!-- 0 -->
      <g transform="translate(109.983615 438.67375) scale(0.2 -0.2)">
       <defs>
        <path id="DejaVuSans-30" d="M 2034 4250 
Q 1547 4250 1301 3770 
Q 1056 3291 1056 2328 
Q 1056 1369 1301 889 
Q 1547 409 2034 409 
Q 2525 409 2770 889 
Q 3016 1369 3016 2328 
Q 3016 3291 2770 3770 
Q 2525 4250 2034 4250 
z
M 2034 4750 
Q 2819 4750 3233 4129 
Q 3647 3509 3647 2328 
Q 3647 1150 3233 529 
Q 2819 -91 2034 -91 
Q 1250 -91 836 529 
Q 422 1150 422 2328 
Q 422 3509 836 4129 
Q 1250 4750 2034 4750 
z
" transform="scale(0.015625)"/>
       </defs>
       <use xlink:href="#DejaVuSans-30"/>
      </g>
     </g>
    </g>
    <g id="xtick_2">
     <g id="line2d_2">
      <g>
       <use xlink:href="#m4998a4cce7" x="193.910752" y="416.476875" style="stroke: #000000; stroke-width: 0.8"/>
      </g>
     </g>
     <g id="text_2">
      <!-- 100 -->
      <g transform="translate(174.823252 438.67375) scale(0.2 -0.2)">
       <defs>
        <path id="DejaVuSans-31" d="M 794 531 
L 1825 531 
L 1825 4091 
L 703 3866 
L 703 4441 
L 1819 4666 
L 2450 4666 
L 2450 531 
L 3481 531 
L 3481 0 
L 794 0 
L 794 531 
z
" transform="scale(0.015625)"/>
       </defs>
       <use xlink:href="#DejaVuSans-31"/>
       <use xlink:href="#DejaVuSans-30" x="63.623047"/>
       <use xlink:href="#DejaVuSans-30" x="127.246094"/>
      </g>
     </g>
    </g>
    <g id="xtick_3">
     <g id="line2d_3">
      <g>
       <use xlink:href="#m4998a4cce7" x="271.475389" y="416.476875" style="stroke: #000000; stroke-width: 0.8"/>
      </g>
     </g>
     <g id="text_3">
      <!-- 200 -->
      <g transform="translate(252.387889 438.67375) scale(0.2 -0.2)">
       <defs>
        <path id="DejaVuSans-32" d="M 1228 531 
L 3431 531 
L 3431 0 
L 469 0 
L 469 531 
Q 828 903 1448 1529 
Q 2069 2156 2228 2338 
Q 2531 2678 2651 2914 
Q 2772 3150 2772 3378 
Q 2772 3750 2511 3984 
Q 2250 4219 1831 4219 
Q 1534 4219 1204 4116 
Q 875 4013 500 3803 
L 500 4441 
Q 881 4594 1212 4672 
Q 1544 4750 1819 4750 
Q 2544 4750 2975 4387 
Q 3406 4025 3406 3419 
Q 3406 3131 3298 2873 
Q 3191 2616 2906 2266 
Q 2828 2175 2409 1742 
Q 1991 1309 1228 531 
z
" transform="scale(0.015625)"/>
       </defs>
       <use xlink:href="#DejaVuSans-32"/>
       <use xlink:href="#DejaVuSans-30" x="63.623047"/>
       <use xlink:href="#DejaVuSans-30" x="127.246094"/>
      </g>
     </g>
    </g>
    <g id="xtick_4">
     <g id="line2d_4">
      <g>
       <use xlink:href="#m4998a4cce7" x="349.040027" y="416.476875" style="stroke: #000000; stroke-width: 0.8"/>
      </g>
     </g>
     <g id="text_4">
      <!-- 300 -->
      <g transform="translate(329.952527 438.67375) scale(0.2 -0.2)">
       <defs>
        <path id="DejaVuSans-33" d="M 2597 2516 
Q 3050 2419 3304 2112 
Q 3559 1806 3559 1356 
Q 3559 666 3084 287 
Q 2609 -91 1734 -91 
Q 1441 -91 1130 -33 
Q 819 25 488 141 
L 488 750 
Q 750 597 1062 519 
Q 1375 441 1716 441 
Q 2309 441 2620 675 
Q 2931 909 2931 1356 
Q 2931 1769 2642 2001 
Q 2353 2234 1838 2234 
L 1294 2234 
L 1294 2753 
L 1863 2753 
Q 2328 2753 2575 2939 
Q 2822 3125 2822 3475 
Q 2822 3834 2567 4026 
Q 2313 4219 1838 4219 
Q 1578 4219 1281 4162 
Q 984 4106 628 3988 
L 628 4550 
Q 988 4650 1302 4700 
Q 1616 4750 1894 4750 
Q 2613 4750 3031 4423 
Q 3450 4097 3450 3541 
Q 3450 3153 3228 2886 
Q 3006 2619 2597 2516 
z
" transform="scale(0.015625)"/>
       </defs>
       <use xlink:href="#DejaVuSans-33"/>
       <use xlink:href="#DejaVuSans-30" x="63.623047"/>
       <use xlink:href="#DejaVuSans-30" x="127.246094"/>
      </g>
     </g>
    </g>
    <g id="xtick_5">
     <g id="line2d_5">
      <g>
       <use xlink:href="#m4998a4cce7" x="426.604664" y="416.476875" style="stroke: #000000; stroke-width: 0.8"/>
      </g>
     </g>
     <g id="text_5">
      <!-- 400 -->
      <g transform="translate(407.517164 438.67375) scale(0.2 -0.2)">
       <defs>
        <path id="DejaVuSans-34" d="M 2419 4116 
L 825 1625 
L 2419 1625 
L 2419 4116 
z
M 2253 4666 
L 3047 4666 
L 3047 1625 
L 3713 1625 
L 3713 1100 
L 3047 1100 
L 3047 0 
L 2419 0 
L 2419 1100 
L 313 1100 
L 313 1709 
L 2253 4666 
z
" transform="scale(0.015625)"/>
       </defs>
       <use xlink:href="#DejaVuSans-34"/>
       <use xlink:href="#DejaVuSans-30" x="63.623047"/>
       <use xlink:href="#DejaVuSans-30" x="127.246094"/>
      </g>
     </g>
    </g>
    <g id="xtick_6">
     <g id="line2d_6">
      <g>
       <use xlink:href="#m4998a4cce7" x="504.169301" y="416.476875" style="stroke: #000000; stroke-width: 0.8"/>
      </g>
     </g>
     <g id="text_6">
      <!-- 500 -->
      <g transform="translate(485.081801 438.67375) scale(0.2 -0.2)">
       <defs>
        <path id="DejaVuSans-35" d="M 691 4666 
L 3169 4666 
L 3169 4134 
L 1269 4134 
L 1269 2991 
Q 1406 3038 1543 3061 
Q 1681 3084 1819 3084 
Q 2600 3084 3056 2656 
Q 3513 2228 3513 1497 
Q 3513 744 3044 326 
Q 2575 -91 1722 -91 
Q 1428 -91 1123 -41 
Q 819 9 494 109 
L 494 744 
Q 775 591 1075 516 
Q 1375 441 1709 441 
Q 2250 441 2565 725 
Q 2881 1009 2881 1497 
Q 2881 1984 2565 2268 
Q 2250 2553 1709 2553 
Q 1456 2553 1204 2497 
Q 953 2441 691 2322 
L 691 4666 
z
" transform="scale(0.015625)"/>
       </defs>
       <use xlink:href="#DejaVuSans-35"/>
       <use xlink:href="#DejaVuSans-30" x="63.623047"/>
       <use xlink:href="#DejaVuSans-30" x="127.246094"/>
      </g>
     </g>
    </g>
    <g id="xtick_7">
     <g id="line2d_7">
      <g>
       <use xlink:href="#m4998a4cce7" x="581.733938" y="416.476875" style="stroke: #000000; stroke-width: 0.8"/>
      </g>
     </g>
     <g id="text_7">
      <!-- 600 -->
      <g transform="translate(562.646438 438.67375) scale(0.2 -0.2)">
       <defs>
        <path id="DejaVuSans-36" d="M 2113 2584 
Q 1688 2584 1439 2293 
Q 1191 2003 1191 1497 
Q 1191 994 1439 701 
Q 1688 409 2113 409 
Q 2538 409 2786 701 
Q 3034 994 3034 1497 
Q 3034 2003 2786 2293 
Q 2538 2584 2113 2584 
z
M 3366 4563 
L 3366 3988 
Q 3128 4100 2886 4159 
Q 2644 4219 2406 4219 
Q 1781 4219 1451 3797 
Q 1122 3375 1075 2522 
Q 1259 2794 1537 2939 
Q 1816 3084 2150 3084 
Q 2853 3084 3261 2657 
Q 3669 2231 3669 1497 
Q 3669 778 3244 343 
Q 2819 -91 2113 -91 
Q 1303 -91 875 529 
Q 447 1150 447 2328 
Q 447 3434 972 4092 
Q 1497 4750 2381 4750 
Q 2619 4750 2861 4703 
Q 3103 4656 3366 4563 
z
" transform="scale(0.015625)"/>
       </defs>
       <use xlink:href="#DejaVuSans-36"/>
       <use xlink:href="#DejaVuSans-30" x="63.623047"/>
       <use xlink:href="#DejaVuSans-30" x="127.246094"/>
      </g>
     </g>
    </g>
    <g id="text_8">
     <!-- Days since antigen exposure -->
     <g transform="translate(226.337813 462.03) scale(0.2 -0.2)">
      <defs>
       <path id="DejaVuSans-44" d="M 1259 4147 
L 1259 519 
L 2022 519 
Q 2988 519 3436 956 
Q 3884 1394 3884 2338 
Q 3884 3275 3436 3711 
Q 2988 4147 2022 4147 
L 1259 4147 
z
M 628 4666 
L 1925 4666 
Q 3281 4666 3915 4102 
Q 4550 3538 4550 2338 
Q 4550 1131 3912 565 
Q 3275 0 1925 0 
L 628 0 
L 628 4666 
z
" transform="scale(0.015625)"/>
       <path id="DejaVuSans-61" d="M 2194 1759 
Q 1497 1759 1228 1600 
Q 959 1441 959 1056 
Q 959 750 1161 570 
Q 1363 391 1709 391 
Q 2188 391 2477 730 
Q 2766 1069 2766 1631 
L 2766 1759 
L 2194 1759 
z
M 3341 1997 
L 3341 0 
L 2766 0 
L 2766 531 
Q 2569 213 2275 61 
Q 1981 -91 1556 -91 
Q 1019 -91 701 211 
Q 384 513 384 1019 
Q 384 1609 779 1909 
Q 1175 2209 1959 2209 
L 2766 2209 
L 2766 2266 
Q 2766 2663 2505 2880 
Q 2244 3097 1772 3097 
Q 1472 3097 1187 3025 
Q 903 2953 641 2809 
L 641 3341 
Q 956 3463 1253 3523 
Q 1550 3584 1831 3584 
Q 2591 3584 2966 3190 
Q 3341 2797 3341 1997 
z
" transform="scale(0.015625)"/>
       <path id="DejaVuSans-79" d="M 2059 -325 
Q 1816 -950 1584 -1140 
Q 1353 -1331 966 -1331 
L 506 -1331 
L 506 -850 
L 844 -850 
Q 1081 -850 1212 -737 
Q 1344 -625 1503 -206 
L 1606 56 
L 191 3500 
L 800 3500 
L 1894 763 
L 2988 3500 
L 3597 3500 
L 2059 -325 
z
" transform="scale(0.015625)"/>
       <path id="DejaVuSans-73" d="M 2834 3397 
L 2834 2853 
Q 2591 2978 2328 3040 
Q 2066 3103 1784 3103 
Q 1356 3103 1142 2972 
Q 928 2841 928 2578 
Q 928 2378 1081 2264 
Q 1234 2150 1697 2047 
L 1894 2003 
Q 2506 1872 2764 1633 
Q 3022 1394 3022 966 
Q 3022 478 2636 193 
Q 2250 -91 1575 -91 
Q 1294 -91 989 -36 
Q 684 19 347 128 
L 347 722 
Q 666 556 975 473 
Q 1284 391 1588 391 
Q 1994 391 2212 530 
Q 2431 669 2431 922 
Q 2431 1156 2273 1281 
Q 2116 1406 1581 1522 
L 1381 1569 
Q 847 1681 609 1914 
Q 372 2147 372 2553 
Q 372 3047 722 3315 
Q 1072 3584 1716 3584 
Q 2034 3584 2315 3537 
Q 2597 3491 2834 3397 
z
" transform="scale(0.015625)"/>
       <path id="DejaVuSans-20" transform="scale(0.015625)"/>
       <path id="DejaVuSans-69" d="M 603 3500 
L 1178 3500 
L 1178 0 
L 603 0 
L 603 3500 
z
M 603 4863 
L 1178 4863 
L 1178 4134 
L 603 4134 
L 603 4863 
z
" transform="scale(0.015625)"/>
       <path id="DejaVuSans-6e" d="M 3513 2113 
L 3513 0 
L 2938 0 
L 2938 2094 
Q 2938 2591 2744 2837 
Q 2550 3084 2163 3084 
Q 1697 3084 1428 2787 
Q 1159 2491 1159 1978 
L 1159 0 
L 581 0 
L 581 3500 
L 1159 3500 
L 1159 2956 
Q 1366 3272 1645 3428 
Q 1925 3584 2291 3584 
Q 2894 3584 3203 3211 
Q 3513 2838 3513 2113 
z
" transform="scale(0.015625)"/>
       <path id="DejaVuSans-63" d="M 3122 3366 
L 3122 2828 
Q 2878 2963 2633 3030 
Q 2388 3097 2138 3097 
Q 1578 3097 1268 2742 
Q 959 2388 959 1747 
Q 959 1106 1268 751 
Q 1578 397 2138 397 
Q 2388 397 2633 464 
Q 2878 531 3122 666 
L 3122 134 
Q 2881 22 2623 -34 
Q 2366 -91 2075 -91 
Q 1284 -91 818 406 
Q 353 903 353 1747 
Q 353 2603 823 3093 
Q 1294 3584 2113 3584 
Q 2378 3584 2631 3529 
Q 2884 3475 3122 3366 
z
" transform="scale(0.015625)"/>
       <path id="DejaVuSans-65" d="M 3597 1894 
L 3597 1613 
L 953 1613 
Q 991 1019 1311 708 
Q 1631 397 2203 397 
Q 2534 397 2845 478 
Q 3156 559 3463 722 
L 3463 178 
Q 3153 47 2828 -22 
Q 2503 -91 2169 -91 
Q 1331 -91 842 396 
Q 353 884 353 1716 
Q 353 2575 817 3079 
Q 1281 3584 2069 3584 
Q 2775 3584 3186 3129 
Q 3597 2675 3597 1894 
z
M 3022 2063 
Q 3016 2534 2758 2815 
Q 2500 3097 2075 3097 
Q 1594 3097 1305 2825 
Q 1016 2553 972 2059 
L 3022 2063 
z
" transform="scale(0.015625)"/>
       <path id="DejaVuSans-74" d="M 1172 4494 
L 1172 3500 
L 2356 3500 
L 2356 3053 
L 1172 3053 
L 1172 1153 
Q 1172 725 1289 603 
Q 1406 481 1766 481 
L 2356 481 
L 2356 0 
L 1766 0 
Q 1100 0 847 248 
Q 594 497 594 1153 
L 594 3053 
L 172 3053 
L 172 3500 
L 594 3500 
L 594 4494 
L 1172 4494 
z
" transform="scale(0.015625)"/>
       <path id="DejaVuSans-67" d="M 2906 1791 
Q 2906 2416 2648 2759 
Q 2391 3103 1925 3103 
Q 1463 3103 1205 2759 
Q 947 2416 947 1791 
Q 947 1169 1205 825 
Q 1463 481 1925 481 
Q 2391 481 2648 825 
Q 2906 1169 2906 1791 
z
M 3481 434 
Q 3481 -459 3084 -895 
Q 2688 -1331 1869 -1331 
Q 1566 -1331 1297 -1286 
Q 1028 -1241 775 -1147 
L 775 -588 
Q 1028 -725 1275 -790 
Q 1522 -856 1778 -856 
Q 2344 -856 2625 -561 
Q 2906 -266 2906 331 
L 2906 616 
Q 2728 306 2450 153 
Q 2172 0 1784 0 
Q 1141 0 747 490 
Q 353 981 353 1791 
Q 353 2603 747 3093 
Q 1141 3584 1784 3584 
Q 2172 3584 2450 3431 
Q 2728 3278 2906 2969 
L 2906 3500 
L 3481 3500 
L 3481 434 
z
" transform="scale(0.015625)"/>
       <path id="DejaVuSans-78" d="M 3513 3500 
L 2247 1797 
L 3578 0 
L 2900 0 
L 1881 1375 
L 863 0 
L 184 0 
L 1544 1831 
L 300 3500 
L 978 3500 
L 1906 2253 
L 2834 3500 
L 3513 3500 
z
" transform="scale(0.015625)"/>
       <path id="DejaVuSans-70" d="M 1159 525 
L 1159 -1331 
L 581 -1331 
L 581 3500 
L 1159 3500 
L 1159 2969 
Q 1341 3281 1617 3432 
Q 1894 3584 2278 3584 
Q 2916 3584 3314 3078 
Q 3713 2572 3713 1747 
Q 3713 922 3314 415 
Q 2916 -91 2278 -91 
Q 1894 -91 1617 61 
Q 1341 213 1159 525 
z
M 3116 1747 
Q 3116 2381 2855 2742 
Q 2594 3103 2138 3103 
Q 1681 3103 1420 2742 
Q 1159 2381 1159 1747 
Q 1159 1113 1420 752 
Q 1681 391 2138 391 
Q 2594 391 2855 752 
Q 3116 1113 3116 1747 
z
" transform="scale(0.015625)"/>
       <path id="DejaVuSans-6f" d="M 1959 3097 
Q 1497 3097 1228 2736 
Q 959 2375 959 1747 
Q 959 1119 1226 758 
Q 1494 397 1959 397 
Q 2419 397 2687 759 
Q 2956 1122 2956 1747 
Q 2956 2369 2687 2733 
Q 2419 3097 1959 3097 
z
M 1959 3584 
Q 2709 3584 3137 3096 
Q 3566 2609 3566 1747 
Q 3566 888 3137 398 
Q 2709 -91 1959 -91 
Q 1206 -91 779 398 
Q 353 888 353 1747 
Q 353 2609 779 3096 
Q 1206 3584 1959 3584 
z
" transform="scale(0.015625)"/>
       <path id="DejaVuSans-75" d="M 544 1381 
L 544 3500 
L 1119 3500 
L 1119 1403 
Q 1119 906 1312 657 
Q 1506 409 1894 409 
Q 2359 409 2629 706 
Q 2900 1003 2900 1516 
L 2900 3500 
L 3475 3500 
L 3475 0 
L 2900 0 
L 2900 538 
Q 2691 219 2414 64 
Q 2138 -91 1772 -91 
Q 1169 -91 856 284 
Q 544 659 544 1381 
z
M 1991 3584 
L 1991 3584 
z
" transform="scale(0.015625)"/>
       <path id="DejaVuSans-72" d="M 2631 2963 
Q 2534 3019 2420 3045 
Q 2306 3072 2169 3072 
Q 1681 3072 1420 2755 
Q 1159 2438 1159 1844 
L 1159 0 
L 581 0 
L 581 3500 
L 1159 3500 
L 1159 2956 
Q 1341 3275 1631 3429 
Q 1922 3584 2338 3584 
Q 2397 3584 2469 3576 
Q 2541 3569 2628 3553 
L 2631 2963 
z
" transform="scale(0.015625)"/>
      </defs>
      <use xlink:href="#DejaVuSans-44"/>
      <use xlink:href="#DejaVuSans-61" x="77.001953"/>
      <use xlink:href="#DejaVuSans-79" x="138.28125"/>
      <use xlink:href="#DejaVuSans-73" x="197.460938"/>
      <use xlink:href="#DejaVuSans-20" x="249.560547"/>
      <use xlink:href="#DejaVuSans-73" x="281.347656"/>
      <use xlink:href="#DejaVuSans-69" x="333.447266"/>
      <use xlink:href="#DejaVuSans-6e" x="361.230469"/>
      <use xlink:href="#DejaVuSans-63" x="424.609375"/>
      <use xlink:href="#DejaVuSans-65" x="479.589844"/>
      <use xlink:href="#DejaVuSans-20" x="541.113281"/>
      <use xlink:href="#DejaVuSans-61" x="572.900391"/>
      <use xlink:href="#DejaVuSans-6e" x="634.179688"/>
      <use xlink:href="#DejaVuSans-74" x="697.558594"/>
      <use xlink:href="#DejaVuSans-69" x="736.767578"/>
      <use xlink:href="#DejaVuSans-67" x="764.550781"/>
      <use xlink:href="#DejaVuSans-65" x="828.027344"/>
      <use xlink:href="#DejaVuSans-6e" x="889.550781"/>
      <use xlink:href="#DejaVuSans-20" x="952.929688"/>
      <use xlink:href="#DejaVuSans-65" x="984.716797"/>
      <use xlink:href="#DejaVuSans-78" x="1044.490234"/>
      <use xlink:href="#DejaVuSans-70" x="1103.669922"/>
      <use xlink:href="#DejaVuSans-6f" x="1167.146484"/>
      <use xlink:href="#DejaVuSans-73" x="1228.328125"/>
      <use xlink:href="#DejaVuSans-75" x="1280.427734"/>
      <use xlink:href="#DejaVuSans-72" x="1343.806641"/>
      <use xlink:href="#DejaVuSans-65" x="1382.669922"/>
     </g>
    </g>
   </g>
   <g id="matplotlib.axis_2">
    <g id="ytick_1">
     <g id="line2d_8">
      <defs>
       <path id="m65cc7b1ea1" d="M 0 0 
L -3.5 0 
" style="stroke: #000000; stroke-width: 0.8"/>
      </defs>
      <g>
       <use xlink:href="#m65cc7b1ea1" x="91.758125" y="384.131167" style="stroke: #000000; stroke-width: 0.8"/>
      </g>
     </g>
     <g id="text_9">
      <!-- 0.0 -->
      <g transform="translate(52.951875 391.729605) scale(0.2 -0.2)">
       <defs>
        <path id="DejaVuSans-2e" d="M 684 794 
L 1344 794 
L 1344 0 
L 684 0 
L 684 794 
z
" transform="scale(0.015625)"/>
       </defs>
       <use xlink:href="#DejaVuSans-30"/>
       <use xlink:href="#DejaVuSans-2e" x="63.623047"/>
       <use xlink:href="#DejaVuSans-30" x="95.410156"/>
      </g>
     </g>
    </g>
    <g id="ytick_2">
     <g id="line2d_9">
      <g>
       <use xlink:href="#m65cc7b1ea1" x="91.758125" y="319.439752" style="stroke: #000000; stroke-width: 0.8"/>
      </g>
     </g>
     <g id="text_10">
      <!-- 0.2 -->
      <g transform="translate(52.951875 327.038189) scale(0.2 -0.2)">
       <use xlink:href="#DejaVuSans-30"/>
       <use xlink:href="#DejaVuSans-2e" x="63.623047"/>
       <use xlink:href="#DejaVuSans-32" x="95.410156"/>
      </g>
     </g>
    </g>
    <g id="ytick_3">
     <g id="line2d_10">
      <g>
       <use xlink:href="#m65cc7b1ea1" x="91.758125" y="254.748336" style="stroke: #000000; stroke-width: 0.8"/>
      </g>
     </g>
     <g id="text_11">
      <!-- 0.4 -->
      <g transform="translate(52.951875 262.346774) scale(0.2 -0.2)">
       <use xlink:href="#DejaVuSans-30"/>
       <use xlink:href="#DejaVuSans-2e" x="63.623047"/>
       <use xlink:href="#DejaVuSans-34" x="95.410156"/>
      </g>
     </g>
    </g>
    <g id="ytick_4">
     <g id="line2d_11">
      <g>
       <use xlink:href="#m65cc7b1ea1" x="91.758125" y="190.056921" style="stroke: #000000; stroke-width: 0.8"/>
      </g>
     </g>
     <g id="text_12">
      <!-- 0.6 -->
      <g transform="translate(52.951875 197.655358) scale(0.2 -0.2)">
       <use xlink:href="#DejaVuSans-30"/>
       <use xlink:href="#DejaVuSans-2e" x="63.623047"/>
       <use xlink:href="#DejaVuSans-36" x="95.410156"/>
      </g>
     </g>
    </g>
    <g id="ytick_5">
     <g id="line2d_12">
      <g>
       <use xlink:href="#m65cc7b1ea1" x="91.758125" y="125.365505" style="stroke: #000000; stroke-width: 0.8"/>
      </g>
     </g>
     <g id="text_13">
      <!-- 0.8 -->
      <g transform="translate(52.951875 132.963943) scale(0.2 -0.2)">
       <defs>
        <path id="DejaVuSans-38" d="M 2034 2216 
Q 1584 2216 1326 1975 
Q 1069 1734 1069 1313 
Q 1069 891 1326 650 
Q 1584 409 2034 409 
Q 2484 409 2743 651 
Q 3003 894 3003 1313 
Q 3003 1734 2745 1975 
Q 2488 2216 2034 2216 
z
M 1403 2484 
Q 997 2584 770 2862 
Q 544 3141 544 3541 
Q 544 4100 942 4425 
Q 1341 4750 2034 4750 
Q 2731 4750 3128 4425 
Q 3525 4100 3525 3541 
Q 3525 3141 3298 2862 
Q 3072 2584 2669 2484 
Q 3125 2378 3379 2068 
Q 3634 1759 3634 1313 
Q 3634 634 3220 271 
Q 2806 -91 2034 -91 
Q 1263 -91 848 271 
Q 434 634 434 1313 
Q 434 1759 690 2068 
Q 947 2378 1403 2484 
z
M 1172 3481 
Q 1172 3119 1398 2916 
Q 1625 2713 2034 2713 
Q 2441 2713 2670 2916 
Q 2900 3119 2900 3481 
Q 2900 3844 2670 4047 
Q 2441 4250 2034 4250 
Q 1625 4250 1398 4047 
Q 1172 3844 1172 3481 
z
" transform="scale(0.015625)"/>
       </defs>
       <use xlink:href="#DejaVuSans-30"/>
       <use xlink:href="#DejaVuSans-2e" x="63.623047"/>
       <use xlink:href="#DejaVuSans-38" x="95.410156"/>
      </g>
     </g>
    </g>
    <g id="ytick_6">
     <g id="line2d_13">
      <g>
       <use xlink:href="#m65cc7b1ea1" x="91.758125" y="60.67409" style="stroke: #000000; stroke-width: 0.8"/>
      </g>
     </g>
     <g id="text_14">
      <!-- 1.0 -->
      <g transform="translate(52.951875 68.272527) scale(0.2 -0.2)">
       <use xlink:href="#DejaVuSans-31"/>
       <use xlink:href="#DejaVuSans-2e" x="63.623047"/>
       <use xlink:href="#DejaVuSans-30" x="95.410156"/>
      </g>
     </g>
    </g>
    <g id="text_15">
     <!-- Virus neutralization -->
     <g transform="translate(22.396875 319.741562) rotate(-90) scale(0.2 -0.2)">
      <defs>
       <path id="DejaVuSans-56" d="M 1831 0 
L 50 4666 
L 709 4666 
L 2188 738 
L 3669 4666 
L 4325 4666 
L 2547 0 
L 1831 0 
z
" transform="scale(0.015625)"/>
       <path id="DejaVuSans-6c" d="M 603 4863 
L 1178 4863 
L 1178 0 
L 603 0 
L 603 4863 
z
" transform="scale(0.015625)"/>
       <path id="DejaVuSans-7a" d="M 353 3500 
L 3084 3500 
L 3084 2975 
L 922 459 
L 3084 459 
L 3084 0 
L 275 0 
L 275 525 
L 2438 3041 
L 353 3041 
L 353 3500 
z
" transform="scale(0.015625)"/>
      </defs>
      <use xlink:href="#DejaVuSans-56"/>
      <use xlink:href="#DejaVuSans-69" x="66.158203"/>
      <use xlink:href="#DejaVuSans-72" x="93.941406"/>
      <use xlink:href="#DejaVuSans-75" x="135.054688"/>
      <use xlink:href="#DejaVuSans-73" x="198.433594"/>
      <use xlink:href="#DejaVuSans-20" x="250.533203"/>
      <use xlink:href="#DejaVuSans-6e" x="282.320312"/>
      <use xlink:href="#DejaVuSans-65" x="345.699219"/>
      <use xlink:href="#DejaVuSans-75" x="407.222656"/>
      <use xlink:href="#DejaVuSans-74" x="470.601562"/>
      <use xlink:href="#DejaVuSans-72" x="509.810547"/>
      <use xlink:href="#DejaVuSans-61" x="550.923828"/>
      <use xlink:href="#DejaVuSans-6c" x="612.203125"/>
      <use xlink:href="#DejaVuSans-69" x="639.986328"/>
      <use xlink:href="#DejaVuSans-7a" x="667.769531"/>
      <use xlink:href="#DejaVuSans-61" x="720.259766"/>
      <use xlink:href="#DejaVuSans-74" x="781.539062"/>
      <use xlink:href="#DejaVuSans-69" x="820.748047"/>
      <use xlink:href="#DejaVuSans-6f" x="848.53125"/>
      <use xlink:href="#DejaVuSans-6e" x="909.712891"/>
     </g>
     <!--  probability -->
     <g transform="translate(44.7925 278.966562) rotate(-90) scale(0.2 -0.2)">
      <defs>
       <path id="DejaVuSans-62" d="M 3116 1747 
Q 3116 2381 2855 2742 
Q 2594 3103 2138 3103 
Q 1681 3103 1420 2742 
Q 1159 2381 1159 1747 
Q 1159 1113 1420 752 
Q 1681 391 2138 391 
Q 2594 391 2855 752 
Q 3116 1113 3116 1747 
z
M 1159 2969 
Q 1341 3281 1617 3432 
Q 1894 3584 2278 3584 
Q 2916 3584 3314 3078 
Q 3713 2572 3713 1747 
Q 3713 922 3314 415 
Q 2916 -91 2278 -91 
Q 1894 -91 1617 61 
Q 1341 213 1159 525 
L 1159 0 
L 581 0 
L 581 4863 
L 1159 4863 
L 1159 2969 
z
" transform="scale(0.015625)"/>
      </defs>
      <use xlink:href="#DejaVuSans-20"/>
      <use xlink:href="#DejaVuSans-70" x="31.787109"/>
      <use xlink:href="#DejaVuSans-72" x="95.263672"/>
      <use xlink:href="#DejaVuSans-6f" x="134.126953"/>
      <use xlink:href="#DejaVuSans-62" x="195.308594"/>
      <use xlink:href="#DejaVuSans-61" x="258.785156"/>
      <use xlink:href="#DejaVuSans-62" x="320.064453"/>
      <use xlink:href="#DejaVuSans-69" x="383.541016"/>
      <use xlink:href="#DejaVuSans-6c" x="411.324219"/>
      <use xlink:href="#DejaVuSans-69" x="439.107422"/>
      <use xlink:href="#DejaVuSans-74" x="466.890625"/>
      <use xlink:href="#DejaVuSans-79" x="506.099609"/>
     </g>
    </g>
   </g>
   <g id="patch_3">
    <path d="M 91.758125 416.476875 
L 91.758125 28.396875 
" style="fill: none; stroke: #000000; stroke-width: 0.8; stroke-linejoin: miter; stroke-linecap: square"/>
   </g>
   <g id="patch_4">
    <path d="M 649.758125 416.476875 
L 649.758125 28.396875 
" style="fill: none; stroke: #000000; stroke-width: 0.8; stroke-linejoin: miter; stroke-linecap: square"/>
   </g>
   <g id="patch_5">
    <path d="M 91.758125 416.476875 
L 649.758125 416.476875 
" style="fill: none; stroke: #000000; stroke-width: 0.8; stroke-linejoin: miter; stroke-linecap: square"/>
   </g>
   <g id="patch_6">
    <path d="M 91.758125 28.396875 
L 649.758125 28.396875 
" style="fill: none; stroke: #000000; stroke-width: 0.8; stroke-linejoin: miter; stroke-linecap: square"/>
   </g>
   <g id="text_16">
    <!-- JN.1 antigen -->
    <g transform="translate(309.605 22.396875) scale(0.2 -0.2)">
     <defs>
      <path id="DejaVuSans-4a" d="M 628 4666 
L 1259 4666 
L 1259 325 
Q 1259 -519 939 -900 
Q 619 -1281 -91 -1281 
L -331 -1281 
L -331 -750 
L -134 -750 
Q 284 -750 456 -515 
Q 628 -281 628 325 
L 628 4666 
z
" transform="scale(0.015625)"/>
      <path id="DejaVuSans-4e" d="M 628 4666 
L 1478 4666 
L 3547 763 
L 3547 4666 
L 4159 4666 
L 4159 0 
L 3309 0 
L 1241 3903 
L 1241 0 
L 628 0 
L 628 4666 
z
" transform="scale(0.015625)"/>
     </defs>
     <use xlink:href="#DejaVuSans-4a"/>
     <use xlink:href="#DejaVuSans-4e" x="29.492188"/>
     <use xlink:href="#DejaVuSans-2e" x="104.296875"/>
     <use xlink:href="#DejaVuSans-31" x="136.083984"/>
     <use xlink:href="#DejaVuSans-20" x="199.707031"/>
     <use xlink:href="#DejaVuSans-61" x="231.494141"/>
     <use xlink:href="#DejaVuSans-6e" x="292.773438"/>
     <use xlink:href="#DejaVuSans-74" x="356.152344"/>
     <use xlink:href="#DejaVuSans-69" x="395.361328"/>
     <use xlink:href="#DejaVuSans-67" x="423.144531"/>
     <use xlink:href="#DejaVuSans-65" x="486.621094"/>
     <use xlink:href="#DejaVuSans-6e" x="548.144531"/>
    </g>
   </g>
   <g id="legend_1">
    <g id="patch_7">
     <path d="M 765.358125 416.476875 
L 869.301875 416.476875 
Q 873.301875 416.476875 873.301875 412.476875 
L 873.301875 385.120625 
Q 873.301875 381.120625 869.301875 381.120625 
L 765.358125 381.120625 
Q 761.358125 381.120625 761.358125 385.120625 
L 761.358125 412.476875 
Q 761.358125 416.476875 765.358125 416.476875 
z
" style="fill: #ffffff; opacity: 0.8; stroke: #cccccc; stroke-linejoin: miter"/>
    </g>
    <g id="patch_8">
     <path d="M 769.358125 404.3175 
L 809.358125 404.3175 
L 809.358125 390.3175 
L 769.358125 390.3175 
z
" style="fill: #ffa500; fill-opacity: 0.3; stroke: #ffa500; stroke-opacity: 0.3; stroke-linejoin: miter"/>
    </g>
    <g id="text_17">
     <!-- JN.1 -->
     <g transform="translate(825.358125 404.3175) scale(0.2 -0.2)">
      <use xlink:href="#DejaVuSans-4a"/>
      <use xlink:href="#DejaVuSans-4e" x="29.492188"/>
      <use xlink:href="#DejaVuSans-2e" x="104.296875"/>
      <use xlink:href="#DejaVuSans-31" x="136.083984"/>
     </g>
    </g>
   </g>
  </g>
 </g>
 <defs>
  <clipPath id="p1ac42db8aa">
   <rect x="91.758125" y="28.396875" width="558" height="388.08"/>
  </clipPath>
 </defs>
</svg>
