<?xml version="1.0" encoding="utf-8" standalone="no"?>
<!DOCTYPE svg PUBLIC "-//W3C//DTD SVG 1.1//EN"
  "http://www.w3.org/Graphics/SVG/1.1/DTD/svg11.dtd">
<svg xmlns:xlink="http://www.w3.org/1999/xlink" width="954.339375pt" height="473.389375pt" viewBox="0 0 954.339375 473.389375" xmlns="http://www.w3.org/2000/svg" version="1.1">
 <metadata>
  <rdf:RDF xmlns:dc="http://purl.org/dc/elements/1.1/" xmlns:cc="http://creativecommons.org/ns#" xmlns:rdf="http://www.w3.org/1999/02/22-rdf-syntax-ns#">
   <cc:Work>
    <dc:type rdf:resource="http://purl.org/dc/dcmitype/StillImage"/>
    <dc:date>2024-04-09T15:12:55.490488</dc:date>
    <dc:format>image/svg+xml</dc:format>
    <dc:creator>
     <cc:Agent>
      <dc:title>Matplotlib v3.7.0, https://matplotlib.org/</dc:title>
     </cc:Agent>
    </dc:creator>
   </cc:Work>
  </rdf:RDF>
 </metadata>
 <defs>
  <style type="text/css">*{stroke-linejoin: round; stroke-linecap: butt}</style>
 </defs>
 <g id="figure_1">
  <g id="patch_1">
   <path d="M 0 473.389375 
L 954.339375 473.389375 
L 954.339375 0 
L 0 0 
z
" style="fill: #ffffff"/>
  </g>
  <g id="axes_1">
   <g id="patch_2">
    <path d="M 108.5175 416.476875 
L 666.5175 416.476875 
L 666.5175 28.396875 
L 108.5175 28.396875 
z
" style="fill: #ffffff"/>
   </g>
   <g id="PolyCollection_1">
    <defs>
     <path id="m101a011627" d="M 133.881136 -214.391676 
L 133.881136 -153.969922 
L 134.656783 -191.572561 
L 135.432429 -223.310622 
L 136.208075 -250.279389 
L 136.983722 -273.330808 
L 137.759368 -293.134862 
L 138.535015 -310.223788 
L 139.310661 -325.024375 
L 140.086307 -337.881832 
L 140.861954 -349.07765 
L 141.6376 -358.843096 
L 142.413246 -367.369517 
L 143.188893 -374.816285 
L 143.964539 -381.316962 
L 144.740186 -386.984146 
L 145.515832 -391.913284 
L 146.291478 -396.185718 
L 147.067125 -399.871113 
L 147.842771 -403.029426 
L 148.618417 -405.003732 
L 149.394064 -402.149607 
L 150.16971 -399.058895 
L 150.945357 -395.76482 
L 151.721003 -392.29626 
L 152.496649 -388.678464 
L 153.272296 -384.933628 
L 154.047942 -381.081357 
L 154.823588 -377.139032 
L 155.599235 -373.12212 
L 156.374881 -369.044426 
L 157.150528 -364.918302 
L 157.926174 -360.754823 
L 158.70182 -356.563937 
L 159.477467 -352.354593 
L 160.253113 -348.134851 
L 161.028759 -343.911975 
L 161.804406 -339.692516 
L 162.580052 -335.482384 
L 163.355698 -331.28691 
L 164.131345 -327.110905 
L 164.906991 -322.958705 
L 165.682638 -318.834219 
L 166.458284 -314.740964 
L 167.23393 -310.682104 
L 168.009577 -306.660477 
L 168.785223 -302.678627 
L 169.560869 -298.738827 
L 170.336516 -294.843104 
L 171.112162 -290.993256 
L 171.887809 -287.190874 
L 172.663455 -283.437359 
L 173.439101 -279.733934 
L 174.214748 -276.08166 
L 174.990394 -272.481453 
L 175.76604 -268.934086 
L 176.541687 -265.440209 
L 177.317333 -262.000355 
L 178.09298 -258.614947 
L 178.868626 -255.284309 
L 179.644272 -252.008674 
L 180.419919 -248.788189 
L 181.195565 -245.62292 
L 181.971211 -242.512864 
L 182.746858 -239.457949 
L 183.522504 -236.45804 
L 184.298151 -233.512945 
L 185.073797 -230.62242 
L 185.849443 -227.786171 
L 186.62509 -225.00386 
L 187.400736 -222.275108 
L 188.176382 -219.599496 
L 188.952029 -216.976572 
L 189.727675 -214.405852 
L 190.503322 -211.886821 
L 191.278968 -209.41894 
L 192.054614 -207.001645 
L 192.830261 -204.63435 
L 193.605907 -202.31645 
L 194.381553 -200.047322 
L 195.1572 -197.826327 
L 195.932846 -195.652814 
L 196.708492 -193.526117 
L 197.484139 -191.445561 
L 198.259785 -189.410464 
L 199.035432 -187.420132 
L 199.811078 -185.473869 
L 200.586724 -183.570971 
L 201.362371 -181.710731 
L 202.138017 -179.89244 
L 202.913663 -178.115387 
L 203.68931 -176.378858 
L 204.464956 -174.682142 
L 205.240603 -173.024528 
L 206.016249 -171.405306 
L 206.791895 -169.823769 
L 207.567542 -168.279214 
L 208.343188 -166.770939 
L 209.118834 -165.298249 
L 209.894481 -163.860454 
L 210.670127 -162.456867 
L 211.445774 -161.086808 
L 212.22142 -159.749605 
L 212.997066 -158.444591 
L 213.772713 -157.171105 
L 214.548359 -155.928495 
L 215.324005 -154.716116 
L 216.099652 -153.533332 
L 216.875298 -152.379513 
L 217.650945 -151.254039 
L 218.426591 -150.156298 
L 219.202237 -149.085687 
L 219.977884 -148.041611 
L 220.75353 -147.023484 
L 221.529176 -146.03073 
L 222.304823 -145.062782 
L 223.080469 -144.119081 
L 223.856116 -143.199079 
L 224.631762 -142.302236 
L 225.407408 -141.428022 
L 226.183055 -140.575915 
L 226.958701 -139.745405 
L 227.734347 -138.935987 
L 228.509994 -138.147171 
L 229.28564 -137.378471 
L 230.061286 -136.629413 
L 230.836933 -135.899531 
L 231.612579 -135.188369 
L 232.388226 -134.49548 
L 233.163872 -133.820425 
L 233.939518 -133.162774 
L 234.715165 -132.522107 
L 235.490811 -131.898011 
L 236.266457 -131.290083 
L 237.042104 -130.697927 
L 237.81775 -130.121157 
L 238.593397 -129.559395 
L 239.369043 -129.01227 
L 240.144689 -128.479421 
L 240.920336 -127.960491 
L 241.695982 -127.455136 
L 242.471628 -126.963017 
L 243.247275 -126.483801 
L 244.022921 -126.017166 
L 244.798568 -125.562795 
L 245.574214 -125.120379 
L 246.34986 -124.689615 
L 247.125507 -124.27021 
L 247.901153 -123.861873 
L 248.676799 -123.464325 
L 249.452446 -123.077289 
L 250.228092 -122.700497 
L 251.003739 -122.333687 
L 251.779385 -121.976604 
L 252.555031 -121.628997 
L 253.330678 -121.290622 
L 254.106324 -120.961242 
L 254.88197 -120.640624 
L 255.657617 -120.328542 
L 256.433263 -120.024774 
L 257.20891 -119.729105 
L 257.984556 -119.441325 
L 258.760202 -119.161228 
L 259.535849 -118.888613 
L 260.311495 -118.623287 
L 261.087141 -118.365058 
L 261.862788 -118.11374 
L 262.638434 -117.869153 
L 263.41408 -117.631121 
L 264.189727 -117.39947 
L 264.965373 -117.174034 
L 265.74102 -116.954649 
L 266.516666 -116.741155 
L 267.292312 -116.533397 
L 268.067959 -116.331223 
L 268.843605 -116.134487 
L 269.619251 -115.943044 
L 270.394898 -115.756755 
L 271.170544 -115.575482 
L 271.946191 -115.399093 
L 272.721837 -115.227457 
L 273.497483 -115.060449 
L 274.27313 -114.897946 
L 275.048776 -114.739828 
L 275.824422 -114.585978 
L 276.600069 -114.436282 
L 277.375715 -114.29063 
L 278.151362 -114.148914 
L 278.927008 -114.011028 
L 279.702654 -113.87687 
L 280.478301 -113.74634 
L 281.253947 -113.619343 
L 282.029593 -113.495782 
L 282.80524 -113.375566 
L 283.580886 -113.258605 
L 284.356533 -113.144812 
L 285.132179 -113.034102 
L 285.907825 -112.926392 
L 286.683472 -112.821602 
L 287.459118 -112.719653 
L 288.234764 -112.620469 
L 289.010411 -112.523975 
L 289.786057 -112.430099 
L 290.561704 -112.33877 
L 291.33735 -112.249921 
L 292.112996 -112.163483 
L 292.888643 -112.079393 
L 293.664289 -111.997586 
L 294.439935 -111.918002 
L 295.215582 -111.840579 
L 295.991228 -111.765261 
L 296.766874 -111.69199 
L 297.542521 -111.62071 
L 298.318167 -111.551368 
L 299.093814 -111.483912 
L 299.86946 -111.41829 
L 300.645106 -111.354454 
L 301.420753 -111.292353 
L 302.196399 -111.231943 
L 302.972045 -111.173176 
L 303.747692 -111.116009 
L 304.523338 -111.060397 
L 305.298985 -111.0063 
L 306.074631 -110.953675 
L 306.850277 -110.902483 
L 307.625924 -110.852686 
L 308.40157 -110.804244 
L 309.177216 -110.757122 
L 309.952863 -110.711284 
L 310.728509 -110.666694 
L 311.504156 -110.623319 
L 312.279802 -110.581127 
L 313.055448 -110.540084 
L 313.831095 -110.500159 
L 314.606741 -110.461323 
L 315.382387 -110.423546 
L 316.158034 -110.386798 
L 316.93368 -110.351053 
L 317.709327 -110.316282 
L 318.484973 -110.282459 
L 319.260619 -110.249558 
L 320.036266 -110.217555 
L 320.811912 -110.186424 
L 321.587558 -110.156143 
L 322.363205 -110.126688 
L 323.138851 -110.098036 
L 323.914497 -110.070166 
L 324.690144 -110.043056 
L 325.46579 -110.016686 
L 326.241437 -109.991036 
L 327.017083 -109.966086 
L 327.792729 -109.941816 
L 328.568376 -109.918209 
L 329.344022 -109.895246 
L 330.119668 -109.87291 
L 330.895315 -109.851183 
L 331.670961 -109.83005 
L 332.446608 -109.809494 
L 333.222254 -109.789498 
L 333.9979 -109.770049 
L 334.773547 -109.751131 
L 335.549193 -109.732729 
L 336.324839 -109.714829 
L 337.100486 -109.697419 
L 337.876132 -109.680483 
L 338.651779 -109.664011 
L 339.427425 -109.647988 
L 340.203071 -109.632402 
L 340.978718 -109.617243 
L 341.754364 -109.602497 
L 342.53001 -109.588154 
L 343.305657 -109.574203 
L 344.081303 -109.560633 
L 344.85695 -109.547434 
L 345.632596 -109.534595 
L 346.408242 -109.522107 
L 347.183889 -109.50996 
L 347.959535 -109.498144 
L 348.735181 -109.486652 
L 349.510828 -109.475474 
L 350.286474 -109.464601 
L 351.062121 -109.454025 
L 351.837767 -109.443738 
L 352.613413 -109.433732 
L 353.38906 -109.423999 
L 354.164706 -109.414533 
L 354.940352 -109.405325 
L 355.715999 -109.396368 
L 356.491645 -109.387657 
L 357.267291 -109.379183 
L 358.042938 -109.370941 
L 358.818584 -109.362924 
L 359.594231 -109.355127 
L 360.369877 -109.347542 
L 361.145523 -109.340165 
L 361.92117 -109.332989 
L 362.696816 -109.326009 
L 363.472462 -109.319221 
L 364.248109 -109.312617 
L 365.023755 -109.306194 
L 365.799402 -109.299947 
L 366.575048 -109.293871 
L 367.350694 -109.28796 
L 368.126341 -109.282211 
L 368.901987 -109.276619 
L 369.677633 -109.27118 
L 370.45328 -109.26589 
L 371.228926 -109.260744 
L 372.004573 -109.255739 
L 372.780219 -109.250871 
L 373.555865 -109.246136 
L 374.331512 -109.24153 
L 375.107158 -109.23705 
L 375.882804 -109.232693 
L 376.658451 -109.228455 
L 377.434097 -109.224332 
L 378.209744 -109.220323 
L 378.98539 -109.216423 
L 379.761036 -109.212629 
L 380.536683 -109.208939 
L 381.312329 -109.20535 
L 382.087975 -109.20186 
L 382.863622 -109.198464 
L 383.639268 -109.195162 
L 384.414915 -109.191949 
L 385.190561 -109.188825 
L 385.966207 -109.185786 
L 386.741854 -109.18283 
L 387.5175 -109.179955 
L 388.293146 -109.177158 
L 389.068793 -109.174438 
L 389.844439 -109.171792 
L 390.620085 -109.169219 
L 391.395732 -109.166716 
L 392.171378 -109.164281 
L 392.947025 -109.161913 
L 393.722671 -109.15961 
L 394.498317 -109.15737 
L 395.273964 -109.155191 
L 396.04961 -109.153071 
L 396.825256 -109.15101 
L 397.600903 -109.149004 
L 398.376549 -109.147054 
L 399.152196 -109.145157 
L 399.927842 -109.143312 
L 400.703488 -109.141517 
L 401.479135 -109.139771 
L 402.254781 -109.138073 
L 403.030427 -109.136422 
L 403.806074 -109.134816 
L 404.58172 -109.133253 
L 405.357367 -109.131733 
L 406.133013 -109.130255 
L 406.908659 -109.128817 
L 407.684306 -109.127419 
L 408.459952 -109.126059 
L 409.235598 -109.124736 
L 410.011245 -109.123449 
L 410.786891 -109.122197 
L 411.562538 -109.12098 
L 412.338184 -109.119796 
L 413.11383 -109.118644 
L 413.889477 -109.117524 
L 414.665123 -109.116434 
L 415.440769 -109.115374 
L 416.216416 -109.114343 
L 416.992062 -109.113341 
L 417.767709 -109.112365 
L 418.543355 -109.111417 
L 419.319001 -109.110494 
L 420.094648 -109.109597 
L 420.870294 -109.108724 
L 421.64594 -109.107875 
L 422.421587 -109.107049 
L 423.197233 -109.106246 
L 423.972879 -109.105465 
L 424.748526 -109.104705 
L 425.524172 -109.103966 
L 426.299819 -109.103247 
L 427.075465 -109.102547 
L 427.851111 -109.101867 
L 428.626758 -109.101206 
L 429.402404 -109.100562 
L 430.17805 -109.099936 
L 430.953697 -109.099328 
L 431.729343 -109.098736 
L 432.50499 -109.09816 
L 433.280636 -109.097599 
L 434.056282 -109.097055 
L 434.831929 -109.096525 
L 435.607575 -109.096009 
L 436.383221 -109.095508 
L 437.158868 -109.09502 
L 437.934514 -109.094546 
L 438.710161 -109.094085 
L 439.485807 -109.093636 
L 440.261453 -109.093199 
L 441.0371 -109.092775 
L 441.812746 -109.092362 
L 442.588392 -109.09196 
L 443.364039 -109.09157 
L 444.139685 -109.09119 
L 444.915332 -109.09082 
L 445.690978 -109.090461 
L 446.466624 -109.090111 
L 447.242271 -109.089771 
L 448.017917 -109.08944 
L 448.793563 -109.089118 
L 449.56921 -109.088805 
L 450.344856 -109.088501 
L 451.120503 -109.088205 
L 451.896149 -109.087917 
L 452.671795 -109.087637 
L 453.447442 -109.087365 
L 454.223088 -109.0871 
L 454.998734 -109.086842 
L 455.774381 -109.086591 
L 456.550027 -109.086347 
L 457.325673 -109.08611 
L 458.10132 -109.085879 
L 458.876966 -109.085655 
L 459.652613 -109.085437 
L 460.428259 -109.085225 
L 461.203905 -109.085018 
L 461.979552 -109.084817 
L 462.755198 -109.084622 
L 463.530844 -109.084432 
L 464.306491 -109.084247 
L 465.082137 -109.084067 
L 465.857784 -109.083893 
L 466.63343 -109.083723 
L 467.409076 -109.083557 
L 468.184723 -109.083396 
L 468.960369 -109.08324 
L 469.736015 -109.083088 
L 470.511662 -109.08294 
L 471.287308 -109.082796 
L 472.062955 -109.082656 
L 472.838601 -109.082519 
L 473.614247 -109.082387 
L 474.389894 -109.082258 
L 475.16554 -109.082133 
L 475.941186 -109.082011 
L 476.716833 -109.081892 
L 477.492479 -109.081777 
L 478.268126 -109.081665 
L 479.043772 -109.081556 
L 479.819418 -109.081449 
L 480.595065 -109.081346 
L 481.370711 -109.081246 
L 482.146357 -109.081148 
L 482.922004 -109.081053 
L 483.69765 -109.080961 
L 484.473296 -109.080871 
L 485.248943 -109.080783 
L 486.024589 -109.080698 
L 486.800236 -109.080616 
L 487.575882 -109.080535 
L 488.351528 -109.080457 
L 489.127175 -109.080381 
L 489.902821 -109.080307 
L 490.678467 -109.080235 
L 491.454114 -109.080165 
L 492.22976 -109.080097 
L 493.005407 -109.080031 
L 493.781053 -109.079966 
L 494.556699 -109.079903 
L 495.332346 -109.079843 
L 496.107992 -109.079783 
L 496.883638 -109.079726 
L 497.659285 -109.079669 
L 498.434931 -109.079615 
L 499.210578 -109.079562 
L 499.986224 -109.07951 
L 500.76187 -109.07946 
L 501.537517 -109.079411 
L 502.313163 -109.079364 
L 503.088809 -109.079318 
L 503.864456 -109.079273 
L 504.640102 -109.079229 
L 505.415749 -109.079186 
L 506.191395 -109.079145 
L 506.967041 -109.079105 
L 507.742688 -109.079066 
L 508.518334 -109.079028 
L 509.29398 -109.078991 
L 510.069627 -109.078955 
L 510.845273 -109.07892 
L 511.62092 -109.078886 
L 512.396566 -109.078852 
L 513.172212 -109.07882 
L 513.947859 -109.078789 
L 514.723505 -109.078758 
L 515.499151 -109.078729 
L 516.274798 -109.0787 
L 517.050444 -109.078672 
L 517.82609 -109.078645 
L 518.601737 -109.078618 
L 519.377383 -109.078592 
L 520.15303 -109.078567 
L 520.928676 -109.078543 
L 521.704322 -109.078519 
L 522.479969 -109.078496 
L 523.255615 -109.078473 
L 524.031261 -109.078452 
L 524.806908 -109.07843 
L 525.582554 -109.07841 
L 526.358201 -109.07839 
L 527.133847 -109.07837 
L 527.909493 -109.078351 
L 528.68514 -109.078332 
L 529.460786 -109.078314 
L 530.236432 -109.078297 
L 531.012079 -109.07828 
L 531.787725 -109.078263 
L 532.563372 -109.078247 
L 533.339018 -109.078232 
L 534.114664 -109.078216 
L 534.890311 -109.078202 
L 535.665957 -109.078187 
L 536.441603 -109.078173 
L 537.21725 -109.078159 
L 537.992896 -109.078146 
L 538.768543 -109.078133 
L 539.544189 -109.078121 
L 540.319835 -109.078108 
L 541.095482 -109.078097 
L 541.871128 -109.078085 
L 542.646774 -109.078074 
L 543.422421 -109.078063 
L 544.198067 -109.078052 
L 544.973714 -109.078042 
L 545.74936 -109.078032 
L 546.525006 -109.078022 
L 547.300653 -109.078013 
L 548.076299 -109.078003 
L 548.851945 -109.077994 
L 549.627592 -109.077986 
L 550.403238 -109.077977 
L 551.178884 -109.077969 
L 551.954531 -109.077961 
L 552.730177 -109.077953 
L 553.505824 -109.077945 
L 554.28147 -109.077938 
L 555.057116 -109.077931 
L 555.832763 -109.077924 
L 556.608409 -109.077917 
L 557.384055 -109.07791 
L 558.159702 -109.077904 
L 558.935348 -109.077897 
L 559.710995 -109.077891 
L 560.486641 -109.077885 
L 561.262287 -109.07788 
L 562.037934 -109.077874 
L 562.81358 -109.077869 
L 563.589226 -109.077863 
L 564.364873 -109.077858 
L 565.140519 -109.077853 
L 565.916166 -109.077848 
L 566.691812 -109.077843 
L 567.467458 -109.077839 
L 568.243105 -109.077834 
L 569.018751 -109.07783 
L 569.794397 -109.077826 
L 570.570044 -109.077822 
L 571.34569 -109.077818 
L 572.121337 -109.077814 
L 572.896983 -109.07781 
L 573.672629 -109.077806 
L 574.448276 -109.077802 
L 575.223922 -109.077799 
L 575.999568 -109.077796 
L 576.775215 -109.077792 
L 577.550861 -109.077789 
L 578.326508 -109.077786 
L 579.102154 -109.077783 
L 579.8778 -109.07778 
L 580.653447 -109.077777 
L 581.429093 -109.077774 
L 582.204739 -109.077771 
L 582.980386 -109.077769 
L 583.756032 -109.077766 
L 584.531678 -109.077764 
L 585.307325 -109.077761 
L 586.082971 -109.077759 
L 586.858618 -109.077757 
L 587.634264 -109.077754 
L 588.40991 -109.077752 
L 589.185557 -109.07775 
L 589.961203 -109.077748 
L 590.736849 -109.077746 
L 591.512496 -109.077744 
L 592.288142 -109.077742 
L 593.063789 -109.07774 
L 593.839435 -109.077738 
L 594.615081 -109.077737 
L 595.390728 -109.077735 
L 596.166374 -109.077733 
L 596.94202 -109.077732 
L 597.717667 -109.07773 
L 598.493313 -109.077729 
L 599.26896 -109.077727 
L 600.044606 -109.077726 
L 600.820252 -109.077724 
L 601.595899 -109.077723 
L 602.371545 -109.077722 
L 603.147191 -109.07772 
L 603.922838 -109.077719 
L 604.698484 -109.077718 
L 605.474131 -109.077717 
L 606.249777 -109.077715 
L 607.025423 -109.077714 
L 607.80107 -109.077713 
L 608.576716 -109.077712 
L 609.352362 -109.077711 
L 610.128009 -109.07771 
L 610.903655 -109.077709 
L 611.679302 -109.077708 
L 612.454948 -109.077707 
L 613.230594 -109.077706 
L 614.006241 -109.077705 
L 614.781887 -109.077705 
L 615.557533 -109.077704 
L 616.33318 -109.077703 
L 617.108826 -109.077702 
L 617.884472 -109.077701 
L 618.660119 -109.077701 
L 619.435765 -109.0777 
L 620.211412 -109.077699 
L 620.987058 -109.077699 
L 621.762704 -109.077698 
L 622.538351 -109.077697 
L 623.313997 -109.077697 
L 624.089643 -109.077696 
L 624.86529 -109.077695 
L 625.640936 -109.077695 
L 626.416583 -109.077694 
L 627.192229 -109.077694 
L 627.967875 -109.077693 
L 628.743522 -109.077693 
L 629.519168 -109.077692 
L 630.294814 -109.077692 
L 631.070461 -109.077691 
L 631.846107 -109.077691 
L 632.621754 -109.07769 
L 633.3974 -109.07769 
L 634.173046 -109.077689 
L 634.948693 -109.077689 
L 635.724339 -109.077689 
L 636.499985 -109.077688 
L 637.275632 -109.077688 
L 638.051278 -109.077687 
L 638.826925 -109.077687 
L 639.602571 -109.077687 
L 640.378217 -109.077686 
L 641.153864 -109.077686 
L 641.153864 -110.117597 
L 641.153864 -110.117597 
L 640.378217 -110.128084 
L 639.602571 -110.138676 
L 638.826925 -110.149375 
L 638.051278 -110.160182 
L 637.275632 -110.171097 
L 636.499985 -110.182123 
L 635.724339 -110.193259 
L 634.948693 -110.204508 
L 634.173046 -110.21587 
L 633.3974 -110.227346 
L 632.621754 -110.238938 
L 631.846107 -110.250646 
L 631.070461 -110.262473 
L 630.294814 -110.274419 
L 629.519168 -110.286484 
L 628.743522 -110.298672 
L 627.967875 -110.310982 
L 627.192229 -110.323416 
L 626.416583 -110.335975 
L 625.640936 -110.34866 
L 624.86529 -110.361474 
L 624.089643 -110.374416 
L 623.313997 -110.387488 
L 622.538351 -110.400692 
L 621.762704 -110.414029 
L 620.987058 -110.427501 
L 620.211412 -110.441107 
L 619.435765 -110.454851 
L 618.660119 -110.468733 
L 617.884472 -110.482755 
L 617.108826 -110.496918 
L 616.33318 -110.511223 
L 615.557533 -110.525673 
L 614.781887 -110.540268 
L 614.006241 -110.555009 
L 613.230594 -110.569899 
L 612.454948 -110.584939 
L 611.679302 -110.60013 
L 610.903655 -110.615474 
L 610.128009 -110.630972 
L 609.352362 -110.646626 
L 608.576716 -110.662438 
L 607.80107 -110.678409 
L 607.025423 -110.69454 
L 606.249777 -110.710834 
L 605.474131 -110.727291 
L 604.698484 -110.743914 
L 603.922838 -110.760705 
L 603.147191 -110.777664 
L 602.371545 -110.794793 
L 601.595899 -110.812095 
L 600.820252 -110.829571 
L 600.044606 -110.847223 
L 599.26896 -110.865052 
L 598.493313 -110.88306 
L 597.717667 -110.90125 
L 596.94202 -110.919622 
L 596.166374 -110.938179 
L 595.390728 -110.956922 
L 594.615081 -110.975854 
L 593.839435 -110.994977 
L 593.063789 -111.014291 
L 592.288142 -111.0338 
L 591.512496 -111.053504 
L 590.736849 -111.073407 
L 589.961203 -111.09351 
L 589.185557 -111.113815 
L 588.40991 -111.134323 
L 587.634264 -111.155038 
L 586.858618 -111.175961 
L 586.082971 -111.197094 
L 585.307325 -111.21844 
L 584.531678 -111.24 
L 583.756032 -111.261776 
L 582.980386 -111.283772 
L 582.204739 -111.305988 
L 581.429093 -111.328427 
L 580.653447 -111.351092 
L 579.8778 -111.373985 
L 579.102154 -111.397107 
L 578.326508 -111.420461 
L 577.550861 -111.44405 
L 576.775215 -111.467876 
L 575.999568 -111.491941 
L 575.223922 -111.516248 
L 574.448276 -111.540799 
L 573.672629 -111.565596 
L 572.896983 -111.590642 
L 572.121337 -111.61594 
L 571.34569 -111.641491 
L 570.570044 -111.667299 
L 569.794397 -111.693366 
L 569.018751 -111.719694 
L 568.243105 -111.746287 
L 567.467458 -111.773146 
L 566.691812 -111.800275 
L 565.916166 -111.827676 
L 565.140519 -111.855352 
L 564.364873 -111.883306 
L 563.589226 -111.91154 
L 562.81358 -111.940057 
L 562.037934 -111.968861 
L 561.262287 -111.997953 
L 560.486641 -112.027336 
L 559.710995 -112.057015 
L 558.935348 -112.086991 
L 558.159702 -112.117268 
L 557.384055 -112.147848 
L 556.608409 -112.178734 
L 555.832763 -112.209931 
L 555.057116 -112.24144 
L 554.28147 -112.273265 
L 553.505824 -112.305408 
L 552.730177 -112.337874 
L 551.954531 -112.370665 
L 551.178884 -112.403785 
L 550.403238 -112.437236 
L 549.627592 -112.471023 
L 548.851945 -112.505148 
L 548.076299 -112.539615 
L 547.300653 -112.574427 
L 546.525006 -112.609587 
L 545.74936 -112.6451 
L 544.973714 -112.680969 
L 544.198067 -112.717196 
L 543.422421 -112.753786 
L 542.646774 -112.790742 
L 541.871128 -112.828069 
L 541.095482 -112.865769 
L 540.319835 -112.903846 
L 539.544189 -112.942304 
L 538.768543 -112.981147 
L 537.992896 -113.020379 
L 537.21725 -113.060003 
L 536.441603 -113.100024 
L 535.665957 -113.140444 
L 534.890311 -113.181269 
L 534.114664 -113.222503 
L 533.339018 -113.264148 
L 532.563372 -113.30621 
L 531.787725 -113.348693 
L 531.012079 -113.3916 
L 530.236432 -113.434936 
L 529.460786 -113.478706 
L 528.68514 -113.522912 
L 527.909493 -113.56756 
L 527.133847 -113.612655 
L 526.358201 -113.6582 
L 525.582554 -113.7042 
L 524.806908 -113.750659 
L 524.031261 -113.797582 
L 523.255615 -113.844974 
L 522.479969 -113.892839 
L 521.704322 -113.941182 
L 520.928676 -113.990008 
L 520.15303 -114.039321 
L 519.377383 -114.089126 
L 518.601737 -114.139428 
L 517.82609 -114.190232 
L 517.050444 -114.241543 
L 516.274798 -114.293366 
L 515.499151 -114.345705 
L 514.723505 -114.398567 
L 513.947859 -114.451955 
L 513.172212 -114.505876 
L 512.396566 -114.560335 
L 511.62092 -114.615336 
L 510.845273 -114.670886 
L 510.069627 -114.726989 
L 509.29398 -114.783651 
L 508.518334 -114.840878 
L 507.742688 -114.898675 
L 506.967041 -114.957047 
L 506.191395 -115.016001 
L 505.415749 -115.075541 
L 504.640102 -115.135675 
L 503.864456 -115.196407 
L 503.088809 -115.257744 
L 502.313163 -115.319691 
L 501.537517 -115.382254 
L 500.76187 -115.44544 
L 499.986224 -115.509254 
L 499.210578 -115.573703 
L 498.434931 -115.638793 
L 497.659285 -115.70453 
L 496.883638 -115.77092 
L 496.107992 -115.837971 
L 495.332346 -115.905688 
L 494.556699 -115.974077 
L 493.781053 -116.043146 
L 493.005407 -116.112901 
L 492.22976 -116.183349 
L 491.454114 -116.254497 
L 490.678467 -116.32635 
L 489.902821 -116.398917 
L 489.127175 -116.472205 
L 488.351528 -116.546219 
L 487.575882 -116.620968 
L 486.800236 -116.696458 
L 486.024589 -116.772697 
L 485.248943 -116.849692 
L 484.473296 -116.92745 
L 483.69765 -117.005979 
L 482.922004 -117.085287 
L 482.146357 -117.16538 
L 481.370711 -117.246266 
L 480.595065 -117.327954 
L 479.819418 -117.410451 
L 479.043772 -117.493764 
L 478.268126 -117.577903 
L 477.492479 -117.662873 
L 476.716833 -117.748685 
L 475.941186 -117.835346 
L 475.16554 -117.922864 
L 474.389894 -118.011247 
L 473.614247 -118.100504 
L 472.838601 -118.190643 
L 472.062955 -118.281673 
L 471.287308 -118.373603 
L 470.511662 -118.46644 
L 469.736015 -118.560195 
L 468.960369 -118.654875 
L 468.184723 -118.75049 
L 467.409076 -118.847048 
L 466.63343 -118.944559 
L 465.857784 -119.043033 
L 465.082137 -119.142477 
L 464.306491 -119.242902 
L 463.530844 -119.344316 
L 462.755198 -119.446731 
L 461.979552 -119.550154 
L 461.203905 -119.654596 
L 460.428259 -119.760067 
L 459.652613 -119.866576 
L 458.876966 -119.974133 
L 458.10132 -120.082749 
L 457.325673 -120.192433 
L 456.550027 -120.303196 
L 455.774381 -120.415048 
L 454.998734 -120.528 
L 454.223088 -120.642061 
L 453.447442 -120.757244 
L 452.671795 -120.873557 
L 451.896149 -120.991013 
L 451.120503 -121.109621 
L 450.344856 -121.229394 
L 449.56921 -121.350341 
L 448.793563 -121.472475 
L 448.017917 -121.595806 
L 447.242271 -121.720346 
L 446.466624 -121.846107 
L 445.690978 -121.973099 
L 444.915332 -122.101335 
L 444.139685 -122.230827 
L 443.364039 -122.361585 
L 442.588392 -122.493623 
L 441.812746 -122.626953 
L 441.0371 -122.761586 
L 440.261453 -122.897535 
L 439.485807 -123.034812 
L 438.710161 -123.173431 
L 437.934514 -123.313402 
L 437.158868 -123.45474 
L 436.383221 -123.597457 
L 435.607575 -123.741567 
L 434.831929 -123.887081 
L 434.056282 -124.034014 
L 433.280636 -124.182378 
L 432.50499 -124.332188 
L 431.729343 -124.483456 
L 430.953697 -124.636197 
L 430.17805 -124.790424 
L 429.402404 -124.94615 
L 428.626758 -125.103391 
L 427.851111 -125.26216 
L 427.075465 -125.422471 
L 426.299819 -125.584339 
L 425.524172 -125.747778 
L 424.748526 -125.912803 
L 423.972879 -126.079429 
L 423.197233 -126.24767 
L 422.421587 -126.417541 
L 421.64594 -126.589058 
L 420.870294 -126.762236 
L 420.094648 -126.93709 
L 419.319001 -127.113636 
L 418.543355 -127.291889 
L 417.767709 -127.471865 
L 416.992062 -127.653579 
L 416.216416 -127.837049 
L 415.440769 -128.022289 
L 414.665123 -128.209317 
L 413.889477 -128.398149 
L 413.11383 -128.588801 
L 412.338184 -128.78129 
L 411.562538 -128.975632 
L 410.786891 -129.171846 
L 410.011245 -129.369947 
L 409.235598 -129.569953 
L 408.459952 -129.771881 
L 407.684306 -129.975749 
L 406.908659 -130.181575 
L 406.133013 -130.389376 
L 405.357367 -130.59917 
L 404.58172 -130.810975 
L 403.806074 -131.02481 
L 403.030427 -131.240692 
L 402.254781 -131.458641 
L 401.479135 -131.678675 
L 400.703488 -131.900812 
L 399.927842 -132.125072 
L 399.152196 -132.351474 
L 398.376549 -132.580036 
L 397.600903 -132.810779 
L 396.825256 -133.043721 
L 396.04961 -133.278883 
L 395.273964 -133.516284 
L 394.498317 -133.755944 
L 393.722671 -133.997884 
L 392.947025 -134.242123 
L 392.171378 -134.488682 
L 391.395732 -134.737581 
L 390.620085 -134.988842 
L 389.844439 -135.242485 
L 389.068793 -135.498531 
L 388.293146 -135.757001 
L 387.5175 -136.017917 
L 386.741854 -136.281301 
L 385.966207 -136.547173 
L 385.190561 -136.815555 
L 384.414915 -137.08647 
L 383.639268 -137.35994 
L 382.863622 -137.635987 
L 382.087975 -137.914633 
L 381.312329 -138.195901 
L 380.536683 -138.479813 
L 379.761036 -138.766393 
L 378.98539 -139.055664 
L 378.209744 -139.347649 
L 377.434097 -139.642371 
L 376.658451 -139.939854 
L 375.882804 -140.240121 
L 375.107158 -140.543197 
L 374.331512 -140.849105 
L 373.555865 -141.15787 
L 372.780219 -141.469515 
L 372.004573 -141.784066 
L 371.228926 -142.101547 
L 370.45328 -142.421983 
L 369.677633 -142.745399 
L 368.901987 -143.07182 
L 368.126341 -143.401271 
L 367.350694 -143.733778 
L 366.575048 -144.069366 
L 365.799402 -144.408062 
L 365.023755 -144.749891 
L 364.248109 -145.094879 
L 363.472462 -145.443052 
L 362.696816 -145.794438 
L 361.92117 -146.149062 
L 361.145523 -146.506952 
L 360.369877 -146.868133 
L 359.594231 -147.232634 
L 358.818584 -147.600482 
L 358.042938 -147.971703 
L 357.267291 -148.346326 
L 356.491645 -148.724378 
L 355.715999 -149.105887 
L 354.940352 -149.49088 
L 354.164706 -149.879387 
L 353.38906 -150.271436 
L 352.613413 -150.667054 
L 351.837767 -151.066271 
L 351.062121 -151.469115 
L 350.286474 -151.875616 
L 349.510828 -152.285801 
L 348.735181 -152.699701 
L 347.959535 -153.117345 
L 347.183889 -153.538763 
L 346.408242 -153.963984 
L 345.632596 -154.393037 
L 344.85695 -154.825953 
L 344.081303 -155.262762 
L 343.305657 -155.703495 
L 342.53001 -156.14818 
L 341.754364 -156.59685 
L 340.978718 -157.049535 
L 340.203071 -157.506265 
L 339.427425 -157.967071 
L 338.651779 -158.431985 
L 337.876132 -158.901037 
L 337.100486 -159.374259 
L 336.324839 -159.851683 
L 335.549193 -160.333339 
L 334.773547 -160.81926 
L 333.9979 -161.309477 
L 333.222254 -161.804023 
L 332.446608 -162.302929 
L 331.670961 -162.806227 
L 330.895315 -163.31395 
L 330.119668 -163.82613 
L 329.344022 -164.342799 
L 328.568376 -164.863991 
L 327.792729 -165.389737 
L 327.017083 -165.920071 
L 326.241437 -166.455026 
L 325.46579 -166.994633 
L 324.690144 -167.538927 
L 323.914497 -168.087941 
L 323.138851 -168.641707 
L 322.363205 -169.20026 
L 321.587558 -169.763632 
L 320.811912 -170.331856 
L 320.036266 -170.904968 
L 319.260619 -171.482999 
L 318.484973 -172.065984 
L 317.709327 -172.653956 
L 316.93368 -173.246949 
L 316.158034 -173.844998 
L 315.382387 -174.448135 
L 314.606741 -175.056395 
L 313.831095 -175.669811 
L 313.055448 -176.288418 
L 312.279802 -176.91225 
L 311.504156 -177.541341 
L 310.728509 -178.175724 
L 309.952863 -178.815434 
L 309.177216 -179.460504 
L 308.40157 -180.11097 
L 307.625924 -180.766865 
L 306.850277 -181.428223 
L 306.074631 -182.095078 
L 305.298985 -182.767464 
L 304.523338 -183.445415 
L 303.747692 -184.128966 
L 302.972045 -184.81815 
L 302.196399 -185.513001 
L 301.420753 -186.213554 
L 300.645106 -186.919841 
L 299.86946 -187.631896 
L 299.093814 -188.349755 
L 298.318167 -189.073449 
L 297.542521 -189.803013 
L 296.766874 -190.53848 
L 295.991228 -191.279883 
L 295.215582 -192.027257 
L 294.439935 -192.780633 
L 293.664289 -193.540045 
L 292.888643 -194.305527 
L 292.112996 -195.07711 
L 291.33735 -195.854828 
L 290.561704 -196.638713 
L 289.786057 -197.428797 
L 289.010411 -198.225113 
L 288.234764 -199.027693 
L 287.459118 -199.836569 
L 286.683472 -200.651772 
L 285.907825 -201.473334 
L 285.132179 -202.301287 
L 284.356533 -203.13566 
L 283.580886 -203.976486 
L 282.80524 -204.823795 
L 282.029593 -205.677618 
L 281.253947 -206.537983 
L 280.478301 -207.404922 
L 279.702654 -208.278464 
L 278.927008 -209.158639 
L 278.151362 -210.045475 
L 277.375715 -210.939001 
L 276.600069 -211.839246 
L 275.824422 -212.746237 
L 275.048776 -213.660003 
L 274.27313 -214.580571 
L 273.497483 -215.507968 
L 272.721837 -216.442221 
L 271.946191 -217.383356 
L 271.170544 -218.331399 
L 270.394898 -219.286376 
L 269.619251 -220.248312 
L 268.843605 -221.217231 
L 268.067959 -222.193158 
L 267.292312 -223.176116 
L 266.516666 -224.16613 
L 265.74102 -225.163221 
L 264.965373 -226.167413 
L 264.189727 -227.178726 
L 263.41408 -228.197183 
L 262.638434 -229.222804 
L 261.862788 -230.25561 
L 261.087141 -231.29562 
L 260.311495 -232.342853 
L 259.535849 -233.397328 
L 258.760202 -234.459063 
L 257.984556 -235.528076 
L 257.20891 -236.604382 
L 256.433263 -237.687998 
L 255.657617 -238.778939 
L 254.88197 -239.87722 
L 254.106324 -240.982854 
L 253.330678 -242.095856 
L 252.555031 -243.216238 
L 251.779385 -244.344011 
L 251.003739 -245.479186 
L 250.228092 -246.621774 
L 249.452446 -247.771784 
L 248.676799 -248.929224 
L 247.901153 -250.094103 
L 247.125507 -251.266427 
L 246.34986 -252.446202 
L 245.574214 -253.633433 
L 244.798568 -254.828124 
L 244.022921 -256.030279 
L 243.247275 -257.2399 
L 242.471628 -258.456987 
L 241.695982 -259.681542 
L 240.920336 -260.913563 
L 240.144689 -262.153048 
L 239.369043 -263.399995 
L 238.593397 -264.654399 
L 237.81775 -265.916255 
L 237.042104 -267.185557 
L 236.266457 -268.462297 
L 235.490811 -269.746466 
L 234.715165 -271.038054 
L 233.939518 -272.337049 
L 233.163872 -273.643439 
L 232.388226 -274.95721 
L 231.612579 -276.278345 
L 230.836933 -277.606829 
L 230.061286 -278.942642 
L 229.28564 -280.285765 
L 228.509994 -281.636176 
L 227.734347 -282.993851 
L 226.958701 -284.358766 
L 226.183055 -285.730895 
L 225.407408 -287.110208 
L 224.631762 -288.496675 
L 223.856116 -289.890265 
L 223.080469 -291.290943 
L 222.304823 -292.698673 
L 221.529176 -294.113416 
L 220.75353 -295.535133 
L 219.977884 -296.96378 
L 219.202237 -298.399311 
L 218.426591 -299.84168 
L 217.650945 -301.290837 
L 216.875298 -302.746727 
L 216.099652 -304.209295 
L 215.324005 -305.678484 
L 214.548359 -307.154229 
L 213.772713 -308.636468 
L 212.997066 -310.125131 
L 212.22142 -311.620146 
L 211.445774 -313.121438 
L 210.670127 -314.628927 
L 209.894481 -316.142529 
L 209.118834 -317.662157 
L 208.343188 -319.187717 
L 207.567542 -320.719111 
L 206.791895 -322.256238 
L 206.016249 -323.798988 
L 205.240603 -325.347248 
L 204.464956 -326.900899 
L 203.68931 -328.459812 
L 202.913663 -330.023855 
L 202.138017 -331.592887 
L 201.362371 -333.16676 
L 200.586724 -334.745316 
L 199.811078 -336.32839 
L 199.035432 -337.915806 
L 198.259785 -339.507379 
L 197.484139 -341.102913 
L 196.708492 -342.7022 
L 195.932846 -344.30502 
L 195.1572 -345.91114 
L 194.381553 -347.520312 
L 193.605907 -349.132275 
L 192.830261 -350.746748 
L 192.054614 -352.363437 
L 191.278968 -353.982025 
L 190.503322 -355.602178 
L 189.727675 -357.223539 
L 188.952029 -358.845729 
L 188.176382 -360.468342 
L 187.400736 -362.090947 
L 186.62509 -363.713083 
L 185.849443 -365.334259 
L 185.073797 -366.953948 
L 184.298151 -368.571591 
L 183.522504 -370.186586 
L 182.746858 -371.798291 
L 181.971211 -373.406017 
L 181.195565 -375.009029 
L 180.419919 -376.606536 
L 179.644272 -378.197691 
L 178.868626 -379.781585 
L 178.09298 -381.357241 
L 177.317333 -382.923611 
L 176.541687 -384.479567 
L 175.76604 -386.023897 
L 174.990394 -387.555295 
L 174.214748 -389.072355 
L 173.439101 -390.573562 
L 172.663455 -392.057282 
L 171.887809 -393.52175 
L 171.112162 -394.965063 
L 170.336516 -396.38516 
L 169.560869 -397.779815 
L 168.785223 -399.146616 
L 168.009577 -400.48295 
L 167.23393 -401.785983 
L 166.458284 -403.052635 
L 165.682638 -404.279563 
L 164.906991 -405.463125 
L 164.131345 -406.599356 
L 163.355698 -407.683927 
L 162.580052 -408.712113 
L 161.804406 -409.678741 
L 161.028759 -410.578145 
L 160.253113 -411.404103 
L 159.477467 -412.149777 
L 158.70182 -412.807629 
L 157.926174 -413.369341 
L 157.150528 -413.825708 
L 156.374881 -414.166522 
L 155.599235 -414.380432 
L 154.823588 -414.454789 
L 154.047942 -414.375448 
L 153.272296 -414.255864 
L 152.496649 -414.431836 
L 151.721003 -414.430927 
L 150.945357 -414.231289 
L 150.16971 -414.343041 
L 149.394064 -414.454789 
L 148.618417 -414.331849 
L 147.842771 -414.142172 
L 147.067125 -414.417959 
L 146.291478 -414.415647 
L 145.515832 -414.079475 
L 144.740186 -414.263589 
L 143.964539 -414.454789 
L 143.188893 -414.229583 
L 142.413246 -413.47071 
L 141.6376 -412.023882 
L 140.861954 -409.683597 
L 140.086307 -406.172042 
L 139.310661 -401.106826 
L 138.535015 -393.950055 
L 137.759368 -383.925124 
L 136.983722 -369.875278 
L 136.208075 -350.012103 
L 135.432429 -321.444161 
L 134.656783 -279.236917 
L 133.881136 -214.391676 
z
" style="stroke: #1f77b4; stroke-opacity: 0.3"/>
    </defs>
    <g clip-path="url(#p58ba58c9b7)">
     <use xlink:href="#m101a011627" x="0" y="473.389375" style="fill: #1f77b4; fill-opacity: 0.3; stroke: #1f77b4; stroke-opacity: 0.3"/>
    </g>
   </g>
   <g id="matplotlib.axis_1">
    <g id="xtick_1">
     <g id="line2d_1">
      <defs>
       <path id="mfac4cc07a0" d="M 0 0 
L 0 3.5 
" style="stroke: #000000; stroke-width: 0.8"/>
      </defs>
      <g>
       <use xlink:href="#mfac4cc07a0" x="133.10549" y="416.476875" style="stroke: #000000; stroke-width: 0.8"/>
      </g>
     </g>
     <g id="text_1">
      <!-- 0 -->
      <g transform="translate(126.74299 438.67375) scale(0.2 -0.2)">
       <defs>
        <path id="DejaVuSans-30" d="M 2034 4250 
Q 1547 4250 1301 3770 
Q 1056 3291 1056 2328 
Q 1056 1369 1301 889 
Q 1547 409 2034 409 
Q 2525 409 2770 889 
Q 3016 1369 3016 2328 
Q 3016 3291 2770 3770 
Q 2525 4250 2034 4250 
z
M 2034 4750 
Q 2819 4750 3233 4129 
Q 3647 3509 3647 2328 
Q 3647 1150 3233 529 
Q 2819 -91 2034 -91 
Q 1250 -91 836 529 
Q 422 1150 422 2328 
Q 422 3509 836 4129 
Q 1250 4750 2034 4750 
z
" transform="scale(0.015625)"/>
       </defs>
       <use xlink:href="#DejaVuSans-30"/>
      </g>
     </g>
    </g>
    <g id="xtick_2">
     <g id="line2d_2">
      <g>
       <use xlink:href="#mfac4cc07a0" x="210.670127" y="416.476875" style="stroke: #000000; stroke-width: 0.8"/>
      </g>
     </g>
     <g id="text_2">
      <!-- 100 -->
      <g transform="translate(191.582627 438.67375) scale(0.2 -0.2)">
       <defs>
        <path id="DejaVuSans-31" d="M 794 531 
L 1825 531 
L 1825 4091 
L 703 3866 
L 703 4441 
L 1819 4666 
L 2450 4666 
L 2450 531 
L 3481 531 
L 3481 0 
L 794 0 
L 794 531 
z
" transform="scale(0.015625)"/>
       </defs>
       <use xlink:href="#DejaVuSans-31"/>
       <use xlink:href="#DejaVuSans-30" x="63.623047"/>
       <use xlink:href="#DejaVuSans-30" x="127.246094"/>
      </g>
     </g>
    </g>
    <g id="xtick_3">
     <g id="line2d_3">
      <g>
       <use xlink:href="#mfac4cc07a0" x="288.234764" y="416.476875" style="stroke: #000000; stroke-width: 0.8"/>
      </g>
     </g>
     <g id="text_3">
      <!-- 200 -->
      <g transform="translate(269.147264 438.67375) scale(0.2 -0.2)">
       <defs>
        <path id="DejaVuSans-32" d="M 1228 531 
L 3431 531 
L 3431 0 
L 469 0 
L 469 531 
Q 828 903 1448 1529 
Q 2069 2156 2228 2338 
Q 2531 2678 2651 2914 
Q 2772 3150 2772 3378 
Q 2772 3750 2511 3984 
Q 2250 4219 1831 4219 
Q 1534 4219 1204 4116 
Q 875 4013 500 3803 
L 500 4441 
Q 881 4594 1212 4672 
Q 1544 4750 1819 4750 
Q 2544 4750 2975 4387 
Q 3406 4025 3406 3419 
Q 3406 3131 3298 2873 
Q 3191 2616 2906 2266 
Q 2828 2175 2409 1742 
Q 1991 1309 1228 531 
z
" transform="scale(0.015625)"/>
       </defs>
       <use xlink:href="#DejaVuSans-32"/>
       <use xlink:href="#DejaVuSans-30" x="63.623047"/>
       <use xlink:href="#DejaVuSans-30" x="127.246094"/>
      </g>
     </g>
    </g>
    <g id="xtick_4">
     <g id="line2d_4">
      <g>
       <use xlink:href="#mfac4cc07a0" x="365.799402" y="416.476875" style="stroke: #000000; stroke-width: 0.8"/>
      </g>
     </g>
     <g id="text_4">
      <!-- 300 -->
      <g transform="translate(346.711902 438.67375) scale(0.2 -0.2)">
       <defs>
        <path id="DejaVuSans-33" d="M 2597 2516 
Q 3050 2419 3304 2112 
Q 3559 1806 3559 1356 
Q 3559 666 3084 287 
Q 2609 -91 1734 -91 
Q 1441 -91 1130 -33 
Q 819 25 488 141 
L 488 750 
Q 750 597 1062 519 
Q 1375 441 1716 441 
Q 2309 441 2620 675 
Q 2931 909 2931 1356 
Q 2931 1769 2642 2001 
Q 2353 2234 1838 2234 
L 1294 2234 
L 1294 2753 
L 1863 2753 
Q 2328 2753 2575 2939 
Q 2822 3125 2822 3475 
Q 2822 3834 2567 4026 
Q 2313 4219 1838 4219 
Q 1578 4219 1281 4162 
Q 984 4106 628 3988 
L 628 4550 
Q 988 4650 1302 4700 
Q 1616 4750 1894 4750 
Q 2613 4750 3031 4423 
Q 3450 4097 3450 3541 
Q 3450 3153 3228 2886 
Q 3006 2619 2597 2516 
z
" transform="scale(0.015625)"/>
       </defs>
       <use xlink:href="#DejaVuSans-33"/>
       <use xlink:href="#DejaVuSans-30" x="63.623047"/>
       <use xlink:href="#DejaVuSans-30" x="127.246094"/>
      </g>
     </g>
    </g>
    <g id="xtick_5">
     <g id="line2d_5">
      <g>
       <use xlink:href="#mfac4cc07a0" x="443.364039" y="416.476875" style="stroke: #000000; stroke-width: 0.8"/>
      </g>
     </g>
     <g id="text_5">
      <!-- 400 -->
      <g transform="translate(424.276539 438.67375) scale(0.2 -0.2)">
       <defs>
        <path id="DejaVuSans-34" d="M 2419 4116 
L 825 1625 
L 2419 1625 
L 2419 4116 
z
M 2253 4666 
L 3047 4666 
L 3047 1625 
L 3713 1625 
L 3713 1100 
L 3047 1100 
L 3047 0 
L 2419 0 
L 2419 1100 
L 313 1100 
L 313 1709 
L 2253 4666 
z
" transform="scale(0.015625)"/>
       </defs>
       <use xlink:href="#DejaVuSans-34"/>
       <use xlink:href="#DejaVuSans-30" x="63.623047"/>
       <use xlink:href="#DejaVuSans-30" x="127.246094"/>
      </g>
     </g>
    </g>
    <g id="xtick_6">
     <g id="line2d_6">
      <g>
       <use xlink:href="#mfac4cc07a0" x="520.928676" y="416.476875" style="stroke: #000000; stroke-width: 0.8"/>
      </g>
     </g>
     <g id="text_6">
      <!-- 500 -->
      <g transform="translate(501.841176 438.67375) scale(0.2 -0.2)">
       <defs>
        <path id="DejaVuSans-35" d="M 691 4666 
L 3169 4666 
L 3169 4134 
L 1269 4134 
L 1269 2991 
Q 1406 3038 1543 3061 
Q 1681 3084 1819 3084 
Q 2600 3084 3056 2656 
Q 3513 2228 3513 1497 
Q 3513 744 3044 326 
Q 2575 -91 1722 -91 
Q 1428 -91 1123 -41 
Q 819 9 494 109 
L 494 744 
Q 775 591 1075 516 
Q 1375 441 1709 441 
Q 2250 441 2565 725 
Q 2881 1009 2881 1497 
Q 2881 1984 2565 2268 
Q 2250 2553 1709 2553 
Q 1456 2553 1204 2497 
Q 953 2441 691 2322 
L 691 4666 
z
" transform="scale(0.015625)"/>
       </defs>
       <use xlink:href="#DejaVuSans-35"/>
       <use xlink:href="#DejaVuSans-30" x="63.623047"/>
       <use xlink:href="#DejaVuSans-30" x="127.246094"/>
      </g>
     </g>
    </g>
    <g id="xtick_7">
     <g id="line2d_7">
      <g>
       <use xlink:href="#mfac4cc07a0" x="598.493313" y="416.476875" style="stroke: #000000; stroke-width: 0.8"/>
      </g>
     </g>
     <g id="text_7">
      <!-- 600 -->
      <g transform="translate(579.405813 438.67375) scale(0.2 -0.2)">
       <defs>
        <path id="DejaVuSans-36" d="M 2113 2584 
Q 1688 2584 1439 2293 
Q 1191 2003 1191 1497 
Q 1191 994 1439 701 
Q 1688 409 2113 409 
Q 2538 409 2786 701 
Q 3034 994 3034 1497 
Q 3034 2003 2786 2293 
Q 2538 2584 2113 2584 
z
M 3366 4563 
L 3366 3988 
Q 3128 4100 2886 4159 
Q 2644 4219 2406 4219 
Q 1781 4219 1451 3797 
Q 1122 3375 1075 2522 
Q 1259 2794 1537 2939 
Q 1816 3084 2150 3084 
Q 2853 3084 3261 2657 
Q 3669 2231 3669 1497 
Q 3669 778 3244 343 
Q 2819 -91 2113 -91 
Q 1303 -91 875 529 
Q 447 1150 447 2328 
Q 447 3434 972 4092 
Q 1497 4750 2381 4750 
Q 2619 4750 2861 4703 
Q 3103 4656 3366 4563 
z
" transform="scale(0.015625)"/>
       </defs>
       <use xlink:href="#DejaVuSans-36"/>
       <use xlink:href="#DejaVuSans-30" x="63.623047"/>
       <use xlink:href="#DejaVuSans-30" x="127.246094"/>
      </g>
     </g>
    </g>
    <g id="text_8">
     <!-- Days since antigen exposure -->
     <g transform="translate(243.097188 462.03) scale(0.2 -0.2)">
      <defs>
       <path id="DejaVuSans-44" d="M 1259 4147 
L 1259 519 
L 2022 519 
Q 2988 519 3436 956 
Q 3884 1394 3884 2338 
Q 3884 3275 3436 3711 
Q 2988 4147 2022 4147 
L 1259 4147 
z
M 628 4666 
L 1925 4666 
Q 3281 4666 3915 4102 
Q 4550 3538 4550 2338 
Q 4550 1131 3912 565 
Q 3275 0 1925 0 
L 628 0 
L 628 4666 
z
" transform="scale(0.015625)"/>
       <path id="DejaVuSans-61" d="M 2194 1759 
Q 1497 1759 1228 1600 
Q 959 1441 959 1056 
Q 959 750 1161 570 
Q 1363 391 1709 391 
Q 2188 391 2477 730 
Q 2766 1069 2766 1631 
L 2766 1759 
L 2194 1759 
z
M 3341 1997 
L 3341 0 
L 2766 0 
L 2766 531 
Q 2569 213 2275 61 
Q 1981 -91 1556 -91 
Q 1019 -91 701 211 
Q 384 513 384 1019 
Q 384 1609 779 1909 
Q 1175 2209 1959 2209 
L 2766 2209 
L 2766 2266 
Q 2766 2663 2505 2880 
Q 2244 3097 1772 3097 
Q 1472 3097 1187 3025 
Q 903 2953 641 2809 
L 641 3341 
Q 956 3463 1253 3523 
Q 1550 3584 1831 3584 
Q 2591 3584 2966 3190 
Q 3341 2797 3341 1997 
z
" transform="scale(0.015625)"/>
       <path id="DejaVuSans-79" d="M 2059 -325 
Q 1816 -950 1584 -1140 
Q 1353 -1331 966 -1331 
L 506 -1331 
L 506 -850 
L 844 -850 
Q 1081 -850 1212 -737 
Q 1344 -625 1503 -206 
L 1606 56 
L 191 3500 
L 800 3500 
L 1894 763 
L 2988 3500 
L 3597 3500 
L 2059 -325 
z
" transform="scale(0.015625)"/>
       <path id="DejaVuSans-73" d="M 2834 3397 
L 2834 2853 
Q 2591 2978 2328 3040 
Q 2066 3103 1784 3103 
Q 1356 3103 1142 2972 
Q 928 2841 928 2578 
Q 928 2378 1081 2264 
Q 1234 2150 1697 2047 
L 1894 2003 
Q 2506 1872 2764 1633 
Q 3022 1394 3022 966 
Q 3022 478 2636 193 
Q 2250 -91 1575 -91 
Q 1294 -91 989 -36 
Q 684 19 347 128 
L 347 722 
Q 666 556 975 473 
Q 1284 391 1588 391 
Q 1994 391 2212 530 
Q 2431 669 2431 922 
Q 2431 1156 2273 1281 
Q 2116 1406 1581 1522 
L 1381 1569 
Q 847 1681 609 1914 
Q 372 2147 372 2553 
Q 372 3047 722 3315 
Q 1072 3584 1716 3584 
Q 2034 3584 2315 3537 
Q 2597 3491 2834 3397 
z
" transform="scale(0.015625)"/>
       <path id="DejaVuSans-20" transform="scale(0.015625)"/>
       <path id="DejaVuSans-69" d="M 603 3500 
L 1178 3500 
L 1178 0 
L 603 0 
L 603 3500 
z
M 603 4863 
L 1178 4863 
L 1178 4134 
L 603 4134 
L 603 4863 
z
" transform="scale(0.015625)"/>
       <path id="DejaVuSans-6e" d="M 3513 2113 
L 3513 0 
L 2938 0 
L 2938 2094 
Q 2938 2591 2744 2837 
Q 2550 3084 2163 3084 
Q 1697 3084 1428 2787 
Q 1159 2491 1159 1978 
L 1159 0 
L 581 0 
L 581 3500 
L 1159 3500 
L 1159 2956 
Q 1366 3272 1645 3428 
Q 1925 3584 2291 3584 
Q 2894 3584 3203 3211 
Q 3513 2838 3513 2113 
z
" transform="scale(0.015625)"/>
       <path id="DejaVuSans-63" d="M 3122 3366 
L 3122 2828 
Q 2878 2963 2633 3030 
Q 2388 3097 2138 3097 
Q 1578 3097 1268 2742 
Q 959 2388 959 1747 
Q 959 1106 1268 751 
Q 1578 397 2138 397 
Q 2388 397 2633 464 
Q 2878 531 3122 666 
L 3122 134 
Q 2881 22 2623 -34 
Q 2366 -91 2075 -91 
Q 1284 -91 818 406 
Q 353 903 353 1747 
Q 353 2603 823 3093 
Q 1294 3584 2113 3584 
Q 2378 3584 2631 3529 
Q 2884 3475 3122 3366 
z
" transform="scale(0.015625)"/>
       <path id="DejaVuSans-65" d="M 3597 1894 
L 3597 1613 
L 953 1613 
Q 991 1019 1311 708 
Q 1631 397 2203 397 
Q 2534 397 2845 478 
Q 3156 559 3463 722 
L 3463 178 
Q 3153 47 2828 -22 
Q 2503 -91 2169 -91 
Q 1331 -91 842 396 
Q 353 884 353 1716 
Q 353 2575 817 3079 
Q 1281 3584 2069 3584 
Q 2775 3584 3186 3129 
Q 3597 2675 3597 1894 
z
M 3022 2063 
Q 3016 2534 2758 2815 
Q 2500 3097 2075 3097 
Q 1594 3097 1305 2825 
Q 1016 2553 972 2059 
L 3022 2063 
z
" transform="scale(0.015625)"/>
       <path id="DejaVuSans-74" d="M 1172 4494 
L 1172 3500 
L 2356 3500 
L 2356 3053 
L 1172 3053 
L 1172 1153 
Q 1172 725 1289 603 
Q 1406 481 1766 481 
L 2356 481 
L 2356 0 
L 1766 0 
Q 1100 0 847 248 
Q 594 497 594 1153 
L 594 3053 
L 172 3053 
L 172 3500 
L 594 3500 
L 594 4494 
L 1172 4494 
z
" transform="scale(0.015625)"/>
       <path id="DejaVuSans-67" d="M 2906 1791 
Q 2906 2416 2648 2759 
Q 2391 3103 1925 3103 
Q 1463 3103 1205 2759 
Q 947 2416 947 1791 
Q 947 1169 1205 825 
Q 1463 481 1925 481 
Q 2391 481 2648 825 
Q 2906 1169 2906 1791 
z
M 3481 434 
Q 3481 -459 3084 -895 
Q 2688 -1331 1869 -1331 
Q 1566 -1331 1297 -1286 
Q 1028 -1241 775 -1147 
L 775 -588 
Q 1028 -725 1275 -790 
Q 1522 -856 1778 -856 
Q 2344 -856 2625 -561 
Q 2906 -266 2906 331 
L 2906 616 
Q 2728 306 2450 153 
Q 2172 0 1784 0 
Q 1141 0 747 490 
Q 353 981 353 1791 
Q 353 2603 747 3093 
Q 1141 3584 1784 3584 
Q 2172 3584 2450 3431 
Q 2728 3278 2906 2969 
L 2906 3500 
L 3481 3500 
L 3481 434 
z
" transform="scale(0.015625)"/>
       <path id="DejaVuSans-78" d="M 3513 3500 
L 2247 1797 
L 3578 0 
L 2900 0 
L 1881 1375 
L 863 0 
L 184 0 
L 1544 1831 
L 300 3500 
L 978 3500 
L 1906 2253 
L 2834 3500 
L 3513 3500 
z
" transform="scale(0.015625)"/>
       <path id="DejaVuSans-70" d="M 1159 525 
L 1159 -1331 
L 581 -1331 
L 581 3500 
L 1159 3500 
L 1159 2969 
Q 1341 3281 1617 3432 
Q 1894 3584 2278 3584 
Q 2916 3584 3314 3078 
Q 3713 2572 3713 1747 
Q 3713 922 3314 415 
Q 2916 -91 2278 -91 
Q 1894 -91 1617 61 
Q 1341 213 1159 525 
z
M 3116 1747 
Q 3116 2381 2855 2742 
Q 2594 3103 2138 3103 
Q 1681 3103 1420 2742 
Q 1159 2381 1159 1747 
Q 1159 1113 1420 752 
Q 1681 391 2138 391 
Q 2594 391 2855 752 
Q 3116 1113 3116 1747 
z
" transform="scale(0.015625)"/>
       <path id="DejaVuSans-6f" d="M 1959 3097 
Q 1497 3097 1228 2736 
Q 959 2375 959 1747 
Q 959 1119 1226 758 
Q 1494 397 1959 397 
Q 2419 397 2687 759 
Q 2956 1122 2956 1747 
Q 2956 2369 2687 2733 
Q 2419 3097 1959 3097 
z
M 1959 3584 
Q 2709 3584 3137 3096 
Q 3566 2609 3566 1747 
Q 3566 888 3137 398 
Q 2709 -91 1959 -91 
Q 1206 -91 779 398 
Q 353 888 353 1747 
Q 353 2609 779 3096 
Q 1206 3584 1959 3584 
z
" transform="scale(0.015625)"/>
       <path id="DejaVuSans-75" d="M 544 1381 
L 544 3500 
L 1119 3500 
L 1119 1403 
Q 1119 906 1312 657 
Q 1506 409 1894 409 
Q 2359 409 2629 706 
Q 2900 1003 2900 1516 
L 2900 3500 
L 3475 3500 
L 3475 0 
L 2900 0 
L 2900 538 
Q 2691 219 2414 64 
Q 2138 -91 1772 -91 
Q 1169 -91 856 284 
Q 544 659 544 1381 
z
M 1991 3584 
L 1991 3584 
z
" transform="scale(0.015625)"/>
       <path id="DejaVuSans-72" d="M 2631 2963 
Q 2534 3019 2420 3045 
Q 2306 3072 2169 3072 
Q 1681 3072 1420 2755 
Q 1159 2438 1159 1844 
L 1159 0 
L 581 0 
L 581 3500 
L 1159 3500 
L 1159 2956 
Q 1341 3275 1631 3429 
Q 1922 3584 2338 3584 
Q 2397 3584 2469 3576 
Q 2541 3569 2628 3553 
L 2631 2963 
z
" transform="scale(0.015625)"/>
      </defs>
      <use xlink:href="#DejaVuSans-44"/>
      <use xlink:href="#DejaVuSans-61" x="77.001953"/>
      <use xlink:href="#DejaVuSans-79" x="138.28125"/>
      <use xlink:href="#DejaVuSans-73" x="197.460938"/>
      <use xlink:href="#DejaVuSans-20" x="249.560547"/>
      <use xlink:href="#DejaVuSans-73" x="281.347656"/>
      <use xlink:href="#DejaVuSans-69" x="333.447266"/>
      <use xlink:href="#DejaVuSans-6e" x="361.230469"/>
      <use xlink:href="#DejaVuSans-63" x="424.609375"/>
      <use xlink:href="#DejaVuSans-65" x="479.589844"/>
      <use xlink:href="#DejaVuSans-20" x="541.113281"/>
      <use xlink:href="#DejaVuSans-61" x="572.900391"/>
      <use xlink:href="#DejaVuSans-6e" x="634.179688"/>
      <use xlink:href="#DejaVuSans-74" x="697.558594"/>
      <use xlink:href="#DejaVuSans-69" x="736.767578"/>
      <use xlink:href="#DejaVuSans-67" x="764.550781"/>
      <use xlink:href="#DejaVuSans-65" x="828.027344"/>
      <use xlink:href="#DejaVuSans-6e" x="889.550781"/>
      <use xlink:href="#DejaVuSans-20" x="952.929688"/>
      <use xlink:href="#DejaVuSans-65" x="984.716797"/>
      <use xlink:href="#DejaVuSans-78" x="1044.490234"/>
      <use xlink:href="#DejaVuSans-70" x="1103.669922"/>
      <use xlink:href="#DejaVuSans-6f" x="1167.146484"/>
      <use xlink:href="#DejaVuSans-73" x="1228.328125"/>
      <use xlink:href="#DejaVuSans-75" x="1280.427734"/>
      <use xlink:href="#DejaVuSans-72" x="1343.806641"/>
      <use xlink:href="#DejaVuSans-65" x="1382.669922"/>
     </g>
    </g>
   </g>
   <g id="matplotlib.axis_2">
    <g id="ytick_1">
     <g id="line2d_8">
      <defs>
       <path id="m1535a6d424" d="M 0 0 
L -3.5 0 
" style="stroke: #000000; stroke-width: 0.8"/>
      </defs>
      <g>
       <use xlink:href="#m1535a6d424" x="108.5175" y="416.476875" style="stroke: #000000; stroke-width: 0.8"/>
      </g>
     </g>
     <g id="text_9">
      <!-- 0.1 -->
      <g transform="translate(52.951875 424.075312) scale(0.2 -0.2)">
       <defs>
        <path id="DejaVuSans-2212" d="M 678 2272 
L 4684 2272 
L 4684 1741 
L 678 1741 
L 678 2272 
z
" transform="scale(0.015625)"/>
        <path id="DejaVuSans-2e" d="M 684 794 
L 1344 794 
L 1344 0 
L 684 0 
L 684 794 
z
" transform="scale(0.015625)"/>
       </defs>
       <use xlink:href="#DejaVuSans-2212"/>
       <use xlink:href="#DejaVuSans-30" x="83.789062"/>
       <use xlink:href="#DejaVuSans-2e" x="147.412109"/>
       <use xlink:href="#DejaVuSans-31" x="179.199219"/>
      </g>
     </g>
    </g>
    <g id="ytick_2">
     <g id="line2d_9">
      <g>
       <use xlink:href="#m1535a6d424" x="108.5175" y="364.311701" style="stroke: #000000; stroke-width: 0.8"/>
      </g>
     </g>
     <g id="text_10">
      <!-- 0.0 -->
      <g transform="translate(69.71125 371.910138) scale(0.2 -0.2)">
       <use xlink:href="#DejaVuSans-30"/>
       <use xlink:href="#DejaVuSans-2e" x="63.623047"/>
       <use xlink:href="#DejaVuSans-30" x="95.410156"/>
      </g>
     </g>
    </g>
    <g id="ytick_3">
     <g id="line2d_10">
      <g>
       <use xlink:href="#m1535a6d424" x="108.5175" y="312.146526" style="stroke: #000000; stroke-width: 0.8"/>
      </g>
     </g>
     <g id="text_11">
      <!-- 0.1 -->
      <g transform="translate(69.71125 319.744964) scale(0.2 -0.2)">
       <use xlink:href="#DejaVuSans-30"/>
       <use xlink:href="#DejaVuSans-2e" x="63.623047"/>
       <use xlink:href="#DejaVuSans-31" x="95.410156"/>
      </g>
     </g>
    </g>
    <g id="ytick_4">
     <g id="line2d_11">
      <g>
       <use xlink:href="#m1535a6d424" x="108.5175" y="259.981352" style="stroke: #000000; stroke-width: 0.8"/>
      </g>
     </g>
     <g id="text_12">
      <!-- 0.2 -->
      <g transform="translate(69.71125 267.57979) scale(0.2 -0.2)">
       <use xlink:href="#DejaVuSans-30"/>
       <use xlink:href="#DejaVuSans-2e" x="63.623047"/>
       <use xlink:href="#DejaVuSans-32" x="95.410156"/>
      </g>
     </g>
    </g>
    <g id="ytick_5">
     <g id="line2d_12">
      <g>
       <use xlink:href="#m1535a6d424" x="108.5175" y="207.816178" style="stroke: #000000; stroke-width: 0.8"/>
      </g>
     </g>
     <g id="text_13">
      <!-- 0.3 -->
      <g transform="translate(69.71125 215.414615) scale(0.2 -0.2)">
       <use xlink:href="#DejaVuSans-30"/>
       <use xlink:href="#DejaVuSans-2e" x="63.623047"/>
       <use xlink:href="#DejaVuSans-33" x="95.410156"/>
      </g>
     </g>
    </g>
    <g id="ytick_6">
     <g id="line2d_13">
      <g>
       <use xlink:href="#m1535a6d424" x="108.5175" y="155.651004" style="stroke: #000000; stroke-width: 0.8"/>
      </g>
     </g>
     <g id="text_14">
      <!-- 0.4 -->
      <g transform="translate(69.71125 163.249441) scale(0.2 -0.2)">
       <use xlink:href="#DejaVuSans-30"/>
       <use xlink:href="#DejaVuSans-2e" x="63.623047"/>
       <use xlink:href="#DejaVuSans-34" x="95.410156"/>
      </g>
     </g>
    </g>
    <g id="ytick_7">
     <g id="line2d_14">
      <g>
       <use xlink:href="#m1535a6d424" x="108.5175" y="103.485829" style="stroke: #000000; stroke-width: 0.8"/>
      </g>
     </g>
     <g id="text_15">
      <!-- 0.5 -->
      <g transform="translate(69.71125 111.084267) scale(0.2 -0.2)">
       <use xlink:href="#DejaVuSans-30"/>
       <use xlink:href="#DejaVuSans-2e" x="63.623047"/>
       <use xlink:href="#DejaVuSans-35" x="95.410156"/>
      </g>
     </g>
    </g>
    <g id="ytick_8">
     <g id="line2d_15">
      <g>
       <use xlink:href="#m1535a6d424" x="108.5175" y="51.320655" style="stroke: #000000; stroke-width: 0.8"/>
      </g>
     </g>
     <g id="text_16">
      <!-- 0.6 -->
      <g transform="translate(69.71125 58.919093) scale(0.2 -0.2)">
       <use xlink:href="#DejaVuSans-30"/>
       <use xlink:href="#DejaVuSans-2e" x="63.623047"/>
       <use xlink:href="#DejaVuSans-36" x="95.410156"/>
      </g>
     </g>
    </g>
    <g id="text_17">
     <!-- Virus neutralization -->
     <g transform="translate(22.396875 319.741562) rotate(-90) scale(0.2 -0.2)">
      <defs>
       <path id="DejaVuSans-56" d="M 1831 0 
L 50 4666 
L 709 4666 
L 2188 738 
L 3669 4666 
L 4325 4666 
L 2547 0 
L 1831 0 
z
" transform="scale(0.015625)"/>
       <path id="DejaVuSans-6c" d="M 603 4863 
L 1178 4863 
L 1178 0 
L 603 0 
L 603 4863 
z
" transform="scale(0.015625)"/>
       <path id="DejaVuSans-7a" d="M 353 3500 
L 3084 3500 
L 3084 2975 
L 922 459 
L 3084 459 
L 3084 0 
L 275 0 
L 275 525 
L 2438 3041 
L 353 3041 
L 353 3500 
z
" transform="scale(0.015625)"/>
      </defs>
      <use xlink:href="#DejaVuSans-56"/>
      <use xlink:href="#DejaVuSans-69" x="66.158203"/>
      <use xlink:href="#DejaVuSans-72" x="93.941406"/>
      <use xlink:href="#DejaVuSans-75" x="135.054688"/>
      <use xlink:href="#DejaVuSans-73" x="198.433594"/>
      <use xlink:href="#DejaVuSans-20" x="250.533203"/>
      <use xlink:href="#DejaVuSans-6e" x="282.320312"/>
      <use xlink:href="#DejaVuSans-65" x="345.699219"/>
      <use xlink:href="#DejaVuSans-75" x="407.222656"/>
      <use xlink:href="#DejaVuSans-74" x="470.601562"/>
      <use xlink:href="#DejaVuSans-72" x="509.810547"/>
      <use xlink:href="#DejaVuSans-61" x="550.923828"/>
      <use xlink:href="#DejaVuSans-6c" x="612.203125"/>
      <use xlink:href="#DejaVuSans-69" x="639.986328"/>
      <use xlink:href="#DejaVuSans-7a" x="667.769531"/>
      <use xlink:href="#DejaVuSans-61" x="720.259766"/>
      <use xlink:href="#DejaVuSans-74" x="781.539062"/>
      <use xlink:href="#DejaVuSans-69" x="820.748047"/>
      <use xlink:href="#DejaVuSans-6f" x="848.53125"/>
      <use xlink:href="#DejaVuSans-6e" x="909.712891"/>
     </g>
     <!--  probability -->
     <g transform="translate(44.7925 278.966562) rotate(-90) scale(0.2 -0.2)">
      <defs>
       <path id="DejaVuSans-62" d="M 3116 1747 
Q 3116 2381 2855 2742 
Q 2594 3103 2138 3103 
Q 1681 3103 1420 2742 
Q 1159 2381 1159 1747 
Q 1159 1113 1420 752 
Q 1681 391 2138 391 
Q 2594 391 2855 752 
Q 3116 1113 3116 1747 
z
M 1159 2969 
Q 1341 3281 1617 3432 
Q 1894 3584 2278 3584 
Q 2916 3584 3314 3078 
Q 3713 2572 3713 1747 
Q 3713 922 3314 415 
Q 2916 -91 2278 -91 
Q 1894 -91 1617 61 
Q 1341 213 1159 525 
L 1159 0 
L 581 0 
L 581 4863 
L 1159 4863 
L 1159 2969 
z
" transform="scale(0.015625)"/>
      </defs>
      <use xlink:href="#DejaVuSans-20"/>
      <use xlink:href="#DejaVuSans-70" x="31.787109"/>
      <use xlink:href="#DejaVuSans-72" x="95.263672"/>
      <use xlink:href="#DejaVuSans-6f" x="134.126953"/>
      <use xlink:href="#DejaVuSans-62" x="195.308594"/>
      <use xlink:href="#DejaVuSans-61" x="258.785156"/>
      <use xlink:href="#DejaVuSans-62" x="320.064453"/>
      <use xlink:href="#DejaVuSans-69" x="383.541016"/>
      <use xlink:href="#DejaVuSans-6c" x="411.324219"/>
      <use xlink:href="#DejaVuSans-69" x="439.107422"/>
      <use xlink:href="#DejaVuSans-74" x="466.890625"/>
      <use xlink:href="#DejaVuSans-79" x="506.099609"/>
     </g>
    </g>
   </g>
   <g id="patch_3">
    <path d="M 108.5175 416.476875 
L 108.5175 28.396875 
" style="fill: none; stroke: #000000; stroke-width: 0.8; stroke-linejoin: miter; stroke-linecap: square"/>
   </g>
   <g id="patch_4">
    <path d="M 666.5175 416.476875 
L 666.5175 28.396875 
" style="fill: none; stroke: #000000; stroke-width: 0.8; stroke-linejoin: miter; stroke-linecap: square"/>
   </g>
   <g id="patch_5">
    <path d="M 108.5175 416.476875 
L 666.5175 416.476875 
" style="fill: none; stroke: #000000; stroke-width: 0.8; stroke-linejoin: miter; stroke-linecap: square"/>
   </g>
   <g id="patch_6">
    <path d="M 108.5175 28.396875 
L 666.5175 28.396875 
" style="fill: none; stroke: #000000; stroke-width: 0.8; stroke-linejoin: miter; stroke-linecap: square"/>
   </g>
   <g id="text_18">
    <!-- JN.1 antigen -->
    <g transform="translate(326.364375 22.396875) scale(0.2 -0.2)">
     <defs>
      <path id="DejaVuSans-4a" d="M 628 4666 
L 1259 4666 
L 1259 325 
Q 1259 -519 939 -900 
Q 619 -1281 -91 -1281 
L -331 -1281 
L -331 -750 
L -134 -750 
Q 284 -750 456 -515 
Q 628 -281 628 325 
L 628 4666 
z
" transform="scale(0.015625)"/>
      <path id="DejaVuSans-4e" d="M 628 4666 
L 1478 4666 
L 3547 763 
L 3547 4666 
L 4159 4666 
L 4159 0 
L 3309 0 
L 1241 3903 
L 1241 0 
L 628 0 
L 628 4666 
z
" transform="scale(0.015625)"/>
     </defs>
     <use xlink:href="#DejaVuSans-4a"/>
     <use xlink:href="#DejaVuSans-4e" x="29.492188"/>
     <use xlink:href="#DejaVuSans-2e" x="104.296875"/>
     <use xlink:href="#DejaVuSans-31" x="136.083984"/>
     <use xlink:href="#DejaVuSans-20" x="199.707031"/>
     <use xlink:href="#DejaVuSans-61" x="231.494141"/>
     <use xlink:href="#DejaVuSans-6e" x="292.773438"/>
     <use xlink:href="#DejaVuSans-74" x="356.152344"/>
     <use xlink:href="#DejaVuSans-69" x="395.361328"/>
     <use xlink:href="#DejaVuSans-67" x="423.144531"/>
     <use xlink:href="#DejaVuSans-65" x="486.621094"/>
     <use xlink:href="#DejaVuSans-6e" x="548.144531"/>
    </g>
   </g>
   <g id="legend_1">
    <g id="patch_7">
     <path d="M 782.1175 416.476875 
L 943.139375 416.476875 
Q 947.139375 416.476875 947.139375 412.476875 
L 947.139375 385.120625 
Q 947.139375 381.120625 943.139375 381.120625 
L 782.1175 381.120625 
Q 778.1175 381.120625 778.1175 385.120625 
L 778.1175 412.476875 
Q 778.1175 416.476875 782.1175 416.476875 
z
" style="fill: #ffffff; opacity: 0.8; stroke: #cccccc; stroke-linejoin: miter"/>
    </g>
    <g id="patch_8">
     <path d="M 786.1175 404.3175 
L 826.1175 404.3175 
L 826.1175 390.3175 
L 786.1175 390.3175 
z
" style="fill: #1f77b4; fill-opacity: 0.3; stroke: #1f77b4; stroke-opacity: 0.3; stroke-linejoin: miter"/>
    </g>
    <g id="text_19">
     <!-- BA.2.87.1 -->
     <g transform="translate(842.1175 404.3175) scale(0.2 -0.2)">
      <defs>
       <path id="DejaVuSans-42" d="M 1259 2228 
L 1259 519 
L 2272 519 
Q 2781 519 3026 730 
Q 3272 941 3272 1375 
Q 3272 1813 3026 2020 
Q 2781 2228 2272 2228 
L 1259 2228 
z
M 1259 4147 
L 1259 2741 
L 2194 2741 
Q 2656 2741 2882 2914 
Q 3109 3088 3109 3444 
Q 3109 3797 2882 3972 
Q 2656 4147 2194 4147 
L 1259 4147 
z
M 628 4666 
L 2241 4666 
Q 2963 4666 3353 4366 
Q 3744 4066 3744 3513 
Q 3744 3084 3544 2831 
Q 3344 2578 2956 2516 
Q 3422 2416 3680 2098 
Q 3938 1781 3938 1306 
Q 3938 681 3513 340 
Q 3088 0 2303 0 
L 628 0 
L 628 4666 
z
" transform="scale(0.015625)"/>
       <path id="DejaVuSans-41" d="M 2188 4044 
L 1331 1722 
L 3047 1722 
L 2188 4044 
z
M 1831 4666 
L 2547 4666 
L 4325 0 
L 3669 0 
L 3244 1197 
L 1141 1197 
L 716 0 
L 50 0 
L 1831 4666 
z
" transform="scale(0.015625)"/>
       <path id="DejaVuSans-38" d="M 2034 2216 
Q 1584 2216 1326 1975 
Q 1069 1734 1069 1313 
Q 1069 891 1326 650 
Q 1584 409 2034 409 
Q 2484 409 2743 651 
Q 3003 894 3003 1313 
Q 3003 1734 2745 1975 
Q 2488 2216 2034 2216 
z
M 1403 2484 
Q 997 2584 770 2862 
Q 544 3141 544 3541 
Q 544 4100 942 4425 
Q 1341 4750 2034 4750 
Q 2731 4750 3128 4425 
Q 3525 4100 3525 3541 
Q 3525 3141 3298 2862 
Q 3072 2584 2669 2484 
Q 3125 2378 3379 2068 
Q 3634 1759 3634 1313 
Q 3634 634 3220 271 
Q 2806 -91 2034 -91 
Q 1263 -91 848 271 
Q 434 634 434 1313 
Q 434 1759 690 2068 
Q 947 2378 1403 2484 
z
M 1172 3481 
Q 1172 3119 1398 2916 
Q 1625 2713 2034 2713 
Q 2441 2713 2670 2916 
Q 2900 3119 2900 3481 
Q 2900 3844 2670 4047 
Q 2441 4250 2034 4250 
Q 1625 4250 1398 4047 
Q 1172 3844 1172 3481 
z
" transform="scale(0.015625)"/>
       <path id="DejaVuSans-37" d="M 525 4666 
L 3525 4666 
L 3525 4397 
L 1831 0 
L 1172 0 
L 2766 4134 
L 525 4134 
L 525 4666 
z
" transform="scale(0.015625)"/>
      </defs>
      <use xlink:href="#DejaVuSans-42"/>
      <use xlink:href="#DejaVuSans-41" x="68.603516"/>
      <use xlink:href="#DejaVuSans-2e" x="135.261719"/>
      <use xlink:href="#DejaVuSans-32" x="167.048828"/>
      <use xlink:href="#DejaVuSans-2e" x="230.671875"/>
      <use xlink:href="#DejaVuSans-38" x="262.458984"/>
      <use xlink:href="#DejaVuSans-37" x="326.082031"/>
      <use xlink:href="#DejaVuSans-2e" x="389.705078"/>
      <use xlink:href="#DejaVuSans-31" x="421.492188"/>
     </g>
    </g>
   </g>
  </g>
 </g>
 <defs>
  <clipPath id="p58ba58c9b7">
   <rect x="108.5175" y="28.396875" width="558" height="388.08"/>
  </clipPath>
 </defs>
</svg>
